<?xml version="1.0" encoding="utf-8"?>
<svg xmlns="http://www.w3.org/2000/svg" xmlns:xlink="http://www.w3.org/1999/xlink" width="600" height="400" viewBox="0 0 2400 1600">
<defs>
  <clipPath id="clip980">
    <rect x="0" y="0" width="2400" height="1600"/>
  </clipPath>
</defs>
<path clip-path="url(#clip980)" d="M0 1600 L2400 1600 L2400 0 L0 0  Z" fill="#ffffff" fill-rule="evenodd" fill-opacity="1"/>
<defs>
  <clipPath id="clip981">
    <rect x="271" y="953" width="2083" height="421"/>
  </clipPath>
</defs>
<path clip-path="url(#clip980)" d="M219.38 1423.18 L2352.76 1423.18 L2352.76 123.472 L219.38 123.472  Z" fill="#ffffff" fill-rule="evenodd" fill-opacity="1"/>
<defs>
  <clipPath id="clip982">
    <rect x="219" y="123" width="2134" height="1301"/>
  </clipPath>
</defs>
<polyline clip-path="url(#clip982)" style="stroke:#000000; stroke-linecap:round; stroke-linejoin:round; stroke-width:2; stroke-opacity:0.1; fill:none" points="279.759,1423.18 279.759,123.472 "/>
<polyline clip-path="url(#clip982)" style="stroke:#000000; stroke-linecap:round; stroke-linejoin:round; stroke-width:2; stroke-opacity:0.1; fill:none" points="782.913,1423.18 782.913,123.472 "/>
<polyline clip-path="url(#clip982)" style="stroke:#000000; stroke-linecap:round; stroke-linejoin:round; stroke-width:2; stroke-opacity:0.1; fill:none" points="1286.07,1423.18 1286.07,123.472 "/>
<polyline clip-path="url(#clip982)" style="stroke:#000000; stroke-linecap:round; stroke-linejoin:round; stroke-width:2; stroke-opacity:0.1; fill:none" points="1789.22,1423.18 1789.22,123.472 "/>
<polyline clip-path="url(#clip982)" style="stroke:#000000; stroke-linecap:round; stroke-linejoin:round; stroke-width:2; stroke-opacity:0.1; fill:none" points="2292.38,1423.18 2292.38,123.472 "/>
<polyline clip-path="url(#clip982)" style="stroke:#000000; stroke-linecap:round; stroke-linejoin:round; stroke-width:2; stroke-opacity:0.1; fill:none" points="219.38,1383.18 2352.76,1383.18 "/>
<polyline clip-path="url(#clip982)" style="stroke:#000000; stroke-linecap:round; stroke-linejoin:round; stroke-width:2; stroke-opacity:0.1; fill:none" points="219.38,1028.88 2352.76,1028.88 "/>
<polyline clip-path="url(#clip982)" style="stroke:#000000; stroke-linecap:round; stroke-linejoin:round; stroke-width:2; stroke-opacity:0.1; fill:none" points="219.38,674.584 2352.76,674.584 "/>
<polyline clip-path="url(#clip982)" style="stroke:#000000; stroke-linecap:round; stroke-linejoin:round; stroke-width:2; stroke-opacity:0.1; fill:none" points="219.38,320.285 2352.76,320.285 "/>
<polyline clip-path="url(#clip980)" style="stroke:#000000; stroke-linecap:round; stroke-linejoin:round; stroke-width:4; stroke-opacity:1; fill:none" points="219.38,1423.18 2352.76,1423.18 "/>
<polyline clip-path="url(#clip980)" style="stroke:#000000; stroke-linecap:round; stroke-linejoin:round; stroke-width:4; stroke-opacity:1; fill:none" points="279.759,1423.18 279.759,1404.28 "/>
<polyline clip-path="url(#clip980)" style="stroke:#000000; stroke-linecap:round; stroke-linejoin:round; stroke-width:4; stroke-opacity:1; fill:none" points="782.913,1423.18 782.913,1404.28 "/>
<polyline clip-path="url(#clip980)" style="stroke:#000000; stroke-linecap:round; stroke-linejoin:round; stroke-width:4; stroke-opacity:1; fill:none" points="1286.07,1423.18 1286.07,1404.28 "/>
<polyline clip-path="url(#clip980)" style="stroke:#000000; stroke-linecap:round; stroke-linejoin:round; stroke-width:4; stroke-opacity:1; fill:none" points="1789.22,1423.18 1789.22,1404.28 "/>
<polyline clip-path="url(#clip980)" style="stroke:#000000; stroke-linecap:round; stroke-linejoin:round; stroke-width:4; stroke-opacity:1; fill:none" points="2292.38,1423.18 2292.38,1404.28 "/>
<path clip-path="url(#clip980)" d="M257.143 1454.1 Q253.532 1454.1 251.703 1457.66 Q249.898 1461.2 249.898 1468.33 Q249.898 1475.44 251.703 1479.01 Q253.532 1482.55 257.143 1482.55 Q260.777 1482.55 262.583 1479.01 Q264.412 1475.44 264.412 1468.33 Q264.412 1461.2 262.583 1457.66 Q260.777 1454.1 257.143 1454.1 M257.143 1450.39 Q262.953 1450.39 266.009 1455 Q269.087 1459.58 269.087 1468.33 Q269.087 1477.06 266.009 1481.67 Q262.953 1486.25 257.143 1486.25 Q251.333 1486.25 248.254 1481.67 Q245.199 1477.06 245.199 1468.33 Q245.199 1459.58 248.254 1455 Q251.333 1450.39 257.143 1450.39 Z" fill="#000000" fill-rule="nonzero" fill-opacity="1" /><path clip-path="url(#clip980)" d="M277.305 1479.7 L282.189 1479.7 L282.189 1485.58 L277.305 1485.58 L277.305 1479.7 Z" fill="#000000" fill-rule="nonzero" fill-opacity="1" /><path clip-path="url(#clip980)" d="M302.374 1454.1 Q298.763 1454.1 296.935 1457.66 Q295.129 1461.2 295.129 1468.33 Q295.129 1475.44 296.935 1479.01 Q298.763 1482.55 302.374 1482.55 Q306.009 1482.55 307.814 1479.01 Q309.643 1475.44 309.643 1468.33 Q309.643 1461.2 307.814 1457.66 Q306.009 1454.1 302.374 1454.1 M302.374 1450.39 Q308.184 1450.39 311.24 1455 Q314.319 1459.58 314.319 1468.33 Q314.319 1477.06 311.24 1481.67 Q308.184 1486.25 302.374 1486.25 Q296.564 1486.25 293.485 1481.67 Q290.43 1477.06 290.43 1468.33 Q290.43 1459.58 293.485 1455 Q296.564 1450.39 302.374 1450.39 Z" fill="#000000" fill-rule="nonzero" fill-opacity="1" /><path clip-path="url(#clip980)" d="M754.65 1481.64 L770.969 1481.64 L770.969 1485.58 L749.025 1485.58 L749.025 1481.64 Q751.687 1478.89 756.27 1474.26 Q760.876 1469.61 762.057 1468.27 Q764.302 1465.74 765.182 1464.01 Q766.085 1462.25 766.085 1460.56 Q766.085 1457.8 764.14 1456.07 Q762.219 1454.33 759.117 1454.33 Q756.918 1454.33 754.464 1455.09 Q752.034 1455.86 749.256 1457.41 L749.256 1452.69 Q752.08 1451.55 754.534 1450.97 Q756.988 1450.39 759.025 1450.39 Q764.395 1450.39 767.589 1453.08 Q770.784 1455.77 770.784 1460.26 Q770.784 1462.39 769.974 1464.31 Q769.187 1466.2 767.08 1468.8 Q766.501 1469.47 763.4 1472.69 Q760.298 1475.88 754.65 1481.64 Z" fill="#000000" fill-rule="nonzero" fill-opacity="1" /><path clip-path="url(#clip980)" d="M780.784 1479.7 L785.668 1479.7 L785.668 1485.58 L780.784 1485.58 L780.784 1479.7 Z" fill="#000000" fill-rule="nonzero" fill-opacity="1" /><path clip-path="url(#clip980)" d="M795.899 1451.02 L814.256 1451.02 L814.256 1454.96 L800.182 1454.96 L800.182 1463.43 Q801.2 1463.08 802.219 1462.92 Q803.237 1462.73 804.256 1462.73 Q810.043 1462.73 813.422 1465.9 Q816.802 1469.08 816.802 1474.49 Q816.802 1480.07 813.33 1483.17 Q809.858 1486.25 803.538 1486.25 Q801.362 1486.25 799.094 1485.88 Q796.848 1485.51 794.441 1484.77 L794.441 1480.07 Q796.524 1481.2 798.747 1481.76 Q800.969 1482.32 803.446 1482.32 Q807.45 1482.32 809.788 1480.21 Q812.126 1478.1 812.126 1474.49 Q812.126 1470.88 809.788 1468.77 Q807.45 1466.67 803.446 1466.67 Q801.571 1466.67 799.696 1467.08 Q797.844 1467.5 795.899 1468.38 L795.899 1451.02 Z" fill="#000000" fill-rule="nonzero" fill-opacity="1" /><path clip-path="url(#clip980)" d="M1253.23 1451.02 L1271.59 1451.02 L1271.59 1454.96 L1257.51 1454.96 L1257.51 1463.43 Q1258.53 1463.08 1259.55 1462.92 Q1260.57 1462.73 1261.59 1462.73 Q1267.38 1462.73 1270.76 1465.9 Q1274.14 1469.08 1274.14 1474.49 Q1274.14 1480.07 1270.66 1483.17 Q1267.19 1486.25 1260.87 1486.25 Q1258.7 1486.25 1256.43 1485.88 Q1254.18 1485.51 1251.77 1484.77 L1251.77 1480.07 Q1253.86 1481.2 1256.08 1481.76 Q1258.3 1482.32 1260.78 1482.32 Q1264.78 1482.32 1267.12 1480.21 Q1269.46 1478.1 1269.46 1474.49 Q1269.46 1470.88 1267.12 1468.77 Q1264.78 1466.67 1260.78 1466.67 Q1258.9 1466.67 1257.03 1467.08 Q1255.18 1467.5 1253.23 1468.38 L1253.23 1451.02 Z" fill="#000000" fill-rule="nonzero" fill-opacity="1" /><path clip-path="url(#clip980)" d="M1283.35 1479.7 L1288.23 1479.7 L1288.23 1485.58 L1283.35 1485.58 L1283.35 1479.7 Z" fill="#000000" fill-rule="nonzero" fill-opacity="1" /><path clip-path="url(#clip980)" d="M1308.42 1454.1 Q1304.81 1454.1 1302.98 1457.66 Q1301.17 1461.2 1301.17 1468.33 Q1301.17 1475.44 1302.98 1479.01 Q1304.81 1482.55 1308.42 1482.55 Q1312.05 1482.55 1313.86 1479.01 Q1315.69 1475.44 1315.69 1468.33 Q1315.69 1461.2 1313.86 1457.66 Q1312.05 1454.1 1308.42 1454.1 M1308.42 1450.39 Q1314.23 1450.39 1317.28 1455 Q1320.36 1459.58 1320.36 1468.33 Q1320.36 1477.06 1317.28 1481.67 Q1314.23 1486.25 1308.42 1486.25 Q1302.61 1486.25 1299.53 1481.67 Q1296.47 1477.06 1296.47 1468.33 Q1296.47 1459.58 1299.53 1455 Q1302.61 1450.39 1308.42 1450.39 Z" fill="#000000" fill-rule="nonzero" fill-opacity="1" /><path clip-path="url(#clip980)" d="M1755.54 1451.02 L1777.76 1451.02 L1777.76 1453.01 L1765.22 1485.58 L1760.33 1485.58 L1772.14 1454.96 L1755.54 1454.96 L1755.54 1451.02 Z" fill="#000000" fill-rule="nonzero" fill-opacity="1" /><path clip-path="url(#clip980)" d="M1786.88 1479.7 L1791.77 1479.7 L1791.77 1485.58 L1786.88 1485.58 L1786.88 1479.7 Z" fill="#000000" fill-rule="nonzero" fill-opacity="1" /><path clip-path="url(#clip980)" d="M1802 1451.02 L1820.36 1451.02 L1820.36 1454.96 L1806.28 1454.96 L1806.28 1463.43 Q1807.3 1463.08 1808.32 1462.92 Q1809.34 1462.73 1810.36 1462.73 Q1816.14 1462.73 1819.52 1465.9 Q1822.9 1469.08 1822.9 1474.49 Q1822.9 1480.07 1819.43 1483.17 Q1815.96 1486.25 1809.64 1486.25 Q1807.46 1486.25 1805.19 1485.88 Q1802.95 1485.51 1800.54 1484.77 L1800.54 1480.07 Q1802.63 1481.2 1804.85 1481.76 Q1807.07 1482.32 1809.55 1482.32 Q1813.55 1482.32 1815.89 1480.21 Q1818.23 1478.1 1818.23 1474.49 Q1818.23 1470.88 1815.89 1468.77 Q1813.55 1466.67 1809.55 1466.67 Q1807.67 1466.67 1805.8 1467.08 Q1803.94 1467.5 1802 1468.38 L1802 1451.02 Z" fill="#000000" fill-rule="nonzero" fill-opacity="1" /><path clip-path="url(#clip980)" d="M2244.45 1481.64 L2252.09 1481.64 L2252.09 1455.28 L2243.78 1456.95 L2243.78 1452.69 L2252.04 1451.02 L2256.72 1451.02 L2256.72 1481.64 L2264.36 1481.64 L2264.36 1485.58 L2244.45 1485.58 L2244.45 1481.64 Z" fill="#000000" fill-rule="nonzero" fill-opacity="1" /><path clip-path="url(#clip980)" d="M2283.8 1454.1 Q2280.19 1454.1 2278.36 1457.66 Q2276.56 1461.2 2276.56 1468.33 Q2276.56 1475.44 2278.36 1479.01 Q2280.19 1482.55 2283.8 1482.55 Q2287.44 1482.55 2289.24 1479.01 Q2291.07 1475.44 2291.07 1468.33 Q2291.07 1461.2 2289.24 1457.66 Q2287.44 1454.1 2283.8 1454.1 M2283.8 1450.39 Q2289.61 1450.39 2292.67 1455 Q2295.75 1459.58 2295.75 1468.33 Q2295.75 1477.06 2292.67 1481.67 Q2289.61 1486.25 2283.8 1486.25 Q2277.99 1486.25 2274.91 1481.67 Q2271.86 1477.06 2271.86 1468.33 Q2271.86 1459.58 2274.91 1455 Q2277.99 1450.39 2283.8 1450.39 Z" fill="#000000" fill-rule="nonzero" fill-opacity="1" /><path clip-path="url(#clip980)" d="M2303.96 1479.7 L2308.85 1479.7 L2308.85 1485.58 L2303.96 1485.58 L2303.96 1479.7 Z" fill="#000000" fill-rule="nonzero" fill-opacity="1" /><path clip-path="url(#clip980)" d="M2329.03 1454.1 Q2325.42 1454.1 2323.59 1457.66 Q2321.79 1461.2 2321.79 1468.33 Q2321.79 1475.44 2323.59 1479.01 Q2325.42 1482.55 2329.03 1482.55 Q2332.67 1482.55 2334.47 1479.01 Q2336.3 1475.44 2336.3 1468.33 Q2336.3 1461.2 2334.47 1457.66 Q2332.67 1454.1 2329.03 1454.1 M2329.03 1450.39 Q2334.84 1450.39 2337.9 1455 Q2340.98 1459.58 2340.98 1468.33 Q2340.98 1477.06 2337.9 1481.67 Q2334.84 1486.25 2329.03 1486.25 Q2323.22 1486.25 2320.14 1481.67 Q2317.09 1477.06 2317.09 1468.33 Q2317.09 1459.58 2320.14 1455 Q2323.22 1450.39 2329.03 1450.39 Z" fill="#000000" fill-rule="nonzero" fill-opacity="1" /><path clip-path="url(#clip980)" d="M776.016 1520.52 L816.215 1520.52 L816.215 1525.93 L799.346 1525.93 L799.346 1568.04 L792.885 1568.04 L792.885 1525.93 L776.016 1525.93 L776.016 1520.52 Z" fill="#000000" fill-rule="nonzero" fill-opacity="1" /><path clip-path="url(#clip980)" d="M833.243 1537.87 Q832.257 1537.3 831.079 1537.04 Q829.933 1536.76 828.533 1536.76 Q823.568 1536.76 820.894 1540 Q818.252 1543.22 818.252 1549.27 L818.252 1568.04 L812.364 1568.04 L812.364 1532.4 L818.252 1532.4 L818.252 1537.93 Q820.098 1534.69 823.058 1533.13 Q826.018 1531.54 830.252 1531.54 Q830.856 1531.54 831.588 1531.63 Q832.32 1531.7 833.212 1531.85 L833.243 1537.87 Z" fill="#000000" fill-rule="nonzero" fill-opacity="1" /><path clip-path="url(#clip980)" d="M855.587 1550.12 Q848.489 1550.12 845.752 1551.75 Q843.015 1553.37 843.015 1557.29 Q843.015 1560.4 845.052 1562.25 Q847.121 1564.07 850.654 1564.07 Q855.523 1564.07 858.452 1560.63 Q861.412 1557.16 861.412 1551.43 L861.412 1550.12 L855.587 1550.12 M867.268 1547.71 L867.268 1568.04 L861.412 1568.04 L861.412 1562.63 Q859.407 1565.88 856.415 1567.44 Q853.423 1568.97 849.094 1568.97 Q843.62 1568.97 840.373 1565.91 Q837.158 1562.82 837.158 1557.67 Q837.158 1551.65 841.169 1548.6 Q845.211 1545.54 853.2 1545.54 L861.412 1545.54 L861.412 1544.97 Q861.412 1540.93 858.738 1538.73 Q856.096 1536.5 851.29 1536.5 Q848.235 1536.5 845.338 1537.23 Q842.442 1537.97 839.768 1539.43 L839.768 1534.02 Q842.983 1532.78 846.007 1532.17 Q849.03 1531.54 851.895 1531.54 Q859.629 1531.54 863.449 1535.55 Q867.268 1539.56 867.268 1547.71 Z" fill="#000000" fill-rule="nonzero" fill-opacity="1" /><path clip-path="url(#clip980)" d="M879.331 1532.4 L885.188 1532.4 L885.188 1568.68 Q885.188 1575.49 882.578 1578.55 Q880 1581.6 874.239 1581.6 L872.011 1581.6 L872.011 1576.64 L873.57 1576.64 Q876.912 1576.64 878.122 1575.08 Q879.331 1573.55 879.331 1568.68 L879.331 1532.4 M879.331 1518.52 L885.188 1518.52 L885.188 1525.93 L879.331 1525.93 L879.331 1518.52 Z" fill="#000000" fill-rule="nonzero" fill-opacity="1" /><path clip-path="url(#clip980)" d="M927.933 1548.76 L927.933 1551.62 L901.006 1551.62 Q901.388 1557.67 904.635 1560.85 Q907.913 1564 913.738 1564 Q917.112 1564 920.263 1563.17 Q923.446 1562.35 926.565 1560.69 L926.565 1566.23 Q923.414 1567.57 920.104 1568.27 Q916.793 1568.97 913.388 1568.97 Q904.858 1568.97 899.861 1564 Q894.895 1559.04 894.895 1550.57 Q894.895 1541.82 899.606 1536.69 Q904.348 1531.54 912.369 1531.54 Q919.562 1531.54 923.732 1536.18 Q927.933 1540.8 927.933 1548.76 M922.077 1547.04 Q922.013 1542.23 919.372 1539.37 Q916.762 1536.5 912.433 1536.5 Q907.531 1536.5 904.571 1539.27 Q901.643 1542.04 901.197 1547.07 L922.077 1547.04 Z" fill="#000000" fill-rule="nonzero" fill-opacity="1" /><path clip-path="url(#clip980)" d="M963.199 1533.76 L963.199 1539.24 Q960.717 1537.87 958.202 1537.2 Q955.72 1536.5 953.173 1536.5 Q947.476 1536.5 944.325 1540.13 Q941.174 1543.73 941.174 1550.25 Q941.174 1556.78 944.325 1560.4 Q947.476 1564 953.173 1564 Q955.72 1564 958.202 1563.33 Q960.717 1562.63 963.199 1561.26 L963.199 1566.68 Q960.749 1567.82 958.107 1568.39 Q955.497 1568.97 952.537 1568.97 Q944.484 1568.97 939.742 1563.91 Q934.999 1558.85 934.999 1550.25 Q934.999 1541.53 939.774 1536.53 Q944.58 1531.54 952.919 1531.54 Q955.624 1531.54 958.202 1532.11 Q960.78 1532.65 963.199 1533.76 Z" fill="#000000" fill-rule="nonzero" fill-opacity="1" /><path clip-path="url(#clip980)" d="M979.177 1522.27 L979.177 1532.4 L991.24 1532.4 L991.24 1536.95 L979.177 1536.95 L979.177 1556.3 Q979.177 1560.66 980.355 1561.9 Q981.564 1563.14 985.225 1563.14 L991.24 1563.14 L991.24 1568.04 L985.225 1568.04 Q978.445 1568.04 975.867 1565.53 Q973.289 1562.98 973.289 1556.3 L973.289 1536.95 L968.992 1536.95 L968.992 1532.4 L973.289 1532.4 L973.289 1522.27 L979.177 1522.27 Z" fill="#000000" fill-rule="nonzero" fill-opacity="1" /><path clip-path="url(#clip980)" d="M1012.76 1536.5 Q1008.05 1536.5 1005.31 1540.19 Q1002.57 1543.85 1002.57 1550.25 Q1002.57 1556.65 1005.28 1560.34 Q1008.01 1564 1012.76 1564 Q1017.44 1564 1020.17 1560.31 Q1022.91 1556.62 1022.91 1550.25 Q1022.91 1543.92 1020.17 1540.23 Q1017.44 1536.5 1012.76 1536.5 M1012.76 1531.54 Q1020.4 1531.54 1024.76 1536.5 Q1029.12 1541.47 1029.12 1550.25 Q1029.12 1559 1024.76 1564 Q1020.4 1568.97 1012.76 1568.97 Q1005.09 1568.97 1000.73 1564 Q996.397 1559 996.397 1550.25 Q996.397 1541.47 1000.73 1536.5 Q1005.09 1531.54 1012.76 1531.54 Z" fill="#000000" fill-rule="nonzero" fill-opacity="1" /><path clip-path="url(#clip980)" d="M1059.48 1537.87 Q1058.49 1537.3 1057.32 1537.04 Q1056.17 1536.76 1054.77 1536.76 Q1049.8 1536.76 1047.13 1540 Q1044.49 1543.22 1044.49 1549.27 L1044.49 1568.04 L1038.6 1568.04 L1038.6 1532.4 L1044.49 1532.4 L1044.49 1537.93 Q1046.34 1534.69 1049.3 1533.13 Q1052.26 1531.54 1056.49 1531.54 Q1057.09 1531.54 1057.83 1531.63 Q1058.56 1531.7 1059.45 1531.85 L1059.48 1537.87 Z" fill="#000000" fill-rule="nonzero" fill-opacity="1" /><path clip-path="url(#clip980)" d="M1080.46 1571.35 Q1077.97 1577.72 1075.62 1579.66 Q1073.26 1581.6 1069.32 1581.6 L1064.64 1581.6 L1064.64 1576.7 L1068.07 1576.7 Q1070.49 1576.7 1071.83 1575.56 Q1073.17 1574.41 1074.79 1570.14 L1075.84 1567.47 L1061.42 1532.4 L1067.63 1532.4 L1078.77 1560.28 L1089.91 1532.4 L1096.12 1532.4 L1080.46 1571.35 Z" fill="#000000" fill-rule="nonzero" fill-opacity="1" /><path clip-path="url(#clip980)" d="M1131.6 1525.81 L1131.6 1562.76 L1139.37 1562.76 Q1149.21 1562.76 1153.76 1558.3 Q1158.34 1553.85 1158.34 1544.24 Q1158.34 1534.69 1153.76 1530.26 Q1149.21 1525.81 1139.37 1525.81 L1131.6 1525.81 M1125.17 1520.52 L1138.38 1520.52 Q1152.2 1520.52 1158.66 1526.28 Q1165.12 1532.01 1165.12 1544.24 Q1165.12 1556.52 1158.63 1562.28 Q1152.13 1568.04 1138.38 1568.04 L1125.17 1568.04 L1125.17 1520.52 Z" fill="#000000" fill-rule="nonzero" fill-opacity="1" /><path clip-path="url(#clip980)" d="M1174.51 1553.98 L1174.51 1532.4 L1180.37 1532.4 L1180.37 1553.75 Q1180.37 1558.81 1182.34 1561.36 Q1184.31 1563.87 1188.26 1563.87 Q1193 1563.87 1195.74 1560.85 Q1198.51 1557.83 1198.51 1552.61 L1198.51 1532.4 L1204.36 1532.4 L1204.36 1568.04 L1198.51 1568.04 L1198.51 1562.57 Q1196.38 1565.82 1193.54 1567.41 Q1190.74 1568.97 1187.02 1568.97 Q1180.87 1568.97 1177.69 1565.15 Q1174.51 1561.33 1174.51 1553.98 M1189.25 1531.54 L1189.25 1531.54 Z" fill="#000000" fill-rule="nonzero" fill-opacity="1" /><path clip-path="url(#clip980)" d="M1237.08 1537.87 Q1236.1 1537.3 1234.92 1537.04 Q1233.77 1536.76 1232.37 1536.76 Q1227.41 1536.76 1224.73 1540 Q1222.09 1543.22 1222.09 1549.27 L1222.09 1568.04 L1216.2 1568.04 L1216.2 1532.4 L1222.09 1532.4 L1222.09 1537.93 Q1223.94 1534.69 1226.9 1533.13 Q1229.86 1531.54 1234.09 1531.54 Q1234.7 1531.54 1235.43 1531.63 Q1236.16 1531.7 1237.05 1531.85 L1237.08 1537.87 Z" fill="#000000" fill-rule="nonzero" fill-opacity="1" /><path clip-path="url(#clip980)" d="M1259.43 1550.12 Q1252.33 1550.12 1249.59 1551.75 Q1246.86 1553.37 1246.86 1557.29 Q1246.86 1560.4 1248.89 1562.25 Q1250.96 1564.07 1254.49 1564.07 Q1259.36 1564.07 1262.29 1560.63 Q1265.25 1557.16 1265.25 1551.43 L1265.25 1550.12 L1259.43 1550.12 M1271.11 1547.71 L1271.11 1568.04 L1265.25 1568.04 L1265.25 1562.63 Q1263.25 1565.88 1260.26 1567.44 Q1257.26 1568.97 1252.93 1568.97 Q1247.46 1568.97 1244.21 1565.91 Q1241 1562.82 1241 1557.67 Q1241 1551.65 1245.01 1548.6 Q1249.05 1545.54 1257.04 1545.54 L1265.25 1545.54 L1265.25 1544.97 Q1265.25 1540.93 1262.58 1538.73 Q1259.94 1536.5 1255.13 1536.5 Q1252.08 1536.5 1249.18 1537.23 Q1246.28 1537.97 1243.61 1539.43 L1243.61 1534.02 Q1246.82 1532.78 1249.85 1532.17 Q1252.87 1531.54 1255.74 1531.54 Q1263.47 1531.54 1267.29 1535.55 Q1271.11 1539.56 1271.11 1547.71 Z" fill="#000000" fill-rule="nonzero" fill-opacity="1" /><path clip-path="url(#clip980)" d="M1288.96 1522.27 L1288.96 1532.4 L1301.03 1532.4 L1301.03 1536.95 L1288.96 1536.95 L1288.96 1556.3 Q1288.96 1560.66 1290.14 1561.9 Q1291.35 1563.14 1295.01 1563.14 L1301.03 1563.14 L1301.03 1568.04 L1295.01 1568.04 Q1288.23 1568.04 1285.65 1565.53 Q1283.08 1562.98 1283.08 1556.3 L1283.08 1536.95 L1278.78 1536.95 L1278.78 1532.4 L1283.08 1532.4 L1283.08 1522.27 L1288.96 1522.27 Z" fill="#000000" fill-rule="nonzero" fill-opacity="1" /><path clip-path="url(#clip980)" d="M1308.73 1532.4 L1314.59 1532.4 L1314.59 1568.04 L1308.73 1568.04 L1308.73 1532.4 M1308.73 1518.52 L1314.59 1518.52 L1314.59 1525.93 L1308.73 1525.93 L1308.73 1518.52 Z" fill="#000000" fill-rule="nonzero" fill-opacity="1" /><path clip-path="url(#clip980)" d="M1340.65 1536.5 Q1335.94 1536.5 1333.21 1540.19 Q1330.47 1543.85 1330.47 1550.25 Q1330.47 1556.65 1333.17 1560.34 Q1335.91 1564 1340.65 1564 Q1345.33 1564 1348.07 1560.31 Q1350.81 1556.62 1350.81 1550.25 Q1350.81 1543.92 1348.07 1540.23 Q1345.33 1536.5 1340.65 1536.5 M1340.65 1531.54 Q1348.29 1531.54 1352.65 1536.5 Q1357.01 1541.47 1357.01 1550.25 Q1357.01 1559 1352.65 1564 Q1348.29 1568.97 1340.65 1568.97 Q1332.98 1568.97 1328.62 1564 Q1324.29 1559 1324.29 1550.25 Q1324.29 1541.47 1328.62 1536.5 Q1332.98 1531.54 1340.65 1531.54 Z" fill="#000000" fill-rule="nonzero" fill-opacity="1" /><path clip-path="url(#clip980)" d="M1396.35 1546.53 L1396.35 1568.04 L1390.5 1568.04 L1390.5 1546.72 Q1390.5 1541.66 1388.52 1539.14 Q1386.55 1536.63 1382.6 1536.63 Q1377.86 1536.63 1375.12 1539.65 Q1372.39 1542.68 1372.39 1547.9 L1372.39 1568.04 L1366.5 1568.04 L1366.5 1532.4 L1372.39 1532.4 L1372.39 1537.93 Q1374.49 1534.72 1377.32 1533.13 Q1380.19 1531.54 1383.91 1531.54 Q1390.05 1531.54 1393.2 1535.36 Q1396.35 1539.14 1396.35 1546.53 Z" fill="#000000" fill-rule="nonzero" fill-opacity="1" /><path clip-path="url(#clip980)" d="M1442.82 1518.58 Q1438.56 1525.9 1436.49 1533.06 Q1434.42 1540.23 1434.42 1547.58 Q1434.42 1554.93 1436.49 1562.16 Q1438.59 1569.35 1442.82 1576.64 L1437.73 1576.64 Q1432.96 1569.16 1430.57 1561.93 Q1428.21 1554.71 1428.21 1547.58 Q1428.21 1540.48 1430.57 1533.29 Q1432.92 1526.09 1437.73 1518.58 L1442.82 1518.58 Z" fill="#000000" fill-rule="nonzero" fill-opacity="1" /><path clip-path="url(#clip980)" d="M1459.98 1522.27 L1459.98 1532.4 L1472.04 1532.4 L1472.04 1536.95 L1459.98 1536.95 L1459.98 1556.3 Q1459.98 1560.66 1461.16 1561.9 Q1462.37 1563.14 1466.03 1563.14 L1472.04 1563.14 L1472.04 1568.04 L1466.03 1568.04 Q1459.25 1568.04 1456.67 1565.53 Q1454.09 1562.98 1454.09 1556.3 L1454.09 1536.95 L1449.79 1536.95 L1449.79 1532.4 L1454.09 1532.4 L1454.09 1522.27 L1459.98 1522.27 Z" fill="#000000" fill-rule="nonzero" fill-opacity="1" /><path clip-path="url(#clip980)" d="M1479.74 1532.4 L1485.6 1532.4 L1485.6 1568.04 L1479.74 1568.04 L1479.74 1532.4 M1479.74 1518.52 L1485.6 1518.52 L1485.6 1525.93 L1479.74 1525.93 L1479.74 1518.52 Z" fill="#000000" fill-rule="nonzero" fill-opacity="1" /><path clip-path="url(#clip980)" d="M1525.61 1539.24 Q1527.81 1535.29 1530.86 1533.41 Q1533.92 1531.54 1538.05 1531.54 Q1543.62 1531.54 1546.65 1535.45 Q1549.67 1539.33 1549.67 1546.53 L1549.67 1568.04 L1543.78 1568.04 L1543.78 1546.72 Q1543.78 1541.59 1541.97 1539.11 Q1540.16 1536.63 1536.43 1536.63 Q1531.88 1536.63 1529.24 1539.65 Q1526.6 1542.68 1526.6 1547.9 L1526.6 1568.04 L1520.71 1568.04 L1520.71 1546.72 Q1520.71 1541.56 1518.89 1539.11 Q1517.08 1536.63 1513.29 1536.63 Q1508.8 1536.63 1506.16 1539.68 Q1503.52 1542.71 1503.52 1547.9 L1503.52 1568.04 L1497.63 1568.04 L1497.63 1532.4 L1503.52 1532.4 L1503.52 1537.93 Q1505.53 1534.66 1508.33 1533.1 Q1511.13 1531.54 1514.98 1531.54 Q1518.86 1531.54 1521.57 1533.51 Q1524.3 1535.48 1525.61 1539.24 Z" fill="#000000" fill-rule="nonzero" fill-opacity="1" /><path clip-path="url(#clip980)" d="M1591.84 1548.76 L1591.84 1551.62 L1564.92 1551.62 Q1565.3 1557.67 1568.55 1560.85 Q1571.82 1564 1577.65 1564 Q1581.02 1564 1584.17 1563.17 Q1587.36 1562.35 1590.48 1560.69 L1590.48 1566.23 Q1587.33 1567.57 1584.01 1568.27 Q1580.7 1568.97 1577.3 1568.97 Q1568.77 1568.97 1563.77 1564 Q1558.81 1559.04 1558.81 1550.57 Q1558.81 1541.82 1563.52 1536.69 Q1568.26 1531.54 1576.28 1531.54 Q1583.47 1531.54 1587.64 1536.18 Q1591.84 1540.8 1591.84 1548.76 M1585.99 1547.04 Q1585.92 1542.23 1583.28 1539.37 Q1580.67 1536.5 1576.34 1536.5 Q1571.44 1536.5 1568.48 1539.27 Q1565.55 1542.04 1565.11 1547.07 L1585.99 1547.04 Z" fill="#000000" fill-rule="nonzero" fill-opacity="1" /><path clip-path="url(#clip980)" d="M1621.57 1553.98 L1621.57 1532.4 L1627.43 1532.4 L1627.43 1553.75 Q1627.43 1558.81 1629.4 1561.36 Q1631.38 1563.87 1635.32 1563.87 Q1640.06 1563.87 1642.8 1560.85 Q1645.57 1557.83 1645.57 1552.61 L1645.57 1532.4 L1651.43 1532.4 L1651.43 1568.04 L1645.57 1568.04 L1645.57 1562.57 Q1643.44 1565.82 1640.61 1567.41 Q1637.81 1568.97 1634.08 1568.97 Q1627.94 1568.97 1624.76 1565.15 Q1621.57 1561.33 1621.57 1553.98 M1636.31 1531.54 L1636.31 1531.54 Z" fill="#000000" fill-rule="nonzero" fill-opacity="1" /><path clip-path="url(#clip980)" d="M1693.12 1546.53 L1693.12 1568.04 L1687.27 1568.04 L1687.27 1546.72 Q1687.27 1541.66 1685.29 1539.14 Q1683.32 1536.63 1679.37 1536.63 Q1674.63 1536.63 1671.89 1539.65 Q1669.16 1542.68 1669.16 1547.9 L1669.16 1568.04 L1663.27 1568.04 L1663.27 1532.4 L1669.16 1532.4 L1669.16 1537.93 Q1671.26 1534.72 1674.09 1533.13 Q1676.95 1531.54 1680.68 1531.54 Q1686.82 1531.54 1689.97 1535.36 Q1693.12 1539.14 1693.12 1546.53 Z" fill="#000000" fill-rule="nonzero" fill-opacity="1" /><path clip-path="url(#clip980)" d="M1704.8 1532.4 L1710.66 1532.4 L1710.66 1568.04 L1704.8 1568.04 L1704.8 1532.4 M1704.8 1518.52 L1710.66 1518.52 L1710.66 1525.93 L1704.8 1525.93 L1704.8 1518.52 Z" fill="#000000" fill-rule="nonzero" fill-opacity="1" /><path clip-path="url(#clip980)" d="M1728.71 1522.27 L1728.71 1532.4 L1740.77 1532.4 L1740.77 1536.95 L1728.71 1536.95 L1728.71 1556.3 Q1728.71 1560.66 1729.89 1561.9 Q1731.09 1563.14 1734.75 1563.14 L1740.77 1563.14 L1740.77 1568.04 L1734.75 1568.04 Q1727.98 1568.04 1725.4 1565.53 Q1722.82 1562.98 1722.82 1556.3 L1722.82 1536.95 L1718.52 1536.95 L1718.52 1532.4 L1722.82 1532.4 L1722.82 1522.27 L1728.71 1522.27 Z" fill="#000000" fill-rule="nonzero" fill-opacity="1" /><path clip-path="url(#clip980)" d="M1771.2 1533.45 L1771.2 1538.98 Q1768.72 1537.71 1766.04 1537.07 Q1763.37 1536.44 1760.5 1536.44 Q1756.14 1536.44 1753.95 1537.77 Q1751.78 1539.11 1751.78 1541.79 Q1751.78 1543.82 1753.34 1545 Q1754.9 1546.15 1759.61 1547.2 L1761.62 1547.64 Q1767.86 1548.98 1770.47 1551.43 Q1773.11 1553.85 1773.11 1558.21 Q1773.11 1563.17 1769.16 1566.07 Q1765.25 1568.97 1758.37 1568.97 Q1755.51 1568.97 1752.39 1568.39 Q1749.3 1567.85 1745.86 1566.74 L1745.86 1560.69 Q1749.11 1562.38 1752.26 1563.24 Q1755.41 1564.07 1758.5 1564.07 Q1762.64 1564.07 1764.86 1562.66 Q1767.09 1561.23 1767.09 1558.65 Q1767.09 1556.27 1765.47 1554.99 Q1763.88 1553.72 1758.44 1552.54 L1756.4 1552.07 Q1750.96 1550.92 1748.54 1548.56 Q1746.12 1546.18 1746.12 1542.04 Q1746.12 1537.01 1749.68 1534.27 Q1753.25 1531.54 1759.8 1531.54 Q1763.05 1531.54 1765.91 1532.01 Q1768.78 1532.49 1771.2 1533.45 Z" fill="#000000" fill-rule="nonzero" fill-opacity="1" /><path clip-path="url(#clip980)" d="M1781.51 1518.58 L1786.6 1518.58 Q1791.38 1526.09 1793.73 1533.29 Q1796.12 1540.48 1796.12 1547.58 Q1796.12 1554.71 1793.73 1561.93 Q1791.38 1569.16 1786.6 1576.64 L1781.51 1576.64 Q1785.74 1569.35 1787.81 1562.16 Q1789.91 1554.93 1789.91 1547.58 Q1789.91 1540.23 1787.81 1533.06 Q1785.74 1525.9 1781.51 1518.58 Z" fill="#000000" fill-rule="nonzero" fill-opacity="1" /><polyline clip-path="url(#clip980)" style="stroke:#000000; stroke-linecap:round; stroke-linejoin:round; stroke-width:4; stroke-opacity:1; fill:none" points="219.38,1423.18 219.38,123.472 "/>
<polyline clip-path="url(#clip980)" style="stroke:#000000; stroke-linecap:round; stroke-linejoin:round; stroke-width:4; stroke-opacity:1; fill:none" points="219.38,1383.18 238.278,1383.18 "/>
<polyline clip-path="url(#clip980)" style="stroke:#000000; stroke-linecap:round; stroke-linejoin:round; stroke-width:4; stroke-opacity:1; fill:none" points="219.38,1028.88 238.278,1028.88 "/>
<polyline clip-path="url(#clip980)" style="stroke:#000000; stroke-linecap:round; stroke-linejoin:round; stroke-width:4; stroke-opacity:1; fill:none" points="219.38,674.584 238.278,674.584 "/>
<polyline clip-path="url(#clip980)" style="stroke:#000000; stroke-linecap:round; stroke-linejoin:round; stroke-width:4; stroke-opacity:1; fill:none" points="219.38,320.285 238.278,320.285 "/>
<path clip-path="url(#clip980)" d="M126.205 1368.98 Q122.593 1368.98 120.765 1372.55 Q118.959 1376.09 118.959 1383.22 Q118.959 1390.32 120.765 1393.89 Q122.593 1397.43 126.205 1397.43 Q129.839 1397.43 131.644 1393.89 Q133.473 1390.32 133.473 1383.22 Q133.473 1376.09 131.644 1372.55 Q129.839 1368.98 126.205 1368.98 M126.205 1365.28 Q132.015 1365.28 135.07 1369.88 Q138.149 1374.47 138.149 1383.22 Q138.149 1391.94 135.07 1396.55 Q132.015 1401.13 126.205 1401.13 Q120.394 1401.13 117.316 1396.55 Q114.26 1391.94 114.26 1383.22 Q114.26 1374.47 117.316 1369.88 Q120.394 1365.28 126.205 1365.28 Z" fill="#000000" fill-rule="nonzero" fill-opacity="1" /><path clip-path="url(#clip980)" d="M146.366 1394.58 L151.251 1394.58 L151.251 1400.46 L146.366 1400.46 L146.366 1394.58 Z" fill="#000000" fill-rule="nonzero" fill-opacity="1" /><path clip-path="url(#clip980)" d="M171.436 1368.98 Q167.825 1368.98 165.996 1372.55 Q164.19 1376.09 164.19 1383.22 Q164.19 1390.32 165.996 1393.89 Q167.825 1397.43 171.436 1397.43 Q175.07 1397.43 176.876 1393.89 Q178.704 1390.32 178.704 1383.22 Q178.704 1376.09 176.876 1372.55 Q175.07 1368.98 171.436 1368.98 M171.436 1365.28 Q177.246 1365.28 180.301 1369.88 Q183.38 1374.47 183.38 1383.22 Q183.38 1391.94 180.301 1396.55 Q177.246 1401.13 171.436 1401.13 Q165.626 1401.13 162.547 1396.55 Q159.491 1391.94 159.491 1383.22 Q159.491 1374.47 162.547 1369.88 Q165.626 1365.28 171.436 1365.28 Z" fill="#000000" fill-rule="nonzero" fill-opacity="1" /><path clip-path="url(#clip980)" d="M127.2 1014.68 Q123.589 1014.68 121.76 1018.25 Q119.955 1021.79 119.955 1028.92 Q119.955 1036.02 121.76 1039.59 Q123.589 1043.13 127.2 1043.13 Q130.834 1043.13 132.64 1039.59 Q134.468 1036.02 134.468 1028.92 Q134.468 1021.79 132.64 1018.25 Q130.834 1014.68 127.2 1014.68 M127.2 1010.98 Q133.01 1010.98 136.066 1015.58 Q139.144 1020.17 139.144 1028.92 Q139.144 1037.64 136.066 1042.25 Q133.01 1046.83 127.2 1046.83 Q121.39 1046.83 118.311 1042.25 Q115.256 1037.64 115.256 1028.92 Q115.256 1020.17 118.311 1015.58 Q121.39 1010.98 127.2 1010.98 Z" fill="#000000" fill-rule="nonzero" fill-opacity="1" /><path clip-path="url(#clip980)" d="M147.362 1040.28 L152.246 1040.28 L152.246 1046.16 L147.362 1046.16 L147.362 1040.28 Z" fill="#000000" fill-rule="nonzero" fill-opacity="1" /><path clip-path="url(#clip980)" d="M162.477 1011.6 L180.834 1011.6 L180.834 1015.54 L166.76 1015.54 L166.76 1024.01 Q167.778 1023.66 168.797 1023.5 Q169.815 1023.32 170.834 1023.32 Q176.621 1023.32 180.001 1026.49 Q183.38 1029.66 183.38 1035.08 Q183.38 1040.65 179.908 1043.76 Q176.436 1046.83 170.116 1046.83 Q167.94 1046.83 165.672 1046.46 Q163.427 1046.09 161.019 1045.35 L161.019 1040.65 Q163.102 1041.79 165.325 1042.34 Q167.547 1042.9 170.024 1042.9 Q174.028 1042.9 176.366 1040.79 Q178.704 1038.69 178.704 1035.08 Q178.704 1031.46 176.366 1029.36 Q174.028 1027.25 170.024 1027.25 Q168.149 1027.25 166.274 1027.67 Q164.422 1028.08 162.477 1028.96 L162.477 1011.6 Z" fill="#000000" fill-rule="nonzero" fill-opacity="1" /><path clip-path="url(#clip980)" d="M117.015 687.929 L124.654 687.929 L124.654 661.564 L116.343 663.23 L116.343 658.971 L124.607 657.304 L129.283 657.304 L129.283 687.929 L136.922 687.929 L136.922 691.864 L117.015 691.864 L117.015 687.929 Z" fill="#000000" fill-rule="nonzero" fill-opacity="1" /><path clip-path="url(#clip980)" d="M146.366 685.985 L151.251 685.985 L151.251 691.864 L146.366 691.864 L146.366 685.985 Z" fill="#000000" fill-rule="nonzero" fill-opacity="1" /><path clip-path="url(#clip980)" d="M171.436 660.383 Q167.825 660.383 165.996 663.948 Q164.19 667.49 164.19 674.619 Q164.19 681.726 165.996 685.29 Q167.825 688.832 171.436 688.832 Q175.07 688.832 176.876 685.29 Q178.704 681.726 178.704 674.619 Q178.704 667.49 176.876 663.948 Q175.07 660.383 171.436 660.383 M171.436 656.679 Q177.246 656.679 180.301 661.286 Q183.38 665.869 183.38 674.619 Q183.38 683.346 180.301 687.952 Q177.246 692.536 171.436 692.536 Q165.626 692.536 162.547 687.952 Q159.491 683.346 159.491 674.619 Q159.491 665.869 162.547 661.286 Q165.626 656.679 171.436 656.679 Z" fill="#000000" fill-rule="nonzero" fill-opacity="1" /><path clip-path="url(#clip980)" d="M118.01 333.63 L125.649 333.63 L125.649 307.265 L117.339 308.931 L117.339 304.672 L125.603 303.005 L130.279 303.005 L130.279 333.63 L137.917 333.63 L137.917 337.565 L118.01 337.565 L118.01 333.63 Z" fill="#000000" fill-rule="nonzero" fill-opacity="1" /><path clip-path="url(#clip980)" d="M147.362 331.686 L152.246 331.686 L152.246 337.565 L147.362 337.565 L147.362 331.686 Z" fill="#000000" fill-rule="nonzero" fill-opacity="1" /><path clip-path="url(#clip980)" d="M162.477 303.005 L180.834 303.005 L180.834 306.941 L166.76 306.941 L166.76 315.413 Q167.778 315.066 168.797 314.904 Q169.815 314.718 170.834 314.718 Q176.621 314.718 180.001 317.89 Q183.38 321.061 183.38 326.478 Q183.38 332.056 179.908 335.158 Q176.436 338.237 170.116 338.237 Q167.94 338.237 165.672 337.866 Q163.427 337.496 161.019 336.755 L161.019 332.056 Q163.102 333.19 165.325 333.746 Q167.547 334.302 170.024 334.302 Q174.028 334.302 176.366 332.195 Q178.704 330.089 178.704 326.478 Q178.704 322.866 176.366 320.76 Q174.028 318.654 170.024 318.654 Q168.149 318.654 166.274 319.07 Q164.422 319.487 162.477 320.366 L162.477 303.005 Z" fill="#000000" fill-rule="nonzero" fill-opacity="1" /><path clip-path="url(#clip980)" d="M16.4842 1183.77 L16.4842 1174.19 L48.8219 1162.06 L16.4842 1149.87 L16.4842 1140.29 L64.0042 1140.29 L64.0042 1146.56 L22.277 1146.56 L54.8694 1158.82 L54.8694 1165.28 L22.277 1177.53 L64.0042 1177.53 L64.0042 1183.77 L16.4842 1183.77 Z" fill="#000000" fill-rule="nonzero" fill-opacity="1" /><path clip-path="url(#clip980)" d="M49.9359 1128.39 L28.3562 1128.39 L28.3562 1122.53 L49.7131 1122.53 Q54.7739 1122.53 57.3202 1120.56 Q59.8346 1118.59 59.8346 1114.64 Q59.8346 1109.9 56.8109 1107.16 Q53.7872 1104.39 48.5673 1104.39 L28.3562 1104.39 L28.3562 1098.53 L64.0042 1098.53 L64.0042 1104.39 L58.5296 1104.39 Q61.7762 1106.52 63.3676 1109.36 Q64.9272 1112.16 64.9272 1115.88 Q64.9272 1122.02 61.1078 1125.21 Q57.2883 1128.39 49.9359 1128.39 M27.4968 1113.65 L27.4968 1113.65 Z" fill="#000000" fill-rule="nonzero" fill-opacity="1" /><path clip-path="url(#clip980)" d="M18.2347 1080.68 L28.3562 1080.68 L28.3562 1068.62 L32.9077 1068.62 L32.9077 1080.68 L52.2594 1080.68 Q56.6199 1080.68 57.8613 1079.5 Q59.1026 1078.29 59.1026 1074.63 L59.1026 1068.62 L64.0042 1068.62 L64.0042 1074.63 Q64.0042 1081.41 61.4897 1083.99 Q58.9434 1086.57 52.2594 1086.57 L32.9077 1086.57 L32.9077 1090.86 L28.3562 1090.86 L28.3562 1086.57 L18.2347 1086.57 L18.2347 1080.68 Z" fill="#000000" fill-rule="nonzero" fill-opacity="1" /><path clip-path="url(#clip980)" d="M49.9359 1061.52 L28.3562 1061.52 L28.3562 1055.66 L49.7131 1055.66 Q54.7739 1055.66 57.3202 1053.69 Q59.8346 1051.71 59.8346 1047.77 Q59.8346 1043.03 56.8109 1040.29 Q53.7872 1037.52 48.5673 1037.52 L28.3562 1037.52 L28.3562 1031.66 L64.0042 1031.66 L64.0042 1037.52 L58.5296 1037.52 Q61.7762 1039.65 63.3676 1042.48 Q64.9272 1045.28 64.9272 1049.01 Q64.9272 1055.15 61.1078 1058.33 Q57.2883 1061.52 49.9359 1061.52 M27.4968 1046.78 L27.4968 1046.78 Z" fill="#000000" fill-rule="nonzero" fill-opacity="1" /><path clip-path="url(#clip980)" d="M46.0847 1003.4 Q46.0847 1010.5 47.7079 1013.23 Q49.3312 1015.97 53.2461 1015.97 Q56.3653 1015.97 58.2114 1013.93 Q60.0256 1011.86 60.0256 1008.33 Q60.0256 1003.46 56.5881 1000.53 Q53.1188 997.574 47.3897 997.574 L46.0847 997.574 L46.0847 1003.4 M43.6657 991.717 L64.0042 991.717 L64.0042 997.574 L58.5933 997.574 Q61.8398 999.579 63.3994 1002.57 Q64.9272 1005.56 64.9272 1009.89 Q64.9272 1015.37 61.8716 1018.61 Q58.7843 1021.83 53.6281 1021.83 Q47.6125 1021.83 44.5569 1017.82 Q41.5014 1013.77 41.5014 1005.79 L41.5014 997.574 L40.9285 997.574 Q36.8862 997.574 34.6901 1000.25 Q32.4621 1002.89 32.4621 1007.7 Q32.4621 1010.75 33.1941 1013.65 Q33.9262 1016.54 35.3903 1019.22 L29.9795 1019.22 Q28.7381 1016 28.1334 1012.98 Q27.4968 1009.96 27.4968 1007.09 Q27.4968 999.356 31.5072 995.537 Q35.5176 991.717 43.6657 991.717 Z" fill="#000000" fill-rule="nonzero" fill-opacity="1" /><path clip-path="url(#clip980)" d="M14.479 979.654 L14.479 973.798 L64.0042 973.798 L64.0042 979.654 L14.479 979.654 Z" fill="#000000" fill-rule="nonzero" fill-opacity="1" /><path clip-path="url(#clip980)" d="M16.4842 940.569 L16.4842 934.14 L64.0042 934.14 L64.0042 940.569 L16.4842 940.569 Z" fill="#000000" fill-rule="nonzero" fill-opacity="1" /><path clip-path="url(#clip980)" d="M42.4881 891.967 L64.0042 891.967 L64.0042 897.823 L42.679 897.823 Q37.6183 897.823 35.1038 899.797 Q32.5894 901.77 32.5894 905.717 Q32.5894 910.459 35.6131 913.196 Q38.6368 915.934 43.8567 915.934 L64.0042 915.934 L64.0042 921.822 L28.3562 921.822 L28.3562 915.934 L33.8944 915.934 Q30.6797 913.833 29.0883 911 Q27.4968 908.136 27.4968 904.412 Q27.4968 898.269 31.3163 895.118 Q35.1038 891.967 42.4881 891.967 Z" fill="#000000" fill-rule="nonzero" fill-opacity="1" /><path clip-path="url(#clip980)" d="M14.479 862.239 L19.3487 862.239 L19.3487 867.841 Q19.3487 870.992 20.6219 872.233 Q21.895 873.443 25.2052 873.443 L28.3562 873.443 L28.3562 863.799 L32.9077 863.799 L32.9077 873.443 L64.0042 873.443 L64.0042 879.331 L32.9077 879.331 L32.9077 884.933 L28.3562 884.933 L28.3562 879.331 L25.8736 879.331 Q19.9216 879.331 17.2162 876.562 Q14.479 873.793 14.479 867.777 L14.479 862.239 Z" fill="#000000" fill-rule="nonzero" fill-opacity="1" /><path clip-path="url(#clip980)" d="M32.4621 843.524 Q32.4621 848.234 36.1542 850.972 Q39.8145 853.709 46.212 853.709 Q52.6095 853.709 56.3017 851.004 Q59.9619 848.266 59.9619 843.524 Q59.9619 838.845 56.2698 836.108 Q52.5777 833.371 46.212 833.371 Q39.8781 833.371 36.186 836.108 Q32.4621 838.845 32.4621 843.524 M27.4968 843.524 Q27.4968 835.885 32.4621 831.524 Q37.4273 827.164 46.212 827.164 Q54.9649 827.164 59.9619 831.524 Q64.9272 835.885 64.9272 843.524 Q64.9272 851.194 59.9619 855.555 Q54.9649 859.884 46.212 859.884 Q37.4273 859.884 32.4621 855.555 Q27.4968 851.194 27.4968 843.524 Z" fill="#000000" fill-rule="nonzero" fill-opacity="1" /><path clip-path="url(#clip980)" d="M33.8307 796.8 Q33.2578 797.786 33.0032 798.964 Q32.7167 800.11 32.7167 801.51 Q32.7167 806.475 35.9632 809.149 Q39.1779 811.791 45.2253 811.791 L64.0042 811.791 L64.0042 817.679 L28.3562 817.679 L28.3562 811.791 L33.8944 811.791 Q30.6479 809.945 29.0883 806.985 Q27.4968 804.025 27.4968 799.791 Q27.4968 799.187 27.5923 798.455 Q27.656 797.723 27.8151 796.831 L33.8307 796.8 Z" fill="#000000" fill-rule="nonzero" fill-opacity="1" /><path clip-path="url(#clip980)" d="M35.1993 764.048 Q31.2526 761.852 29.3747 758.796 Q27.4968 755.741 27.4968 751.603 Q27.4968 746.033 31.4117 743.009 Q35.2948 739.986 42.4881 739.986 L64.0042 739.986 L64.0042 745.874 L42.679 745.874 Q37.5546 745.874 35.072 747.688 Q32.5894 749.502 32.5894 753.226 Q32.5894 757.778 35.6131 760.42 Q38.6368 763.061 43.8567 763.061 L64.0042 763.061 L64.0042 768.95 L42.679 768.95 Q37.5228 768.95 35.072 770.764 Q32.5894 772.578 32.5894 776.366 Q32.5894 780.853 35.6449 783.495 Q38.6686 786.137 43.8567 786.137 L64.0042 786.137 L64.0042 792.025 L28.3562 792.025 L28.3562 786.137 L33.8944 786.137 Q30.616 784.132 29.0564 781.331 Q27.4968 778.53 27.4968 774.679 Q27.4968 770.796 29.4702 768.09 Q31.4436 765.353 35.1993 764.048 Z" fill="#000000" fill-rule="nonzero" fill-opacity="1" /><path clip-path="url(#clip980)" d="M46.0847 712.104 Q46.0847 719.202 47.7079 721.939 Q49.3312 724.676 53.2461 724.676 Q56.3653 724.676 58.2114 722.639 Q60.0256 720.57 60.0256 717.037 Q60.0256 712.167 56.5881 709.239 Q53.1188 706.279 47.3897 706.279 L46.0847 706.279 L46.0847 712.104 M43.6657 700.423 L64.0042 700.423 L64.0042 706.279 L58.5933 706.279 Q61.8398 708.284 63.3994 711.276 Q64.9272 714.268 64.9272 718.597 Q64.9272 724.071 61.8716 727.318 Q58.7843 730.533 53.6281 730.533 Q47.6125 730.533 44.5569 726.522 Q41.5014 722.48 41.5014 714.491 L41.5014 706.279 L40.9285 706.279 Q36.8862 706.279 34.6901 708.953 Q32.4621 711.595 32.4621 716.401 Q32.4621 719.456 33.1941 722.353 Q33.9262 725.249 35.3903 727.923 L29.9795 727.923 Q28.7381 724.708 28.1334 721.684 Q27.4968 718.66 27.4968 715.796 Q27.4968 708.062 31.5072 704.242 Q35.5176 700.423 43.6657 700.423 Z" fill="#000000" fill-rule="nonzero" fill-opacity="1" /><path clip-path="url(#clip980)" d="M18.2347 682.567 L28.3562 682.567 L28.3562 670.504 L32.9077 670.504 L32.9077 682.567 L52.2594 682.567 Q56.6199 682.567 57.8613 681.389 Q59.1026 680.18 59.1026 676.52 L59.1026 670.504 L64.0042 670.504 L64.0042 676.52 Q64.0042 683.299 61.4897 685.877 Q58.9434 688.455 52.2594 688.455 L32.9077 688.455 L32.9077 692.752 L28.3562 692.752 L28.3562 688.455 L18.2347 688.455 L18.2347 682.567 Z" fill="#000000" fill-rule="nonzero" fill-opacity="1" /><path clip-path="url(#clip980)" d="M28.3562 662.801 L28.3562 656.945 L64.0042 656.945 L64.0042 662.801 L28.3562 662.801 M14.479 662.801 L14.479 656.945 L21.895 656.945 L21.895 662.801 L14.479 662.801 Z" fill="#000000" fill-rule="nonzero" fill-opacity="1" /><path clip-path="url(#clip980)" d="M32.4621 630.877 Q32.4621 635.588 36.1542 638.325 Q39.8145 641.063 46.212 641.063 Q52.6095 641.063 56.3017 638.357 Q59.9619 635.62 59.9619 630.877 Q59.9619 626.199 56.2698 623.461 Q52.5777 620.724 46.212 620.724 Q39.8781 620.724 36.186 623.461 Q32.4621 626.199 32.4621 630.877 M27.4968 630.877 Q27.4968 623.239 32.4621 618.878 Q37.4273 614.518 46.212 614.518 Q54.9649 614.518 59.9619 618.878 Q64.9272 623.239 64.9272 630.877 Q64.9272 638.548 59.9619 642.909 Q54.9649 647.237 46.212 647.237 Q37.4273 647.237 32.4621 642.909 Q27.4968 638.548 27.4968 630.877 Z" fill="#000000" fill-rule="nonzero" fill-opacity="1" /><path clip-path="url(#clip980)" d="M42.4881 575.177 L64.0042 575.177 L64.0042 581.034 L42.679 581.034 Q37.6183 581.034 35.1038 583.007 Q32.5894 584.981 32.5894 588.927 Q32.5894 593.67 35.6131 596.407 Q38.6368 599.144 43.8567 599.144 L64.0042 599.144 L64.0042 605.033 L28.3562 605.033 L28.3562 599.144 L33.8944 599.144 Q30.6797 597.044 29.0883 594.211 Q27.4968 591.346 27.4968 587.622 Q27.4968 581.48 31.3163 578.328 Q35.1038 575.177 42.4881 575.177 Z" fill="#000000" fill-rule="nonzero" fill-opacity="1" /><path clip-path="url(#clip980)" d="M14.5426 528.708 Q21.8632 532.973 29.0246 535.042 Q36.186 537.111 43.5384 537.111 Q50.8908 537.111 58.1159 535.042 Q65.3091 532.941 72.5979 528.708 L72.5979 533.8 Q65.1182 538.575 57.8931 540.962 Q50.668 543.317 43.5384 543.317 Q36.4406 543.317 29.2474 540.962 Q22.0542 538.606 14.5426 533.8 L14.5426 528.708 Z" fill="#000000" fill-rule="nonzero" fill-opacity="1" /><path clip-path="url(#clip980)" d="M42.4881 487.713 L64.0042 487.713 L64.0042 493.569 L42.679 493.569 Q37.6183 493.569 35.1038 495.542 Q32.5894 497.516 32.5894 501.463 Q32.5894 506.205 35.6131 508.942 Q38.6368 511.68 43.8567 511.68 L64.0042 511.68 L64.0042 517.568 L28.3562 517.568 L28.3562 511.68 L33.8944 511.68 Q30.6797 509.579 29.0883 506.746 Q27.4968 503.882 27.4968 500.158 Q27.4968 494.015 31.3163 490.864 Q35.1038 487.713 42.4881 487.713 Z" fill="#000000" fill-rule="nonzero" fill-opacity="1" /><path clip-path="url(#clip980)" d="M46.0847 459.831 Q46.0847 466.929 47.7079 469.666 Q49.3312 472.403 53.2461 472.403 Q56.3653 472.403 58.2114 470.366 Q60.0256 468.297 60.0256 464.764 Q60.0256 459.895 56.5881 456.966 Q53.1188 454.006 47.3897 454.006 L46.0847 454.006 L46.0847 459.831 M43.6657 448.15 L64.0042 448.15 L64.0042 454.006 L58.5933 454.006 Q61.8398 456.011 63.3994 459.003 Q64.9272 461.995 64.9272 466.324 Q64.9272 471.798 61.8716 475.045 Q58.7843 478.26 53.6281 478.26 Q47.6125 478.26 44.5569 474.249 Q41.5014 470.207 41.5014 462.218 L41.5014 454.006 L40.9285 454.006 Q36.8862 454.006 34.6901 456.68 Q32.4621 459.322 32.4621 464.128 Q32.4621 467.183 33.1941 470.08 Q33.9262 472.976 35.3903 475.65 L29.9795 475.65 Q28.7381 472.435 28.1334 469.411 Q27.4968 466.388 27.4968 463.523 Q27.4968 455.789 31.5072 451.969 Q35.5176 448.15 43.6657 448.15 Z" fill="#000000" fill-rule="nonzero" fill-opacity="1" /><path clip-path="url(#clip980)" d="M18.2347 430.294 L28.3562 430.294 L28.3562 418.231 L32.9077 418.231 L32.9077 430.294 L52.2594 430.294 Q56.6199 430.294 57.8613 429.116 Q59.1026 427.907 59.1026 424.247 L59.1026 418.231 L64.0042 418.231 L64.0042 424.247 Q64.0042 431.026 61.4897 433.604 Q58.9434 436.182 52.2594 436.182 L32.9077 436.182 L32.9077 440.479 L28.3562 440.479 L28.3562 436.182 L18.2347 436.182 L18.2347 430.294 Z" fill="#000000" fill-rule="nonzero" fill-opacity="1" /><path clip-path="url(#clip980)" d="M29.4065 387.803 L34.9447 387.803 Q33.6716 390.286 33.035 392.959 Q32.3984 395.633 32.3984 398.497 Q32.3984 402.858 33.7352 405.054 Q35.072 407.218 37.7456 407.218 Q39.7826 407.218 40.9603 405.659 Q42.1061 404.099 43.1565 399.388 L43.6021 397.383 Q44.9389 391.145 47.3897 388.535 Q49.8086 385.893 54.1691 385.893 Q59.1344 385.893 62.0308 389.84 Q64.9272 393.755 64.9272 400.63 Q64.9272 403.494 64.3543 406.614 Q63.8132 409.701 62.6992 413.138 L56.6518 413.138 Q58.3387 409.892 59.198 406.741 Q60.0256 403.59 60.0256 400.502 Q60.0256 396.365 58.6251 394.137 Q57.1929 391.909 54.6147 391.909 Q52.2276 391.909 50.9545 393.532 Q49.6813 395.123 48.5037 400.566 L48.0262 402.603 Q46.8804 408.046 44.5251 410.465 Q42.138 412.884 38.0002 412.884 Q32.9713 412.884 30.2341 409.319 Q27.4968 405.754 27.4968 399.197 Q27.4968 395.951 27.9743 393.086 Q28.4517 390.222 29.4065 387.803 Z" fill="#000000" fill-rule="nonzero" fill-opacity="1" /><path clip-path="url(#clip980)" d="M14.5426 377.49 L14.5426 372.398 Q22.0542 367.624 29.2474 365.268 Q36.4406 362.881 43.5384 362.881 Q50.668 362.881 57.8931 365.268 Q65.1182 367.624 72.5979 372.398 L72.5979 377.49 Q65.3091 373.257 58.1159 371.188 Q50.8908 369.088 43.5384 369.088 Q36.186 369.088 29.0246 371.188 Q21.8632 373.257 14.5426 377.49 Z" fill="#000000" fill-rule="nonzero" fill-opacity="1" /><path clip-path="url(#clip980)" d="M524.822 12.096 L533.005 12.096 L533.005 72.576 L524.822 72.576 L524.822 12.096 Z" fill="#000000" fill-rule="nonzero" fill-opacity="1" /><path clip-path="url(#clip980)" d="M586.679 45.1919 L586.679 72.576 L579.226 72.576 L579.226 45.4349 Q579.226 38.994 576.714 35.7938 Q574.203 32.5936 569.18 32.5936 Q563.144 32.5936 559.66 36.4419 Q556.176 40.2903 556.176 46.9338 L556.176 72.576 L548.682 72.576 L548.682 27.2059 L556.176 27.2059 L556.176 34.2544 Q558.85 30.163 562.455 28.1376 Q566.101 26.1121 570.84 26.1121 Q578.659 26.1121 582.669 30.9732 Q586.679 35.7938 586.679 45.1919 Z" fill="#000000" fill-rule="nonzero" fill-opacity="1" /><path clip-path="url(#clip980)" d="M624.515 9.54393 L624.515 15.7418 L617.385 15.7418 Q613.375 15.7418 611.795 17.3622 Q610.256 18.9825 610.256 23.1955 L610.256 27.2059 L622.53 27.2059 L622.53 32.9987 L610.256 32.9987 L610.256 72.576 L602.762 72.576 L602.762 32.9987 L595.632 32.9987 L595.632 27.2059 L602.762 27.2059 L602.762 24.0462 Q602.762 16.471 606.286 13.0277 Q609.81 9.54393 617.466 9.54393 L624.515 9.54393 Z" fill="#000000" fill-rule="nonzero" fill-opacity="1" /><path clip-path="url(#clip980)" d="M648.334 32.4315 Q642.339 32.4315 638.855 37.1306 Q635.371 41.7891 635.371 49.9314 Q635.371 58.0738 638.815 62.7728 Q642.298 67.4314 648.334 67.4314 Q654.289 67.4314 657.773 62.7323 Q661.257 58.0333 661.257 49.9314 Q661.257 41.8701 657.773 37.1711 Q654.289 32.4315 648.334 32.4315 M648.334 26.1121 Q658.056 26.1121 663.606 32.4315 Q669.156 38.7509 669.156 49.9314 Q669.156 61.0714 663.606 67.4314 Q658.056 73.7508 648.334 73.7508 Q638.572 73.7508 633.022 67.4314 Q627.513 61.0714 627.513 49.9314 Q627.513 38.7509 633.022 32.4315 Q638.572 26.1121 648.334 26.1121 Z" fill="#000000" fill-rule="nonzero" fill-opacity="1" /><path clip-path="url(#clip980)" d="M707.801 34.1734 Q706.546 33.4443 705.047 33.1202 Q703.589 32.7556 701.806 32.7556 Q695.487 32.7556 692.084 36.8875 Q688.722 40.9789 688.722 48.6757 L688.722 72.576 L681.228 72.576 L681.228 27.2059 L688.722 27.2059 L688.722 34.2544 Q691.071 30.1225 694.839 28.1376 Q698.606 26.1121 703.994 26.1121 Q704.763 26.1121 705.695 26.2337 Q706.627 26.3147 707.761 26.5172 L707.801 34.1734 Z" fill="#000000" fill-rule="nonzero" fill-opacity="1" /><path clip-path="url(#clip980)" d="M749.485 35.9153 Q752.28 30.8922 756.169 28.5022 Q760.058 26.1121 765.324 26.1121 Q772.413 26.1121 776.262 31.0947 Q780.11 36.0368 780.11 45.1919 L780.11 72.576 L772.616 72.576 L772.616 45.4349 Q772.616 38.913 770.307 35.7533 Q767.998 32.5936 763.258 32.5936 Q757.466 32.5936 754.103 36.4419 Q750.741 40.2903 750.741 46.9338 L750.741 72.576 L743.247 72.576 L743.247 45.4349 Q743.247 38.8725 740.938 35.7533 Q738.629 32.5936 733.808 32.5936 Q728.096 32.5936 724.734 36.4824 Q721.372 40.3308 721.372 46.9338 L721.372 72.576 L713.878 72.576 L713.878 27.2059 L721.372 27.2059 L721.372 34.2544 Q723.924 30.082 727.489 28.0971 Q731.054 26.1121 735.955 26.1121 Q740.897 26.1121 744.341 28.6237 Q747.824 31.1352 749.485 35.9153 Z" fill="#000000" fill-rule="nonzero" fill-opacity="1" /><path clip-path="url(#clip980)" d="M815.596 49.7694 Q806.562 49.7694 803.079 51.8354 Q799.595 53.9013 799.595 58.8839 Q799.595 62.8538 802.188 65.2034 Q804.821 67.5124 809.317 67.5124 Q815.515 67.5124 819.242 63.1374 Q823.009 58.7219 823.009 51.4303 L823.009 49.7694 L815.596 49.7694 M830.463 46.6907 L830.463 72.576 L823.009 72.576 L823.009 65.6895 Q820.457 69.8214 816.649 71.8063 Q812.841 73.7508 807.332 73.7508 Q800.365 73.7508 796.233 69.8619 Q792.141 65.9325 792.141 59.3701 Q792.141 51.7138 797.245 47.825 Q802.39 43.9361 812.558 43.9361 L823.009 43.9361 L823.009 43.2069 Q823.009 38.0623 819.606 35.2672 Q816.244 32.4315 810.127 32.4315 Q806.238 32.4315 802.552 33.3632 Q798.866 34.295 795.463 36.1584 L795.463 29.2718 Q799.554 27.692 803.403 26.9223 Q807.251 26.1121 810.897 26.1121 Q820.741 26.1121 825.602 31.2163 Q830.463 36.3204 830.463 46.6907 Z" fill="#000000" fill-rule="nonzero" fill-opacity="1" /><path clip-path="url(#clip980)" d="M853.188 14.324 L853.188 27.2059 L868.541 27.2059 L868.541 32.9987 L853.188 32.9987 L853.188 57.6282 Q853.188 63.1779 854.687 64.7578 Q856.227 66.3376 860.885 66.3376 L868.541 66.3376 L868.541 72.576 L860.885 72.576 Q852.257 72.576 848.975 69.3758 Q845.694 66.1351 845.694 57.6282 L845.694 32.9987 L840.226 32.9987 L840.226 27.2059 L845.694 27.2059 L845.694 14.324 L853.188 14.324 Z" fill="#000000" fill-rule="nonzero" fill-opacity="1" /><path clip-path="url(#clip980)" d="M878.345 27.2059 L885.798 27.2059 L885.798 72.576 L878.345 72.576 L878.345 27.2059 M878.345 9.54393 L885.798 9.54393 L885.798 18.9825 L878.345 18.9825 L878.345 9.54393 Z" fill="#000000" fill-rule="nonzero" fill-opacity="1" /><path clip-path="url(#clip980)" d="M918.975 32.4315 Q912.98 32.4315 909.496 37.1306 Q906.012 41.7891 906.012 49.9314 Q906.012 58.0738 909.455 62.7728 Q912.939 67.4314 918.975 67.4314 Q924.93 67.4314 928.414 62.7323 Q931.897 58.0333 931.897 49.9314 Q931.897 41.8701 928.414 37.1711 Q924.93 32.4315 918.975 32.4315 M918.975 26.1121 Q928.697 26.1121 934.247 32.4315 Q939.797 38.7509 939.797 49.9314 Q939.797 61.0714 934.247 67.4314 Q928.697 73.7508 918.975 73.7508 Q909.212 73.7508 903.663 67.4314 Q898.153 61.0714 898.153 49.9314 Q898.153 38.7509 903.663 32.4315 Q909.212 26.1121 918.975 26.1121 Z" fill="#000000" fill-rule="nonzero" fill-opacity="1" /><path clip-path="url(#clip980)" d="M989.866 45.1919 L989.866 72.576 L982.412 72.576 L982.412 45.4349 Q982.412 38.994 979.901 35.7938 Q977.389 32.5936 972.366 32.5936 Q966.33 32.5936 962.846 36.4419 Q959.363 40.2903 959.363 46.9338 L959.363 72.576 L951.868 72.576 L951.868 27.2059 L959.363 27.2059 L959.363 34.2544 Q962.036 30.163 965.642 28.1376 Q969.287 26.1121 974.027 26.1121 Q981.845 26.1121 985.856 30.9732 Q989.866 35.7938 989.866 45.1919 Z" fill="#000000" fill-rule="nonzero" fill-opacity="1" /><path clip-path="url(#clip980)" d="M1031.43 12.096 L1066.18 12.096 L1066.18 18.9825 L1039.61 18.9825 L1039.61 36.8065 L1063.59 36.8065 L1063.59 43.6931 L1039.61 43.6931 L1039.61 72.576 L1031.43 72.576 L1031.43 12.096 Z" fill="#000000" fill-rule="nonzero" fill-opacity="1" /><path clip-path="url(#clip980)" d="M1078.82 9.54393 L1086.28 9.54393 L1086.28 72.576 L1078.82 72.576 L1078.82 9.54393 Z" fill="#000000" fill-rule="nonzero" fill-opacity="1" /><path clip-path="url(#clip980)" d="M1119.45 32.4315 Q1113.46 32.4315 1109.98 37.1306 Q1106.49 41.7891 1106.49 49.9314 Q1106.49 58.0738 1109.93 62.7728 Q1113.42 67.4314 1119.45 67.4314 Q1125.41 67.4314 1128.89 62.7323 Q1132.38 58.0333 1132.38 49.9314 Q1132.38 41.8701 1128.89 37.1711 Q1125.41 32.4315 1119.45 32.4315 M1119.45 26.1121 Q1129.18 26.1121 1134.73 32.4315 Q1140.28 38.7509 1140.28 49.9314 Q1140.28 61.0714 1134.73 67.4314 Q1129.18 73.7508 1119.45 73.7508 Q1109.69 73.7508 1104.14 67.4314 Q1098.63 61.0714 1098.63 49.9314 Q1098.63 38.7509 1104.14 32.4315 Q1109.69 26.1121 1119.45 26.1121 Z" fill="#000000" fill-rule="nonzero" fill-opacity="1" /><path clip-path="url(#clip980)" d="M1148.3 27.2059 L1155.75 27.2059 L1165.07 62.6108 L1174.34 27.2059 L1183.13 27.2059 L1192.45 62.6108 L1201.73 27.2059 L1209.18 27.2059 L1197.31 72.576 L1188.52 72.576 L1178.76 35.3887 L1168.96 72.576 L1160.17 72.576 L1148.3 27.2059 Z" fill="#000000" fill-rule="nonzero" fill-opacity="1" /><path clip-path="url(#clip980)" d="M1217.85 62.2867 L1226.4 62.2867 L1226.4 72.576 L1217.85 72.576 L1217.85 62.2867 M1217.85 29.6769 L1226.4 29.6769 L1226.4 39.9662 L1217.85 39.9662 L1217.85 29.6769 Z" fill="#000000" fill-rule="nonzero" fill-opacity="1" /><path clip-path="url(#clip980)" d="M1306.85 14.0809 L1306.85 22.0612 Q1302.19 19.8332 1298.06 18.7395 Q1293.93 17.6457 1290.08 17.6457 Q1283.39 17.6457 1279.75 20.2383 Q1276.14 22.8309 1276.14 27.611 Q1276.14 31.6214 1278.53 33.6873 Q1280.96 35.7128 1287.69 36.9686 L1292.63 37.9813 Q1301.79 39.7232 1306.12 44.1387 Q1310.49 48.5136 1310.49 55.8863 Q1310.49 64.6767 1304.58 69.2137 Q1298.71 73.7508 1287.32 73.7508 Q1283.03 73.7508 1278.17 72.7785 Q1273.35 71.8063 1268.16 69.9024 L1268.16 61.4765 Q1273.15 64.2716 1277.93 65.6895 Q1282.71 67.1073 1287.32 67.1073 Q1294.33 67.1073 1298.14 64.3527 Q1301.95 61.598 1301.95 56.4939 Q1301.95 52.0379 1299.19 49.5264 Q1296.48 47.0148 1290.24 45.759 L1285.26 44.7868 Q1276.1 42.9639 1272.01 39.075 Q1267.92 35.1862 1267.92 28.2591 Q1267.92 20.2383 1273.55 15.6203 Q1279.22 11.0023 1289.15 11.0023 Q1293.4 11.0023 1297.82 11.7719 Q1302.23 12.5416 1306.85 14.0809 Z" fill="#000000" fill-rule="nonzero" fill-opacity="1" /><path clip-path="url(#clip980)" d="M1406.95 44.7463 L1406.95 48.3921 L1391.03 64.3122 L1386.17 59.4511 L1395.6 50.0125 L1346.22 50.0125 L1346.22 43.1259 L1395.6 43.1259 L1386.17 33.6873 L1391.03 28.8262 L1406.95 44.7463 Z" fill="#000000" fill-rule="nonzero" fill-opacity="1" /><path clip-path="url(#clip980)" d="M1461.11 72.576 L1438.02 12.096 L1446.56 12.096 L1465.73 63.0159 L1484.93 12.096 L1493.43 12.096 L1470.38 72.576 L1461.11 72.576 Z" fill="#000000" fill-rule="nonzero" fill-opacity="1" /><path clip-path="url(#clip980)" d="M1585.96 44.7463 L1585.96 48.3921 L1570.04 64.3122 L1565.18 59.4511 L1574.61 50.0125 L1525.23 50.0125 L1525.23 43.1259 L1574.61 43.1259 L1565.18 33.6873 L1570.04 28.8262 L1585.96 44.7463 Z" fill="#000000" fill-rule="nonzero" fill-opacity="1" /><path clip-path="url(#clip980)" d="M1621.6 12.096 L1630.39 12.096 L1645.42 34.5785 L1660.53 12.096 L1669.32 12.096 L1649.88 41.141 L1670.62 72.576 L1661.83 72.576 L1644.82 46.8528 L1627.68 72.576 L1618.85 72.576 L1640.44 40.2903 L1621.6 12.096 Z" fill="#000000" fill-rule="nonzero" fill-opacity="1" /><path clip-path="url(#clip980)" d="M1753.02 16.7545 L1753.02 25.383 Q1748.88 21.5346 1744.18 19.6307 Q1739.53 17.7268 1734.26 17.7268 Q1723.89 17.7268 1718.38 24.0867 Q1712.87 30.4061 1712.87 42.3968 Q1712.87 54.3469 1718.38 60.7069 Q1723.89 67.0263 1734.26 67.0263 Q1739.53 67.0263 1744.18 65.1223 Q1748.88 63.2184 1753.02 59.3701 L1753.02 67.9175 Q1748.72 70.8341 1743.9 72.2924 Q1739.12 73.7508 1733.77 73.7508 Q1720.04 73.7508 1712.14 65.3654 Q1704.24 56.9395 1704.24 42.3968 Q1704.24 27.8135 1712.14 19.4281 Q1720.04 11.0023 1733.77 11.0023 Q1739.2 11.0023 1743.98 12.4606 Q1748.8 13.8784 1753.02 16.7545 Z" fill="#000000" fill-rule="nonzero" fill-opacity="1" /><path clip-path="url(#clip980)" d="M1785.95 49.7694 Q1776.92 49.7694 1773.43 51.8354 Q1769.95 53.9013 1769.95 58.8839 Q1769.95 62.8538 1772.54 65.2034 Q1775.17 67.5124 1779.67 67.5124 Q1785.87 67.5124 1789.6 63.1374 Q1793.36 58.7219 1793.36 51.4303 L1793.36 49.7694 L1785.95 49.7694 M1800.82 46.6907 L1800.82 72.576 L1793.36 72.576 L1793.36 65.6895 Q1790.81 69.8214 1787 71.8063 Q1783.19 73.7508 1777.69 73.7508 Q1770.72 73.7508 1766.59 69.8619 Q1762.49 65.9325 1762.49 59.3701 Q1762.49 51.7138 1767.6 47.825 Q1772.74 43.9361 1782.91 43.9361 L1793.36 43.9361 L1793.36 43.2069 Q1793.36 38.0623 1789.96 35.2672 Q1786.6 32.4315 1780.48 32.4315 Q1776.59 32.4315 1772.91 33.3632 Q1769.22 34.295 1765.82 36.1584 L1765.82 29.2718 Q1769.91 27.692 1773.76 26.9223 Q1777.6 26.1121 1781.25 26.1121 Q1791.09 26.1121 1795.96 31.2163 Q1800.82 36.3204 1800.82 46.6907 Z" fill="#000000" fill-rule="nonzero" fill-opacity="1" /><path clip-path="url(#clip980)" d="M1845.09 28.5427 L1845.09 35.5912 Q1841.93 33.9709 1838.53 33.1607 Q1835.13 32.3505 1831.48 32.3505 Q1825.93 32.3505 1823.14 34.0519 Q1820.38 35.7533 1820.38 39.156 Q1820.38 41.7486 1822.37 43.2475 Q1824.35 44.7058 1830.35 46.0426 L1832.9 46.6097 Q1840.84 48.3111 1844.16 51.4303 Q1847.52 54.509 1847.52 60.0587 Q1847.52 66.3781 1842.5 70.0644 Q1837.52 73.7508 1828.77 73.7508 Q1825.12 73.7508 1821.15 73.0216 Q1817.22 72.3329 1812.85 70.9151 L1812.85 63.2184 Q1816.98 65.3654 1820.99 66.4591 Q1825 67.5124 1828.93 67.5124 Q1834.2 67.5124 1837.03 65.73 Q1839.87 63.9071 1839.87 60.6258 Q1839.87 57.5877 1837.8 55.9673 Q1835.78 54.3469 1828.85 52.8481 L1826.26 52.2405 Q1819.33 50.7821 1816.25 47.7845 Q1813.17 44.7463 1813.17 39.4801 Q1813.17 33.0797 1817.71 29.5959 Q1822.25 26.1121 1830.59 26.1121 Q1834.72 26.1121 1838.37 26.7198 Q1842.01 27.3274 1845.09 28.5427 Z" fill="#000000" fill-rule="nonzero" fill-opacity="1" /><path clip-path="url(#clip980)" d="M1892.04 28.9478 L1892.04 35.9153 Q1888.88 34.1734 1885.68 33.3227 Q1882.52 32.4315 1879.28 32.4315 Q1872.03 32.4315 1868.02 37.0496 Q1864.01 41.6271 1864.01 49.9314 Q1864.01 58.2358 1868.02 62.8538 Q1872.03 67.4314 1879.28 67.4314 Q1882.52 67.4314 1885.68 66.5807 Q1888.88 65.6895 1892.04 63.9476 L1892.04 70.8341 Q1888.92 72.2924 1885.56 73.0216 Q1882.24 73.7508 1878.47 73.7508 Q1868.22 73.7508 1862.19 67.3098 Q1856.15 60.8689 1856.15 49.9314 Q1856.15 38.832 1862.23 32.472 Q1868.35 26.1121 1878.96 26.1121 Q1882.4 26.1121 1885.68 26.8413 Q1888.96 27.5299 1892.04 28.9478 Z" fill="#000000" fill-rule="nonzero" fill-opacity="1" /><path clip-path="url(#clip980)" d="M1925.62 49.7694 Q1916.59 49.7694 1913.11 51.8354 Q1909.62 53.9013 1909.62 58.8839 Q1909.62 62.8538 1912.22 65.2034 Q1914.85 67.5124 1919.35 67.5124 Q1925.54 67.5124 1929.27 63.1374 Q1933.04 58.7219 1933.04 51.4303 L1933.04 49.7694 L1925.62 49.7694 M1940.49 46.6907 L1940.49 72.576 L1933.04 72.576 L1933.04 65.6895 Q1930.49 69.8214 1926.68 71.8063 Q1922.87 73.7508 1917.36 73.7508 Q1910.39 73.7508 1906.26 69.8619 Q1902.17 65.9325 1902.17 59.3701 Q1902.17 51.7138 1907.27 47.825 Q1912.42 43.9361 1922.59 43.9361 L1933.04 43.9361 L1933.04 43.2069 Q1933.04 38.0623 1929.64 35.2672 Q1926.27 32.4315 1920.16 32.4315 Q1916.27 32.4315 1912.58 33.3632 Q1908.89 34.295 1905.49 36.1584 L1905.49 29.2718 Q1909.58 27.692 1913.43 26.9223 Q1917.28 26.1121 1920.93 26.1121 Q1930.77 26.1121 1935.63 31.2163 Q1940.49 36.3204 1940.49 46.6907 Z" fill="#000000" fill-rule="nonzero" fill-opacity="1" /><path clip-path="url(#clip980)" d="M1985.7 34.0924 L1985.7 9.54393 L1993.15 9.54393 L1993.15 72.576 L1985.7 72.576 L1985.7 65.7705 Q1983.35 69.8214 1979.74 71.8063 Q1976.18 73.7508 1971.16 73.7508 Q1962.93 73.7508 1957.75 67.1883 Q1952.6 60.6258 1952.6 49.9314 Q1952.6 39.2371 1957.75 32.6746 Q1962.93 26.1121 1971.16 26.1121 Q1976.18 26.1121 1979.74 28.0971 Q1983.35 30.0415 1985.7 34.0924 M1960.3 49.9314 Q1960.3 58.1548 1963.66 62.8538 Q1967.07 67.5124 1972.98 67.5124 Q1978.89 67.5124 1982.3 62.8538 Q1985.7 58.1548 1985.7 49.9314 Q1985.7 41.7081 1982.3 37.0496 Q1978.89 32.3505 1972.98 32.3505 Q1967.07 32.3505 1963.66 37.0496 Q1960.3 41.7081 1960.3 49.9314 Z" fill="#000000" fill-rule="nonzero" fill-opacity="1" /><path clip-path="url(#clip980)" d="M2047.31 48.0275 L2047.31 51.6733 L2013.04 51.6733 Q2013.53 59.3701 2017.66 63.421 Q2021.83 67.4314 2029.25 67.4314 Q2033.54 67.4314 2037.55 66.3781 Q2041.6 65.3249 2045.57 63.2184 L2045.57 70.267 Q2041.56 71.9684 2037.35 72.8596 Q2033.14 73.7508 2028.8 73.7508 Q2017.94 73.7508 2011.58 67.4314 Q2005.27 61.1119 2005.27 50.3365 Q2005.27 39.1965 2011.26 32.6746 Q2017.3 26.1121 2027.51 26.1121 Q2036.66 26.1121 2041.97 32.0264 Q2047.31 37.9003 2047.31 48.0275 M2039.86 45.84 Q2039.78 39.7232 2036.42 36.0774 Q2033.1 32.4315 2027.59 32.4315 Q2021.35 32.4315 2017.58 35.9558 Q2013.85 39.4801 2013.29 45.8805 L2039.86 45.84 Z" fill="#000000" fill-rule="nonzero" fill-opacity="1" /><path clip-path="url(#clip982)" d="M279.759 1383.18 L299.885 1386.4 L320.011 1385.77 L340.137 1382.59 L360.263 1383.8 L380.39 1374.95 L400.516 1376.09 L420.642 1359.94 L440.768 1357.22 L460.894 1349.04 L481.021 1337.98 L501.147 1321.36 L521.273 1314.63 L541.399 1288.25 L561.525 1285.94 L581.652 1265.94 L601.778 1251.94 L621.904 1239.48 L642.03 1228.42 L662.156 1223.87 L682.282 1216.26 L702.409 1208.04 L722.535 1191.89 L742.661 1179.26 L762.787 1157.9 L782.913 1151.6 L803.04 1139.96 L823.166 1128.33 L843.292 1125.49 L863.418 1108.6 L883.544 1098.18 L903.67 1088.6 L923.797 1079.38 L943.923 1068.49 L964.049 1058.44 L984.175 1055.95 L1004.3 1044.64 L1024.43 1036.83 L1044.55 1028.33 L1064.68 1014.16 L1084.81 995.446 L1104.93 993.691 L1125.06 975.482 L1145.18 969.279 L1165.31 972.121 L1185.44 954.15 L1205.56 940.993 L1225.69 938.093 L1245.82 937.79 L1265.94 928.375 L1286.07 915.202 L1306.19 913.25 L1326.32 903.657 L1346.45 901.683 L1366.57 877.484 L1386.7 871.458 L1406.83 862.418 L1426.95 843.233 L1447.08 835 L1467.2 825.418 L1487.33 806.496 L1507.46 788.452 L1527.58 772.973 L1547.71 755.942 L1567.83 739.026 L1587.96 735.127 L1608.09 713.585 L1628.21 700.092 L1648.34 686.334 L1668.47 676.563 L1688.59 658.633 L1708.72 650.78 L1728.84 632.402 L1748.97 624.587 L1769.1 614.541 L1789.22 604.863 L1809.35 602.425 L1829.48 584.573 L1849.6 574.172 L1869.73 559.09 L1889.85 552.879 L1909.98 538.398 L1930.11 527.579 L1950.23 518.699 L1970.36 502.162 L1990.48 482.942 L2010.61 474.903 L2030.74 470.332 L2050.86 447.607 L2070.99 428.973 L2091.12 428.661 L2111.24 418.813 L2131.37 411.452 L2151.49 395.641 L2171.62 378.983 L2191.75 358.123 L2211.87 339.984 L2232 326.052 L2252.12 309.111 L2272.25 307.114 L2292.38 292.327 L2292.38 160.256 L2272.25 176.06 L2252.12 177.673 L2232 197.242 L2211.87 211.9 L2191.75 231.039 L2171.62 253.144 L2151.49 269.755 L2131.37 286.687 L2111.24 294.518 L2091.12 304.932 L2070.99 305.814 L2050.86 325.041 L2030.74 348.508 L2010.61 354.77 L1990.48 363.172 L1970.36 384.043 L1950.23 401.283 L1930.11 408.694 L1909.98 419.89 L1889.85 435.922 L1869.73 443.758 L1849.6 459.609 L1829.48 470.367 L1809.35 487.359 L1789.22 491.201 L1769.1 502.573 L1748.97 513.233 L1728.84 522.477 L1708.72 541.031 L1688.59 549.313 L1668.47 567.678 L1648.34 577.805 L1628.21 592.914 L1608.09 607.604 L1587.96 628.805 L1567.83 632.858 L1547.71 650.692 L1527.58 667.702 L1507.46 685.226 L1487.33 703.081 L1467.2 723.352 L1447.08 734.809 L1426.95 744.893 L1406.83 765.191 L1386.7 775.733 L1366.57 783.083 L1346.45 808.279 L1326.32 812.158 L1306.19 822.738 L1286.07 825.941 L1265.94 839.469 L1245.82 849.203 L1225.69 850.907 L1205.56 855.373 L1185.44 869.046 L1165.31 888.092 L1145.18 885.606 L1125.06 893.071 L1104.93 912.264 L1084.81 915.175 L1064.68 935.915 L1044.55 950.987 L1024.43 960.206 L1004.3 969.591 L984.175 982.927 L964.049 987.089 L943.923 998.347 L923.797 1009.97 L903.67 1019.72 L883.544 1031.37 L863.418 1043.08 L843.292 1061.19 L823.166 1067.5 L803.04 1080.24 L782.913 1095.11 L762.787 1102.83 L742.661 1124.38 L722.535 1138.43 L702.409 1156.09 L682.282 1165.83 L662.156 1175.76 L642.03 1181.93 L621.904 1193.89 L601.778 1208.1 L581.652 1225.16 L561.525 1247.23 L541.399 1253.14 L521.273 1281.55 L501.147 1292.63 L481.021 1311.53 L460.894 1324.37 L440.768 1334.41 L420.642 1340.23 L400.516 1358.46 L380.39 1359.76 L360.263 1371.81 L340.137 1373.89 L320.011 1380.24 L299.885 1383.86 L279.759 1383.18  Z" fill="#009af9" fill-rule="evenodd" fill-opacity="0.5"/>
<polyline clip-path="url(#clip982)" style="stroke:#009af9; stroke-linecap:round; stroke-linejoin:round; stroke-width:8; stroke-opacity:1; fill:none" points="279.759,1383.18 299.885,1385.13 320.011,1383 340.137,1378.24 360.263,1377.8 380.39,1367.36 400.516,1367.28 420.642,1350.09 440.768,1345.82 460.894,1336.71 481.021,1324.75 501.147,1307 521.273,1298.09 541.399,1270.69 561.525,1266.58 581.652,1245.55 601.778,1230.02 621.904,1216.68 642.03,1205.18 662.156,1199.81 682.282,1191.04 702.409,1182.07 722.535,1165.16 742.661,1151.82 762.787,1130.37 782.913,1123.35 803.04,1110.1 823.166,1097.92 843.292,1093.34 863.418,1075.84 883.544,1064.77 903.67,1054.16 923.797,1044.67 943.923,1033.42 964.049,1022.76 984.175,1019.44 1004.3,1007.12 1024.43,998.516 1044.55,989.657 1064.68,975.039 1084.81,955.311 1104.93,952.977 1125.06,934.276 1145.18,927.443 1165.31,930.106 1185.44,911.598 1205.56,898.183 1225.69,894.5 1245.82,893.496 1265.94,883.922 1286.07,870.571 1306.19,867.994 1326.32,857.907 1346.45,854.981 1366.57,830.283 1386.7,823.595 1406.83,813.805 1426.95,794.063 1447.08,784.905 1467.2,774.385 1487.33,754.788 1507.46,736.839 1527.58,720.338 1547.71,703.317 1567.83,685.942 1587.96,681.966 1608.09,660.595 1628.21,646.503 1648.34,632.07 1668.47,622.12 1688.59,603.973 1708.72,595.905 1728.84,577.44 1748.97,568.91 1769.1,558.557 1789.22,548.032 1809.35,544.892 1829.48,527.47 1849.6,516.89 1869.73,501.424 1889.85,494.4 1909.98,479.144 1930.11,468.137 1950.23,459.991 1970.36,443.103 1990.48,423.057 2010.61,414.836 2030.74,409.42 2050.86,386.324 2070.99,367.394 2091.12,366.797 2111.24,356.665 2131.37,349.07 2151.49,332.698 2171.62,316.063 2191.75,294.581 2211.87,275.942 2232,261.647 2252.12,243.392 2272.25,241.587 2292.38,226.292 "/>
</svg>
