<?xml version="1.0" encoding="utf-8"?>
<svg xmlns="http://www.w3.org/2000/svg" xmlns:xlink="http://www.w3.org/1999/xlink" width="600" height="400" viewBox="0 0 2400 1600">
<defs>
  <clipPath id="clip890">
    <rect x="0" y="0" width="2400" height="1600"/>
  </clipPath>
</defs>
<path clip-path="url(#clip890)" d="M0 1600 L2400 1600 L2400 0 L0 0  Z" fill="#ffffff" fill-rule="evenodd" fill-opacity="1"/>
<defs>
  <clipPath id="clip891">
    <rect x="217" y="738" width="2137" height="661"/>
  </clipPath>
</defs>
<path clip-path="url(#clip890)" d="M247.459 1423.18 L2352.76 1423.18 L2352.76 123.472 L247.459 123.472  Z" fill="#ffffff" fill-rule="evenodd" fill-opacity="1"/>
<defs>
  <clipPath id="clip892">
    <rect x="247" y="123" width="2106" height="1301"/>
  </clipPath>
</defs>
<polyline clip-path="url(#clip892)" style="stroke:#000000; stroke-linecap:round; stroke-linejoin:round; stroke-width:2; stroke-opacity:0.1; fill:none" points="307.043,1423.18 307.043,123.472 "/>
<polyline clip-path="url(#clip892)" style="stroke:#000000; stroke-linecap:round; stroke-linejoin:round; stroke-width:2; stroke-opacity:0.1; fill:none" points="803.575,1423.18 803.575,123.472 "/>
<polyline clip-path="url(#clip892)" style="stroke:#000000; stroke-linecap:round; stroke-linejoin:round; stroke-width:2; stroke-opacity:0.1; fill:none" points="1300.11,1423.18 1300.11,123.472 "/>
<polyline clip-path="url(#clip892)" style="stroke:#000000; stroke-linecap:round; stroke-linejoin:round; stroke-width:2; stroke-opacity:0.1; fill:none" points="1796.64,1423.18 1796.64,123.472 "/>
<polyline clip-path="url(#clip892)" style="stroke:#000000; stroke-linecap:round; stroke-linejoin:round; stroke-width:2; stroke-opacity:0.1; fill:none" points="2293.17,1423.18 2293.17,123.472 "/>
<polyline clip-path="url(#clip892)" style="stroke:#000000; stroke-linecap:round; stroke-linejoin:round; stroke-width:2; stroke-opacity:0.1; fill:none" points="247.459,1386.4 2352.76,1386.4 "/>
<polyline clip-path="url(#clip892)" style="stroke:#000000; stroke-linecap:round; stroke-linejoin:round; stroke-width:2; stroke-opacity:0.1; fill:none" points="247.459,1113.13 2352.76,1113.13 "/>
<polyline clip-path="url(#clip892)" style="stroke:#000000; stroke-linecap:round; stroke-linejoin:round; stroke-width:2; stroke-opacity:0.1; fill:none" points="247.459,839.866 2352.76,839.866 "/>
<polyline clip-path="url(#clip892)" style="stroke:#000000; stroke-linecap:round; stroke-linejoin:round; stroke-width:2; stroke-opacity:0.1; fill:none" points="247.459,566.601 2352.76,566.601 "/>
<polyline clip-path="url(#clip892)" style="stroke:#000000; stroke-linecap:round; stroke-linejoin:round; stroke-width:2; stroke-opacity:0.1; fill:none" points="247.459,293.336 2352.76,293.336 "/>
<polyline clip-path="url(#clip890)" style="stroke:#000000; stroke-linecap:round; stroke-linejoin:round; stroke-width:4; stroke-opacity:1; fill:none" points="247.459,1423.18 2352.76,1423.18 "/>
<polyline clip-path="url(#clip890)" style="stroke:#000000; stroke-linecap:round; stroke-linejoin:round; stroke-width:4; stroke-opacity:1; fill:none" points="307.043,1423.18 307.043,1404.28 "/>
<polyline clip-path="url(#clip890)" style="stroke:#000000; stroke-linecap:round; stroke-linejoin:round; stroke-width:4; stroke-opacity:1; fill:none" points="803.575,1423.18 803.575,1404.28 "/>
<polyline clip-path="url(#clip890)" style="stroke:#000000; stroke-linecap:round; stroke-linejoin:round; stroke-width:4; stroke-opacity:1; fill:none" points="1300.11,1423.18 1300.11,1404.28 "/>
<polyline clip-path="url(#clip890)" style="stroke:#000000; stroke-linecap:round; stroke-linejoin:round; stroke-width:4; stroke-opacity:1; fill:none" points="1796.64,1423.18 1796.64,1404.28 "/>
<polyline clip-path="url(#clip890)" style="stroke:#000000; stroke-linecap:round; stroke-linejoin:round; stroke-width:4; stroke-opacity:1; fill:none" points="2293.17,1423.18 2293.17,1404.28 "/>
<path clip-path="url(#clip890)" d="M284.427 1454.1 Q280.816 1454.1 278.987 1457.66 Q277.182 1461.2 277.182 1468.33 Q277.182 1475.44 278.987 1479.01 Q280.816 1482.55 284.427 1482.55 Q288.061 1482.55 289.867 1479.01 Q291.695 1475.44 291.695 1468.33 Q291.695 1461.2 289.867 1457.66 Q288.061 1454.1 284.427 1454.1 M284.427 1450.39 Q290.237 1450.39 293.293 1455 Q296.371 1459.58 296.371 1468.33 Q296.371 1477.06 293.293 1481.67 Q290.237 1486.25 284.427 1486.25 Q278.617 1486.25 275.538 1481.67 Q272.483 1477.06 272.483 1468.33 Q272.483 1459.58 275.538 1455 Q278.617 1450.39 284.427 1450.39 Z" fill="#000000" fill-rule="nonzero" fill-opacity="1" /><path clip-path="url(#clip890)" d="M304.589 1479.7 L309.473 1479.7 L309.473 1485.58 L304.589 1485.58 L304.589 1479.7 Z" fill="#000000" fill-rule="nonzero" fill-opacity="1" /><path clip-path="url(#clip890)" d="M329.658 1454.1 Q326.047 1454.1 324.218 1457.66 Q322.413 1461.2 322.413 1468.33 Q322.413 1475.44 324.218 1479.01 Q326.047 1482.55 329.658 1482.55 Q333.292 1482.55 335.098 1479.01 Q336.927 1475.44 336.927 1468.33 Q336.927 1461.2 335.098 1457.66 Q333.292 1454.1 329.658 1454.1 M329.658 1450.39 Q335.468 1450.39 338.524 1455 Q341.603 1459.58 341.603 1468.33 Q341.603 1477.06 338.524 1481.67 Q335.468 1486.25 329.658 1486.25 Q323.848 1486.25 320.769 1481.67 Q317.714 1477.06 317.714 1468.33 Q317.714 1459.58 320.769 1455 Q323.848 1450.39 329.658 1450.39 Z" fill="#000000" fill-rule="nonzero" fill-opacity="1" /><path clip-path="url(#clip890)" d="M775.311 1481.64 L791.631 1481.64 L791.631 1485.58 L769.686 1485.58 L769.686 1481.64 Q772.348 1478.89 776.932 1474.26 Q781.538 1469.61 782.719 1468.27 Q784.964 1465.74 785.844 1464.01 Q786.746 1462.25 786.746 1460.56 Q786.746 1457.8 784.802 1456.07 Q782.881 1454.33 779.779 1454.33 Q777.58 1454.33 775.126 1455.09 Q772.695 1455.86 769.918 1457.41 L769.918 1452.69 Q772.742 1451.55 775.195 1450.97 Q777.649 1450.39 779.686 1450.39 Q785.057 1450.39 788.251 1453.08 Q791.445 1455.77 791.445 1460.26 Q791.445 1462.39 790.635 1464.31 Q789.848 1466.2 787.742 1468.8 Q787.163 1469.47 784.061 1472.69 Q780.959 1475.88 775.311 1481.64 Z" fill="#000000" fill-rule="nonzero" fill-opacity="1" /><path clip-path="url(#clip890)" d="M801.445 1479.7 L806.33 1479.7 L806.33 1485.58 L801.445 1485.58 L801.445 1479.7 Z" fill="#000000" fill-rule="nonzero" fill-opacity="1" /><path clip-path="url(#clip890)" d="M816.561 1451.02 L834.917 1451.02 L834.917 1454.96 L820.843 1454.96 L820.843 1463.43 Q821.862 1463.08 822.88 1462.92 Q823.899 1462.73 824.917 1462.73 Q830.704 1462.73 834.084 1465.9 Q837.464 1469.08 837.464 1474.49 Q837.464 1480.07 833.991 1483.17 Q830.519 1486.25 824.2 1486.25 Q822.024 1486.25 819.755 1485.88 Q817.51 1485.51 815.103 1484.77 L815.103 1480.07 Q817.186 1481.2 819.408 1481.76 Q821.63 1482.32 824.107 1482.32 Q828.112 1482.32 830.45 1480.21 Q832.788 1478.1 832.788 1474.49 Q832.788 1470.88 830.45 1468.77 Q828.112 1466.67 824.107 1466.67 Q822.232 1466.67 820.357 1467.08 Q818.505 1467.5 816.561 1468.38 L816.561 1451.02 Z" fill="#000000" fill-rule="nonzero" fill-opacity="1" /><path clip-path="url(#clip890)" d="M1267.27 1451.02 L1285.63 1451.02 L1285.63 1454.96 L1271.55 1454.96 L1271.55 1463.43 Q1272.57 1463.08 1273.59 1462.92 Q1274.61 1462.73 1275.63 1462.73 Q1281.42 1462.73 1284.79 1465.9 Q1288.17 1469.08 1288.17 1474.49 Q1288.17 1480.07 1284.7 1483.17 Q1281.23 1486.25 1274.91 1486.25 Q1272.73 1486.25 1270.47 1485.88 Q1268.22 1485.51 1265.81 1484.77 L1265.81 1480.07 Q1267.9 1481.2 1270.12 1481.76 Q1272.34 1482.32 1274.82 1482.32 Q1278.82 1482.32 1281.16 1480.21 Q1283.5 1478.1 1283.5 1474.49 Q1283.5 1470.88 1281.16 1468.77 Q1278.82 1466.67 1274.82 1466.67 Q1272.94 1466.67 1271.07 1467.08 Q1269.22 1467.5 1267.27 1468.38 L1267.27 1451.02 Z" fill="#000000" fill-rule="nonzero" fill-opacity="1" /><path clip-path="url(#clip890)" d="M1297.39 1479.7 L1302.27 1479.7 L1302.27 1485.58 L1297.39 1485.58 L1297.39 1479.7 Z" fill="#000000" fill-rule="nonzero" fill-opacity="1" /><path clip-path="url(#clip890)" d="M1322.46 1454.1 Q1318.85 1454.1 1317.02 1457.66 Q1315.21 1461.2 1315.21 1468.33 Q1315.21 1475.44 1317.02 1479.01 Q1318.85 1482.55 1322.46 1482.55 Q1326.09 1482.55 1327.9 1479.01 Q1329.73 1475.44 1329.73 1468.33 Q1329.73 1461.2 1327.9 1457.66 Q1326.09 1454.1 1322.46 1454.1 M1322.46 1450.39 Q1328.27 1450.39 1331.32 1455 Q1334.4 1459.58 1334.4 1468.33 Q1334.4 1477.06 1331.32 1481.67 Q1328.27 1486.25 1322.46 1486.25 Q1316.65 1486.25 1313.57 1481.67 Q1310.51 1477.06 1310.51 1468.33 Q1310.51 1459.58 1313.57 1455 Q1316.65 1450.39 1322.46 1450.39 Z" fill="#000000" fill-rule="nonzero" fill-opacity="1" /><path clip-path="url(#clip890)" d="M1762.96 1451.02 L1785.18 1451.02 L1785.18 1453.01 L1772.64 1485.58 L1767.75 1485.58 L1779.56 1454.96 L1762.96 1454.96 L1762.96 1451.02 Z" fill="#000000" fill-rule="nonzero" fill-opacity="1" /><path clip-path="url(#clip890)" d="M1794.3 1479.7 L1799.19 1479.7 L1799.19 1485.58 L1794.3 1485.58 L1794.3 1479.7 Z" fill="#000000" fill-rule="nonzero" fill-opacity="1" /><path clip-path="url(#clip890)" d="M1809.42 1451.02 L1827.77 1451.02 L1827.77 1454.96 L1813.7 1454.96 L1813.7 1463.43 Q1814.72 1463.08 1815.74 1462.92 Q1816.76 1462.73 1817.77 1462.73 Q1823.56 1462.73 1826.94 1465.9 Q1830.32 1469.08 1830.32 1474.49 Q1830.32 1480.07 1826.85 1483.17 Q1823.38 1486.25 1817.06 1486.25 Q1814.88 1486.25 1812.61 1485.88 Q1810.37 1485.51 1807.96 1484.77 L1807.96 1480.07 Q1810.04 1481.2 1812.26 1481.76 Q1814.49 1482.32 1816.96 1482.32 Q1820.97 1482.32 1823.31 1480.21 Q1825.64 1478.1 1825.64 1474.49 Q1825.64 1470.88 1823.31 1468.77 Q1820.97 1466.67 1816.96 1466.67 Q1815.09 1466.67 1813.21 1467.08 Q1811.36 1467.5 1809.42 1468.38 L1809.42 1451.02 Z" fill="#000000" fill-rule="nonzero" fill-opacity="1" /><path clip-path="url(#clip890)" d="M2245.24 1481.64 L2252.88 1481.64 L2252.88 1455.28 L2244.57 1456.95 L2244.57 1452.69 L2252.84 1451.02 L2257.51 1451.02 L2257.51 1481.64 L2265.15 1481.64 L2265.15 1485.58 L2245.24 1485.58 L2245.24 1481.64 Z" fill="#000000" fill-rule="nonzero" fill-opacity="1" /><path clip-path="url(#clip890)" d="M2284.6 1454.1 Q2280.98 1454.1 2279.16 1457.66 Q2277.35 1461.2 2277.35 1468.33 Q2277.35 1475.44 2279.16 1479.01 Q2280.98 1482.55 2284.6 1482.55 Q2288.23 1482.55 2290.04 1479.01 Q2291.86 1475.44 2291.86 1468.33 Q2291.86 1461.2 2290.04 1457.66 Q2288.23 1454.1 2284.6 1454.1 M2284.6 1450.39 Q2290.41 1450.39 2293.46 1455 Q2296.54 1459.58 2296.54 1468.33 Q2296.54 1477.06 2293.46 1481.67 Q2290.41 1486.25 2284.6 1486.25 Q2278.79 1486.25 2275.71 1481.67 Q2272.65 1477.06 2272.65 1468.33 Q2272.65 1459.58 2275.71 1455 Q2278.79 1450.39 2284.6 1450.39 Z" fill="#000000" fill-rule="nonzero" fill-opacity="1" /><path clip-path="url(#clip890)" d="M2304.76 1479.7 L2309.64 1479.7 L2309.64 1485.58 L2304.76 1485.58 L2304.76 1479.7 Z" fill="#000000" fill-rule="nonzero" fill-opacity="1" /><path clip-path="url(#clip890)" d="M2329.83 1454.1 Q2326.22 1454.1 2324.39 1457.66 Q2322.58 1461.2 2322.58 1468.33 Q2322.58 1475.44 2324.39 1479.01 Q2326.22 1482.55 2329.83 1482.55 Q2333.46 1482.55 2335.27 1479.01 Q2337.1 1475.44 2337.1 1468.33 Q2337.1 1461.2 2335.27 1457.66 Q2333.46 1454.1 2329.83 1454.1 M2329.83 1450.39 Q2335.64 1450.39 2338.69 1455 Q2341.77 1459.58 2341.77 1468.33 Q2341.77 1477.06 2338.69 1481.67 Q2335.64 1486.25 2329.83 1486.25 Q2324.02 1486.25 2320.94 1481.67 Q2317.88 1477.06 2317.88 1468.33 Q2317.88 1459.58 2320.94 1455 Q2324.02 1450.39 2329.83 1450.39 Z" fill="#000000" fill-rule="nonzero" fill-opacity="1" /><path clip-path="url(#clip890)" d="M790.055 1520.52 L830.255 1520.52 L830.255 1525.93 L813.385 1525.93 L813.385 1568.04 L806.924 1568.04 L806.924 1525.93 L790.055 1525.93 L790.055 1520.52 Z" fill="#000000" fill-rule="nonzero" fill-opacity="1" /><path clip-path="url(#clip890)" d="M847.283 1537.87 Q846.296 1537.3 845.118 1537.04 Q843.973 1536.76 842.572 1536.76 Q837.607 1536.76 834.933 1540 Q832.292 1543.22 832.292 1549.27 L832.292 1568.04 L826.403 1568.04 L826.403 1532.4 L832.292 1532.4 L832.292 1537.93 Q834.138 1534.69 837.098 1533.13 Q840.058 1531.54 844.291 1531.54 Q844.896 1531.54 845.628 1531.63 Q846.36 1531.7 847.251 1531.85 L847.283 1537.87 Z" fill="#000000" fill-rule="nonzero" fill-opacity="1" /><path clip-path="url(#clip890)" d="M869.626 1550.12 Q862.529 1550.12 859.791 1551.75 Q857.054 1553.37 857.054 1557.29 Q857.054 1560.4 859.091 1562.25 Q861.16 1564.07 864.693 1564.07 Q869.563 1564.07 872.491 1560.63 Q875.451 1557.16 875.451 1551.43 L875.451 1550.12 L869.626 1550.12 M881.307 1547.71 L881.307 1568.04 L875.451 1568.04 L875.451 1562.63 Q873.446 1565.88 870.454 1567.44 Q867.462 1568.97 863.133 1568.97 Q857.659 1568.97 854.412 1565.91 Q851.198 1562.82 851.198 1557.67 Q851.198 1551.65 855.208 1548.6 Q859.25 1545.54 867.239 1545.54 L875.451 1545.54 L875.451 1544.97 Q875.451 1540.93 872.777 1538.73 Q870.136 1536.5 865.33 1536.5 Q862.274 1536.5 859.378 1537.23 Q856.481 1537.97 853.808 1539.43 L853.808 1534.02 Q857.022 1532.78 860.046 1532.17 Q863.07 1531.54 865.934 1531.54 Q873.669 1531.54 877.488 1535.55 Q881.307 1539.56 881.307 1547.71 Z" fill="#000000" fill-rule="nonzero" fill-opacity="1" /><path clip-path="url(#clip890)" d="M893.37 1532.4 L899.227 1532.4 L899.227 1568.68 Q899.227 1575.49 896.617 1578.55 Q894.039 1581.6 888.278 1581.6 L886.05 1581.6 L886.05 1576.64 L887.61 1576.64 Q890.952 1576.64 892.161 1575.08 Q893.37 1573.55 893.37 1568.68 L893.37 1532.4 M893.37 1518.52 L899.227 1518.52 L899.227 1525.93 L893.37 1525.93 L893.37 1518.52 Z" fill="#000000" fill-rule="nonzero" fill-opacity="1" /><path clip-path="url(#clip890)" d="M941.973 1548.76 L941.973 1551.62 L915.046 1551.62 Q915.428 1557.67 918.674 1560.85 Q921.953 1564 927.777 1564 Q931.151 1564 934.302 1563.17 Q937.485 1562.35 940.604 1560.69 L940.604 1566.23 Q937.453 1567.57 934.143 1568.27 Q930.833 1568.97 927.427 1568.97 Q918.897 1568.97 913.9 1564 Q908.935 1559.04 908.935 1550.57 Q908.935 1541.82 913.645 1536.69 Q918.388 1531.54 926.409 1531.54 Q933.602 1531.54 937.771 1536.18 Q941.973 1540.8 941.973 1548.76 M936.116 1547.04 Q936.053 1542.23 933.411 1539.37 Q930.801 1536.5 926.472 1536.5 Q921.571 1536.5 918.611 1539.27 Q915.682 1542.04 915.237 1547.07 L936.116 1547.04 Z" fill="#000000" fill-rule="nonzero" fill-opacity="1" /><path clip-path="url(#clip890)" d="M977.239 1533.76 L977.239 1539.24 Q974.756 1537.87 972.242 1537.2 Q969.759 1536.5 967.213 1536.5 Q961.515 1536.5 958.364 1540.13 Q955.213 1543.73 955.213 1550.25 Q955.213 1556.78 958.364 1560.4 Q961.515 1564 967.213 1564 Q969.759 1564 972.242 1563.33 Q974.756 1562.63 977.239 1561.26 L977.239 1566.68 Q974.788 1567.82 972.146 1568.39 Q969.536 1568.97 966.576 1568.97 Q958.523 1568.97 953.781 1563.91 Q949.039 1558.85 949.039 1550.25 Q949.039 1541.53 953.813 1536.53 Q958.619 1531.54 966.958 1531.54 Q969.663 1531.54 972.242 1532.11 Q974.82 1532.65 977.239 1533.76 Z" fill="#000000" fill-rule="nonzero" fill-opacity="1" /><path clip-path="url(#clip890)" d="M993.217 1522.27 L993.217 1532.4 L1005.28 1532.4 L1005.28 1536.95 L993.217 1536.95 L993.217 1556.3 Q993.217 1560.66 994.394 1561.9 Q995.604 1563.14 999.264 1563.14 L1005.28 1563.14 L1005.28 1568.04 L999.264 1568.04 Q992.485 1568.04 989.906 1565.53 Q987.328 1562.98 987.328 1556.3 L987.328 1536.95 L983.031 1536.95 L983.031 1532.4 L987.328 1532.4 L987.328 1522.27 L993.217 1522.27 Z" fill="#000000" fill-rule="nonzero" fill-opacity="1" /><path clip-path="url(#clip890)" d="M1026.8 1536.5 Q1022.09 1536.5 1019.35 1540.19 Q1016.61 1543.85 1016.61 1550.25 Q1016.61 1556.65 1019.32 1560.34 Q1022.05 1564 1026.8 1564 Q1031.47 1564 1034.21 1560.31 Q1036.95 1556.62 1036.95 1550.25 Q1036.95 1543.92 1034.21 1540.23 Q1031.47 1536.5 1026.8 1536.5 M1026.8 1531.54 Q1034.43 1531.54 1038.8 1536.5 Q1043.16 1541.47 1043.16 1550.25 Q1043.16 1559 1038.8 1564 Q1034.43 1568.97 1026.8 1568.97 Q1019.13 1568.97 1014.76 1564 Q1010.44 1559 1010.44 1550.25 Q1010.44 1541.47 1014.76 1536.5 Q1019.13 1531.54 1026.8 1531.54 Z" fill="#000000" fill-rule="nonzero" fill-opacity="1" /><path clip-path="url(#clip890)" d="M1073.52 1537.87 Q1072.53 1537.3 1071.36 1537.04 Q1070.21 1536.76 1068.81 1536.76 Q1063.84 1536.76 1061.17 1540 Q1058.53 1543.22 1058.53 1549.27 L1058.53 1568.04 L1052.64 1568.04 L1052.64 1532.4 L1058.53 1532.4 L1058.53 1537.93 Q1060.37 1534.69 1063.33 1533.13 Q1066.29 1531.54 1070.53 1531.54 Q1071.13 1531.54 1071.86 1531.63 Q1072.6 1531.7 1073.49 1531.85 L1073.52 1537.87 Z" fill="#000000" fill-rule="nonzero" fill-opacity="1" /><path clip-path="url(#clip890)" d="M1094.49 1571.35 Q1092.01 1577.72 1089.66 1579.66 Q1087.3 1581.6 1083.35 1581.6 L1078.68 1581.6 L1078.68 1576.7 L1082.11 1576.7 Q1084.53 1576.7 1085.87 1575.56 Q1087.21 1574.41 1088.83 1570.14 L1089.88 1567.47 L1075.46 1532.4 L1081.67 1532.4 L1092.81 1560.28 L1103.95 1532.4 L1110.15 1532.4 L1094.49 1571.35 Z" fill="#000000" fill-rule="nonzero" fill-opacity="1" /><path clip-path="url(#clip890)" d="M1145.64 1525.81 L1145.64 1562.76 L1153.41 1562.76 Q1163.24 1562.76 1167.8 1558.3 Q1172.38 1553.85 1172.38 1544.24 Q1172.38 1534.69 1167.8 1530.26 Q1163.24 1525.81 1153.41 1525.81 L1145.64 1525.81 M1139.21 1520.52 L1152.42 1520.52 Q1166.24 1520.52 1172.7 1526.28 Q1179.16 1532.01 1179.16 1544.24 Q1179.16 1556.52 1172.67 1562.28 Q1166.17 1568.04 1152.42 1568.04 L1139.21 1568.04 L1139.21 1520.52 Z" fill="#000000" fill-rule="nonzero" fill-opacity="1" /><path clip-path="url(#clip890)" d="M1188.55 1553.98 L1188.55 1532.4 L1194.4 1532.4 L1194.4 1553.75 Q1194.4 1558.81 1196.38 1561.36 Q1198.35 1563.87 1202.3 1563.87 Q1207.04 1563.87 1209.78 1560.85 Q1212.55 1557.83 1212.55 1552.61 L1212.55 1532.4 L1218.4 1532.4 L1218.4 1568.04 L1212.55 1568.04 L1212.55 1562.57 Q1210.41 1565.82 1207.58 1567.41 Q1204.78 1568.97 1201.06 1568.97 Q1194.91 1568.97 1191.73 1565.15 Q1188.55 1561.33 1188.55 1553.98 M1203.28 1531.54 L1203.28 1531.54 Z" fill="#000000" fill-rule="nonzero" fill-opacity="1" /><path clip-path="url(#clip890)" d="M1251.12 1537.87 Q1250.14 1537.3 1248.96 1537.04 Q1247.81 1536.76 1246.41 1536.76 Q1241.45 1536.76 1238.77 1540 Q1236.13 1543.22 1236.13 1549.27 L1236.13 1568.04 L1230.24 1568.04 L1230.24 1532.4 L1236.13 1532.4 L1236.13 1537.93 Q1237.98 1534.69 1240.94 1533.13 Q1243.9 1531.54 1248.13 1531.54 Q1248.74 1531.54 1249.47 1531.63 Q1250.2 1531.7 1251.09 1531.85 L1251.12 1537.87 Z" fill="#000000" fill-rule="nonzero" fill-opacity="1" /><path clip-path="url(#clip890)" d="M1273.47 1550.12 Q1266.37 1550.12 1263.63 1551.75 Q1260.89 1553.37 1260.89 1557.29 Q1260.89 1560.4 1262.93 1562.25 Q1265 1564.07 1268.53 1564.07 Q1273.4 1564.07 1276.33 1560.63 Q1279.29 1557.16 1279.29 1551.43 L1279.29 1550.12 L1273.47 1550.12 M1285.15 1547.71 L1285.15 1568.04 L1279.29 1568.04 L1279.29 1562.63 Q1277.29 1565.88 1274.29 1567.44 Q1271.3 1568.97 1266.97 1568.97 Q1261.5 1568.97 1258.25 1565.91 Q1255.04 1562.82 1255.04 1557.67 Q1255.04 1551.65 1259.05 1548.6 Q1263.09 1545.54 1271.08 1545.54 L1279.29 1545.54 L1279.29 1544.97 Q1279.29 1540.93 1276.62 1538.73 Q1273.98 1536.5 1269.17 1536.5 Q1266.11 1536.5 1263.22 1537.23 Q1260.32 1537.97 1257.65 1539.43 L1257.65 1534.02 Q1260.86 1532.78 1263.89 1532.17 Q1266.91 1531.54 1269.77 1531.54 Q1277.51 1531.54 1281.33 1535.55 Q1285.15 1539.56 1285.15 1547.71 Z" fill="#000000" fill-rule="nonzero" fill-opacity="1" /><path clip-path="url(#clip890)" d="M1303 1522.27 L1303 1532.4 L1315.07 1532.4 L1315.07 1536.95 L1303 1536.95 L1303 1556.3 Q1303 1560.66 1304.18 1561.9 Q1305.39 1563.14 1309.05 1563.14 L1315.07 1563.14 L1315.07 1568.04 L1309.05 1568.04 Q1302.27 1568.04 1299.69 1565.53 Q1297.12 1562.98 1297.12 1556.3 L1297.12 1536.95 L1292.82 1536.95 L1292.82 1532.4 L1297.12 1532.4 L1297.12 1522.27 L1303 1522.27 Z" fill="#000000" fill-rule="nonzero" fill-opacity="1" /><path clip-path="url(#clip890)" d="M1322.77 1532.4 L1328.63 1532.4 L1328.63 1568.04 L1322.77 1568.04 L1322.77 1532.4 M1322.77 1518.52 L1328.63 1518.52 L1328.63 1525.93 L1322.77 1525.93 L1322.77 1518.52 Z" fill="#000000" fill-rule="nonzero" fill-opacity="1" /><path clip-path="url(#clip890)" d="M1354.69 1536.5 Q1349.98 1536.5 1347.25 1540.19 Q1344.51 1543.85 1344.51 1550.25 Q1344.51 1556.65 1347.21 1560.34 Q1349.95 1564 1354.69 1564 Q1359.37 1564 1362.11 1560.31 Q1364.85 1556.62 1364.85 1550.25 Q1364.85 1543.92 1362.11 1540.23 Q1359.37 1536.5 1354.69 1536.5 M1354.69 1531.54 Q1362.33 1531.54 1366.69 1536.5 Q1371.05 1541.47 1371.05 1550.25 Q1371.05 1559 1366.69 1564 Q1362.33 1568.97 1354.69 1568.97 Q1347.02 1568.97 1342.66 1564 Q1338.33 1559 1338.33 1550.25 Q1338.33 1541.47 1342.66 1536.5 Q1347.02 1531.54 1354.69 1531.54 Z" fill="#000000" fill-rule="nonzero" fill-opacity="1" /><path clip-path="url(#clip890)" d="M1410.39 1546.53 L1410.39 1568.04 L1404.54 1568.04 L1404.54 1546.72 Q1404.54 1541.66 1402.56 1539.14 Q1400.59 1536.63 1396.64 1536.63 Q1391.9 1536.63 1389.16 1539.65 Q1386.43 1542.68 1386.43 1547.9 L1386.43 1568.04 L1380.54 1568.04 L1380.54 1532.4 L1386.43 1532.4 L1386.43 1537.93 Q1388.53 1534.72 1391.36 1533.13 Q1394.22 1531.54 1397.95 1531.54 Q1404.09 1531.54 1407.24 1535.36 Q1410.39 1539.14 1410.39 1546.53 Z" fill="#000000" fill-rule="nonzero" fill-opacity="1" /><path clip-path="url(#clip890)" d="M1456.86 1518.58 Q1452.6 1525.9 1450.53 1533.06 Q1448.46 1540.23 1448.46 1547.58 Q1448.46 1554.93 1450.53 1562.16 Q1452.63 1569.35 1456.86 1576.64 L1451.77 1576.64 Q1447 1569.16 1444.61 1561.93 Q1442.25 1554.71 1442.25 1547.58 Q1442.25 1540.48 1444.61 1533.29 Q1446.96 1526.09 1451.77 1518.58 L1456.86 1518.58 Z" fill="#000000" fill-rule="nonzero" fill-opacity="1" /><path clip-path="url(#clip890)" d="M1474.02 1522.27 L1474.02 1532.4 L1486.08 1532.4 L1486.08 1536.95 L1474.02 1536.95 L1474.02 1556.3 Q1474.02 1560.66 1475.2 1561.9 Q1476.41 1563.14 1480.07 1563.14 L1486.08 1563.14 L1486.08 1568.04 L1480.07 1568.04 Q1473.29 1568.04 1470.71 1565.53 Q1468.13 1562.98 1468.13 1556.3 L1468.13 1536.95 L1463.83 1536.95 L1463.83 1532.4 L1468.13 1532.4 L1468.13 1522.27 L1474.02 1522.27 Z" fill="#000000" fill-rule="nonzero" fill-opacity="1" /><path clip-path="url(#clip890)" d="M1493.78 1532.4 L1499.64 1532.4 L1499.64 1568.04 L1493.78 1568.04 L1493.78 1532.4 M1493.78 1518.52 L1499.64 1518.52 L1499.64 1525.93 L1493.78 1525.93 L1493.78 1518.52 Z" fill="#000000" fill-rule="nonzero" fill-opacity="1" /><path clip-path="url(#clip890)" d="M1539.65 1539.24 Q1541.85 1535.29 1544.9 1533.41 Q1547.96 1531.54 1552.09 1531.54 Q1557.66 1531.54 1560.69 1535.45 Q1563.71 1539.33 1563.71 1546.53 L1563.71 1568.04 L1557.82 1568.04 L1557.82 1546.72 Q1557.82 1541.59 1556.01 1539.11 Q1554.19 1536.63 1550.47 1536.63 Q1545.92 1536.63 1543.28 1539.65 Q1540.64 1542.68 1540.64 1547.9 L1540.64 1568.04 L1534.75 1568.04 L1534.75 1546.72 Q1534.75 1541.56 1532.93 1539.11 Q1531.12 1536.63 1527.33 1536.63 Q1522.84 1536.63 1520.2 1539.68 Q1517.56 1542.71 1517.56 1547.9 L1517.56 1568.04 L1511.67 1568.04 L1511.67 1532.4 L1517.56 1532.4 L1517.56 1537.93 Q1519.57 1534.66 1522.37 1533.1 Q1525.17 1531.54 1529.02 1531.54 Q1532.9 1531.54 1535.61 1533.51 Q1538.34 1535.48 1539.65 1539.24 Z" fill="#000000" fill-rule="nonzero" fill-opacity="1" /><path clip-path="url(#clip890)" d="M1605.88 1548.76 L1605.88 1551.62 L1578.96 1551.62 Q1579.34 1557.67 1582.59 1560.85 Q1585.86 1564 1591.69 1564 Q1595.06 1564 1598.21 1563.17 Q1601.4 1562.35 1604.52 1560.69 L1604.52 1566.23 Q1601.36 1567.57 1598.05 1568.27 Q1594.74 1568.97 1591.34 1568.97 Q1582.81 1568.97 1577.81 1564 Q1572.85 1559.04 1572.85 1550.57 Q1572.85 1541.82 1577.56 1536.69 Q1582.3 1531.54 1590.32 1531.54 Q1597.51 1531.54 1601.68 1536.18 Q1605.88 1540.8 1605.88 1548.76 M1600.03 1547.04 Q1599.96 1542.23 1597.32 1539.37 Q1594.71 1536.5 1590.38 1536.5 Q1585.48 1536.5 1582.52 1539.27 Q1579.59 1542.04 1579.15 1547.07 L1600.03 1547.04 Z" fill="#000000" fill-rule="nonzero" fill-opacity="1" /><path clip-path="url(#clip890)" d="M1635.61 1553.98 L1635.61 1532.4 L1641.47 1532.4 L1641.47 1553.75 Q1641.47 1558.81 1643.44 1561.36 Q1645.42 1563.87 1649.36 1563.87 Q1654.1 1563.87 1656.84 1560.85 Q1659.61 1557.83 1659.61 1552.61 L1659.61 1532.4 L1665.47 1532.4 L1665.47 1568.04 L1659.61 1568.04 L1659.61 1562.57 Q1657.48 1565.82 1654.65 1567.41 Q1651.84 1568.97 1648.12 1568.97 Q1641.98 1568.97 1638.79 1565.15 Q1635.61 1561.33 1635.61 1553.98 M1650.35 1531.54 L1650.35 1531.54 Z" fill="#000000" fill-rule="nonzero" fill-opacity="1" /><path clip-path="url(#clip890)" d="M1707.16 1546.53 L1707.16 1568.04 L1701.31 1568.04 L1701.31 1546.72 Q1701.31 1541.66 1699.33 1539.14 Q1697.36 1536.63 1693.41 1536.63 Q1688.67 1536.63 1685.93 1539.65 Q1683.2 1542.68 1683.2 1547.9 L1683.2 1568.04 L1677.31 1568.04 L1677.31 1532.4 L1683.2 1532.4 L1683.2 1537.93 Q1685.3 1534.72 1688.13 1533.13 Q1690.99 1531.54 1694.72 1531.54 Q1700.86 1531.54 1704.01 1535.36 Q1707.16 1539.14 1707.16 1546.53 Z" fill="#000000" fill-rule="nonzero" fill-opacity="1" /><path clip-path="url(#clip890)" d="M1718.84 1532.4 L1724.7 1532.4 L1724.7 1568.04 L1718.84 1568.04 L1718.84 1532.4 M1718.84 1518.52 L1724.7 1518.52 L1724.7 1525.93 L1718.84 1525.93 L1718.84 1518.52 Z" fill="#000000" fill-rule="nonzero" fill-opacity="1" /><path clip-path="url(#clip890)" d="M1742.75 1522.27 L1742.75 1532.4 L1754.81 1532.4 L1754.81 1536.95 L1742.75 1536.95 L1742.75 1556.3 Q1742.75 1560.66 1743.92 1561.9 Q1745.13 1563.14 1748.79 1563.14 L1754.81 1563.14 L1754.81 1568.04 L1748.79 1568.04 Q1742.01 1568.04 1739.44 1565.53 Q1736.86 1562.98 1736.86 1556.3 L1736.86 1536.95 L1732.56 1536.95 L1732.56 1532.4 L1736.86 1532.4 L1736.86 1522.27 L1742.75 1522.27 Z" fill="#000000" fill-rule="nonzero" fill-opacity="1" /><path clip-path="url(#clip890)" d="M1785.24 1533.45 L1785.24 1538.98 Q1782.76 1537.71 1780.08 1537.07 Q1777.41 1536.44 1774.54 1536.44 Q1770.18 1536.44 1767.99 1537.77 Q1765.82 1539.11 1765.82 1541.79 Q1765.82 1543.82 1767.38 1545 Q1768.94 1546.15 1773.65 1547.2 L1775.66 1547.64 Q1781.9 1548.98 1784.51 1551.43 Q1787.15 1553.85 1787.15 1558.21 Q1787.15 1563.17 1783.2 1566.07 Q1779.29 1568.97 1772.41 1568.97 Q1769.55 1568.97 1766.43 1568.39 Q1763.34 1567.85 1759.9 1566.74 L1759.9 1560.69 Q1763.15 1562.38 1766.3 1563.24 Q1769.45 1564.07 1772.54 1564.07 Q1776.68 1564.07 1778.9 1562.66 Q1781.13 1561.23 1781.13 1558.65 Q1781.13 1556.27 1779.51 1554.99 Q1777.92 1553.72 1772.47 1552.54 L1770.44 1552.07 Q1764.99 1550.92 1762.58 1548.56 Q1760.16 1546.18 1760.16 1542.04 Q1760.16 1537.01 1763.72 1534.27 Q1767.29 1531.54 1773.84 1531.54 Q1777.09 1531.54 1779.95 1532.01 Q1782.82 1532.49 1785.24 1533.45 Z" fill="#000000" fill-rule="nonzero" fill-opacity="1" /><path clip-path="url(#clip890)" d="M1795.55 1518.58 L1800.64 1518.58 Q1805.42 1526.09 1807.77 1533.29 Q1810.16 1540.48 1810.16 1547.58 Q1810.16 1554.71 1807.77 1561.93 Q1805.42 1569.16 1800.64 1576.64 L1795.55 1576.64 Q1799.78 1569.35 1801.85 1562.16 Q1803.95 1554.93 1803.95 1547.58 Q1803.95 1540.23 1801.85 1533.06 Q1799.78 1525.9 1795.55 1518.58 Z" fill="#000000" fill-rule="nonzero" fill-opacity="1" /><polyline clip-path="url(#clip890)" style="stroke:#000000; stroke-linecap:round; stroke-linejoin:round; stroke-width:4; stroke-opacity:1; fill:none" points="247.459,1423.18 247.459,123.472 "/>
<polyline clip-path="url(#clip890)" style="stroke:#000000; stroke-linecap:round; stroke-linejoin:round; stroke-width:4; stroke-opacity:1; fill:none" points="247.459,1386.4 266.356,1386.4 "/>
<polyline clip-path="url(#clip890)" style="stroke:#000000; stroke-linecap:round; stroke-linejoin:round; stroke-width:4; stroke-opacity:1; fill:none" points="247.459,1113.13 266.356,1113.13 "/>
<polyline clip-path="url(#clip890)" style="stroke:#000000; stroke-linecap:round; stroke-linejoin:round; stroke-width:4; stroke-opacity:1; fill:none" points="247.459,839.866 266.356,839.866 "/>
<polyline clip-path="url(#clip890)" style="stroke:#000000; stroke-linecap:round; stroke-linejoin:round; stroke-width:4; stroke-opacity:1; fill:none" points="247.459,566.601 266.356,566.601 "/>
<polyline clip-path="url(#clip890)" style="stroke:#000000; stroke-linecap:round; stroke-linejoin:round; stroke-width:4; stroke-opacity:1; fill:none" points="247.459,293.336 266.356,293.336 "/>
<path clip-path="url(#clip890)" d="M154.283 1372.19 Q150.672 1372.19 148.843 1375.76 Q147.038 1379.3 147.038 1386.43 Q147.038 1393.54 148.843 1397.1 Q150.672 1400.64 154.283 1400.64 Q157.917 1400.64 159.723 1397.1 Q161.552 1393.54 161.552 1386.43 Q161.552 1379.3 159.723 1375.76 Q157.917 1372.19 154.283 1372.19 M154.283 1368.49 Q160.093 1368.49 163.149 1373.1 Q166.227 1377.68 166.227 1386.43 Q166.227 1395.16 163.149 1399.76 Q160.093 1404.35 154.283 1404.35 Q148.473 1404.35 145.394 1399.76 Q142.339 1395.16 142.339 1386.43 Q142.339 1377.68 145.394 1373.1 Q148.473 1368.49 154.283 1368.49 Z" fill="#000000" fill-rule="nonzero" fill-opacity="1" /><path clip-path="url(#clip890)" d="M174.445 1397.8 L179.329 1397.8 L179.329 1403.68 L174.445 1403.68 L174.445 1397.8 Z" fill="#000000" fill-rule="nonzero" fill-opacity="1" /><path clip-path="url(#clip890)" d="M199.514 1372.19 Q195.903 1372.19 194.075 1375.76 Q192.269 1379.3 192.269 1386.43 Q192.269 1393.54 194.075 1397.1 Q195.903 1400.64 199.514 1400.64 Q203.149 1400.64 204.954 1397.1 Q206.783 1393.54 206.783 1386.43 Q206.783 1379.3 204.954 1375.76 Q203.149 1372.19 199.514 1372.19 M199.514 1368.49 Q205.324 1368.49 208.38 1373.1 Q211.459 1377.68 211.459 1386.43 Q211.459 1395.16 208.38 1399.76 Q205.324 1404.35 199.514 1404.35 Q193.704 1404.35 190.625 1399.76 Q187.57 1395.16 187.57 1386.43 Q187.57 1377.68 190.625 1373.1 Q193.704 1368.49 199.514 1368.49 Z" fill="#000000" fill-rule="nonzero" fill-opacity="1" /><path clip-path="url(#clip890)" d="M149.306 1126.48 L165.626 1126.48 L165.626 1130.41 L143.681 1130.41 L143.681 1126.48 Q146.343 1123.72 150.927 1119.09 Q155.533 1114.44 156.714 1113.1 Q158.959 1110.57 159.839 1108.84 Q160.741 1107.08 160.741 1105.39 Q160.741 1102.63 158.797 1100.9 Q156.876 1099.16 153.774 1099.16 Q151.575 1099.16 149.121 1099.92 Q146.691 1100.69 143.913 1102.24 L143.913 1097.52 Q146.737 1096.38 149.191 1095.8 Q151.644 1095.23 153.681 1095.23 Q159.052 1095.23 162.246 1097.91 Q165.44 1100.6 165.44 1105.09 Q165.44 1107.22 164.63 1109.14 Q163.843 1111.04 161.737 1113.63 Q161.158 1114.3 158.056 1117.52 Q154.954 1120.71 149.306 1126.48 Z" fill="#000000" fill-rule="nonzero" fill-opacity="1" /><path clip-path="url(#clip890)" d="M175.44 1124.53 L180.325 1124.53 L180.325 1130.41 L175.44 1130.41 L175.44 1124.53 Z" fill="#000000" fill-rule="nonzero" fill-opacity="1" /><path clip-path="url(#clip890)" d="M190.556 1095.85 L208.912 1095.85 L208.912 1099.79 L194.838 1099.79 L194.838 1108.26 Q195.857 1107.91 196.875 1107.75 Q197.894 1107.56 198.912 1107.56 Q204.699 1107.56 208.079 1110.73 Q211.459 1113.91 211.459 1119.32 Q211.459 1124.9 207.987 1128 Q204.514 1131.08 198.195 1131.08 Q196.019 1131.08 193.75 1130.71 Q191.505 1130.34 189.098 1129.6 L189.098 1124.9 Q191.181 1126.04 193.403 1126.59 Q195.625 1127.15 198.102 1127.15 Q202.107 1127.15 204.445 1125.04 Q206.783 1122.93 206.783 1119.32 Q206.783 1115.71 204.445 1113.61 Q202.107 1111.5 198.102 1111.5 Q196.227 1111.5 194.352 1111.92 Q192.5 1112.33 190.556 1113.21 L190.556 1095.85 Z" fill="#000000" fill-rule="nonzero" fill-opacity="1" /><path clip-path="url(#clip890)" d="M144.329 822.586 L162.686 822.586 L162.686 826.521 L148.612 826.521 L148.612 834.993 Q149.63 834.646 150.649 834.484 Q151.667 834.299 152.686 834.299 Q158.473 834.299 161.852 837.47 Q165.232 840.641 165.232 846.058 Q165.232 851.637 161.76 854.739 Q158.288 857.817 151.968 857.817 Q149.792 857.817 147.524 857.447 Q145.279 857.076 142.871 856.336 L142.871 851.637 Q144.954 852.771 147.177 853.326 Q149.399 853.882 151.876 853.882 Q155.88 853.882 158.218 851.776 Q160.556 849.669 160.556 846.058 Q160.556 842.447 158.218 840.34 Q155.88 838.234 151.876 838.234 Q150.001 838.234 148.126 838.651 Q146.274 839.067 144.329 839.947 L144.329 822.586 Z" fill="#000000" fill-rule="nonzero" fill-opacity="1" /><path clip-path="url(#clip890)" d="M174.445 851.266 L179.329 851.266 L179.329 857.146 L174.445 857.146 L174.445 851.266 Z" fill="#000000" fill-rule="nonzero" fill-opacity="1" /><path clip-path="url(#clip890)" d="M199.514 825.665 Q195.903 825.665 194.075 829.229 Q192.269 832.771 192.269 839.901 Q192.269 847.007 194.075 850.572 Q195.903 854.114 199.514 854.114 Q203.149 854.114 204.954 850.572 Q206.783 847.007 206.783 839.901 Q206.783 832.771 204.954 829.229 Q203.149 825.665 199.514 825.665 M199.514 821.961 Q205.324 821.961 208.38 826.567 Q211.459 831.151 211.459 839.901 Q211.459 848.627 208.38 853.234 Q205.324 857.817 199.514 857.817 Q193.704 857.817 190.625 853.234 Q187.57 848.627 187.57 839.901 Q187.57 831.151 190.625 826.567 Q193.704 821.961 199.514 821.961 Z" fill="#000000" fill-rule="nonzero" fill-opacity="1" /><path clip-path="url(#clip890)" d="M144.098 549.321 L166.32 549.321 L166.32 551.312 L153.774 583.881 L148.89 583.881 L160.695 553.256 L144.098 553.256 L144.098 549.321 Z" fill="#000000" fill-rule="nonzero" fill-opacity="1" /><path clip-path="url(#clip890)" d="M175.44 578.001 L180.325 578.001 L180.325 583.881 L175.44 583.881 L175.44 578.001 Z" fill="#000000" fill-rule="nonzero" fill-opacity="1" /><path clip-path="url(#clip890)" d="M190.556 549.321 L208.912 549.321 L208.912 553.256 L194.838 553.256 L194.838 561.728 Q195.857 561.381 196.875 561.219 Q197.894 561.034 198.912 561.034 Q204.699 561.034 208.079 564.205 Q211.459 567.376 211.459 572.793 Q211.459 578.372 207.987 581.474 Q204.514 584.552 198.195 584.552 Q196.019 584.552 193.75 584.182 Q191.505 583.812 189.098 583.071 L189.098 578.372 Q191.181 579.506 193.403 580.062 Q195.625 580.617 198.102 580.617 Q202.107 580.617 204.445 578.511 Q206.783 576.404 206.783 572.793 Q206.783 569.182 204.445 567.076 Q202.107 564.969 198.102 564.969 Q196.227 564.969 194.352 565.386 Q192.5 565.802 190.556 566.682 L190.556 549.321 Z" fill="#000000" fill-rule="nonzero" fill-opacity="1" /><path clip-path="url(#clip890)" d="M114.931 306.681 L122.57 306.681 L122.57 280.315 L114.26 281.982 L114.26 277.723 L122.524 276.056 L127.2 276.056 L127.2 306.681 L134.839 306.681 L134.839 310.616 L114.931 310.616 L114.931 306.681 Z" fill="#000000" fill-rule="nonzero" fill-opacity="1" /><path clip-path="url(#clip890)" d="M154.283 279.135 Q150.672 279.135 148.843 282.7 Q147.038 286.241 147.038 293.371 Q147.038 300.477 148.843 304.042 Q150.672 307.584 154.283 307.584 Q157.917 307.584 159.723 304.042 Q161.552 300.477 161.552 293.371 Q161.552 286.241 159.723 282.7 Q157.917 279.135 154.283 279.135 M154.283 275.431 Q160.093 275.431 163.149 280.038 Q166.227 284.621 166.227 293.371 Q166.227 302.098 163.149 306.704 Q160.093 311.287 154.283 311.287 Q148.473 311.287 145.394 306.704 Q142.339 302.098 142.339 293.371 Q142.339 284.621 145.394 280.038 Q148.473 275.431 154.283 275.431 Z" fill="#000000" fill-rule="nonzero" fill-opacity="1" /><path clip-path="url(#clip890)" d="M174.445 304.737 L179.329 304.737 L179.329 310.616 L174.445 310.616 L174.445 304.737 Z" fill="#000000" fill-rule="nonzero" fill-opacity="1" /><path clip-path="url(#clip890)" d="M199.514 279.135 Q195.903 279.135 194.075 282.7 Q192.269 286.241 192.269 293.371 Q192.269 300.477 194.075 304.042 Q195.903 307.584 199.514 307.584 Q203.149 307.584 204.954 304.042 Q206.783 300.477 206.783 293.371 Q206.783 286.241 204.954 282.7 Q203.149 279.135 199.514 279.135 M199.514 275.431 Q205.324 275.431 208.38 280.038 Q211.459 284.621 211.459 293.371 Q211.459 302.098 208.38 306.704 Q205.324 311.287 199.514 311.287 Q193.704 311.287 190.625 306.704 Q187.57 302.098 187.57 293.371 Q187.57 284.621 190.625 280.038 Q193.704 275.431 199.514 275.431 Z" fill="#000000" fill-rule="nonzero" fill-opacity="1" /><path clip-path="url(#clip890)" d="M16.4842 1183.77 L16.4842 1174.19 L48.8219 1162.06 L16.4842 1149.87 L16.4842 1140.29 L64.0042 1140.29 L64.0042 1146.56 L22.277 1146.56 L54.8694 1158.82 L54.8694 1165.28 L22.277 1177.53 L64.0042 1177.53 L64.0042 1183.77 L16.4842 1183.77 Z" fill="#000000" fill-rule="nonzero" fill-opacity="1" /><path clip-path="url(#clip890)" d="M49.9359 1128.39 L28.3562 1128.39 L28.3562 1122.53 L49.7131 1122.53 Q54.7739 1122.53 57.3202 1120.56 Q59.8346 1118.59 59.8346 1114.64 Q59.8346 1109.9 56.8109 1107.16 Q53.7872 1104.39 48.5673 1104.39 L28.3562 1104.39 L28.3562 1098.53 L64.0042 1098.53 L64.0042 1104.39 L58.5296 1104.39 Q61.7762 1106.52 63.3676 1109.36 Q64.9272 1112.16 64.9272 1115.88 Q64.9272 1122.02 61.1078 1125.21 Q57.2883 1128.39 49.9359 1128.39 M27.4968 1113.65 L27.4968 1113.65 Z" fill="#000000" fill-rule="nonzero" fill-opacity="1" /><path clip-path="url(#clip890)" d="M18.2347 1080.68 L28.3562 1080.68 L28.3562 1068.62 L32.9077 1068.62 L32.9077 1080.68 L52.2594 1080.68 Q56.6199 1080.68 57.8613 1079.5 Q59.1026 1078.29 59.1026 1074.63 L59.1026 1068.62 L64.0042 1068.62 L64.0042 1074.63 Q64.0042 1081.41 61.4897 1083.99 Q58.9434 1086.57 52.2594 1086.57 L32.9077 1086.57 L32.9077 1090.86 L28.3562 1090.86 L28.3562 1086.57 L18.2347 1086.57 L18.2347 1080.68 Z" fill="#000000" fill-rule="nonzero" fill-opacity="1" /><path clip-path="url(#clip890)" d="M49.9359 1061.52 L28.3562 1061.52 L28.3562 1055.66 L49.7131 1055.66 Q54.7739 1055.66 57.3202 1053.69 Q59.8346 1051.71 59.8346 1047.77 Q59.8346 1043.03 56.8109 1040.29 Q53.7872 1037.52 48.5673 1037.52 L28.3562 1037.52 L28.3562 1031.66 L64.0042 1031.66 L64.0042 1037.52 L58.5296 1037.52 Q61.7762 1039.65 63.3676 1042.48 Q64.9272 1045.28 64.9272 1049.01 Q64.9272 1055.15 61.1078 1058.33 Q57.2883 1061.52 49.9359 1061.52 M27.4968 1046.78 L27.4968 1046.78 Z" fill="#000000" fill-rule="nonzero" fill-opacity="1" /><path clip-path="url(#clip890)" d="M46.0847 1003.4 Q46.0847 1010.5 47.7079 1013.23 Q49.3312 1015.97 53.2461 1015.97 Q56.3653 1015.97 58.2114 1013.93 Q60.0256 1011.86 60.0256 1008.33 Q60.0256 1003.46 56.5881 1000.53 Q53.1188 997.574 47.3897 997.574 L46.0847 997.574 L46.0847 1003.4 M43.6657 991.717 L64.0042 991.717 L64.0042 997.574 L58.5933 997.574 Q61.8398 999.579 63.3994 1002.57 Q64.9272 1005.56 64.9272 1009.89 Q64.9272 1015.37 61.8716 1018.61 Q58.7843 1021.83 53.6281 1021.83 Q47.6125 1021.83 44.5569 1017.82 Q41.5014 1013.77 41.5014 1005.79 L41.5014 997.574 L40.9285 997.574 Q36.8862 997.574 34.6901 1000.25 Q32.4621 1002.89 32.4621 1007.7 Q32.4621 1010.75 33.1941 1013.65 Q33.9262 1016.54 35.3903 1019.22 L29.9795 1019.22 Q28.7381 1016 28.1334 1012.98 Q27.4968 1009.96 27.4968 1007.09 Q27.4968 999.356 31.5072 995.537 Q35.5176 991.717 43.6657 991.717 Z" fill="#000000" fill-rule="nonzero" fill-opacity="1" /><path clip-path="url(#clip890)" d="M14.479 979.654 L14.479 973.798 L64.0042 973.798 L64.0042 979.654 L14.479 979.654 Z" fill="#000000" fill-rule="nonzero" fill-opacity="1" /><path clip-path="url(#clip890)" d="M16.4842 940.569 L16.4842 934.14 L64.0042 934.14 L64.0042 940.569 L16.4842 940.569 Z" fill="#000000" fill-rule="nonzero" fill-opacity="1" /><path clip-path="url(#clip890)" d="M42.4881 891.967 L64.0042 891.967 L64.0042 897.823 L42.679 897.823 Q37.6183 897.823 35.1038 899.797 Q32.5894 901.77 32.5894 905.717 Q32.5894 910.459 35.6131 913.196 Q38.6368 915.934 43.8567 915.934 L64.0042 915.934 L64.0042 921.822 L28.3562 921.822 L28.3562 915.934 L33.8944 915.934 Q30.6797 913.833 29.0883 911 Q27.4968 908.136 27.4968 904.412 Q27.4968 898.269 31.3163 895.118 Q35.1038 891.967 42.4881 891.967 Z" fill="#000000" fill-rule="nonzero" fill-opacity="1" /><path clip-path="url(#clip890)" d="M14.479 862.239 L19.3487 862.239 L19.3487 867.841 Q19.3487 870.992 20.6219 872.233 Q21.895 873.443 25.2052 873.443 L28.3562 873.443 L28.3562 863.799 L32.9077 863.799 L32.9077 873.443 L64.0042 873.443 L64.0042 879.331 L32.9077 879.331 L32.9077 884.933 L28.3562 884.933 L28.3562 879.331 L25.8736 879.331 Q19.9216 879.331 17.2162 876.562 Q14.479 873.793 14.479 867.777 L14.479 862.239 Z" fill="#000000" fill-rule="nonzero" fill-opacity="1" /><path clip-path="url(#clip890)" d="M32.4621 843.524 Q32.4621 848.234 36.1542 850.972 Q39.8145 853.709 46.212 853.709 Q52.6095 853.709 56.3017 851.004 Q59.9619 848.266 59.9619 843.524 Q59.9619 838.845 56.2698 836.108 Q52.5777 833.371 46.212 833.371 Q39.8781 833.371 36.186 836.108 Q32.4621 838.845 32.4621 843.524 M27.4968 843.524 Q27.4968 835.885 32.4621 831.524 Q37.4273 827.164 46.212 827.164 Q54.9649 827.164 59.9619 831.524 Q64.9272 835.885 64.9272 843.524 Q64.9272 851.194 59.9619 855.555 Q54.9649 859.884 46.212 859.884 Q37.4273 859.884 32.4621 855.555 Q27.4968 851.194 27.4968 843.524 Z" fill="#000000" fill-rule="nonzero" fill-opacity="1" /><path clip-path="url(#clip890)" d="M33.8307 796.8 Q33.2578 797.786 33.0032 798.964 Q32.7167 800.11 32.7167 801.51 Q32.7167 806.475 35.9632 809.149 Q39.1779 811.791 45.2253 811.791 L64.0042 811.791 L64.0042 817.679 L28.3562 817.679 L28.3562 811.791 L33.8944 811.791 Q30.6479 809.945 29.0883 806.985 Q27.4968 804.025 27.4968 799.791 Q27.4968 799.187 27.5923 798.455 Q27.656 797.723 27.8151 796.831 L33.8307 796.8 Z" fill="#000000" fill-rule="nonzero" fill-opacity="1" /><path clip-path="url(#clip890)" d="M35.1993 764.048 Q31.2526 761.852 29.3747 758.796 Q27.4968 755.741 27.4968 751.603 Q27.4968 746.033 31.4117 743.009 Q35.2948 739.986 42.4881 739.986 L64.0042 739.986 L64.0042 745.874 L42.679 745.874 Q37.5546 745.874 35.072 747.688 Q32.5894 749.502 32.5894 753.226 Q32.5894 757.778 35.6131 760.42 Q38.6368 763.061 43.8567 763.061 L64.0042 763.061 L64.0042 768.95 L42.679 768.95 Q37.5228 768.95 35.072 770.764 Q32.5894 772.578 32.5894 776.366 Q32.5894 780.853 35.6449 783.495 Q38.6686 786.137 43.8567 786.137 L64.0042 786.137 L64.0042 792.025 L28.3562 792.025 L28.3562 786.137 L33.8944 786.137 Q30.616 784.132 29.0564 781.331 Q27.4968 778.53 27.4968 774.679 Q27.4968 770.796 29.4702 768.09 Q31.4436 765.353 35.1993 764.048 Z" fill="#000000" fill-rule="nonzero" fill-opacity="1" /><path clip-path="url(#clip890)" d="M46.0847 712.104 Q46.0847 719.202 47.7079 721.939 Q49.3312 724.676 53.2461 724.676 Q56.3653 724.676 58.2114 722.639 Q60.0256 720.57 60.0256 717.037 Q60.0256 712.167 56.5881 709.239 Q53.1188 706.279 47.3897 706.279 L46.0847 706.279 L46.0847 712.104 M43.6657 700.423 L64.0042 700.423 L64.0042 706.279 L58.5933 706.279 Q61.8398 708.284 63.3994 711.276 Q64.9272 714.268 64.9272 718.597 Q64.9272 724.071 61.8716 727.318 Q58.7843 730.533 53.6281 730.533 Q47.6125 730.533 44.5569 726.522 Q41.5014 722.48 41.5014 714.491 L41.5014 706.279 L40.9285 706.279 Q36.8862 706.279 34.6901 708.953 Q32.4621 711.595 32.4621 716.401 Q32.4621 719.456 33.1941 722.353 Q33.9262 725.249 35.3903 727.923 L29.9795 727.923 Q28.7381 724.708 28.1334 721.684 Q27.4968 718.66 27.4968 715.796 Q27.4968 708.062 31.5072 704.242 Q35.5176 700.423 43.6657 700.423 Z" fill="#000000" fill-rule="nonzero" fill-opacity="1" /><path clip-path="url(#clip890)" d="M18.2347 682.567 L28.3562 682.567 L28.3562 670.504 L32.9077 670.504 L32.9077 682.567 L52.2594 682.567 Q56.6199 682.567 57.8613 681.389 Q59.1026 680.18 59.1026 676.52 L59.1026 670.504 L64.0042 670.504 L64.0042 676.52 Q64.0042 683.299 61.4897 685.877 Q58.9434 688.455 52.2594 688.455 L32.9077 688.455 L32.9077 692.752 L28.3562 692.752 L28.3562 688.455 L18.2347 688.455 L18.2347 682.567 Z" fill="#000000" fill-rule="nonzero" fill-opacity="1" /><path clip-path="url(#clip890)" d="M28.3562 662.801 L28.3562 656.945 L64.0042 656.945 L64.0042 662.801 L28.3562 662.801 M14.479 662.801 L14.479 656.945 L21.895 656.945 L21.895 662.801 L14.479 662.801 Z" fill="#000000" fill-rule="nonzero" fill-opacity="1" /><path clip-path="url(#clip890)" d="M32.4621 630.877 Q32.4621 635.588 36.1542 638.325 Q39.8145 641.063 46.212 641.063 Q52.6095 641.063 56.3017 638.357 Q59.9619 635.62 59.9619 630.877 Q59.9619 626.199 56.2698 623.461 Q52.5777 620.724 46.212 620.724 Q39.8781 620.724 36.186 623.461 Q32.4621 626.199 32.4621 630.877 M27.4968 630.877 Q27.4968 623.239 32.4621 618.878 Q37.4273 614.518 46.212 614.518 Q54.9649 614.518 59.9619 618.878 Q64.9272 623.239 64.9272 630.877 Q64.9272 638.548 59.9619 642.909 Q54.9649 647.237 46.212 647.237 Q37.4273 647.237 32.4621 642.909 Q27.4968 638.548 27.4968 630.877 Z" fill="#000000" fill-rule="nonzero" fill-opacity="1" /><path clip-path="url(#clip890)" d="M42.4881 575.177 L64.0042 575.177 L64.0042 581.034 L42.679 581.034 Q37.6183 581.034 35.1038 583.007 Q32.5894 584.981 32.5894 588.927 Q32.5894 593.67 35.6131 596.407 Q38.6368 599.144 43.8567 599.144 L64.0042 599.144 L64.0042 605.033 L28.3562 605.033 L28.3562 599.144 L33.8944 599.144 Q30.6797 597.044 29.0883 594.211 Q27.4968 591.346 27.4968 587.622 Q27.4968 581.48 31.3163 578.328 Q35.1038 575.177 42.4881 575.177 Z" fill="#000000" fill-rule="nonzero" fill-opacity="1" /><path clip-path="url(#clip890)" d="M14.5426 528.708 Q21.8632 532.973 29.0246 535.042 Q36.186 537.111 43.5384 537.111 Q50.8908 537.111 58.1159 535.042 Q65.3091 532.941 72.5979 528.708 L72.5979 533.8 Q65.1182 538.575 57.8931 540.962 Q50.668 543.317 43.5384 543.317 Q36.4406 543.317 29.2474 540.962 Q22.0542 538.606 14.5426 533.8 L14.5426 528.708 Z" fill="#000000" fill-rule="nonzero" fill-opacity="1" /><path clip-path="url(#clip890)" d="M42.4881 487.713 L64.0042 487.713 L64.0042 493.569 L42.679 493.569 Q37.6183 493.569 35.1038 495.542 Q32.5894 497.516 32.5894 501.463 Q32.5894 506.205 35.6131 508.942 Q38.6368 511.68 43.8567 511.68 L64.0042 511.68 L64.0042 517.568 L28.3562 517.568 L28.3562 511.68 L33.8944 511.68 Q30.6797 509.579 29.0883 506.746 Q27.4968 503.882 27.4968 500.158 Q27.4968 494.015 31.3163 490.864 Q35.1038 487.713 42.4881 487.713 Z" fill="#000000" fill-rule="nonzero" fill-opacity="1" /><path clip-path="url(#clip890)" d="M46.0847 459.831 Q46.0847 466.929 47.7079 469.666 Q49.3312 472.403 53.2461 472.403 Q56.3653 472.403 58.2114 470.366 Q60.0256 468.297 60.0256 464.764 Q60.0256 459.895 56.5881 456.966 Q53.1188 454.006 47.3897 454.006 L46.0847 454.006 L46.0847 459.831 M43.6657 448.15 L64.0042 448.15 L64.0042 454.006 L58.5933 454.006 Q61.8398 456.011 63.3994 459.003 Q64.9272 461.995 64.9272 466.324 Q64.9272 471.798 61.8716 475.045 Q58.7843 478.26 53.6281 478.26 Q47.6125 478.26 44.5569 474.249 Q41.5014 470.207 41.5014 462.218 L41.5014 454.006 L40.9285 454.006 Q36.8862 454.006 34.6901 456.68 Q32.4621 459.322 32.4621 464.128 Q32.4621 467.183 33.1941 470.08 Q33.9262 472.976 35.3903 475.65 L29.9795 475.65 Q28.7381 472.435 28.1334 469.411 Q27.4968 466.388 27.4968 463.523 Q27.4968 455.789 31.5072 451.969 Q35.5176 448.15 43.6657 448.15 Z" fill="#000000" fill-rule="nonzero" fill-opacity="1" /><path clip-path="url(#clip890)" d="M18.2347 430.294 L28.3562 430.294 L28.3562 418.231 L32.9077 418.231 L32.9077 430.294 L52.2594 430.294 Q56.6199 430.294 57.8613 429.116 Q59.1026 427.907 59.1026 424.247 L59.1026 418.231 L64.0042 418.231 L64.0042 424.247 Q64.0042 431.026 61.4897 433.604 Q58.9434 436.182 52.2594 436.182 L32.9077 436.182 L32.9077 440.479 L28.3562 440.479 L28.3562 436.182 L18.2347 436.182 L18.2347 430.294 Z" fill="#000000" fill-rule="nonzero" fill-opacity="1" /><path clip-path="url(#clip890)" d="M29.4065 387.803 L34.9447 387.803 Q33.6716 390.286 33.035 392.959 Q32.3984 395.633 32.3984 398.497 Q32.3984 402.858 33.7352 405.054 Q35.072 407.218 37.7456 407.218 Q39.7826 407.218 40.9603 405.659 Q42.1061 404.099 43.1565 399.388 L43.6021 397.383 Q44.9389 391.145 47.3897 388.535 Q49.8086 385.893 54.1691 385.893 Q59.1344 385.893 62.0308 389.84 Q64.9272 393.755 64.9272 400.63 Q64.9272 403.494 64.3543 406.614 Q63.8132 409.701 62.6992 413.138 L56.6518 413.138 Q58.3387 409.892 59.198 406.741 Q60.0256 403.59 60.0256 400.502 Q60.0256 396.365 58.6251 394.137 Q57.1929 391.909 54.6147 391.909 Q52.2276 391.909 50.9545 393.532 Q49.6813 395.123 48.5037 400.566 L48.0262 402.603 Q46.8804 408.046 44.5251 410.465 Q42.138 412.884 38.0002 412.884 Q32.9713 412.884 30.2341 409.319 Q27.4968 405.754 27.4968 399.197 Q27.4968 395.951 27.9743 393.086 Q28.4517 390.222 29.4065 387.803 Z" fill="#000000" fill-rule="nonzero" fill-opacity="1" /><path clip-path="url(#clip890)" d="M14.5426 377.49 L14.5426 372.398 Q22.0542 367.624 29.2474 365.268 Q36.4406 362.881 43.5384 362.881 Q50.668 362.881 57.8931 365.268 Q65.1182 367.624 72.5979 372.398 L72.5979 377.49 Q65.3091 373.257 58.1159 371.188 Q50.8908 369.088 43.5384 369.088 Q36.186 369.088 29.0246 371.188 Q21.8632 373.257 14.5426 377.49 Z" fill="#000000" fill-rule="nonzero" fill-opacity="1" /><path clip-path="url(#clip890)" d="M384.724 12.096 L392.907 12.096 L392.907 72.576 L384.724 72.576 L384.724 12.096 Z" fill="#000000" fill-rule="nonzero" fill-opacity="1" /><path clip-path="url(#clip890)" d="M446.582 45.1919 L446.582 72.576 L439.128 72.576 L439.128 45.4349 Q439.128 38.994 436.617 35.7938 Q434.105 32.5936 429.082 32.5936 Q423.046 32.5936 419.562 36.4419 Q416.078 40.2903 416.078 46.9338 L416.078 72.576 L408.584 72.576 L408.584 27.2059 L416.078 27.2059 L416.078 34.2544 Q418.752 30.163 422.357 28.1376 Q426.003 26.1121 430.743 26.1121 Q438.561 26.1121 442.571 30.9732 Q446.582 35.7938 446.582 45.1919 Z" fill="#000000" fill-rule="nonzero" fill-opacity="1" /><path clip-path="url(#clip890)" d="M484.417 9.54393 L484.417 15.7418 L477.288 15.7418 Q473.277 15.7418 471.697 17.3622 Q470.158 18.9825 470.158 23.1955 L470.158 27.2059 L482.432 27.2059 L482.432 32.9987 L470.158 32.9987 L470.158 72.576 L462.664 72.576 L462.664 32.9987 L455.534 32.9987 L455.534 27.2059 L462.664 27.2059 L462.664 24.0462 Q462.664 16.471 466.188 13.0277 Q469.712 9.54393 477.369 9.54393 L484.417 9.54393 Z" fill="#000000" fill-rule="nonzero" fill-opacity="1" /><path clip-path="url(#clip890)" d="M508.237 32.4315 Q502.241 32.4315 498.757 37.1306 Q495.274 41.7891 495.274 49.9314 Q495.274 58.0738 498.717 62.7728 Q502.201 67.4314 508.237 67.4314 Q514.191 67.4314 517.675 62.7323 Q521.159 58.0333 521.159 49.9314 Q521.159 41.8701 517.675 37.1711 Q514.191 32.4315 508.237 32.4315 M508.237 26.1121 Q517.959 26.1121 523.508 32.4315 Q529.058 38.7509 529.058 49.9314 Q529.058 61.0714 523.508 67.4314 Q517.959 73.7508 508.237 73.7508 Q498.474 73.7508 492.924 67.4314 Q487.415 61.0714 487.415 49.9314 Q487.415 38.7509 492.924 32.4315 Q498.474 26.1121 508.237 26.1121 Z" fill="#000000" fill-rule="nonzero" fill-opacity="1" /><path clip-path="url(#clip890)" d="M567.704 34.1734 Q566.448 33.4443 564.949 33.1202 Q563.491 32.7556 561.708 32.7556 Q555.389 32.7556 551.986 36.8875 Q548.624 40.9789 548.624 48.6757 L548.624 72.576 L541.13 72.576 L541.13 27.2059 L548.624 27.2059 L548.624 34.2544 Q550.974 30.1225 554.741 28.1376 Q558.508 26.1121 563.896 26.1121 Q564.666 26.1121 565.597 26.2337 Q566.529 26.3147 567.663 26.5172 L567.704 34.1734 Z" fill="#000000" fill-rule="nonzero" fill-opacity="1" /><path clip-path="url(#clip890)" d="M609.388 35.9153 Q612.183 30.8922 616.072 28.5022 Q619.96 26.1121 625.227 26.1121 Q632.316 26.1121 636.164 31.0947 Q640.012 36.0368 640.012 45.1919 L640.012 72.576 L632.518 72.576 L632.518 45.4349 Q632.518 38.913 630.209 35.7533 Q627.9 32.5936 623.161 32.5936 Q617.368 32.5936 614.006 36.4419 Q610.643 40.2903 610.643 46.9338 L610.643 72.576 L603.149 72.576 L603.149 45.4349 Q603.149 38.8725 600.84 35.7533 Q598.531 32.5936 593.711 32.5936 Q587.999 32.5936 584.637 36.4824 Q581.274 40.3308 581.274 46.9338 L581.274 72.576 L573.78 72.576 L573.78 27.2059 L581.274 27.2059 L581.274 34.2544 Q583.826 30.082 587.391 28.0971 Q590.956 26.1121 595.858 26.1121 Q600.8 26.1121 604.243 28.6237 Q607.727 31.1352 609.388 35.9153 Z" fill="#000000" fill-rule="nonzero" fill-opacity="1" /><path clip-path="url(#clip890)" d="M675.498 49.7694 Q666.465 49.7694 662.981 51.8354 Q659.497 53.9013 659.497 58.8839 Q659.497 62.8538 662.09 65.2034 Q664.723 67.5124 669.219 67.5124 Q675.417 67.5124 679.144 63.1374 Q682.912 58.7219 682.912 51.4303 L682.912 49.7694 L675.498 49.7694 M690.365 46.6907 L690.365 72.576 L682.912 72.576 L682.912 65.6895 Q680.359 69.8214 676.552 71.8063 Q672.744 73.7508 667.235 73.7508 Q660.267 73.7508 656.135 69.8619 Q652.044 65.9325 652.044 59.3701 Q652.044 51.7138 657.148 47.825 Q662.292 43.9361 672.46 43.9361 L682.912 43.9361 L682.912 43.2069 Q682.912 38.0623 679.509 35.2672 Q676.147 32.4315 670.03 32.4315 Q666.141 32.4315 662.454 33.3632 Q658.768 34.295 655.365 36.1584 L655.365 29.2718 Q659.457 27.692 663.305 26.9223 Q667.154 26.1121 670.799 26.1121 Q680.643 26.1121 685.504 31.2163 Q690.365 36.3204 690.365 46.6907 Z" fill="#000000" fill-rule="nonzero" fill-opacity="1" /><path clip-path="url(#clip890)" d="M713.091 14.324 L713.091 27.2059 L728.444 27.2059 L728.444 32.9987 L713.091 32.9987 L713.091 57.6282 Q713.091 63.1779 714.59 64.7578 Q716.129 66.3376 720.787 66.3376 L728.444 66.3376 L728.444 72.576 L720.787 72.576 Q712.159 72.576 708.878 69.3758 Q705.597 66.1351 705.597 57.6282 L705.597 32.9987 L700.128 32.9987 L700.128 27.2059 L705.597 27.2059 L705.597 14.324 L713.091 14.324 Z" fill="#000000" fill-rule="nonzero" fill-opacity="1" /><path clip-path="url(#clip890)" d="M738.247 27.2059 L745.701 27.2059 L745.701 72.576 L738.247 72.576 L738.247 27.2059 M738.247 9.54393 L745.701 9.54393 L745.701 18.9825 L738.247 18.9825 L738.247 9.54393 Z" fill="#000000" fill-rule="nonzero" fill-opacity="1" /><path clip-path="url(#clip890)" d="M778.877 32.4315 Q772.882 32.4315 769.398 37.1306 Q765.915 41.7891 765.915 49.9314 Q765.915 58.0738 769.358 62.7728 Q772.842 67.4314 778.877 67.4314 Q784.832 67.4314 788.316 62.7323 Q791.8 58.0333 791.8 49.9314 Q791.8 41.8701 788.316 37.1711 Q784.832 32.4315 778.877 32.4315 M778.877 26.1121 Q788.6 26.1121 794.149 32.4315 Q799.699 38.7509 799.699 49.9314 Q799.699 61.0714 794.149 67.4314 Q788.6 73.7508 778.877 73.7508 Q769.115 73.7508 763.565 67.4314 Q758.056 61.0714 758.056 49.9314 Q758.056 38.7509 763.565 32.4315 Q769.115 26.1121 778.877 26.1121 Z" fill="#000000" fill-rule="nonzero" fill-opacity="1" /><path clip-path="url(#clip890)" d="M849.768 45.1919 L849.768 72.576 L842.315 72.576 L842.315 45.4349 Q842.315 38.994 839.803 35.7938 Q837.292 32.5936 832.268 32.5936 Q826.233 32.5936 822.749 36.4419 Q819.265 40.2903 819.265 46.9338 L819.265 72.576 L811.771 72.576 L811.771 27.2059 L819.265 27.2059 L819.265 34.2544 Q821.939 30.163 825.544 28.1376 Q829.19 26.1121 833.929 26.1121 Q841.747 26.1121 845.758 30.9732 Q849.768 35.7938 849.768 45.1919 Z" fill="#000000" fill-rule="nonzero" fill-opacity="1" /><path clip-path="url(#clip890)" d="M891.331 12.096 L926.087 12.096 L926.087 18.9825 L899.513 18.9825 L899.513 36.8065 L923.495 36.8065 L923.495 43.6931 L899.513 43.6931 L899.513 72.576 L891.331 72.576 L891.331 12.096 Z" fill="#000000" fill-rule="nonzero" fill-opacity="1" /><path clip-path="url(#clip890)" d="M938.726 9.54393 L946.18 9.54393 L946.18 72.576 L938.726 72.576 L938.726 9.54393 Z" fill="#000000" fill-rule="nonzero" fill-opacity="1" /><path clip-path="url(#clip890)" d="M979.357 32.4315 Q973.361 32.4315 969.878 37.1306 Q966.394 41.7891 966.394 49.9314 Q966.394 58.0738 969.837 62.7728 Q973.321 67.4314 979.357 67.4314 Q985.312 67.4314 988.795 62.7323 Q992.279 58.0333 992.279 49.9314 Q992.279 41.8701 988.795 37.1711 Q985.312 32.4315 979.357 32.4315 M979.357 26.1121 Q989.079 26.1121 994.629 32.4315 Q1000.18 38.7509 1000.18 49.9314 Q1000.18 61.0714 994.629 67.4314 Q989.079 73.7508 979.357 73.7508 Q969.594 73.7508 964.044 67.4314 Q958.535 61.0714 958.535 49.9314 Q958.535 38.7509 964.044 32.4315 Q969.594 26.1121 979.357 26.1121 Z" fill="#000000" fill-rule="nonzero" fill-opacity="1" /><path clip-path="url(#clip890)" d="M1008.2 27.2059 L1015.65 27.2059 L1024.97 62.6108 L1034.25 27.2059 L1043.04 27.2059 L1052.35 62.6108 L1061.63 27.2059 L1069.08 27.2059 L1057.22 72.576 L1048.42 72.576 L1038.66 35.3887 L1028.86 72.576 L1020.07 72.576 L1008.2 27.2059 Z" fill="#000000" fill-rule="nonzero" fill-opacity="1" /><path clip-path="url(#clip890)" d="M1077.75 62.2867 L1086.3 62.2867 L1086.3 72.576 L1077.75 72.576 L1077.75 62.2867 M1077.75 29.6769 L1086.3 29.6769 L1086.3 39.9662 L1077.75 39.9662 L1077.75 29.6769 Z" fill="#000000" fill-rule="nonzero" fill-opacity="1" /><path clip-path="url(#clip890)" d="M1138.68 18.8205 L1138.68 65.8515 L1148.56 65.8515 Q1161.08 65.8515 1166.87 60.1802 Q1172.71 54.509 1172.71 42.2752 Q1172.71 30.1225 1166.87 24.4918 Q1161.08 18.8205 1148.56 18.8205 L1138.68 18.8205 M1130.5 12.096 L1147.31 12.096 Q1164.89 12.096 1173.11 19.4281 Q1181.33 26.7198 1181.33 42.2752 Q1181.33 57.9117 1173.07 65.2439 Q1164.81 72.576 1147.31 72.576 L1130.5 72.576 L1130.5 12.096 Z" fill="#000000" fill-rule="nonzero" fill-opacity="1" /><path clip-path="url(#clip890)" d="M1194.05 27.2059 L1201.51 27.2059 L1201.51 72.576 L1194.05 72.576 L1194.05 27.2059 M1194.05 9.54393 L1201.51 9.54393 L1201.51 18.9825 L1194.05 18.9825 L1194.05 9.54393 Z" fill="#000000" fill-rule="nonzero" fill-opacity="1" /><path clip-path="url(#clip890)" d="M1246.03 28.5427 L1246.03 35.5912 Q1242.87 33.9709 1239.47 33.1607 Q1236.06 32.3505 1232.42 32.3505 Q1226.87 32.3505 1224.07 34.0519 Q1221.32 35.7533 1221.32 39.156 Q1221.32 41.7486 1223.3 43.2475 Q1225.29 44.7058 1231.28 46.0426 L1233.83 46.6097 Q1241.77 48.3111 1245.1 51.4303 Q1248.46 54.509 1248.46 60.0587 Q1248.46 66.3781 1243.44 70.0644 Q1238.45 73.7508 1229.7 73.7508 Q1226.06 73.7508 1222.09 73.0216 Q1218.16 72.3329 1213.78 70.9151 L1213.78 63.2184 Q1217.91 65.3654 1221.92 66.4591 Q1225.94 67.5124 1229.86 67.5124 Q1235.13 67.5124 1237.97 65.73 Q1240.8 63.9071 1240.8 60.6258 Q1240.8 57.5877 1238.74 55.9673 Q1236.71 54.3469 1229.78 52.8481 L1227.19 52.2405 Q1220.26 50.7821 1217.19 47.7845 Q1214.11 44.7463 1214.11 39.4801 Q1214.11 33.0797 1218.64 29.5959 Q1223.18 26.1121 1231.53 26.1121 Q1235.66 26.1121 1239.3 26.7198 Q1242.95 27.3274 1246.03 28.5427 Z" fill="#000000" fill-rule="nonzero" fill-opacity="1" /><path clip-path="url(#clip890)" d="M1292.98 28.9478 L1292.98 35.9153 Q1289.82 34.1734 1286.62 33.3227 Q1283.46 32.4315 1280.22 32.4315 Q1272.97 32.4315 1268.96 37.0496 Q1264.95 41.6271 1264.95 49.9314 Q1264.95 58.2358 1268.96 62.8538 Q1272.97 67.4314 1280.22 67.4314 Q1283.46 67.4314 1286.62 66.5807 Q1289.82 65.6895 1292.98 63.9476 L1292.98 70.8341 Q1289.86 72.2924 1286.5 73.0216 Q1283.17 73.7508 1279.41 73.7508 Q1269.16 73.7508 1263.12 67.3098 Q1257.09 60.8689 1257.09 49.9314 Q1257.09 38.832 1263.16 32.472 Q1269.28 26.1121 1279.89 26.1121 Q1283.34 26.1121 1286.62 26.8413 Q1289.9 27.5299 1292.98 28.9478 Z" fill="#000000" fill-rule="nonzero" fill-opacity="1" /><path clip-path="url(#clip890)" d="M1332.23 34.1734 Q1330.98 33.4443 1329.48 33.1202 Q1328.02 32.7556 1326.24 32.7556 Q1319.92 32.7556 1316.51 36.8875 Q1313.15 40.9789 1313.15 48.6757 L1313.15 72.576 L1305.66 72.576 L1305.66 27.2059 L1313.15 27.2059 L1313.15 34.2544 Q1315.5 30.1225 1319.27 28.1376 Q1323.04 26.1121 1328.42 26.1121 Q1329.19 26.1121 1330.12 26.2337 Q1331.06 26.3147 1332.19 26.5172 L1332.23 34.1734 Z" fill="#000000" fill-rule="nonzero" fill-opacity="1" /><path clip-path="url(#clip890)" d="M1377.03 48.0275 L1377.03 51.6733 L1342.76 51.6733 Q1343.25 59.3701 1347.38 63.421 Q1351.55 67.4314 1358.97 67.4314 Q1363.26 67.4314 1367.27 66.3781 Q1371.32 65.3249 1375.29 63.2184 L1375.29 70.267 Q1371.28 71.9684 1367.07 72.8596 Q1362.86 73.7508 1358.52 73.7508 Q1347.66 73.7508 1341.31 67.4314 Q1334.99 61.1119 1334.99 50.3365 Q1334.99 39.1965 1340.98 32.6746 Q1347.02 26.1121 1357.23 26.1121 Q1366.38 26.1121 1371.69 32.0264 Q1377.03 37.9003 1377.03 48.0275 M1369.58 45.84 Q1369.5 39.7232 1366.14 36.0774 Q1362.82 32.4315 1357.31 32.4315 Q1351.07 32.4315 1347.3 35.9558 Q1343.57 39.4801 1343.01 45.8805 L1369.58 45.84 Z" fill="#000000" fill-rule="nonzero" fill-opacity="1" /><path clip-path="url(#clip890)" d="M1396.64 14.324 L1396.64 27.2059 L1411.99 27.2059 L1411.99 32.9987 L1396.64 32.9987 L1396.64 57.6282 Q1396.64 63.1779 1398.14 64.7578 Q1399.68 66.3376 1404.34 66.3376 L1411.99 66.3376 L1411.99 72.576 L1404.34 72.576 Q1395.71 72.576 1392.43 69.3758 Q1389.15 66.1351 1389.15 57.6282 L1389.15 32.9987 L1383.68 32.9987 L1383.68 27.2059 L1389.15 27.2059 L1389.15 14.324 L1396.64 14.324 Z" fill="#000000" fill-rule="nonzero" fill-opacity="1" /><path clip-path="url(#clip890)" d="M1460.6 48.0275 L1460.6 51.6733 L1426.33 51.6733 Q1426.82 59.3701 1430.95 63.421 Q1435.12 67.4314 1442.54 67.4314 Q1446.83 67.4314 1450.84 66.3781 Q1454.89 65.3249 1458.86 63.2184 L1458.86 70.267 Q1454.85 71.9684 1450.64 72.8596 Q1446.43 73.7508 1442.09 73.7508 Q1431.24 73.7508 1424.88 67.4314 Q1418.56 61.1119 1418.56 50.3365 Q1418.56 39.1965 1424.55 32.6746 Q1430.59 26.1121 1440.8 26.1121 Q1449.95 26.1121 1455.26 32.0264 Q1460.6 37.9003 1460.6 48.0275 M1453.15 45.84 Q1453.07 39.7232 1449.71 36.0774 Q1446.39 32.4315 1440.88 32.4315 Q1434.64 32.4315 1430.87 35.9558 Q1427.14 39.4801 1426.58 45.8805 L1453.15 45.84 Z" fill="#000000" fill-rule="nonzero" fill-opacity="1" /><path clip-path="url(#clip890)" d="M1535.79 14.0809 L1535.79 22.0612 Q1531.13 19.8332 1527 18.7395 Q1522.87 17.6457 1519.02 17.6457 Q1512.33 17.6457 1508.69 20.2383 Q1505.08 22.8309 1505.08 27.611 Q1505.08 31.6214 1507.47 33.6873 Q1509.9 35.7128 1516.63 36.9686 L1521.57 37.9813 Q1530.73 39.7232 1535.06 44.1387 Q1539.43 48.5136 1539.43 55.8863 Q1539.43 64.6767 1533.52 69.2137 Q1527.65 73.7508 1516.26 73.7508 Q1511.97 73.7508 1507.11 72.7785 Q1502.29 71.8063 1497.1 69.9024 L1497.1 61.4765 Q1502.09 64.2716 1506.87 65.6895 Q1511.65 67.1073 1516.26 67.1073 Q1523.27 67.1073 1527.08 64.3527 Q1530.89 61.598 1530.89 56.4939 Q1530.89 52.0379 1528.13 49.5264 Q1525.42 47.0148 1519.18 45.759 L1514.2 44.7868 Q1505.04 42.9639 1500.95 39.075 Q1496.86 35.1862 1496.86 28.2591 Q1496.86 20.2383 1502.49 15.6203 Q1508.16 11.0023 1518.09 11.0023 Q1522.34 11.0023 1526.76 11.7719 Q1531.17 12.5416 1535.79 14.0809 Z" fill="#000000" fill-rule="nonzero" fill-opacity="1" /><path clip-path="url(#clip890)" d="M1635.89 44.7463 L1635.89 48.3921 L1619.97 64.3122 L1615.11 59.4511 L1624.54 50.0125 L1575.16 50.0125 L1575.16 43.1259 L1624.54 43.1259 L1615.11 33.6873 L1619.97 28.8262 L1635.89 44.7463 Z" fill="#000000" fill-rule="nonzero" fill-opacity="1" /><path clip-path="url(#clip890)" d="M1719.74 16.7545 L1719.74 25.383 Q1715.61 21.5346 1710.91 19.6307 Q1706.25 17.7268 1700.98 17.7268 Q1690.61 17.7268 1685.11 24.0867 Q1679.6 30.4061 1679.6 42.3968 Q1679.6 54.3469 1685.11 60.7069 Q1690.61 67.0263 1700.98 67.0263 Q1706.25 67.0263 1710.91 65.1223 Q1715.61 63.2184 1719.74 59.3701 L1719.74 67.9175 Q1715.45 70.8341 1710.63 72.2924 Q1705.85 73.7508 1700.5 73.7508 Q1686.77 73.7508 1678.87 65.3654 Q1670.97 56.9395 1670.97 42.3968 Q1670.97 27.8135 1678.87 19.4281 Q1686.77 11.0023 1700.5 11.0023 Q1705.93 11.0023 1710.71 12.4606 Q1715.53 13.8784 1719.74 16.7545 Z" fill="#000000" fill-rule="nonzero" fill-opacity="1" /><path clip-path="url(#clip890)" d="M1749.64 32.4315 Q1743.64 32.4315 1740.16 37.1306 Q1736.67 41.7891 1736.67 49.9314 Q1736.67 58.0738 1740.12 62.7728 Q1743.6 67.4314 1749.64 67.4314 Q1755.59 67.4314 1759.07 62.7323 Q1762.56 58.0333 1762.56 49.9314 Q1762.56 41.8701 1759.07 37.1711 Q1755.59 32.4315 1749.64 32.4315 M1749.64 26.1121 Q1759.36 26.1121 1764.91 32.4315 Q1770.46 38.7509 1770.46 49.9314 Q1770.46 61.0714 1764.91 67.4314 Q1759.36 73.7508 1749.64 73.7508 Q1739.87 73.7508 1734.32 67.4314 Q1728.81 61.0714 1728.81 49.9314 Q1728.81 38.7509 1734.32 32.4315 Q1739.87 26.1121 1749.64 26.1121 Z" fill="#000000" fill-rule="nonzero" fill-opacity="1" /><path clip-path="url(#clip890)" d="M1820.53 45.1919 L1820.53 72.576 L1813.07 72.576 L1813.07 45.4349 Q1813.07 38.994 1810.56 35.7938 Q1808.05 32.5936 1803.03 32.5936 Q1796.99 32.5936 1793.51 36.4419 Q1790.02 40.2903 1790.02 46.9338 L1790.02 72.576 L1782.53 72.576 L1782.53 27.2059 L1790.02 27.2059 L1790.02 34.2544 Q1792.7 30.163 1796.3 28.1376 Q1799.95 26.1121 1804.69 26.1121 Q1812.51 26.1121 1816.52 30.9732 Q1820.53 35.7938 1820.53 45.1919 Z" fill="#000000" fill-rule="nonzero" fill-opacity="1" /><path clip-path="url(#clip890)" d="M1842.77 14.324 L1842.77 27.2059 L1858.12 27.2059 L1858.12 32.9987 L1842.77 32.9987 L1842.77 57.6282 Q1842.77 63.1779 1844.27 64.7578 Q1845.8 66.3376 1850.46 66.3376 L1858.12 66.3376 L1858.12 72.576 L1850.46 72.576 Q1841.83 72.576 1838.55 69.3758 Q1835.27 66.1351 1835.27 57.6282 L1835.27 32.9987 L1829.8 32.9987 L1829.8 27.2059 L1835.27 27.2059 L1835.27 14.324 L1842.77 14.324 Z" fill="#000000" fill-rule="nonzero" fill-opacity="1" /><path clip-path="url(#clip890)" d="M1867.92 27.2059 L1875.38 27.2059 L1875.38 72.576 L1867.92 72.576 L1867.92 27.2059 M1867.92 9.54393 L1875.38 9.54393 L1875.38 18.9825 L1867.92 18.9825 L1867.92 9.54393 Z" fill="#000000" fill-rule="nonzero" fill-opacity="1" /><path clip-path="url(#clip890)" d="M1928.69 45.1919 L1928.69 72.576 L1921.23 72.576 L1921.23 45.4349 Q1921.23 38.994 1918.72 35.7938 Q1916.21 32.5936 1911.19 32.5936 Q1905.15 32.5936 1901.67 36.4419 Q1898.18 40.2903 1898.18 46.9338 L1898.18 72.576 L1890.69 72.576 L1890.69 27.2059 L1898.18 27.2059 L1898.18 34.2544 Q1900.86 30.163 1904.46 28.1376 Q1908.11 26.1121 1912.85 26.1121 Q1920.67 26.1121 1924.68 30.9732 Q1928.69 35.7938 1928.69 45.1919 Z" fill="#000000" fill-rule="nonzero" fill-opacity="1" /><path clip-path="url(#clip890)" d="M1942.78 54.671 L1942.78 27.2059 L1950.24 27.2059 L1950.24 54.3874 Q1950.24 60.8284 1952.75 64.0691 Q1955.26 67.2693 1960.28 67.2693 Q1966.32 67.2693 1969.8 63.421 Q1973.33 59.5726 1973.33 52.9291 L1973.33 27.2059 L1980.78 27.2059 L1980.78 72.576 L1973.33 72.576 L1973.33 65.6084 Q1970.61 69.7404 1967.01 71.7658 Q1963.44 73.7508 1958.7 73.7508 Q1950.89 73.7508 1946.83 68.8897 Q1942.78 64.0286 1942.78 54.671 M1961.54 26.1121 L1961.54 26.1121 Z" fill="#000000" fill-rule="nonzero" fill-opacity="1" /><path clip-path="url(#clip890)" d="M2013.71 32.4315 Q2007.72 32.4315 2004.24 37.1306 Q2000.75 41.7891 2000.75 49.9314 Q2000.75 58.0738 2004.19 62.7728 Q2007.68 67.4314 2013.71 67.4314 Q2019.67 67.4314 2023.15 62.7323 Q2026.64 58.0333 2026.64 49.9314 Q2026.64 41.8701 2023.15 37.1711 Q2019.67 32.4315 2013.71 32.4315 M2013.71 26.1121 Q2023.44 26.1121 2028.99 32.4315 Q2034.54 38.7509 2034.54 49.9314 Q2034.54 61.0714 2028.99 67.4314 Q2023.44 73.7508 2013.71 73.7508 Q2003.95 73.7508 1998.4 67.4314 Q1992.89 61.0714 1992.89 49.9314 Q1992.89 38.7509 1998.4 32.4315 Q2003.95 26.1121 2013.71 26.1121 Z" fill="#000000" fill-rule="nonzero" fill-opacity="1" /><path clip-path="url(#clip890)" d="M2046.12 54.671 L2046.12 27.2059 L2053.58 27.2059 L2053.58 54.3874 Q2053.58 60.8284 2056.09 64.0691 Q2058.6 67.2693 2063.62 67.2693 Q2069.66 67.2693 2073.14 63.421 Q2076.67 59.5726 2076.67 52.9291 L2076.67 27.2059 L2084.12 27.2059 L2084.12 72.576 L2076.67 72.576 L2076.67 65.6084 Q2073.95 69.7404 2070.35 71.7658 Q2066.78 73.7508 2062.04 73.7508 Q2054.22 73.7508 2050.17 68.8897 Q2046.12 64.0286 2046.12 54.671 M2064.88 26.1121 L2064.88 26.1121 Z" fill="#000000" fill-rule="nonzero" fill-opacity="1" /><path clip-path="url(#clip890)" d="M2128.4 28.5427 L2128.4 35.5912 Q2125.24 33.9709 2121.83 33.1607 Q2118.43 32.3505 2114.78 32.3505 Q2109.23 32.3505 2106.44 34.0519 Q2103.69 35.7533 2103.69 39.156 Q2103.69 41.7486 2105.67 43.2475 Q2107.66 44.7058 2113.65 46.0426 L2116.2 46.6097 Q2124.14 48.3111 2127.46 51.4303 Q2130.83 54.509 2130.83 60.0587 Q2130.83 66.3781 2125.8 70.0644 Q2120.82 73.7508 2112.07 73.7508 Q2108.42 73.7508 2104.45 73.0216 Q2100.53 72.3329 2096.15 70.9151 L2096.15 63.2184 Q2100.28 65.3654 2104.29 66.4591 Q2108.3 67.5124 2112.23 67.5124 Q2117.5 67.5124 2120.33 65.73 Q2123.17 63.9071 2123.17 60.6258 Q2123.17 57.5877 2121.1 55.9673 Q2119.08 54.3469 2112.15 52.8481 L2109.56 52.2405 Q2102.63 50.7821 2099.55 47.7845 Q2096.47 44.7463 2096.47 39.4801 Q2096.47 33.0797 2101.01 29.5959 Q2105.55 26.1121 2113.89 26.1121 Q2118.03 26.1121 2121.67 26.7198 Q2125.32 27.3274 2128.4 28.5427 Z" fill="#000000" fill-rule="nonzero" fill-opacity="1" /><path clip-path="url(#clip890)" d="M2166.47 12.096 L2175.26 12.096 L2190.29 34.5785 L2205.4 12.096 L2214.19 12.096 L2194.75 41.141 L2215.49 72.576 L2206.7 72.576 L2189.69 46.8528 L2172.55 72.576 L2163.72 72.576 L2185.31 40.2903 L2166.47 12.096 Z" fill="#000000" fill-rule="nonzero" fill-opacity="1" /><path clip-path="url(#clip892)" d="M307.043 1386.4 L311.015 1386.4 L314.987 1386.18 L318.959 1385.41 L322.932 1384.85 L326.904 1383.91 L330.876 1382.72 L334.848 1382.39 L338.821 1381.44 L342.793 1379.73 L346.765 1378.37 L350.737 1376.62 L354.71 1375.2 L358.682 1372.97 L362.654 1371.36 L366.626 1369.07 L370.599 1366.51 L374.571 1364.38 L378.543 1362.37 L382.516 1359.71 L386.488 1358.13 L390.46 1355.44 L394.432 1352.81 L398.405 1350.85 L402.377 1348.94 L406.349 1347.56 L410.321 1346.04 L414.294 1343.38 L418.266 1340.14 L422.238 1338.15 L426.21 1334.5 L430.183 1332.17 L434.155 1329.7 L438.127 1327.73 L442.099 1325.27 L446.072 1322.84 L450.044 1321.05 L454.016 1317.21 L457.988 1314.96 L461.961 1312.55 L465.933 1309.48 L469.905 1307.16 L473.877 1305.65 L477.85 1303.21 L481.822 1301.28 L485.794 1298.97 L489.767 1297.29 L493.739 1294.28 L497.711 1291.87 L501.683 1290.64 L505.656 1289.65 L509.628 1287.22 L513.6 1284.55 L517.572 1281.91 L521.545 1279.97 L525.517 1277.38 L529.489 1274.24 L533.461 1270.41 L537.434 1269.15 L541.406 1266.98 L545.378 1265.15 L549.35 1263.08 L553.323 1260.41 L557.295 1257.69 L561.267 1255.64 L565.239 1253.66 L569.212 1250.83 L573.184 1248.43 L577.156 1246.79 L581.128 1244.26 L585.101 1242.82 L589.073 1241.05 L593.045 1238.15 L597.017 1236.28 L600.99 1232.43 L604.962 1229.33 L608.934 1226.94 L612.907 1224.05 L616.879 1221.66 L620.851 1218.95 L624.823 1216.2 L628.796 1214.04 L632.768 1211.48 L636.74 1207.72 L640.712 1205.5 L644.685 1204.27 L648.657 1200.4 L652.629 1197.44 L656.601 1195.22 L660.574 1193.06 L664.546 1189.85 L668.518 1187.06 L672.49 1185.16 L676.463 1182.87 L680.435 1179.48 L684.407 1176.19 L688.379 1173.66 L692.352 1172.44 L696.324 1169.84 L700.296 1167.67 L704.268 1165.06 L708.241 1162.21 L712.213 1159.88 L716.185 1158.13 L720.158 1157.01 L724.13 1155.05 L728.102 1152.29 L732.074 1150.03 L736.047 1147.39 L740.019 1144.15 L743.991 1141.41 L747.963 1139.22 L751.936 1136.95 L755.908 1134.16 L759.88 1132.19 L763.852 1130.76 L767.825 1128.8 L771.797 1125.71 L775.769 1123.93 L779.741 1120.42 L783.714 1117.86 L787.686 1115.44 L791.658 1112.61 L795.63 1111.02 L799.603 1107.82 L803.575 1104.84 L807.547 1101.18 L811.519 1098.26 L815.492 1095.64 L819.464 1092.57 L823.436 1089.35 L827.409 1086.6 L831.381 1084.14 L835.353 1081.62 L839.325 1078.82 L843.298 1076.74 L847.27 1073.16 L851.242 1071.1 L855.214 1069.09 L859.187 1066.62 L863.159 1065.75 L867.131 1062.72 L871.103 1059.9 L875.076 1057.33 L879.048 1054.42 L883.02 1052.77 L886.992 1051.28 L890.965 1048.81 L894.937 1044.99 L898.909 1043.16 L902.881 1041.29 L906.854 1039.68 L910.826 1036.65 L914.798 1033.79 L918.77 1030.31 L922.743 1028.12 L926.715 1026.09 L930.687 1024.45 L934.659 1021.71 L938.632 1019.26 L942.604 1016.3 L946.576 1015.49 L950.549 1012.58 L954.521 1009.51 L958.493 1007.44 L962.465 1005.29 L966.438 1004.61 L970.41 1001.46 L974.382 998.101 L978.354 995.089 L982.327 992.523 L986.299 990.469 L990.271 987.003 L994.243 984.692 L998.216 981.88 L1002.19 978.412 L1006.16 975.194 L1010.13 971.557 L1014.1 969.163 L1018.08 967.234 L1022.05 965.276 L1026.02 963.49 L1029.99 961.168 L1033.97 959.008 L1037.94 955.887 L1041.91 952.94 L1045.88 950.208 L1049.86 947.67 L1053.83 944.403 L1057.8 941.914 L1061.77 939.101 L1065.74 936.755 L1069.72 933.714 L1073.69 930.517 L1077.66 927.443 L1081.63 923.637 L1085.61 920.292 L1089.58 918.234 L1093.55 914.694 L1097.52 911.669 L1101.49 908.012 L1105.47 905.501 L1109.44 904.309 L1113.41 901.868 L1117.38 899.245 L1121.36 897.154 L1125.33 895.852 L1129.3 894.136 L1133.27 891.804 L1137.24 890.545 L1141.22 888.057 L1145.19 884.793 L1149.16 882.721 L1153.13 880.732 L1157.11 877.58 L1161.08 875.079 L1165.05 872.5 L1169.02 870.39 L1173 868.334 L1176.97 865.72 L1180.94 862.507 L1184.91 859.881 L1188.88 858.824 L1192.86 856.501 L1196.83 853.919 L1200.8 851.427 L1204.77 849.731 L1208.75 847.12 L1212.72 844.88 L1216.69 842.932 L1220.66 840.445 L1224.63 837.586 L1228.61 835.173 L1232.58 832.817 L1236.55 830.017 L1240.52 827.538 L1244.5 825.173 L1248.47 822.563 L1252.44 819.724 L1256.41 816.844 L1260.38 814.001 L1264.36 811.579 L1268.33 809.82 L1272.3 806.769 L1276.27 803.794 L1280.25 801.405 L1284.22 798.071 L1288.19 794.797 L1292.16 791.887 L1296.14 790.904 L1300.11 788.238 L1304.08 786.158 L1308.05 784.56 L1312.02 783.251 L1316 781.611 L1319.97 778.622 L1323.94 776.08 L1327.91 773.34 L1331.89 772.128 L1335.86 769.919 L1339.83 767.886 L1343.8 766.226 L1347.77 763.265 L1351.75 761.211 L1355.72 758.37 L1359.69 754.415 L1363.66 751.522 L1367.64 749.886 L1371.61 747.498 L1375.58 744.985 L1379.55 742.582 L1383.52 740.15 L1387.5 738.204 L1391.47 735.097 L1395.44 732.473 L1399.41 730.554 L1403.39 729.365 L1407.36 726.969 L1411.33 724.319 L1415.3 722.302 L1419.28 719.851 L1423.25 717.51 L1427.22 714.636 L1431.19 710.996 L1435.16 708.835 L1439.14 706.873 L1443.11 703.154 L1447.08 701.023 L1451.05 698.603 L1455.03 695.725 L1459 693.338 L1462.97 690.549 L1466.94 688.196 L1470.91 686.473 L1474.89 683.606 L1478.86 680.141 L1482.83 676.538 L1486.8 673.586 L1490.78 671.217 L1494.75 668.66 L1498.72 666.623 L1502.69 663.825 L1506.66 661.133 L1510.64 658.576 L1514.61 655.586 L1518.58 653.231 L1522.55 650.896 L1526.53 648.627 L1530.5 647.262 L1534.47 645.473 L1538.44 642.669 L1542.42 640.279 L1546.39 637.724 L1550.36 634.314 L1554.33 631.719 L1558.3 630.234 L1562.28 628.386 L1566.25 626.312 L1570.22 623.698 L1574.19 622.168 L1578.17 620.336 L1582.14 619.021 L1586.11 616.617 L1590.08 614.412 L1594.05 611.705 L1598.03 609.585 L1602 605.825 L1605.97 603.375 L1609.94 602.321 L1613.92 600.006 L1617.89 597.54 L1621.86 594.892 L1625.83 592.642 L1629.8 589.526 L1633.78 587.119 L1637.75 585.363 L1641.72 582.68 L1645.69 580.326 L1649.67 577.929 L1653.64 575.591 L1657.61 573.327 L1661.58 570.358 L1665.56 567.844 L1669.53 564.35 L1673.5 561.178 L1677.47 558.456 L1681.44 555.608 L1685.42 553.715 L1689.39 551.077 L1693.36 548.675 L1697.33 545.307 L1701.31 542.937 L1705.28 540.32 L1709.25 539.476 L1713.22 537.374 L1717.19 534.596 L1721.17 531.508 L1725.14 527.844 L1729.11 524.457 L1733.08 522.494 L1737.06 520.662 L1741.03 518.413 L1745 515.598 L1748.97 513.543 L1752.94 511.086 L1756.92 508.084 L1760.89 505.533 L1764.86 503.295 L1768.83 501.42 L1772.81 500.014 L1776.78 497.68 L1780.75 495.158 L1784.72 491.818 L1788.7 488.949 L1792.67 486.903 L1796.64 485.24 L1800.61 482.972 L1804.58 480.078 L1808.56 477.685 L1812.53 475.161 L1816.5 472.926 L1820.47 471.064 L1824.45 468.181 L1828.42 466.263 L1832.39 462.912 L1836.36 460.78 L1840.33 458.192 L1844.31 455.905 L1848.28 454.072 L1852.25 450.153 L1856.22 448.407 L1860.2 446.198 L1864.17 443.692 L1868.14 441.706 L1872.11 439.712 L1876.08 435.933 L1880.06 433.626 L1884.03 431.573 L1888 429.557 L1891.97 427.119 L1895.95 424.918 L1899.92 422.082 L1903.89 419.942 L1907.86 419.236 L1911.84 416.724 L1915.81 415.033 L1919.78 412.132 L1923.75 408.969 L1927.72 406.989 L1931.7 404.124 L1935.67 400.908 L1939.64 398.382 L1943.61 395.832 L1947.59 393.775 L1951.56 390.86 L1955.53 388.563 L1959.5 385.829 L1963.47 383.731 L1967.45 381.769 L1971.42 380.191 L1975.39 377.629 L1979.36 373.917 L1983.34 370.835 L1987.31 368.304 L1991.28 366.757 L1995.25 364.492 L1999.22 361.062 L2003.2 358.988 L2007.17 356.719 L2011.14 354.393 L2015.11 350.776 L2019.09 348.385 L2023.06 346.173 L2027.03 343.379 L2031 341.958 L2034.98 338.653 L2038.95 336.994 L2042.92 335.084 L2046.89 332.917 L2050.86 329.885 L2054.84 327.79 L2058.81 325.518 L2062.78 323.164 L2066.75 321.373 L2070.73 318.819 L2074.7 316.631 L2078.67 313.755 L2082.64 309.964 L2086.61 308.029 L2090.59 305.109 L2094.56 302.65 L2098.53 300.643 L2102.5 298.807 L2106.48 296.537 L2110.45 294.717 L2114.42 292.527 L2118.39 290.321 L2122.36 286.854 L2126.34 284.275 L2130.31 282.179 L2134.28 279.226 L2138.25 277.03 L2142.23 276.744 L2146.2 275.9 L2150.17 272.497 L2154.14 270.015 L2158.12 267.458 L2162.09 264.575 L2166.06 261.348 L2170.03 259.598 L2174 257.987 L2177.98 254.757 L2181.95 252.39 L2185.92 249.915 L2189.89 247.578 L2193.87 245.867 L2197.84 242.813 L2201.81 240.337 L2205.78 236.85 L2209.75 235.224 L2213.73 232.77 L2217.7 229.891 L2221.67 228.279 L2225.64 226.557 L2229.62 224.505 L2233.59 223.125 L2237.56 221.006 L2241.53 219.16 L2245.5 217.073 L2249.48 214.164 L2253.45 212.262 L2257.42 210.012 L2261.39 207.724 L2265.37 204.656 L2269.34 202.391 L2273.31 200.157 L2277.28 196.356 L2281.26 194.476 L2285.23 192.767 L2289.2 189.221 L2293.17 187.513 L2293.17 160.256 L2289.2 161.967 L2285.23 165.58 L2281.26 167.335 L2277.28 169.267 L2273.31 173.118 L2269.34 175.421 L2265.37 177.685 L2261.39 180.804 L2257.42 183.071 L2253.45 185.274 L2249.48 187.203 L2245.5 190.09 L2241.53 192.151 L2237.56 193.971 L2233.59 196.228 L2229.62 197.646 L2225.64 199.72 L2221.67 201.436 L2217.7 203.049 L2213.73 205.965 L2209.75 208.396 L2205.78 210.061 L2201.81 213.569 L2197.84 216.067 L2193.87 219.19 L2189.89 220.967 L2185.92 223.247 L2181.95 225.715 L2177.98 228.158 L2174 231.455 L2170.03 233.075 L2166.06 234.902 L2162.09 238.201 L2158.12 241.058 L2154.14 243.652 L2150.17 246.156 L2146.2 249.549 L2142.23 250.441 L2138.25 250.741 L2134.28 252.917 L2130.31 255.873 L2126.34 257.988 L2122.36 260.505 L2118.39 264.037 L2114.42 266.296 L2110.45 268.554 L2106.48 270.417 L2102.5 272.666 L2098.53 274.58 L2094.56 276.649 L2090.59 279.099 L2086.61 282.058 L2082.64 284.059 L2078.67 287.858 L2074.7 290.752 L2070.73 292.967 L2066.75 295.529 L2062.78 297.347 L2058.81 299.79 L2054.84 302.063 L2050.86 304.162 L2046.89 307.193 L2042.92 309.419 L2038.95 311.374 L2034.98 313.047 L2031 316.404 L2027.03 317.903 L2023.06 320.827 L2019.09 323.073 L2015.11 325.54 L2011.14 329.2 L2007.17 331.485 L2003.2 333.783 L1999.22 335.795 L1995.25 339.264 L1991.28 341.51 L1987.31 343.037 L1983.34 345.582 L1979.36 348.721 L1975.39 352.512 L1971.42 355.052 L1967.45 356.701 L1963.47 358.694 L1959.5 360.76 L1955.53 363.495 L1951.56 365.79 L1947.59 368.721 L1943.61 370.76 L1939.64 373.34 L1935.67 375.889 L1931.7 379.09 L1927.72 381.995 L1923.75 383.999 L1919.78 387.161 L1915.81 390.173 L1911.84 391.85 L1907.86 394.28 L1903.89 394.955 L1899.92 397.167 L1895.95 399.958 L1891.97 402.269 L1888 404.796 L1884.03 406.788 L1880.06 408.873 L1876.08 411.204 L1872.11 415.005 L1868.14 417.026 L1864.17 419.01 L1860.2 421.513 L1856.22 423.728 L1852.25 425.524 L1848.28 429.471 L1844.31 431.331 L1840.33 433.655 L1836.36 436.208 L1832.39 438.35 L1828.42 441.744 L1824.45 443.65 L1820.47 446.519 L1816.5 448.445 L1812.53 450.7 L1808.56 453.311 L1804.58 455.793 L1800.61 458.797 L1796.64 461.087 L1792.67 462.749 L1788.7 464.892 L1784.72 467.785 L1780.75 471.11 L1776.78 473.671 L1772.81 476.049 L1768.83 477.491 L1764.86 479.335 L1760.89 481.672 L1756.92 484.236 L1752.94 487.208 L1748.97 489.773 L1745 491.862 L1741.03 494.732 L1737.06 497.007 L1733.08 498.867 L1729.11 500.902 L1725.14 504.286 L1721.17 507.932 L1717.19 511.071 L1713.22 513.894 L1709.25 516.065 L1705.28 516.919 L1701.31 519.606 L1697.33 522.078 L1693.36 525.535 L1689.39 527.98 L1685.42 530.656 L1681.44 532.646 L1677.47 535.554 L1673.5 538.404 L1669.53 541.487 L1665.56 544.95 L1661.58 547.447 L1657.61 550.411 L1653.64 552.732 L1649.67 555.139 L1645.69 557.601 L1641.72 560.011 L1637.75 562.719 L1633.78 564.58 L1629.8 567.107 L1625.83 570.201 L1621.86 572.579 L1617.89 575.32 L1613.92 577.923 L1609.94 580.312 L1605.97 581.413 L1602 583.804 L1598.03 587.57 L1594.05 589.646 L1590.08 592.313 L1586.11 594.487 L1582.14 596.95 L1578.17 598.345 L1574.19 600.237 L1570.22 601.751 L1566.25 604.368 L1562.28 606.555 L1558.3 608.468 L1554.33 609.944 L1550.36 612.595 L1546.39 616.033 L1542.42 618.565 L1538.44 620.931 L1534.47 623.677 L1530.5 625.565 L1526.53 627.035 L1522.55 629.269 L1518.58 631.691 L1514.61 634.172 L1510.64 637.195 L1506.66 639.785 L1502.69 642.562 L1498.72 645.404 L1494.75 647.501 L1490.78 650.121 L1486.8 652.564 L1482.83 655.561 L1478.86 659.174 L1474.89 662.687 L1470.91 665.633 L1466.94 667.385 L1462.97 669.806 L1459 672.581 L1455.03 675.018 L1451.05 677.947 L1447.08 680.414 L1443.11 682.606 L1439.14 686.291 L1435.16 688.298 L1431.19 690.483 L1427.22 694.096 L1423.25 697.004 L1419.28 699.394 L1415.3 701.972 L1411.33 704.002 L1407.36 706.717 L1403.39 709.082 L1399.41 710.174 L1395.44 712.166 L1391.47 714.897 L1387.5 718.056 L1383.52 720.059 L1379.55 722.534 L1375.58 724.922 L1371.61 727.436 L1367.64 729.944 L1363.66 731.627 L1359.69 734.487 L1355.72 738.504 L1351.75 741.331 L1347.77 743.423 L1343.8 746.373 L1339.83 748.064 L1335.86 750.154 L1331.89 752.417 L1327.91 753.71 L1323.94 756.567 L1319.97 759.18 L1316 762.197 L1312.02 763.851 L1308.05 765.201 L1304.08 766.844 L1300.11 768.919 L1296.14 771.629 L1292.16 772.715 L1288.19 775.648 L1284.22 778.951 L1280.25 782.283 L1276.27 784.711 L1272.3 787.645 L1268.33 790.737 L1264.36 792.552 L1260.38 795.066 L1256.41 797.884 L1252.44 800.679 L1248.47 803.593 L1244.5 806.235 L1240.52 808.592 L1236.55 811.108 L1232.58 813.917 L1228.61 816.327 L1224.63 818.785 L1220.66 821.636 L1216.69 824.191 L1212.72 826.266 L1208.75 828.543 L1204.77 831.193 L1200.8 832.952 L1196.83 835.477 L1192.86 838.052 L1188.88 840.368 L1184.91 841.48 L1180.94 844.123 L1176.97 847.395 L1173 850.039 L1169.02 852.094 L1165.05 854.194 L1161.08 856.827 L1157.11 859.356 L1153.13 862.547 L1149.16 864.61 L1145.19 866.682 L1141.22 870.035 L1137.24 872.594 L1133.27 873.849 L1129.3 876.345 L1125.33 878.172 L1121.36 879.497 L1117.38 881.585 L1113.41 884.233 L1109.44 886.714 L1105.47 887.9 L1101.49 890.44 L1097.52 894.126 L1093.55 897.182 L1089.58 900.734 L1085.61 902.817 L1081.63 906.181 L1077.66 909.978 L1073.69 913.173 L1069.72 916.366 L1065.74 919.475 L1061.77 921.9 L1057.8 924.785 L1053.83 927.362 L1049.86 930.729 L1045.88 933.324 L1041.91 936.047 L1037.94 939.019 L1033.97 942.259 L1029.99 944.473 L1026.02 946.814 L1022.05 948.698 L1018.08 950.741 L1014.1 952.718 L1010.13 955.145 L1006.16 958.843 L1002.19 962.152 L998.216 965.682 L994.243 968.519 L990.271 970.91 L986.299 974.382 L982.327 976.495 L978.354 979.143 L974.382 982.093 L970.41 985.536 L966.438 988.725 L962.465 989.39 L958.493 991.598 L954.521 993.721 L950.549 996.838 L946.576 999.716 L942.604 1000.66 L938.632 1003.65 L934.659 1006.13 L930.687 1008.92 L926.715 1010.62 L922.743 1012.71 L918.77 1014.9 L914.798 1018.41 L910.826 1021.22 L906.854 1024.32 L902.881 1026.01 L898.909 1027.9 L894.937 1029.72 L890.965 1033.62 L886.992 1036.09 L883.02 1037.63 L879.048 1039.35 L875.076 1042.27 L871.103 1044.92 L867.131 1047.77 L863.159 1050.78 L859.187 1051.72 L855.214 1054.27 L851.242 1056.35 L847.27 1058.42 L843.298 1062.04 L839.325 1064.17 L835.353 1066.97 L831.381 1069.6 L827.409 1072.19 L823.436 1074.93 L819.464 1078.16 L815.492 1081.29 L811.519 1083.97 L807.547 1086.91 L803.575 1090.64 L799.603 1093.62 L795.63 1096.96 L791.658 1098.73 L787.686 1101.66 L783.714 1104.09 L779.741 1106.68 L775.769 1110.29 L771.797 1112.08 L767.825 1115.18 L763.852 1117.25 L759.88 1118.77 L755.908 1120.82 L751.936 1123.73 L747.963 1126.04 L743.991 1128.28 L740.019 1131.09 L736.047 1134.41 L732.074 1137.09 L728.102 1139.51 L724.13 1142.34 L720.158 1144.43 L716.185 1145.58 L712.213 1147.35 L708.241 1149.75 L704.268 1152.72 L700.296 1155.45 L696.324 1157.64 L692.352 1160.21 L688.379 1161.54 L684.407 1164.11 L680.435 1167.48 L676.463 1170.98 L672.49 1173.39 L668.518 1175.4 L664.546 1178.31 L660.574 1181.53 L656.601 1183.87 L652.629 1186.16 L648.657 1189.07 L644.685 1193.04 L640.712 1194.39 L636.74 1196.74 L632.768 1200.47 L628.796 1203.18 L624.823 1205.43 L620.851 1208.23 L616.879 1211.05 L612.907 1213.45 L608.934 1216.43 L604.962 1218.92 L600.99 1222.13 L597.017 1226.02 L593.045 1227.95 L589.073 1231.01 L585.101 1232.83 L581.128 1234.38 L577.156 1237.01 L573.184 1238.72 L569.212 1241.23 L565.239 1244.13 L561.267 1246.17 L557.295 1248.33 L553.323 1251.13 L549.35 1253.87 L545.378 1255.92 L541.406 1257.84 L537.434 1260.05 L533.461 1261.39 L529.489 1265.19 L525.517 1268.43 L521.545 1271.08 L517.572 1273.1 L513.6 1275.82 L509.628 1278.68 L505.656 1281.27 L501.683 1282.34 L497.711 1283.63 L493.739 1286.19 L489.767 1289.29 L485.794 1291.16 L481.822 1293.57 L477.85 1295.54 L473.877 1298.06 L469.905 1299.68 L465.933 1302.09 L461.961 1305.23 L457.988 1307.77 L454.016 1310.11 L450.044 1314.05 L446.072 1315.91 L442.099 1318.61 L438.127 1321.24 L434.155 1323.4 L430.183 1326 L426.21 1328.5 L422.238 1332.33 L418.266 1334.51 L414.294 1337.91 L410.321 1340.68 L406.349 1342.36 L402.377 1343.92 L398.405 1346.01 L394.432 1348.15 L390.46 1350.94 L386.488 1353.76 L382.516 1355.62 L378.543 1358.49 L374.571 1360.67 L370.599 1362.87 L366.626 1365.52 L362.654 1368.05 L358.682 1369.8 L354.71 1372.24 L350.737 1373.91 L346.765 1375.9 L342.793 1377.52 L338.821 1379.39 L334.848 1380.59 L330.876 1381.26 L326.904 1382.67 L322.932 1383.8 L318.959 1384.69 L314.987 1385.79 L311.015 1386.4 L307.043 1386.4  Z" fill="#009af9" fill-rule="evenodd" fill-opacity="0.5"/>
<polyline clip-path="url(#clip892)" style="stroke:#009af9; stroke-linecap:round; stroke-linejoin:round; stroke-width:8; stroke-opacity:1; fill:none" points="307.043,1386.4 311.015,1386.4 314.987,1385.98 318.959,1385.05 322.932,1384.33 326.904,1383.29 330.876,1381.99 334.848,1381.49 338.821,1380.42 342.793,1378.62 346.765,1377.13 350.737,1375.27 354.71,1373.72 358.682,1371.39 362.654,1369.71 366.626,1367.3 370.599,1364.69 374.571,1362.52 378.543,1360.43 382.516,1357.66 386.488,1355.94 390.46,1353.19 394.432,1350.48 398.405,1348.43 402.377,1346.43 406.349,1344.96 410.321,1343.36 414.294,1340.65 418.266,1337.33 422.238,1335.24 426.21,1331.5 430.183,1329.09 434.155,1326.55 438.127,1324.49 442.099,1321.94 446.072,1319.37 450.044,1317.55 454.016,1313.66 457.988,1311.37 461.961,1308.89 465.933,1305.78 469.905,1303.42 473.877,1301.86 477.85,1299.37 481.822,1297.42 485.794,1295.07 489.767,1293.29 493.739,1290.23 497.711,1287.75 501.683,1286.49 505.656,1285.46 509.628,1282.95 513.6,1280.18 517.572,1277.51 521.545,1275.53 525.517,1272.9 529.489,1269.72 533.461,1265.9 537.434,1264.6 541.406,1262.41 545.378,1260.54 549.35,1258.48 553.323,1255.77 557.295,1253.01 561.267,1250.91 565.239,1248.89 569.212,1246.03 573.184,1243.57 577.156,1241.9 581.128,1239.32 585.101,1237.83 589.073,1236.03 593.045,1233.05 597.017,1231.15 600.99,1227.28 604.962,1224.12 608.934,1221.69 612.907,1218.75 616.879,1216.35 620.851,1213.59 624.823,1210.81 628.796,1208.61 632.768,1205.98 636.74,1202.23 640.712,1199.95 644.685,1198.65 648.657,1194.74 652.629,1191.8 656.601,1189.55 660.574,1187.29 664.546,1184.08 668.518,1181.23 672.49,1179.28 676.463,1176.93 680.435,1173.48 684.407,1170.15 688.379,1167.6 692.352,1166.32 696.324,1163.74 700.296,1161.56 704.268,1158.89 708.241,1155.98 712.213,1153.62 716.185,1151.86 720.158,1150.72 724.13,1148.69 728.102,1145.9 732.074,1143.56 736.047,1140.9 740.019,1137.62 743.991,1134.84 747.963,1132.63 751.936,1130.34 755.908,1127.49 759.88,1125.48 763.852,1124 767.825,1121.99 771.797,1118.9 775.769,1117.11 779.741,1113.55 783.714,1110.97 787.686,1108.55 791.658,1105.67 795.63,1103.99 799.603,1100.72 803.575,1097.74 807.547,1094.04 811.519,1091.11 815.492,1088.46 819.464,1085.37 823.436,1082.14 827.409,1079.4 831.381,1076.87 835.353,1074.29 839.325,1071.5 843.298,1069.39 847.27,1065.79 851.242,1063.72 855.214,1061.68 859.187,1059.17 863.159,1058.27 867.131,1055.25 871.103,1052.41 875.076,1049.8 879.048,1046.88 883.02,1045.2 886.992,1043.68 890.965,1041.22 894.937,1037.36 898.909,1035.53 902.881,1033.65 906.854,1032 910.826,1028.94 914.798,1026.1 918.77,1022.61 922.743,1020.41 926.715,1018.35 930.687,1016.68 934.659,1013.92 938.632,1011.45 942.604,1008.48 946.576,1007.6 950.549,1004.71 954.521,1001.62 958.493,999.518 962.465,997.342 966.438,996.665 970.41,993.498 974.382,990.097 978.354,987.116 982.327,984.509 986.299,982.425 990.271,978.957 994.243,976.606 998.216,973.781 1002.19,970.282 1006.16,967.018 1010.13,963.351 1014.1,960.941 1018.08,958.988 1022.05,956.987 1026.02,955.152 1029.99,952.82 1033.97,950.634 1037.94,947.453 1041.91,944.493 1045.88,941.766 1049.86,939.2 1053.83,935.882 1057.8,933.35 1061.77,930.5 1065.74,928.115 1069.72,925.04 1073.69,921.845 1077.66,918.71 1081.63,914.909 1085.61,911.554 1089.58,909.484 1093.55,905.938 1097.52,902.897 1101.49,899.226 1105.47,896.701 1109.44,895.511 1113.41,893.05 1117.38,890.415 1121.36,888.325 1125.33,887.012 1129.3,885.241 1133.27,882.826 1137.24,881.57 1141.22,879.046 1145.19,875.737 1149.16,873.666 1153.13,871.639 1157.11,868.468 1161.08,865.953 1165.05,863.347 1169.02,861.242 1173,859.186 1176.97,856.558 1180.94,853.315 1184.91,850.681 1188.88,849.596 1192.86,847.277 1196.83,844.698 1200.8,842.189 1204.77,840.462 1208.75,837.831 1212.72,835.573 1216.69,833.561 1220.66,831.041 1224.63,828.186 1228.61,825.75 1232.58,823.367 1236.55,820.562 1240.52,818.065 1244.5,815.704 1248.47,813.078 1252.44,810.201 1256.41,807.364 1260.38,804.533 1264.36,802.066 1268.33,800.278 1272.3,797.207 1276.27,794.252 1280.25,791.844 1284.22,788.511 1288.19,785.223 1292.16,782.301 1296.14,781.267 1300.11,778.578 1304.08,776.501 1308.05,774.88 1312.02,773.551 1316,771.904 1319.97,768.901 1323.94,766.323 1327.91,763.525 1331.89,762.272 1335.86,760.037 1339.83,757.975 1343.8,756.299 1347.77,753.344 1351.75,751.271 1355.72,748.437 1359.69,744.451 1363.66,741.575 1367.64,739.915 1371.61,737.467 1375.58,734.954 1379.55,732.558 1383.52,730.105 1387.5,728.13 1391.47,724.997 1395.44,722.319 1399.41,720.364 1403.39,719.224 1407.36,716.843 1411.33,714.16 1415.3,712.137 1419.28,709.622 1423.25,707.257 1427.22,704.366 1431.19,700.74 1435.16,698.567 1439.14,696.582 1443.11,692.88 1447.08,690.718 1451.05,688.275 1455.03,685.372 1459,682.96 1462.97,680.177 1466.94,677.79 1470.91,676.053 1474.89,673.147 1478.86,669.657 1482.83,666.049 1486.8,663.075 1490.78,660.669 1494.75,658.08 1498.72,656.013 1502.69,653.193 1506.66,650.459 1510.64,647.886 1514.61,644.879 1518.58,642.461 1522.55,640.083 1526.53,637.831 1530.5,636.413 1534.47,634.575 1538.44,631.8 1542.42,629.422 1546.39,626.879 1550.36,623.455 1554.33,620.831 1558.3,619.351 1562.28,617.47 1566.25,615.34 1570.22,612.725 1574.19,611.202 1578.17,609.341 1582.14,607.985 1586.11,605.552 1590.08,603.363 1594.05,600.676 1598.03,598.577 1602,594.815 1605.97,592.394 1609.94,591.317 1613.92,588.965 1617.89,586.43 1621.86,583.736 1625.83,581.421 1629.8,578.317 1633.78,575.849 1637.75,574.041 1641.72,571.346 1645.69,568.964 1649.67,566.534 1653.64,564.161 1657.61,561.869 1661.58,558.902 1665.56,556.397 1669.53,552.919 1673.5,549.791 1677.47,547.005 1681.44,544.127 1685.42,542.185 1689.39,539.528 1693.36,537.105 1697.33,533.693 1701.31,531.271 1705.28,528.619 1709.25,527.77 1713.22,525.634 1717.19,522.833 1721.17,519.72 1725.14,516.065 1729.11,512.68 1733.08,510.68 1737.06,508.834 1741.03,506.573 1745,503.73 1748.97,501.658 1752.94,499.147 1756.92,496.16 1760.89,493.602 1764.86,491.315 1768.83,489.455 1772.81,488.032 1776.78,485.676 1780.75,483.134 1784.72,479.801 1788.7,476.92 1792.67,474.826 1796.64,473.164 1800.61,470.884 1804.58,467.935 1808.56,465.498 1812.53,462.931 1816.5,460.685 1820.47,458.791 1824.45,455.916 1828.42,454.003 1832.39,450.631 1836.36,448.494 1840.33,445.924 1844.31,443.618 1848.28,441.771 1852.25,437.838 1856.22,436.068 1860.2,433.856 1864.17,431.351 1868.14,429.366 1872.11,427.358 1876.08,423.568 1880.06,421.249 1884.03,419.18 1888,417.177 1891.97,414.694 1895.95,412.438 1899.92,409.624 1903.89,407.448 1907.86,406.758 1911.84,404.287 1915.81,402.603 1919.78,399.646 1923.75,396.484 1927.72,394.492 1931.7,391.607 1935.67,388.398 1939.64,385.861 1943.61,383.296 1947.59,381.248 1951.56,378.325 1955.53,376.029 1959.5,373.295 1963.47,371.213 1967.45,369.235 1971.42,367.621 1975.39,365.07 1979.36,361.319 1983.34,358.208 1987.31,355.671 1991.28,354.134 1995.25,351.878 1999.22,348.428 2003.2,346.386 2007.17,344.102 2011.14,341.797 2015.11,338.158 2019.09,335.729 2023.06,333.5 2027.03,330.641 2031,329.181 2034.98,325.85 2038.95,324.184 2042.92,322.252 2046.89,320.055 2050.86,317.024 2054.84,314.926 2058.81,312.654 2062.78,310.256 2066.75,308.451 2070.73,305.893 2074.7,303.692 2078.67,300.807 2082.64,297.012 2086.61,295.043 2090.59,292.104 2094.56,289.649 2098.53,287.612 2102.5,285.737 2106.48,283.477 2110.45,281.636 2114.42,279.411 2118.39,277.179 2122.36,273.679 2126.34,271.132 2130.31,269.026 2134.28,266.071 2138.25,263.886 2142.23,263.592 2146.2,262.724 2150.17,259.327 2154.14,256.834 2158.12,254.258 2162.09,251.388 2166.06,248.125 2170.03,246.336 2174,244.721 2177.98,241.457 2181.95,239.052 2185.92,236.581 2189.89,234.273 2193.87,232.528 2197.84,229.44 2201.81,226.953 2205.78,223.456 2209.75,221.81 2213.73,219.368 2217.7,216.47 2221.67,214.858 2225.64,213.139 2229.62,211.076 2233.59,209.676 2237.56,207.489 2241.53,205.655 2245.5,203.582 2249.48,200.684 2253.45,198.768 2257.42,196.541 2261.39,194.264 2265.37,191.17 2269.34,188.906 2273.31,186.638 2277.28,182.812 2281.26,180.905 2285.23,179.173 2289.2,175.594 2293.17,173.885 "/>
</svg>
