<?xml version="1.0" encoding="utf-8"?>
<svg xmlns="http://www.w3.org/2000/svg" xmlns:xlink="http://www.w3.org/1999/xlink" width="600" height="400" viewBox="0 0 2400 1600">
<defs>
  <clipPath id="clip680">
    <rect x="0" y="0" width="2400" height="1600"/>
  </clipPath>
</defs>
<path clip-path="url(#clip680)" d="M0 1600 L2400 1600 L2400 0 L0 0  Z" fill="#ffffff" fill-rule="evenodd" fill-opacity="1"/>
<defs>
  <clipPath id="clip681">
    <rect x="480" y="0" width="1681" height="1600"/>
  </clipPath>
</defs>
<path clip-path="url(#clip680)" d="M141.853 1486.45 L2352.76 1486.45 L2352.76 47.2441 L141.853 47.2441  Z" fill="#ffffff" fill-rule="evenodd" fill-opacity="1"/>
<defs>
  <clipPath id="clip682">
    <rect x="141" y="47" width="2212" height="1440"/>
  </clipPath>
</defs>
<polyline clip-path="url(#clip682)" style="stroke:#000000; stroke-linecap:round; stroke-linejoin:round; stroke-width:2; stroke-opacity:0.1; fill:none" points="204.426,1486.45 204.426,47.2441 "/>
<polyline clip-path="url(#clip682)" style="stroke:#000000; stroke-linecap:round; stroke-linejoin:round; stroke-width:2; stroke-opacity:0.1; fill:none" points="725.865,1486.45 725.865,47.2441 "/>
<polyline clip-path="url(#clip682)" style="stroke:#000000; stroke-linecap:round; stroke-linejoin:round; stroke-width:2; stroke-opacity:0.1; fill:none" points="1247.3,1486.45 1247.3,47.2441 "/>
<polyline clip-path="url(#clip682)" style="stroke:#000000; stroke-linecap:round; stroke-linejoin:round; stroke-width:2; stroke-opacity:0.1; fill:none" points="1768.74,1486.45 1768.74,47.2441 "/>
<polyline clip-path="url(#clip682)" style="stroke:#000000; stroke-linecap:round; stroke-linejoin:round; stroke-width:2; stroke-opacity:0.1; fill:none" points="2290.18,1486.45 2290.18,47.2441 "/>
<polyline clip-path="url(#clip682)" style="stroke:#000000; stroke-linecap:round; stroke-linejoin:round; stroke-width:2; stroke-opacity:0.1; fill:none" points="141.853,1322.28 2352.76,1322.28 "/>
<polyline clip-path="url(#clip682)" style="stroke:#000000; stroke-linecap:round; stroke-linejoin:round; stroke-width:2; stroke-opacity:0.1; fill:none" points="141.853,910.849 2352.76,910.849 "/>
<polyline clip-path="url(#clip682)" style="stroke:#000000; stroke-linecap:round; stroke-linejoin:round; stroke-width:2; stroke-opacity:0.1; fill:none" points="141.853,499.412 2352.76,499.412 "/>
<polyline clip-path="url(#clip682)" style="stroke:#000000; stroke-linecap:round; stroke-linejoin:round; stroke-width:2; stroke-opacity:0.1; fill:none" points="141.853,87.9763 2352.76,87.9763 "/>
<polyline clip-path="url(#clip680)" style="stroke:#000000; stroke-linecap:round; stroke-linejoin:round; stroke-width:4; stroke-opacity:1; fill:none" points="141.853,1486.45 2352.76,1486.45 "/>
<polyline clip-path="url(#clip680)" style="stroke:#000000; stroke-linecap:round; stroke-linejoin:round; stroke-width:4; stroke-opacity:1; fill:none" points="204.426,1486.45 204.426,1467.55 "/>
<polyline clip-path="url(#clip680)" style="stroke:#000000; stroke-linecap:round; stroke-linejoin:round; stroke-width:4; stroke-opacity:1; fill:none" points="725.865,1486.45 725.865,1467.55 "/>
<polyline clip-path="url(#clip680)" style="stroke:#000000; stroke-linecap:round; stroke-linejoin:round; stroke-width:4; stroke-opacity:1; fill:none" points="1247.3,1486.45 1247.3,1467.55 "/>
<polyline clip-path="url(#clip680)" style="stroke:#000000; stroke-linecap:round; stroke-linejoin:round; stroke-width:4; stroke-opacity:1; fill:none" points="1768.74,1486.45 1768.74,1467.55 "/>
<polyline clip-path="url(#clip680)" style="stroke:#000000; stroke-linecap:round; stroke-linejoin:round; stroke-width:4; stroke-opacity:1; fill:none" points="2290.18,1486.45 2290.18,1467.55 "/>
<path clip-path="url(#clip680)" d="M181.81 1517.37 Q178.199 1517.37 176.37 1520.93 Q174.565 1524.47 174.565 1531.6 Q174.565 1538.71 176.37 1542.27 Q178.199 1545.82 181.81 1545.82 Q185.444 1545.82 187.25 1542.27 Q189.079 1538.71 189.079 1531.6 Q189.079 1524.47 187.25 1520.93 Q185.444 1517.37 181.81 1517.37 M181.81 1513.66 Q187.62 1513.66 190.676 1518.27 Q193.754 1522.85 193.754 1531.6 Q193.754 1540.33 190.676 1544.94 Q187.62 1549.52 181.81 1549.52 Q176 1549.52 172.921 1544.94 Q169.866 1540.33 169.866 1531.6 Q169.866 1522.85 172.921 1518.27 Q176 1513.66 181.81 1513.66 Z" fill="#000000" fill-rule="nonzero" fill-opacity="1" /><path clip-path="url(#clip680)" d="M201.972 1542.97 L206.856 1542.97 L206.856 1548.85 L201.972 1548.85 L201.972 1542.97 Z" fill="#000000" fill-rule="nonzero" fill-opacity="1" /><path clip-path="url(#clip680)" d="M227.041 1517.37 Q223.43 1517.37 221.602 1520.93 Q219.796 1524.47 219.796 1531.6 Q219.796 1538.71 221.602 1542.27 Q223.43 1545.82 227.041 1545.82 Q230.676 1545.82 232.481 1542.27 Q234.31 1538.71 234.31 1531.6 Q234.31 1524.47 232.481 1520.93 Q230.676 1517.37 227.041 1517.37 M227.041 1513.66 Q232.851 1513.66 235.907 1518.27 Q238.986 1522.85 238.986 1531.6 Q238.986 1540.33 235.907 1544.94 Q232.851 1549.52 227.041 1549.52 Q221.231 1549.52 218.152 1544.94 Q215.097 1540.33 215.097 1531.6 Q215.097 1522.85 218.152 1518.27 Q221.231 1513.66 227.041 1513.66 Z" fill="#000000" fill-rule="nonzero" fill-opacity="1" /><path clip-path="url(#clip680)" d="M703.747 1517.37 Q700.136 1517.37 698.307 1520.93 Q696.502 1524.47 696.502 1531.6 Q696.502 1538.71 698.307 1542.27 Q700.136 1545.82 703.747 1545.82 Q707.381 1545.82 709.187 1542.27 Q711.016 1538.71 711.016 1531.6 Q711.016 1524.47 709.187 1520.93 Q707.381 1517.37 703.747 1517.37 M703.747 1513.66 Q709.557 1513.66 712.613 1518.27 Q715.691 1522.85 715.691 1531.6 Q715.691 1540.33 712.613 1544.94 Q709.557 1549.52 703.747 1549.52 Q697.937 1549.52 694.858 1544.94 Q691.803 1540.33 691.803 1531.6 Q691.803 1522.85 694.858 1518.27 Q697.937 1513.66 703.747 1513.66 Z" fill="#000000" fill-rule="nonzero" fill-opacity="1" /><path clip-path="url(#clip680)" d="M723.909 1542.97 L728.793 1542.97 L728.793 1548.85 L723.909 1548.85 L723.909 1542.97 Z" fill="#000000" fill-rule="nonzero" fill-opacity="1" /><path clip-path="url(#clip680)" d="M739.025 1514.29 L757.381 1514.29 L757.381 1518.22 L743.307 1518.22 L743.307 1526.7 Q744.326 1526.35 745.344 1526.19 Q746.363 1526 747.381 1526 Q753.168 1526 756.548 1529.17 Q759.927 1532.34 759.927 1537.76 Q759.927 1543.34 756.455 1546.44 Q752.983 1549.52 746.664 1549.52 Q744.488 1549.52 742.219 1549.15 Q739.974 1548.78 737.566 1548.04 L737.566 1543.34 Q739.65 1544.47 741.872 1545.03 Q744.094 1545.58 746.571 1545.58 Q750.576 1545.58 752.914 1543.48 Q755.251 1541.37 755.251 1537.76 Q755.251 1534.15 752.914 1532.04 Q750.576 1529.94 746.571 1529.94 Q744.696 1529.94 742.821 1530.35 Q740.969 1530.77 739.025 1531.65 L739.025 1514.29 Z" fill="#000000" fill-rule="nonzero" fill-opacity="1" /><path clip-path="url(#clip680)" d="M1214.46 1544.91 L1222.1 1544.91 L1222.1 1518.55 L1213.79 1520.21 L1213.79 1515.95 L1222.05 1514.29 L1226.73 1514.29 L1226.73 1544.91 L1234.36 1544.91 L1234.36 1548.85 L1214.46 1548.85 L1214.46 1544.91 Z" fill="#000000" fill-rule="nonzero" fill-opacity="1" /><path clip-path="url(#clip680)" d="M1243.81 1542.97 L1248.69 1542.97 L1248.69 1548.85 L1243.81 1548.85 L1243.81 1542.97 Z" fill="#000000" fill-rule="nonzero" fill-opacity="1" /><path clip-path="url(#clip680)" d="M1268.88 1517.37 Q1265.27 1517.37 1263.44 1520.93 Q1261.63 1524.47 1261.63 1531.6 Q1261.63 1538.71 1263.44 1542.27 Q1265.27 1545.82 1268.88 1545.82 Q1272.51 1545.82 1274.32 1542.27 Q1276.15 1538.71 1276.15 1531.6 Q1276.15 1524.47 1274.32 1520.93 Q1272.51 1517.37 1268.88 1517.37 M1268.88 1513.66 Q1274.69 1513.66 1277.74 1518.27 Q1280.82 1522.85 1280.82 1531.6 Q1280.82 1540.33 1277.74 1544.94 Q1274.69 1549.52 1268.88 1549.52 Q1263.07 1549.52 1259.99 1544.94 Q1256.93 1540.33 1256.93 1531.6 Q1256.93 1522.85 1259.99 1518.27 Q1263.07 1513.66 1268.88 1513.66 Z" fill="#000000" fill-rule="nonzero" fill-opacity="1" /><path clip-path="url(#clip680)" d="M1736.39 1544.91 L1744.03 1544.91 L1744.03 1518.55 L1735.72 1520.21 L1735.72 1515.95 L1743.99 1514.29 L1748.66 1514.29 L1748.66 1544.91 L1756.3 1544.91 L1756.3 1548.85 L1736.39 1548.85 L1736.39 1544.91 Z" fill="#000000" fill-rule="nonzero" fill-opacity="1" /><path clip-path="url(#clip680)" d="M1765.75 1542.97 L1770.63 1542.97 L1770.63 1548.85 L1765.75 1548.85 L1765.75 1542.97 Z" fill="#000000" fill-rule="nonzero" fill-opacity="1" /><path clip-path="url(#clip680)" d="M1780.86 1514.29 L1799.22 1514.29 L1799.22 1518.22 L1785.14 1518.22 L1785.14 1526.7 Q1786.16 1526.35 1787.18 1526.19 Q1788.2 1526 1789.22 1526 Q1795.01 1526 1798.38 1529.17 Q1801.76 1532.34 1801.76 1537.76 Q1801.76 1543.34 1798.29 1546.44 Q1794.82 1549.52 1788.5 1549.52 Q1786.32 1549.52 1784.06 1549.15 Q1781.81 1548.78 1779.4 1548.04 L1779.4 1543.34 Q1781.49 1544.47 1783.71 1545.03 Q1785.93 1545.58 1788.41 1545.58 Q1792.41 1545.58 1794.75 1543.48 Q1797.09 1541.37 1797.09 1537.76 Q1797.09 1534.15 1794.75 1532.04 Q1792.41 1529.94 1788.41 1529.94 Q1786.53 1529.94 1784.66 1530.35 Q1782.81 1530.77 1780.86 1531.65 L1780.86 1514.29 Z" fill="#000000" fill-rule="nonzero" fill-opacity="1" /><path clip-path="url(#clip680)" d="M2261.42 1544.91 L2277.74 1544.91 L2277.74 1548.85 L2255.8 1548.85 L2255.8 1544.91 Q2258.46 1542.16 2263.04 1537.53 Q2267.65 1532.88 2268.83 1531.53 Q2271.07 1529.01 2271.95 1527.27 Q2272.86 1525.51 2272.86 1523.82 Q2272.86 1521.07 2270.91 1519.33 Q2268.99 1517.6 2265.89 1517.6 Q2263.69 1517.6 2261.24 1518.36 Q2258.81 1519.13 2256.03 1520.68 L2256.03 1515.95 Q2258.85 1514.82 2261.31 1514.24 Q2263.76 1513.66 2265.8 1513.66 Q2271.17 1513.66 2274.36 1516.35 Q2277.56 1519.03 2277.56 1523.52 Q2277.56 1525.65 2276.75 1527.57 Q2275.96 1529.47 2273.85 1532.07 Q2273.27 1532.74 2270.17 1535.95 Q2267.07 1539.15 2261.42 1544.91 Z" fill="#000000" fill-rule="nonzero" fill-opacity="1" /><path clip-path="url(#clip680)" d="M2287.56 1542.97 L2292.44 1542.97 L2292.44 1548.85 L2287.56 1548.85 L2287.56 1542.97 Z" fill="#000000" fill-rule="nonzero" fill-opacity="1" /><path clip-path="url(#clip680)" d="M2312.63 1517.37 Q2309.01 1517.37 2307.19 1520.93 Q2305.38 1524.47 2305.38 1531.6 Q2305.38 1538.71 2307.19 1542.27 Q2309.01 1545.82 2312.63 1545.82 Q2316.26 1545.82 2318.06 1542.27 Q2319.89 1538.71 2319.89 1531.6 Q2319.89 1524.47 2318.06 1520.93 Q2316.26 1517.37 2312.63 1517.37 M2312.63 1513.66 Q2318.44 1513.66 2321.49 1518.27 Q2324.57 1522.85 2324.57 1531.6 Q2324.57 1540.33 2321.49 1544.94 Q2318.44 1549.52 2312.63 1549.52 Q2306.82 1549.52 2303.74 1544.94 Q2300.68 1540.33 2300.68 1531.6 Q2300.68 1522.85 2303.74 1518.27 Q2306.82 1513.66 2312.63 1513.66 Z" fill="#000000" fill-rule="nonzero" fill-opacity="1" /><polyline clip-path="url(#clip680)" style="stroke:#000000; stroke-linecap:round; stroke-linejoin:round; stroke-width:4; stroke-opacity:1; fill:none" points="141.853,1486.45 141.853,47.2441 "/>
<polyline clip-path="url(#clip680)" style="stroke:#000000; stroke-linecap:round; stroke-linejoin:round; stroke-width:4; stroke-opacity:1; fill:none" points="141.853,1322.28 160.751,1322.28 "/>
<polyline clip-path="url(#clip680)" style="stroke:#000000; stroke-linecap:round; stroke-linejoin:round; stroke-width:4; stroke-opacity:1; fill:none" points="141.853,910.849 160.751,910.849 "/>
<polyline clip-path="url(#clip680)" style="stroke:#000000; stroke-linecap:round; stroke-linejoin:round; stroke-width:4; stroke-opacity:1; fill:none" points="141.853,499.412 160.751,499.412 "/>
<polyline clip-path="url(#clip680)" style="stroke:#000000; stroke-linecap:round; stroke-linejoin:round; stroke-width:4; stroke-opacity:1; fill:none" points="141.853,87.9763 160.751,87.9763 "/>
<path clip-path="url(#clip680)" d="M66.5939 1309.08 L54.7884 1327.53 L66.5939 1327.53 L66.5939 1309.08 M65.367 1305 L71.2466 1305 L71.2466 1327.53 L76.1772 1327.53 L76.1772 1331.42 L71.2466 1331.42 L71.2466 1339.56 L66.5939 1339.56 L66.5939 1331.42 L50.9921 1331.42 L50.9921 1326.9 L65.367 1305 Z" fill="#000000" fill-rule="nonzero" fill-opacity="1" /><path clip-path="url(#clip680)" d="M93.9086 1308.08 Q90.2975 1308.08 88.4688 1311.65 Q86.6632 1315.19 86.6632 1322.32 Q86.6632 1329.43 88.4688 1332.99 Q90.2975 1336.53 93.9086 1336.53 Q97.5428 1336.53 99.3483 1332.99 Q101.177 1329.43 101.177 1322.32 Q101.177 1315.19 99.3483 1311.65 Q97.5428 1308.08 93.9086 1308.08 M93.9086 1304.38 Q99.7187 1304.38 102.774 1308.99 Q105.853 1313.57 105.853 1322.32 Q105.853 1331.05 102.774 1335.65 Q99.7187 1340.24 93.9086 1340.24 Q88.0984 1340.24 85.0197 1335.65 Q81.9642 1331.05 81.9642 1322.32 Q81.9642 1313.57 85.0197 1308.99 Q88.0984 1304.38 93.9086 1304.38 Z" fill="#000000" fill-rule="nonzero" fill-opacity="1" /><path clip-path="url(#clip680)" d="M53.793 893.569 L72.1494 893.569 L72.1494 897.504 L58.0754 897.504 L58.0754 905.976 Q59.0939 905.629 60.1124 905.467 Q61.131 905.282 62.1495 905.282 Q67.9365 905.282 71.3161 908.453 Q74.6957 911.624 74.6957 917.041 Q74.6957 922.619 71.2235 925.721 Q67.7513 928.8 61.4319 928.8 Q59.256 928.8 56.9875 928.43 Q54.7421 928.059 52.3347 927.318 L52.3347 922.619 Q54.418 923.754 56.6402 924.309 Q58.8625 924.865 61.3393 924.865 Q65.3439 924.865 67.6819 922.758 Q70.0198 920.652 70.0198 917.041 Q70.0198 913.43 67.6819 911.323 Q65.3439 909.217 61.3393 909.217 Q59.4643 909.217 57.5893 909.633 Q55.7375 910.05 53.793 910.93 L53.793 893.569 Z" fill="#000000" fill-rule="nonzero" fill-opacity="1" /><path clip-path="url(#clip680)" d="M93.9086 896.647 Q90.2975 896.647 88.4688 900.212 Q86.6632 903.754 86.6632 910.883 Q86.6632 917.99 88.4688 921.555 Q90.2975 925.096 93.9086 925.096 Q97.5428 925.096 99.3483 921.555 Q101.177 917.99 101.177 910.883 Q101.177 903.754 99.3483 900.212 Q97.5428 896.647 93.9086 896.647 M93.9086 892.944 Q99.7187 892.944 102.774 897.55 Q105.853 902.133 105.853 910.883 Q105.853 919.61 102.774 924.217 Q99.7187 928.8 93.9086 928.8 Q88.0984 928.8 85.0197 924.217 Q81.9642 919.61 81.9642 910.883 Q81.9642 902.133 85.0197 897.55 Q88.0984 892.944 93.9086 892.944 Z" fill="#000000" fill-rule="nonzero" fill-opacity="1" /><path clip-path="url(#clip680)" d="M64.3254 497.549 Q61.1773 497.549 59.3254 499.702 Q57.4967 501.855 57.4967 505.605 Q57.4967 509.331 59.3254 511.507 Q61.1773 513.66 64.3254 513.66 Q67.4735 513.66 69.3022 511.507 Q71.1541 509.331 71.1541 505.605 Q71.1541 501.855 69.3022 499.702 Q67.4735 497.549 64.3254 497.549 M73.6077 482.896 L73.6077 487.156 Q71.8485 486.322 70.0429 485.882 Q68.2606 485.443 66.5013 485.443 Q61.8717 485.443 59.418 488.568 Q56.9875 491.693 56.6402 498.012 Q58.006 495.998 60.0662 494.933 Q62.1263 493.845 64.6032 493.845 Q69.8115 493.845 72.8207 497.017 Q75.8531 500.165 75.8531 505.605 Q75.8531 510.929 72.705 514.146 Q69.5568 517.364 64.3254 517.364 Q58.33 517.364 55.1588 512.78 Q51.9875 508.174 51.9875 499.447 Q51.9875 491.253 55.8764 486.392 Q59.7652 481.507 66.3161 481.507 Q68.0754 481.507 69.8578 481.855 Q71.6633 482.202 73.6077 482.896 Z" fill="#000000" fill-rule="nonzero" fill-opacity="1" /><path clip-path="url(#clip680)" d="M93.9086 485.211 Q90.2975 485.211 88.4688 488.776 Q86.6632 492.318 86.6632 499.447 Q86.6632 506.554 88.4688 510.118 Q90.2975 513.66 93.9086 513.66 Q97.5428 513.66 99.3483 510.118 Q101.177 506.554 101.177 499.447 Q101.177 492.318 99.3483 488.776 Q97.5428 485.211 93.9086 485.211 M93.9086 481.507 Q99.7187 481.507 102.774 486.114 Q105.853 490.697 105.853 499.447 Q105.853 508.174 102.774 512.78 Q99.7187 517.364 93.9086 517.364 Q88.0984 517.364 85.0197 512.78 Q81.9642 508.174 81.9642 499.447 Q81.9642 490.697 85.0197 486.114 Q88.0984 481.507 93.9086 481.507 Z" fill="#000000" fill-rule="nonzero" fill-opacity="1" /><path clip-path="url(#clip680)" d="M52.5662 70.6963 L74.7883 70.6963 L74.7883 72.687 L62.2421 105.256 L57.3578 105.256 L69.1633 74.6314 L52.5662 74.6314 L52.5662 70.6963 Z" fill="#000000" fill-rule="nonzero" fill-opacity="1" /><path clip-path="url(#clip680)" d="M93.9086 73.775 Q90.2975 73.775 88.4688 77.3398 Q86.6632 80.8814 86.6632 88.011 Q86.6632 95.1174 88.4688 98.6822 Q90.2975 102.224 93.9086 102.224 Q97.5428 102.224 99.3483 98.6822 Q101.177 95.1174 101.177 88.011 Q101.177 80.8814 99.3483 77.3398 Q97.5428 73.775 93.9086 73.775 M93.9086 70.0713 Q99.7187 70.0713 102.774 74.6777 Q105.853 79.261 105.853 88.011 Q105.853 96.7378 102.774 101.344 Q99.7187 105.928 93.9086 105.928 Q88.0984 105.928 85.0197 101.344 Q81.9642 96.7378 81.9642 88.011 Q81.9642 79.261 85.0197 74.6777 Q88.0984 70.0713 93.9086 70.0713 Z" fill="#000000" fill-rule="nonzero" fill-opacity="1" /><polyline clip-path="url(#clip682)" style="stroke:#009af9; stroke-linecap:round; stroke-linejoin:round; stroke-width:4; stroke-opacity:1; fill:none" points="204.426,910.849 225.283,828.561 246.141,787.418 266.998,869.705 287.856,869.705 308.714,828.561 329.571,869.705 350.429,828.561 371.286,869.705 392.144,993.136 413.001,993.136 433.859,951.992 454.717,993.136 475.574,910.849 496.432,910.849 517.289,869.705 538.147,828.561 559.004,746.274 579.862,828.561 600.72,910.849 621.577,828.561 642.435,787.418 663.292,828.561 684.15,746.274 705.007,787.418 725.865,705.131 746.723,581.7 767.58,499.412 788.438,540.556 809.295,499.412 830.153,622.843 851.01,622.843 871.868,663.987 892.726,622.843 913.583,746.274 934.441,622.843 955.298,663.987 976.156,622.843 997.014,581.7 1017.87,499.412 1038.73,622.843 1059.59,705.131 1080.44,746.274 1101.3,746.274 1122.16,787.418 1143.02,787.418 1163.87,746.274 1184.73,663.987 1205.59,746.274 1226.45,869.705 1247.3,910.849 1268.16,951.992 1289.02,993.136 1309.88,1034.28 1330.73,1034.28 1351.59,1116.57 1372.45,1116.57 1393.31,1157.71 1414.17,1157.71 1435.02,1157.71 1455.88,1198.85 1476.74,1198.85 1497.6,1116.57 1518.45,1281.14 1539.31,1281.14 1560.17,1240 1581.03,1198.85 1601.88,1157.71 1622.74,1075.42 1643.6,1116.57 1664.46,1075.42 1685.31,1116.57 1706.17,1075.42 1727.03,1075.42 1747.89,1116.57 1768.74,1075.42 1789.6,1157.71 1810.46,1198.85 1831.32,1034.28 1852.17,1034.28 1873.03,1034.28 1893.89,951.992 1914.75,951.992 1935.6,1034.28 1956.46,993.136 1977.32,951.992 1998.18,993.136 2019.03,951.992 2039.89,910.849 2060.75,869.705 2081.61,910.849 2102.47,869.705 2123.32,869.705 2144.18,1034.28 2165.04,1075.42 2185.9,993.136 2206.75,1116.57 2227.61,1116.57 2248.47,1157.71 2269.33,1157.71 2290.18,1157.71 "/>
<polyline clip-path="url(#clip682)" style="stroke:#e26f46; stroke-linecap:round; stroke-linejoin:round; stroke-width:4; stroke-opacity:1; fill:none" points="204.426,910.849 225.283,869.705 246.141,828.561 266.998,1116.57 287.856,1322.28 308.714,1240 329.571,828.561 350.429,828.561 371.286,1034.28 392.144,1075.42 413.001,910.849 433.859,705.131 454.717,828.561 475.574,663.987 496.432,910.849 517.289,869.705 538.147,828.561 559.004,1116.57 579.862,951.992 600.72,951.992 621.577,910.849 642.435,663.987 663.292,499.412 684.15,211.407 705.007,417.125 725.865,540.556 746.723,499.412 767.58,375.982 788.438,211.407 809.295,87.9763 830.153,87.9763 851.01,252.551 871.868,129.12 892.726,293.694 913.583,252.551 934.441,334.838 955.298,622.843 976.156,828.561 997.014,746.274 1017.87,581.7 1038.73,581.7 1059.59,910.849 1080.44,1116.57 1101.3,1075.42 1122.16,1034.28 1143.02,869.705 1163.87,1034.28 1184.73,993.136 1205.59,869.705 1226.45,787.418 1247.3,252.551 1268.16,375.982 1289.02,663.987 1309.88,828.561 1330.73,951.992 1351.59,787.418 1372.45,705.131 1393.31,663.987 1414.17,787.418 1435.02,828.561 1455.88,951.992 1476.74,787.418 1497.6,910.849 1518.45,993.136 1539.31,993.136 1560.17,910.849 1581.03,993.136 1601.88,1075.42 1622.74,1116.57 1643.6,1116.57 1664.46,1322.28 1685.31,1281.14 1706.17,1157.71 1727.03,993.136 1747.89,787.418 1768.74,746.274 1789.6,951.992 1810.46,1075.42 1831.32,869.705 1852.17,993.136 1873.03,1157.71 1893.89,1075.42 1914.75,1240 1935.6,1363.43 1956.46,1445.72 1977.32,1404.57 1998.18,1157.71 2019.03,787.418 2039.89,910.849 2060.75,1363.43 2081.61,1363.43 2102.47,1198.85 2123.32,1034.28 2144.18,787.418 2165.04,993.136 2185.9,1157.71 2206.75,1116.57 2227.61,1075.42 2248.47,828.561 2269.33,1075.42 2290.18,1116.57 "/>
<path clip-path="url(#clip680)" d="M2028.39 250.738 L2279.06 250.738 L2279.06 95.2176 L2028.39 95.2176  Z" fill="#ffffff" fill-rule="evenodd" fill-opacity="1"/>
<polyline clip-path="url(#clip680)" style="stroke:#000000; stroke-linecap:round; stroke-linejoin:round; stroke-width:4; stroke-opacity:1; fill:none" points="2028.39,250.738 2279.06,250.738 2279.06,95.2176 2028.39,95.2176 2028.39,250.738 "/>
<polyline clip-path="url(#clip680)" style="stroke:#009af9; stroke-linecap:round; stroke-linejoin:round; stroke-width:4; stroke-opacity:1; fill:none" points="2052.95,147.058 2200.34,147.058 "/>
<path clip-path="url(#clip680)" d="M2247.16 130.912 L2247.16 135.472 Q2244.49 134.199 2242.13 133.574 Q2239.77 132.949 2237.57 132.949 Q2233.75 132.949 2231.67 134.43 Q2229.61 135.912 2229.61 138.643 Q2229.61 140.935 2230.98 142.115 Q2232.36 143.273 2236.21 143.99 L2239.03 144.569 Q2244.26 145.565 2246.74 148.088 Q2249.24 150.588 2249.24 154.801 Q2249.24 159.824 2245.86 162.416 Q2242.5 165.009 2236 165.009 Q2233.54 165.009 2230.77 164.453 Q2228.01 163.898 2225.05 162.81 L2225.05 157.995 Q2227.9 159.592 2230.63 160.402 Q2233.36 161.213 2236 161.213 Q2240 161.213 2242.18 159.639 Q2244.35 158.064 2244.35 155.148 Q2244.35 152.602 2242.78 151.166 Q2241.23 149.731 2237.66 149.014 L2234.82 148.458 Q2229.59 147.416 2227.25 145.194 Q2224.91 142.972 2224.91 139.014 Q2224.91 134.43 2228.13 131.791 Q2231.37 129.153 2237.04 129.153 Q2239.47 129.153 2241.99 129.592 Q2244.52 130.032 2247.16 130.912 Z" fill="#000000" fill-rule="nonzero" fill-opacity="1" /><polyline clip-path="url(#clip680)" style="stroke:#e26f46; stroke-linecap:round; stroke-linejoin:round; stroke-width:4; stroke-opacity:1; fill:none" points="2052.95,198.898 2200.34,198.898 "/>
<path clip-path="url(#clip680)" d="M2226.48 181.618 L2231.51 181.618 L2240.1 194.465 L2248.73 181.618 L2253.75 181.618 L2242.64 198.215 L2254.49 216.178 L2249.47 216.178 L2239.75 201.479 L2229.96 216.178 L2224.91 216.178 L2237.25 197.729 L2226.48 181.618 Z" fill="#000000" fill-rule="nonzero" fill-opacity="1" /></svg>
