<?xml version="1.0" encoding="utf-8"?>
<svg xmlns="http://www.w3.org/2000/svg" xmlns:xlink="http://www.w3.org/1999/xlink" width="600" height="400" viewBox="0 0 2400 1600">
<defs>
  <clipPath id="clip800">
    <rect x="0" y="0" width="2400" height="1600"/>
  </clipPath>
</defs>
<path clip-path="url(#clip800)" d="M0 1600 L2400 1600 L2400 0 L0 0  Z" fill="#ffffff" fill-rule="evenodd" fill-opacity="1"/>
<defs>
  <clipPath id="clip801">
    <rect x="174" y="47" width="2180" height="1377"/>
  </clipPath>
</defs>
<path clip-path="url(#clip800)" d="M174.149 1423.18 L2352.76 1423.18 L2352.76 47.2441 L174.149 47.2441  Z" fill="#ffffff" fill-rule="evenodd" fill-opacity="1"/>
<polyline clip-path="url(#clip801)" style="stroke:#000000; stroke-linecap:round; stroke-linejoin:round; stroke-width:2; stroke-opacity:0.1; fill:none" points="235.808,1423.18 235.808,47.2441 "/>
<polyline clip-path="url(#clip801)" style="stroke:#000000; stroke-linecap:round; stroke-linejoin:round; stroke-width:2; stroke-opacity:0.1; fill:none" points="749.63,1423.18 749.63,47.2441 "/>
<polyline clip-path="url(#clip801)" style="stroke:#000000; stroke-linecap:round; stroke-linejoin:round; stroke-width:2; stroke-opacity:0.1; fill:none" points="1263.45,1423.18 1263.45,47.2441 "/>
<polyline clip-path="url(#clip801)" style="stroke:#000000; stroke-linecap:round; stroke-linejoin:round; stroke-width:2; stroke-opacity:0.1; fill:none" points="1777.27,1423.18 1777.27,47.2441 "/>
<polyline clip-path="url(#clip801)" style="stroke:#000000; stroke-linecap:round; stroke-linejoin:round; stroke-width:2; stroke-opacity:0.1; fill:none" points="2291.1,1423.18 2291.1,47.2441 "/>
<polyline clip-path="url(#clip801)" style="stroke:#000000; stroke-linecap:round; stroke-linejoin:round; stroke-width:2; stroke-opacity:0.1; fill:none" points="174.149,1367.86 2352.76,1367.86 "/>
<polyline clip-path="url(#clip801)" style="stroke:#000000; stroke-linecap:round; stroke-linejoin:round; stroke-width:2; stroke-opacity:0.1; fill:none" points="174.149,973.072 2352.76,973.072 "/>
<polyline clip-path="url(#clip801)" style="stroke:#000000; stroke-linecap:round; stroke-linejoin:round; stroke-width:2; stroke-opacity:0.1; fill:none" points="174.149,578.287 2352.76,578.287 "/>
<polyline clip-path="url(#clip801)" style="stroke:#000000; stroke-linecap:round; stroke-linejoin:round; stroke-width:2; stroke-opacity:0.1; fill:none" points="174.149,183.502 2352.76,183.502 "/>
<polyline clip-path="url(#clip800)" style="stroke:#000000; stroke-linecap:round; stroke-linejoin:round; stroke-width:4; stroke-opacity:1; fill:none" points="174.149,1423.18 2352.76,1423.18 "/>
<polyline clip-path="url(#clip800)" style="stroke:#000000; stroke-linecap:round; stroke-linejoin:round; stroke-width:4; stroke-opacity:1; fill:none" points="235.808,1423.18 235.808,1404.28 "/>
<polyline clip-path="url(#clip800)" style="stroke:#000000; stroke-linecap:round; stroke-linejoin:round; stroke-width:4; stroke-opacity:1; fill:none" points="749.63,1423.18 749.63,1404.28 "/>
<polyline clip-path="url(#clip800)" style="stroke:#000000; stroke-linecap:round; stroke-linejoin:round; stroke-width:4; stroke-opacity:1; fill:none" points="1263.45,1423.18 1263.45,1404.28 "/>
<polyline clip-path="url(#clip800)" style="stroke:#000000; stroke-linecap:round; stroke-linejoin:round; stroke-width:4; stroke-opacity:1; fill:none" points="1777.27,1423.18 1777.27,1404.28 "/>
<polyline clip-path="url(#clip800)" style="stroke:#000000; stroke-linecap:round; stroke-linejoin:round; stroke-width:4; stroke-opacity:1; fill:none" points="2291.1,1423.18 2291.1,1404.28 "/>
<path clip-path="url(#clip800)" d="M213.192 1454.1 Q209.581 1454.1 207.752 1457.66 Q205.947 1461.2 205.947 1468.33 Q205.947 1475.44 207.752 1479.01 Q209.581 1482.55 213.192 1482.55 Q216.826 1482.55 218.632 1479.01 Q220.46 1475.44 220.46 1468.33 Q220.46 1461.2 218.632 1457.66 Q216.826 1454.1 213.192 1454.1 M213.192 1450.39 Q219.002 1450.39 222.058 1455 Q225.136 1459.58 225.136 1468.33 Q225.136 1477.06 222.058 1481.67 Q219.002 1486.25 213.192 1486.25 Q207.382 1486.25 204.303 1481.67 Q201.248 1477.06 201.248 1468.33 Q201.248 1459.58 204.303 1455 Q207.382 1450.39 213.192 1450.39 Z" fill="#000000" fill-rule="nonzero" fill-opacity="1" /><path clip-path="url(#clip800)" d="M233.354 1479.7 L238.238 1479.7 L238.238 1485.58 L233.354 1485.58 L233.354 1479.7 Z" fill="#000000" fill-rule="nonzero" fill-opacity="1" /><path clip-path="url(#clip800)" d="M258.423 1454.1 Q254.812 1454.1 252.983 1457.66 Q251.178 1461.2 251.178 1468.33 Q251.178 1475.44 252.983 1479.01 Q254.812 1482.55 258.423 1482.55 Q262.057 1482.55 263.863 1479.01 Q265.692 1475.44 265.692 1468.33 Q265.692 1461.2 263.863 1457.66 Q262.057 1454.1 258.423 1454.1 M258.423 1450.39 Q264.233 1450.39 267.289 1455 Q270.368 1459.58 270.368 1468.33 Q270.368 1477.06 267.289 1481.67 Q264.233 1486.25 258.423 1486.25 Q252.613 1486.25 249.534 1481.67 Q246.479 1477.06 246.479 1468.33 Q246.479 1459.58 249.534 1455 Q252.613 1450.39 258.423 1450.39 Z" fill="#000000" fill-rule="nonzero" fill-opacity="1" /><path clip-path="url(#clip800)" d="M727.512 1454.1 Q723.901 1454.1 722.072 1457.66 Q720.267 1461.2 720.267 1468.33 Q720.267 1475.44 722.072 1479.01 Q723.901 1482.55 727.512 1482.55 Q731.146 1482.55 732.952 1479.01 Q734.781 1475.44 734.781 1468.33 Q734.781 1461.2 732.952 1457.66 Q731.146 1454.1 727.512 1454.1 M727.512 1450.39 Q733.322 1450.39 736.378 1455 Q739.456 1459.58 739.456 1468.33 Q739.456 1477.06 736.378 1481.67 Q733.322 1486.25 727.512 1486.25 Q721.702 1486.25 718.623 1481.67 Q715.568 1477.06 715.568 1468.33 Q715.568 1459.58 718.623 1455 Q721.702 1450.39 727.512 1450.39 Z" fill="#000000" fill-rule="nonzero" fill-opacity="1" /><path clip-path="url(#clip800)" d="M747.674 1479.7 L752.558 1479.7 L752.558 1485.58 L747.674 1485.58 L747.674 1479.7 Z" fill="#000000" fill-rule="nonzero" fill-opacity="1" /><path clip-path="url(#clip800)" d="M762.79 1451.02 L781.146 1451.02 L781.146 1454.96 L767.072 1454.96 L767.072 1463.43 Q768.091 1463.08 769.109 1462.92 Q770.128 1462.73 771.146 1462.73 Q776.933 1462.73 780.313 1465.9 Q783.692 1469.08 783.692 1474.49 Q783.692 1480.07 780.22 1483.17 Q776.748 1486.25 770.429 1486.25 Q768.253 1486.25 765.984 1485.88 Q763.739 1485.51 761.331 1484.77 L761.331 1480.07 Q763.415 1481.2 765.637 1481.76 Q767.859 1482.32 770.336 1482.32 Q774.341 1482.32 776.678 1480.21 Q779.016 1478.1 779.016 1474.49 Q779.016 1470.88 776.678 1468.77 Q774.341 1466.67 770.336 1466.67 Q768.461 1466.67 766.586 1467.08 Q764.734 1467.5 762.79 1468.38 L762.79 1451.02 Z" fill="#000000" fill-rule="nonzero" fill-opacity="1" /><path clip-path="url(#clip800)" d="M1230.61 1481.64 L1238.24 1481.64 L1238.24 1455.28 L1229.93 1456.95 L1229.93 1452.69 L1238.2 1451.02 L1242.87 1451.02 L1242.87 1481.64 L1250.51 1481.64 L1250.51 1485.58 L1230.61 1485.58 L1230.61 1481.64 Z" fill="#000000" fill-rule="nonzero" fill-opacity="1" /><path clip-path="url(#clip800)" d="M1259.96 1479.7 L1264.84 1479.7 L1264.84 1485.58 L1259.96 1485.58 L1259.96 1479.7 Z" fill="#000000" fill-rule="nonzero" fill-opacity="1" /><path clip-path="url(#clip800)" d="M1285.03 1454.1 Q1281.42 1454.1 1279.59 1457.66 Q1277.78 1461.2 1277.78 1468.33 Q1277.78 1475.44 1279.59 1479.01 Q1281.42 1482.55 1285.03 1482.55 Q1288.66 1482.55 1290.47 1479.01 Q1292.29 1475.44 1292.29 1468.33 Q1292.29 1461.2 1290.47 1457.66 Q1288.66 1454.1 1285.03 1454.1 M1285.03 1450.39 Q1290.84 1450.39 1293.89 1455 Q1296.97 1459.58 1296.97 1468.33 Q1296.97 1477.06 1293.89 1481.67 Q1290.84 1486.25 1285.03 1486.25 Q1279.22 1486.25 1276.14 1481.67 Q1273.08 1477.06 1273.08 1468.33 Q1273.08 1459.58 1276.14 1455 Q1279.22 1450.39 1285.03 1450.39 Z" fill="#000000" fill-rule="nonzero" fill-opacity="1" /><path clip-path="url(#clip800)" d="M1744.93 1481.64 L1752.56 1481.64 L1752.56 1455.28 L1744.25 1456.95 L1744.25 1452.69 L1752.52 1451.02 L1757.19 1451.02 L1757.19 1481.64 L1764.83 1481.64 L1764.83 1485.58 L1744.93 1485.58 L1744.93 1481.64 Z" fill="#000000" fill-rule="nonzero" fill-opacity="1" /><path clip-path="url(#clip800)" d="M1774.28 1479.7 L1779.16 1479.7 L1779.16 1485.58 L1774.28 1485.58 L1774.28 1479.7 Z" fill="#000000" fill-rule="nonzero" fill-opacity="1" /><path clip-path="url(#clip800)" d="M1789.39 1451.02 L1807.75 1451.02 L1807.75 1454.96 L1793.68 1454.96 L1793.68 1463.43 Q1794.69 1463.08 1795.71 1462.92 Q1796.73 1462.73 1797.75 1462.73 Q1803.54 1462.73 1806.92 1465.9 Q1810.3 1469.08 1810.3 1474.49 Q1810.3 1480.07 1806.82 1483.17 Q1803.35 1486.25 1797.03 1486.25 Q1794.86 1486.25 1792.59 1485.88 Q1790.34 1485.51 1787.93 1484.77 L1787.93 1480.07 Q1790.02 1481.2 1792.24 1481.76 Q1794.46 1482.32 1796.94 1482.32 Q1800.94 1482.32 1803.28 1480.21 Q1805.62 1478.1 1805.62 1474.49 Q1805.62 1470.88 1803.28 1468.77 Q1800.94 1466.67 1796.94 1466.67 Q1795.06 1466.67 1793.19 1467.08 Q1791.34 1467.5 1789.39 1468.38 L1789.39 1451.02 Z" fill="#000000" fill-rule="nonzero" fill-opacity="1" /><path clip-path="url(#clip800)" d="M2262.34 1481.64 L2278.66 1481.64 L2278.66 1485.58 L2256.71 1485.58 L2256.71 1481.64 Q2259.37 1478.89 2263.96 1474.26 Q2268.56 1469.61 2269.74 1468.27 Q2271.99 1465.74 2272.87 1464.01 Q2273.77 1462.25 2273.77 1460.56 Q2273.77 1457.8 2271.83 1456.07 Q2269.91 1454.33 2266.8 1454.33 Q2264.6 1454.33 2262.15 1455.09 Q2259.72 1455.86 2256.94 1457.41 L2256.94 1452.69 Q2259.77 1451.55 2262.22 1450.97 Q2264.67 1450.39 2266.71 1450.39 Q2272.08 1450.39 2275.28 1453.08 Q2278.47 1455.77 2278.47 1460.26 Q2278.47 1462.39 2277.66 1464.31 Q2276.87 1466.2 2274.77 1468.8 Q2274.19 1469.47 2271.09 1472.69 Q2267.98 1475.88 2262.34 1481.64 Z" fill="#000000" fill-rule="nonzero" fill-opacity="1" /><path clip-path="url(#clip800)" d="M2288.47 1479.7 L2293.35 1479.7 L2293.35 1485.58 L2288.47 1485.58 L2288.47 1479.7 Z" fill="#000000" fill-rule="nonzero" fill-opacity="1" /><path clip-path="url(#clip800)" d="M2313.54 1454.1 Q2309.93 1454.1 2308.1 1457.66 Q2306.29 1461.2 2306.29 1468.33 Q2306.29 1475.44 2308.1 1479.01 Q2309.93 1482.55 2313.54 1482.55 Q2317.17 1482.55 2318.98 1479.01 Q2320.81 1475.44 2320.81 1468.33 Q2320.81 1461.2 2318.98 1457.66 Q2317.17 1454.1 2313.54 1454.1 M2313.54 1450.39 Q2319.35 1450.39 2322.4 1455 Q2325.48 1459.58 2325.48 1468.33 Q2325.48 1477.06 2322.4 1481.67 Q2319.35 1486.25 2313.54 1486.25 Q2307.73 1486.25 2304.65 1481.67 Q2301.59 1477.06 2301.59 1468.33 Q2301.59 1459.58 2304.65 1455 Q2307.73 1450.39 2313.54 1450.39 Z" fill="#000000" fill-rule="nonzero" fill-opacity="1" /><path clip-path="url(#clip800)" d="M971.187 1522.27 L971.187 1532.4 L983.25 1532.4 L983.25 1536.95 L971.187 1536.95 L971.187 1556.3 Q971.187 1560.66 972.365 1561.9 Q973.574 1563.14 977.234 1563.14 L983.25 1563.14 L983.25 1568.04 L977.234 1568.04 Q970.455 1568.04 967.877 1565.53 Q965.299 1562.98 965.299 1556.3 L965.299 1536.95 L961.002 1536.95 L961.002 1532.4 L965.299 1532.4 L965.299 1522.27 L971.187 1522.27 Z" fill="#000000" fill-rule="nonzero" fill-opacity="1" /><path clip-path="url(#clip800)" d="M1011.61 1537.87 Q1010.62 1537.3 1009.44 1537.04 Q1008.3 1536.76 1006.9 1536.76 Q1001.93 1536.76 999.26 1540 Q996.618 1543.22 996.618 1549.27 L996.618 1568.04 L990.73 1568.04 L990.73 1532.4 L996.618 1532.4 L996.618 1537.93 Q998.464 1534.69 1001.42 1533.13 Q1004.38 1531.54 1008.62 1531.54 Q1009.22 1531.54 1009.95 1531.63 Q1010.69 1531.7 1011.58 1531.85 L1011.61 1537.87 Z" fill="#000000" fill-rule="nonzero" fill-opacity="1" /><path clip-path="url(#clip800)" d="M1033.95 1550.12 Q1026.86 1550.12 1024.12 1551.75 Q1021.38 1553.37 1021.38 1557.29 Q1021.38 1560.4 1023.42 1562.25 Q1025.49 1564.07 1029.02 1564.07 Q1033.89 1564.07 1036.82 1560.63 Q1039.78 1557.16 1039.78 1551.43 L1039.78 1550.12 L1033.95 1550.12 M1045.63 1547.71 L1045.63 1568.04 L1039.78 1568.04 L1039.78 1562.63 Q1037.77 1565.88 1034.78 1567.44 Q1031.79 1568.97 1027.46 1568.97 Q1021.99 1568.97 1018.74 1565.91 Q1015.52 1562.82 1015.52 1557.67 Q1015.52 1551.65 1019.53 1548.6 Q1023.58 1545.54 1031.57 1545.54 L1039.78 1545.54 L1039.78 1544.97 Q1039.78 1540.93 1037.1 1538.73 Q1034.46 1536.5 1029.66 1536.5 Q1026.6 1536.5 1023.7 1537.23 Q1020.81 1537.97 1018.13 1539.43 L1018.13 1534.02 Q1021.35 1532.78 1024.37 1532.17 Q1027.4 1531.54 1030.26 1531.54 Q1037.99 1531.54 1041.81 1535.55 Q1045.63 1539.56 1045.63 1547.71 Z" fill="#000000" fill-rule="nonzero" fill-opacity="1" /><path clip-path="url(#clip800)" d="M1057.7 1532.4 L1063.55 1532.4 L1063.55 1568.68 Q1063.55 1575.49 1060.94 1578.55 Q1058.37 1581.6 1052.6 1581.6 L1050.38 1581.6 L1050.38 1576.64 L1051.94 1576.64 Q1055.28 1576.64 1056.49 1575.08 Q1057.7 1573.55 1057.7 1568.68 L1057.7 1532.4 M1057.7 1518.52 L1063.55 1518.52 L1063.55 1525.93 L1057.7 1525.93 L1057.7 1518.52 Z" fill="#000000" fill-rule="nonzero" fill-opacity="1" /><path clip-path="url(#clip800)" d="M1106.3 1548.76 L1106.3 1551.62 L1079.37 1551.62 Q1079.75 1557.67 1083 1560.85 Q1086.28 1564 1092.1 1564 Q1095.48 1564 1098.63 1563.17 Q1101.81 1562.35 1104.93 1560.69 L1104.93 1566.23 Q1101.78 1567.57 1098.47 1568.27 Q1095.16 1568.97 1091.75 1568.97 Q1083.22 1568.97 1078.23 1564 Q1073.26 1559.04 1073.26 1550.57 Q1073.26 1541.82 1077.97 1536.69 Q1082.71 1531.54 1090.73 1531.54 Q1097.93 1531.54 1102.1 1536.18 Q1106.3 1540.8 1106.3 1548.76 M1100.44 1547.04 Q1100.38 1542.23 1097.74 1539.37 Q1095.13 1536.5 1090.8 1536.5 Q1085.9 1536.5 1082.94 1539.27 Q1080.01 1542.04 1079.56 1547.07 L1100.44 1547.04 Z" fill="#000000" fill-rule="nonzero" fill-opacity="1" /><path clip-path="url(#clip800)" d="M1141.57 1533.76 L1141.57 1539.24 Q1139.08 1537.87 1136.57 1537.2 Q1134.09 1536.5 1131.54 1536.5 Q1125.84 1536.5 1122.69 1540.13 Q1119.54 1543.73 1119.54 1550.25 Q1119.54 1556.78 1122.69 1560.4 Q1125.84 1564 1131.54 1564 Q1134.09 1564 1136.57 1563.33 Q1139.08 1562.63 1141.57 1561.26 L1141.57 1566.68 Q1139.11 1567.82 1136.47 1568.39 Q1133.86 1568.97 1130.9 1568.97 Q1122.85 1568.97 1118.11 1563.91 Q1113.36 1558.85 1113.36 1550.25 Q1113.36 1541.53 1118.14 1536.53 Q1122.95 1531.54 1131.28 1531.54 Q1133.99 1531.54 1136.57 1532.11 Q1139.15 1532.65 1141.57 1533.76 Z" fill="#000000" fill-rule="nonzero" fill-opacity="1" /><path clip-path="url(#clip800)" d="M1157.54 1522.27 L1157.54 1532.4 L1169.61 1532.4 L1169.61 1536.95 L1157.54 1536.95 L1157.54 1556.3 Q1157.54 1560.66 1158.72 1561.9 Q1159.93 1563.14 1163.59 1563.14 L1169.61 1563.14 L1169.61 1568.04 L1163.59 1568.04 Q1156.81 1568.04 1154.23 1565.53 Q1151.65 1562.98 1151.65 1556.3 L1151.65 1536.95 L1147.36 1536.95 L1147.36 1532.4 L1151.65 1532.4 L1151.65 1522.27 L1157.54 1522.27 Z" fill="#000000" fill-rule="nonzero" fill-opacity="1" /><path clip-path="url(#clip800)" d="M1191.12 1536.5 Q1186.41 1536.5 1183.67 1540.19 Q1180.94 1543.85 1180.94 1550.25 Q1180.94 1556.65 1183.64 1560.34 Q1186.38 1564 1191.12 1564 Q1195.8 1564 1198.54 1560.31 Q1201.28 1556.62 1201.28 1550.25 Q1201.28 1543.92 1198.54 1540.23 Q1195.8 1536.5 1191.12 1536.5 M1191.12 1531.54 Q1198.76 1531.54 1203.12 1536.5 Q1207.48 1541.47 1207.48 1550.25 Q1207.48 1559 1203.12 1564 Q1198.76 1568.97 1191.12 1568.97 Q1183.45 1568.97 1179.09 1564 Q1174.76 1559 1174.76 1550.25 Q1174.76 1541.47 1179.09 1536.5 Q1183.45 1531.54 1191.12 1531.54 Z" fill="#000000" fill-rule="nonzero" fill-opacity="1" /><path clip-path="url(#clip800)" d="M1237.85 1537.87 Q1236.86 1537.3 1235.68 1537.04 Q1234.54 1536.76 1233.14 1536.76 Q1228.17 1536.76 1225.5 1540 Q1222.86 1543.22 1222.86 1549.27 L1222.86 1568.04 L1216.97 1568.04 L1216.97 1532.4 L1222.86 1532.4 L1222.86 1537.93 Q1224.7 1534.69 1227.66 1533.13 Q1230.62 1531.54 1234.85 1531.54 Q1235.46 1531.54 1236.19 1531.63 Q1236.92 1531.7 1237.81 1531.85 L1237.85 1537.87 Z" fill="#000000" fill-rule="nonzero" fill-opacity="1" /><path clip-path="url(#clip800)" d="M1258.82 1571.35 Q1256.34 1577.72 1253.98 1579.66 Q1251.63 1581.6 1247.68 1581.6 L1243 1581.6 L1243 1576.7 L1246.44 1576.7 Q1248.86 1576.7 1250.2 1575.56 Q1251.53 1574.41 1253.16 1570.14 L1254.21 1567.47 L1239.79 1532.4 L1245.99 1532.4 L1257.13 1560.28 L1268.27 1532.4 L1274.48 1532.4 L1258.82 1571.35 Z" fill="#000000" fill-rule="nonzero" fill-opacity="1" /><path clip-path="url(#clip800)" d="M1326.74 1537.81 L1326.74 1518.52 L1332.6 1518.52 L1332.6 1568.04 L1326.74 1568.04 L1326.74 1562.7 Q1324.9 1565.88 1322.06 1567.44 Q1319.26 1568.97 1315.32 1568.97 Q1308.86 1568.97 1304.78 1563.81 Q1300.74 1558.65 1300.74 1550.25 Q1300.74 1541.85 1304.78 1536.69 Q1308.86 1531.54 1315.32 1531.54 Q1319.26 1531.54 1322.06 1533.1 Q1324.9 1534.62 1326.74 1537.81 M1306.79 1550.25 Q1306.79 1556.71 1309.43 1560.4 Q1312.1 1564.07 1316.75 1564.07 Q1321.4 1564.07 1324.07 1560.4 Q1326.74 1556.71 1326.74 1550.25 Q1326.74 1543.79 1324.07 1540.13 Q1321.4 1536.44 1316.75 1536.44 Q1312.1 1536.44 1309.43 1540.13 Q1306.79 1543.79 1306.79 1550.25 Z" fill="#000000" fill-rule="nonzero" fill-opacity="1" /><path clip-path="url(#clip800)" d="M1344.06 1553.98 L1344.06 1532.4 L1349.91 1532.4 L1349.91 1553.75 Q1349.91 1558.81 1351.89 1561.36 Q1353.86 1563.87 1357.81 1563.87 Q1362.55 1563.87 1365.29 1560.85 Q1368.06 1557.83 1368.06 1552.61 L1368.06 1532.4 L1373.91 1532.4 L1373.91 1568.04 L1368.06 1568.04 L1368.06 1562.57 Q1365.92 1565.82 1363.09 1567.41 Q1360.29 1568.97 1356.57 1568.97 Q1350.42 1568.97 1347.24 1565.15 Q1344.06 1561.33 1344.06 1553.98 M1358.79 1531.54 L1358.79 1531.54 Z" fill="#000000" fill-rule="nonzero" fill-opacity="1" /><path clip-path="url(#clip800)" d="M1406.63 1537.87 Q1405.65 1537.3 1404.47 1537.04 Q1403.32 1536.76 1401.92 1536.76 Q1396.96 1536.76 1394.28 1540 Q1391.64 1543.22 1391.64 1549.27 L1391.64 1568.04 L1385.75 1568.04 L1385.75 1532.4 L1391.64 1532.4 L1391.64 1537.93 Q1393.49 1534.69 1396.45 1533.13 Q1399.41 1531.54 1403.64 1531.54 Q1404.25 1531.54 1404.98 1531.63 Q1405.71 1531.7 1406.6 1531.85 L1406.63 1537.87 Z" fill="#000000" fill-rule="nonzero" fill-opacity="1" /><path clip-path="url(#clip800)" d="M1428.98 1550.12 Q1421.88 1550.12 1419.14 1551.75 Q1416.4 1553.37 1416.4 1557.29 Q1416.4 1560.4 1418.44 1562.25 Q1420.51 1564.07 1424.04 1564.07 Q1428.91 1564.07 1431.84 1560.63 Q1434.8 1557.16 1434.8 1551.43 L1434.8 1550.12 L1428.98 1550.12 M1440.66 1547.71 L1440.66 1568.04 L1434.8 1568.04 L1434.8 1562.63 Q1432.8 1565.88 1429.8 1567.44 Q1426.81 1568.97 1422.48 1568.97 Q1417.01 1568.97 1413.76 1565.91 Q1410.55 1562.82 1410.55 1557.67 Q1410.55 1551.65 1414.56 1548.6 Q1418.6 1545.54 1426.59 1545.54 L1434.8 1545.54 L1434.8 1544.97 Q1434.8 1540.93 1432.13 1538.73 Q1429.49 1536.5 1424.68 1536.5 Q1421.62 1536.5 1418.73 1537.23 Q1415.83 1537.97 1413.16 1539.43 L1413.16 1534.02 Q1416.37 1532.78 1419.4 1532.17 Q1422.42 1531.54 1425.28 1531.54 Q1433.02 1531.54 1436.84 1535.55 Q1440.66 1539.56 1440.66 1547.71 Z" fill="#000000" fill-rule="nonzero" fill-opacity="1" /><path clip-path="url(#clip800)" d="M1458.51 1522.27 L1458.51 1532.4 L1470.58 1532.4 L1470.58 1536.95 L1458.51 1536.95 L1458.51 1556.3 Q1458.51 1560.66 1459.69 1561.9 Q1460.9 1563.14 1464.56 1563.14 L1470.58 1563.14 L1470.58 1568.04 L1464.56 1568.04 Q1457.78 1568.04 1455.2 1565.53 Q1452.63 1562.98 1452.63 1556.3 L1452.63 1536.95 L1448.33 1536.95 L1448.33 1532.4 L1452.63 1532.4 L1452.63 1522.27 L1458.51 1522.27 Z" fill="#000000" fill-rule="nonzero" fill-opacity="1" /><path clip-path="url(#clip800)" d="M1478.28 1532.4 L1484.14 1532.4 L1484.14 1568.04 L1478.28 1568.04 L1478.28 1532.4 M1478.28 1518.52 L1484.14 1518.52 L1484.14 1525.93 L1478.28 1525.93 L1478.28 1518.52 Z" fill="#000000" fill-rule="nonzero" fill-opacity="1" /><path clip-path="url(#clip800)" d="M1510.2 1536.5 Q1505.49 1536.5 1502.76 1540.19 Q1500.02 1543.85 1500.02 1550.25 Q1500.02 1556.65 1502.72 1560.34 Q1505.46 1564 1510.2 1564 Q1514.88 1564 1517.62 1560.31 Q1520.36 1556.62 1520.36 1550.25 Q1520.36 1543.92 1517.62 1540.23 Q1514.88 1536.5 1510.2 1536.5 M1510.2 1531.54 Q1517.84 1531.54 1522.2 1536.5 Q1526.56 1541.47 1526.56 1550.25 Q1526.56 1559 1522.2 1564 Q1517.84 1568.97 1510.2 1568.97 Q1502.53 1568.97 1498.17 1564 Q1493.84 1559 1493.84 1550.25 Q1493.84 1541.47 1498.17 1536.5 Q1502.53 1531.54 1510.2 1531.54 Z" fill="#000000" fill-rule="nonzero" fill-opacity="1" /><path clip-path="url(#clip800)" d="M1565.9 1546.53 L1565.9 1568.04 L1560.05 1568.04 L1560.05 1546.72 Q1560.05 1541.66 1558.07 1539.14 Q1556.1 1536.63 1552.15 1536.63 Q1547.41 1536.63 1544.67 1539.65 Q1541.94 1542.68 1541.94 1547.9 L1541.94 1568.04 L1536.05 1568.04 L1536.05 1532.4 L1541.94 1532.4 L1541.94 1537.93 Q1544.04 1534.72 1546.87 1533.13 Q1549.73 1531.54 1553.46 1531.54 Q1559.6 1531.54 1562.75 1535.36 Q1565.9 1539.14 1565.9 1546.53 Z" fill="#000000" fill-rule="nonzero" fill-opacity="1" /><polyline clip-path="url(#clip800)" style="stroke:#000000; stroke-linecap:round; stroke-linejoin:round; stroke-width:4; stroke-opacity:1; fill:none" points="174.149,1423.18 174.149,47.2441 "/>
<polyline clip-path="url(#clip800)" style="stroke:#000000; stroke-linecap:round; stroke-linejoin:round; stroke-width:4; stroke-opacity:1; fill:none" points="174.149,1367.86 193.047,1367.86 "/>
<polyline clip-path="url(#clip800)" style="stroke:#000000; stroke-linecap:round; stroke-linejoin:round; stroke-width:4; stroke-opacity:1; fill:none" points="174.149,973.072 193.047,973.072 "/>
<polyline clip-path="url(#clip800)" style="stroke:#000000; stroke-linecap:round; stroke-linejoin:round; stroke-width:4; stroke-opacity:1; fill:none" points="174.149,578.287 193.047,578.287 "/>
<polyline clip-path="url(#clip800)" style="stroke:#000000; stroke-linecap:round; stroke-linejoin:round; stroke-width:4; stroke-opacity:1; fill:none" points="174.149,183.502 193.047,183.502 "/>
<path clip-path="url(#clip800)" d="M126.205 1353.66 Q122.593 1353.66 120.765 1357.22 Q118.959 1360.76 118.959 1367.89 Q118.959 1375 120.765 1378.56 Q122.593 1382.1 126.205 1382.1 Q129.839 1382.1 131.644 1378.56 Q133.473 1375 133.473 1367.89 Q133.473 1360.76 131.644 1357.22 Q129.839 1353.66 126.205 1353.66 M126.205 1349.95 Q132.015 1349.95 135.07 1354.56 Q138.149 1359.14 138.149 1367.89 Q138.149 1376.62 135.07 1381.23 Q132.015 1385.81 126.205 1385.81 Q120.394 1385.81 117.316 1381.23 Q114.26 1376.62 114.26 1367.89 Q114.26 1359.14 117.316 1354.56 Q120.394 1349.95 126.205 1349.95 Z" fill="#000000" fill-rule="nonzero" fill-opacity="1" /><path clip-path="url(#clip800)" d="M118.242 986.417 L125.88 986.417 L125.88 960.051 L117.57 961.718 L117.57 957.459 L125.834 955.792 L130.51 955.792 L130.51 986.417 L138.149 986.417 L138.149 990.352 L118.242 990.352 L118.242 986.417 Z" fill="#000000" fill-rule="nonzero" fill-opacity="1" /><path clip-path="url(#clip800)" d="M121.83 591.632 L138.149 591.632 L138.149 595.567 L116.205 595.567 L116.205 591.632 Q118.867 588.877 123.45 584.247 Q128.056 579.595 129.237 578.252 Q131.482 575.729 132.362 573.993 Q133.265 572.233 133.265 570.544 Q133.265 567.789 131.32 566.053 Q129.399 564.317 126.297 564.317 Q124.098 564.317 121.644 565.081 Q119.214 565.845 116.436 567.396 L116.436 562.673 Q119.26 561.539 121.714 560.96 Q124.168 560.382 126.205 560.382 Q131.575 560.382 134.769 563.067 Q137.964 565.752 137.964 570.243 Q137.964 572.372 137.154 574.294 Q136.367 576.192 134.26 578.784 Q133.681 579.456 130.58 582.673 Q127.478 585.868 121.83 591.632 Z" fill="#000000" fill-rule="nonzero" fill-opacity="1" /><path clip-path="url(#clip800)" d="M131.019 182.147 Q134.376 182.865 136.251 185.133 Q138.149 187.402 138.149 190.735 Q138.149 195.851 134.63 198.652 Q131.112 201.453 124.63 201.453 Q122.455 201.453 120.14 201.013 Q117.848 200.596 115.394 199.74 L115.394 195.226 Q117.339 196.36 119.654 196.939 Q121.968 197.518 124.492 197.518 Q128.89 197.518 131.181 195.782 Q133.496 194.045 133.496 190.735 Q133.496 187.68 131.343 185.967 Q129.214 184.231 125.394 184.231 L121.367 184.231 L121.367 180.388 L125.58 180.388 Q129.029 180.388 130.857 179.022 Q132.686 177.634 132.686 175.041 Q132.686 172.379 130.788 170.967 Q128.913 169.532 125.394 169.532 Q123.473 169.532 121.274 169.948 Q119.075 170.365 116.436 171.245 L116.436 167.078 Q119.098 166.337 121.413 165.967 Q123.751 165.597 125.811 165.597 Q131.135 165.597 134.237 168.027 Q137.339 170.434 137.339 174.555 Q137.339 177.425 135.695 179.416 Q134.052 181.383 131.019 182.147 Z" fill="#000000" fill-rule="nonzero" fill-opacity="1" /><path clip-path="url(#clip800)" d="M35.1993 1120.99 Q31.2526 1118.79 29.3747 1115.74 Q27.4968 1112.68 27.4968 1108.54 Q27.4968 1102.97 31.4117 1099.95 Q35.2948 1096.93 42.4881 1096.93 L64.0042 1096.93 L64.0042 1102.82 L42.679 1102.82 Q37.5546 1102.82 35.072 1104.63 Q32.5894 1106.44 32.5894 1110.17 Q32.5894 1114.72 35.6131 1117.36 Q38.6368 1120 43.8567 1120 L64.0042 1120 L64.0042 1125.89 L42.679 1125.89 Q37.5228 1125.89 35.072 1127.71 Q32.5894 1129.52 32.5894 1133.31 Q32.5894 1137.8 35.6449 1140.44 Q38.6686 1143.08 43.8567 1143.08 L64.0042 1143.08 L64.0042 1148.97 L28.3562 1148.97 L28.3562 1143.08 L33.8944 1143.08 Q30.616 1141.07 29.0564 1138.27 Q27.4968 1135.47 27.4968 1131.62 Q27.4968 1127.74 29.4702 1125.03 Q31.4436 1122.29 35.1993 1120.99 Z" fill="#000000" fill-rule="nonzero" fill-opacity="1" /><path clip-path="url(#clip800)" d="M49.9359 1085.85 L28.3562 1085.85 L28.3562 1079.99 L49.7131 1079.99 Q54.7739 1079.99 57.3202 1078.02 Q59.8346 1076.05 59.8346 1072.1 Q59.8346 1067.36 56.8109 1064.62 Q53.7872 1061.85 48.5673 1061.85 L28.3562 1061.85 L28.3562 1056 L64.0042 1056 L64.0042 1061.85 L58.5296 1061.85 Q61.7762 1063.98 63.3676 1066.82 Q64.9272 1069.62 64.9272 1073.34 Q64.9272 1079.49 61.1078 1082.67 Q57.2883 1085.85 49.9359 1085.85 M27.4968 1071.11 L27.4968 1071.11 Z" fill="#000000" fill-rule="nonzero" fill-opacity="1" /><path clip-path="url(#clip800)" d="M18.2347 1038.14 L28.3562 1038.14 L28.3562 1026.08 L32.9077 1026.08 L32.9077 1038.14 L52.2594 1038.14 Q56.6199 1038.14 57.8613 1036.96 Q59.1026 1035.75 59.1026 1032.09 L59.1026 1026.08 L64.0042 1026.08 L64.0042 1032.09 Q64.0042 1038.87 61.4897 1041.45 Q58.9434 1044.03 52.2594 1044.03 L32.9077 1044.03 L32.9077 1048.33 L28.3562 1048.33 L28.3562 1044.03 L18.2347 1044.03 L18.2347 1038.14 Z" fill="#000000" fill-rule="nonzero" fill-opacity="1" /><path clip-path="url(#clip800)" d="M49.9359 1018.98 L28.3562 1018.98 L28.3562 1013.12 L49.7131 1013.12 Q54.7739 1013.12 57.3202 1011.15 Q59.8346 1009.18 59.8346 1005.23 Q59.8346 1000.49 56.8109 997.75 Q53.7872 994.981 48.5673 994.981 L28.3562 994.981 L28.3562 989.124 L64.0042 989.124 L64.0042 994.981 L58.5296 994.981 Q61.7762 997.113 63.3676 999.946 Q64.9272 1002.75 64.9272 1006.47 Q64.9272 1012.61 61.1078 1015.8 Q57.2883 1018.98 49.9359 1018.98 M27.4968 1004.24 L27.4968 1004.24 Z" fill="#000000" fill-rule="nonzero" fill-opacity="1" /><path clip-path="url(#clip800)" d="M46.0847 960.86 Q46.0847 967.958 47.7079 970.695 Q49.3312 973.433 53.2461 973.433 Q56.3653 973.433 58.2114 971.396 Q60.0256 969.327 60.0256 965.794 Q60.0256 960.924 56.5881 957.996 Q53.1188 955.036 47.3897 955.036 L46.0847 955.036 L46.0847 960.86 M43.6657 949.179 L64.0042 949.179 L64.0042 955.036 L58.5933 955.036 Q61.8398 957.041 63.3994 960.033 Q64.9272 963.025 64.9272 967.353 Q64.9272 972.828 61.8716 976.074 Q58.7843 979.289 53.6281 979.289 Q47.6125 979.289 44.5569 975.279 Q41.5014 971.236 41.5014 963.247 L41.5014 955.036 L40.9285 955.036 Q36.8862 955.036 34.6901 957.709 Q32.4621 960.351 32.4621 965.157 Q32.4621 968.213 33.1941 971.109 Q33.9262 974.006 35.3903 976.679 L29.9795 976.679 Q28.7381 973.464 28.1334 970.441 Q27.4968 967.417 27.4968 964.552 Q27.4968 956.818 31.5072 952.999 Q35.5176 949.179 43.6657 949.179 Z" fill="#000000" fill-rule="nonzero" fill-opacity="1" /><path clip-path="url(#clip800)" d="M14.479 937.116 L14.479 931.26 L64.0042 931.26 L64.0042 937.116 L14.479 937.116 Z" fill="#000000" fill-rule="nonzero" fill-opacity="1" /><path clip-path="url(#clip800)" d="M28.3562 898.285 L28.3562 892.429 L64.0042 892.429 L64.0042 898.285 L28.3562 898.285 M14.479 898.285 L14.479 892.429 L21.895 892.429 L21.895 898.285 L14.479 898.285 Z" fill="#000000" fill-rule="nonzero" fill-opacity="1" /><path clip-path="url(#clip800)" d="M42.4881 850.543 L64.0042 850.543 L64.0042 856.399 L42.679 856.399 Q37.6183 856.399 35.1038 858.372 Q32.5894 860.346 32.5894 864.293 Q32.5894 869.035 35.6131 871.772 Q38.6368 874.51 43.8567 874.51 L64.0042 874.51 L64.0042 880.398 L28.3562 880.398 L28.3562 874.51 L33.8944 874.51 Q30.6797 872.409 29.0883 869.576 Q27.4968 866.712 27.4968 862.988 Q27.4968 856.845 31.3163 853.694 Q35.1038 850.543 42.4881 850.543 Z" fill="#000000" fill-rule="nonzero" fill-opacity="1" /><path clip-path="url(#clip800)" d="M14.479 820.815 L19.3487 820.815 L19.3487 826.417 Q19.3487 829.568 20.6219 830.809 Q21.895 832.018 25.2052 832.018 L28.3562 832.018 L28.3562 822.374 L32.9077 822.374 L32.9077 832.018 L64.0042 832.018 L64.0042 837.907 L32.9077 837.907 L32.9077 843.509 L28.3562 843.509 L28.3562 837.907 L25.8736 837.907 Q19.9216 837.907 17.2162 835.138 Q14.479 832.369 14.479 826.353 L14.479 820.815 Z" fill="#000000" fill-rule="nonzero" fill-opacity="1" /><path clip-path="url(#clip800)" d="M32.4621 802.1 Q32.4621 806.81 36.1542 809.548 Q39.8145 812.285 46.212 812.285 Q52.6095 812.285 56.3017 809.579 Q59.9619 806.842 59.9619 802.1 Q59.9619 797.421 56.2698 794.684 Q52.5777 791.946 46.212 791.946 Q39.8781 791.946 36.186 794.684 Q32.4621 797.421 32.4621 802.1 M27.4968 802.1 Q27.4968 794.461 32.4621 790.1 Q37.4273 785.74 46.212 785.74 Q54.9649 785.74 59.9619 790.1 Q64.9272 794.461 64.9272 802.1 Q64.9272 809.77 59.9619 814.131 Q54.9649 818.459 46.212 818.459 Q37.4273 818.459 32.4621 814.131 Q27.4968 809.77 27.4968 802.1 Z" fill="#000000" fill-rule="nonzero" fill-opacity="1" /><path clip-path="url(#clip800)" d="M33.8307 755.375 Q33.2578 756.362 33.0032 757.54 Q32.7167 758.686 32.7167 760.086 Q32.7167 765.051 35.9632 767.725 Q39.1779 770.367 45.2253 770.367 L64.0042 770.367 L64.0042 776.255 L28.3562 776.255 L28.3562 770.367 L33.8944 770.367 Q30.6479 768.521 29.0883 765.56 Q27.4968 762.6 27.4968 758.367 Q27.4968 757.762 27.5923 757.03 Q27.656 756.298 27.8151 755.407 L33.8307 755.375 Z" fill="#000000" fill-rule="nonzero" fill-opacity="1" /><path clip-path="url(#clip800)" d="M35.1993 722.624 Q31.2526 720.428 29.3747 717.372 Q27.4968 714.317 27.4968 710.179 Q27.4968 704.609 31.4117 701.585 Q35.2948 698.561 42.4881 698.561 L64.0042 698.561 L64.0042 704.45 L42.679 704.45 Q37.5546 704.45 35.072 706.264 Q32.5894 708.078 32.5894 711.802 Q32.5894 716.354 35.6131 718.995 Q38.6368 721.637 43.8567 721.637 L64.0042 721.637 L64.0042 727.525 L42.679 727.525 Q37.5228 727.525 35.072 729.34 Q32.5894 731.154 32.5894 734.941 Q32.5894 739.429 35.6449 742.071 Q38.6686 744.713 43.8567 744.713 L64.0042 744.713 L64.0042 750.601 L28.3562 750.601 L28.3562 744.713 L33.8944 744.713 Q30.616 742.708 29.0564 739.907 Q27.4968 737.106 27.4968 733.255 Q27.4968 729.371 29.4702 726.666 Q31.4436 723.929 35.1993 722.624 Z" fill="#000000" fill-rule="nonzero" fill-opacity="1" /><path clip-path="url(#clip800)" d="M46.0847 670.68 Q46.0847 677.777 47.7079 680.515 Q49.3312 683.252 53.2461 683.252 Q56.3653 683.252 58.2114 681.215 Q60.0256 679.146 60.0256 675.613 Q60.0256 670.743 56.5881 667.815 Q53.1188 664.855 47.3897 664.855 L46.0847 664.855 L46.0847 670.68 M43.6657 658.999 L64.0042 658.999 L64.0042 664.855 L58.5933 664.855 Q61.8398 666.86 63.3994 669.852 Q64.9272 672.844 64.9272 677.173 Q64.9272 682.647 61.8716 685.894 Q58.7843 689.108 53.6281 689.108 Q47.6125 689.108 44.5569 685.098 Q41.5014 681.056 41.5014 673.067 L41.5014 664.855 L40.9285 664.855 Q36.8862 664.855 34.6901 667.529 Q32.4621 670.17 32.4621 674.976 Q32.4621 678.032 33.1941 680.928 Q33.9262 683.825 35.3903 686.498 L29.9795 686.498 Q28.7381 683.284 28.1334 680.26 Q27.4968 677.236 27.4968 674.372 Q27.4968 666.637 31.5072 662.818 Q35.5176 658.999 43.6657 658.999 Z" fill="#000000" fill-rule="nonzero" fill-opacity="1" /><path clip-path="url(#clip800)" d="M18.2347 641.143 L28.3562 641.143 L28.3562 629.08 L32.9077 629.08 L32.9077 641.143 L52.2594 641.143 Q56.6199 641.143 57.8613 639.965 Q59.1026 638.756 59.1026 635.095 L59.1026 629.08 L64.0042 629.08 L64.0042 635.095 Q64.0042 641.875 61.4897 644.453 Q58.9434 647.031 52.2594 647.031 L32.9077 647.031 L32.9077 651.328 L28.3562 651.328 L28.3562 647.031 L18.2347 647.031 L18.2347 641.143 Z" fill="#000000" fill-rule="nonzero" fill-opacity="1" /><path clip-path="url(#clip800)" d="M28.3562 621.377 L28.3562 615.521 L64.0042 615.521 L64.0042 621.377 L28.3562 621.377 M14.479 621.377 L14.479 615.521 L21.895 615.521 L21.895 621.377 L14.479 621.377 Z" fill="#000000" fill-rule="nonzero" fill-opacity="1" /><path clip-path="url(#clip800)" d="M32.4621 589.453 Q32.4621 594.164 36.1542 596.901 Q39.8145 599.638 46.212 599.638 Q52.6095 599.638 56.3017 596.933 Q59.9619 594.196 59.9619 589.453 Q59.9619 584.774 56.2698 582.037 Q52.5777 579.3 46.212 579.3 Q39.8781 579.3 36.186 582.037 Q32.4621 584.774 32.4621 589.453 M27.4968 589.453 Q27.4968 581.814 32.4621 577.454 Q37.4273 573.093 46.212 573.093 Q54.9649 573.093 59.9619 577.454 Q64.9272 581.814 64.9272 589.453 Q64.9272 597.124 59.9619 601.484 Q54.9649 605.813 46.212 605.813 Q37.4273 605.813 32.4621 601.484 Q27.4968 597.124 27.4968 589.453 Z" fill="#000000" fill-rule="nonzero" fill-opacity="1" /><path clip-path="url(#clip800)" d="M42.4881 533.753 L64.0042 533.753 L64.0042 539.61 L42.679 539.61 Q37.6183 539.61 35.1038 541.583 Q32.5894 543.556 32.5894 547.503 Q32.5894 552.246 35.6131 554.983 Q38.6368 557.72 43.8567 557.72 L64.0042 557.72 L64.0042 563.608 L28.3562 563.608 L28.3562 557.72 L33.8944 557.72 Q30.6797 555.619 29.0883 552.787 Q27.4968 549.922 27.4968 546.198 Q27.4968 540.055 31.3163 536.904 Q35.1038 533.753 42.4881 533.753 Z" fill="#000000" fill-rule="nonzero" fill-opacity="1" /><path clip-path="url(#clip800)" d="M14.5426 487.284 Q21.8632 491.549 29.0246 493.617 Q36.186 495.686 43.5384 495.686 Q50.8908 495.686 58.1159 493.617 Q65.3091 491.517 72.5979 487.284 L72.5979 492.376 Q65.1182 497.15 57.8931 499.538 Q50.668 501.893 43.5384 501.893 Q36.4406 501.893 29.2474 499.538 Q22.0542 497.182 14.5426 492.376 L14.5426 487.284 Z" fill="#000000" fill-rule="nonzero" fill-opacity="1" /><path clip-path="url(#clip800)" d="M42.4881 446.288 L64.0042 446.288 L64.0042 452.145 L42.679 452.145 Q37.6183 452.145 35.1038 454.118 Q32.5894 456.092 32.5894 460.038 Q32.5894 464.781 35.6131 467.518 Q38.6368 470.255 43.8567 470.255 L64.0042 470.255 L64.0042 476.144 L28.3562 476.144 L28.3562 470.255 L33.8944 470.255 Q30.6797 468.155 29.0883 465.322 Q27.4968 462.457 27.4968 458.733 Q27.4968 452.591 31.3163 449.439 Q35.1038 446.288 42.4881 446.288 Z" fill="#000000" fill-rule="nonzero" fill-opacity="1" /><path clip-path="url(#clip800)" d="M46.0847 418.407 Q46.0847 425.504 47.7079 428.242 Q49.3312 430.979 53.2461 430.979 Q56.3653 430.979 58.2114 428.942 Q60.0256 426.873 60.0256 423.34 Q60.0256 418.47 56.5881 415.542 Q53.1188 412.582 47.3897 412.582 L46.0847 412.582 L46.0847 418.407 M43.6657 406.726 L64.0042 406.726 L64.0042 412.582 L58.5933 412.582 Q61.8398 414.587 63.3994 417.579 Q64.9272 420.571 64.9272 424.9 Q64.9272 430.374 61.8716 433.621 Q58.7843 436.835 53.6281 436.835 Q47.6125 436.835 44.5569 432.825 Q41.5014 428.783 41.5014 420.794 L41.5014 412.582 L40.9285 412.582 Q36.8862 412.582 34.6901 415.256 Q32.4621 417.897 32.4621 422.704 Q32.4621 425.759 33.1941 428.655 Q33.9262 431.552 35.3903 434.225 L29.9795 434.225 Q28.7381 431.011 28.1334 427.987 Q27.4968 424.963 27.4968 422.099 Q27.4968 414.364 31.5072 410.545 Q35.5176 406.726 43.6657 406.726 Z" fill="#000000" fill-rule="nonzero" fill-opacity="1" /><path clip-path="url(#clip800)" d="M18.2347 388.87 L28.3562 388.87 L28.3562 376.807 L32.9077 376.807 L32.9077 388.87 L52.2594 388.87 Q56.6199 388.87 57.8613 387.692 Q59.1026 386.483 59.1026 382.822 L59.1026 376.807 L64.0042 376.807 L64.0042 382.822 Q64.0042 389.602 61.4897 392.18 Q58.9434 394.758 52.2594 394.758 L32.9077 394.758 L32.9077 399.055 L28.3562 399.055 L28.3562 394.758 L18.2347 394.758 L18.2347 388.87 Z" fill="#000000" fill-rule="nonzero" fill-opacity="1" /><path clip-path="url(#clip800)" d="M29.4065 346.379 L34.9447 346.379 Q33.6716 348.861 33.035 351.535 Q32.3984 354.209 32.3984 357.073 Q32.3984 361.434 33.7352 363.63 Q35.072 365.794 37.7456 365.794 Q39.7826 365.794 40.9603 364.235 Q42.1061 362.675 43.1565 357.964 L43.6021 355.959 Q44.9389 349.721 47.3897 347.111 Q49.8086 344.469 54.1691 344.469 Q59.1344 344.469 62.0308 348.416 Q64.9272 352.331 64.9272 359.206 Q64.9272 362.07 64.3543 365.189 Q63.8132 368.277 62.6992 371.714 L56.6518 371.714 Q58.3387 368.468 59.198 365.317 Q60.0256 362.166 60.0256 359.078 Q60.0256 354.941 58.6251 352.713 Q57.1929 350.485 54.6147 350.485 Q52.2276 350.485 50.9545 352.108 Q49.6813 353.699 48.5037 359.142 L48.0262 361.179 Q46.8804 366.622 44.5251 369.041 Q42.138 371.46 38.0002 371.46 Q32.9713 371.46 30.2341 367.895 Q27.4968 364.33 27.4968 357.773 Q27.4968 354.527 27.9743 351.662 Q28.4517 348.798 29.4065 346.379 Z" fill="#000000" fill-rule="nonzero" fill-opacity="1" /><path clip-path="url(#clip800)" d="M14.5426 336.066 L14.5426 330.974 Q22.0542 326.199 29.2474 323.844 Q36.4406 321.457 43.5384 321.457 Q50.668 321.457 57.8931 323.844 Q65.1182 326.199 72.5979 330.974 L72.5979 336.066 Q65.3091 331.833 58.1159 329.764 Q50.8908 327.664 43.5384 327.664 Q36.186 327.664 29.0246 329.764 Q21.8632 331.833 14.5426 336.066 Z" fill="#000000" fill-rule="nonzero" fill-opacity="1" /><polyline clip-path="url(#clip801)" style="stroke:#000000; stroke-linecap:round; stroke-linejoin:round; stroke-width:8; stroke-opacity:1; fill:none" points="235.808,1367.86 256.361,1370.41 276.913,1370.4 297.466,1376.19 318.019,1368.27 338.572,1348.23 359.125,1354.18 379.678,1339.1 400.231,1339.02 420.784,1325.94 441.337,1321.32 461.889,1290.1 482.442,1278.27 502.995,1269.63 523.548,1252.36 544.101,1252.87 564.654,1256.41 585.207,1256.46 605.76,1239.93 626.313,1223.3 646.866,1212.13 667.418,1202.67 687.971,1202.93 708.524,1184.26 729.077,1152.53 749.63,1149.48 770.183,1126.76 790.736,1131.32 811.289,1115.2 831.842,1119.19 852.394,1097.15 872.947,1103.4 893.5,1092.98 914.053,1079.84 934.606,1079.8 955.159,1056.39 975.712,1034.6 996.265,1004.36 1016.82,992.802 1037.37,987.016 1057.92,988.196 1078.48,961.267 1099.03,930.219 1119.58,911.324 1140.14,902.256 1160.69,884.667 1181.24,884.546 1201.79,866.898 1222.35,851.349 1242.9,833.917 1263.45,839.353 1284.01,819.005 1304.56,805.535 1325.11,804.634 1345.66,786.735 1366.22,793.326 1386.77,780.865 1407.32,758.136 1427.88,741.828 1448.43,741.15 1468.98,731.338 1489.53,731.27 1510.09,715.991 1530.64,682.175 1551.19,678.099 1571.75,674.451 1592.3,683.857 1612.85,668.093 1633.4,655.65 1653.96,630.14 1674.51,629.872 1695.06,622.595 1715.62,619.374 1736.17,602.834 1756.72,585.478 1777.27,547.018 1797.83,517.329 1818.38,501.219 1838.93,503.129 1859.49,483.846 1880.04,465.386 1900.59,449.901 1921.15,438.525 1941.7,408.438 1962.25,411.209 1982.8,392.507 2003.36,376.807 2023.91,364.509 2044.46,337.781 2065.02,317.325 2085.57,307.135 2106.12,292.686 2126.67,281.941 2147.23,254.773 2167.78,229.807 2188.33,209.229 2208.89,211.624 2229.44,211.803 2249.99,204.609 2270.54,192.545 2291.1,193.514 "/>
<polyline clip-path="url(#clip801)" style="stroke:#000000; stroke-linecap:round; stroke-linejoin:round; stroke-width:8; stroke-opacity:1; fill:none" points="235.808,1367.86 235.808,1367.86 "/>
<polyline clip-path="url(#clip801)" style="stroke:#000000; stroke-linecap:round; stroke-linejoin:round; stroke-width:8; stroke-opacity:1; fill:none" points="256.361,1372.32 256.361,1368.5 "/>
<polyline clip-path="url(#clip801)" style="stroke:#000000; stroke-linecap:round; stroke-linejoin:round; stroke-width:8; stroke-opacity:1; fill:none" points="276.913,1375.89 276.913,1364.91 "/>
<polyline clip-path="url(#clip801)" style="stroke:#000000; stroke-linecap:round; stroke-linejoin:round; stroke-width:8; stroke-opacity:1; fill:none" points="297.466,1384.24 297.466,1368.13 "/>
<polyline clip-path="url(#clip801)" style="stroke:#000000; stroke-linecap:round; stroke-linejoin:round; stroke-width:8; stroke-opacity:1; fill:none" points="318.019,1378.89 318.019,1357.65 "/>
<polyline clip-path="url(#clip801)" style="stroke:#000000; stroke-linecap:round; stroke-linejoin:round; stroke-width:8; stroke-opacity:1; fill:none" points="338.572,1359.86 338.572,1336.61 "/>
<polyline clip-path="url(#clip801)" style="stroke:#000000; stroke-linecap:round; stroke-linejoin:round; stroke-width:8; stroke-opacity:1; fill:none" points="359.125,1367.34 359.125,1341.02 "/>
<polyline clip-path="url(#clip801)" style="stroke:#000000; stroke-linecap:round; stroke-linejoin:round; stroke-width:8; stroke-opacity:1; fill:none" points="379.678,1354.79 379.678,1323.41 "/>
<polyline clip-path="url(#clip801)" style="stroke:#000000; stroke-linecap:round; stroke-linejoin:round; stroke-width:8; stroke-opacity:1; fill:none" points="400.231,1355.04 400.231,1322.99 "/>
<polyline clip-path="url(#clip801)" style="stroke:#000000; stroke-linecap:round; stroke-linejoin:round; stroke-width:8; stroke-opacity:1; fill:none" points="420.784,1343.83 420.784,1308.05 "/>
<polyline clip-path="url(#clip801)" style="stroke:#000000; stroke-linecap:round; stroke-linejoin:round; stroke-width:8; stroke-opacity:1; fill:none" points="441.337,1340.62 441.337,1302.02 "/>
<polyline clip-path="url(#clip801)" style="stroke:#000000; stroke-linecap:round; stroke-linejoin:round; stroke-width:8; stroke-opacity:1; fill:none" points="461.889,1311.36 461.889,1268.84 "/>
<polyline clip-path="url(#clip801)" style="stroke:#000000; stroke-linecap:round; stroke-linejoin:round; stroke-width:8; stroke-opacity:1; fill:none" points="482.442,1303.14 482.442,1253.39 "/>
<polyline clip-path="url(#clip801)" style="stroke:#000000; stroke-linecap:round; stroke-linejoin:round; stroke-width:8; stroke-opacity:1; fill:none" points="502.995,1296.85 502.995,1242.41 "/>
<polyline clip-path="url(#clip801)" style="stroke:#000000; stroke-linecap:round; stroke-linejoin:round; stroke-width:8; stroke-opacity:1; fill:none" points="523.548,1280.34 523.548,1224.38 "/>
<polyline clip-path="url(#clip801)" style="stroke:#000000; stroke-linecap:round; stroke-linejoin:round; stroke-width:8; stroke-opacity:1; fill:none" points="544.101,1280.62 544.101,1225.13 "/>
<polyline clip-path="url(#clip801)" style="stroke:#000000; stroke-linecap:round; stroke-linejoin:round; stroke-width:8; stroke-opacity:1; fill:none" points="564.654,1288.51 564.654,1224.31 "/>
<polyline clip-path="url(#clip801)" style="stroke:#000000; stroke-linecap:round; stroke-linejoin:round; stroke-width:8; stroke-opacity:1; fill:none" points="585.207,1293.08 585.207,1219.85 "/>
<polyline clip-path="url(#clip801)" style="stroke:#000000; stroke-linecap:round; stroke-linejoin:round; stroke-width:8; stroke-opacity:1; fill:none" points="605.76,1276.13 605.76,1203.74 "/>
<polyline clip-path="url(#clip801)" style="stroke:#000000; stroke-linecap:round; stroke-linejoin:round; stroke-width:8; stroke-opacity:1; fill:none" points="626.313,1262.25 626.313,1184.36 "/>
<polyline clip-path="url(#clip801)" style="stroke:#000000; stroke-linecap:round; stroke-linejoin:round; stroke-width:8; stroke-opacity:1; fill:none" points="646.866,1250.59 646.866,1173.67 "/>
<polyline clip-path="url(#clip801)" style="stroke:#000000; stroke-linecap:round; stroke-linejoin:round; stroke-width:8; stroke-opacity:1; fill:none" points="667.418,1244.81 667.418,1160.53 "/>
<polyline clip-path="url(#clip801)" style="stroke:#000000; stroke-linecap:round; stroke-linejoin:round; stroke-width:8; stroke-opacity:1; fill:none" points="687.971,1247.75 687.971,1158.1 "/>
<polyline clip-path="url(#clip801)" style="stroke:#000000; stroke-linecap:round; stroke-linejoin:round; stroke-width:8; stroke-opacity:1; fill:none" points="708.524,1229.09 708.524,1139.44 "/>
<polyline clip-path="url(#clip801)" style="stroke:#000000; stroke-linecap:round; stroke-linejoin:round; stroke-width:8; stroke-opacity:1; fill:none" points="729.077,1199.9 729.077,1105.15 "/>
<polyline clip-path="url(#clip801)" style="stroke:#000000; stroke-linecap:round; stroke-linejoin:round; stroke-width:8; stroke-opacity:1; fill:none" points="749.63,1198.92 749.63,1100.04 "/>
<polyline clip-path="url(#clip801)" style="stroke:#000000; stroke-linecap:round; stroke-linejoin:round; stroke-width:8; stroke-opacity:1; fill:none" points="770.183,1180.2 770.183,1073.32 "/>
<polyline clip-path="url(#clip801)" style="stroke:#000000; stroke-linecap:round; stroke-linejoin:round; stroke-width:8; stroke-opacity:1; fill:none" points="790.736,1188.79 790.736,1073.84 "/>
<polyline clip-path="url(#clip801)" style="stroke:#000000; stroke-linecap:round; stroke-linejoin:round; stroke-width:8; stroke-opacity:1; fill:none" points="811.289,1173.5 811.289,1056.9 "/>
<polyline clip-path="url(#clip801)" style="stroke:#000000; stroke-linecap:round; stroke-linejoin:round; stroke-width:8; stroke-opacity:1; fill:none" points="831.842,1182.23 831.842,1056.16 "/>
<polyline clip-path="url(#clip801)" style="stroke:#000000; stroke-linecap:round; stroke-linejoin:round; stroke-width:8; stroke-opacity:1; fill:none" points="852.394,1160.99 852.394,1033.31 "/>
<polyline clip-path="url(#clip801)" style="stroke:#000000; stroke-linecap:round; stroke-linejoin:round; stroke-width:8; stroke-opacity:1; fill:none" points="872.947,1169.98 872.947,1036.81 "/>
<polyline clip-path="url(#clip801)" style="stroke:#000000; stroke-linecap:round; stroke-linejoin:round; stroke-width:8; stroke-opacity:1; fill:none" points="893.5,1160.31 893.5,1025.65 "/>
<polyline clip-path="url(#clip801)" style="stroke:#000000; stroke-linecap:round; stroke-linejoin:round; stroke-width:8; stroke-opacity:1; fill:none" points="914.053,1149.41 914.053,1010.27 "/>
<polyline clip-path="url(#clip801)" style="stroke:#000000; stroke-linecap:round; stroke-linejoin:round; stroke-width:8; stroke-opacity:1; fill:none" points="934.606,1150.01 934.606,1009.58 "/>
<polyline clip-path="url(#clip801)" style="stroke:#000000; stroke-linecap:round; stroke-linejoin:round; stroke-width:8; stroke-opacity:1; fill:none" points="955.159,1128.33 955.159,984.444 "/>
<polyline clip-path="url(#clip801)" style="stroke:#000000; stroke-linecap:round; stroke-linejoin:round; stroke-width:8; stroke-opacity:1; fill:none" points="975.712,1104.03 975.712,965.157 "/>
<polyline clip-path="url(#clip801)" style="stroke:#000000; stroke-linecap:round; stroke-linejoin:round; stroke-width:8; stroke-opacity:1; fill:none" points="996.265,1073.2 996.265,935.519 "/>
<polyline clip-path="url(#clip801)" style="stroke:#000000; stroke-linecap:round; stroke-linejoin:round; stroke-width:8; stroke-opacity:1; fill:none" points="1016.82,1062.18 1016.82,923.423 "/>
<polyline clip-path="url(#clip801)" style="stroke:#000000; stroke-linecap:round; stroke-linejoin:round; stroke-width:8; stroke-opacity:1; fill:none" points="1037.37,1056.34 1037.37,917.695 "/>
<polyline clip-path="url(#clip801)" style="stroke:#000000; stroke-linecap:round; stroke-linejoin:round; stroke-width:8; stroke-opacity:1; fill:none" points="1057.92,1056.94 1057.92,919.447 "/>
<polyline clip-path="url(#clip801)" style="stroke:#000000; stroke-linecap:round; stroke-linejoin:round; stroke-width:8; stroke-opacity:1; fill:none" points="1078.48,1033.2 1078.48,889.331 "/>
<polyline clip-path="url(#clip801)" style="stroke:#000000; stroke-linecap:round; stroke-linejoin:round; stroke-width:8; stroke-opacity:1; fill:none" points="1099.03,1003.08 1099.03,857.362 "/>
<polyline clip-path="url(#clip801)" style="stroke:#000000; stroke-linecap:round; stroke-linejoin:round; stroke-width:8; stroke-opacity:1; fill:none" points="1119.58,984.962 1119.58,837.687 "/>
<polyline clip-path="url(#clip801)" style="stroke:#000000; stroke-linecap:round; stroke-linejoin:round; stroke-width:8; stroke-opacity:1; fill:none" points="1140.14,976.954 1140.14,827.557 "/>
<polyline clip-path="url(#clip801)" style="stroke:#000000; stroke-linecap:round; stroke-linejoin:round; stroke-width:8; stroke-opacity:1; fill:none" points="1160.69,959.097 1160.69,810.238 "/>
<polyline clip-path="url(#clip801)" style="stroke:#000000; stroke-linecap:round; stroke-linejoin:round; stroke-width:8; stroke-opacity:1; fill:none" points="1181.24,959.094 1181.24,809.998 "/>
<polyline clip-path="url(#clip801)" style="stroke:#000000; stroke-linecap:round; stroke-linejoin:round; stroke-width:8; stroke-opacity:1; fill:none" points="1201.79,940.832 1201.79,792.963 "/>
<polyline clip-path="url(#clip801)" style="stroke:#000000; stroke-linecap:round; stroke-linejoin:round; stroke-width:8; stroke-opacity:1; fill:none" points="1222.35,927.027 1222.35,775.671 "/>
<polyline clip-path="url(#clip801)" style="stroke:#000000; stroke-linecap:round; stroke-linejoin:round; stroke-width:8; stroke-opacity:1; fill:none" points="1242.9,911.393 1242.9,756.442 "/>
<polyline clip-path="url(#clip801)" style="stroke:#000000; stroke-linecap:round; stroke-linejoin:round; stroke-width:8; stroke-opacity:1; fill:none" points="1263.45,917.382 1263.45,761.325 "/>
<polyline clip-path="url(#clip801)" style="stroke:#000000; stroke-linecap:round; stroke-linejoin:round; stroke-width:8; stroke-opacity:1; fill:none" points="1284.01,896.507 1284.01,741.503 "/>
<polyline clip-path="url(#clip801)" style="stroke:#000000; stroke-linecap:round; stroke-linejoin:round; stroke-width:8; stroke-opacity:1; fill:none" points="1304.56,883.458 1304.56,727.612 "/>
<polyline clip-path="url(#clip801)" style="stroke:#000000; stroke-linecap:round; stroke-linejoin:round; stroke-width:8; stroke-opacity:1; fill:none" points="1325.11,883.326 1325.11,725.942 "/>
<polyline clip-path="url(#clip801)" style="stroke:#000000; stroke-linecap:round; stroke-linejoin:round; stroke-width:8; stroke-opacity:1; fill:none" points="1345.66,866.807 1345.66,706.663 "/>
<polyline clip-path="url(#clip801)" style="stroke:#000000; stroke-linecap:round; stroke-linejoin:round; stroke-width:8; stroke-opacity:1; fill:none" points="1366.22,872.702 1366.22,713.95 "/>
<polyline clip-path="url(#clip801)" style="stroke:#000000; stroke-linecap:round; stroke-linejoin:round; stroke-width:8; stroke-opacity:1; fill:none" points="1386.77,864.886 1386.77,696.844 "/>
<polyline clip-path="url(#clip801)" style="stroke:#000000; stroke-linecap:round; stroke-linejoin:round; stroke-width:8; stroke-opacity:1; fill:none" points="1407.32,843.426 1407.32,672.845 "/>
<polyline clip-path="url(#clip801)" style="stroke:#000000; stroke-linecap:round; stroke-linejoin:round; stroke-width:8; stroke-opacity:1; fill:none" points="1427.88,826.521 1427.88,657.136 "/>
<polyline clip-path="url(#clip801)" style="stroke:#000000; stroke-linecap:round; stroke-linejoin:round; stroke-width:8; stroke-opacity:1; fill:none" points="1448.43,825.855 1448.43,656.445 "/>
<polyline clip-path="url(#clip801)" style="stroke:#000000; stroke-linecap:round; stroke-linejoin:round; stroke-width:8; stroke-opacity:1; fill:none" points="1468.98,815.404 1468.98,647.272 "/>
<polyline clip-path="url(#clip801)" style="stroke:#000000; stroke-linecap:round; stroke-linejoin:round; stroke-width:8; stroke-opacity:1; fill:none" points="1489.53,815.564 1489.53,646.975 "/>
<polyline clip-path="url(#clip801)" style="stroke:#000000; stroke-linecap:round; stroke-linejoin:round; stroke-width:8; stroke-opacity:1; fill:none" points="1510.09,800.616 1510.09,631.366 "/>
<polyline clip-path="url(#clip801)" style="stroke:#000000; stroke-linecap:round; stroke-linejoin:round; stroke-width:8; stroke-opacity:1; fill:none" points="1530.64,766.06 1530.64,598.29 "/>
<polyline clip-path="url(#clip801)" style="stroke:#000000; stroke-linecap:round; stroke-linejoin:round; stroke-width:8; stroke-opacity:1; fill:none" points="1551.19,760.958 1551.19,595.241 "/>
<polyline clip-path="url(#clip801)" style="stroke:#000000; stroke-linecap:round; stroke-linejoin:round; stroke-width:8; stroke-opacity:1; fill:none" points="1571.75,757.383 1571.75,591.519 "/>
<polyline clip-path="url(#clip801)" style="stroke:#000000; stroke-linecap:round; stroke-linejoin:round; stroke-width:8; stroke-opacity:1; fill:none" points="1592.3,767.511 1592.3,600.204 "/>
<polyline clip-path="url(#clip801)" style="stroke:#000000; stroke-linecap:round; stroke-linejoin:round; stroke-width:8; stroke-opacity:1; fill:none" points="1612.85,752.611 1612.85,583.575 "/>
<polyline clip-path="url(#clip801)" style="stroke:#000000; stroke-linecap:round; stroke-linejoin:round; stroke-width:8; stroke-opacity:1; fill:none" points="1633.4,741.025 1633.4,570.276 "/>
<polyline clip-path="url(#clip801)" style="stroke:#000000; stroke-linecap:round; stroke-linejoin:round; stroke-width:8; stroke-opacity:1; fill:none" points="1653.96,717.179 1653.96,543.102 "/>
<polyline clip-path="url(#clip801)" style="stroke:#000000; stroke-linecap:round; stroke-linejoin:round; stroke-width:8; stroke-opacity:1; fill:none" points="1674.51,716.966 1674.51,542.779 "/>
<polyline clip-path="url(#clip801)" style="stroke:#000000; stroke-linecap:round; stroke-linejoin:round; stroke-width:8; stroke-opacity:1; fill:none" points="1695.06,711.049 1695.06,534.142 "/>
<polyline clip-path="url(#clip801)" style="stroke:#000000; stroke-linecap:round; stroke-linejoin:round; stroke-width:8; stroke-opacity:1; fill:none" points="1715.62,707.953 1715.62,530.795 "/>
<polyline clip-path="url(#clip801)" style="stroke:#000000; stroke-linecap:round; stroke-linejoin:round; stroke-width:8; stroke-opacity:1; fill:none" points="1736.17,691.297 1736.17,514.37 "/>
<polyline clip-path="url(#clip801)" style="stroke:#000000; stroke-linecap:round; stroke-linejoin:round; stroke-width:8; stroke-opacity:1; fill:none" points="1756.72,674.906 1756.72,496.049 "/>
<polyline clip-path="url(#clip801)" style="stroke:#000000; stroke-linecap:round; stroke-linejoin:round; stroke-width:8; stroke-opacity:1; fill:none" points="1777.27,635.425 1777.27,458.612 "/>
<polyline clip-path="url(#clip801)" style="stroke:#000000; stroke-linecap:round; stroke-linejoin:round; stroke-width:8; stroke-opacity:1; fill:none" points="1797.83,608.421 1797.83,426.236 "/>
<polyline clip-path="url(#clip801)" style="stroke:#000000; stroke-linecap:round; stroke-linejoin:round; stroke-width:8; stroke-opacity:1; fill:none" points="1818.38,591.445 1818.38,410.994 "/>
<polyline clip-path="url(#clip801)" style="stroke:#000000; stroke-linecap:round; stroke-linejoin:round; stroke-width:8; stroke-opacity:1; fill:none" points="1838.93,594.252 1838.93,412.005 "/>
<polyline clip-path="url(#clip801)" style="stroke:#000000; stroke-linecap:round; stroke-linejoin:round; stroke-width:8; stroke-opacity:1; fill:none" points="1859.49,577.501 1859.49,390.191 "/>
<polyline clip-path="url(#clip801)" style="stroke:#000000; stroke-linecap:round; stroke-linejoin:round; stroke-width:8; stroke-opacity:1; fill:none" points="1880.04,559.094 1880.04,371.678 "/>
<polyline clip-path="url(#clip801)" style="stroke:#000000; stroke-linecap:round; stroke-linejoin:round; stroke-width:8; stroke-opacity:1; fill:none" points="1900.59,544.111 1900.59,355.691 "/>
<polyline clip-path="url(#clip801)" style="stroke:#000000; stroke-linecap:round; stroke-linejoin:round; stroke-width:8; stroke-opacity:1; fill:none" points="1921.15,533.368 1921.15,343.683 "/>
<polyline clip-path="url(#clip801)" style="stroke:#000000; stroke-linecap:round; stroke-linejoin:round; stroke-width:8; stroke-opacity:1; fill:none" points="1941.7,503.704 1941.7,313.173 "/>
<polyline clip-path="url(#clip801)" style="stroke:#000000; stroke-linecap:round; stroke-linejoin:round; stroke-width:8; stroke-opacity:1; fill:none" points="1962.25,505.26 1962.25,317.158 "/>
<polyline clip-path="url(#clip801)" style="stroke:#000000; stroke-linecap:round; stroke-linejoin:round; stroke-width:8; stroke-opacity:1; fill:none" points="1982.8,487.277 1982.8,297.737 "/>
<polyline clip-path="url(#clip801)" style="stroke:#000000; stroke-linecap:round; stroke-linejoin:round; stroke-width:8; stroke-opacity:1; fill:none" points="2003.36,470.614 2003.36,282.999 "/>
<polyline clip-path="url(#clip801)" style="stroke:#000000; stroke-linecap:round; stroke-linejoin:round; stroke-width:8; stroke-opacity:1; fill:none" points="2023.91,459.18 2023.91,269.838 "/>
<polyline clip-path="url(#clip801)" style="stroke:#000000; stroke-linecap:round; stroke-linejoin:round; stroke-width:8; stroke-opacity:1; fill:none" points="2044.46,433.301 2044.46,242.262 "/>
<polyline clip-path="url(#clip801)" style="stroke:#000000; stroke-linecap:round; stroke-linejoin:round; stroke-width:8; stroke-opacity:1; fill:none" points="2065.02,412.645 2065.02,222.006 "/>
<polyline clip-path="url(#clip801)" style="stroke:#000000; stroke-linecap:round; stroke-linejoin:round; stroke-width:8; stroke-opacity:1; fill:none" points="2085.57,402.844 2085.57,211.426 "/>
<polyline clip-path="url(#clip801)" style="stroke:#000000; stroke-linecap:round; stroke-linejoin:round; stroke-width:8; stroke-opacity:1; fill:none" points="2106.12,391.058 2106.12,194.315 "/>
<polyline clip-path="url(#clip801)" style="stroke:#000000; stroke-linecap:round; stroke-linejoin:round; stroke-width:8; stroke-opacity:1; fill:none" points="2126.67,381.631 2126.67,182.252 "/>
<polyline clip-path="url(#clip801)" style="stroke:#000000; stroke-linecap:round; stroke-linejoin:round; stroke-width:8; stroke-opacity:1; fill:none" points="2147.23,354.704 2147.23,154.842 "/>
<polyline clip-path="url(#clip801)" style="stroke:#000000; stroke-linecap:round; stroke-linejoin:round; stroke-width:8; stroke-opacity:1; fill:none" points="2167.78,330.239 2167.78,129.375 "/>
<polyline clip-path="url(#clip801)" style="stroke:#000000; stroke-linecap:round; stroke-linejoin:round; stroke-width:8; stroke-opacity:1; fill:none" points="2188.33,310.466 2188.33,107.991 "/>
<polyline clip-path="url(#clip801)" style="stroke:#000000; stroke-linecap:round; stroke-linejoin:round; stroke-width:8; stroke-opacity:1; fill:none" points="2208.89,312.891 2208.89,110.357 "/>
<polyline clip-path="url(#clip801)" style="stroke:#000000; stroke-linecap:round; stroke-linejoin:round; stroke-width:8; stroke-opacity:1; fill:none" points="2229.44,315.283 2229.44,108.322 "/>
<polyline clip-path="url(#clip801)" style="stroke:#000000; stroke-linecap:round; stroke-linejoin:round; stroke-width:8; stroke-opacity:1; fill:none" points="2249.99,310.167 2249.99,99.0504 "/>
<polyline clip-path="url(#clip801)" style="stroke:#000000; stroke-linecap:round; stroke-linejoin:round; stroke-width:8; stroke-opacity:1; fill:none" points="2270.54,298.905 2270.54,86.1857 "/>
<polyline clip-path="url(#clip801)" style="stroke:#000000; stroke-linecap:round; stroke-linejoin:round; stroke-width:8; stroke-opacity:1; fill:none" points="2291.1,299.717 2291.1,87.3114 "/>
<line clip-path="url(#clip801)" x1="251.808" y1="1367.86" x2="219.808" y2="1367.86" style="stroke:#000000; stroke-width:8; stroke-opacity:1"/>
<line clip-path="url(#clip801)" x1="251.808" y1="1367.86" x2="219.808" y2="1367.86" style="stroke:#000000; stroke-width:8; stroke-opacity:1"/>
<line clip-path="url(#clip801)" x1="272.361" y1="1372.32" x2="240.361" y2="1372.32" style="stroke:#000000; stroke-width:8; stroke-opacity:1"/>
<line clip-path="url(#clip801)" x1="272.361" y1="1368.5" x2="240.361" y2="1368.5" style="stroke:#000000; stroke-width:8; stroke-opacity:1"/>
<line clip-path="url(#clip801)" x1="292.913" y1="1375.89" x2="260.913" y2="1375.89" style="stroke:#000000; stroke-width:8; stroke-opacity:1"/>
<line clip-path="url(#clip801)" x1="292.913" y1="1364.91" x2="260.913" y2="1364.91" style="stroke:#000000; stroke-width:8; stroke-opacity:1"/>
<line clip-path="url(#clip801)" x1="313.466" y1="1384.24" x2="281.466" y2="1384.24" style="stroke:#000000; stroke-width:8; stroke-opacity:1"/>
<line clip-path="url(#clip801)" x1="313.466" y1="1368.13" x2="281.466" y2="1368.13" style="stroke:#000000; stroke-width:8; stroke-opacity:1"/>
<line clip-path="url(#clip801)" x1="334.019" y1="1378.89" x2="302.019" y2="1378.89" style="stroke:#000000; stroke-width:8; stroke-opacity:1"/>
<line clip-path="url(#clip801)" x1="334.019" y1="1357.65" x2="302.019" y2="1357.65" style="stroke:#000000; stroke-width:8; stroke-opacity:1"/>
<line clip-path="url(#clip801)" x1="354.572" y1="1359.86" x2="322.572" y2="1359.86" style="stroke:#000000; stroke-width:8; stroke-opacity:1"/>
<line clip-path="url(#clip801)" x1="354.572" y1="1336.61" x2="322.572" y2="1336.61" style="stroke:#000000; stroke-width:8; stroke-opacity:1"/>
<line clip-path="url(#clip801)" x1="375.125" y1="1367.34" x2="343.125" y2="1367.34" style="stroke:#000000; stroke-width:8; stroke-opacity:1"/>
<line clip-path="url(#clip801)" x1="375.125" y1="1341.02" x2="343.125" y2="1341.02" style="stroke:#000000; stroke-width:8; stroke-opacity:1"/>
<line clip-path="url(#clip801)" x1="395.678" y1="1354.79" x2="363.678" y2="1354.79" style="stroke:#000000; stroke-width:8; stroke-opacity:1"/>
<line clip-path="url(#clip801)" x1="395.678" y1="1323.41" x2="363.678" y2="1323.41" style="stroke:#000000; stroke-width:8; stroke-opacity:1"/>
<line clip-path="url(#clip801)" x1="416.231" y1="1355.04" x2="384.231" y2="1355.04" style="stroke:#000000; stroke-width:8; stroke-opacity:1"/>
<line clip-path="url(#clip801)" x1="416.231" y1="1322.99" x2="384.231" y2="1322.99" style="stroke:#000000; stroke-width:8; stroke-opacity:1"/>
<line clip-path="url(#clip801)" x1="436.784" y1="1343.83" x2="404.784" y2="1343.83" style="stroke:#000000; stroke-width:8; stroke-opacity:1"/>
<line clip-path="url(#clip801)" x1="436.784" y1="1308.05" x2="404.784" y2="1308.05" style="stroke:#000000; stroke-width:8; stroke-opacity:1"/>
<line clip-path="url(#clip801)" x1="457.337" y1="1340.62" x2="425.337" y2="1340.62" style="stroke:#000000; stroke-width:8; stroke-opacity:1"/>
<line clip-path="url(#clip801)" x1="457.337" y1="1302.02" x2="425.337" y2="1302.02" style="stroke:#000000; stroke-width:8; stroke-opacity:1"/>
<line clip-path="url(#clip801)" x1="477.889" y1="1311.36" x2="445.889" y2="1311.36" style="stroke:#000000; stroke-width:8; stroke-opacity:1"/>
<line clip-path="url(#clip801)" x1="477.889" y1="1268.84" x2="445.889" y2="1268.84" style="stroke:#000000; stroke-width:8; stroke-opacity:1"/>
<line clip-path="url(#clip801)" x1="498.442" y1="1303.14" x2="466.442" y2="1303.14" style="stroke:#000000; stroke-width:8; stroke-opacity:1"/>
<line clip-path="url(#clip801)" x1="498.442" y1="1253.39" x2="466.442" y2="1253.39" style="stroke:#000000; stroke-width:8; stroke-opacity:1"/>
<line clip-path="url(#clip801)" x1="518.995" y1="1296.85" x2="486.995" y2="1296.85" style="stroke:#000000; stroke-width:8; stroke-opacity:1"/>
<line clip-path="url(#clip801)" x1="518.995" y1="1242.41" x2="486.995" y2="1242.41" style="stroke:#000000; stroke-width:8; stroke-opacity:1"/>
<line clip-path="url(#clip801)" x1="539.548" y1="1280.34" x2="507.548" y2="1280.34" style="stroke:#000000; stroke-width:8; stroke-opacity:1"/>
<line clip-path="url(#clip801)" x1="539.548" y1="1224.38" x2="507.548" y2="1224.38" style="stroke:#000000; stroke-width:8; stroke-opacity:1"/>
<line clip-path="url(#clip801)" x1="560.101" y1="1280.62" x2="528.101" y2="1280.62" style="stroke:#000000; stroke-width:8; stroke-opacity:1"/>
<line clip-path="url(#clip801)" x1="560.101" y1="1225.13" x2="528.101" y2="1225.13" style="stroke:#000000; stroke-width:8; stroke-opacity:1"/>
<line clip-path="url(#clip801)" x1="580.654" y1="1288.51" x2="548.654" y2="1288.51" style="stroke:#000000; stroke-width:8; stroke-opacity:1"/>
<line clip-path="url(#clip801)" x1="580.654" y1="1224.31" x2="548.654" y2="1224.31" style="stroke:#000000; stroke-width:8; stroke-opacity:1"/>
<line clip-path="url(#clip801)" x1="601.207" y1="1293.08" x2="569.207" y2="1293.08" style="stroke:#000000; stroke-width:8; stroke-opacity:1"/>
<line clip-path="url(#clip801)" x1="601.207" y1="1219.85" x2="569.207" y2="1219.85" style="stroke:#000000; stroke-width:8; stroke-opacity:1"/>
<line clip-path="url(#clip801)" x1="621.76" y1="1276.13" x2="589.76" y2="1276.13" style="stroke:#000000; stroke-width:8; stroke-opacity:1"/>
<line clip-path="url(#clip801)" x1="621.76" y1="1203.74" x2="589.76" y2="1203.74" style="stroke:#000000; stroke-width:8; stroke-opacity:1"/>
<line clip-path="url(#clip801)" x1="642.313" y1="1262.25" x2="610.313" y2="1262.25" style="stroke:#000000; stroke-width:8; stroke-opacity:1"/>
<line clip-path="url(#clip801)" x1="642.313" y1="1184.36" x2="610.313" y2="1184.36" style="stroke:#000000; stroke-width:8; stroke-opacity:1"/>
<line clip-path="url(#clip801)" x1="662.866" y1="1250.59" x2="630.866" y2="1250.59" style="stroke:#000000; stroke-width:8; stroke-opacity:1"/>
<line clip-path="url(#clip801)" x1="662.866" y1="1173.67" x2="630.866" y2="1173.67" style="stroke:#000000; stroke-width:8; stroke-opacity:1"/>
<line clip-path="url(#clip801)" x1="683.418" y1="1244.81" x2="651.418" y2="1244.81" style="stroke:#000000; stroke-width:8; stroke-opacity:1"/>
<line clip-path="url(#clip801)" x1="683.418" y1="1160.53" x2="651.418" y2="1160.53" style="stroke:#000000; stroke-width:8; stroke-opacity:1"/>
<line clip-path="url(#clip801)" x1="703.971" y1="1247.75" x2="671.971" y2="1247.75" style="stroke:#000000; stroke-width:8; stroke-opacity:1"/>
<line clip-path="url(#clip801)" x1="703.971" y1="1158.1" x2="671.971" y2="1158.1" style="stroke:#000000; stroke-width:8; stroke-opacity:1"/>
<line clip-path="url(#clip801)" x1="724.524" y1="1229.09" x2="692.524" y2="1229.09" style="stroke:#000000; stroke-width:8; stroke-opacity:1"/>
<line clip-path="url(#clip801)" x1="724.524" y1="1139.44" x2="692.524" y2="1139.44" style="stroke:#000000; stroke-width:8; stroke-opacity:1"/>
<line clip-path="url(#clip801)" x1="745.077" y1="1199.9" x2="713.077" y2="1199.9" style="stroke:#000000; stroke-width:8; stroke-opacity:1"/>
<line clip-path="url(#clip801)" x1="745.077" y1="1105.15" x2="713.077" y2="1105.15" style="stroke:#000000; stroke-width:8; stroke-opacity:1"/>
<line clip-path="url(#clip801)" x1="765.63" y1="1198.92" x2="733.63" y2="1198.92" style="stroke:#000000; stroke-width:8; stroke-opacity:1"/>
<line clip-path="url(#clip801)" x1="765.63" y1="1100.04" x2="733.63" y2="1100.04" style="stroke:#000000; stroke-width:8; stroke-opacity:1"/>
<line clip-path="url(#clip801)" x1="786.183" y1="1180.2" x2="754.183" y2="1180.2" style="stroke:#000000; stroke-width:8; stroke-opacity:1"/>
<line clip-path="url(#clip801)" x1="786.183" y1="1073.32" x2="754.183" y2="1073.32" style="stroke:#000000; stroke-width:8; stroke-opacity:1"/>
<line clip-path="url(#clip801)" x1="806.736" y1="1188.79" x2="774.736" y2="1188.79" style="stroke:#000000; stroke-width:8; stroke-opacity:1"/>
<line clip-path="url(#clip801)" x1="806.736" y1="1073.84" x2="774.736" y2="1073.84" style="stroke:#000000; stroke-width:8; stroke-opacity:1"/>
<line clip-path="url(#clip801)" x1="827.289" y1="1173.5" x2="795.289" y2="1173.5" style="stroke:#000000; stroke-width:8; stroke-opacity:1"/>
<line clip-path="url(#clip801)" x1="827.289" y1="1056.9" x2="795.289" y2="1056.9" style="stroke:#000000; stroke-width:8; stroke-opacity:1"/>
<line clip-path="url(#clip801)" x1="847.842" y1="1182.23" x2="815.842" y2="1182.23" style="stroke:#000000; stroke-width:8; stroke-opacity:1"/>
<line clip-path="url(#clip801)" x1="847.842" y1="1056.16" x2="815.842" y2="1056.16" style="stroke:#000000; stroke-width:8; stroke-opacity:1"/>
<line clip-path="url(#clip801)" x1="868.394" y1="1160.99" x2="836.394" y2="1160.99" style="stroke:#000000; stroke-width:8; stroke-opacity:1"/>
<line clip-path="url(#clip801)" x1="868.394" y1="1033.31" x2="836.394" y2="1033.31" style="stroke:#000000; stroke-width:8; stroke-opacity:1"/>
<line clip-path="url(#clip801)" x1="888.947" y1="1169.98" x2="856.947" y2="1169.98" style="stroke:#000000; stroke-width:8; stroke-opacity:1"/>
<line clip-path="url(#clip801)" x1="888.947" y1="1036.81" x2="856.947" y2="1036.81" style="stroke:#000000; stroke-width:8; stroke-opacity:1"/>
<line clip-path="url(#clip801)" x1="909.5" y1="1160.31" x2="877.5" y2="1160.31" style="stroke:#000000; stroke-width:8; stroke-opacity:1"/>
<line clip-path="url(#clip801)" x1="909.5" y1="1025.65" x2="877.5" y2="1025.65" style="stroke:#000000; stroke-width:8; stroke-opacity:1"/>
<line clip-path="url(#clip801)" x1="930.053" y1="1149.41" x2="898.053" y2="1149.41" style="stroke:#000000; stroke-width:8; stroke-opacity:1"/>
<line clip-path="url(#clip801)" x1="930.053" y1="1010.27" x2="898.053" y2="1010.27" style="stroke:#000000; stroke-width:8; stroke-opacity:1"/>
<line clip-path="url(#clip801)" x1="950.606" y1="1150.01" x2="918.606" y2="1150.01" style="stroke:#000000; stroke-width:8; stroke-opacity:1"/>
<line clip-path="url(#clip801)" x1="950.606" y1="1009.58" x2="918.606" y2="1009.58" style="stroke:#000000; stroke-width:8; stroke-opacity:1"/>
<line clip-path="url(#clip801)" x1="971.159" y1="1128.33" x2="939.159" y2="1128.33" style="stroke:#000000; stroke-width:8; stroke-opacity:1"/>
<line clip-path="url(#clip801)" x1="971.159" y1="984.444" x2="939.159" y2="984.444" style="stroke:#000000; stroke-width:8; stroke-opacity:1"/>
<line clip-path="url(#clip801)" x1="991.712" y1="1104.03" x2="959.712" y2="1104.03" style="stroke:#000000; stroke-width:8; stroke-opacity:1"/>
<line clip-path="url(#clip801)" x1="991.712" y1="965.157" x2="959.712" y2="965.157" style="stroke:#000000; stroke-width:8; stroke-opacity:1"/>
<line clip-path="url(#clip801)" x1="1012.26" y1="1073.2" x2="980.265" y2="1073.2" style="stroke:#000000; stroke-width:8; stroke-opacity:1"/>
<line clip-path="url(#clip801)" x1="1012.26" y1="935.519" x2="980.265" y2="935.519" style="stroke:#000000; stroke-width:8; stroke-opacity:1"/>
<line clip-path="url(#clip801)" x1="1032.82" y1="1062.18" x2="1000.82" y2="1062.18" style="stroke:#000000; stroke-width:8; stroke-opacity:1"/>
<line clip-path="url(#clip801)" x1="1032.82" y1="923.423" x2="1000.82" y2="923.423" style="stroke:#000000; stroke-width:8; stroke-opacity:1"/>
<line clip-path="url(#clip801)" x1="1053.37" y1="1056.34" x2="1021.37" y2="1056.34" style="stroke:#000000; stroke-width:8; stroke-opacity:1"/>
<line clip-path="url(#clip801)" x1="1053.37" y1="917.695" x2="1021.37" y2="917.695" style="stroke:#000000; stroke-width:8; stroke-opacity:1"/>
<line clip-path="url(#clip801)" x1="1073.92" y1="1056.94" x2="1041.92" y2="1056.94" style="stroke:#000000; stroke-width:8; stroke-opacity:1"/>
<line clip-path="url(#clip801)" x1="1073.92" y1="919.447" x2="1041.92" y2="919.447" style="stroke:#000000; stroke-width:8; stroke-opacity:1"/>
<line clip-path="url(#clip801)" x1="1094.48" y1="1033.2" x2="1062.48" y2="1033.2" style="stroke:#000000; stroke-width:8; stroke-opacity:1"/>
<line clip-path="url(#clip801)" x1="1094.48" y1="889.331" x2="1062.48" y2="889.331" style="stroke:#000000; stroke-width:8; stroke-opacity:1"/>
<line clip-path="url(#clip801)" x1="1115.03" y1="1003.08" x2="1083.03" y2="1003.08" style="stroke:#000000; stroke-width:8; stroke-opacity:1"/>
<line clip-path="url(#clip801)" x1="1115.03" y1="857.362" x2="1083.03" y2="857.362" style="stroke:#000000; stroke-width:8; stroke-opacity:1"/>
<line clip-path="url(#clip801)" x1="1135.58" y1="984.962" x2="1103.58" y2="984.962" style="stroke:#000000; stroke-width:8; stroke-opacity:1"/>
<line clip-path="url(#clip801)" x1="1135.58" y1="837.687" x2="1103.58" y2="837.687" style="stroke:#000000; stroke-width:8; stroke-opacity:1"/>
<line clip-path="url(#clip801)" x1="1156.14" y1="976.954" x2="1124.14" y2="976.954" style="stroke:#000000; stroke-width:8; stroke-opacity:1"/>
<line clip-path="url(#clip801)" x1="1156.14" y1="827.557" x2="1124.14" y2="827.557" style="stroke:#000000; stroke-width:8; stroke-opacity:1"/>
<line clip-path="url(#clip801)" x1="1176.69" y1="959.097" x2="1144.69" y2="959.097" style="stroke:#000000; stroke-width:8; stroke-opacity:1"/>
<line clip-path="url(#clip801)" x1="1176.69" y1="810.238" x2="1144.69" y2="810.238" style="stroke:#000000; stroke-width:8; stroke-opacity:1"/>
<line clip-path="url(#clip801)" x1="1197.24" y1="959.094" x2="1165.24" y2="959.094" style="stroke:#000000; stroke-width:8; stroke-opacity:1"/>
<line clip-path="url(#clip801)" x1="1197.24" y1="809.998" x2="1165.24" y2="809.998" style="stroke:#000000; stroke-width:8; stroke-opacity:1"/>
<line clip-path="url(#clip801)" x1="1217.79" y1="940.832" x2="1185.79" y2="940.832" style="stroke:#000000; stroke-width:8; stroke-opacity:1"/>
<line clip-path="url(#clip801)" x1="1217.79" y1="792.963" x2="1185.79" y2="792.963" style="stroke:#000000; stroke-width:8; stroke-opacity:1"/>
<line clip-path="url(#clip801)" x1="1238.35" y1="927.027" x2="1206.35" y2="927.027" style="stroke:#000000; stroke-width:8; stroke-opacity:1"/>
<line clip-path="url(#clip801)" x1="1238.35" y1="775.671" x2="1206.35" y2="775.671" style="stroke:#000000; stroke-width:8; stroke-opacity:1"/>
<line clip-path="url(#clip801)" x1="1258.9" y1="911.393" x2="1226.9" y2="911.393" style="stroke:#000000; stroke-width:8; stroke-opacity:1"/>
<line clip-path="url(#clip801)" x1="1258.9" y1="756.442" x2="1226.9" y2="756.442" style="stroke:#000000; stroke-width:8; stroke-opacity:1"/>
<line clip-path="url(#clip801)" x1="1279.45" y1="917.382" x2="1247.45" y2="917.382" style="stroke:#000000; stroke-width:8; stroke-opacity:1"/>
<line clip-path="url(#clip801)" x1="1279.45" y1="761.325" x2="1247.45" y2="761.325" style="stroke:#000000; stroke-width:8; stroke-opacity:1"/>
<line clip-path="url(#clip801)" x1="1300.01" y1="896.507" x2="1268.01" y2="896.507" style="stroke:#000000; stroke-width:8; stroke-opacity:1"/>
<line clip-path="url(#clip801)" x1="1300.01" y1="741.503" x2="1268.01" y2="741.503" style="stroke:#000000; stroke-width:8; stroke-opacity:1"/>
<line clip-path="url(#clip801)" x1="1320.56" y1="883.458" x2="1288.56" y2="883.458" style="stroke:#000000; stroke-width:8; stroke-opacity:1"/>
<line clip-path="url(#clip801)" x1="1320.56" y1="727.612" x2="1288.56" y2="727.612" style="stroke:#000000; stroke-width:8; stroke-opacity:1"/>
<line clip-path="url(#clip801)" x1="1341.11" y1="883.326" x2="1309.11" y2="883.326" style="stroke:#000000; stroke-width:8; stroke-opacity:1"/>
<line clip-path="url(#clip801)" x1="1341.11" y1="725.942" x2="1309.11" y2="725.942" style="stroke:#000000; stroke-width:8; stroke-opacity:1"/>
<line clip-path="url(#clip801)" x1="1361.66" y1="866.807" x2="1329.66" y2="866.807" style="stroke:#000000; stroke-width:8; stroke-opacity:1"/>
<line clip-path="url(#clip801)" x1="1361.66" y1="706.663" x2="1329.66" y2="706.663" style="stroke:#000000; stroke-width:8; stroke-opacity:1"/>
<line clip-path="url(#clip801)" x1="1382.22" y1="872.702" x2="1350.22" y2="872.702" style="stroke:#000000; stroke-width:8; stroke-opacity:1"/>
<line clip-path="url(#clip801)" x1="1382.22" y1="713.95" x2="1350.22" y2="713.95" style="stroke:#000000; stroke-width:8; stroke-opacity:1"/>
<line clip-path="url(#clip801)" x1="1402.77" y1="864.886" x2="1370.77" y2="864.886" style="stroke:#000000; stroke-width:8; stroke-opacity:1"/>
<line clip-path="url(#clip801)" x1="1402.77" y1="696.844" x2="1370.77" y2="696.844" style="stroke:#000000; stroke-width:8; stroke-opacity:1"/>
<line clip-path="url(#clip801)" x1="1423.32" y1="843.426" x2="1391.32" y2="843.426" style="stroke:#000000; stroke-width:8; stroke-opacity:1"/>
<line clip-path="url(#clip801)" x1="1423.32" y1="672.845" x2="1391.32" y2="672.845" style="stroke:#000000; stroke-width:8; stroke-opacity:1"/>
<line clip-path="url(#clip801)" x1="1443.88" y1="826.521" x2="1411.88" y2="826.521" style="stroke:#000000; stroke-width:8; stroke-opacity:1"/>
<line clip-path="url(#clip801)" x1="1443.88" y1="657.136" x2="1411.88" y2="657.136" style="stroke:#000000; stroke-width:8; stroke-opacity:1"/>
<line clip-path="url(#clip801)" x1="1464.43" y1="825.855" x2="1432.43" y2="825.855" style="stroke:#000000; stroke-width:8; stroke-opacity:1"/>
<line clip-path="url(#clip801)" x1="1464.43" y1="656.445" x2="1432.43" y2="656.445" style="stroke:#000000; stroke-width:8; stroke-opacity:1"/>
<line clip-path="url(#clip801)" x1="1484.98" y1="815.404" x2="1452.98" y2="815.404" style="stroke:#000000; stroke-width:8; stroke-opacity:1"/>
<line clip-path="url(#clip801)" x1="1484.98" y1="647.272" x2="1452.98" y2="647.272" style="stroke:#000000; stroke-width:8; stroke-opacity:1"/>
<line clip-path="url(#clip801)" x1="1505.53" y1="815.564" x2="1473.53" y2="815.564" style="stroke:#000000; stroke-width:8; stroke-opacity:1"/>
<line clip-path="url(#clip801)" x1="1505.53" y1="646.975" x2="1473.53" y2="646.975" style="stroke:#000000; stroke-width:8; stroke-opacity:1"/>
<line clip-path="url(#clip801)" x1="1526.09" y1="800.616" x2="1494.09" y2="800.616" style="stroke:#000000; stroke-width:8; stroke-opacity:1"/>
<line clip-path="url(#clip801)" x1="1526.09" y1="631.366" x2="1494.09" y2="631.366" style="stroke:#000000; stroke-width:8; stroke-opacity:1"/>
<line clip-path="url(#clip801)" x1="1546.64" y1="766.06" x2="1514.64" y2="766.06" style="stroke:#000000; stroke-width:8; stroke-opacity:1"/>
<line clip-path="url(#clip801)" x1="1546.64" y1="598.29" x2="1514.64" y2="598.29" style="stroke:#000000; stroke-width:8; stroke-opacity:1"/>
<line clip-path="url(#clip801)" x1="1567.19" y1="760.958" x2="1535.19" y2="760.958" style="stroke:#000000; stroke-width:8; stroke-opacity:1"/>
<line clip-path="url(#clip801)" x1="1567.19" y1="595.241" x2="1535.19" y2="595.241" style="stroke:#000000; stroke-width:8; stroke-opacity:1"/>
<line clip-path="url(#clip801)" x1="1587.75" y1="757.383" x2="1555.75" y2="757.383" style="stroke:#000000; stroke-width:8; stroke-opacity:1"/>
<line clip-path="url(#clip801)" x1="1587.75" y1="591.519" x2="1555.75" y2="591.519" style="stroke:#000000; stroke-width:8; stroke-opacity:1"/>
<line clip-path="url(#clip801)" x1="1608.3" y1="767.511" x2="1576.3" y2="767.511" style="stroke:#000000; stroke-width:8; stroke-opacity:1"/>
<line clip-path="url(#clip801)" x1="1608.3" y1="600.204" x2="1576.3" y2="600.204" style="stroke:#000000; stroke-width:8; stroke-opacity:1"/>
<line clip-path="url(#clip801)" x1="1628.85" y1="752.611" x2="1596.85" y2="752.611" style="stroke:#000000; stroke-width:8; stroke-opacity:1"/>
<line clip-path="url(#clip801)" x1="1628.85" y1="583.575" x2="1596.85" y2="583.575" style="stroke:#000000; stroke-width:8; stroke-opacity:1"/>
<line clip-path="url(#clip801)" x1="1649.4" y1="741.025" x2="1617.4" y2="741.025" style="stroke:#000000; stroke-width:8; stroke-opacity:1"/>
<line clip-path="url(#clip801)" x1="1649.4" y1="570.276" x2="1617.4" y2="570.276" style="stroke:#000000; stroke-width:8; stroke-opacity:1"/>
<line clip-path="url(#clip801)" x1="1669.96" y1="717.179" x2="1637.96" y2="717.179" style="stroke:#000000; stroke-width:8; stroke-opacity:1"/>
<line clip-path="url(#clip801)" x1="1669.96" y1="543.102" x2="1637.96" y2="543.102" style="stroke:#000000; stroke-width:8; stroke-opacity:1"/>
<line clip-path="url(#clip801)" x1="1690.51" y1="716.966" x2="1658.51" y2="716.966" style="stroke:#000000; stroke-width:8; stroke-opacity:1"/>
<line clip-path="url(#clip801)" x1="1690.51" y1="542.779" x2="1658.51" y2="542.779" style="stroke:#000000; stroke-width:8; stroke-opacity:1"/>
<line clip-path="url(#clip801)" x1="1711.06" y1="711.049" x2="1679.06" y2="711.049" style="stroke:#000000; stroke-width:8; stroke-opacity:1"/>
<line clip-path="url(#clip801)" x1="1711.06" y1="534.142" x2="1679.06" y2="534.142" style="stroke:#000000; stroke-width:8; stroke-opacity:1"/>
<line clip-path="url(#clip801)" x1="1731.62" y1="707.953" x2="1699.62" y2="707.953" style="stroke:#000000; stroke-width:8; stroke-opacity:1"/>
<line clip-path="url(#clip801)" x1="1731.62" y1="530.795" x2="1699.62" y2="530.795" style="stroke:#000000; stroke-width:8; stroke-opacity:1"/>
<line clip-path="url(#clip801)" x1="1752.17" y1="691.297" x2="1720.17" y2="691.297" style="stroke:#000000; stroke-width:8; stroke-opacity:1"/>
<line clip-path="url(#clip801)" x1="1752.17" y1="514.37" x2="1720.17" y2="514.37" style="stroke:#000000; stroke-width:8; stroke-opacity:1"/>
<line clip-path="url(#clip801)" x1="1772.72" y1="674.906" x2="1740.72" y2="674.906" style="stroke:#000000; stroke-width:8; stroke-opacity:1"/>
<line clip-path="url(#clip801)" x1="1772.72" y1="496.049" x2="1740.72" y2="496.049" style="stroke:#000000; stroke-width:8; stroke-opacity:1"/>
<line clip-path="url(#clip801)" x1="1793.27" y1="635.425" x2="1761.27" y2="635.425" style="stroke:#000000; stroke-width:8; stroke-opacity:1"/>
<line clip-path="url(#clip801)" x1="1793.27" y1="458.612" x2="1761.27" y2="458.612" style="stroke:#000000; stroke-width:8; stroke-opacity:1"/>
<line clip-path="url(#clip801)" x1="1813.83" y1="608.421" x2="1781.83" y2="608.421" style="stroke:#000000; stroke-width:8; stroke-opacity:1"/>
<line clip-path="url(#clip801)" x1="1813.83" y1="426.236" x2="1781.83" y2="426.236" style="stroke:#000000; stroke-width:8; stroke-opacity:1"/>
<line clip-path="url(#clip801)" x1="1834.38" y1="591.445" x2="1802.38" y2="591.445" style="stroke:#000000; stroke-width:8; stroke-opacity:1"/>
<line clip-path="url(#clip801)" x1="1834.38" y1="410.994" x2="1802.38" y2="410.994" style="stroke:#000000; stroke-width:8; stroke-opacity:1"/>
<line clip-path="url(#clip801)" x1="1854.93" y1="594.252" x2="1822.93" y2="594.252" style="stroke:#000000; stroke-width:8; stroke-opacity:1"/>
<line clip-path="url(#clip801)" x1="1854.93" y1="412.005" x2="1822.93" y2="412.005" style="stroke:#000000; stroke-width:8; stroke-opacity:1"/>
<line clip-path="url(#clip801)" x1="1875.49" y1="577.501" x2="1843.49" y2="577.501" style="stroke:#000000; stroke-width:8; stroke-opacity:1"/>
<line clip-path="url(#clip801)" x1="1875.49" y1="390.191" x2="1843.49" y2="390.191" style="stroke:#000000; stroke-width:8; stroke-opacity:1"/>
<line clip-path="url(#clip801)" x1="1896.04" y1="559.094" x2="1864.04" y2="559.094" style="stroke:#000000; stroke-width:8; stroke-opacity:1"/>
<line clip-path="url(#clip801)" x1="1896.04" y1="371.678" x2="1864.04" y2="371.678" style="stroke:#000000; stroke-width:8; stroke-opacity:1"/>
<line clip-path="url(#clip801)" x1="1916.59" y1="544.111" x2="1884.59" y2="544.111" style="stroke:#000000; stroke-width:8; stroke-opacity:1"/>
<line clip-path="url(#clip801)" x1="1916.59" y1="355.691" x2="1884.59" y2="355.691" style="stroke:#000000; stroke-width:8; stroke-opacity:1"/>
<line clip-path="url(#clip801)" x1="1937.15" y1="533.368" x2="1905.15" y2="533.368" style="stroke:#000000; stroke-width:8; stroke-opacity:1"/>
<line clip-path="url(#clip801)" x1="1937.15" y1="343.683" x2="1905.15" y2="343.683" style="stroke:#000000; stroke-width:8; stroke-opacity:1"/>
<line clip-path="url(#clip801)" x1="1957.7" y1="503.704" x2="1925.7" y2="503.704" style="stroke:#000000; stroke-width:8; stroke-opacity:1"/>
<line clip-path="url(#clip801)" x1="1957.7" y1="313.173" x2="1925.7" y2="313.173" style="stroke:#000000; stroke-width:8; stroke-opacity:1"/>
<line clip-path="url(#clip801)" x1="1978.25" y1="505.26" x2="1946.25" y2="505.26" style="stroke:#000000; stroke-width:8; stroke-opacity:1"/>
<line clip-path="url(#clip801)" x1="1978.25" y1="317.158" x2="1946.25" y2="317.158" style="stroke:#000000; stroke-width:8; stroke-opacity:1"/>
<line clip-path="url(#clip801)" x1="1998.8" y1="487.277" x2="1966.8" y2="487.277" style="stroke:#000000; stroke-width:8; stroke-opacity:1"/>
<line clip-path="url(#clip801)" x1="1998.8" y1="297.737" x2="1966.8" y2="297.737" style="stroke:#000000; stroke-width:8; stroke-opacity:1"/>
<line clip-path="url(#clip801)" x1="2019.36" y1="470.614" x2="1987.36" y2="470.614" style="stroke:#000000; stroke-width:8; stroke-opacity:1"/>
<line clip-path="url(#clip801)" x1="2019.36" y1="282.999" x2="1987.36" y2="282.999" style="stroke:#000000; stroke-width:8; stroke-opacity:1"/>
<line clip-path="url(#clip801)" x1="2039.91" y1="459.18" x2="2007.91" y2="459.18" style="stroke:#000000; stroke-width:8; stroke-opacity:1"/>
<line clip-path="url(#clip801)" x1="2039.91" y1="269.838" x2="2007.91" y2="269.838" style="stroke:#000000; stroke-width:8; stroke-opacity:1"/>
<line clip-path="url(#clip801)" x1="2060.46" y1="433.301" x2="2028.46" y2="433.301" style="stroke:#000000; stroke-width:8; stroke-opacity:1"/>
<line clip-path="url(#clip801)" x1="2060.46" y1="242.262" x2="2028.46" y2="242.262" style="stroke:#000000; stroke-width:8; stroke-opacity:1"/>
<line clip-path="url(#clip801)" x1="2081.02" y1="412.645" x2="2049.02" y2="412.645" style="stroke:#000000; stroke-width:8; stroke-opacity:1"/>
<line clip-path="url(#clip801)" x1="2081.02" y1="222.006" x2="2049.02" y2="222.006" style="stroke:#000000; stroke-width:8; stroke-opacity:1"/>
<line clip-path="url(#clip801)" x1="2101.57" y1="402.844" x2="2069.57" y2="402.844" style="stroke:#000000; stroke-width:8; stroke-opacity:1"/>
<line clip-path="url(#clip801)" x1="2101.57" y1="211.426" x2="2069.57" y2="211.426" style="stroke:#000000; stroke-width:8; stroke-opacity:1"/>
<line clip-path="url(#clip801)" x1="2122.12" y1="391.058" x2="2090.12" y2="391.058" style="stroke:#000000; stroke-width:8; stroke-opacity:1"/>
<line clip-path="url(#clip801)" x1="2122.12" y1="194.315" x2="2090.12" y2="194.315" style="stroke:#000000; stroke-width:8; stroke-opacity:1"/>
<line clip-path="url(#clip801)" x1="2142.67" y1="381.631" x2="2110.67" y2="381.631" style="stroke:#000000; stroke-width:8; stroke-opacity:1"/>
<line clip-path="url(#clip801)" x1="2142.67" y1="182.252" x2="2110.67" y2="182.252" style="stroke:#000000; stroke-width:8; stroke-opacity:1"/>
<line clip-path="url(#clip801)" x1="2163.23" y1="354.704" x2="2131.23" y2="354.704" style="stroke:#000000; stroke-width:8; stroke-opacity:1"/>
<line clip-path="url(#clip801)" x1="2163.23" y1="154.842" x2="2131.23" y2="154.842" style="stroke:#000000; stroke-width:8; stroke-opacity:1"/>
<line clip-path="url(#clip801)" x1="2183.78" y1="330.239" x2="2151.78" y2="330.239" style="stroke:#000000; stroke-width:8; stroke-opacity:1"/>
<line clip-path="url(#clip801)" x1="2183.78" y1="129.375" x2="2151.78" y2="129.375" style="stroke:#000000; stroke-width:8; stroke-opacity:1"/>
<line clip-path="url(#clip801)" x1="2204.33" y1="310.466" x2="2172.33" y2="310.466" style="stroke:#000000; stroke-width:8; stroke-opacity:1"/>
<line clip-path="url(#clip801)" x1="2204.33" y1="107.991" x2="2172.33" y2="107.991" style="stroke:#000000; stroke-width:8; stroke-opacity:1"/>
<line clip-path="url(#clip801)" x1="2224.89" y1="312.891" x2="2192.89" y2="312.891" style="stroke:#000000; stroke-width:8; stroke-opacity:1"/>
<line clip-path="url(#clip801)" x1="2224.89" y1="110.357" x2="2192.89" y2="110.357" style="stroke:#000000; stroke-width:8; stroke-opacity:1"/>
<line clip-path="url(#clip801)" x1="2245.44" y1="315.283" x2="2213.44" y2="315.283" style="stroke:#000000; stroke-width:8; stroke-opacity:1"/>
<line clip-path="url(#clip801)" x1="2245.44" y1="108.322" x2="2213.44" y2="108.322" style="stroke:#000000; stroke-width:8; stroke-opacity:1"/>
<line clip-path="url(#clip801)" x1="2265.99" y1="310.167" x2="2233.99" y2="310.167" style="stroke:#000000; stroke-width:8; stroke-opacity:1"/>
<line clip-path="url(#clip801)" x1="2265.99" y1="99.0504" x2="2233.99" y2="99.0504" style="stroke:#000000; stroke-width:8; stroke-opacity:1"/>
<line clip-path="url(#clip801)" x1="2286.54" y1="298.905" x2="2254.54" y2="298.905" style="stroke:#000000; stroke-width:8; stroke-opacity:1"/>
<line clip-path="url(#clip801)" x1="2286.54" y1="86.1857" x2="2254.54" y2="86.1857" style="stroke:#000000; stroke-width:8; stroke-opacity:1"/>
<line clip-path="url(#clip801)" x1="2307.1" y1="299.717" x2="2275.1" y2="299.717" style="stroke:#000000; stroke-width:8; stroke-opacity:1"/>
<line clip-path="url(#clip801)" x1="2307.1" y1="87.3114" x2="2275.1" y2="87.3114" style="stroke:#000000; stroke-width:8; stroke-opacity:1"/>
</svg>
