<?xml version="1.0" encoding="utf-8"?>
<svg xmlns="http://www.w3.org/2000/svg" xmlns:xlink="http://www.w3.org/1999/xlink" width="600" height="400" viewBox="0 0 2400 1600">
<defs>
  <clipPath id="clip710">
    <rect x="0" y="0" width="2400" height="1600"/>
  </clipPath>
</defs>
<path clip-path="url(#clip710)" d="M0 1600 L2400 1600 L2400 0 L0 0  Z" fill="#ffffff" fill-rule="evenodd" fill-opacity="1"/>
<defs>
  <clipPath id="clip711">
    <rect x="141" y="47" width="2212" height="1440"/>
  </clipPath>
</defs>
<path clip-path="url(#clip710)" d="M141.853 686.448 L2352.76 686.448 L2352.76 47.2441 L141.853 47.2441  Z" fill="#ffffff" fill-rule="evenodd" fill-opacity="1"/>
<defs>
  <clipPath id="clip712">
    <rect x="141" y="47" width="2212" height="640"/>
  </clipPath>
</defs>
<polyline clip-path="url(#clip712)" style="stroke:#000000; stroke-linecap:round; stroke-linejoin:round; stroke-width:2; stroke-opacity:0.1; fill:none" points="204.426,686.448 204.426,47.2441 "/>
<polyline clip-path="url(#clip712)" style="stroke:#000000; stroke-linecap:round; stroke-linejoin:round; stroke-width:2; stroke-opacity:0.1; fill:none" points="725.865,686.448 725.865,47.2441 "/>
<polyline clip-path="url(#clip712)" style="stroke:#000000; stroke-linecap:round; stroke-linejoin:round; stroke-width:2; stroke-opacity:0.1; fill:none" points="1247.3,686.448 1247.3,47.2441 "/>
<polyline clip-path="url(#clip712)" style="stroke:#000000; stroke-linecap:round; stroke-linejoin:round; stroke-width:2; stroke-opacity:0.1; fill:none" points="1768.74,686.448 1768.74,47.2441 "/>
<polyline clip-path="url(#clip712)" style="stroke:#000000; stroke-linecap:round; stroke-linejoin:round; stroke-width:2; stroke-opacity:0.1; fill:none" points="2290.18,686.448 2290.18,47.2441 "/>
<polyline clip-path="url(#clip712)" style="stroke:#000000; stroke-linecap:round; stroke-linejoin:round; stroke-width:2; stroke-opacity:0.1; fill:none" points="141.853,541.405 2352.76,541.405 "/>
<polyline clip-path="url(#clip712)" style="stroke:#000000; stroke-linecap:round; stroke-linejoin:round; stroke-width:2; stroke-opacity:0.1; fill:none" points="141.853,382.715 2352.76,382.715 "/>
<polyline clip-path="url(#clip712)" style="stroke:#000000; stroke-linecap:round; stroke-linejoin:round; stroke-width:2; stroke-opacity:0.1; fill:none" points="141.853,224.025 2352.76,224.025 "/>
<polyline clip-path="url(#clip712)" style="stroke:#000000; stroke-linecap:round; stroke-linejoin:round; stroke-width:2; stroke-opacity:0.1; fill:none" points="141.853,65.3348 2352.76,65.3348 "/>
<polyline clip-path="url(#clip710)" style="stroke:#000000; stroke-linecap:round; stroke-linejoin:round; stroke-width:4; stroke-opacity:1; fill:none" points="141.853,686.448 2352.76,686.448 "/>
<polyline clip-path="url(#clip710)" style="stroke:#000000; stroke-linecap:round; stroke-linejoin:round; stroke-width:4; stroke-opacity:1; fill:none" points="204.426,686.448 204.426,667.55 "/>
<polyline clip-path="url(#clip710)" style="stroke:#000000; stroke-linecap:round; stroke-linejoin:round; stroke-width:4; stroke-opacity:1; fill:none" points="725.865,686.448 725.865,667.55 "/>
<polyline clip-path="url(#clip710)" style="stroke:#000000; stroke-linecap:round; stroke-linejoin:round; stroke-width:4; stroke-opacity:1; fill:none" points="1247.3,686.448 1247.3,667.55 "/>
<polyline clip-path="url(#clip710)" style="stroke:#000000; stroke-linecap:round; stroke-linejoin:round; stroke-width:4; stroke-opacity:1; fill:none" points="1768.74,686.448 1768.74,667.55 "/>
<polyline clip-path="url(#clip710)" style="stroke:#000000; stroke-linecap:round; stroke-linejoin:round; stroke-width:4; stroke-opacity:1; fill:none" points="2290.18,686.448 2290.18,667.55 "/>
<path clip-path="url(#clip710)" d="M181.81 717.367 Q178.199 717.367 176.37 720.931 Q174.565 724.473 174.565 731.603 Q174.565 738.709 176.37 742.274 Q178.199 745.815 181.81 745.815 Q185.444 745.815 187.25 742.274 Q189.079 738.709 189.079 731.603 Q189.079 724.473 187.25 720.931 Q185.444 717.367 181.81 717.367 M181.81 713.663 Q187.62 713.663 190.676 718.269 Q193.754 722.853 193.754 731.603 Q193.754 740.329 190.676 744.936 Q187.62 749.519 181.81 749.519 Q176 749.519 172.921 744.936 Q169.866 740.329 169.866 731.603 Q169.866 722.853 172.921 718.269 Q176 713.663 181.81 713.663 Z" fill="#000000" fill-rule="nonzero" fill-opacity="1" /><path clip-path="url(#clip710)" d="M201.972 742.968 L206.856 742.968 L206.856 748.848 L201.972 748.848 L201.972 742.968 Z" fill="#000000" fill-rule="nonzero" fill-opacity="1" /><path clip-path="url(#clip710)" d="M227.041 717.367 Q223.43 717.367 221.602 720.931 Q219.796 724.473 219.796 731.603 Q219.796 738.709 221.602 742.274 Q223.43 745.815 227.041 745.815 Q230.676 745.815 232.481 742.274 Q234.31 738.709 234.31 731.603 Q234.31 724.473 232.481 720.931 Q230.676 717.367 227.041 717.367 M227.041 713.663 Q232.851 713.663 235.907 718.269 Q238.986 722.853 238.986 731.603 Q238.986 740.329 235.907 744.936 Q232.851 749.519 227.041 749.519 Q221.231 749.519 218.152 744.936 Q215.097 740.329 215.097 731.603 Q215.097 722.853 218.152 718.269 Q221.231 713.663 227.041 713.663 Z" fill="#000000" fill-rule="nonzero" fill-opacity="1" /><path clip-path="url(#clip710)" d="M703.747 717.367 Q700.136 717.367 698.307 720.931 Q696.502 724.473 696.502 731.603 Q696.502 738.709 698.307 742.274 Q700.136 745.815 703.747 745.815 Q707.381 745.815 709.187 742.274 Q711.016 738.709 711.016 731.603 Q711.016 724.473 709.187 720.931 Q707.381 717.367 703.747 717.367 M703.747 713.663 Q709.557 713.663 712.613 718.269 Q715.691 722.853 715.691 731.603 Q715.691 740.329 712.613 744.936 Q709.557 749.519 703.747 749.519 Q697.937 749.519 694.858 744.936 Q691.803 740.329 691.803 731.603 Q691.803 722.853 694.858 718.269 Q697.937 713.663 703.747 713.663 Z" fill="#000000" fill-rule="nonzero" fill-opacity="1" /><path clip-path="url(#clip710)" d="M723.909 742.968 L728.793 742.968 L728.793 748.848 L723.909 748.848 L723.909 742.968 Z" fill="#000000" fill-rule="nonzero" fill-opacity="1" /><path clip-path="url(#clip710)" d="M739.025 714.288 L757.381 714.288 L757.381 718.223 L743.307 718.223 L743.307 726.695 Q744.326 726.348 745.344 726.186 Q746.363 726.001 747.381 726.001 Q753.168 726.001 756.548 729.172 Q759.927 732.343 759.927 737.76 Q759.927 743.339 756.455 746.44 Q752.983 749.519 746.664 749.519 Q744.488 749.519 742.219 749.149 Q739.974 748.778 737.566 748.038 L737.566 743.339 Q739.65 744.473 741.872 745.028 Q744.094 745.584 746.571 745.584 Q750.576 745.584 752.914 743.478 Q755.251 741.371 755.251 737.76 Q755.251 734.149 752.914 732.042 Q750.576 729.936 746.571 729.936 Q744.696 729.936 742.821 730.353 Q740.969 730.769 739.025 731.649 L739.025 714.288 Z" fill="#000000" fill-rule="nonzero" fill-opacity="1" /><path clip-path="url(#clip710)" d="M1214.46 744.913 L1222.1 744.913 L1222.1 718.547 L1213.79 720.214 L1213.79 715.955 L1222.05 714.288 L1226.73 714.288 L1226.73 744.913 L1234.36 744.913 L1234.36 748.848 L1214.46 748.848 L1214.46 744.913 Z" fill="#000000" fill-rule="nonzero" fill-opacity="1" /><path clip-path="url(#clip710)" d="M1243.81 742.968 L1248.69 742.968 L1248.69 748.848 L1243.81 748.848 L1243.81 742.968 Z" fill="#000000" fill-rule="nonzero" fill-opacity="1" /><path clip-path="url(#clip710)" d="M1268.88 717.367 Q1265.27 717.367 1263.44 720.931 Q1261.63 724.473 1261.63 731.603 Q1261.63 738.709 1263.44 742.274 Q1265.27 745.815 1268.88 745.815 Q1272.51 745.815 1274.32 742.274 Q1276.15 738.709 1276.15 731.603 Q1276.15 724.473 1274.32 720.931 Q1272.51 717.367 1268.88 717.367 M1268.88 713.663 Q1274.69 713.663 1277.74 718.269 Q1280.82 722.853 1280.82 731.603 Q1280.82 740.329 1277.74 744.936 Q1274.69 749.519 1268.88 749.519 Q1263.07 749.519 1259.99 744.936 Q1256.93 740.329 1256.93 731.603 Q1256.93 722.853 1259.99 718.269 Q1263.07 713.663 1268.88 713.663 Z" fill="#000000" fill-rule="nonzero" fill-opacity="1" /><path clip-path="url(#clip710)" d="M1736.39 744.913 L1744.03 744.913 L1744.03 718.547 L1735.72 720.214 L1735.72 715.955 L1743.99 714.288 L1748.66 714.288 L1748.66 744.913 L1756.3 744.913 L1756.3 748.848 L1736.39 748.848 L1736.39 744.913 Z" fill="#000000" fill-rule="nonzero" fill-opacity="1" /><path clip-path="url(#clip710)" d="M1765.75 742.968 L1770.63 742.968 L1770.63 748.848 L1765.75 748.848 L1765.75 742.968 Z" fill="#000000" fill-rule="nonzero" fill-opacity="1" /><path clip-path="url(#clip710)" d="M1780.86 714.288 L1799.22 714.288 L1799.22 718.223 L1785.14 718.223 L1785.14 726.695 Q1786.16 726.348 1787.18 726.186 Q1788.2 726.001 1789.22 726.001 Q1795.01 726.001 1798.38 729.172 Q1801.76 732.343 1801.76 737.76 Q1801.76 743.339 1798.29 746.44 Q1794.82 749.519 1788.5 749.519 Q1786.32 749.519 1784.06 749.149 Q1781.81 748.778 1779.4 748.038 L1779.4 743.339 Q1781.49 744.473 1783.71 745.028 Q1785.93 745.584 1788.41 745.584 Q1792.41 745.584 1794.75 743.478 Q1797.09 741.371 1797.09 737.76 Q1797.09 734.149 1794.75 732.042 Q1792.41 729.936 1788.41 729.936 Q1786.53 729.936 1784.66 730.353 Q1782.81 730.769 1780.86 731.649 L1780.86 714.288 Z" fill="#000000" fill-rule="nonzero" fill-opacity="1" /><path clip-path="url(#clip710)" d="M2261.42 744.913 L2277.74 744.913 L2277.74 748.848 L2255.8 748.848 L2255.8 744.913 Q2258.46 742.158 2263.04 737.528 Q2267.65 732.876 2268.83 731.533 Q2271.07 729.01 2271.95 727.274 Q2272.86 725.515 2272.86 723.825 Q2272.86 721.07 2270.91 719.334 Q2268.99 717.598 2265.89 717.598 Q2263.69 717.598 2261.24 718.362 Q2258.81 719.126 2256.03 720.677 L2256.03 715.955 Q2258.85 714.82 2261.31 714.242 Q2263.76 713.663 2265.8 713.663 Q2271.17 713.663 2274.36 716.348 Q2277.56 719.033 2277.56 723.524 Q2277.56 725.654 2276.75 727.575 Q2275.96 729.473 2273.85 732.066 Q2273.27 732.737 2270.17 735.954 Q2267.07 739.149 2261.42 744.913 Z" fill="#000000" fill-rule="nonzero" fill-opacity="1" /><path clip-path="url(#clip710)" d="M2287.56 742.968 L2292.44 742.968 L2292.44 748.848 L2287.56 748.848 L2287.56 742.968 Z" fill="#000000" fill-rule="nonzero" fill-opacity="1" /><path clip-path="url(#clip710)" d="M2312.63 717.367 Q2309.01 717.367 2307.19 720.931 Q2305.38 724.473 2305.38 731.603 Q2305.38 738.709 2307.19 742.274 Q2309.01 745.815 2312.63 745.815 Q2316.26 745.815 2318.06 742.274 Q2319.89 738.709 2319.89 731.603 Q2319.89 724.473 2318.06 720.931 Q2316.26 717.367 2312.63 717.367 M2312.63 713.663 Q2318.44 713.663 2321.49 718.269 Q2324.57 722.853 2324.57 731.603 Q2324.57 740.329 2321.49 744.936 Q2318.44 749.519 2312.63 749.519 Q2306.82 749.519 2303.74 744.936 Q2300.68 740.329 2300.68 731.603 Q2300.68 722.853 2303.74 718.269 Q2306.82 713.663 2312.63 713.663 Z" fill="#000000" fill-rule="nonzero" fill-opacity="1" /><polyline clip-path="url(#clip710)" style="stroke:#000000; stroke-linecap:round; stroke-linejoin:round; stroke-width:4; stroke-opacity:1; fill:none" points="141.853,686.448 141.853,47.2441 "/>
<polyline clip-path="url(#clip710)" style="stroke:#000000; stroke-linecap:round; stroke-linejoin:round; stroke-width:4; stroke-opacity:1; fill:none" points="141.853,541.405 160.751,541.405 "/>
<polyline clip-path="url(#clip710)" style="stroke:#000000; stroke-linecap:round; stroke-linejoin:round; stroke-width:4; stroke-opacity:1; fill:none" points="141.853,382.715 160.751,382.715 "/>
<polyline clip-path="url(#clip710)" style="stroke:#000000; stroke-linecap:round; stroke-linejoin:round; stroke-width:4; stroke-opacity:1; fill:none" points="141.853,224.025 160.751,224.025 "/>
<polyline clip-path="url(#clip710)" style="stroke:#000000; stroke-linecap:round; stroke-linejoin:round; stroke-width:4; stroke-opacity:1; fill:none" points="141.853,65.3348 160.751,65.3348 "/>
<path clip-path="url(#clip710)" d="M67.5893 528.199 L55.7838 546.648 L67.5893 546.648 L67.5893 528.199 M66.3624 524.125 L72.242 524.125 L72.242 546.648 L77.1725 546.648 L77.1725 550.537 L72.242 550.537 L72.242 558.685 L67.5893 558.685 L67.5893 550.537 L51.9875 550.537 L51.9875 546.023 L66.3624 524.125 Z" fill="#000000" fill-rule="nonzero" fill-opacity="1" /><path clip-path="url(#clip710)" d="M84.9503 524.125 L103.307 524.125 L103.307 528.06 L89.2327 528.06 L89.2327 536.532 Q90.2512 536.185 91.2697 536.023 Q92.2882 535.838 93.3067 535.838 Q99.0937 535.838 102.473 539.009 Q105.853 542.181 105.853 547.597 Q105.853 553.176 102.381 556.278 Q98.9085 559.356 92.5891 559.356 Q90.4132 559.356 88.1447 558.986 Q85.8993 558.616 83.492 557.875 L83.492 553.176 Q85.5753 554.31 87.7975 554.866 Q90.0197 555.421 92.4965 555.421 Q96.5011 555.421 98.8391 553.315 Q101.177 551.208 101.177 547.597 Q101.177 543.986 98.8391 541.88 Q96.5011 539.773 92.4965 539.773 Q90.6215 539.773 88.7466 540.19 Q86.8947 540.607 84.9503 541.486 L84.9503 524.125 Z" fill="#000000" fill-rule="nonzero" fill-opacity="1" /><path clip-path="url(#clip710)" d="M53.793 365.435 L72.1494 365.435 L72.1494 369.37 L58.0754 369.37 L58.0754 377.842 Q59.0939 377.495 60.1124 377.333 Q61.131 377.148 62.1495 377.148 Q67.9365 377.148 71.3161 380.319 Q74.6957 383.49 74.6957 388.907 Q74.6957 394.486 71.2235 397.588 Q67.7513 400.666 61.4319 400.666 Q59.256 400.666 56.9875 400.296 Q54.7421 399.926 52.3347 399.185 L52.3347 394.486 Q54.418 395.62 56.6402 396.176 Q58.8625 396.731 61.3393 396.731 Q65.3439 396.731 67.6819 394.625 Q70.0198 392.518 70.0198 388.907 Q70.0198 385.296 67.6819 383.19 Q65.3439 381.083 61.3393 381.083 Q59.4643 381.083 57.5893 381.5 Q55.7375 381.916 53.793 382.796 L53.793 365.435 Z" fill="#000000" fill-rule="nonzero" fill-opacity="1" /><path clip-path="url(#clip710)" d="M93.9086 368.514 Q90.2975 368.514 88.4688 372.078 Q86.6632 375.62 86.6632 382.75 Q86.6632 389.856 88.4688 393.421 Q90.2975 396.963 93.9086 396.963 Q97.5428 396.963 99.3483 393.421 Q101.177 389.856 101.177 382.75 Q101.177 375.62 99.3483 372.078 Q97.5428 368.514 93.9086 368.514 M93.9086 364.81 Q99.7187 364.81 102.774 369.416 Q105.853 374 105.853 382.75 Q105.853 391.477 102.774 396.083 Q99.7187 400.666 93.9086 400.666 Q88.0984 400.666 85.0197 396.083 Q81.9642 391.477 81.9642 382.75 Q81.9642 374 85.0197 369.416 Q88.0984 364.81 93.9086 364.81 Z" fill="#000000" fill-rule="nonzero" fill-opacity="1" /><path clip-path="url(#clip710)" d="M54.7884 206.745 L73.1448 206.745 L73.1448 210.68 L59.0708 210.68 L59.0708 219.152 Q60.0893 218.805 61.1078 218.643 Q62.1263 218.458 63.1448 218.458 Q68.9318 218.458 72.3115 221.629 Q75.6911 224.8 75.6911 230.217 Q75.6911 235.796 72.2189 238.897 Q68.7467 241.976 62.4272 241.976 Q60.2513 241.976 57.9828 241.606 Q55.7375 241.235 53.3301 240.495 L53.3301 235.796 Q55.4134 236.93 57.6356 237.485 Q59.8578 238.041 62.3347 238.041 Q66.3393 238.041 68.6772 235.935 Q71.0152 233.828 71.0152 230.217 Q71.0152 226.606 68.6772 224.499 Q66.3393 222.393 62.3347 222.393 Q60.4597 222.393 58.5847 222.81 Q56.7328 223.226 54.7884 224.106 L54.7884 206.745 Z" fill="#000000" fill-rule="nonzero" fill-opacity="1" /><path clip-path="url(#clip710)" d="M84.9503 206.745 L103.307 206.745 L103.307 210.68 L89.2327 210.68 L89.2327 219.152 Q90.2512 218.805 91.2697 218.643 Q92.2882 218.458 93.3067 218.458 Q99.0937 218.458 102.473 221.629 Q105.853 224.8 105.853 230.217 Q105.853 235.796 102.381 238.897 Q98.9085 241.976 92.5891 241.976 Q90.4132 241.976 88.1447 241.606 Q85.8993 241.235 83.492 240.495 L83.492 235.796 Q85.5753 236.93 87.7975 237.485 Q90.0197 238.041 92.4965 238.041 Q96.5011 238.041 98.8391 235.935 Q101.177 233.828 101.177 230.217 Q101.177 226.606 98.8391 224.499 Q96.5011 222.393 92.4965 222.393 Q90.6215 222.393 88.7466 222.81 Q86.8947 223.226 84.9503 224.106 L84.9503 206.745 Z" fill="#000000" fill-rule="nonzero" fill-opacity="1" /><path clip-path="url(#clip710)" d="M64.3254 63.4714 Q61.1773 63.4714 59.3254 65.6241 Q57.4967 67.7769 57.4967 71.5269 Q57.4967 75.2537 59.3254 77.4296 Q61.1773 79.5824 64.3254 79.5824 Q67.4735 79.5824 69.3022 77.4296 Q71.1541 75.2537 71.1541 71.5269 Q71.1541 67.7769 69.3022 65.6241 Q67.4735 63.4714 64.3254 63.4714 M73.6077 48.8187 L73.6077 53.0779 Q71.8485 52.2446 70.0429 51.8047 Q68.2606 51.3649 66.5013 51.3649 Q61.8717 51.3649 59.418 54.4899 Q56.9875 57.6149 56.6402 63.9343 Q58.006 61.9204 60.0662 60.8556 Q62.1263 59.7677 64.6032 59.7677 Q69.8115 59.7677 72.8207 62.9389 Q75.8531 66.0871 75.8531 71.5269 Q75.8531 76.8509 72.705 80.0685 Q69.5568 83.2861 64.3254 83.2861 Q58.33 83.2861 55.1588 78.7028 Q51.9875 74.0963 51.9875 65.3695 Q51.9875 57.1751 55.8764 52.314 Q59.7652 47.4298 66.3161 47.4298 Q68.0754 47.4298 69.8578 47.777 Q71.6633 48.1242 73.6077 48.8187 Z" fill="#000000" fill-rule="nonzero" fill-opacity="1" /><path clip-path="url(#clip710)" d="M93.9086 51.1335 Q90.2975 51.1335 88.4688 54.6983 Q86.6632 58.2399 86.6632 65.3695 Q86.6632 72.4759 88.4688 76.0407 Q90.2975 79.5824 93.9086 79.5824 Q97.5428 79.5824 99.3483 76.0407 Q101.177 72.4759 101.177 65.3695 Q101.177 58.2399 99.3483 54.6983 Q97.5428 51.1335 93.9086 51.1335 M93.9086 47.4298 Q99.7187 47.4298 102.774 52.0362 Q105.853 56.6195 105.853 65.3695 Q105.853 74.0963 102.774 78.7028 Q99.7187 83.2861 93.9086 83.2861 Q88.0984 83.2861 85.0197 78.7028 Q81.9642 74.0963 81.9642 65.3695 Q81.9642 56.6195 85.0197 52.0362 Q88.0984 47.4298 93.9086 47.4298 Z" fill="#000000" fill-rule="nonzero" fill-opacity="1" /><polyline clip-path="url(#clip712)" style="stroke:#009af9; stroke-linecap:round; stroke-linejoin:round; stroke-width:4; stroke-opacity:1; fill:none" points="204.426,382.715 225.283,319.239 246.141,287.501 266.998,350.977 287.856,350.977 308.714,319.239 329.571,350.977 350.429,319.239 371.286,350.977 392.144,446.191 413.001,446.191 433.859,414.453 454.717,446.191 475.574,382.715 496.432,382.715 517.289,350.977 538.147,319.239 559.004,255.763 579.862,319.239 600.72,382.715 621.577,319.239 642.435,287.501 663.292,319.239 684.15,255.763 705.007,287.501 725.865,224.025 746.723,128.811 767.58,65.3348 788.438,97.0728 809.295,65.3348 830.153,160.549 851.01,160.549 871.868,192.287 892.726,160.549 913.583,255.763 934.441,160.549 955.298,192.287 976.156,160.549 997.014,128.811 1017.87,65.3348 1038.73,160.549 1059.59,224.025 1080.44,255.763 1101.3,255.763 1122.16,287.501 1143.02,287.501 1163.87,255.763 1184.73,192.287 1205.59,255.763 1226.45,350.977 1247.3,382.715 1268.16,414.453 1289.02,446.191 1309.88,477.929 1330.73,477.929 1351.59,541.405 1372.45,541.405 1393.31,573.143 1414.17,573.143 1435.02,573.143 1455.88,604.881 1476.74,604.881 1497.6,541.405 1518.45,668.357 1539.31,668.357 1560.17,636.619 1581.03,604.881 1601.88,573.143 1622.74,509.667 1643.6,541.405 1664.46,509.667 1685.31,541.405 1706.17,509.667 1727.03,509.667 1747.89,541.405 1768.74,509.667 1789.6,573.143 1810.46,604.881 1831.32,477.929 1852.17,477.929 1873.03,477.929 1893.89,414.453 1914.75,414.453 1935.6,477.929 1956.46,446.191 1977.32,414.453 1998.18,446.191 2019.03,414.453 2039.89,382.715 2060.75,350.977 2081.61,382.715 2102.47,350.977 2123.32,350.977 2144.18,477.929 2165.04,509.667 2185.9,446.191 2206.75,541.405 2227.61,541.405 2248.47,573.143 2269.33,573.143 2290.18,573.143 "/>
<path clip-path="url(#clip710)" d="M1941.63 172.231 L2279.06 172.231 L2279.06 68.5509 L1941.63 68.5509  Z" fill="#ffffff" fill-rule="evenodd" fill-opacity="1"/>
<polyline clip-path="url(#clip710)" style="stroke:#000000; stroke-linecap:round; stroke-linejoin:round; stroke-width:4; stroke-opacity:1; fill:none" points="1941.63,172.231 2279.06,172.231 2279.06,68.5509 1941.63,68.5509 1941.63,172.231 "/>
<polyline clip-path="url(#clip710)" style="stroke:#009af9; stroke-linecap:round; stroke-linejoin:round; stroke-width:4; stroke-opacity:1; fill:none" points="1966.19,120.391 2113.59,120.391 "/>
<path clip-path="url(#clip710)" d="M2138.15 111.745 L2142.41 111.745 L2142.41 137.671 L2138.15 137.671 L2138.15 111.745 M2138.15 101.653 L2142.41 101.653 L2142.41 107.046 L2138.15 107.046 L2138.15 101.653 Z" fill="#000000" fill-rule="nonzero" fill-opacity="1" /><path clip-path="url(#clip710)" d="M2172.87 122.023 L2172.87 137.671 L2168.61 137.671 L2168.61 122.162 Q2168.61 118.481 2167.18 116.652 Q2165.74 114.824 2162.87 114.824 Q2159.42 114.824 2157.43 117.023 Q2155.44 119.222 2155.44 123.018 L2155.44 137.671 L2151.16 137.671 L2151.16 111.745 L2155.44 111.745 L2155.44 115.773 Q2156.97 113.435 2159.03 112.278 Q2161.11 111.12 2163.82 111.12 Q2168.29 111.12 2170.58 113.898 Q2172.87 116.652 2172.87 122.023 Z" fill="#000000" fill-rule="nonzero" fill-opacity="1" /><path clip-path="url(#clip710)" d="M2185.49 133.782 L2185.49 147.532 L2181.21 147.532 L2181.21 111.745 L2185.49 111.745 L2185.49 115.68 Q2186.83 113.365 2188.87 112.254 Q2190.93 111.12 2193.78 111.12 Q2198.5 111.12 2201.44 114.87 Q2204.4 118.62 2204.4 124.731 Q2204.4 130.842 2201.44 134.592 Q2198.5 138.342 2193.78 138.342 Q2190.93 138.342 2188.87 137.231 Q2186.83 136.097 2185.49 133.782 M2199.98 124.731 Q2199.98 120.032 2198.04 117.37 Q2196.11 114.685 2192.73 114.685 Q2189.36 114.685 2187.41 117.37 Q2185.49 120.032 2185.49 124.731 Q2185.49 129.43 2187.41 132.115 Q2189.36 134.777 2192.73 134.777 Q2196.11 134.777 2198.04 132.115 Q2199.98 129.43 2199.98 124.731 Z" fill="#000000" fill-rule="nonzero" fill-opacity="1" /><path clip-path="url(#clip710)" d="M2211.02 127.439 L2211.02 111.745 L2215.28 111.745 L2215.28 127.277 Q2215.28 130.958 2216.72 132.81 Q2218.15 134.638 2221.02 134.638 Q2224.47 134.638 2226.46 132.439 Q2228.48 130.24 2228.48 126.444 L2228.48 111.745 L2232.73 111.745 L2232.73 137.671 L2228.48 137.671 L2228.48 133.689 Q2226.92 136.051 2224.86 137.208 Q2222.83 138.342 2220.12 138.342 Q2215.65 138.342 2213.34 135.564 Q2211.02 132.787 2211.02 127.439 M2221.74 111.12 L2221.74 111.12 Z" fill="#000000" fill-rule="nonzero" fill-opacity="1" /><path clip-path="url(#clip710)" d="M2245.72 104.384 L2245.72 111.745 L2254.49 111.745 L2254.49 115.055 L2245.72 115.055 L2245.72 129.129 Q2245.72 132.301 2246.58 133.203 Q2247.46 134.106 2250.12 134.106 L2254.49 134.106 L2254.49 137.671 L2250.12 137.671 Q2245.19 137.671 2243.31 135.842 Q2241.44 133.99 2241.44 129.129 L2241.44 115.055 L2238.31 115.055 L2238.31 111.745 L2241.44 111.745 L2241.44 104.384 L2245.72 104.384 Z" fill="#000000" fill-rule="nonzero" fill-opacity="1" /><path clip-path="url(#clip710)" d="M141.853 1486.45 L2352.76 1486.45 L2352.76 847.244 L141.853 847.244  Z" fill="#ffffff" fill-rule="evenodd" fill-opacity="1"/>
<defs>
  <clipPath id="clip713">
    <rect x="141" y="847" width="2212" height="640"/>
  </clipPath>
</defs>
<polyline clip-path="url(#clip713)" style="stroke:#000000; stroke-linecap:round; stroke-linejoin:round; stroke-width:2; stroke-opacity:0.1; fill:none" points="204.426,1486.45 204.426,847.244 "/>
<polyline clip-path="url(#clip713)" style="stroke:#000000; stroke-linecap:round; stroke-linejoin:round; stroke-width:2; stroke-opacity:0.1; fill:none" points="725.865,1486.45 725.865,847.244 "/>
<polyline clip-path="url(#clip713)" style="stroke:#000000; stroke-linecap:round; stroke-linejoin:round; stroke-width:2; stroke-opacity:0.1; fill:none" points="1247.3,1486.45 1247.3,847.244 "/>
<polyline clip-path="url(#clip713)" style="stroke:#000000; stroke-linecap:round; stroke-linejoin:round; stroke-width:2; stroke-opacity:0.1; fill:none" points="1768.74,1486.45 1768.74,847.244 "/>
<polyline clip-path="url(#clip713)" style="stroke:#000000; stroke-linecap:round; stroke-linejoin:round; stroke-width:2; stroke-opacity:0.1; fill:none" points="2290.18,1486.45 2290.18,847.244 "/>
<polyline clip-path="url(#clip713)" style="stroke:#000000; stroke-linecap:round; stroke-linejoin:round; stroke-width:2; stroke-opacity:0.1; fill:none" points="141.853,1413.54 2352.76,1413.54 "/>
<polyline clip-path="url(#clip713)" style="stroke:#000000; stroke-linecap:round; stroke-linejoin:round; stroke-width:2; stroke-opacity:0.1; fill:none" points="141.853,1230.8 2352.76,1230.8 "/>
<polyline clip-path="url(#clip713)" style="stroke:#000000; stroke-linecap:round; stroke-linejoin:round; stroke-width:2; stroke-opacity:0.1; fill:none" points="141.853,1048.07 2352.76,1048.07 "/>
<polyline clip-path="url(#clip713)" style="stroke:#000000; stroke-linecap:round; stroke-linejoin:round; stroke-width:2; stroke-opacity:0.1; fill:none" points="141.853,865.335 2352.76,865.335 "/>
<polyline clip-path="url(#clip710)" style="stroke:#000000; stroke-linecap:round; stroke-linejoin:round; stroke-width:4; stroke-opacity:1; fill:none" points="141.853,1486.45 2352.76,1486.45 "/>
<polyline clip-path="url(#clip710)" style="stroke:#000000; stroke-linecap:round; stroke-linejoin:round; stroke-width:4; stroke-opacity:1; fill:none" points="204.426,1486.45 204.426,1467.55 "/>
<polyline clip-path="url(#clip710)" style="stroke:#000000; stroke-linecap:round; stroke-linejoin:round; stroke-width:4; stroke-opacity:1; fill:none" points="725.865,1486.45 725.865,1467.55 "/>
<polyline clip-path="url(#clip710)" style="stroke:#000000; stroke-linecap:round; stroke-linejoin:round; stroke-width:4; stroke-opacity:1; fill:none" points="1247.3,1486.45 1247.3,1467.55 "/>
<polyline clip-path="url(#clip710)" style="stroke:#000000; stroke-linecap:round; stroke-linejoin:round; stroke-width:4; stroke-opacity:1; fill:none" points="1768.74,1486.45 1768.74,1467.55 "/>
<polyline clip-path="url(#clip710)" style="stroke:#000000; stroke-linecap:round; stroke-linejoin:round; stroke-width:4; stroke-opacity:1; fill:none" points="2290.18,1486.45 2290.18,1467.55 "/>
<path clip-path="url(#clip710)" d="M181.81 1517.37 Q178.199 1517.37 176.37 1520.93 Q174.565 1524.47 174.565 1531.6 Q174.565 1538.71 176.37 1542.27 Q178.199 1545.82 181.81 1545.82 Q185.444 1545.82 187.25 1542.27 Q189.079 1538.71 189.079 1531.6 Q189.079 1524.47 187.25 1520.93 Q185.444 1517.37 181.81 1517.37 M181.81 1513.66 Q187.62 1513.66 190.676 1518.27 Q193.754 1522.85 193.754 1531.6 Q193.754 1540.33 190.676 1544.94 Q187.62 1549.52 181.81 1549.52 Q176 1549.52 172.921 1544.94 Q169.866 1540.33 169.866 1531.6 Q169.866 1522.85 172.921 1518.27 Q176 1513.66 181.81 1513.66 Z" fill="#000000" fill-rule="nonzero" fill-opacity="1" /><path clip-path="url(#clip710)" d="M201.972 1542.97 L206.856 1542.97 L206.856 1548.85 L201.972 1548.85 L201.972 1542.97 Z" fill="#000000" fill-rule="nonzero" fill-opacity="1" /><path clip-path="url(#clip710)" d="M227.041 1517.37 Q223.43 1517.37 221.602 1520.93 Q219.796 1524.47 219.796 1531.6 Q219.796 1538.71 221.602 1542.27 Q223.43 1545.82 227.041 1545.82 Q230.676 1545.82 232.481 1542.27 Q234.31 1538.71 234.31 1531.6 Q234.31 1524.47 232.481 1520.93 Q230.676 1517.37 227.041 1517.37 M227.041 1513.66 Q232.851 1513.66 235.907 1518.27 Q238.986 1522.85 238.986 1531.6 Q238.986 1540.33 235.907 1544.94 Q232.851 1549.52 227.041 1549.52 Q221.231 1549.52 218.152 1544.94 Q215.097 1540.33 215.097 1531.6 Q215.097 1522.85 218.152 1518.27 Q221.231 1513.66 227.041 1513.66 Z" fill="#000000" fill-rule="nonzero" fill-opacity="1" /><path clip-path="url(#clip710)" d="M703.747 1517.37 Q700.136 1517.37 698.307 1520.93 Q696.502 1524.47 696.502 1531.6 Q696.502 1538.71 698.307 1542.27 Q700.136 1545.82 703.747 1545.82 Q707.381 1545.82 709.187 1542.27 Q711.016 1538.71 711.016 1531.6 Q711.016 1524.47 709.187 1520.93 Q707.381 1517.37 703.747 1517.37 M703.747 1513.66 Q709.557 1513.66 712.613 1518.27 Q715.691 1522.85 715.691 1531.6 Q715.691 1540.33 712.613 1544.94 Q709.557 1549.52 703.747 1549.52 Q697.937 1549.52 694.858 1544.94 Q691.803 1540.33 691.803 1531.6 Q691.803 1522.85 694.858 1518.27 Q697.937 1513.66 703.747 1513.66 Z" fill="#000000" fill-rule="nonzero" fill-opacity="1" /><path clip-path="url(#clip710)" d="M723.909 1542.97 L728.793 1542.97 L728.793 1548.85 L723.909 1548.85 L723.909 1542.97 Z" fill="#000000" fill-rule="nonzero" fill-opacity="1" /><path clip-path="url(#clip710)" d="M739.025 1514.29 L757.381 1514.29 L757.381 1518.22 L743.307 1518.22 L743.307 1526.7 Q744.326 1526.35 745.344 1526.19 Q746.363 1526 747.381 1526 Q753.168 1526 756.548 1529.17 Q759.927 1532.34 759.927 1537.76 Q759.927 1543.34 756.455 1546.44 Q752.983 1549.52 746.664 1549.52 Q744.488 1549.52 742.219 1549.15 Q739.974 1548.78 737.566 1548.04 L737.566 1543.34 Q739.65 1544.47 741.872 1545.03 Q744.094 1545.58 746.571 1545.58 Q750.576 1545.58 752.914 1543.48 Q755.251 1541.37 755.251 1537.76 Q755.251 1534.15 752.914 1532.04 Q750.576 1529.94 746.571 1529.94 Q744.696 1529.94 742.821 1530.35 Q740.969 1530.77 739.025 1531.65 L739.025 1514.29 Z" fill="#000000" fill-rule="nonzero" fill-opacity="1" /><path clip-path="url(#clip710)" d="M1214.46 1544.91 L1222.1 1544.91 L1222.1 1518.55 L1213.79 1520.21 L1213.79 1515.95 L1222.05 1514.29 L1226.73 1514.29 L1226.73 1544.91 L1234.36 1544.91 L1234.36 1548.85 L1214.46 1548.85 L1214.46 1544.91 Z" fill="#000000" fill-rule="nonzero" fill-opacity="1" /><path clip-path="url(#clip710)" d="M1243.81 1542.97 L1248.69 1542.97 L1248.69 1548.85 L1243.81 1548.85 L1243.81 1542.97 Z" fill="#000000" fill-rule="nonzero" fill-opacity="1" /><path clip-path="url(#clip710)" d="M1268.88 1517.37 Q1265.27 1517.37 1263.44 1520.93 Q1261.63 1524.47 1261.63 1531.6 Q1261.63 1538.71 1263.44 1542.27 Q1265.27 1545.82 1268.88 1545.82 Q1272.51 1545.82 1274.32 1542.27 Q1276.15 1538.71 1276.15 1531.6 Q1276.15 1524.47 1274.32 1520.93 Q1272.51 1517.37 1268.88 1517.37 M1268.88 1513.66 Q1274.69 1513.66 1277.74 1518.27 Q1280.82 1522.85 1280.82 1531.6 Q1280.82 1540.33 1277.74 1544.94 Q1274.69 1549.52 1268.88 1549.52 Q1263.07 1549.52 1259.99 1544.94 Q1256.93 1540.33 1256.93 1531.6 Q1256.93 1522.85 1259.99 1518.27 Q1263.07 1513.66 1268.88 1513.66 Z" fill="#000000" fill-rule="nonzero" fill-opacity="1" /><path clip-path="url(#clip710)" d="M1736.39 1544.91 L1744.03 1544.91 L1744.03 1518.55 L1735.72 1520.21 L1735.72 1515.95 L1743.99 1514.29 L1748.66 1514.29 L1748.66 1544.91 L1756.3 1544.91 L1756.3 1548.85 L1736.39 1548.85 L1736.39 1544.91 Z" fill="#000000" fill-rule="nonzero" fill-opacity="1" /><path clip-path="url(#clip710)" d="M1765.75 1542.97 L1770.63 1542.97 L1770.63 1548.85 L1765.75 1548.85 L1765.75 1542.97 Z" fill="#000000" fill-rule="nonzero" fill-opacity="1" /><path clip-path="url(#clip710)" d="M1780.86 1514.29 L1799.22 1514.29 L1799.22 1518.22 L1785.14 1518.22 L1785.14 1526.7 Q1786.16 1526.35 1787.18 1526.19 Q1788.2 1526 1789.22 1526 Q1795.01 1526 1798.38 1529.17 Q1801.76 1532.34 1801.76 1537.76 Q1801.76 1543.34 1798.29 1546.44 Q1794.82 1549.52 1788.5 1549.52 Q1786.32 1549.52 1784.06 1549.15 Q1781.81 1548.78 1779.4 1548.04 L1779.4 1543.34 Q1781.49 1544.47 1783.71 1545.03 Q1785.93 1545.58 1788.41 1545.58 Q1792.41 1545.58 1794.75 1543.48 Q1797.09 1541.37 1797.09 1537.76 Q1797.09 1534.15 1794.75 1532.04 Q1792.41 1529.94 1788.41 1529.94 Q1786.53 1529.94 1784.66 1530.35 Q1782.81 1530.77 1780.86 1531.65 L1780.86 1514.29 Z" fill="#000000" fill-rule="nonzero" fill-opacity="1" /><path clip-path="url(#clip710)" d="M2261.42 1544.91 L2277.74 1544.91 L2277.74 1548.85 L2255.8 1548.85 L2255.8 1544.91 Q2258.46 1542.16 2263.04 1537.53 Q2267.65 1532.88 2268.83 1531.53 Q2271.07 1529.01 2271.95 1527.27 Q2272.86 1525.51 2272.86 1523.82 Q2272.86 1521.07 2270.91 1519.33 Q2268.99 1517.6 2265.89 1517.6 Q2263.69 1517.6 2261.24 1518.36 Q2258.81 1519.13 2256.03 1520.68 L2256.03 1515.95 Q2258.85 1514.82 2261.31 1514.24 Q2263.76 1513.66 2265.8 1513.66 Q2271.17 1513.66 2274.36 1516.35 Q2277.56 1519.03 2277.56 1523.52 Q2277.56 1525.65 2276.75 1527.57 Q2275.96 1529.47 2273.85 1532.07 Q2273.27 1532.74 2270.17 1535.95 Q2267.07 1539.15 2261.42 1544.91 Z" fill="#000000" fill-rule="nonzero" fill-opacity="1" /><path clip-path="url(#clip710)" d="M2287.56 1542.97 L2292.44 1542.97 L2292.44 1548.85 L2287.56 1548.85 L2287.56 1542.97 Z" fill="#000000" fill-rule="nonzero" fill-opacity="1" /><path clip-path="url(#clip710)" d="M2312.63 1517.37 Q2309.01 1517.37 2307.19 1520.93 Q2305.38 1524.47 2305.38 1531.6 Q2305.38 1538.71 2307.19 1542.27 Q2309.01 1545.82 2312.63 1545.82 Q2316.26 1545.82 2318.06 1542.27 Q2319.89 1538.71 2319.89 1531.6 Q2319.89 1524.47 2318.06 1520.93 Q2316.26 1517.37 2312.63 1517.37 M2312.63 1513.66 Q2318.44 1513.66 2321.49 1518.27 Q2324.57 1522.85 2324.57 1531.6 Q2324.57 1540.33 2321.49 1544.94 Q2318.44 1549.52 2312.63 1549.52 Q2306.82 1549.52 2303.74 1544.94 Q2300.68 1540.33 2300.68 1531.6 Q2300.68 1522.85 2303.74 1518.27 Q2306.82 1513.66 2312.63 1513.66 Z" fill="#000000" fill-rule="nonzero" fill-opacity="1" /><polyline clip-path="url(#clip710)" style="stroke:#000000; stroke-linecap:round; stroke-linejoin:round; stroke-width:4; stroke-opacity:1; fill:none" points="141.853,1486.45 141.853,847.244 "/>
<polyline clip-path="url(#clip710)" style="stroke:#000000; stroke-linecap:round; stroke-linejoin:round; stroke-width:4; stroke-opacity:1; fill:none" points="141.853,1413.54 160.751,1413.54 "/>
<polyline clip-path="url(#clip710)" style="stroke:#000000; stroke-linecap:round; stroke-linejoin:round; stroke-width:4; stroke-opacity:1; fill:none" points="141.853,1230.8 160.751,1230.8 "/>
<polyline clip-path="url(#clip710)" style="stroke:#000000; stroke-linecap:round; stroke-linejoin:round; stroke-width:4; stroke-opacity:1; fill:none" points="141.853,1048.07 160.751,1048.07 "/>
<polyline clip-path="url(#clip710)" style="stroke:#000000; stroke-linecap:round; stroke-linejoin:round; stroke-width:4; stroke-opacity:1; fill:none" points="141.853,865.335 160.751,865.335 "/>
<path clip-path="url(#clip710)" d="M66.5939 1400.33 L54.7884 1418.78 L66.5939 1418.78 L66.5939 1400.33 M65.367 1396.26 L71.2466 1396.26 L71.2466 1418.78 L76.1772 1418.78 L76.1772 1422.67 L71.2466 1422.67 L71.2466 1430.82 L66.5939 1430.82 L66.5939 1422.67 L50.9921 1422.67 L50.9921 1418.16 L65.367 1396.26 Z" fill="#000000" fill-rule="nonzero" fill-opacity="1" /><path clip-path="url(#clip710)" d="M93.9086 1399.34 Q90.2975 1399.34 88.4688 1402.9 Q86.6632 1406.44 86.6632 1413.57 Q86.6632 1420.68 88.4688 1424.24 Q90.2975 1427.78 93.9086 1427.78 Q97.5428 1427.78 99.3483 1424.24 Q101.177 1420.68 101.177 1413.57 Q101.177 1406.44 99.3483 1402.9 Q97.5428 1399.34 93.9086 1399.34 M93.9086 1395.63 Q99.7187 1395.63 102.774 1400.24 Q105.853 1404.82 105.853 1413.57 Q105.853 1422.3 102.774 1426.9 Q99.7187 1431.49 93.9086 1431.49 Q88.0984 1431.49 85.0197 1426.9 Q81.9642 1422.3 81.9642 1413.57 Q81.9642 1404.82 85.0197 1400.24 Q88.0984 1395.63 93.9086 1395.63 Z" fill="#000000" fill-rule="nonzero" fill-opacity="1" /><path clip-path="url(#clip710)" d="M53.793 1213.52 L72.1494 1213.52 L72.1494 1217.46 L58.0754 1217.46 L58.0754 1225.93 Q59.0939 1225.58 60.1124 1225.42 Q61.131 1225.24 62.1495 1225.24 Q67.9365 1225.24 71.3161 1228.41 Q74.6957 1231.58 74.6957 1237 Q74.6957 1242.57 71.2235 1245.68 Q67.7513 1248.75 61.4319 1248.75 Q59.256 1248.75 56.9875 1248.38 Q54.7421 1248.01 52.3347 1247.27 L52.3347 1242.57 Q54.418 1243.71 56.6402 1244.26 Q58.8625 1244.82 61.3393 1244.82 Q65.3439 1244.82 67.6819 1242.71 Q70.0198 1240.61 70.0198 1237 Q70.0198 1233.38 67.6819 1231.28 Q65.3439 1229.17 61.3393 1229.17 Q59.4643 1229.17 57.5893 1229.59 Q55.7375 1230 53.793 1230.88 L53.793 1213.52 Z" fill="#000000" fill-rule="nonzero" fill-opacity="1" /><path clip-path="url(#clip710)" d="M93.9086 1216.6 Q90.2975 1216.6 88.4688 1220.17 Q86.6632 1223.71 86.6632 1230.84 Q86.6632 1237.94 88.4688 1241.51 Q90.2975 1245.05 93.9086 1245.05 Q97.5428 1245.05 99.3483 1241.51 Q101.177 1237.94 101.177 1230.84 Q101.177 1223.71 99.3483 1220.17 Q97.5428 1216.6 93.9086 1216.6 M93.9086 1212.9 Q99.7187 1212.9 102.774 1217.5 Q105.853 1222.09 105.853 1230.84 Q105.853 1239.56 102.774 1244.17 Q99.7187 1248.75 93.9086 1248.75 Q88.0984 1248.75 85.0197 1244.17 Q81.9642 1239.56 81.9642 1230.84 Q81.9642 1222.09 85.0197 1217.5 Q88.0984 1212.9 93.9086 1212.9 Z" fill="#000000" fill-rule="nonzero" fill-opacity="1" /><path clip-path="url(#clip710)" d="M64.3254 1046.21 Q61.1773 1046.21 59.3254 1048.36 Q57.4967 1050.51 57.4967 1054.26 Q57.4967 1057.99 59.3254 1060.16 Q61.1773 1062.32 64.3254 1062.32 Q67.4735 1062.32 69.3022 1060.16 Q71.1541 1057.99 71.1541 1054.26 Q71.1541 1050.51 69.3022 1048.36 Q67.4735 1046.21 64.3254 1046.21 M73.6077 1031.55 L73.6077 1035.81 Q71.8485 1034.98 70.0429 1034.54 Q68.2606 1034.1 66.5013 1034.1 Q61.8717 1034.1 59.418 1037.22 Q56.9875 1040.35 56.6402 1046.67 Q58.006 1044.65 60.0662 1043.59 Q62.1263 1042.5 64.6032 1042.5 Q69.8115 1042.5 72.8207 1045.67 Q75.8531 1048.82 75.8531 1054.26 Q75.8531 1059.58 72.705 1062.8 Q69.5568 1066.02 64.3254 1066.02 Q58.33 1066.02 55.1588 1061.44 Q51.9875 1056.83 51.9875 1048.1 Q51.9875 1039.91 55.8764 1035.05 Q59.7652 1030.16 66.3161 1030.16 Q68.0754 1030.16 69.8578 1030.51 Q71.6633 1030.86 73.6077 1031.55 Z" fill="#000000" fill-rule="nonzero" fill-opacity="1" /><path clip-path="url(#clip710)" d="M93.9086 1033.87 Q90.2975 1033.87 88.4688 1037.43 Q86.6632 1040.97 86.6632 1048.1 Q86.6632 1055.21 88.4688 1058.77 Q90.2975 1062.32 93.9086 1062.32 Q97.5428 1062.32 99.3483 1058.77 Q101.177 1055.21 101.177 1048.1 Q101.177 1040.97 99.3483 1037.43 Q97.5428 1033.87 93.9086 1033.87 M93.9086 1030.16 Q99.7187 1030.16 102.774 1034.77 Q105.853 1039.35 105.853 1048.1 Q105.853 1056.83 102.774 1061.44 Q99.7187 1066.02 93.9086 1066.02 Q88.0984 1066.02 85.0197 1061.44 Q81.9642 1056.83 81.9642 1048.1 Q81.9642 1039.35 85.0197 1034.77 Q88.0984 1030.16 93.9086 1030.16 Z" fill="#000000" fill-rule="nonzero" fill-opacity="1" /><path clip-path="url(#clip710)" d="M52.5662 848.055 L74.7883 848.055 L74.7883 850.045 L62.2421 882.615 L57.3578 882.615 L69.1633 851.99 L52.5662 851.99 L52.5662 848.055 Z" fill="#000000" fill-rule="nonzero" fill-opacity="1" /><path clip-path="url(#clip710)" d="M93.9086 851.133 Q90.2975 851.133 88.4688 854.698 Q86.6632 858.24 86.6632 865.369 Q86.6632 872.476 88.4688 876.041 Q90.2975 879.582 93.9086 879.582 Q97.5428 879.582 99.3483 876.041 Q101.177 872.476 101.177 865.369 Q101.177 858.24 99.3483 854.698 Q97.5428 851.133 93.9086 851.133 M93.9086 847.43 Q99.7187 847.43 102.774 852.036 Q105.853 856.62 105.853 865.369 Q105.853 874.096 102.774 878.703 Q99.7187 883.286 93.9086 883.286 Q88.0984 883.286 85.0197 878.703 Q81.9642 874.096 81.9642 865.369 Q81.9642 856.62 85.0197 852.036 Q88.0984 847.43 93.9086 847.43 Z" fill="#000000" fill-rule="nonzero" fill-opacity="1" /><polyline clip-path="url(#clip713)" style="stroke:#009af9; stroke-linecap:round; stroke-linejoin:round; stroke-width:4; stroke-opacity:1; fill:none" points="204.426,1230.8 225.283,1212.53 246.141,1194.26 266.998,1322.17 287.856,1413.54 308.714,1376.99 329.571,1194.26 350.429,1194.26 371.286,1285.62 392.144,1303.9 413.001,1230.8 433.859,1139.44 454.717,1194.26 475.574,1121.16 496.432,1230.8 517.289,1212.53 538.147,1194.26 559.004,1322.17 579.862,1249.08 600.72,1249.08 621.577,1230.8 642.435,1121.16 663.292,1048.07 684.15,920.155 705.007,1011.52 725.865,1066.34 746.723,1048.07 767.58,993.249 788.438,920.155 809.295,865.335 830.153,865.335 851.01,938.428 871.868,883.608 892.726,956.702 913.583,938.428 934.441,974.975 955.298,1102.89 976.156,1194.26 997.014,1157.71 1017.87,1084.62 1038.73,1084.62 1059.59,1230.8 1080.44,1322.17 1101.3,1303.9 1122.16,1285.62 1143.02,1212.53 1163.87,1285.62 1184.73,1267.35 1205.59,1212.53 1226.45,1175.98 1247.3,938.428 1268.16,993.249 1289.02,1121.16 1309.88,1194.26 1330.73,1249.08 1351.59,1175.98 1372.45,1139.44 1393.31,1121.16 1414.17,1175.98 1435.02,1194.26 1455.88,1249.08 1476.74,1175.98 1497.6,1230.8 1518.45,1267.35 1539.31,1267.35 1560.17,1230.8 1581.03,1267.35 1601.88,1303.9 1622.74,1322.17 1643.6,1322.17 1664.46,1413.54 1685.31,1395.26 1706.17,1340.44 1727.03,1267.35 1747.89,1175.98 1768.74,1157.71 1789.6,1249.08 1810.46,1303.9 1831.32,1212.53 1852.17,1267.35 1873.03,1340.44 1893.89,1303.9 1914.75,1376.99 1935.6,1431.81 1956.46,1468.36 1977.32,1450.08 1998.18,1340.44 2019.03,1175.98 2039.89,1230.8 2060.75,1431.81 2081.61,1431.81 2102.47,1358.72 2123.32,1285.62 2144.18,1175.98 2165.04,1267.35 2185.9,1340.44 2206.75,1322.17 2227.61,1303.9 2248.47,1194.26 2269.33,1303.9 2290.18,1322.17 "/>
<path clip-path="url(#clip710)" d="M1905.35 972.231 L2279.06 972.231 L2279.06 868.551 L1905.35 868.551  Z" fill="#ffffff" fill-rule="evenodd" fill-opacity="1"/>
<polyline clip-path="url(#clip710)" style="stroke:#000000; stroke-linecap:round; stroke-linejoin:round; stroke-width:4; stroke-opacity:1; fill:none" points="1905.35,972.231 2279.06,972.231 2279.06,868.551 1905.35,868.551 1905.35,972.231 "/>
<polyline clip-path="url(#clip710)" style="stroke:#009af9; stroke-linecap:round; stroke-linejoin:round; stroke-width:4; stroke-opacity:1; fill:none" points="1929.92,920.391 2077.31,920.391 "/>
<path clip-path="url(#clip710)" d="M2113.78 914.731 Q2110.35 914.731 2108.36 917.416 Q2106.37 920.078 2106.37 924.731 Q2106.37 929.384 2108.34 932.069 Q2110.33 934.731 2113.78 934.731 Q2117.18 934.731 2119.17 932.046 Q2121.16 929.361 2121.16 924.731 Q2121.16 920.125 2119.17 917.44 Q2117.18 914.731 2113.78 914.731 M2113.78 911.12 Q2119.33 911.12 2122.5 914.731 Q2125.67 918.342 2125.67 924.731 Q2125.67 931.097 2122.5 934.731 Q2119.33 938.342 2113.78 938.342 Q2108.2 938.342 2105.03 934.731 Q2101.88 931.097 2101.88 924.731 Q2101.88 918.342 2105.03 914.731 Q2108.2 911.12 2113.78 911.12 Z" fill="#000000" fill-rule="nonzero" fill-opacity="1" /><path clip-path="url(#clip710)" d="M2132.3 927.439 L2132.3 911.745 L2136.55 911.745 L2136.55 927.277 Q2136.55 930.958 2137.99 932.81 Q2139.42 934.638 2142.3 934.638 Q2145.74 934.638 2147.73 932.439 Q2149.75 930.24 2149.75 926.444 L2149.75 911.745 L2154.01 911.745 L2154.01 937.671 L2149.75 937.671 L2149.75 933.689 Q2148.2 936.051 2146.14 937.208 Q2144.1 938.342 2141.39 938.342 Q2136.92 938.342 2134.61 935.564 Q2132.3 932.787 2132.3 927.439 M2143.01 911.12 L2143.01 911.12 Z" fill="#000000" fill-rule="nonzero" fill-opacity="1" /><path clip-path="url(#clip710)" d="M2166.99 904.384 L2166.99 911.745 L2175.77 911.745 L2175.77 915.055 L2166.99 915.055 L2166.99 929.129 Q2166.99 932.301 2167.85 933.203 Q2168.73 934.106 2171.39 934.106 L2175.77 934.106 L2175.77 937.671 L2171.39 937.671 Q2166.46 937.671 2164.59 935.842 Q2162.71 933.99 2162.71 929.129 L2162.71 915.055 L2159.59 915.055 L2159.59 911.745 L2162.71 911.745 L2162.71 904.384 L2166.99 904.384 Z" fill="#000000" fill-rule="nonzero" fill-opacity="1" /><path clip-path="url(#clip710)" d="M2185.49 933.782 L2185.49 947.532 L2181.21 947.532 L2181.21 911.745 L2185.49 911.745 L2185.49 915.68 Q2186.83 913.365 2188.87 912.254 Q2190.93 911.12 2193.78 911.12 Q2198.5 911.12 2201.44 914.87 Q2204.4 918.62 2204.4 924.731 Q2204.4 930.842 2201.44 934.592 Q2198.5 938.342 2193.78 938.342 Q2190.93 938.342 2188.87 937.231 Q2186.83 936.097 2185.49 933.782 M2199.98 924.731 Q2199.98 920.032 2198.04 917.37 Q2196.11 914.685 2192.73 914.685 Q2189.36 914.685 2187.41 917.37 Q2185.49 920.032 2185.49 924.731 Q2185.49 929.43 2187.41 932.115 Q2189.36 934.777 2192.73 934.777 Q2196.11 934.777 2198.04 932.115 Q2199.98 929.43 2199.98 924.731 Z" fill="#000000" fill-rule="nonzero" fill-opacity="1" /><path clip-path="url(#clip710)" d="M2211.02 927.439 L2211.02 911.745 L2215.28 911.745 L2215.28 927.277 Q2215.28 930.958 2216.72 932.81 Q2218.15 934.638 2221.02 934.638 Q2224.47 934.638 2226.46 932.439 Q2228.48 930.24 2228.48 926.444 L2228.48 911.745 L2232.73 911.745 L2232.73 937.671 L2228.48 937.671 L2228.48 933.689 Q2226.92 936.051 2224.86 937.208 Q2222.83 938.342 2220.12 938.342 Q2215.65 938.342 2213.34 935.564 Q2211.02 932.787 2211.02 927.439 M2221.74 911.12 L2221.74 911.12 Z" fill="#000000" fill-rule="nonzero" fill-opacity="1" /><path clip-path="url(#clip710)" d="M2245.72 904.384 L2245.72 911.745 L2254.49 911.745 L2254.49 915.055 L2245.72 915.055 L2245.72 929.129 Q2245.72 932.301 2246.58 933.203 Q2247.46 934.106 2250.12 934.106 L2254.49 934.106 L2254.49 937.671 L2250.12 937.671 Q2245.19 937.671 2243.31 935.842 Q2241.44 933.99 2241.44 929.129 L2241.44 915.055 L2238.31 915.055 L2238.31 911.745 L2241.44 911.745 L2241.44 904.384 L2245.72 904.384 Z" fill="#000000" fill-rule="nonzero" fill-opacity="1" /></svg>
