<?xml version="1.0" encoding="utf-8"?>
<svg xmlns="http://www.w3.org/2000/svg" xmlns:xlink="http://www.w3.org/1999/xlink" width="600" height="400" viewBox="0 0 2400 1600">
<defs>
  <clipPath id="clip980">
    <rect x="0" y="0" width="2400" height="1600"/>
  </clipPath>
</defs>
<path clip-path="url(#clip980)" d="
M0 1600 L2400 1600 L2400 0 L0 0  Z
  " fill="#ffffff" fill-rule="evenodd" fill-opacity="1"/>
<defs>
  <clipPath id="clip981">
    <rect x="480" y="0" width="1681" height="1600"/>
  </clipPath>
</defs>
<path clip-path="url(#clip980)" d="
M256.209 1423.18 L2352.76 1423.18 L2352.76 47.2441 L256.209 47.2441  Z
  " fill="#ffffff" fill-rule="evenodd" fill-opacity="1"/>
<defs>
  <clipPath id="clip982">
    <rect x="256" y="47" width="2098" height="1377"/>
  </clipPath>
</defs>
<polyline clip-path="url(#clip982)" style="stroke:#000000; stroke-linecap:butt; stroke-linejoin:round; stroke-width:2; stroke-opacity:0.1; fill:none" points="
  315.545,1423.18 315.545,47.2441 
  "/>
<polyline clip-path="url(#clip982)" style="stroke:#000000; stroke-linecap:butt; stroke-linejoin:round; stroke-width:2; stroke-opacity:0.1; fill:none" points="
  810.014,1423.18 810.014,47.2441 
  "/>
<polyline clip-path="url(#clip982)" style="stroke:#000000; stroke-linecap:butt; stroke-linejoin:round; stroke-width:2; stroke-opacity:0.1; fill:none" points="
  1304.48,1423.18 1304.48,47.2441 
  "/>
<polyline clip-path="url(#clip982)" style="stroke:#000000; stroke-linecap:butt; stroke-linejoin:round; stroke-width:2; stroke-opacity:0.1; fill:none" points="
  1798.95,1423.18 1798.95,47.2441 
  "/>
<polyline clip-path="url(#clip982)" style="stroke:#000000; stroke-linecap:butt; stroke-linejoin:round; stroke-width:2; stroke-opacity:0.1; fill:none" points="
  2293.42,1423.18 2293.42,47.2441 
  "/>
<polyline clip-path="url(#clip980)" style="stroke:#000000; stroke-linecap:butt; stroke-linejoin:round; stroke-width:4; stroke-opacity:1; fill:none" points="
  256.209,1423.18 2352.76,1423.18 
  "/>
<polyline clip-path="url(#clip980)" style="stroke:#000000; stroke-linecap:butt; stroke-linejoin:round; stroke-width:4; stroke-opacity:1; fill:none" points="
  315.545,1423.18 315.545,1404.28 
  "/>
<polyline clip-path="url(#clip980)" style="stroke:#000000; stroke-linecap:butt; stroke-linejoin:round; stroke-width:4; stroke-opacity:1; fill:none" points="
  810.014,1423.18 810.014,1404.28 
  "/>
<polyline clip-path="url(#clip980)" style="stroke:#000000; stroke-linecap:butt; stroke-linejoin:round; stroke-width:4; stroke-opacity:1; fill:none" points="
  1304.48,1423.18 1304.48,1404.28 
  "/>
<polyline clip-path="url(#clip980)" style="stroke:#000000; stroke-linecap:butt; stroke-linejoin:round; stroke-width:4; stroke-opacity:1; fill:none" points="
  1798.95,1423.18 1798.95,1404.28 
  "/>
<polyline clip-path="url(#clip980)" style="stroke:#000000; stroke-linecap:butt; stroke-linejoin:round; stroke-width:4; stroke-opacity:1; fill:none" points="
  2293.42,1423.18 2293.42,1404.28 
  "/>
<path clip-path="url(#clip980)" d="M292.929 1454.1 Q289.318 1454.1 287.49 1457.66 Q285.684 1461.2 285.684 1468.33 Q285.684 1475.44 287.49 1479.01 Q289.318 1482.55 292.929 1482.55 Q296.564 1482.55 298.369 1479.01 Q300.198 1475.44 300.198 1468.33 Q300.198 1461.2 298.369 1457.66 Q296.564 1454.1 292.929 1454.1 M292.929 1450.39 Q298.739 1450.39 301.795 1455 Q304.874 1459.58 304.874 1468.33 Q304.874 1477.06 301.795 1481.67 Q298.739 1486.25 292.929 1486.25 Q287.119 1486.25 284.04 1481.67 Q280.985 1477.06 280.985 1468.33 Q280.985 1459.58 284.04 1455 Q287.119 1450.39 292.929 1450.39 Z" fill="#000000" fill-rule="evenodd" fill-opacity="1" /><path clip-path="url(#clip980)" d="M313.091 1479.7 L317.975 1479.7 L317.975 1485.58 L313.091 1485.58 L313.091 1479.7 Z" fill="#000000" fill-rule="evenodd" fill-opacity="1" /><path clip-path="url(#clip980)" d="M338.161 1454.1 Q334.549 1454.1 332.721 1457.66 Q330.915 1461.2 330.915 1468.33 Q330.915 1475.44 332.721 1479.01 Q334.549 1482.55 338.161 1482.55 Q341.795 1482.55 343.6 1479.01 Q345.429 1475.44 345.429 1468.33 Q345.429 1461.2 343.6 1457.66 Q341.795 1454.1 338.161 1454.1 M338.161 1450.39 Q343.971 1450.39 347.026 1455 Q350.105 1459.58 350.105 1468.33 Q350.105 1477.06 347.026 1481.67 Q343.971 1486.25 338.161 1486.25 Q332.35 1486.25 329.272 1481.67 Q326.216 1477.06 326.216 1468.33 Q326.216 1459.58 329.272 1455 Q332.35 1450.39 338.161 1450.39 Z" fill="#000000" fill-rule="evenodd" fill-opacity="1" /><path clip-path="url(#clip980)" d="M787.896 1454.1 Q784.285 1454.1 782.456 1457.66 Q780.65 1461.2 780.65 1468.33 Q780.65 1475.44 782.456 1479.01 Q784.285 1482.55 787.896 1482.55 Q791.53 1482.55 793.335 1479.01 Q795.164 1475.44 795.164 1468.33 Q795.164 1461.2 793.335 1457.66 Q791.53 1454.1 787.896 1454.1 M787.896 1450.39 Q793.706 1450.39 796.761 1455 Q799.84 1459.58 799.84 1468.33 Q799.84 1477.06 796.761 1481.67 Q793.706 1486.25 787.896 1486.25 Q782.086 1486.25 779.007 1481.67 Q775.951 1477.06 775.951 1468.33 Q775.951 1459.58 779.007 1455 Q782.086 1450.39 787.896 1450.39 Z" fill="#000000" fill-rule="evenodd" fill-opacity="1" /><path clip-path="url(#clip980)" d="M808.058 1479.7 L812.942 1479.7 L812.942 1485.58 L808.058 1485.58 L808.058 1479.7 Z" fill="#000000" fill-rule="evenodd" fill-opacity="1" /><path clip-path="url(#clip980)" d="M823.173 1451.02 L841.53 1451.02 L841.53 1454.96 L827.456 1454.96 L827.456 1463.43 Q828.474 1463.08 829.493 1462.92 Q830.511 1462.73 831.53 1462.73 Q837.317 1462.73 840.696 1465.9 Q844.076 1469.08 844.076 1474.49 Q844.076 1480.07 840.604 1483.17 Q837.132 1486.25 830.812 1486.25 Q828.636 1486.25 826.368 1485.88 Q824.122 1485.51 821.715 1484.77 L821.715 1480.07 Q823.798 1481.2 826.02 1481.76 Q828.243 1482.32 830.72 1482.32 Q834.724 1482.32 837.062 1480.21 Q839.4 1478.1 839.4 1474.49 Q839.4 1470.88 837.062 1468.77 Q834.724 1466.67 830.72 1466.67 Q828.845 1466.67 826.97 1467.08 Q825.118 1467.5 823.173 1468.38 L823.173 1451.02 Z" fill="#000000" fill-rule="evenodd" fill-opacity="1" /><path clip-path="url(#clip980)" d="M1271.64 1481.64 L1279.27 1481.64 L1279.27 1455.28 L1270.96 1456.95 L1270.96 1452.69 L1279.23 1451.02 L1283.9 1451.02 L1283.9 1481.64 L1291.54 1481.64 L1291.54 1485.58 L1271.64 1485.58 L1271.64 1481.64 Z" fill="#000000" fill-rule="evenodd" fill-opacity="1" /><path clip-path="url(#clip980)" d="M1300.99 1479.7 L1305.87 1479.7 L1305.87 1485.58 L1300.99 1485.58 L1300.99 1479.7 Z" fill="#000000" fill-rule="evenodd" fill-opacity="1" /><path clip-path="url(#clip980)" d="M1326.06 1454.1 Q1322.45 1454.1 1320.62 1457.66 Q1318.81 1461.2 1318.81 1468.33 Q1318.81 1475.44 1320.62 1479.01 Q1322.45 1482.55 1326.06 1482.55 Q1329.69 1482.55 1331.5 1479.01 Q1333.32 1475.44 1333.32 1468.33 Q1333.32 1461.2 1331.5 1457.66 Q1329.69 1454.1 1326.06 1454.1 M1326.06 1450.39 Q1331.87 1450.39 1334.92 1455 Q1338 1459.58 1338 1468.33 Q1338 1477.06 1334.92 1481.67 Q1331.87 1486.25 1326.06 1486.25 Q1320.25 1486.25 1317.17 1481.67 Q1314.11 1477.06 1314.11 1468.33 Q1314.11 1459.58 1317.17 1455 Q1320.25 1450.39 1326.06 1450.39 Z" fill="#000000" fill-rule="evenodd" fill-opacity="1" /><path clip-path="url(#clip980)" d="M1766.6 1481.64 L1774.24 1481.64 L1774.24 1455.28 L1765.93 1456.95 L1765.93 1452.69 L1774.19 1451.02 L1778.87 1451.02 L1778.87 1481.64 L1786.51 1481.64 L1786.51 1485.58 L1766.6 1485.58 L1766.6 1481.64 Z" fill="#000000" fill-rule="evenodd" fill-opacity="1" /><path clip-path="url(#clip980)" d="M1795.95 1479.7 L1800.84 1479.7 L1800.84 1485.58 L1795.95 1485.58 L1795.95 1479.7 Z" fill="#000000" fill-rule="evenodd" fill-opacity="1" /><path clip-path="url(#clip980)" d="M1811.07 1451.02 L1829.43 1451.02 L1829.43 1454.96 L1815.35 1454.96 L1815.35 1463.43 Q1816.37 1463.08 1817.39 1462.92 Q1818.41 1462.73 1819.43 1462.73 Q1825.21 1462.73 1828.59 1465.9 Q1831.97 1469.08 1831.97 1474.49 Q1831.97 1480.07 1828.5 1483.17 Q1825.03 1486.25 1818.71 1486.25 Q1816.53 1486.25 1814.26 1485.88 Q1812.02 1485.51 1809.61 1484.77 L1809.61 1480.07 Q1811.69 1481.2 1813.92 1481.76 Q1816.14 1482.32 1818.62 1482.32 Q1822.62 1482.32 1824.96 1480.21 Q1827.3 1478.1 1827.3 1474.49 Q1827.3 1470.88 1824.96 1468.77 Q1822.62 1466.67 1818.62 1466.67 Q1816.74 1466.67 1814.87 1467.08 Q1813.01 1467.5 1811.07 1468.38 L1811.07 1451.02 Z" fill="#000000" fill-rule="evenodd" fill-opacity="1" /><path clip-path="url(#clip980)" d="M2264.66 1481.64 L2280.98 1481.64 L2280.98 1485.58 L2259.03 1485.58 L2259.03 1481.64 Q2261.7 1478.89 2266.28 1474.26 Q2270.89 1469.61 2272.07 1468.27 Q2274.31 1465.74 2275.19 1464.01 Q2276.09 1462.25 2276.09 1460.56 Q2276.09 1457.8 2274.15 1456.07 Q2272.23 1454.33 2269.13 1454.33 Q2266.93 1454.33 2264.47 1455.09 Q2262.04 1455.86 2259.26 1457.41 L2259.26 1452.69 Q2262.09 1451.55 2264.54 1450.97 Q2267 1450.39 2269.03 1450.39 Q2274.4 1450.39 2277.6 1453.08 Q2280.79 1455.77 2280.79 1460.26 Q2280.79 1462.39 2279.98 1464.31 Q2279.2 1466.2 2277.09 1468.8 Q2276.51 1469.47 2273.41 1472.69 Q2270.31 1475.88 2264.66 1481.64 Z" fill="#000000" fill-rule="evenodd" fill-opacity="1" /><path clip-path="url(#clip980)" d="M2290.79 1479.7 L2295.68 1479.7 L2295.68 1485.58 L2290.79 1485.58 L2290.79 1479.7 Z" fill="#000000" fill-rule="evenodd" fill-opacity="1" /><path clip-path="url(#clip980)" d="M2315.86 1454.1 Q2312.25 1454.1 2310.42 1457.66 Q2308.62 1461.2 2308.62 1468.33 Q2308.62 1475.44 2310.42 1479.01 Q2312.25 1482.55 2315.86 1482.55 Q2319.5 1482.55 2321.3 1479.01 Q2323.13 1475.44 2323.13 1468.33 Q2323.13 1461.2 2321.3 1457.66 Q2319.5 1454.1 2315.86 1454.1 M2315.86 1450.39 Q2321.67 1450.39 2324.73 1455 Q2327.81 1459.58 2327.81 1468.33 Q2327.81 1477.06 2324.73 1481.67 Q2321.67 1486.25 2315.86 1486.25 Q2310.05 1486.25 2306.97 1481.67 Q2303.92 1477.06 2303.92 1468.33 Q2303.92 1459.58 2306.97 1455 Q2310.05 1450.39 2315.86 1450.39 Z" fill="#000000" fill-rule="evenodd" fill-opacity="1" /><path clip-path="url(#clip980)" d="M1012.22 1522.27 L1012.22 1532.4 L1024.28 1532.4 L1024.28 1536.95 L1012.22 1536.95 L1012.22 1556.3 Q1012.22 1560.66 1013.39 1561.9 Q1014.6 1563.14 1018.26 1563.14 L1024.28 1563.14 L1024.28 1568.04 L1018.26 1568.04 Q1011.48 1568.04 1008.91 1565.53 Q1006.33 1562.98 1006.33 1556.3 L1006.33 1536.95 L1002.03 1536.95 L1002.03 1532.4 L1006.33 1532.4 L1006.33 1522.27 L1012.22 1522.27 Z" fill="#000000" fill-rule="evenodd" fill-opacity="1" /><path clip-path="url(#clip980)" d="M1052.64 1537.87 Q1051.65 1537.3 1050.47 1537.04 Q1049.33 1536.76 1047.93 1536.76 Q1042.96 1536.76 1040.29 1540 Q1037.65 1543.22 1037.65 1549.27 L1037.65 1568.04 L1031.76 1568.04 L1031.76 1532.4 L1037.65 1532.4 L1037.65 1537.93 Q1039.49 1534.69 1042.45 1533.13 Q1045.41 1531.54 1049.65 1531.54 Q1050.25 1531.54 1050.98 1531.63 Q1051.72 1531.7 1052.61 1531.85 L1052.64 1537.87 Z" fill="#000000" fill-rule="evenodd" fill-opacity="1" /><path clip-path="url(#clip980)" d="M1074.98 1550.12 Q1067.88 1550.12 1065.15 1551.75 Q1062.41 1553.37 1062.41 1557.29 Q1062.41 1560.4 1064.45 1562.25 Q1066.52 1564.07 1070.05 1564.07 Q1074.92 1564.07 1077.85 1560.63 Q1080.81 1557.16 1080.81 1551.43 L1080.81 1550.12 L1074.98 1550.12 M1086.66 1547.71 L1086.66 1568.04 L1080.81 1568.04 L1080.81 1562.63 Q1078.8 1565.88 1075.81 1567.44 Q1072.82 1568.97 1068.49 1568.97 Q1063.02 1568.97 1059.77 1565.91 Q1056.55 1562.82 1056.55 1557.67 Q1056.55 1551.65 1060.56 1548.6 Q1064.61 1545.54 1072.6 1545.54 L1080.81 1545.54 L1080.81 1544.97 Q1080.81 1540.93 1078.13 1538.73 Q1075.49 1536.5 1070.69 1536.5 Q1067.63 1536.5 1064.73 1537.23 Q1061.84 1537.97 1059.16 1539.43 L1059.16 1534.02 Q1062.38 1532.78 1065.4 1532.17 Q1068.43 1531.54 1071.29 1531.54 Q1079.02 1531.54 1082.84 1535.55 Q1086.66 1539.56 1086.66 1547.71 Z" fill="#000000" fill-rule="evenodd" fill-opacity="1" /><path clip-path="url(#clip980)" d="M1098.73 1532.4 L1104.58 1532.4 L1104.58 1568.68 Q1104.58 1575.49 1101.97 1578.55 Q1099.4 1581.6 1093.63 1581.6 L1091.41 1581.6 L1091.41 1576.64 L1092.97 1576.64 Q1096.31 1576.64 1097.52 1575.08 Q1098.73 1573.55 1098.73 1568.68 L1098.73 1532.4 M1098.73 1518.52 L1104.58 1518.52 L1104.58 1525.93 L1098.73 1525.93 L1098.73 1518.52 Z" fill="#000000" fill-rule="evenodd" fill-opacity="1" /><path clip-path="url(#clip980)" d="M1147.33 1548.76 L1147.33 1551.62 L1120.4 1551.62 Q1120.78 1557.67 1124.03 1560.85 Q1127.31 1564 1133.13 1564 Q1136.51 1564 1139.66 1563.17 Q1142.84 1562.35 1145.96 1560.69 L1145.96 1566.23 Q1142.81 1567.57 1139.5 1568.27 Q1136.19 1568.97 1132.78 1568.97 Q1124.25 1568.97 1119.26 1564 Q1114.29 1559.04 1114.29 1550.57 Q1114.29 1541.82 1119 1536.69 Q1123.74 1531.54 1131.76 1531.54 Q1138.96 1531.54 1143.13 1536.18 Q1147.33 1540.8 1147.33 1548.76 M1141.47 1547.04 Q1141.41 1542.23 1138.77 1539.37 Q1136.16 1536.5 1131.83 1536.5 Q1126.93 1536.5 1123.97 1539.27 Q1121.04 1542.04 1120.59 1547.07 L1141.47 1547.04 Z" fill="#000000" fill-rule="evenodd" fill-opacity="1" /><path clip-path="url(#clip980)" d="M1182.59 1533.76 L1182.59 1539.24 Q1180.11 1537.87 1177.6 1537.2 Q1175.12 1536.5 1172.57 1536.5 Q1166.87 1536.5 1163.72 1540.13 Q1160.57 1543.73 1160.57 1550.25 Q1160.57 1556.78 1163.72 1560.4 Q1166.87 1564 1172.57 1564 Q1175.12 1564 1177.6 1563.33 Q1180.11 1562.63 1182.59 1561.26 L1182.59 1566.68 Q1180.14 1567.82 1177.5 1568.39 Q1174.89 1568.97 1171.93 1568.97 Q1163.88 1568.97 1159.14 1563.91 Q1154.39 1558.85 1154.39 1550.25 Q1154.39 1541.53 1159.17 1536.53 Q1163.98 1531.54 1172.31 1531.54 Q1175.02 1531.54 1177.6 1532.11 Q1180.18 1532.65 1182.59 1533.76 Z" fill="#000000" fill-rule="evenodd" fill-opacity="1" /><path clip-path="url(#clip980)" d="M1198.57 1522.27 L1198.57 1532.4 L1210.64 1532.4 L1210.64 1536.95 L1198.57 1536.95 L1198.57 1556.3 Q1198.57 1560.66 1199.75 1561.9 Q1200.96 1563.14 1204.62 1563.14 L1210.64 1563.14 L1210.64 1568.04 L1204.62 1568.04 Q1197.84 1568.04 1195.26 1565.53 Q1192.68 1562.98 1192.68 1556.3 L1192.68 1536.95 L1188.39 1536.95 L1188.39 1532.4 L1192.68 1532.4 L1192.68 1522.27 L1198.57 1522.27 Z" fill="#000000" fill-rule="evenodd" fill-opacity="1" /><path clip-path="url(#clip980)" d="M1232.15 1536.5 Q1227.44 1536.5 1224.7 1540.19 Q1221.97 1543.85 1221.97 1550.25 Q1221.97 1556.65 1224.67 1560.34 Q1227.41 1564 1232.15 1564 Q1236.83 1564 1239.57 1560.31 Q1242.31 1556.62 1242.31 1550.25 Q1242.31 1543.92 1239.57 1540.23 Q1236.83 1536.5 1232.15 1536.5 M1232.15 1531.54 Q1239.79 1531.54 1244.15 1536.5 Q1248.51 1541.47 1248.51 1550.25 Q1248.51 1559 1244.15 1564 Q1239.79 1568.97 1232.15 1568.97 Q1224.48 1568.97 1220.12 1564 Q1215.79 1559 1215.79 1550.25 Q1215.79 1541.47 1220.12 1536.5 Q1224.48 1531.54 1232.15 1531.54 Z" fill="#000000" fill-rule="evenodd" fill-opacity="1" /><path clip-path="url(#clip980)" d="M1278.88 1537.87 Q1277.89 1537.3 1276.71 1537.04 Q1275.57 1536.76 1274.17 1536.76 Q1269.2 1536.76 1266.53 1540 Q1263.88 1543.22 1263.88 1549.27 L1263.88 1568.04 L1258 1568.04 L1258 1532.4 L1263.88 1532.4 L1263.88 1537.93 Q1265.73 1534.69 1268.69 1533.13 Q1271.65 1531.54 1275.88 1531.54 Q1276.49 1531.54 1277.22 1531.63 Q1277.95 1531.7 1278.84 1531.85 L1278.88 1537.87 Z" fill="#000000" fill-rule="evenodd" fill-opacity="1" /><path clip-path="url(#clip980)" d="M1299.85 1571.35 Q1297.37 1577.72 1295.01 1579.66 Q1292.66 1581.6 1288.71 1581.6 L1284.03 1581.6 L1284.03 1576.7 L1287.47 1576.7 Q1289.89 1576.7 1291.23 1575.56 Q1292.56 1574.41 1294.19 1570.14 L1295.24 1567.47 L1280.82 1532.4 L1287.02 1532.4 L1298.16 1560.28 L1309.3 1532.4 L1315.51 1532.4 L1299.85 1571.35 Z" fill="#000000" fill-rule="evenodd" fill-opacity="1" /><path clip-path="url(#clip980)" d="M1367.77 1537.81 L1367.77 1518.52 L1373.63 1518.52 L1373.63 1568.04 L1367.77 1568.04 L1367.77 1562.7 Q1365.93 1565.88 1363.09 1567.44 Q1360.29 1568.97 1356.35 1568.97 Q1349.89 1568.97 1345.81 1563.81 Q1341.77 1558.65 1341.77 1550.25 Q1341.77 1541.85 1345.81 1536.69 Q1349.89 1531.54 1356.35 1531.54 Q1360.29 1531.54 1363.09 1533.1 Q1365.93 1534.62 1367.77 1537.81 M1347.82 1550.25 Q1347.82 1556.71 1350.46 1560.4 Q1353.13 1564.07 1357.78 1564.07 Q1362.43 1564.07 1365.1 1560.4 Q1367.77 1556.71 1367.77 1550.25 Q1367.77 1543.79 1365.1 1540.13 Q1362.43 1536.44 1357.78 1536.44 Q1353.13 1536.44 1350.46 1540.13 Q1347.82 1543.79 1347.82 1550.25 Z" fill="#000000" fill-rule="evenodd" fill-opacity="1" /><path clip-path="url(#clip980)" d="M1385.09 1553.98 L1385.09 1532.4 L1390.94 1532.4 L1390.94 1553.75 Q1390.94 1558.81 1392.92 1561.36 Q1394.89 1563.87 1398.84 1563.87 Q1403.58 1563.87 1406.32 1560.85 Q1409.09 1557.83 1409.09 1552.61 L1409.09 1532.4 L1414.94 1532.4 L1414.94 1568.04 L1409.09 1568.04 L1409.09 1562.57 Q1406.95 1565.82 1404.12 1567.41 Q1401.32 1568.97 1397.6 1568.97 Q1391.45 1568.97 1388.27 1565.15 Q1385.09 1561.33 1385.09 1553.98 M1399.82 1531.54 L1399.82 1531.54 Z" fill="#000000" fill-rule="evenodd" fill-opacity="1" /><path clip-path="url(#clip980)" d="M1447.66 1537.87 Q1446.68 1537.3 1445.5 1537.04 Q1444.35 1536.76 1442.95 1536.76 Q1437.99 1536.76 1435.31 1540 Q1432.67 1543.22 1432.67 1549.27 L1432.67 1568.04 L1426.78 1568.04 L1426.78 1532.4 L1432.67 1532.4 L1432.67 1537.93 Q1434.52 1534.69 1437.48 1533.13 Q1440.44 1531.54 1444.67 1531.54 Q1445.28 1531.54 1446.01 1531.63 Q1446.74 1531.7 1447.63 1531.85 L1447.66 1537.87 Z" fill="#000000" fill-rule="evenodd" fill-opacity="1" /><path clip-path="url(#clip980)" d="M1470.01 1550.12 Q1462.91 1550.12 1460.17 1551.75 Q1457.43 1553.37 1457.43 1557.29 Q1457.43 1560.4 1459.47 1562.25 Q1461.54 1564.07 1465.07 1564.07 Q1469.94 1564.07 1472.87 1560.63 Q1475.83 1557.16 1475.83 1551.43 L1475.83 1550.12 L1470.01 1550.12 M1481.69 1547.71 L1481.69 1568.04 L1475.83 1568.04 L1475.83 1562.63 Q1473.83 1565.88 1470.83 1567.44 Q1467.84 1568.97 1463.51 1568.97 Q1458.04 1568.97 1454.79 1565.91 Q1451.58 1562.82 1451.58 1557.67 Q1451.58 1551.65 1455.59 1548.6 Q1459.63 1545.54 1467.62 1545.54 L1475.83 1545.54 L1475.83 1544.97 Q1475.83 1540.93 1473.16 1538.73 Q1470.52 1536.5 1465.71 1536.5 Q1462.65 1536.5 1459.76 1537.23 Q1456.86 1537.97 1454.19 1539.43 L1454.19 1534.02 Q1457.4 1532.78 1460.43 1532.17 Q1463.45 1531.54 1466.31 1531.54 Q1474.05 1531.54 1477.87 1535.55 Q1481.69 1539.56 1481.69 1547.71 Z" fill="#000000" fill-rule="evenodd" fill-opacity="1" /><path clip-path="url(#clip980)" d="M1499.54 1522.27 L1499.54 1532.4 L1511.61 1532.4 L1511.61 1536.95 L1499.54 1536.95 L1499.54 1556.3 Q1499.54 1560.66 1500.72 1561.9 Q1501.93 1563.14 1505.59 1563.14 L1511.61 1563.14 L1511.61 1568.04 L1505.59 1568.04 Q1498.81 1568.04 1496.23 1565.53 Q1493.66 1562.98 1493.66 1556.3 L1493.66 1536.95 L1489.36 1536.95 L1489.36 1532.4 L1493.66 1532.4 L1493.66 1522.27 L1499.54 1522.27 Z" fill="#000000" fill-rule="evenodd" fill-opacity="1" /><path clip-path="url(#clip980)" d="M1519.31 1532.4 L1525.17 1532.4 L1525.17 1568.04 L1519.31 1568.04 L1519.31 1532.4 M1519.31 1518.52 L1525.17 1518.52 L1525.17 1525.93 L1519.31 1525.93 L1519.31 1518.52 Z" fill="#000000" fill-rule="evenodd" fill-opacity="1" /><path clip-path="url(#clip980)" d="M1551.23 1536.5 Q1546.52 1536.5 1543.79 1540.19 Q1541.05 1543.85 1541.05 1550.25 Q1541.05 1556.65 1543.75 1560.34 Q1546.49 1564 1551.23 1564 Q1555.91 1564 1558.65 1560.31 Q1561.39 1556.62 1561.39 1550.25 Q1561.39 1543.92 1558.65 1540.23 Q1555.91 1536.5 1551.23 1536.5 M1551.23 1531.54 Q1558.87 1531.54 1563.23 1536.5 Q1567.59 1541.47 1567.59 1550.25 Q1567.59 1559 1563.23 1564 Q1558.87 1568.97 1551.23 1568.97 Q1543.56 1568.97 1539.2 1564 Q1534.87 1559 1534.87 1550.25 Q1534.87 1541.47 1539.2 1536.5 Q1543.56 1531.54 1551.23 1531.54 Z" fill="#000000" fill-rule="evenodd" fill-opacity="1" /><path clip-path="url(#clip980)" d="M1606.93 1546.53 L1606.93 1568.04 L1601.08 1568.04 L1601.08 1546.72 Q1601.08 1541.66 1599.1 1539.14 Q1597.13 1536.63 1593.18 1536.63 Q1588.44 1536.63 1585.7 1539.65 Q1582.97 1542.68 1582.97 1547.9 L1582.97 1568.04 L1577.08 1568.04 L1577.08 1532.4 L1582.97 1532.4 L1582.97 1537.93 Q1585.07 1534.72 1587.9 1533.13 Q1590.76 1531.54 1594.49 1531.54 Q1600.63 1531.54 1603.78 1535.36 Q1606.93 1539.14 1606.93 1546.53 Z" fill="#000000" fill-rule="evenodd" fill-opacity="1" /><polyline clip-path="url(#clip982)" style="stroke:#000000; stroke-linecap:butt; stroke-linejoin:round; stroke-width:2; stroke-opacity:0.1; fill:none" points="
  256.209,1262.12 2352.76,1262.12 
  "/>
<polyline clip-path="url(#clip982)" style="stroke:#000000; stroke-linecap:butt; stroke-linejoin:round; stroke-width:2; stroke-opacity:0.1; fill:none" points="
  256.209,1008.61 2352.76,1008.61 
  "/>
<polyline clip-path="url(#clip982)" style="stroke:#000000; stroke-linecap:butt; stroke-linejoin:round; stroke-width:2; stroke-opacity:0.1; fill:none" points="
  256.209,755.098 2352.76,755.098 
  "/>
<polyline clip-path="url(#clip982)" style="stroke:#000000; stroke-linecap:butt; stroke-linejoin:round; stroke-width:2; stroke-opacity:0.1; fill:none" points="
  256.209,501.589 2352.76,501.589 
  "/>
<polyline clip-path="url(#clip982)" style="stroke:#000000; stroke-linecap:butt; stroke-linejoin:round; stroke-width:2; stroke-opacity:0.1; fill:none" points="
  256.209,248.081 2352.76,248.081 
  "/>
<polyline clip-path="url(#clip980)" style="stroke:#000000; stroke-linecap:butt; stroke-linejoin:round; stroke-width:4; stroke-opacity:1; fill:none" points="
  256.209,1423.18 256.209,47.2441 
  "/>
<polyline clip-path="url(#clip980)" style="stroke:#000000; stroke-linecap:butt; stroke-linejoin:round; stroke-width:4; stroke-opacity:1; fill:none" points="
  256.209,1262.12 275.106,1262.12 
  "/>
<polyline clip-path="url(#clip980)" style="stroke:#000000; stroke-linecap:butt; stroke-linejoin:round; stroke-width:4; stroke-opacity:1; fill:none" points="
  256.209,1008.61 275.106,1008.61 
  "/>
<polyline clip-path="url(#clip980)" style="stroke:#000000; stroke-linecap:butt; stroke-linejoin:round; stroke-width:4; stroke-opacity:1; fill:none" points="
  256.209,755.098 275.106,755.098 
  "/>
<polyline clip-path="url(#clip980)" style="stroke:#000000; stroke-linecap:butt; stroke-linejoin:round; stroke-width:4; stroke-opacity:1; fill:none" points="
  256.209,501.589 275.106,501.589 
  "/>
<polyline clip-path="url(#clip980)" style="stroke:#000000; stroke-linecap:butt; stroke-linejoin:round; stroke-width:4; stroke-opacity:1; fill:none" points="
  256.209,248.081 275.106,248.081 
  "/>
<path clip-path="url(#clip980)" d="M114.26 1262.57 L143.936 1262.57 L143.936 1266.5 L114.26 1266.5 L114.26 1262.57 Z" fill="#000000" fill-rule="evenodd" fill-opacity="1" /><path clip-path="url(#clip980)" d="M158.056 1275.46 L174.376 1275.46 L174.376 1279.4 L152.431 1279.4 L152.431 1275.46 Q155.093 1272.71 159.677 1268.08 Q164.283 1263.42 165.464 1262.08 Q167.709 1259.56 168.589 1257.82 Q169.491 1256.06 169.491 1254.37 Q169.491 1251.62 167.547 1249.88 Q165.626 1248.15 162.524 1248.15 Q160.325 1248.15 157.871 1248.91 Q155.44 1249.67 152.663 1251.22 L152.663 1246.5 Q155.487 1245.37 157.94 1244.79 Q160.394 1244.21 162.431 1244.21 Q167.802 1244.21 170.996 1246.9 Q174.19 1249.58 174.19 1254.07 Q174.19 1256.2 173.38 1258.12 Q172.593 1260.02 170.487 1262.61 Q169.908 1263.28 166.806 1266.5 Q163.704 1269.7 158.056 1275.46 Z" fill="#000000" fill-rule="evenodd" fill-opacity="1" /><path clip-path="url(#clip980)" d="M184.19 1273.52 L189.075 1273.52 L189.075 1279.4 L184.19 1279.4 L184.19 1273.52 Z" fill="#000000" fill-rule="evenodd" fill-opacity="1" /><path clip-path="url(#clip980)" d="M199.306 1244.84 L217.662 1244.84 L217.662 1248.77 L203.588 1248.77 L203.588 1257.24 Q204.607 1256.9 205.625 1256.73 Q206.644 1256.55 207.662 1256.55 Q213.449 1256.55 216.829 1259.72 Q220.209 1262.89 220.209 1268.31 Q220.209 1273.89 216.736 1276.99 Q213.264 1280.07 206.945 1280.07 Q204.769 1280.07 202.5 1279.7 Q200.255 1279.33 197.848 1278.59 L197.848 1273.89 Q199.931 1275.02 202.153 1275.58 Q204.375 1276.13 206.852 1276.13 Q210.857 1276.13 213.195 1274.02 Q215.533 1271.92 215.533 1268.31 Q215.533 1264.7 213.195 1262.59 Q210.857 1260.48 206.852 1260.48 Q204.977 1260.48 203.102 1260.9 Q201.25 1261.32 199.306 1262.2 L199.306 1244.84 Z" fill="#000000" fill-rule="evenodd" fill-opacity="1" /><path clip-path="url(#clip980)" d="M163.033 994.405 Q159.422 994.405 157.593 997.97 Q155.788 1001.51 155.788 1008.64 Q155.788 1015.75 157.593 1019.31 Q159.422 1022.85 163.033 1022.85 Q166.667 1022.85 168.473 1019.31 Q170.302 1015.75 170.302 1008.64 Q170.302 1001.51 168.473 997.97 Q166.667 994.405 163.033 994.405 M163.033 990.702 Q168.843 990.702 171.899 995.308 Q174.977 999.891 174.977 1008.64 Q174.977 1017.37 171.899 1021.97 Q168.843 1026.56 163.033 1026.56 Q157.223 1026.56 154.144 1021.97 Q151.089 1017.37 151.089 1008.64 Q151.089 999.891 154.144 995.308 Q157.223 990.702 163.033 990.702 Z" fill="#000000" fill-rule="evenodd" fill-opacity="1" /><path clip-path="url(#clip980)" d="M183.195 1020.01 L188.079 1020.01 L188.079 1025.89 L183.195 1025.89 L183.195 1020.01 Z" fill="#000000" fill-rule="evenodd" fill-opacity="1" /><path clip-path="url(#clip980)" d="M208.264 994.405 Q204.653 994.405 202.824 997.97 Q201.019 1001.51 201.019 1008.64 Q201.019 1015.75 202.824 1019.31 Q204.653 1022.85 208.264 1022.85 Q211.899 1022.85 213.704 1019.31 Q215.533 1015.75 215.533 1008.64 Q215.533 1001.51 213.704 997.97 Q211.899 994.405 208.264 994.405 M208.264 990.702 Q214.074 990.702 217.13 995.308 Q220.209 999.891 220.209 1008.64 Q220.209 1017.37 217.13 1021.97 Q214.074 1026.56 208.264 1026.56 Q202.454 1026.56 199.375 1021.97 Q196.32 1017.37 196.32 1008.64 Q196.32 999.891 199.375 995.308 Q202.454 990.702 208.264 990.702 Z" fill="#000000" fill-rule="evenodd" fill-opacity="1" /><path clip-path="url(#clip980)" d="M158.056 768.443 L174.376 768.443 L174.376 772.378 L152.431 772.378 L152.431 768.443 Q155.093 765.688 159.677 761.059 Q164.283 756.406 165.464 755.063 Q167.709 752.54 168.589 750.804 Q169.491 749.045 169.491 747.355 Q169.491 744.6 167.547 742.864 Q165.626 741.128 162.524 741.128 Q160.325 741.128 157.871 741.892 Q155.44 742.656 152.663 744.207 L152.663 739.485 Q155.487 738.35 157.94 737.772 Q160.394 737.193 162.431 737.193 Q167.802 737.193 170.996 739.878 Q174.19 742.563 174.19 747.054 Q174.19 749.184 173.38 751.105 Q172.593 753.003 170.487 755.596 Q169.908 756.267 166.806 759.484 Q163.704 762.679 158.056 768.443 Z" fill="#000000" fill-rule="evenodd" fill-opacity="1" /><path clip-path="url(#clip980)" d="M184.19 766.498 L189.075 766.498 L189.075 772.378 L184.19 772.378 L184.19 766.498 Z" fill="#000000" fill-rule="evenodd" fill-opacity="1" /><path clip-path="url(#clip980)" d="M199.306 737.818 L217.662 737.818 L217.662 741.753 L203.588 741.753 L203.588 750.225 Q204.607 749.878 205.625 749.716 Q206.644 749.531 207.662 749.531 Q213.449 749.531 216.829 752.702 Q220.209 755.873 220.209 761.29 Q220.209 766.869 216.736 769.971 Q213.264 773.049 206.945 773.049 Q204.769 773.049 202.5 772.679 Q200.255 772.308 197.848 771.568 L197.848 766.869 Q199.931 768.003 202.153 768.558 Q204.375 769.114 206.852 769.114 Q210.857 769.114 213.195 767.008 Q215.533 764.901 215.533 761.29 Q215.533 757.679 213.195 755.572 Q210.857 753.466 206.852 753.466 Q204.977 753.466 203.102 753.883 Q201.25 754.299 199.306 755.179 L199.306 737.818 Z" fill="#000000" fill-rule="evenodd" fill-opacity="1" /><path clip-path="url(#clip980)" d="M153.079 484.309 L171.436 484.309 L171.436 488.244 L157.362 488.244 L157.362 496.717 Q158.38 496.369 159.399 496.207 Q160.417 496.022 161.436 496.022 Q167.223 496.022 170.602 499.193 Q173.982 502.365 173.982 507.781 Q173.982 513.36 170.51 516.462 Q167.038 519.541 160.718 519.541 Q158.542 519.541 156.274 519.17 Q154.028 518.8 151.621 518.059 L151.621 513.36 Q153.704 514.494 155.927 515.05 Q158.149 515.605 160.626 515.605 Q164.63 515.605 166.968 513.499 Q169.306 511.392 169.306 507.781 Q169.306 504.17 166.968 502.064 Q164.63 499.957 160.626 499.957 Q158.751 499.957 156.876 500.374 Q155.024 500.791 153.079 501.67 L153.079 484.309 Z" fill="#000000" fill-rule="evenodd" fill-opacity="1" /><path clip-path="url(#clip980)" d="M183.195 512.99 L188.079 512.99 L188.079 518.869 L183.195 518.869 L183.195 512.99 Z" fill="#000000" fill-rule="evenodd" fill-opacity="1" /><path clip-path="url(#clip980)" d="M208.264 487.388 Q204.653 487.388 202.824 490.953 Q201.019 494.494 201.019 501.624 Q201.019 508.73 202.824 512.295 Q204.653 515.837 208.264 515.837 Q211.899 515.837 213.704 512.295 Q215.533 508.73 215.533 501.624 Q215.533 494.494 213.704 490.953 Q211.899 487.388 208.264 487.388 M208.264 483.684 Q214.074 483.684 217.13 488.291 Q220.209 492.874 220.209 501.624 Q220.209 510.351 217.13 514.957 Q214.074 519.541 208.264 519.541 Q202.454 519.541 199.375 514.957 Q196.32 510.351 196.32 501.624 Q196.32 492.874 199.375 488.291 Q202.454 483.684 208.264 483.684 Z" fill="#000000" fill-rule="evenodd" fill-opacity="1" /><path clip-path="url(#clip980)" d="M152.848 230.801 L175.07 230.801 L175.07 232.791 L162.524 265.361 L157.64 265.361 L169.445 234.736 L152.848 234.736 L152.848 230.801 Z" fill="#000000" fill-rule="evenodd" fill-opacity="1" /><path clip-path="url(#clip980)" d="M184.19 259.481 L189.075 259.481 L189.075 265.361 L184.19 265.361 L184.19 259.481 Z" fill="#000000" fill-rule="evenodd" fill-opacity="1" /><path clip-path="url(#clip980)" d="M199.306 230.801 L217.662 230.801 L217.662 234.736 L203.588 234.736 L203.588 243.208 Q204.607 242.861 205.625 242.699 Q206.644 242.514 207.662 242.514 Q213.449 242.514 216.829 245.685 Q220.209 248.856 220.209 254.273 Q220.209 259.851 216.736 262.953 Q213.264 266.032 206.945 266.032 Q204.769 266.032 202.5 265.662 Q200.255 265.291 197.848 264.55 L197.848 259.851 Q199.931 260.986 202.153 261.541 Q204.375 262.097 206.852 262.097 Q210.857 262.097 213.195 259.99 Q215.533 257.884 215.533 254.273 Q215.533 250.662 213.195 248.555 Q210.857 246.449 206.852 246.449 Q204.977 246.449 203.102 246.865 Q201.25 247.282 199.306 248.162 L199.306 230.801 Z" fill="#000000" fill-rule="evenodd" fill-opacity="1" /><path clip-path="url(#clip980)" d="M35.1993 1120.99 Q31.2526 1118.79 29.3747 1115.74 Q27.4968 1112.68 27.4968 1108.54 Q27.4968 1102.97 31.4117 1099.95 Q35.2948 1096.93 42.4881 1096.93 L64.0042 1096.93 L64.0042 1102.82 L42.679 1102.82 Q37.5546 1102.82 35.072 1104.63 Q32.5894 1106.44 32.5894 1110.17 Q32.5894 1114.72 35.6131 1117.36 Q38.6368 1120 43.8567 1120 L64.0042 1120 L64.0042 1125.89 L42.679 1125.89 Q37.5228 1125.89 35.072 1127.71 Q32.5894 1129.52 32.5894 1133.31 Q32.5894 1137.8 35.6449 1140.44 Q38.6686 1143.08 43.8567 1143.08 L64.0042 1143.08 L64.0042 1148.97 L28.3562 1148.97 L28.3562 1143.08 L33.8944 1143.08 Q30.616 1141.07 29.0564 1138.27 Q27.4968 1135.47 27.4968 1131.62 Q27.4968 1127.74 29.4702 1125.03 Q31.4436 1122.29 35.1993 1120.99 Z" fill="#000000" fill-rule="evenodd" fill-opacity="1" /><path clip-path="url(#clip980)" d="M49.9359 1085.85 L28.3562 1085.85 L28.3562 1079.99 L49.7131 1079.99 Q54.7739 1079.99 57.3202 1078.02 Q59.8346 1076.05 59.8346 1072.1 Q59.8346 1067.36 56.8109 1064.62 Q53.7872 1061.85 48.5673 1061.85 L28.3562 1061.85 L28.3562 1056 L64.0042 1056 L64.0042 1061.85 L58.5296 1061.85 Q61.7762 1063.98 63.3676 1066.82 Q64.9272 1069.62 64.9272 1073.34 Q64.9272 1079.49 61.1078 1082.67 Q57.2883 1085.85 49.9359 1085.85 M27.4968 1071.11 L27.4968 1071.11 Z" fill="#000000" fill-rule="evenodd" fill-opacity="1" /><path clip-path="url(#clip980)" d="M18.2347 1038.14 L28.3562 1038.14 L28.3562 1026.08 L32.9077 1026.08 L32.9077 1038.14 L52.2594 1038.14 Q56.6199 1038.14 57.8613 1036.96 Q59.1026 1035.75 59.1026 1032.09 L59.1026 1026.08 L64.0042 1026.08 L64.0042 1032.09 Q64.0042 1038.87 61.4897 1041.45 Q58.9434 1044.03 52.2594 1044.03 L32.9077 1044.03 L32.9077 1048.33 L28.3562 1048.33 L28.3562 1044.03 L18.2347 1044.03 L18.2347 1038.14 Z" fill="#000000" fill-rule="evenodd" fill-opacity="1" /><path clip-path="url(#clip980)" d="M49.9359 1018.98 L28.3562 1018.98 L28.3562 1013.12 L49.7131 1013.12 Q54.7739 1013.12 57.3202 1011.15 Q59.8346 1009.18 59.8346 1005.23 Q59.8346 1000.49 56.8109 997.75 Q53.7872 994.981 48.5673 994.981 L28.3562 994.981 L28.3562 989.124 L64.0042 989.124 L64.0042 994.981 L58.5296 994.981 Q61.7762 997.113 63.3676 999.946 Q64.9272 1002.75 64.9272 1006.47 Q64.9272 1012.61 61.1078 1015.8 Q57.2883 1018.98 49.9359 1018.98 M27.4968 1004.24 L27.4968 1004.24 Z" fill="#000000" fill-rule="evenodd" fill-opacity="1" /><path clip-path="url(#clip980)" d="M46.0847 960.86 Q46.0847 967.958 47.7079 970.695 Q49.3312 973.433 53.2461 973.433 Q56.3653 973.433 58.2114 971.396 Q60.0256 969.327 60.0256 965.794 Q60.0256 960.924 56.5881 957.996 Q53.1188 955.036 47.3897 955.036 L46.0847 955.036 L46.0847 960.86 M43.6657 949.179 L64.0042 949.179 L64.0042 955.036 L58.5933 955.036 Q61.8398 957.041 63.3994 960.033 Q64.9272 963.025 64.9272 967.353 Q64.9272 972.828 61.8716 976.074 Q58.7843 979.289 53.6281 979.289 Q47.6125 979.289 44.5569 975.279 Q41.5014 971.236 41.5014 963.247 L41.5014 955.036 L40.9285 955.036 Q36.8862 955.036 34.6901 957.709 Q32.4621 960.351 32.4621 965.157 Q32.4621 968.213 33.1941 971.109 Q33.9262 974.006 35.3903 976.679 L29.9795 976.679 Q28.7381 973.464 28.1334 970.441 Q27.4968 967.417 27.4968 964.552 Q27.4968 956.818 31.5072 952.999 Q35.5176 949.179 43.6657 949.179 Z" fill="#000000" fill-rule="evenodd" fill-opacity="1" /><path clip-path="url(#clip980)" d="M14.479 937.116 L14.479 931.26 L64.0042 931.26 L64.0042 937.116 L14.479 937.116 Z" fill="#000000" fill-rule="evenodd" fill-opacity="1" /><path clip-path="url(#clip980)" d="M28.3562 898.285 L28.3562 892.429 L64.0042 892.429 L64.0042 898.285 L28.3562 898.285 M14.479 898.285 L14.479 892.429 L21.895 892.429 L21.895 898.285 L14.479 898.285 Z" fill="#000000" fill-rule="evenodd" fill-opacity="1" /><path clip-path="url(#clip980)" d="M42.4881 850.543 L64.0042 850.543 L64.0042 856.399 L42.679 856.399 Q37.6183 856.399 35.1038 858.372 Q32.5894 860.346 32.5894 864.293 Q32.5894 869.035 35.6131 871.772 Q38.6368 874.51 43.8567 874.51 L64.0042 874.51 L64.0042 880.398 L28.3562 880.398 L28.3562 874.51 L33.8944 874.51 Q30.6797 872.409 29.0883 869.576 Q27.4968 866.712 27.4968 862.988 Q27.4968 856.845 31.3163 853.694 Q35.1038 850.543 42.4881 850.543 Z" fill="#000000" fill-rule="evenodd" fill-opacity="1" /><path clip-path="url(#clip980)" d="M14.479 820.815 L19.3487 820.815 L19.3487 826.417 Q19.3487 829.568 20.6219 830.809 Q21.895 832.018 25.2052 832.018 L28.3562 832.018 L28.3562 822.374 L32.9077 822.374 L32.9077 832.018 L64.0042 832.018 L64.0042 837.907 L32.9077 837.907 L32.9077 843.509 L28.3562 843.509 L28.3562 837.907 L25.8736 837.907 Q19.9216 837.907 17.2162 835.138 Q14.479 832.369 14.479 826.353 L14.479 820.815 Z" fill="#000000" fill-rule="evenodd" fill-opacity="1" /><path clip-path="url(#clip980)" d="M32.4621 802.1 Q32.4621 806.81 36.1542 809.548 Q39.8145 812.285 46.212 812.285 Q52.6095 812.285 56.3017 809.579 Q59.9619 806.842 59.9619 802.1 Q59.9619 797.421 56.2698 794.684 Q52.5777 791.946 46.212 791.946 Q39.8781 791.946 36.186 794.684 Q32.4621 797.421 32.4621 802.1 M27.4968 802.1 Q27.4968 794.461 32.4621 790.1 Q37.4273 785.74 46.212 785.74 Q54.9649 785.74 59.9619 790.1 Q64.9272 794.461 64.9272 802.1 Q64.9272 809.77 59.9619 814.131 Q54.9649 818.459 46.212 818.459 Q37.4273 818.459 32.4621 814.131 Q27.4968 809.77 27.4968 802.1 Z" fill="#000000" fill-rule="evenodd" fill-opacity="1" /><path clip-path="url(#clip980)" d="M33.8307 755.375 Q33.2578 756.362 33.0032 757.54 Q32.7167 758.686 32.7167 760.086 Q32.7167 765.051 35.9632 767.725 Q39.1779 770.367 45.2253 770.367 L64.0042 770.367 L64.0042 776.255 L28.3562 776.255 L28.3562 770.367 L33.8944 770.367 Q30.6479 768.521 29.0883 765.56 Q27.4968 762.6 27.4968 758.367 Q27.4968 757.762 27.5923 757.03 Q27.656 756.298 27.8151 755.407 L33.8307 755.375 Z" fill="#000000" fill-rule="evenodd" fill-opacity="1" /><path clip-path="url(#clip980)" d="M35.1993 722.624 Q31.2526 720.428 29.3747 717.372 Q27.4968 714.317 27.4968 710.179 Q27.4968 704.609 31.4117 701.585 Q35.2948 698.561 42.4881 698.561 L64.0042 698.561 L64.0042 704.45 L42.679 704.45 Q37.5546 704.45 35.072 706.264 Q32.5894 708.078 32.5894 711.802 Q32.5894 716.354 35.6131 718.995 Q38.6368 721.637 43.8567 721.637 L64.0042 721.637 L64.0042 727.525 L42.679 727.525 Q37.5228 727.525 35.072 729.34 Q32.5894 731.154 32.5894 734.941 Q32.5894 739.429 35.6449 742.071 Q38.6686 744.713 43.8567 744.713 L64.0042 744.713 L64.0042 750.601 L28.3562 750.601 L28.3562 744.713 L33.8944 744.713 Q30.616 742.708 29.0564 739.907 Q27.4968 737.106 27.4968 733.255 Q27.4968 729.371 29.4702 726.666 Q31.4436 723.929 35.1993 722.624 Z" fill="#000000" fill-rule="evenodd" fill-opacity="1" /><path clip-path="url(#clip980)" d="M46.0847 670.68 Q46.0847 677.777 47.7079 680.515 Q49.3312 683.252 53.2461 683.252 Q56.3653 683.252 58.2114 681.215 Q60.0256 679.146 60.0256 675.613 Q60.0256 670.743 56.5881 667.815 Q53.1188 664.855 47.3897 664.855 L46.0847 664.855 L46.0847 670.68 M43.6657 658.999 L64.0042 658.999 L64.0042 664.855 L58.5933 664.855 Q61.8398 666.86 63.3994 669.852 Q64.9272 672.844 64.9272 677.173 Q64.9272 682.647 61.8716 685.894 Q58.7843 689.108 53.6281 689.108 Q47.6125 689.108 44.5569 685.098 Q41.5014 681.056 41.5014 673.067 L41.5014 664.855 L40.9285 664.855 Q36.8862 664.855 34.6901 667.529 Q32.4621 670.17 32.4621 674.976 Q32.4621 678.032 33.1941 680.928 Q33.9262 683.825 35.3903 686.498 L29.9795 686.498 Q28.7381 683.284 28.1334 680.26 Q27.4968 677.236 27.4968 674.372 Q27.4968 666.637 31.5072 662.818 Q35.5176 658.999 43.6657 658.999 Z" fill="#000000" fill-rule="evenodd" fill-opacity="1" /><path clip-path="url(#clip980)" d="M18.2347 641.143 L28.3562 641.143 L28.3562 629.08 L32.9077 629.08 L32.9077 641.143 L52.2594 641.143 Q56.6199 641.143 57.8613 639.965 Q59.1026 638.756 59.1026 635.095 L59.1026 629.08 L64.0042 629.08 L64.0042 635.095 Q64.0042 641.875 61.4897 644.453 Q58.9434 647.031 52.2594 647.031 L32.9077 647.031 L32.9077 651.328 L28.3562 651.328 L28.3562 647.031 L18.2347 647.031 L18.2347 641.143 Z" fill="#000000" fill-rule="evenodd" fill-opacity="1" /><path clip-path="url(#clip980)" d="M28.3562 621.377 L28.3562 615.521 L64.0042 615.521 L64.0042 621.377 L28.3562 621.377 M14.479 621.377 L14.479 615.521 L21.895 615.521 L21.895 621.377 L14.479 621.377 Z" fill="#000000" fill-rule="evenodd" fill-opacity="1" /><path clip-path="url(#clip980)" d="M32.4621 589.453 Q32.4621 594.164 36.1542 596.901 Q39.8145 599.638 46.212 599.638 Q52.6095 599.638 56.3017 596.933 Q59.9619 594.196 59.9619 589.453 Q59.9619 584.774 56.2698 582.037 Q52.5777 579.3 46.212 579.3 Q39.8781 579.3 36.186 582.037 Q32.4621 584.774 32.4621 589.453 M27.4968 589.453 Q27.4968 581.814 32.4621 577.454 Q37.4273 573.093 46.212 573.093 Q54.9649 573.093 59.9619 577.454 Q64.9272 581.814 64.9272 589.453 Q64.9272 597.124 59.9619 601.484 Q54.9649 605.813 46.212 605.813 Q37.4273 605.813 32.4621 601.484 Q27.4968 597.124 27.4968 589.453 Z" fill="#000000" fill-rule="evenodd" fill-opacity="1" /><path clip-path="url(#clip980)" d="M42.4881 533.753 L64.0042 533.753 L64.0042 539.61 L42.679 539.61 Q37.6183 539.61 35.1038 541.583 Q32.5894 543.556 32.5894 547.503 Q32.5894 552.246 35.6131 554.983 Q38.6368 557.72 43.8567 557.72 L64.0042 557.72 L64.0042 563.608 L28.3562 563.608 L28.3562 557.72 L33.8944 557.72 Q30.6797 555.619 29.0883 552.787 Q27.4968 549.922 27.4968 546.198 Q27.4968 540.055 31.3163 536.904 Q35.1038 533.753 42.4881 533.753 Z" fill="#000000" fill-rule="evenodd" fill-opacity="1" /><path clip-path="url(#clip980)" d="M14.5426 487.284 Q21.8632 491.549 29.0246 493.617 Q36.186 495.686 43.5384 495.686 Q50.8908 495.686 58.1159 493.617 Q65.3091 491.517 72.5979 487.284 L72.5979 492.376 Q65.1182 497.15 57.8931 499.538 Q50.668 501.893 43.5384 501.893 Q36.4406 501.893 29.2474 499.538 Q22.0542 497.182 14.5426 492.376 L14.5426 487.284 Z" fill="#000000" fill-rule="evenodd" fill-opacity="1" /><path clip-path="url(#clip980)" d="M42.4881 446.288 L64.0042 446.288 L64.0042 452.145 L42.679 452.145 Q37.6183 452.145 35.1038 454.118 Q32.5894 456.092 32.5894 460.038 Q32.5894 464.781 35.6131 467.518 Q38.6368 470.255 43.8567 470.255 L64.0042 470.255 L64.0042 476.144 L28.3562 476.144 L28.3562 470.255 L33.8944 470.255 Q30.6797 468.155 29.0883 465.322 Q27.4968 462.457 27.4968 458.733 Q27.4968 452.591 31.3163 449.439 Q35.1038 446.288 42.4881 446.288 Z" fill="#000000" fill-rule="evenodd" fill-opacity="1" /><path clip-path="url(#clip980)" d="M46.0847 418.407 Q46.0847 425.504 47.7079 428.242 Q49.3312 430.979 53.2461 430.979 Q56.3653 430.979 58.2114 428.942 Q60.0256 426.873 60.0256 423.34 Q60.0256 418.47 56.5881 415.542 Q53.1188 412.582 47.3897 412.582 L46.0847 412.582 L46.0847 418.407 M43.6657 406.726 L64.0042 406.726 L64.0042 412.582 L58.5933 412.582 Q61.8398 414.587 63.3994 417.579 Q64.9272 420.571 64.9272 424.9 Q64.9272 430.374 61.8716 433.621 Q58.7843 436.835 53.6281 436.835 Q47.6125 436.835 44.5569 432.825 Q41.5014 428.783 41.5014 420.794 L41.5014 412.582 L40.9285 412.582 Q36.8862 412.582 34.6901 415.256 Q32.4621 417.897 32.4621 422.704 Q32.4621 425.759 33.1941 428.655 Q33.9262 431.552 35.3903 434.225 L29.9795 434.225 Q28.7381 431.011 28.1334 427.987 Q27.4968 424.963 27.4968 422.099 Q27.4968 414.364 31.5072 410.545 Q35.5176 406.726 43.6657 406.726 Z" fill="#000000" fill-rule="evenodd" fill-opacity="1" /><path clip-path="url(#clip980)" d="M18.2347 388.87 L28.3562 388.87 L28.3562 376.807 L32.9077 376.807 L32.9077 388.87 L52.2594 388.87 Q56.6199 388.87 57.8613 387.692 Q59.1026 386.483 59.1026 382.822 L59.1026 376.807 L64.0042 376.807 L64.0042 382.822 Q64.0042 389.602 61.4897 392.18 Q58.9434 394.758 52.2594 394.758 L32.9077 394.758 L32.9077 399.055 L28.3562 399.055 L28.3562 394.758 L18.2347 394.758 L18.2347 388.87 Z" fill="#000000" fill-rule="evenodd" fill-opacity="1" /><path clip-path="url(#clip980)" d="M29.4065 346.379 L34.9447 346.379 Q33.6716 348.861 33.035 351.535 Q32.3984 354.209 32.3984 357.073 Q32.3984 361.434 33.7352 363.63 Q35.072 365.794 37.7456 365.794 Q39.7826 365.794 40.9603 364.235 Q42.1061 362.675 43.1565 357.964 L43.6021 355.959 Q44.9389 349.721 47.3897 347.111 Q49.8086 344.469 54.1691 344.469 Q59.1344 344.469 62.0308 348.416 Q64.9272 352.331 64.9272 359.206 Q64.9272 362.07 64.3543 365.189 Q63.8132 368.277 62.6992 371.714 L56.6518 371.714 Q58.3387 368.468 59.198 365.317 Q60.0256 362.166 60.0256 359.078 Q60.0256 354.941 58.6251 352.713 Q57.1929 350.485 54.6147 350.485 Q52.2276 350.485 50.9545 352.108 Q49.6813 353.699 48.5037 359.142 L48.0262 361.179 Q46.8804 366.622 44.5251 369.041 Q42.138 371.46 38.0002 371.46 Q32.9713 371.46 30.2341 367.895 Q27.4968 364.33 27.4968 357.773 Q27.4968 354.527 27.9743 351.662 Q28.4517 348.798 29.4065 346.379 Z" fill="#000000" fill-rule="evenodd" fill-opacity="1" /><path clip-path="url(#clip980)" d="M14.5426 336.066 L14.5426 330.974 Q22.0542 326.199 29.2474 323.844 Q36.4406 321.457 43.5384 321.457 Q50.668 321.457 57.8931 323.844 Q65.1182 326.199 72.5979 330.974 L72.5979 336.066 Q65.3091 331.833 58.1159 329.764 Q50.8908 327.664 43.5384 327.664 Q36.186 327.664 29.0246 329.764 Q21.8632 331.833 14.5426 336.066 Z" fill="#000000" fill-rule="evenodd" fill-opacity="1" /><polyline clip-path="url(#clip982)" style="stroke:#000000; stroke-linecap:butt; stroke-linejoin:round; stroke-width:0.8; stroke-opacity:1; fill:none" points="
  315.545,1008.61 414.439,1034.93 513.332,1023.02 612.226,1014.02 711.12,1046.99 810.014,1034.33 908.907,927.194 1007.8,831.355 1106.69,849.001 1205.59,856.192 
  1304.48,837.597 1403.38,859.039 1502.27,815.205 1601.16,745.986 1700.06,721.328 1798.95,658.147 1897.84,554.984 1996.74,524.484 2095.63,542.083 2194.53,568.491 
  2293.42,327.116 
  "/>
<polyline clip-path="url(#clip982)" style="stroke:#000000; stroke-linecap:butt; stroke-linejoin:round; stroke-width:0.8; stroke-opacity:1; fill:none" points="
  315.545,1008.61 414.439,983.569 513.332,981.465 612.226,1038.97 711.12,970.129 810.014,906.085 908.907,909.444 1007.8,951.796 1106.69,945.96 1205.59,896.048 
  1304.48,901.919 1403.38,818.18 1502.27,722.374 1601.16,692.764 1700.06,649.673 1798.95,626.699 1897.84,772.573 1996.74,796.464 2095.63,851.441 2194.53,836.173 
  2293.42,850.798 
  "/>
<polyline clip-path="url(#clip982)" style="stroke:#000000; stroke-linecap:butt; stroke-linejoin:round; stroke-width:0.8; stroke-opacity:1; fill:none" points="
  315.545,1008.61 414.439,1018.2 513.332,997.057 612.226,1003.54 711.12,1029.35 810.014,1039.16 908.907,1037.23 1007.8,1204.47 1106.69,1209.46 1205.59,1089.02 
  1304.48,1064.44 1403.38,1031.24 1502.27,1014.09 1601.16,1008.98 1700.06,964.823 1798.95,946.249 1897.84,904.018 1996.74,854.633 2095.63,831.726 2194.53,801.241 
  2293.42,797.337 
  "/>
<polyline clip-path="url(#clip982)" style="stroke:#000000; stroke-linecap:butt; stroke-linejoin:round; stroke-width:0.8; stroke-opacity:1; fill:none" points="
  315.545,1008.61 414.439,969.154 513.332,955.275 612.226,897.233 711.12,883.264 810.014,861.52 908.907,862.034 1007.8,836.054 1106.69,772.934 1205.59,729.432 
  1304.48,703.294 1403.38,719.597 1502.27,652.894 1601.16,619.012 1700.06,585.049 1798.95,518.854 1897.84,523.67 1996.74,512.812 2095.63,499.558 2194.53,438.628 
  2293.42,417.426 
  "/>
<polyline clip-path="url(#clip982)" style="stroke:#000000; stroke-linecap:butt; stroke-linejoin:round; stroke-width:0.8; stroke-opacity:1; fill:none" points="
  315.545,1008.61 414.439,997.741 513.332,974.067 612.226,892.587 711.12,922.748 810.014,961.105 908.907,775.089 1007.8,758.671 1106.69,734.893 1205.59,731.585 
  1304.48,694.673 1403.38,669.075 1502.27,662.694 1601.16,665.456 1700.06,726.262 1798.95,759.266 1897.84,532.553 1996.74,375.155 2095.63,248.706 2194.53,388.413 
  2293.42,263.706 
  "/>
<polyline clip-path="url(#clip982)" style="stroke:#000000; stroke-linecap:butt; stroke-linejoin:round; stroke-width:0.8; stroke-opacity:1; fill:none" points="
  315.545,1008.61 414.439,973.182 513.332,1086.28 612.226,1076.33 711.12,1044.21 810.014,1017.77 908.907,1023.05 1007.8,1010.57 1106.69,920.933 1205.59,925.783 
  1304.48,902.992 1403.38,942.926 1502.27,842.581 1601.16,762.871 1700.06,729.531 1798.95,706.6 1897.84,798.657 1996.74,761.276 2095.63,767.686 2194.53,694.424 
  2293.42,716.812 
  "/>
<polyline clip-path="url(#clip982)" style="stroke:#000000; stroke-linecap:butt; stroke-linejoin:round; stroke-width:0.8; stroke-opacity:1; fill:none" points="
  315.545,1008.61 414.439,1004.61 513.332,1018.02 612.226,1045.69 711.12,1060.09 810.014,1115.86 908.907,1182.72 1007.8,1214.63 1106.69,1114.26 1205.59,1170 
  1304.48,1246.1 1403.38,1165.87 1502.27,1129.56 1601.16,1099.07 1700.06,1088.8 1798.95,1057.03 1897.84,1058.97 1996.74,978.935 2095.63,952.077 2194.53,947.49 
  2293.42,885.95 
  "/>
<polyline clip-path="url(#clip982)" style="stroke:#000000; stroke-linecap:butt; stroke-linejoin:round; stroke-width:0.8; stroke-opacity:1; fill:none" points="
  315.545,1008.61 414.439,977.485 513.332,974.541 612.226,964.062 711.12,987.704 810.014,909.556 908.907,878.826 1007.8,927.979 1106.69,961.583 1205.59,770.692 
  1304.48,726.045 1403.38,763.394 1502.27,750.184 1601.16,760.617 1700.06,675.342 1798.95,697.6 1897.84,672.877 1996.74,690.116 2095.63,709.41 2194.53,703.911 
  2293.42,573.403 
  "/>
<polyline clip-path="url(#clip982)" style="stroke:#000000; stroke-linecap:butt; stroke-linejoin:round; stroke-width:0.8; stroke-opacity:1; fill:none" points="
  315.545,1008.61 414.439,1004.18 513.332,1010.56 612.226,1020.34 711.12,1002.82 810.014,983.631 908.907,975.167 1007.8,846.1 1106.69,973.644 1205.59,978.255 
  1304.48,675.634 1403.38,585.631 1502.27,550.474 1601.16,523.283 1700.06,388.006 1798.95,253.43 1897.84,157.475 1996.74,116.398 2095.63,86.1857 2194.53,96.6461 
  2293.42,114.047 
  "/>
<polyline clip-path="url(#clip982)" style="stroke:#000000; stroke-linecap:butt; stroke-linejoin:round; stroke-width:0.8; stroke-opacity:1; fill:none" points="
  315.545,1008.61 414.439,1021.93 513.332,1019.94 612.226,983.481 711.12,811.737 810.014,810.384 908.907,945.123 1007.8,891.338 1106.69,892.194 1205.59,922.514 
  1304.48,978.705 1403.38,962.998 1502.27,976.28 1601.16,932.875 1700.06,890.362 1798.95,903.006 1897.84,706.827 1996.74,627.106 2095.63,602.512 2194.53,516.792 
  2293.42,515.422 
  "/>
<polyline clip-path="url(#clip982)" style="stroke:#000000; stroke-linecap:butt; stroke-linejoin:round; stroke-width:0.8; stroke-opacity:1; fill:none" points="
  315.545,1008.61 414.439,1047.98 513.332,1044.31 612.226,1180.3 711.12,1007.77 810.014,988.319 908.907,930.385 1007.8,954.885 1106.69,944.964 1205.59,863.284 
  1304.48,798.297 1403.38,788.658 1502.27,777.675 1601.16,749.618 1700.06,722.146 1798.95,617.422 1897.84,585.786 1996.74,565.769 2095.63,558.867 2194.53,577.818 
  2293.42,494.349 
  "/>
<polyline clip-path="url(#clip982)" style="stroke:#000000; stroke-linecap:butt; stroke-linejoin:round; stroke-width:0.8; stroke-opacity:1; fill:none" points="
  315.545,1008.61 414.439,1002.93 513.332,1010.55 612.226,991.308 711.12,1030.85 810.014,1024.68 908.907,900.895 1007.8,883.128 1106.69,864.044 1205.59,805.613 
  1304.48,826.753 1403.38,883.422 1502.27,859.332 1601.16,816.733 1700.06,788.753 1798.95,777.498 1897.84,711.258 1996.74,726.725 2095.63,677.926 2194.53,670.915 
  2293.42,636.65 
  "/>
<polyline clip-path="url(#clip982)" style="stroke:#000000; stroke-linecap:butt; stroke-linejoin:round; stroke-width:0.8; stroke-opacity:1; fill:none" points="
  315.545,1008.61 414.439,1010.05 513.332,988.336 612.226,968.812 711.12,937.988 810.014,924.316 908.907,859.8 1007.8,839.1 1106.69,918.216 1205.59,956.614 
  1304.48,927.841 1403.38,984.454 1502.27,1031.06 1601.16,973.73 1700.06,825.779 1798.95,772.486 1897.84,780.758 1996.74,726.055 2095.63,650.96 2194.53,648.423 
  2293.42,662.634 
  "/>
<polyline clip-path="url(#clip982)" style="stroke:#000000; stroke-linecap:butt; stroke-linejoin:round; stroke-width:0.8; stroke-opacity:1; fill:none" points="
  315.545,1008.61 414.439,997.141 513.332,1017.94 612.226,1030.32 711.12,1036.1 810.014,1096.64 908.907,1081.29 1007.8,1082.79 1106.69,1085.16 1205.59,1070.89 
  1304.48,1046.18 1403.38,1058.05 1502.27,998.133 1601.16,1089.67 1700.06,1066.33 1798.95,1000.79 1897.84,1047.81 1996.74,1105.49 2095.63,929.158 2194.53,944.223 
  2293.42,922.058 
  "/>
<polyline clip-path="url(#clip982)" style="stroke:#000000; stroke-linecap:butt; stroke-linejoin:round; stroke-width:0.8; stroke-opacity:1; fill:none" points="
  315.545,1008.61 414.439,986.206 513.332,981.359 612.226,963.794 711.12,949.181 810.014,877.381 908.907,850.107 1007.8,822.834 1106.69,815.764 1205.59,786.531 
  1304.48,802.287 1403.38,749.263 1502.27,707.524 1601.16,730.515 1700.06,772.858 1798.95,749.836 1897.84,746.9 1996.74,757.084 2095.63,731.591 2194.53,801.07 
  2293.42,755.526 
  "/>
<polyline clip-path="url(#clip982)" style="stroke:#000000; stroke-linecap:butt; stroke-linejoin:round; stroke-width:0.8; stroke-opacity:1; fill:none" points="
  315.545,1008.61 414.439,1009.44 513.332,1097.25 612.226,1057.38 711.12,1122.54 810.014,1110.43 908.907,980.07 1007.8,995.263 1106.69,967.982 1205.59,951.031 
  1304.48,917.844 1403.38,883.767 1502.27,870.803 1601.16,823.005 1700.06,819.669 1798.95,761.252 1897.84,821.288 1996.74,758.741 2095.63,698.948 2194.53,721.221 
  2293.42,693.09 
  "/>
<polyline clip-path="url(#clip982)" style="stroke:#000000; stroke-linecap:butt; stroke-linejoin:round; stroke-width:0.8; stroke-opacity:1; fill:none" points="
  315.545,1008.61 414.439,991.38 513.332,977.999 612.226,983.958 711.12,955.177 810.014,898.606 908.907,847.127 1007.8,840.21 1106.69,823.165 1205.59,827.473 
  1304.48,811.859 1403.38,741.966 1502.27,858.71 1601.16,823.253 1700.06,794.268 1798.95,802.126 1897.84,733.913 1996.74,688.663 2095.63,505.076 2194.53,536.4 
  2293.42,511.911 
  "/>
<polyline clip-path="url(#clip982)" style="stroke:#000000; stroke-linecap:butt; stroke-linejoin:round; stroke-width:0.8; stroke-opacity:1; fill:none" points="
  315.545,1008.61 414.439,969.081 513.332,956.296 612.226,971.741 711.12,924.622 810.014,888.325 908.907,851.988 1007.8,906.627 1106.69,889.22 1205.59,874.509 
  1304.48,859.049 1403.38,862.201 1502.27,843.574 1601.16,835.965 1700.06,808.803 1798.95,783.496 1897.84,824.026 1996.74,797.572 2095.63,829.368 2194.53,872.782 
  2293.42,840.256 
  "/>
<polyline clip-path="url(#clip982)" style="stroke:#000000; stroke-linecap:butt; stroke-linejoin:round; stroke-width:0.8; stroke-opacity:1; fill:none" points="
  315.545,1008.61 414.439,981.712 513.332,922.049 612.226,930.286 711.12,875.684 810.014,914.755 908.907,872.562 1007.8,834.624 1106.69,818.732 1205.59,807.34 
  1304.48,838.682 1403.38,780.67 1502.27,780.039 1601.16,750.664 1700.06,797.448 1798.95,803.908 1897.84,767.848 1996.74,753.438 2095.63,758.642 2194.53,792.947 
  2293.42,804.174 
  "/>
<polyline clip-path="url(#clip982)" style="stroke:#000000; stroke-linecap:butt; stroke-linejoin:round; stroke-width:0.8; stroke-opacity:1; fill:none" points="
  315.545,1008.61 414.439,987.261 513.332,958.378 612.226,929.427 711.12,925.613 810.014,924.978 908.907,902.776 1007.8,892.711 1106.69,1030.43 1205.59,899.592 
  1304.48,872.378 1403.38,739.71 1502.27,689.718 1601.16,632.962 1700.06,573.687 1798.95,607.618 1897.84,582.336 1996.74,657.213 2095.63,574.08 2194.53,685.775 
  2293.42,653.435 
  "/>
<polyline clip-path="url(#clip982)" style="stroke:#000000; stroke-linecap:butt; stroke-linejoin:round; stroke-width:0.8; stroke-opacity:1; fill:none" points="
  315.545,1008.61 414.439,1004.86 513.332,999.778 612.226,1080.74 711.12,1204.41 810.014,1146.26 908.907,1084.43 1007.8,1057.86 1106.69,1051.94 1205.59,1000.09 
  1304.48,891.935 1403.38,1002.89 1502.27,912.878 1601.16,825.476 1700.06,805.422 1798.95,751.516 1897.84,718.567 1996.74,644.507 2095.63,611.204 2194.53,628.646 
  2293.42,532.246 
  "/>
<polyline clip-path="url(#clip982)" style="stroke:#000000; stroke-linecap:butt; stroke-linejoin:round; stroke-width:0.8; stroke-opacity:1; fill:none" points="
  315.545,1008.61 414.439,986.836 513.332,778.832 612.226,734.45 711.12,670.718 810.014,646.906 908.907,613.707 1007.8,678.123 1106.69,544.957 1205.59,472.448 
  1304.48,408.6 1403.38,449.669 1502.27,367.634 1601.16,353.89 1700.06,320.973 1798.95,233.772 1897.84,438.455 1996.74,158.957 2095.63,252.355 2194.53,302.811 
  2293.42,308.511 
  "/>
<polyline clip-path="url(#clip982)" style="stroke:#000000; stroke-linecap:butt; stroke-linejoin:round; stroke-width:0.8; stroke-opacity:1; fill:none" points="
  315.545,1008.61 414.439,1007.46 513.332,1060.7 612.226,1051.65 711.12,1021.7 810.014,1011.6 908.907,996.053 1007.8,1058.61 1106.69,1159.73 1205.59,1107.94 
  1304.48,1086.33 1403.38,1060.58 1502.27,1043.75 1601.16,1038.13 1700.06,1013.44 1798.95,978.868 1897.84,979.545 1996.74,975.137 2095.63,889.563 2194.53,713.178 
  2293.42,770.078 
  "/>
<polyline clip-path="url(#clip982)" style="stroke:#000000; stroke-linecap:butt; stroke-linejoin:round; stroke-width:0.8; stroke-opacity:1; fill:none" points="
  315.545,1008.61 414.439,977.917 513.332,958.427 612.226,950.751 711.12,915.828 810.014,941.397 908.907,944.28 1007.8,942.063 1106.69,926.54 1205.59,907.751 
  1304.48,900.589 1403.38,881.93 1502.27,890.387 1601.16,844.056 1700.06,789.515 1798.95,793.616 1897.84,762.033 1996.74,581.186 2095.63,582.668 2194.53,571.551 
  2293.42,602.44 
  "/>
<polyline clip-path="url(#clip982)" style="stroke:#000000; stroke-linecap:butt; stroke-linejoin:round; stroke-width:0.8; stroke-opacity:1; fill:none" points="
  315.545,1008.61 414.439,997.537 513.332,1047.14 612.226,1041.59 711.12,1008.23 810.014,961.231 908.907,880.327 1007.8,852.683 1106.69,868.281 1205.59,805.317 
  1304.48,789.961 1403.38,821.945 1502.27,779.125 1601.16,732.615 1700.06,697.794 1798.95,687.101 1897.84,677.315 1996.74,781.574 2095.63,929.276 2194.53,679.872 
  2293.42,569.155 
  "/>
<polyline clip-path="url(#clip982)" style="stroke:#000000; stroke-linecap:butt; stroke-linejoin:round; stroke-width:0.8; stroke-opacity:1; fill:none" points="
  315.545,1008.61 414.439,1000.07 513.332,987.492 612.226,937.373 711.12,914.247 810.014,919.745 908.907,943.319 1007.8,846.422 1106.69,836.214 1205.59,917.561 
  1304.48,857.414 1403.38,840.015 1502.27,872.073 1601.16,898.953 1700.06,905.706 1798.95,887.808 1897.84,887.219 1996.74,979.913 2095.63,1138.71 2194.53,1175.11 
  2293.42,1245.38 
  "/>
<polyline clip-path="url(#clip982)" style="stroke:#000000; stroke-linecap:butt; stroke-linejoin:round; stroke-width:0.8; stroke-opacity:1; fill:none" points="
  315.545,1008.61 414.439,999.201 513.332,994.937 612.226,984.772 711.12,920.824 810.014,890.612 908.907,873.55 1007.8,910.142 1106.69,864.367 1205.59,829.519 
  1304.48,808.374 1403.38,757.731 1502.27,772.646 1601.16,750.941 1700.06,671.374 1798.95,660.36 1897.84,639.035 1996.74,597.441 2095.63,589.153 2194.53,550.243 
  2293.42,531.159 
  "/>
<polyline clip-path="url(#clip982)" style="stroke:#000000; stroke-linecap:butt; stroke-linejoin:round; stroke-width:0.8; stroke-opacity:1; fill:none" points="
  315.545,1008.61 414.439,1017.31 513.332,1007.86 612.226,1026.15 711.12,1095.56 810.014,1110.42 908.907,1130.04 1007.8,1175.03 1106.69,1117.41 1205.59,936.123 
  1304.48,913.7 1403.38,900.199 1502.27,876.389 1601.16,845.791 1700.06,814.631 1798.95,817.675 1897.84,801.071 1996.74,774.9 2095.63,680.494 2194.53,679.033 
  2293.42,632.962 
  "/>
<polyline clip-path="url(#clip982)" style="stroke:#000000; stroke-linecap:butt; stroke-linejoin:round; stroke-width:0.8; stroke-opacity:1; fill:none" points="
  315.545,1008.61 414.439,984.379 513.332,920.306 612.226,996.71 711.12,946.479 810.014,968.759 908.907,1008.93 1007.8,1010.47 1106.69,1101.37 1205.59,1156.31 
  1304.48,1251.77 1403.38,1174.19 1502.27,1153.92 1601.16,1177.02 1700.06,1121.83 1798.95,1058.31 1897.84,1043.88 1996.74,1141.7 2095.63,1050.43 2194.53,1029.71 
  2293.42,1006.93 
  "/>
<polyline clip-path="url(#clip982)" style="stroke:#000000; stroke-linecap:butt; stroke-linejoin:round; stroke-width:0.8; stroke-opacity:1; fill:none" points="
  315.545,1008.61 414.439,1016.77 513.332,1010.45 612.226,1022.66 711.12,1006.55 810.014,971.017 908.907,996.653 1007.8,934.479 1106.69,946.133 1205.59,918.82 
  1304.48,918.345 1403.38,909.754 1502.27,902.839 1601.16,889.163 1700.06,818.817 1798.95,824.547 1897.84,792.916 1996.74,748.949 2095.63,714.681 2194.53,628.57 
  2293.42,608.413 
  "/>
<polyline clip-path="url(#clip982)" style="stroke:#000000; stroke-linecap:butt; stroke-linejoin:round; stroke-width:0.8; stroke-opacity:1; fill:none" points="
  315.545,1008.61 414.439,1004.69 513.332,1028.2 612.226,1038.2 711.12,933.08 810.014,922.239 908.907,877.793 1007.8,864.797 1106.69,845.857 1205.59,824.188 
  1304.48,861.114 1403.38,870.406 1502.27,893.206 1601.16,876.337 1700.06,868.24 1798.95,818.927 1897.84,808.456 1996.74,804.528 2095.63,769.909 2194.53,825.811 
  2293.42,883.426 
  "/>
<polyline clip-path="url(#clip982)" style="stroke:#000000; stroke-linecap:butt; stroke-linejoin:round; stroke-width:0.8; stroke-opacity:1; fill:none" points="
  315.545,1008.61 414.439,1022.5 513.332,1046.77 612.226,1149.18 711.12,1138.36 810.014,1242.23 908.907,1355.76 1007.8,1375.32 1106.69,1299.5 1205.59,1347.01 
  1304.48,1376.06 1403.38,1371.66 1502.27,1350.03 1601.16,1312.35 1700.06,1359.75 1798.95,1338.95 1897.84,1384.24 1996.74,1324.68 2095.63,1297.19 2194.53,1241.45 
  2293.42,1306.74 
  "/>
<polyline clip-path="url(#clip982)" style="stroke:#000000; stroke-linecap:butt; stroke-linejoin:round; stroke-width:0.8; stroke-opacity:1; fill:none" points="
  315.545,1008.61 414.439,988.28 513.332,959.511 612.226,972.935 711.12,953.985 810.014,938.995 908.907,922.631 1007.8,893.838 1106.69,901.101 1205.59,848.888 
  1304.48,780.805 1403.38,755.677 1502.27,750.458 1601.16,726.727 1700.06,708.39 1798.95,854.311 1897.84,771.172 1996.74,812.142 2095.63,828.999 2194.53,809.122 
  2293.42,812.125 
  "/>
<polyline clip-path="url(#clip982)" style="stroke:#000000; stroke-linecap:butt; stroke-linejoin:round; stroke-width:0.8; stroke-opacity:1; fill:none" points="
  315.545,1008.61 414.439,990.265 513.332,1003.27 612.226,1051.56 711.12,971.975 810.014,968.41 908.907,970.738 1007.8,1090.64 1106.69,1016.54 1205.59,1018.81 
  1304.48,1001.87 1403.38,1025 1502.27,1122.49 1601.16,1007.4 1700.06,969.386 1798.95,1015.89 1897.84,940.33 1996.74,975.342 2095.63,1003.25 2194.53,991.9 
  2293.42,902.286 
  "/>
<polyline clip-path="url(#clip982)" style="stroke:#000000; stroke-linecap:butt; stroke-linejoin:round; stroke-width:0.8; stroke-opacity:1; fill:none" points="
  315.545,1008.61 414.439,1009.25 513.332,1001.73 612.226,969.96 711.12,1140.77 810.014,1103.03 908.907,1029.52 1007.8,1062.59 1106.69,1102.72 1205.59,1042.71 
  1304.48,1029.52 1403.38,1035.13 1502.27,1015.39 1601.16,978.992 1700.06,963.314 1798.95,981.624 1897.84,1043.79 1996.74,1310.23 2095.63,1210.79 2194.53,1018.94 
  2293.42,933.062 
  "/>
<polyline clip-path="url(#clip982)" style="stroke:#000000; stroke-linecap:butt; stroke-linejoin:round; stroke-width:0.8; stroke-opacity:1; fill:none" points="
  315.545,1008.61 414.439,941.922 513.332,837.195 612.226,847.432 711.12,775.954 810.014,746.793 908.907,749.599 1007.8,812.593 1106.69,873.385 1205.59,830.077 
  1304.48,810.09 1403.38,827.47 1502.27,809.95 1601.16,788.574 1700.06,751.697 1798.95,714.452 1897.84,696.834 1996.74,687.874 2095.63,638.088 2194.53,691.033 
  2293.42,695.461 
  "/>
<polyline clip-path="url(#clip982)" style="stroke:#000000; stroke-linecap:butt; stroke-linejoin:round; stroke-width:0.8; stroke-opacity:1; fill:none" points="
  315.545,1008.61 414.439,1006.48 513.332,1002.79 612.226,994.179 711.12,1047.3 810.014,991.702 908.907,1086.49 1007.8,1129.75 1106.69,1133.93 1205.59,1093.25 
  1304.48,1110.83 1403.38,1094.95 1502.27,1060.1 1601.16,1053 1700.06,1062.14 1798.95,1094.72 1897.84,1072.31 1996.74,1091.23 2095.63,1051.73 2194.53,1040.07 
  2293.42,1017.37 
  "/>
<polyline clip-path="url(#clip982)" style="stroke:#000000; stroke-linecap:butt; stroke-linejoin:round; stroke-width:0.8; stroke-opacity:1; fill:none" points="
  315.545,1008.61 414.439,1003.44 513.332,1012.51 612.226,1176.05 711.12,1193.24 810.014,984.194 908.907,972.27 1007.8,923.495 1106.69,916.605 1205.59,894.256 
  1304.48,858.517 1403.38,864.421 1502.27,830.271 1601.16,805.586 1700.06,642.608 1798.95,798.199 1897.84,632.335 1996.74,601.051 2095.63,580.26 2194.53,570.318 
  2293.42,529.776 
  "/>
<polyline clip-path="url(#clip982)" style="stroke:#000000; stroke-linecap:butt; stroke-linejoin:round; stroke-width:0.8; stroke-opacity:1; fill:none" points="
  315.545,1008.61 414.439,1003.72 513.332,1036.99 612.226,1036.1 711.12,1169.74 810.014,1142.49 908.907,1072.59 1007.8,1043.65 1106.69,1045.76 1205.59,1051.87 
  1304.48,1001.62 1403.38,918.419 1502.27,869.807 1601.16,819.657 1700.06,793.582 1798.95,776.964 1897.84,777.969 1996.74,747.484 2095.63,747.302 2194.53,741.353 
  2293.42,715.426 
  "/>
<polyline clip-path="url(#clip982)" style="stroke:#000000; stroke-linecap:butt; stroke-linejoin:round; stroke-width:0.8; stroke-opacity:1; fill:none" points="
  315.545,1008.61 414.439,1001.02 513.332,1004.09 612.226,946.355 711.12,940.583 810.014,934.065 908.907,934.161 1007.8,894.675 1106.69,864.596 1205.59,938.958 
  1304.48,881.452 1403.38,862.623 1502.27,817.186 1601.16,778.207 1700.06,749.747 1798.95,763.079 1897.84,776.893 1996.74,861.799 2095.63,752.835 2194.53,716.564 
  2293.42,705.535 
  "/>
<polyline clip-path="url(#clip982)" style="stroke:#000000; stroke-linecap:butt; stroke-linejoin:round; stroke-width:0.8; stroke-opacity:1; fill:none" points="
  315.545,1008.61 414.439,999.475 513.332,1025.02 612.226,935.38 711.12,905.188 810.014,918.326 908.907,910.615 1007.8,1045.03 1106.69,1068.69 1205.59,1046.31 
  1304.48,1056.54 1403.38,1091.3 1502.27,1026.11 1601.16,1056.47 1700.06,1094.02 1798.95,1042.19 1897.84,1018.29 1996.74,1004.9 2095.63,1048.97 2194.53,1077.17 
  2293.42,973.986 
  "/>
<polyline clip-path="url(#clip982)" style="stroke:#000000; stroke-linecap:butt; stroke-linejoin:round; stroke-width:0.8; stroke-opacity:1; fill:none" points="
  315.545,1008.61 414.439,1001.99 513.332,975.417 612.226,977.296 711.12,926.243 810.014,892.321 908.907,896.746 1007.8,834.297 1106.69,788.602 1205.59,766.325 
  1304.48,803.466 1403.38,784.938 1502.27,771.406 1601.16,756.385 1700.06,755.424 1798.95,769.71 1897.84,766.591 1996.74,744.944 2095.63,706.763 2194.53,723.317 
  2293.42,702.297 
  "/>
<polyline clip-path="url(#clip982)" style="stroke:#000000; stroke-linecap:butt; stroke-linejoin:round; stroke-width:0.8; stroke-opacity:1; fill:none" points="
  315.545,1008.61 414.439,1032.31 513.332,1065.39 612.226,992.965 711.12,999.674 810.014,1135.56 908.907,1158.64 1007.8,1163.01 1106.69,1122.5 1205.59,1124.6 
  1304.48,1101.04 1403.38,1087.92 1502.27,1086.68 1601.16,1100.78 1700.06,1072.09 1798.95,1086.84 1897.84,1035.25 1996.74,994.753 2095.63,1175.23 2194.53,1044.71 
  2293.42,910.507 
  "/>
<polyline clip-path="url(#clip982)" style="stroke:#000000; stroke-linecap:butt; stroke-linejoin:round; stroke-width:0.8; stroke-opacity:1; fill:none" points="
  315.545,1008.61 414.439,1013.99 513.332,965.835 612.226,985.995 711.12,977.462 810.014,977.781 908.907,904.895 1007.8,862.368 1106.69,852.161 1205.59,763.484 
  1304.48,706.573 1403.38,733.854 1502.27,911.554 1601.16,1063.43 1700.06,969.843 1798.95,868.286 1897.84,900.263 1996.74,799.018 2095.63,785.48 2194.53,637.678 
  2293.42,658.919 
  "/>
<polyline clip-path="url(#clip982)" style="stroke:#000000; stroke-linecap:butt; stroke-linejoin:round; stroke-width:0.8; stroke-opacity:1; fill:none" points="
  315.545,1008.61 414.439,951.478 513.332,949.39 612.226,975.762 711.12,971.551 810.014,995.648 908.907,930.596 1007.8,962.694 1106.69,933.394 1205.59,922.398 
  1304.48,910.428 1403.38,987.018 1502.27,1025.9 1601.16,1051.95 1700.06,1004.74 1798.95,979.195 1897.84,943.013 1996.74,849.308 2095.63,821.62 2194.53,742.363 
  2293.42,708.488 
  "/>
<polyline clip-path="url(#clip982)" style="stroke:#000000; stroke-linecap:butt; stroke-linejoin:round; stroke-width:0.8; stroke-opacity:1; fill:none" points="
  315.545,1008.61 414.439,1014.97 513.332,953.198 612.226,940.367 711.12,937.025 810.014,871.626 908.907,863.76 1007.8,821.423 1106.69,716.593 1205.59,672.7 
  1304.48,623.708 1403.38,599.71 1502.27,584.683 1601.16,573.425 1700.06,541.174 1798.95,534.552 1897.84,633.104 1996.74,612.421 2095.63,577.916 2194.53,572.506 
  2293.42,519.954 
  "/>
<polyline clip-path="url(#clip982)" style="stroke:#000000; stroke-linecap:butt; stroke-linejoin:round; stroke-width:0.8; stroke-opacity:1; fill:none" points="
  315.545,1008.61 414.439,1029.52 513.332,1012.62 612.226,927.207 711.12,891.795 810.014,911.219 908.907,931.267 1007.8,858.63 1106.69,848.503 1205.59,812.33 
  1304.48,777.88 1403.38,742.718 1502.27,730.856 1601.16,709.125 1700.06,764.94 1798.95,734.7 1897.84,662.486 1996.74,642.52 2095.63,691.254 2194.53,616.486 
  2293.42,585.34 
  "/>
<polyline clip-path="url(#clip982)" style="stroke:#000000; stroke-linecap:butt; stroke-linejoin:round; stroke-width:0.8; stroke-opacity:1; fill:none" points="
  315.545,1008.61 414.439,1008.42 513.332,986.408 612.226,975.228 711.12,959.131 810.014,921.776 908.907,865.175 1007.8,858.078 1106.69,828.001 1205.59,917.116 
  1304.48,739.668 1403.38,676.809 1502.27,712.001 1601.16,701.738 1700.06,731.23 1798.95,720.444 1897.84,691.68 1996.74,702.421 2095.63,699.699 2194.53,712.853 
  2293.42,716.673 
  "/>
<polyline clip-path="url(#clip982)" style="stroke:#000000; stroke-linecap:butt; stroke-linejoin:round; stroke-width:0.8; stroke-opacity:1; fill:none" points="
  315.545,1008.61 414.439,1027.58 513.332,1021.68 612.226,957.827 711.12,878.173 810.014,854.08 908.907,891.312 1007.8,849.44 1106.69,859.596 1205.59,830.632 
  1304.48,824.795 1403.38,798.494 1502.27,775.778 1601.16,735.91 1700.06,791.13 1798.95,803.48 1897.84,820.529 1996.74,692.953 2095.63,396.373 2194.53,336.901 
  2293.42,321.177 
  "/>
<polyline clip-path="url(#clip982)" style="stroke:#000000; stroke-linecap:butt; stroke-linejoin:round; stroke-width:0.8; stroke-opacity:1; fill:none" points="
  315.545,1008.61 414.439,1002.1 513.332,990.797 612.226,898.484 711.12,1007.91 810.014,969.166 908.907,1005.47 1007.8,1089.85 1106.69,1081.39 1205.59,1075.48 
  1304.48,920.907 1403.38,852.203 1502.27,786.438 1601.16,786.476 1700.06,763.229 1798.95,819.079 1897.84,728.016 1996.74,743.209 2095.63,695.781 2194.53,658.349 
  2293.42,755.26 
  "/>
<polyline clip-path="url(#clip982)" style="stroke:#000000; stroke-linecap:butt; stroke-linejoin:round; stroke-width:0.8; stroke-opacity:1; fill:none" points="
  315.545,1008.61 414.439,991.157 513.332,1028.28 612.226,982.37 711.12,924.857 810.014,948.221 908.907,958.452 1007.8,977.335 1106.69,907.901 1205.59,876.374 
  1304.48,927.155 1403.38,921.233 1502.27,834.635 1601.16,838.701 1700.06,798.317 1798.95,861.165 1897.84,883.484 1996.74,866.818 2095.63,850.522 2194.53,844.773 
  2293.42,869.293 
  "/>
<polyline clip-path="url(#clip982)" style="stroke:#000000; stroke-linecap:butt; stroke-linejoin:round; stroke-width:0.8; stroke-opacity:1; fill:none" points="
  315.545,1008.61 414.439,1075.66 513.332,1079.12 612.226,1084.38 711.12,1090.15 810.014,1097.77 908.907,1005.65 1007.8,977.101 1106.69,994.876 1205.59,961.594 
  1304.48,913.411 1403.38,894.111 1502.27,858.322 1601.16,895.59 1700.06,846.812 1798.95,897.364 1897.84,849.122 1996.74,786.593 2095.63,785.209 2194.53,798.599 
  2293.42,811.602 
  "/>
<polyline clip-path="url(#clip982)" style="stroke:#000000; stroke-linecap:butt; stroke-linejoin:round; stroke-width:0.8; stroke-opacity:1; fill:none" points="
  315.545,1008.61 414.439,980.868 513.332,966.799 612.226,967.331 711.12,1035.2 810.014,1000.36 908.907,901.66 1007.8,796.602 1106.69,790.938 1205.59,672.461 
  1304.48,553.499 1403.38,562.275 1502.27,682.555 1601.16,675.806 1700.06,628.358 1798.95,628.567 1897.84,611.734 1996.74,582.178 2095.63,603.513 2194.53,645.863 
  2293.42,718.579 
  "/>
<polyline clip-path="url(#clip982)" style="stroke:#000000; stroke-linecap:butt; stroke-linejoin:round; stroke-width:0.8; stroke-opacity:1; fill:none" points="
  315.545,1008.61 414.439,990.234 513.332,961.038 612.226,999.001 711.12,893.803 810.014,794.018 908.907,768.88 1007.8,723.293 1106.69,580.697 1205.59,536.128 
  1304.48,509.386 1403.38,504.279 1502.27,446.993 1601.16,481.477 1700.06,469.894 1798.95,461.136 1897.84,410.759 1996.74,390.675 2095.63,463.999 2194.53,468.635 
  2293.42,388.317 
  "/>
<polyline clip-path="url(#clip982)" style="stroke:#000000; stroke-linecap:butt; stroke-linejoin:round; stroke-width:0.8; stroke-opacity:1; fill:none" points="
  315.545,1008.61 414.439,1047.75 513.332,1030.42 612.226,1025.28 711.12,994.574 810.014,1005.73 908.907,974.228 1007.8,1049.32 1106.69,1148.38 1205.59,1107.51 
  1304.48,1123.77 1403.38,1139.97 1502.27,1077.57 1601.16,1018.1 1700.06,1023.55 1798.95,1080.9 1897.84,1105.65 1996.74,1264.25 2095.63,1155.83 2194.53,1110.68 
  2293.42,1061.05 
  "/>
<polyline clip-path="url(#clip982)" style="stroke:#000000; stroke-linecap:butt; stroke-linejoin:round; stroke-width:0.8; stroke-opacity:1; fill:none" points="
  315.545,1008.61 414.439,1008.34 513.332,1022.02 612.226,934.467 711.12,927.532 810.014,946.653 908.907,898.921 1007.8,844.799 1106.69,767.358 1205.59,785.144 
  1304.48,841.81 1403.38,808.282 1502.27,744.893 1601.16,733.076 1700.06,718.958 1798.95,723.442 1897.84,754.096 1996.74,758.752 2095.63,922.171 2194.53,783.589 
  2293.42,785.143 
  "/>
<polyline clip-path="url(#clip982)" style="stroke:#000000; stroke-linecap:butt; stroke-linejoin:round; stroke-width:0.8; stroke-opacity:1; fill:none" points="
  315.545,1008.61 414.439,1010.07 513.332,951.869 612.226,937.46 711.12,933.549 810.014,942.923 908.907,928.846 1007.8,963.723 1106.69,922.625 1205.59,817.454 
  1304.48,805.955 1403.38,881.761 1502.27,734.305 1601.16,769.431 1700.06,751.144 1798.95,743.988 1897.84,732.008 1996.74,741.244 2095.63,703.06 2194.53,729.149 
  2293.42,763.18 
  "/>
<polyline clip-path="url(#clip982)" style="stroke:#000000; stroke-linecap:butt; stroke-linejoin:round; stroke-width:0.8; stroke-opacity:1; fill:none" points="
  315.545,1008.61 414.439,1058.93 513.332,1024.78 612.226,1019.36 711.12,998.633 810.014,984.619 908.907,920.562 1007.8,905.809 1106.69,917.469 1205.59,883.655 
  1304.48,796.406 1403.38,778.167 1502.27,748.68 1601.16,747.229 1700.06,717.164 1798.95,717.759 1897.84,702.767 1996.74,672.93 2095.63,658.245 2194.53,683.263 
  2293.42,684.379 
  "/>
<polyline clip-path="url(#clip982)" style="stroke:#000000; stroke-linecap:butt; stroke-linejoin:round; stroke-width:0.8; stroke-opacity:1; fill:none" points="
  315.545,1008.61 414.439,1002.76 513.332,997.287 612.226,958.806 711.12,1054.6 810.014,1087.47 908.907,1079.63 1007.8,1082.1 1106.69,1101.38 1205.59,1049.32 
  1304.48,979.326 1403.38,943.906 1502.27,999.966 1601.16,972.654 1700.06,975.734 1798.95,1063.76 1897.84,1000.81 1996.74,967.976 2095.63,949.195 2194.53,916.671 
  2293.42,947.377 
  "/>
<polyline clip-path="url(#clip982)" style="stroke:#000000; stroke-linecap:butt; stroke-linejoin:round; stroke-width:0.8; stroke-opacity:1; fill:none" points="
  315.545,1008.61 414.439,988.693 513.332,965.029 612.226,917.489 711.12,924.629 810.014,769.967 908.907,803.3 1007.8,757.657 1106.69,802.247 1205.59,841.738 
  1304.48,862.974 1403.38,865.879 1502.27,850.272 1601.16,856.447 1700.06,880.577 1798.95,879.086 1897.84,862.949 1996.74,891.079 2095.63,859.663 2194.53,804.053 
  2293.42,772.314 
  "/>
<polyline clip-path="url(#clip982)" style="stroke:#000000; stroke-linecap:butt; stroke-linejoin:round; stroke-width:0.8; stroke-opacity:1; fill:none" points="
  315.545,1008.61 414.439,967.045 513.332,995.142 612.226,840.416 711.12,729.903 810.014,702.544 908.907,653.685 1007.8,694.671 1106.69,658.634 1205.59,640.97 
  1304.48,618.04 1403.38,575.921 1502.27,552.661 1601.16,536.077 1700.06,537.263 1798.95,519.413 1897.84,490.448 1996.74,494.355 2095.63,517.421 2194.53,577.905 
  2293.42,640.868 
  "/>
<polyline clip-path="url(#clip982)" style="stroke:#000000; stroke-linecap:butt; stroke-linejoin:round; stroke-width:0.8; stroke-opacity:1; fill:none" points="
  315.545,1008.61 414.439,968.531 513.332,924.604 612.226,821.298 711.12,802.549 810.014,783.2 908.907,766.969 1007.8,726.068 1106.69,629.477 1205.59,652.9 
  1304.48,598.636 1403.38,575.184 1502.27,548.788 1601.16,500.521 1700.06,469.456 1798.95,370.622 1897.84,332.794 1996.74,206.516 2095.63,201.563 2194.53,184.499 
  2293.42,146.232 
  "/>
<polyline clip-path="url(#clip982)" style="stroke:#000000; stroke-linecap:butt; stroke-linejoin:round; stroke-width:0.8; stroke-opacity:1; fill:none" points="
  315.545,1008.61 414.439,1012.76 513.332,1009.4 612.226,960.282 711.12,942.259 810.014,999.189 908.907,942.526 1007.8,926.285 1106.69,924.585 1205.59,864.425 
  1304.48,846.427 1403.38,781.854 1502.27,820.169 1601.16,682.057 1700.06,622.424 1798.95,599.06 1897.84,572.939 1996.74,546.554 2095.63,462.056 2194.53,506.737 
  2293.42,403.017 
  "/>
<polyline clip-path="url(#clip982)" style="stroke:#000000; stroke-linecap:butt; stroke-linejoin:round; stroke-width:0.8; stroke-opacity:1; fill:none" points="
  315.545,1008.61 414.439,1026.24 513.332,1079.64 612.226,1080.82 711.12,1035.22 810.014,1037.59 908.907,983.451 1007.8,991.48 1106.69,953.316 1205.59,997.835 
  1304.48,958.142 1403.38,945.078 1502.27,929.53 1601.16,886.205 1700.06,857.503 1798.95,802.605 1897.84,748.299 1996.74,744.073 2095.63,734.869 2194.53,665.46 
  2293.42,613.573 
  "/>
<polyline clip-path="url(#clip982)" style="stroke:#000000; stroke-linecap:butt; stroke-linejoin:round; stroke-width:0.8; stroke-opacity:1; fill:none" points="
  315.545,1008.61 414.439,987.849 513.332,966.797 612.226,1076.19 711.12,1064.23 810.014,1020.74 908.907,1037.82 1007.8,893.603 1106.69,883.759 1205.59,859.948 
  1304.48,776.268 1403.38,755.407 1502.27,742.812 1601.16,690.355 1700.06,858.109 1798.95,689.03 1897.84,804.049 1996.74,795.398 2095.63,703.213 2194.53,752.04 
  2293.42,901.939 
  "/>
<polyline clip-path="url(#clip982)" style="stroke:#000000; stroke-linecap:butt; stroke-linejoin:round; stroke-width:0.8; stroke-opacity:1; fill:none" points="
  315.545,1008.61 414.439,987.527 513.332,1002.51 612.226,989.175 711.12,968.673 810.014,1045.2 908.907,1128.69 1007.8,1065.52 1106.69,1015.09 1205.59,1016.65 
  1304.48,931.705 1403.38,895.779 1502.27,850.27 1601.16,782.532 1700.06,782.385 1798.95,602.883 1897.84,536.403 1996.74,547.828 2095.63,548.093 2194.53,557.583 
  2293.42,534.879 
  "/>
<polyline clip-path="url(#clip982)" style="stroke:#000000; stroke-linecap:butt; stroke-linejoin:round; stroke-width:0.8; stroke-opacity:1; fill:none" points="
  315.545,1008.61 414.439,1045.02 513.332,953.449 612.226,917.786 711.12,914.714 810.014,893.169 908.907,832.168 1007.8,847.81 1106.69,729.081 1205.59,683.077 
  1304.48,659.137 1403.38,623.968 1502.27,551.035 1601.16,541.049 1700.06,525.598 1798.95,372.256 1897.84,416.348 1996.74,397.368 2095.63,390.767 2194.53,349.34 
  2293.42,420.184 
  "/>
<polyline clip-path="url(#clip982)" style="stroke:#000000; stroke-linecap:butt; stroke-linejoin:round; stroke-width:0.8; stroke-opacity:1; fill:none" points="
  315.545,1008.61 414.439,946.258 513.332,950.572 612.226,923.496 711.12,875.427 810.014,879.597 908.907,919.145 1007.8,911.172 1106.69,897.847 1205.59,864.355 
  1304.48,813.721 1403.38,809.138 1502.27,810.067 1601.16,779.672 1700.06,751.44 1798.95,753.669 1897.84,701.252 1996.74,673.812 2095.63,556.517 2194.53,551.696 
  2293.42,500.908 
  "/>
<polyline clip-path="url(#clip982)" style="stroke:#000000; stroke-linecap:butt; stroke-linejoin:round; stroke-width:0.8; stroke-opacity:1; fill:none" points="
  315.545,1008.61 414.439,1037.58 513.332,1026.88 612.226,1006.91 711.12,963.584 810.014,1000.79 908.907,896.915 1007.8,889.821 1106.69,818.628 1205.59,763.277 
  1304.48,770.986 1403.38,933.032 1502.27,732.245 1601.16,713.181 1700.06,683.695 1798.95,665.442 1897.84,622.953 1996.74,583.71 2095.63,567.739 2194.53,584.086 
  2293.42,529.927 
  "/>
<polyline clip-path="url(#clip982)" style="stroke:#000000; stroke-linecap:butt; stroke-linejoin:round; stroke-width:0.8; stroke-opacity:1; fill:none" points="
  315.545,1008.61 414.439,997.881 513.332,993.898 612.226,992.27 711.12,972.749 810.014,949.506 908.907,957.216 1007.8,977.399 1106.69,933.34 1205.59,872.909 
  1304.48,915.736 1403.38,859.178 1502.27,903.216 1601.16,933.988 1700.06,877.377 1798.95,895.668 1897.84,828.205 1996.74,760.822 2095.63,735.883 2194.53,763.934 
  2293.42,773.685 
  "/>
<polyline clip-path="url(#clip982)" style="stroke:#000000; stroke-linecap:butt; stroke-linejoin:round; stroke-width:0.8; stroke-opacity:1; fill:none" points="
  315.545,1008.61 414.439,1013.1 513.332,1090.14 612.226,1081.78 711.12,1179.94 810.014,1109.93 908.907,1128.17 1007.8,1140.66 1106.69,1091.24 1205.59,1127.28 
  1304.48,1030.75 1403.38,1063.04 1502.27,1101.04 1601.16,1073.19 1700.06,1039.88 1798.95,1099.93 1897.84,1056.28 1996.74,1048.69 2095.63,1049.63 2194.53,1033.68 
  2293.42,979.161 
  "/>
<polyline clip-path="url(#clip982)" style="stroke:#000000; stroke-linecap:butt; stroke-linejoin:round; stroke-width:0.8; stroke-opacity:1; fill:none" points="
  315.545,1008.61 414.439,1004.66 513.332,1031.11 612.226,1010.87 711.12,928.577 810.014,915.697 908.907,962.911 1007.8,912.134 1106.69,893.682 1205.59,671.11 
  1304.48,657.487 1403.38,538.715 1502.27,510.958 1601.16,497.897 1700.06,497.009 1798.95,611.227 1897.84,612.152 1996.74,568.839 2095.63,469.464 2194.53,411.679 
  2293.42,344.999 
  "/>
<polyline clip-path="url(#clip982)" style="stroke:#000000; stroke-linecap:butt; stroke-linejoin:round; stroke-width:0.8; stroke-opacity:1; fill:none" points="
  315.545,1008.61 414.439,1001.94 513.332,999.023 612.226,1006.22 711.12,1010.58 810.014,998.45 908.907,937.891 1007.8,996.36 1106.69,950.399 1205.59,781.791 
  1304.48,614.088 1403.38,650.958 1502.27,612.169 1601.16,589.498 1700.06,584.208 1798.95,612.201 1897.84,615.532 1996.74,591.69 2095.63,568.563 2194.53,535.619 
  2293.42,531.008 
  "/>
<polyline clip-path="url(#clip982)" style="stroke:#000000; stroke-linecap:butt; stroke-linejoin:round; stroke-width:0.8; stroke-opacity:1; fill:none" points="
  315.545,1008.61 414.439,1011.97 513.332,1015.02 612.226,965.894 711.12,924.146 810.014,897.463 908.907,946.878 1007.8,953.831 1106.69,1079.19 1205.59,1151.22 
  1304.48,1039.85 1403.38,1009.95 1502.27,978.902 1601.16,962.157 1700.06,883.801 1798.95,853.308 1897.84,822.199 1996.74,789.063 2095.63,805.93 2194.53,654.561 
  2293.42,649.822 
  "/>
<polyline clip-path="url(#clip982)" style="stroke:#000000; stroke-linecap:butt; stroke-linejoin:round; stroke-width:0.8; stroke-opacity:1; fill:none" points="
  315.545,1008.61 414.439,976.909 513.332,975.96 612.226,911.244 711.12,962.92 810.014,845.952 908.907,869.166 1007.8,863.266 1106.69,819.51 1205.59,838.587 
  1304.48,814.15 1403.38,779.665 1502.27,793.846 1601.16,762.413 1700.06,736.452 1798.95,704.189 1897.84,691.674 1996.74,663.117 2095.63,609.365 2194.53,674.528 
  2293.42,657.313 
  "/>
<polyline clip-path="url(#clip982)" style="stroke:#000000; stroke-linecap:butt; stroke-linejoin:round; stroke-width:0.8; stroke-opacity:1; fill:none" points="
  315.545,1008.61 414.439,1015.16 513.332,985.617 612.226,1091.78 711.12,966.938 810.014,903.811 908.907,864.886 1007.8,919.535 1106.69,931.076 1205.59,925.808 
  1304.48,900.825 1403.38,883.334 1502.27,886.403 1601.16,881.533 1700.06,830.05 1798.95,771.329 1897.84,722.135 1996.74,762.078 2095.63,705.064 2194.53,689.5 
  2293.42,738.573 
  "/>
<polyline clip-path="url(#clip982)" style="stroke:#000000; stroke-linecap:butt; stroke-linejoin:round; stroke-width:0.8; stroke-opacity:1; fill:none" points="
  315.545,1008.61 414.439,988.49 513.332,975.591 612.226,993.09 711.12,960.243 810.014,946.372 908.907,894.609 1007.8,901.444 1106.69,899.957 1205.59,837.16 
  1304.48,834.546 1403.38,849.457 1502.27,782.236 1601.16,748.484 1700.06,724.817 1798.95,724.682 1897.84,936.364 1996.74,757.866 2095.63,814.697 2194.53,773.056 
  2293.42,788.383 
  "/>
<polyline clip-path="url(#clip982)" style="stroke:#000000; stroke-linecap:butt; stroke-linejoin:round; stroke-width:0.8; stroke-opacity:1; fill:none" points="
  315.545,1008.61 414.439,1001.96 513.332,1005.73 612.226,960.441 711.12,914.659 810.014,849.542 908.907,764.082 1007.8,764.584 1106.69,754.973 1205.59,728.438 
  1304.48,696.365 1403.38,704.108 1502.27,709.359 1601.16,651.855 1700.06,635.092 1798.95,611.231 1897.84,613.143 1996.74,567.906 2095.63,551.162 2194.53,547.268 
  2293.42,579.507 
  "/>
<polyline clip-path="url(#clip982)" style="stroke:#000000; stroke-linecap:butt; stroke-linejoin:round; stroke-width:0.8; stroke-opacity:1; fill:none" points="
  315.545,1008.61 414.439,1005.62 513.332,916.487 612.226,984.157 711.12,1012.5 810.014,955.918 908.907,942.387 1007.8,830.634 1106.69,822.06 1205.59,794.19 
  1304.48,663.447 1403.38,621.56 1502.27,568.869 1601.16,552.962 1700.06,561.879 1798.95,505.612 1897.84,508.277 1996.74,518.77 2095.63,502.908 2194.53,482.196 
  2293.42,445.017 
  "/>
<polyline clip-path="url(#clip982)" style="stroke:#000000; stroke-linecap:butt; stroke-linejoin:round; stroke-width:0.8; stroke-opacity:1; fill:none" points="
  315.545,1008.61 414.439,997.255 513.332,991.007 612.226,1001.36 711.12,1002.22 810.014,975.925 908.907,965.869 1007.8,1041.9 1106.69,931.138 1205.59,888.362 
  1304.48,856.334 1403.38,815.193 1502.27,799.413 1601.16,760.927 1700.06,747.374 1798.95,690.129 1897.84,743.636 1996.74,761.183 2095.63,695.013 2194.53,709.18 
  2293.42,707.601 
  "/>
<polyline clip-path="url(#clip982)" style="stroke:#000000; stroke-linecap:butt; stroke-linejoin:round; stroke-width:0.8; stroke-opacity:1; fill:none" points="
  315.545,1008.61 414.439,1029.23 513.332,996.509 612.226,1059.13 711.12,984.45 810.014,973.902 908.907,962.321 1007.8,941.64 1106.69,936.288 1205.59,892.825 
  1304.48,865.754 1403.38,854.933 1502.27,887.512 1601.16,871.978 1700.06,993.303 1798.95,990.915 1897.84,1004.31 1996.74,968.73 2095.63,919.525 2194.53,913.914 
  2293.42,952.784 
  "/>
<polyline clip-path="url(#clip982)" style="stroke:#000000; stroke-linecap:butt; stroke-linejoin:round; stroke-width:0.8; stroke-opacity:1; fill:none" points="
  315.545,1008.61 414.439,998.311 513.332,974.003 612.226,957.59 711.12,961.847 810.014,807.747 908.907,774.893 1007.8,696.03 1106.69,870.949 1205.59,660.883 
  1304.48,622.061 1403.38,451.521 1502.27,431.713 1601.16,404.072 1700.06,421.445 1798.95,379.445 1897.84,342.242 1996.74,314.748 2095.63,299.576 2194.53,261.76 
  2293.42,248.999 
  "/>
<polyline clip-path="url(#clip982)" style="stroke:#000000; stroke-linecap:butt; stroke-linejoin:round; stroke-width:0.8; stroke-opacity:1; fill:none" points="
  315.545,1008.61 414.439,976.818 513.332,997.763 612.226,1005.99 711.12,1045.04 810.014,1100.21 908.907,1060.37 1007.8,1010.64 1106.69,970.792 1205.59,978.688 
  1304.48,987.875 1403.38,979.625 1502.27,992.88 1601.16,1011.72 1700.06,1064.78 1798.95,978.582 1897.84,894.909 1996.74,939.828 2095.63,874.011 2194.53,886.673 
  2293.42,844.992 
  "/>
<polyline clip-path="url(#clip982)" style="stroke:#000000; stroke-linecap:butt; stroke-linejoin:round; stroke-width:0.8; stroke-opacity:1; fill:none" points="
  315.545,1008.61 414.439,1051.21 513.332,1073.91 612.226,1016.31 711.12,944.473 810.014,862.248 908.907,818.359 1007.8,833.764 1106.69,796.027 1205.59,745.684 
  1304.48,732.423 1403.38,741.523 1502.27,738.096 1601.16,718.384 1700.06,691.516 1798.95,639.613 1897.84,625.257 1996.74,555.575 2095.63,480.948 2194.53,483.027 
  2293.42,484.677 
  "/>
<polyline clip-path="url(#clip982)" style="stroke:#000000; stroke-linecap:butt; stroke-linejoin:round; stroke-width:0.8; stroke-opacity:1; fill:none" points="
  315.545,1008.61 414.439,1011.89 513.332,1019.8 612.226,992.888 711.12,973.644 810.014,1006.22 908.907,994.92 1007.8,1055.63 1106.69,1113.86 1205.59,1086.49 
  1304.48,958.666 1403.38,967.326 1502.27,1062.08 1601.16,1032.99 1700.06,1011.05 1798.95,980.495 1897.84,994.625 1996.74,1035.97 2095.63,1041.06 2194.53,1088.6 
  2293.42,1067.86 
  "/>
<polyline clip-path="url(#clip982)" style="stroke:#000000; stroke-linecap:butt; stroke-linejoin:round; stroke-width:0.8; stroke-opacity:1; fill:none" points="
  315.545,1008.61 414.439,1036.87 513.332,1040.07 612.226,1055.5 711.12,966.657 810.014,934.285 908.907,939.146 1007.8,855.358 1106.69,808.658 1205.59,794.169 
  1304.48,706.817 1403.38,721.524 1502.27,727.446 1601.16,814.058 1700.06,807.845 1798.95,755.041 1897.84,725.747 1996.74,818.09 2095.63,800 2194.53,858.75 
  2293.42,907.887 
  "/>
<polyline clip-path="url(#clip982)" style="stroke:#000000; stroke-linecap:butt; stroke-linejoin:round; stroke-width:0.8; stroke-opacity:1; fill:none" points="
  315.545,1008.61 414.439,1033.27 513.332,1013.53 612.226,986.995 711.12,993.026 810.014,978.174 908.907,980.772 1007.8,901.249 1106.69,934.229 1205.59,965.97 
  1304.48,966.9 1403.38,895.436 1502.27,880.76 1601.16,835.912 1700.06,878.917 1798.95,856.209 1897.84,836.61 1996.74,831.403 2095.63,838.956 2194.53,834.627 
  2293.42,810.069 
  "/>
<polyline clip-path="url(#clip982)" style="stroke:#000000; stroke-linecap:butt; stroke-linejoin:round; stroke-width:0.8; stroke-opacity:1; fill:none" points="
  315.545,1008.61 414.439,982.582 513.332,970.969 612.226,954.465 711.12,906.191 810.014,890.014 908.907,878.923 1007.8,860.19 1106.69,881.46 1205.59,775.385 
  1304.48,844.509 1403.38,751.662 1502.27,713.8 1601.16,694.008 1700.06,703.756 1798.95,641.624 1897.84,634.985 1996.74,587.717 2095.63,563.576 2194.53,547.06 
  2293.42,520.303 
  "/>
<polyline clip-path="url(#clip982)" style="stroke:#000000; stroke-linecap:butt; stroke-linejoin:round; stroke-width:0.8; stroke-opacity:1; fill:none" points="
  315.545,1008.61 414.439,1005.71 513.332,989.31 612.226,985.253 711.12,953.307 810.014,846.009 908.907,787.188 1007.8,760.422 1106.69,736.323 1205.59,700.983 
  1304.48,662.08 1403.38,656.768 1502.27,717.243 1601.16,600.407 1700.06,620.488 1798.95,603.883 1897.84,579.326 1996.74,565.06 2095.63,538.928 2194.53,553.309 
  2293.42,553.821 
  "/>
<polyline clip-path="url(#clip982)" style="stroke:#000000; stroke-linecap:butt; stroke-linejoin:round; stroke-width:0.8; stroke-opacity:1; fill:none" points="
  315.545,1008.61 414.439,995.573 513.332,994.912 612.226,952.385 711.12,891.66 810.014,867.876 908.907,840.478 1007.8,848.468 1106.69,783.326 1205.59,814.21 
  1304.48,870.203 1403.38,819.25 1502.27,846.078 1601.16,834.879 1700.06,772.876 1798.95,954.305 1897.84,815.725 1996.74,825.186 2095.63,814.742 2194.53,875.397 
  2293.42,813.56 
  "/>
<polyline clip-path="url(#clip982)" style="stroke:#000000; stroke-linecap:butt; stroke-linejoin:round; stroke-width:0.8; stroke-opacity:1; fill:none" points="
  315.545,1008.61 414.439,956.248 513.332,969.729 612.226,1039.57 711.12,983.658 810.014,945.079 908.907,951.533 1007.8,896.502 1106.69,877.313 1205.59,917.603 
  1304.48,758.397 1403.38,683.2 1502.27,659.835 1601.16,718.357 1700.06,679.331 1798.95,614.477 1897.84,611.936 1996.74,604.979 2095.63,592.771 2194.53,563.893 
  2293.42,520.433 
  "/>
<polyline clip-path="url(#clip982)" style="stroke:#000000; stroke-linecap:butt; stroke-linejoin:round; stroke-width:0.8; stroke-opacity:1; fill:none" points="
  315.545,1008.61 414.439,1007.14 513.332,979.137 612.226,854.126 711.12,880.012 810.014,810.126 908.907,762.916 1007.8,924.815 1106.69,857.99 1205.59,845.331 
  1304.48,850.546 1403.38,891.004 1502.27,789.769 1601.16,724.291 1700.06,712.608 1798.95,797.552 1897.84,752.78 1996.74,735.824 2095.63,705.15 2194.53,687.458 
  2293.42,633.808 
  "/>
<polyline clip-path="url(#clip982)" style="stroke:#000000; stroke-linecap:butt; stroke-linejoin:round; stroke-width:0.8; stroke-opacity:1; fill:none" points="
  315.545,1008.61 414.439,1044.25 513.332,1059.09 612.226,1101.45 711.12,1092.44 810.014,1110.11 908.907,1056.37 1007.8,1048.15 1106.69,1019.51 1205.59,979.645 
  1304.48,970.395 1403.38,928.309 1502.27,888.154 1601.16,870.756 1700.06,865.545 1798.95,824.132 1897.84,806.311 1996.74,836.64 2095.63,893.092 2194.53,848.231 
  2293.42,917.606 
  "/>
<polyline clip-path="url(#clip982)" style="stroke:#000000; stroke-linecap:butt; stroke-linejoin:round; stroke-width:0.8; stroke-opacity:1; fill:none" points="
  315.545,1008.61 414.439,1024.87 513.332,949.92 612.226,771.908 711.12,738.652 810.014,698.48 908.907,685.177 1007.8,688.265 1106.69,790.484 1205.59,733.342 
  1304.48,605.374 1403.38,628.339 1502.27,664.472 1601.16,745.059 1700.06,699.579 1798.95,698.847 1897.84,680.931 1996.74,751.618 2095.63,740.345 2194.53,735.022 
  2293.42,715.012 
  "/>
<polyline clip-path="url(#clip982)" style="stroke:#000000; stroke-linecap:butt; stroke-linejoin:round; stroke-width:0.8; stroke-opacity:1; fill:none" points="
  315.545,1008.61 414.439,993.255 513.332,991.994 612.226,994.756 711.12,931.397 810.014,810.818 908.907,814.261 1007.8,798.167 1106.69,778.212 1205.59,736.805 
  1304.48,727.725 1403.38,760.073 1502.27,649.827 1601.16,632.394 1700.06,634.856 1798.95,595.286 1897.84,588.538 1996.74,553.112 2095.63,571.996 2194.53,507.92 
  2293.42,640.952 
  "/>
<polyline clip-path="url(#clip982)" style="stroke:#000000; stroke-linecap:butt; stroke-linejoin:round; stroke-width:0.8; stroke-opacity:1; fill:none" points="
  315.545,1008.61 414.439,984.648 513.332,974.372 612.226,987.842 711.12,938.458 810.014,992.971 908.907,851.052 1007.8,786.457 1106.69,830.068 1205.59,780.553 
  1304.48,714.575 1403.38,678.695 1502.27,679.261 1601.16,624.978 1700.06,590.284 1798.95,567.411 1897.84,681.583 1996.74,652.388 2095.63,650.659 2194.53,620.231 
  2293.42,588.148 
  "/>
<polyline clip-path="url(#clip982)" style="stroke:#000000; stroke-linecap:butt; stroke-linejoin:round; stroke-width:0.8; stroke-opacity:1; fill:none" points="
  315.545,1008.61 414.439,1002.73 513.332,1020.53 612.226,983.349 711.12,971.674 810.014,981.568 908.907,939.991 1007.8,884.655 1106.69,883.498 1205.59,846.25 
  1304.48,921.433 1403.38,1024.4 1502.27,1037.64 1601.16,1077.09 1700.06,1058.74 1798.95,1058.55 1897.84,1040.02 1996.74,1020.77 2095.63,977.545 2194.53,1030.69 
  2293.42,988.612 
  "/>
<polyline clip-path="url(#clip982)" style="stroke:#000000; stroke-linecap:butt; stroke-linejoin:round; stroke-width:0.8; stroke-opacity:1; fill:none" points="
  315.545,1008.61 414.439,937.075 513.332,986.586 612.226,910.064 711.12,861.712 810.014,905.885 908.907,859.668 1007.8,830.874 1106.69,836.763 1205.59,798.764 
  1304.48,800.093 1403.38,804.359 1502.27,805.862 1601.16,935.722 1700.06,843.394 1798.95,802.441 1897.84,796.23 1996.74,720.052 2095.63,695.223 2194.53,635.46 
  2293.42,601.231 
  "/>
<polyline clip-path="url(#clip982)" style="stroke:#000000; stroke-linecap:butt; stroke-linejoin:round; stroke-width:0.8; stroke-opacity:1; fill:none" points="
  315.545,1008.61 414.439,998.795 513.332,989.152 612.226,946.603 711.12,885.201 810.014,873.847 908.907,936.027 1007.8,985.554 1106.69,1177.3 1205.59,1135.28 
  1304.48,1140.82 1403.38,1163.93 1502.27,1138.05 1601.16,1132.24 1700.06,1143.8 1798.95,1018.39 1897.84,984.847 1996.74,969.752 2095.63,938.118 2194.53,914.137 
  2293.42,920.644 
  "/>
<polyline clip-path="url(#clip982)" style="stroke:#000000; stroke-linecap:butt; stroke-linejoin:round; stroke-width:0.8; stroke-opacity:1; fill:none" points="
  315.545,1008.61 414.439,991.583 513.332,1054.41 612.226,1009.39 711.12,1024.42 810.014,1006.31 908.907,1017.89 1007.8,1040.42 1106.69,999.931 1205.59,1007.22 
  1304.48,955.655 1403.38,914.933 1502.27,917.253 1601.16,927.19 1700.06,885.81 1798.95,885.017 1897.84,877.947 1996.74,1005.55 2095.63,853.668 2194.53,858.561 
  2293.42,812.681 
  "/>
</svg>
