<?xml version="1.0" encoding="utf-8"?>
<svg xmlns="http://www.w3.org/2000/svg" xmlns:xlink="http://www.w3.org/1999/xlink" width="600" height="400" viewBox="0 0 2400 1600">
<defs>
  <clipPath id="clip140">
    <rect x="0" y="0" width="2400" height="1600"/>
  </clipPath>
</defs>
<path clip-path="url(#clip140)" d="M0 1600 L2400 1600 L2400 0 L0 0  Z" fill="#ffffff" fill-rule="evenodd" fill-opacity="1"/>
<defs>
  <clipPath id="clip141">
    <rect x="219" y="123" width="2134" height="1301"/>
  </clipPath>
</defs>
<path clip-path="url(#clip140)" d="M175.445 1423.18 L2352.76 1423.18 L2352.76 123.472 L175.445 123.472  Z" fill="#ffffff" fill-rule="evenodd" fill-opacity="1"/>
<defs>
  <clipPath id="clip142">
    <rect x="175" y="123" width="2178" height="1301"/>
  </clipPath>
</defs>
<polyline clip-path="url(#clip142)" style="stroke:#000000; stroke-linecap:round; stroke-linejoin:round; stroke-width:2; stroke-opacity:0.1; fill:none" points="237.067,1423.18 237.067,123.472 "/>
<polyline clip-path="url(#clip142)" style="stroke:#000000; stroke-linecap:round; stroke-linejoin:round; stroke-width:2; stroke-opacity:0.1; fill:none" points="750.584,1423.18 750.584,123.472 "/>
<polyline clip-path="url(#clip142)" style="stroke:#000000; stroke-linecap:round; stroke-linejoin:round; stroke-width:2; stroke-opacity:0.1; fill:none" points="1264.1,1423.18 1264.1,123.472 "/>
<polyline clip-path="url(#clip142)" style="stroke:#000000; stroke-linecap:round; stroke-linejoin:round; stroke-width:2; stroke-opacity:0.1; fill:none" points="1777.62,1423.18 1777.62,123.472 "/>
<polyline clip-path="url(#clip142)" style="stroke:#000000; stroke-linecap:round; stroke-linejoin:round; stroke-width:2; stroke-opacity:0.1; fill:none" points="2291.13,1423.18 2291.13,123.472 "/>
<polyline clip-path="url(#clip142)" style="stroke:#000000; stroke-linecap:round; stroke-linejoin:round; stroke-width:2; stroke-opacity:0.1; fill:none" points="175.445,1377.36 2352.76,1377.36 "/>
<polyline clip-path="url(#clip142)" style="stroke:#000000; stroke-linecap:round; stroke-linejoin:round; stroke-width:2; stroke-opacity:0.1; fill:none" points="175.445,1096.67 2352.76,1096.67 "/>
<polyline clip-path="url(#clip142)" style="stroke:#000000; stroke-linecap:round; stroke-linejoin:round; stroke-width:2; stroke-opacity:0.1; fill:none" points="175.445,815.987 2352.76,815.987 "/>
<polyline clip-path="url(#clip142)" style="stroke:#000000; stroke-linecap:round; stroke-linejoin:round; stroke-width:2; stroke-opacity:0.1; fill:none" points="175.445,535.302 2352.76,535.302 "/>
<polyline clip-path="url(#clip142)" style="stroke:#000000; stroke-linecap:round; stroke-linejoin:round; stroke-width:2; stroke-opacity:0.1; fill:none" points="175.445,254.617 2352.76,254.617 "/>
<polyline clip-path="url(#clip140)" style="stroke:#000000; stroke-linecap:round; stroke-linejoin:round; stroke-width:4; stroke-opacity:1; fill:none" points="175.445,1423.18 2352.76,1423.18 "/>
<polyline clip-path="url(#clip140)" style="stroke:#000000; stroke-linecap:round; stroke-linejoin:round; stroke-width:4; stroke-opacity:1; fill:none" points="237.067,1423.18 237.067,1404.28 "/>
<polyline clip-path="url(#clip140)" style="stroke:#000000; stroke-linecap:round; stroke-linejoin:round; stroke-width:4; stroke-opacity:1; fill:none" points="750.584,1423.18 750.584,1404.28 "/>
<polyline clip-path="url(#clip140)" style="stroke:#000000; stroke-linecap:round; stroke-linejoin:round; stroke-width:4; stroke-opacity:1; fill:none" points="1264.1,1423.18 1264.1,1404.28 "/>
<polyline clip-path="url(#clip140)" style="stroke:#000000; stroke-linecap:round; stroke-linejoin:round; stroke-width:4; stroke-opacity:1; fill:none" points="1777.62,1423.18 1777.62,1404.28 "/>
<polyline clip-path="url(#clip140)" style="stroke:#000000; stroke-linecap:round; stroke-linejoin:round; stroke-width:4; stroke-opacity:1; fill:none" points="2291.13,1423.18 2291.13,1404.28 "/>
<path clip-path="url(#clip140)" d="M214.452 1454.1 Q210.84 1454.1 209.012 1457.66 Q207.206 1461.2 207.206 1468.33 Q207.206 1475.44 209.012 1479.01 Q210.84 1482.55 214.452 1482.55 Q218.086 1482.55 219.891 1479.01 Q221.72 1475.44 221.72 1468.33 Q221.72 1461.2 219.891 1457.66 Q218.086 1454.1 214.452 1454.1 M214.452 1450.39 Q220.262 1450.39 223.317 1455 Q226.396 1459.58 226.396 1468.33 Q226.396 1477.06 223.317 1481.67 Q220.262 1486.25 214.452 1486.25 Q208.641 1486.25 205.563 1481.67 Q202.507 1477.06 202.507 1468.33 Q202.507 1459.58 205.563 1455 Q208.641 1450.39 214.452 1450.39 Z" fill="#000000" fill-rule="nonzero" fill-opacity="1" /><path clip-path="url(#clip140)" d="M234.614 1479.7 L239.498 1479.7 L239.498 1485.58 L234.614 1485.58 L234.614 1479.7 Z" fill="#000000" fill-rule="nonzero" fill-opacity="1" /><path clip-path="url(#clip140)" d="M259.683 1454.1 Q256.072 1454.1 254.243 1457.66 Q252.437 1461.2 252.437 1468.33 Q252.437 1475.44 254.243 1479.01 Q256.072 1482.55 259.683 1482.55 Q263.317 1482.55 265.123 1479.01 Q266.951 1475.44 266.951 1468.33 Q266.951 1461.2 265.123 1457.66 Q263.317 1454.1 259.683 1454.1 M259.683 1450.39 Q265.493 1450.39 268.549 1455 Q271.627 1459.58 271.627 1468.33 Q271.627 1477.06 268.549 1481.67 Q265.493 1486.25 259.683 1486.25 Q253.873 1486.25 250.794 1481.67 Q247.738 1477.06 247.738 1468.33 Q247.738 1459.58 250.794 1455 Q253.873 1450.39 259.683 1450.39 Z" fill="#000000" fill-rule="nonzero" fill-opacity="1" /><path clip-path="url(#clip140)" d="M722.32 1481.64 L738.64 1481.64 L738.64 1485.58 L716.695 1485.58 L716.695 1481.64 Q719.357 1478.89 723.941 1474.26 Q728.547 1469.61 729.728 1468.27 Q731.973 1465.74 732.852 1464.01 Q733.755 1462.25 733.755 1460.56 Q733.755 1457.8 731.811 1456.07 Q729.89 1454.33 726.788 1454.33 Q724.589 1454.33 722.135 1455.09 Q719.704 1455.86 716.927 1457.41 L716.927 1452.69 Q719.751 1451.55 722.204 1450.97 Q724.658 1450.39 726.695 1450.39 Q732.065 1450.39 735.26 1453.08 Q738.454 1455.77 738.454 1460.26 Q738.454 1462.39 737.644 1464.31 Q736.857 1466.2 734.751 1468.8 Q734.172 1469.47 731.07 1472.69 Q727.968 1475.88 722.32 1481.64 Z" fill="#000000" fill-rule="nonzero" fill-opacity="1" /><path clip-path="url(#clip140)" d="M748.454 1479.7 L753.338 1479.7 L753.338 1485.58 L748.454 1485.58 L748.454 1479.7 Z" fill="#000000" fill-rule="nonzero" fill-opacity="1" /><path clip-path="url(#clip140)" d="M763.57 1451.02 L781.926 1451.02 L781.926 1454.96 L767.852 1454.96 L767.852 1463.43 Q768.871 1463.08 769.889 1462.92 Q770.908 1462.73 771.926 1462.73 Q777.713 1462.73 781.093 1465.9 Q784.473 1469.08 784.473 1474.49 Q784.473 1480.07 781 1483.17 Q777.528 1486.25 771.209 1486.25 Q769.033 1486.25 766.764 1485.88 Q764.519 1485.51 762.112 1484.77 L762.112 1480.07 Q764.195 1481.2 766.417 1481.76 Q768.639 1482.32 771.116 1482.32 Q775.121 1482.32 777.459 1480.21 Q779.797 1478.1 779.797 1474.49 Q779.797 1470.88 777.459 1468.77 Q775.121 1466.67 771.116 1466.67 Q769.241 1466.67 767.366 1467.08 Q765.514 1467.5 763.57 1468.38 L763.57 1451.02 Z" fill="#000000" fill-rule="nonzero" fill-opacity="1" /><path clip-path="url(#clip140)" d="M1231.27 1451.02 L1249.62 1451.02 L1249.62 1454.96 L1235.55 1454.96 L1235.55 1463.43 Q1236.57 1463.08 1237.58 1462.92 Q1238.6 1462.73 1239.62 1462.73 Q1245.41 1462.73 1248.79 1465.9 Q1252.17 1469.08 1252.17 1474.49 Q1252.17 1480.07 1248.7 1483.17 Q1245.22 1486.25 1238.9 1486.25 Q1236.73 1486.25 1234.46 1485.88 Q1232.21 1485.51 1229.81 1484.77 L1229.81 1480.07 Q1231.89 1481.2 1234.11 1481.76 Q1236.33 1482.32 1238.81 1482.32 Q1242.82 1482.32 1245.15 1480.21 Q1247.49 1478.1 1247.49 1474.49 Q1247.49 1470.88 1245.15 1468.77 Q1242.82 1466.67 1238.81 1466.67 Q1236.94 1466.67 1235.06 1467.08 Q1233.21 1467.5 1231.27 1468.38 L1231.27 1451.02 Z" fill="#000000" fill-rule="nonzero" fill-opacity="1" /><path clip-path="url(#clip140)" d="M1261.38 1479.7 L1266.26 1479.7 L1266.26 1485.58 L1261.38 1485.58 L1261.38 1479.7 Z" fill="#000000" fill-rule="nonzero" fill-opacity="1" /><path clip-path="url(#clip140)" d="M1286.45 1454.1 Q1282.84 1454.1 1281.01 1457.66 Q1279.2 1461.2 1279.2 1468.33 Q1279.2 1475.44 1281.01 1479.01 Q1282.84 1482.55 1286.45 1482.55 Q1290.08 1482.55 1291.89 1479.01 Q1293.72 1475.44 1293.72 1468.33 Q1293.72 1461.2 1291.89 1457.66 Q1290.08 1454.1 1286.45 1454.1 M1286.45 1450.39 Q1292.26 1450.39 1295.32 1455 Q1298.39 1459.58 1298.39 1468.33 Q1298.39 1477.06 1295.32 1481.67 Q1292.26 1486.25 1286.45 1486.25 Q1280.64 1486.25 1277.56 1481.67 Q1274.51 1477.06 1274.51 1468.33 Q1274.51 1459.58 1277.56 1455 Q1280.64 1450.39 1286.45 1450.39 Z" fill="#000000" fill-rule="nonzero" fill-opacity="1" /><path clip-path="url(#clip140)" d="M1743.94 1451.02 L1766.16 1451.02 L1766.16 1453.01 L1753.61 1485.58 L1748.73 1485.58 L1760.53 1454.96 L1743.94 1454.96 L1743.94 1451.02 Z" fill="#000000" fill-rule="nonzero" fill-opacity="1" /><path clip-path="url(#clip140)" d="M1775.28 1479.7 L1780.16 1479.7 L1780.16 1485.58 L1775.28 1485.58 L1775.28 1479.7 Z" fill="#000000" fill-rule="nonzero" fill-opacity="1" /><path clip-path="url(#clip140)" d="M1790.39 1451.02 L1808.75 1451.02 L1808.75 1454.96 L1794.68 1454.96 L1794.68 1463.43 Q1795.7 1463.08 1796.71 1462.92 Q1797.73 1462.73 1798.75 1462.73 Q1804.54 1462.73 1807.92 1465.9 Q1811.3 1469.08 1811.3 1474.49 Q1811.3 1480.07 1807.83 1483.17 Q1804.35 1486.25 1798.03 1486.25 Q1795.86 1486.25 1793.59 1485.88 Q1791.34 1485.51 1788.94 1484.77 L1788.94 1480.07 Q1791.02 1481.2 1793.24 1481.76 Q1795.46 1482.32 1797.94 1482.32 Q1801.95 1482.32 1804.28 1480.21 Q1806.62 1478.1 1806.62 1474.49 Q1806.62 1470.88 1804.28 1468.77 Q1801.95 1466.67 1797.94 1466.67 Q1796.07 1466.67 1794.19 1467.08 Q1792.34 1467.5 1790.39 1468.38 L1790.39 1451.02 Z" fill="#000000" fill-rule="nonzero" fill-opacity="1" /><path clip-path="url(#clip140)" d="M2243.21 1481.64 L2250.84 1481.64 L2250.84 1455.28 L2242.53 1456.95 L2242.53 1452.69 L2250.8 1451.02 L2255.47 1451.02 L2255.47 1481.64 L2263.11 1481.64 L2263.11 1485.58 L2243.21 1485.58 L2243.21 1481.64 Z" fill="#000000" fill-rule="nonzero" fill-opacity="1" /><path clip-path="url(#clip140)" d="M2282.56 1454.1 Q2278.95 1454.1 2277.12 1457.66 Q2275.31 1461.2 2275.31 1468.33 Q2275.31 1475.44 2277.12 1479.01 Q2278.95 1482.55 2282.56 1482.55 Q2286.19 1482.55 2288 1479.01 Q2289.83 1475.44 2289.83 1468.33 Q2289.83 1461.2 2288 1457.66 Q2286.19 1454.1 2282.56 1454.1 M2282.56 1450.39 Q2288.37 1450.39 2291.42 1455 Q2294.5 1459.58 2294.5 1468.33 Q2294.5 1477.06 2291.42 1481.67 Q2288.37 1486.25 2282.56 1486.25 Q2276.75 1486.25 2273.67 1481.67 Q2270.61 1477.06 2270.61 1468.33 Q2270.61 1459.58 2273.67 1455 Q2276.75 1450.39 2282.56 1450.39 Z" fill="#000000" fill-rule="nonzero" fill-opacity="1" /><path clip-path="url(#clip140)" d="M2302.72 1479.7 L2307.6 1479.7 L2307.6 1485.58 L2302.72 1485.58 L2302.72 1479.7 Z" fill="#000000" fill-rule="nonzero" fill-opacity="1" /><path clip-path="url(#clip140)" d="M2327.79 1454.1 Q2324.18 1454.1 2322.35 1457.66 Q2320.54 1461.2 2320.54 1468.33 Q2320.54 1475.44 2322.35 1479.01 Q2324.18 1482.55 2327.79 1482.55 Q2331.42 1482.55 2333.23 1479.01 Q2335.06 1475.44 2335.06 1468.33 Q2335.06 1461.2 2333.23 1457.66 Q2331.42 1454.1 2327.79 1454.1 M2327.79 1450.39 Q2333.6 1450.39 2336.65 1455 Q2339.73 1459.58 2339.73 1468.33 Q2339.73 1477.06 2336.65 1481.67 Q2333.6 1486.25 2327.79 1486.25 Q2321.98 1486.25 2318.9 1481.67 Q2315.84 1477.06 2315.84 1468.33 Q2315.84 1459.58 2318.9 1455 Q2321.98 1450.39 2327.79 1450.39 Z" fill="#000000" fill-rule="nonzero" fill-opacity="1" /><path clip-path="url(#clip140)" d="M754.048 1520.52 L794.248 1520.52 L794.248 1525.93 L777.379 1525.93 L777.379 1568.04 L770.917 1568.04 L770.917 1525.93 L754.048 1525.93 L754.048 1520.52 Z" fill="#000000" fill-rule="nonzero" fill-opacity="1" /><path clip-path="url(#clip140)" d="M811.276 1537.87 Q810.289 1537.3 809.112 1537.04 Q807.966 1536.76 806.565 1536.76 Q801.6 1536.76 798.927 1540 Q796.285 1543.22 796.285 1549.27 L796.285 1568.04 L790.396 1568.04 L790.396 1532.4 L796.285 1532.4 L796.285 1537.93 Q798.131 1534.69 801.091 1533.13 Q804.051 1531.54 808.284 1531.54 Q808.889 1531.54 809.621 1531.63 Q810.353 1531.7 811.244 1531.85 L811.276 1537.87 Z" fill="#000000" fill-rule="nonzero" fill-opacity="1" /><path clip-path="url(#clip140)" d="M833.62 1550.12 Q826.522 1550.12 823.785 1551.75 Q821.047 1553.37 821.047 1557.29 Q821.047 1560.4 823.084 1562.25 Q825.153 1564.07 828.686 1564.07 Q833.556 1564.07 836.484 1560.63 Q839.444 1557.16 839.444 1551.43 L839.444 1550.12 L833.62 1550.12 M845.301 1547.71 L845.301 1568.04 L839.444 1568.04 L839.444 1562.63 Q837.439 1565.88 834.447 1567.44 Q831.455 1568.97 827.127 1568.97 Q821.652 1568.97 818.406 1565.91 Q815.191 1562.82 815.191 1557.67 Q815.191 1551.65 819.201 1548.6 Q823.244 1545.54 831.233 1545.54 L839.444 1545.54 L839.444 1544.97 Q839.444 1540.93 836.771 1538.73 Q834.129 1536.5 829.323 1536.5 Q826.267 1536.5 823.371 1537.23 Q820.474 1537.97 817.801 1539.43 L817.801 1534.02 Q821.016 1532.78 824.039 1532.17 Q827.063 1531.54 829.928 1531.54 Q837.662 1531.54 841.481 1535.55 Q845.301 1539.56 845.301 1547.71 Z" fill="#000000" fill-rule="nonzero" fill-opacity="1" /><path clip-path="url(#clip140)" d="M857.364 1532.4 L863.22 1532.4 L863.22 1568.68 Q863.22 1575.49 860.61 1578.55 Q858.032 1581.6 852.271 1581.6 L850.043 1581.6 L850.043 1576.64 L851.603 1576.64 Q854.945 1576.64 856.154 1575.08 Q857.364 1573.55 857.364 1568.68 L857.364 1532.4 M857.364 1518.52 L863.22 1518.52 L863.22 1525.93 L857.364 1525.93 L857.364 1518.52 Z" fill="#000000" fill-rule="nonzero" fill-opacity="1" /><path clip-path="url(#clip140)" d="M905.966 1548.76 L905.966 1551.62 L879.039 1551.62 Q879.421 1557.67 882.667 1560.85 Q885.946 1564 891.77 1564 Q895.144 1564 898.295 1563.17 Q901.478 1562.35 904.597 1560.69 L904.597 1566.23 Q901.446 1567.57 898.136 1568.27 Q894.826 1568.97 891.42 1568.97 Q882.89 1568.97 877.893 1564 Q872.928 1559.04 872.928 1550.57 Q872.928 1541.82 877.639 1536.69 Q882.381 1531.54 890.402 1531.54 Q897.595 1531.54 901.765 1536.18 Q905.966 1540.8 905.966 1548.76 M900.109 1547.04 Q900.046 1542.23 897.404 1539.37 Q894.794 1536.5 890.465 1536.5 Q885.564 1536.5 882.604 1539.27 Q879.676 1542.04 879.23 1547.07 L900.109 1547.04 Z" fill="#000000" fill-rule="nonzero" fill-opacity="1" /><path clip-path="url(#clip140)" d="M941.232 1533.76 L941.232 1539.24 Q938.749 1537.87 936.235 1537.2 Q933.752 1536.5 931.206 1536.5 Q925.509 1536.5 922.358 1540.13 Q919.207 1543.73 919.207 1550.25 Q919.207 1556.78 922.358 1560.4 Q925.509 1564 931.206 1564 Q933.752 1564 936.235 1563.33 Q938.749 1562.63 941.232 1561.26 L941.232 1566.68 Q938.781 1567.82 936.139 1568.39 Q933.529 1568.97 930.569 1568.97 Q922.517 1568.97 917.774 1563.91 Q913.032 1558.85 913.032 1550.25 Q913.032 1541.53 917.806 1536.53 Q922.612 1531.54 930.951 1531.54 Q933.657 1531.54 936.235 1532.11 Q938.813 1532.65 941.232 1533.76 Z" fill="#000000" fill-rule="nonzero" fill-opacity="1" /><path clip-path="url(#clip140)" d="M957.21 1522.27 L957.21 1532.4 L969.273 1532.4 L969.273 1536.95 L957.21 1536.95 L957.21 1556.3 Q957.21 1560.66 958.387 1561.9 Q959.597 1563.14 963.257 1563.14 L969.273 1563.14 L969.273 1568.04 L963.257 1568.04 Q956.478 1568.04 953.9 1565.53 Q951.322 1562.98 951.322 1556.3 L951.322 1536.95 L947.025 1536.95 L947.025 1532.4 L951.322 1532.4 L951.322 1522.27 L957.21 1522.27 Z" fill="#000000" fill-rule="nonzero" fill-opacity="1" /><path clip-path="url(#clip140)" d="M990.789 1536.5 Q986.078 1536.5 983.341 1540.19 Q980.604 1543.85 980.604 1550.25 Q980.604 1556.65 983.309 1560.34 Q986.046 1564 990.789 1564 Q995.468 1564 998.205 1560.31 Q1000.94 1556.62 1000.94 1550.25 Q1000.94 1543.92 998.205 1540.23 Q995.468 1536.5 990.789 1536.5 M990.789 1531.54 Q998.428 1531.54 1002.79 1536.5 Q1007.15 1541.47 1007.15 1550.25 Q1007.15 1559 1002.79 1564 Q998.428 1568.97 990.789 1568.97 Q983.118 1568.97 978.758 1564 Q974.429 1559 974.429 1550.25 Q974.429 1541.47 978.758 1536.5 Q983.118 1531.54 990.789 1531.54 Z" fill="#000000" fill-rule="nonzero" fill-opacity="1" /><path clip-path="url(#clip140)" d="M1037.51 1537.87 Q1036.53 1537.3 1035.35 1537.04 Q1034.2 1536.76 1032.8 1536.76 Q1027.84 1536.76 1025.16 1540 Q1022.52 1543.22 1022.52 1549.27 L1022.52 1568.04 L1016.63 1568.04 L1016.63 1532.4 L1022.52 1532.4 L1022.52 1537.93 Q1024.37 1534.69 1027.33 1533.13 Q1030.29 1531.54 1034.52 1531.54 Q1035.13 1531.54 1035.86 1531.63 Q1036.59 1531.7 1037.48 1531.85 L1037.51 1537.87 Z" fill="#000000" fill-rule="nonzero" fill-opacity="1" /><path clip-path="url(#clip140)" d="M1058.49 1571.35 Q1056.01 1577.72 1053.65 1579.66 Q1051.29 1581.6 1047.35 1581.6 L1042.67 1581.6 L1042.67 1576.7 L1046.11 1576.7 Q1048.53 1576.7 1049.86 1575.56 Q1051.2 1574.41 1052.82 1570.14 L1053.87 1567.47 L1039.45 1532.4 L1045.66 1532.4 L1056.8 1560.28 L1067.94 1532.4 L1074.15 1532.4 L1058.49 1571.35 Z" fill="#000000" fill-rule="nonzero" fill-opacity="1" /><path clip-path="url(#clip140)" d="M1109.64 1525.81 L1109.64 1562.76 L1117.4 1562.76 Q1127.24 1562.76 1131.79 1558.3 Q1136.37 1553.85 1136.37 1544.24 Q1136.37 1534.69 1131.79 1530.26 Q1127.24 1525.81 1117.4 1525.81 L1109.64 1525.81 M1103.21 1520.52 L1116.42 1520.52 Q1130.23 1520.52 1136.69 1526.28 Q1143.15 1532.01 1143.15 1544.24 Q1143.15 1556.52 1136.66 1562.28 Q1130.17 1568.04 1116.42 1568.04 L1103.21 1568.04 L1103.21 1520.52 Z" fill="#000000" fill-rule="nonzero" fill-opacity="1" /><path clip-path="url(#clip140)" d="M1152.54 1553.98 L1152.54 1532.4 L1158.4 1532.4 L1158.4 1553.75 Q1158.4 1558.81 1160.37 1561.36 Q1162.34 1563.87 1166.29 1563.87 Q1171.03 1563.87 1173.77 1560.85 Q1176.54 1557.83 1176.54 1552.61 L1176.54 1532.4 L1182.4 1532.4 L1182.4 1568.04 L1176.54 1568.04 L1176.54 1562.57 Q1174.41 1565.82 1171.58 1567.41 Q1168.77 1568.97 1165.05 1568.97 Q1158.91 1568.97 1155.72 1565.15 Q1152.54 1561.33 1152.54 1553.98 M1167.28 1531.54 L1167.28 1531.54 Z" fill="#000000" fill-rule="nonzero" fill-opacity="1" /><path clip-path="url(#clip140)" d="M1215.12 1537.87 Q1214.13 1537.3 1212.95 1537.04 Q1211.81 1536.76 1210.41 1536.76 Q1205.44 1536.76 1202.77 1540 Q1200.13 1543.22 1200.13 1549.27 L1200.13 1568.04 L1194.24 1568.04 L1194.24 1532.4 L1200.13 1532.4 L1200.13 1537.93 Q1201.97 1534.69 1204.93 1533.13 Q1207.89 1531.54 1212.12 1531.54 Q1212.73 1531.54 1213.46 1531.63 Q1214.19 1531.7 1215.08 1531.85 L1215.12 1537.87 Z" fill="#000000" fill-rule="nonzero" fill-opacity="1" /><path clip-path="url(#clip140)" d="M1237.46 1550.12 Q1230.36 1550.12 1227.63 1551.75 Q1224.89 1553.37 1224.89 1557.29 Q1224.89 1560.4 1226.92 1562.25 Q1228.99 1564.07 1232.53 1564.07 Q1237.4 1564.07 1240.32 1560.63 Q1243.28 1557.16 1243.28 1551.43 L1243.28 1550.12 L1237.46 1550.12 M1249.14 1547.71 L1249.14 1568.04 L1243.28 1568.04 L1243.28 1562.63 Q1241.28 1565.88 1238.29 1567.44 Q1235.3 1568.97 1230.97 1568.97 Q1225.49 1568.97 1222.25 1565.91 Q1219.03 1562.82 1219.03 1557.67 Q1219.03 1551.65 1223.04 1548.6 Q1227.08 1545.54 1235.07 1545.54 L1243.28 1545.54 L1243.28 1544.97 Q1243.28 1540.93 1240.61 1538.73 Q1237.97 1536.5 1233.16 1536.5 Q1230.11 1536.5 1227.21 1537.23 Q1224.31 1537.97 1221.64 1539.43 L1221.64 1534.02 Q1224.86 1532.78 1227.88 1532.17 Q1230.9 1531.54 1233.77 1531.54 Q1241.5 1531.54 1245.32 1535.55 Q1249.14 1539.56 1249.14 1547.71 Z" fill="#000000" fill-rule="nonzero" fill-opacity="1" /><path clip-path="url(#clip140)" d="M1267 1522.27 L1267 1532.4 L1279.06 1532.4 L1279.06 1536.95 L1267 1536.95 L1267 1556.3 Q1267 1560.66 1268.17 1561.9 Q1269.38 1563.14 1273.04 1563.14 L1279.06 1563.14 L1279.06 1568.04 L1273.04 1568.04 Q1266.26 1568.04 1263.69 1565.53 Q1261.11 1562.98 1261.11 1556.3 L1261.11 1536.95 L1256.81 1536.95 L1256.81 1532.4 L1261.11 1532.4 L1261.11 1522.27 L1267 1522.27 Z" fill="#000000" fill-rule="nonzero" fill-opacity="1" /><path clip-path="url(#clip140)" d="M1286.76 1532.4 L1292.62 1532.4 L1292.62 1568.04 L1286.76 1568.04 L1286.76 1532.4 M1286.76 1518.52 L1292.62 1518.52 L1292.62 1525.93 L1286.76 1525.93 L1286.76 1518.52 Z" fill="#000000" fill-rule="nonzero" fill-opacity="1" /><path clip-path="url(#clip140)" d="M1318.69 1536.5 Q1313.98 1536.5 1311.24 1540.19 Q1308.5 1543.85 1308.5 1550.25 Q1308.5 1556.65 1311.21 1560.34 Q1313.94 1564 1318.69 1564 Q1323.37 1564 1326.1 1560.31 Q1328.84 1556.62 1328.84 1550.25 Q1328.84 1543.92 1326.1 1540.23 Q1323.37 1536.5 1318.69 1536.5 M1318.69 1531.54 Q1326.33 1531.54 1330.69 1536.5 Q1335.05 1541.47 1335.05 1550.25 Q1335.05 1559 1330.69 1564 Q1326.33 1568.97 1318.69 1568.97 Q1311.02 1568.97 1306.66 1564 Q1302.33 1559 1302.33 1550.25 Q1302.33 1541.47 1306.66 1536.5 Q1311.02 1531.54 1318.69 1531.54 Z" fill="#000000" fill-rule="nonzero" fill-opacity="1" /><path clip-path="url(#clip140)" d="M1374.39 1546.53 L1374.39 1568.04 L1368.53 1568.04 L1368.53 1546.72 Q1368.53 1541.66 1366.56 1539.14 Q1364.58 1536.63 1360.64 1536.63 Q1355.89 1536.63 1353.16 1539.65 Q1350.42 1542.68 1350.42 1547.9 L1350.42 1568.04 L1344.53 1568.04 L1344.53 1532.4 L1350.42 1532.4 L1350.42 1537.93 Q1352.52 1534.72 1355.35 1533.13 Q1358.22 1531.54 1361.94 1531.54 Q1368.08 1531.54 1371.24 1535.36 Q1374.39 1539.14 1374.39 1546.53 Z" fill="#000000" fill-rule="nonzero" fill-opacity="1" /><path clip-path="url(#clip140)" d="M1420.86 1518.58 Q1416.59 1525.9 1414.52 1533.06 Q1412.45 1540.23 1412.45 1547.58 Q1412.45 1554.93 1414.52 1562.16 Q1416.62 1569.35 1420.86 1576.64 L1415.76 1576.64 Q1410.99 1569.16 1408.6 1561.93 Q1406.25 1554.71 1406.25 1547.58 Q1406.25 1540.48 1408.6 1533.29 Q1410.96 1526.09 1415.76 1518.58 L1420.86 1518.58 Z" fill="#000000" fill-rule="nonzero" fill-opacity="1" /><path clip-path="url(#clip140)" d="M1438.01 1522.27 L1438.01 1532.4 L1450.07 1532.4 L1450.07 1536.95 L1438.01 1536.95 L1438.01 1556.3 Q1438.01 1560.66 1439.19 1561.9 Q1440.4 1563.14 1444.06 1563.14 L1450.07 1563.14 L1450.07 1568.04 L1444.06 1568.04 Q1437.28 1568.04 1434.7 1565.53 Q1432.12 1562.98 1432.12 1556.3 L1432.12 1536.95 L1427.83 1536.95 L1427.83 1532.4 L1432.12 1532.4 L1432.12 1522.27 L1438.01 1522.27 Z" fill="#000000" fill-rule="nonzero" fill-opacity="1" /><path clip-path="url(#clip140)" d="M1457.78 1532.4 L1463.63 1532.4 L1463.63 1568.04 L1457.78 1568.04 L1457.78 1532.4 M1457.78 1518.52 L1463.63 1518.52 L1463.63 1525.93 L1457.78 1525.93 L1457.78 1518.52 Z" fill="#000000" fill-rule="nonzero" fill-opacity="1" /><path clip-path="url(#clip140)" d="M1503.64 1539.24 Q1505.84 1535.29 1508.89 1533.41 Q1511.95 1531.54 1516.09 1531.54 Q1521.66 1531.54 1524.68 1535.45 Q1527.7 1539.33 1527.7 1546.53 L1527.7 1568.04 L1521.82 1568.04 L1521.82 1546.72 Q1521.82 1541.59 1520 1539.11 Q1518.19 1536.63 1514.46 1536.63 Q1509.91 1536.63 1507.27 1539.65 Q1504.63 1542.68 1504.63 1547.9 L1504.63 1568.04 L1498.74 1568.04 L1498.74 1546.72 Q1498.74 1541.56 1496.93 1539.11 Q1495.11 1536.63 1491.32 1536.63 Q1486.84 1536.63 1484.19 1539.68 Q1481.55 1542.71 1481.55 1547.9 L1481.55 1568.04 L1475.66 1568.04 L1475.66 1532.4 L1481.55 1532.4 L1481.55 1537.93 Q1483.56 1534.66 1486.36 1533.1 Q1489.16 1531.54 1493.01 1531.54 Q1496.89 1531.54 1499.6 1533.51 Q1502.34 1535.48 1503.64 1539.24 Z" fill="#000000" fill-rule="nonzero" fill-opacity="1" /><path clip-path="url(#clip140)" d="M1569.88 1548.76 L1569.88 1551.62 L1542.95 1551.62 Q1543.33 1557.67 1546.58 1560.85 Q1549.86 1564 1555.68 1564 Q1559.06 1564 1562.21 1563.17 Q1565.39 1562.35 1568.51 1560.69 L1568.51 1566.23 Q1565.36 1567.57 1562.05 1568.27 Q1558.74 1568.97 1555.33 1568.97 Q1546.8 1568.97 1541.8 1564 Q1536.84 1559.04 1536.84 1550.57 Q1536.84 1541.82 1541.55 1536.69 Q1546.29 1531.54 1554.31 1531.54 Q1561.51 1531.54 1565.68 1536.18 Q1569.88 1540.8 1569.88 1548.76 M1564.02 1547.04 Q1563.96 1542.23 1561.32 1539.37 Q1558.71 1536.5 1554.38 1536.5 Q1549.48 1536.5 1546.52 1539.27 Q1543.59 1542.04 1543.14 1547.07 L1564.02 1547.04 Z" fill="#000000" fill-rule="nonzero" fill-opacity="1" /><path clip-path="url(#clip140)" d="M1599.61 1553.98 L1599.61 1532.4 L1605.46 1532.4 L1605.46 1553.75 Q1605.46 1558.81 1607.43 1561.36 Q1609.41 1563.87 1613.36 1563.87 Q1618.1 1563.87 1620.83 1560.85 Q1623.6 1557.83 1623.6 1552.61 L1623.6 1532.4 L1629.46 1532.4 L1629.46 1568.04 L1623.6 1568.04 L1623.6 1562.57 Q1621.47 1565.82 1618.64 1567.41 Q1615.84 1568.97 1612.11 1568.97 Q1605.97 1568.97 1602.79 1565.15 Q1599.61 1561.33 1599.61 1553.98 M1614.34 1531.54 L1614.34 1531.54 Z" fill="#000000" fill-rule="nonzero" fill-opacity="1" /><path clip-path="url(#clip140)" d="M1671.16 1546.53 L1671.16 1568.04 L1665.3 1568.04 L1665.3 1546.72 Q1665.3 1541.66 1663.33 1539.14 Q1661.35 1536.63 1657.41 1536.63 Q1652.66 1536.63 1649.93 1539.65 Q1647.19 1542.68 1647.19 1547.9 L1647.19 1568.04 L1641.3 1568.04 L1641.3 1532.4 L1647.19 1532.4 L1647.19 1537.93 Q1649.29 1534.72 1652.12 1533.13 Q1654.99 1531.54 1658.71 1531.54 Q1664.85 1531.54 1668 1535.36 Q1671.16 1539.14 1671.16 1546.53 Z" fill="#000000" fill-rule="nonzero" fill-opacity="1" /><path clip-path="url(#clip140)" d="M1682.84 1532.4 L1688.69 1532.4 L1688.69 1568.04 L1682.84 1568.04 L1682.84 1532.4 M1682.84 1518.52 L1688.69 1518.52 L1688.69 1525.93 L1682.84 1525.93 L1682.84 1518.52 Z" fill="#000000" fill-rule="nonzero" fill-opacity="1" /><path clip-path="url(#clip140)" d="M1706.74 1522.27 L1706.74 1532.4 L1718.8 1532.4 L1718.8 1536.95 L1706.74 1536.95 L1706.74 1556.3 Q1706.74 1560.66 1707.92 1561.9 Q1709.13 1563.14 1712.79 1563.14 L1718.8 1563.14 L1718.8 1568.04 L1712.79 1568.04 Q1706.01 1568.04 1703.43 1565.53 Q1700.85 1562.98 1700.85 1556.3 L1700.85 1536.95 L1696.55 1536.95 L1696.55 1532.4 L1700.85 1532.4 L1700.85 1522.27 L1706.74 1522.27 Z" fill="#000000" fill-rule="nonzero" fill-opacity="1" /><path clip-path="url(#clip140)" d="M1749.23 1533.45 L1749.23 1538.98 Q1746.75 1537.71 1744.07 1537.07 Q1741.4 1536.44 1738.54 1536.44 Q1734.18 1536.44 1731.98 1537.77 Q1729.82 1539.11 1729.82 1541.79 Q1729.82 1543.82 1731.38 1545 Q1732.93 1546.15 1737.65 1547.2 L1739.65 1547.64 Q1745.89 1548.98 1748.5 1551.43 Q1751.14 1553.85 1751.14 1558.21 Q1751.14 1563.17 1747.19 1566.07 Q1743.28 1568.97 1736.4 1568.97 Q1733.54 1568.97 1730.42 1568.39 Q1727.33 1567.85 1723.9 1566.74 L1723.9 1560.69 Q1727.14 1562.38 1730.29 1563.24 Q1733.44 1564.07 1736.53 1564.07 Q1740.67 1564.07 1742.9 1562.66 Q1745.13 1561.23 1745.13 1558.65 Q1745.13 1556.27 1743.5 1554.99 Q1741.91 1553.72 1736.47 1552.54 L1734.43 1552.07 Q1728.99 1550.92 1726.57 1548.56 Q1724.15 1546.18 1724.15 1542.04 Q1724.15 1537.01 1727.71 1534.27 Q1731.28 1531.54 1737.84 1531.54 Q1741.08 1531.54 1743.95 1532.01 Q1746.81 1532.49 1749.23 1533.45 Z" fill="#000000" fill-rule="nonzero" fill-opacity="1" /><path clip-path="url(#clip140)" d="M1759.54 1518.58 L1764.64 1518.58 Q1769.41 1526.09 1771.77 1533.29 Q1774.15 1540.48 1774.15 1547.58 Q1774.15 1554.71 1771.77 1561.93 Q1769.41 1569.16 1764.64 1576.64 L1759.54 1576.64 Q1763.78 1569.35 1765.85 1562.16 Q1767.95 1554.93 1767.95 1547.58 Q1767.95 1540.23 1765.85 1533.06 Q1763.78 1525.9 1759.54 1518.58 Z" fill="#000000" fill-rule="nonzero" fill-opacity="1" /><polyline clip-path="url(#clip140)" style="stroke:#000000; stroke-linecap:round; stroke-linejoin:round; stroke-width:4; stroke-opacity:1; fill:none" points="175.445,1423.18 175.445,123.472 "/>
<polyline clip-path="url(#clip140)" style="stroke:#000000; stroke-linecap:round; stroke-linejoin:round; stroke-width:4; stroke-opacity:1; fill:none" points="175.445,1377.36 194.343,1377.36 "/>
<polyline clip-path="url(#clip140)" style="stroke:#000000; stroke-linecap:round; stroke-linejoin:round; stroke-width:4; stroke-opacity:1; fill:none" points="175.445,1096.67 194.343,1096.67 "/>
<polyline clip-path="url(#clip140)" style="stroke:#000000; stroke-linecap:round; stroke-linejoin:round; stroke-width:4; stroke-opacity:1; fill:none" points="175.445,815.987 194.343,815.987 "/>
<polyline clip-path="url(#clip140)" style="stroke:#000000; stroke-linecap:round; stroke-linejoin:round; stroke-width:4; stroke-opacity:1; fill:none" points="175.445,535.302 194.343,535.302 "/>
<polyline clip-path="url(#clip140)" style="stroke:#000000; stroke-linecap:round; stroke-linejoin:round; stroke-width:4; stroke-opacity:1; fill:none" points="175.445,254.617 194.343,254.617 "/>
<path clip-path="url(#clip140)" d="M127.501 1363.16 Q123.89 1363.16 122.061 1366.72 Q120.255 1370.26 120.255 1377.39 Q120.255 1384.5 122.061 1388.06 Q123.89 1391.6 127.501 1391.6 Q131.135 1391.6 132.941 1388.06 Q134.769 1384.5 134.769 1377.39 Q134.769 1370.26 132.941 1366.72 Q131.135 1363.16 127.501 1363.16 M127.501 1359.45 Q133.311 1359.45 136.367 1364.06 Q139.445 1368.64 139.445 1377.39 Q139.445 1386.12 136.367 1390.72 Q133.311 1395.31 127.501 1395.31 Q121.691 1395.31 118.612 1390.72 Q115.556 1386.12 115.556 1377.39 Q115.556 1368.64 118.612 1364.06 Q121.691 1359.45 127.501 1359.45 Z" fill="#000000" fill-rule="nonzero" fill-opacity="1" /><path clip-path="url(#clip140)" d="M123.126 1110.02 L139.445 1110.02 L139.445 1113.95 L117.501 1113.95 L117.501 1110.02 Q120.163 1107.26 124.746 1102.63 Q129.353 1097.98 130.533 1096.64 Q132.779 1094.11 133.658 1092.38 Q134.561 1090.62 134.561 1088.93 Q134.561 1086.17 132.617 1084.44 Q130.695 1082.7 127.593 1082.7 Q125.394 1082.7 122.941 1083.47 Q120.51 1084.23 117.732 1085.78 L117.732 1081.06 Q120.556 1079.92 123.01 1079.35 Q125.464 1078.77 127.501 1078.77 Q132.871 1078.77 136.066 1081.45 Q139.26 1084.14 139.26 1088.63 Q139.26 1090.76 138.45 1092.68 Q137.663 1094.58 135.556 1097.17 Q134.978 1097.84 131.876 1101.06 Q128.774 1104.25 123.126 1110.02 Z" fill="#000000" fill-rule="nonzero" fill-opacity="1" /><path clip-path="url(#clip140)" d="M129.862 802.781 L118.056 821.23 L129.862 821.23 L129.862 802.781 M128.635 798.707 L134.515 798.707 L134.515 821.23 L139.445 821.23 L139.445 825.119 L134.515 825.119 L134.515 833.267 L129.862 833.267 L129.862 825.119 L114.26 825.119 L114.26 820.605 L128.635 798.707 Z" fill="#000000" fill-rule="nonzero" fill-opacity="1" /><path clip-path="url(#clip140)" d="M127.917 533.438 Q124.769 533.438 122.918 535.591 Q121.089 537.744 121.089 541.494 Q121.089 545.221 122.918 547.397 Q124.769 549.549 127.917 549.549 Q131.066 549.549 132.894 547.397 Q134.746 545.221 134.746 541.494 Q134.746 537.744 132.894 535.591 Q131.066 533.438 127.917 533.438 M137.2 518.786 L137.2 523.045 Q135.441 522.212 133.635 521.772 Q131.853 521.332 130.093 521.332 Q125.464 521.332 123.01 524.457 Q120.58 527.582 120.232 533.901 Q121.598 531.888 123.658 530.823 Q125.718 529.735 128.195 529.735 Q133.404 529.735 136.413 532.906 Q139.445 536.054 139.445 541.494 Q139.445 546.818 136.297 550.036 Q133.149 553.253 127.917 553.253 Q121.922 553.253 118.751 548.67 Q115.58 544.063 115.58 535.337 Q115.58 527.142 119.468 522.281 Q123.357 517.397 129.908 517.397 Q131.667 517.397 133.45 517.744 Q135.255 518.091 137.2 518.786 Z" fill="#000000" fill-rule="nonzero" fill-opacity="1" /><path clip-path="url(#clip140)" d="M127.593 255.485 Q124.26 255.485 122.339 257.267 Q120.441 259.05 120.441 262.175 Q120.441 265.3 122.339 267.082 Q124.26 268.865 127.593 268.865 Q130.927 268.865 132.848 267.082 Q134.769 265.277 134.769 262.175 Q134.769 259.05 132.848 257.267 Q130.95 255.485 127.593 255.485 M122.918 253.494 Q119.908 252.754 118.218 250.693 Q116.552 248.633 116.552 245.67 Q116.552 241.527 119.492 239.119 Q122.455 236.712 127.593 236.712 Q132.755 236.712 135.695 239.119 Q138.635 241.527 138.635 245.67 Q138.635 248.633 136.945 250.693 Q135.279 252.754 132.292 253.494 Q135.672 254.281 137.547 256.573 Q139.445 258.865 139.445 262.175 Q139.445 267.198 136.367 269.883 Q133.311 272.568 127.593 272.568 Q121.876 272.568 118.797 269.883 Q115.742 267.198 115.742 262.175 Q115.742 258.865 117.64 256.573 Q119.538 254.281 122.918 253.494 M121.205 246.11 Q121.205 248.795 122.871 250.3 Q124.561 251.805 127.593 251.805 Q130.603 251.805 132.292 250.3 Q134.005 248.795 134.005 246.11 Q134.005 243.425 132.292 241.92 Q130.603 240.416 127.593 240.416 Q124.561 240.416 122.871 241.92 Q121.205 243.425 121.205 246.11 Z" fill="#000000" fill-rule="nonzero" fill-opacity="1" /><path clip-path="url(#clip140)" d="M16.4842 1183.77 L16.4842 1174.19 L48.8219 1162.06 L16.4842 1149.87 L16.4842 1140.29 L64.0042 1140.29 L64.0042 1146.56 L22.277 1146.56 L54.8694 1158.82 L54.8694 1165.28 L22.277 1177.53 L64.0042 1177.53 L64.0042 1183.77 L16.4842 1183.77 Z" fill="#000000" fill-rule="nonzero" fill-opacity="1" /><path clip-path="url(#clip140)" d="M49.9359 1128.39 L28.3562 1128.39 L28.3562 1122.53 L49.7131 1122.53 Q54.7739 1122.53 57.3202 1120.56 Q59.8346 1118.59 59.8346 1114.64 Q59.8346 1109.9 56.8109 1107.16 Q53.7872 1104.39 48.5673 1104.39 L28.3562 1104.39 L28.3562 1098.53 L64.0042 1098.53 L64.0042 1104.39 L58.5296 1104.39 Q61.7762 1106.52 63.3676 1109.36 Q64.9272 1112.16 64.9272 1115.88 Q64.9272 1122.02 61.1078 1125.21 Q57.2883 1128.39 49.9359 1128.39 M27.4968 1113.65 L27.4968 1113.65 Z" fill="#000000" fill-rule="nonzero" fill-opacity="1" /><path clip-path="url(#clip140)" d="M18.2347 1080.68 L28.3562 1080.68 L28.3562 1068.62 L32.9077 1068.62 L32.9077 1080.68 L52.2594 1080.68 Q56.6199 1080.68 57.8613 1079.5 Q59.1026 1078.29 59.1026 1074.63 L59.1026 1068.62 L64.0042 1068.62 L64.0042 1074.63 Q64.0042 1081.41 61.4897 1083.99 Q58.9434 1086.57 52.2594 1086.57 L32.9077 1086.57 L32.9077 1090.86 L28.3562 1090.86 L28.3562 1086.57 L18.2347 1086.57 L18.2347 1080.68 Z" fill="#000000" fill-rule="nonzero" fill-opacity="1" /><path clip-path="url(#clip140)" d="M49.9359 1061.52 L28.3562 1061.52 L28.3562 1055.66 L49.7131 1055.66 Q54.7739 1055.66 57.3202 1053.69 Q59.8346 1051.71 59.8346 1047.77 Q59.8346 1043.03 56.8109 1040.29 Q53.7872 1037.52 48.5673 1037.52 L28.3562 1037.52 L28.3562 1031.66 L64.0042 1031.66 L64.0042 1037.52 L58.5296 1037.52 Q61.7762 1039.65 63.3676 1042.48 Q64.9272 1045.28 64.9272 1049.01 Q64.9272 1055.15 61.1078 1058.33 Q57.2883 1061.52 49.9359 1061.52 M27.4968 1046.78 L27.4968 1046.78 Z" fill="#000000" fill-rule="nonzero" fill-opacity="1" /><path clip-path="url(#clip140)" d="M46.0847 1003.4 Q46.0847 1010.5 47.7079 1013.23 Q49.3312 1015.97 53.2461 1015.97 Q56.3653 1015.97 58.2114 1013.93 Q60.0256 1011.86 60.0256 1008.33 Q60.0256 1003.46 56.5881 1000.53 Q53.1188 997.574 47.3897 997.574 L46.0847 997.574 L46.0847 1003.4 M43.6657 991.717 L64.0042 991.717 L64.0042 997.574 L58.5933 997.574 Q61.8398 999.579 63.3994 1002.57 Q64.9272 1005.56 64.9272 1009.89 Q64.9272 1015.37 61.8716 1018.61 Q58.7843 1021.83 53.6281 1021.83 Q47.6125 1021.83 44.5569 1017.82 Q41.5014 1013.77 41.5014 1005.79 L41.5014 997.574 L40.9285 997.574 Q36.8862 997.574 34.6901 1000.25 Q32.4621 1002.89 32.4621 1007.7 Q32.4621 1010.75 33.1941 1013.65 Q33.9262 1016.54 35.3903 1019.22 L29.9795 1019.22 Q28.7381 1016 28.1334 1012.98 Q27.4968 1009.96 27.4968 1007.09 Q27.4968 999.356 31.5072 995.537 Q35.5176 991.717 43.6657 991.717 Z" fill="#000000" fill-rule="nonzero" fill-opacity="1" /><path clip-path="url(#clip140)" d="M14.479 979.654 L14.479 973.798 L64.0042 973.798 L64.0042 979.654 L14.479 979.654 Z" fill="#000000" fill-rule="nonzero" fill-opacity="1" /><path clip-path="url(#clip140)" d="M16.4842 940.569 L16.4842 934.14 L64.0042 934.14 L64.0042 940.569 L16.4842 940.569 Z" fill="#000000" fill-rule="nonzero" fill-opacity="1" /><path clip-path="url(#clip140)" d="M42.4881 891.967 L64.0042 891.967 L64.0042 897.823 L42.679 897.823 Q37.6183 897.823 35.1038 899.797 Q32.5894 901.77 32.5894 905.717 Q32.5894 910.459 35.6131 913.196 Q38.6368 915.934 43.8567 915.934 L64.0042 915.934 L64.0042 921.822 L28.3562 921.822 L28.3562 915.934 L33.8944 915.934 Q30.6797 913.833 29.0883 911 Q27.4968 908.136 27.4968 904.412 Q27.4968 898.269 31.3163 895.118 Q35.1038 891.967 42.4881 891.967 Z" fill="#000000" fill-rule="nonzero" fill-opacity="1" /><path clip-path="url(#clip140)" d="M14.479 862.239 L19.3487 862.239 L19.3487 867.841 Q19.3487 870.992 20.6219 872.233 Q21.895 873.443 25.2052 873.443 L28.3562 873.443 L28.3562 863.799 L32.9077 863.799 L32.9077 873.443 L64.0042 873.443 L64.0042 879.331 L32.9077 879.331 L32.9077 884.933 L28.3562 884.933 L28.3562 879.331 L25.8736 879.331 Q19.9216 879.331 17.2162 876.562 Q14.479 873.793 14.479 867.777 L14.479 862.239 Z" fill="#000000" fill-rule="nonzero" fill-opacity="1" /><path clip-path="url(#clip140)" d="M32.4621 843.524 Q32.4621 848.234 36.1542 850.972 Q39.8145 853.709 46.212 853.709 Q52.6095 853.709 56.3017 851.004 Q59.9619 848.266 59.9619 843.524 Q59.9619 838.845 56.2698 836.108 Q52.5777 833.371 46.212 833.371 Q39.8781 833.371 36.186 836.108 Q32.4621 838.845 32.4621 843.524 M27.4968 843.524 Q27.4968 835.885 32.4621 831.524 Q37.4273 827.164 46.212 827.164 Q54.9649 827.164 59.9619 831.524 Q64.9272 835.885 64.9272 843.524 Q64.9272 851.194 59.9619 855.555 Q54.9649 859.884 46.212 859.884 Q37.4273 859.884 32.4621 855.555 Q27.4968 851.194 27.4968 843.524 Z" fill="#000000" fill-rule="nonzero" fill-opacity="1" /><path clip-path="url(#clip140)" d="M33.8307 796.8 Q33.2578 797.786 33.0032 798.964 Q32.7167 800.11 32.7167 801.51 Q32.7167 806.475 35.9632 809.149 Q39.1779 811.791 45.2253 811.791 L64.0042 811.791 L64.0042 817.679 L28.3562 817.679 L28.3562 811.791 L33.8944 811.791 Q30.6479 809.945 29.0883 806.985 Q27.4968 804.025 27.4968 799.791 Q27.4968 799.187 27.5923 798.455 Q27.656 797.723 27.8151 796.831 L33.8307 796.8 Z" fill="#000000" fill-rule="nonzero" fill-opacity="1" /><path clip-path="url(#clip140)" d="M35.1993 764.048 Q31.2526 761.852 29.3747 758.796 Q27.4968 755.741 27.4968 751.603 Q27.4968 746.033 31.4117 743.009 Q35.2948 739.986 42.4881 739.986 L64.0042 739.986 L64.0042 745.874 L42.679 745.874 Q37.5546 745.874 35.072 747.688 Q32.5894 749.502 32.5894 753.226 Q32.5894 757.778 35.6131 760.42 Q38.6368 763.061 43.8567 763.061 L64.0042 763.061 L64.0042 768.95 L42.679 768.95 Q37.5228 768.95 35.072 770.764 Q32.5894 772.578 32.5894 776.366 Q32.5894 780.853 35.6449 783.495 Q38.6686 786.137 43.8567 786.137 L64.0042 786.137 L64.0042 792.025 L28.3562 792.025 L28.3562 786.137 L33.8944 786.137 Q30.616 784.132 29.0564 781.331 Q27.4968 778.53 27.4968 774.679 Q27.4968 770.796 29.4702 768.09 Q31.4436 765.353 35.1993 764.048 Z" fill="#000000" fill-rule="nonzero" fill-opacity="1" /><path clip-path="url(#clip140)" d="M46.0847 712.104 Q46.0847 719.202 47.7079 721.939 Q49.3312 724.676 53.2461 724.676 Q56.3653 724.676 58.2114 722.639 Q60.0256 720.57 60.0256 717.037 Q60.0256 712.167 56.5881 709.239 Q53.1188 706.279 47.3897 706.279 L46.0847 706.279 L46.0847 712.104 M43.6657 700.423 L64.0042 700.423 L64.0042 706.279 L58.5933 706.279 Q61.8398 708.284 63.3994 711.276 Q64.9272 714.268 64.9272 718.597 Q64.9272 724.071 61.8716 727.318 Q58.7843 730.533 53.6281 730.533 Q47.6125 730.533 44.5569 726.522 Q41.5014 722.48 41.5014 714.491 L41.5014 706.279 L40.9285 706.279 Q36.8862 706.279 34.6901 708.953 Q32.4621 711.595 32.4621 716.401 Q32.4621 719.456 33.1941 722.353 Q33.9262 725.249 35.3903 727.923 L29.9795 727.923 Q28.7381 724.708 28.1334 721.684 Q27.4968 718.66 27.4968 715.796 Q27.4968 708.062 31.5072 704.242 Q35.5176 700.423 43.6657 700.423 Z" fill="#000000" fill-rule="nonzero" fill-opacity="1" /><path clip-path="url(#clip140)" d="M18.2347 682.567 L28.3562 682.567 L28.3562 670.504 L32.9077 670.504 L32.9077 682.567 L52.2594 682.567 Q56.6199 682.567 57.8613 681.389 Q59.1026 680.18 59.1026 676.52 L59.1026 670.504 L64.0042 670.504 L64.0042 676.52 Q64.0042 683.299 61.4897 685.877 Q58.9434 688.455 52.2594 688.455 L32.9077 688.455 L32.9077 692.752 L28.3562 692.752 L28.3562 688.455 L18.2347 688.455 L18.2347 682.567 Z" fill="#000000" fill-rule="nonzero" fill-opacity="1" /><path clip-path="url(#clip140)" d="M28.3562 662.801 L28.3562 656.945 L64.0042 656.945 L64.0042 662.801 L28.3562 662.801 M14.479 662.801 L14.479 656.945 L21.895 656.945 L21.895 662.801 L14.479 662.801 Z" fill="#000000" fill-rule="nonzero" fill-opacity="1" /><path clip-path="url(#clip140)" d="M32.4621 630.877 Q32.4621 635.588 36.1542 638.325 Q39.8145 641.063 46.212 641.063 Q52.6095 641.063 56.3017 638.357 Q59.9619 635.62 59.9619 630.877 Q59.9619 626.199 56.2698 623.461 Q52.5777 620.724 46.212 620.724 Q39.8781 620.724 36.186 623.461 Q32.4621 626.199 32.4621 630.877 M27.4968 630.877 Q27.4968 623.239 32.4621 618.878 Q37.4273 614.518 46.212 614.518 Q54.9649 614.518 59.9619 618.878 Q64.9272 623.239 64.9272 630.877 Q64.9272 638.548 59.9619 642.909 Q54.9649 647.237 46.212 647.237 Q37.4273 647.237 32.4621 642.909 Q27.4968 638.548 27.4968 630.877 Z" fill="#000000" fill-rule="nonzero" fill-opacity="1" /><path clip-path="url(#clip140)" d="M42.4881 575.177 L64.0042 575.177 L64.0042 581.034 L42.679 581.034 Q37.6183 581.034 35.1038 583.007 Q32.5894 584.981 32.5894 588.927 Q32.5894 593.67 35.6131 596.407 Q38.6368 599.144 43.8567 599.144 L64.0042 599.144 L64.0042 605.033 L28.3562 605.033 L28.3562 599.144 L33.8944 599.144 Q30.6797 597.044 29.0883 594.211 Q27.4968 591.346 27.4968 587.622 Q27.4968 581.48 31.3163 578.328 Q35.1038 575.177 42.4881 575.177 Z" fill="#000000" fill-rule="nonzero" fill-opacity="1" /><path clip-path="url(#clip140)" d="M14.5426 528.708 Q21.8632 532.973 29.0246 535.042 Q36.186 537.111 43.5384 537.111 Q50.8908 537.111 58.1159 535.042 Q65.3091 532.941 72.5979 528.708 L72.5979 533.8 Q65.1182 538.575 57.8931 540.962 Q50.668 543.317 43.5384 543.317 Q36.4406 543.317 29.2474 540.962 Q22.0542 538.606 14.5426 533.8 L14.5426 528.708 Z" fill="#000000" fill-rule="nonzero" fill-opacity="1" /><path clip-path="url(#clip140)" d="M42.4881 487.713 L64.0042 487.713 L64.0042 493.569 L42.679 493.569 Q37.6183 493.569 35.1038 495.542 Q32.5894 497.516 32.5894 501.463 Q32.5894 506.205 35.6131 508.942 Q38.6368 511.68 43.8567 511.68 L64.0042 511.68 L64.0042 517.568 L28.3562 517.568 L28.3562 511.68 L33.8944 511.68 Q30.6797 509.579 29.0883 506.746 Q27.4968 503.882 27.4968 500.158 Q27.4968 494.015 31.3163 490.864 Q35.1038 487.713 42.4881 487.713 Z" fill="#000000" fill-rule="nonzero" fill-opacity="1" /><path clip-path="url(#clip140)" d="M46.0847 459.831 Q46.0847 466.929 47.7079 469.666 Q49.3312 472.403 53.2461 472.403 Q56.3653 472.403 58.2114 470.366 Q60.0256 468.297 60.0256 464.764 Q60.0256 459.895 56.5881 456.966 Q53.1188 454.006 47.3897 454.006 L46.0847 454.006 L46.0847 459.831 M43.6657 448.15 L64.0042 448.15 L64.0042 454.006 L58.5933 454.006 Q61.8398 456.011 63.3994 459.003 Q64.9272 461.995 64.9272 466.324 Q64.9272 471.798 61.8716 475.045 Q58.7843 478.26 53.6281 478.26 Q47.6125 478.26 44.5569 474.249 Q41.5014 470.207 41.5014 462.218 L41.5014 454.006 L40.9285 454.006 Q36.8862 454.006 34.6901 456.68 Q32.4621 459.322 32.4621 464.128 Q32.4621 467.183 33.1941 470.08 Q33.9262 472.976 35.3903 475.65 L29.9795 475.65 Q28.7381 472.435 28.1334 469.411 Q27.4968 466.388 27.4968 463.523 Q27.4968 455.789 31.5072 451.969 Q35.5176 448.15 43.6657 448.15 Z" fill="#000000" fill-rule="nonzero" fill-opacity="1" /><path clip-path="url(#clip140)" d="M18.2347 430.294 L28.3562 430.294 L28.3562 418.231 L32.9077 418.231 L32.9077 430.294 L52.2594 430.294 Q56.6199 430.294 57.8613 429.116 Q59.1026 427.907 59.1026 424.247 L59.1026 418.231 L64.0042 418.231 L64.0042 424.247 Q64.0042 431.026 61.4897 433.604 Q58.9434 436.182 52.2594 436.182 L32.9077 436.182 L32.9077 440.479 L28.3562 440.479 L28.3562 436.182 L18.2347 436.182 L18.2347 430.294 Z" fill="#000000" fill-rule="nonzero" fill-opacity="1" /><path clip-path="url(#clip140)" d="M29.4065 387.803 L34.9447 387.803 Q33.6716 390.286 33.035 392.959 Q32.3984 395.633 32.3984 398.497 Q32.3984 402.858 33.7352 405.054 Q35.072 407.218 37.7456 407.218 Q39.7826 407.218 40.9603 405.659 Q42.1061 404.099 43.1565 399.388 L43.6021 397.383 Q44.9389 391.145 47.3897 388.535 Q49.8086 385.893 54.1691 385.893 Q59.1344 385.893 62.0308 389.84 Q64.9272 393.755 64.9272 400.63 Q64.9272 403.494 64.3543 406.614 Q63.8132 409.701 62.6992 413.138 L56.6518 413.138 Q58.3387 409.892 59.198 406.741 Q60.0256 403.59 60.0256 400.502 Q60.0256 396.365 58.6251 394.137 Q57.1929 391.909 54.6147 391.909 Q52.2276 391.909 50.9545 393.532 Q49.6813 395.123 48.5037 400.566 L48.0262 402.603 Q46.8804 408.046 44.5251 410.465 Q42.138 412.884 38.0002 412.884 Q32.9713 412.884 30.2341 409.319 Q27.4968 405.754 27.4968 399.197 Q27.4968 395.951 27.9743 393.086 Q28.4517 390.222 29.4065 387.803 Z" fill="#000000" fill-rule="nonzero" fill-opacity="1" /><path clip-path="url(#clip140)" d="M14.5426 377.49 L14.5426 372.398 Q22.0542 367.624 29.2474 365.268 Q36.4406 362.881 43.5384 362.881 Q50.668 362.881 57.8931 365.268 Q65.1182 367.624 72.5979 372.398 L72.5979 377.49 Q65.3091 373.257 58.1159 371.188 Q50.8908 369.088 43.5384 369.088 Q36.186 369.088 29.0246 371.188 Q21.8632 373.257 14.5426 377.49 Z" fill="#000000" fill-rule="nonzero" fill-opacity="1" /><path clip-path="url(#clip140)" d="M830.958 20.1573 L819.858 50.2555 L842.098 50.2555 L830.958 20.1573 M826.34 12.096 L835.616 12.096 L858.666 72.576 L850.159 72.576 L844.65 57.061 L817.387 57.061 L811.878 72.576 L803.249 72.576 L826.34 12.096 Z" fill="#000000" fill-rule="nonzero" fill-opacity="1" /><path clip-path="url(#clip140)" d="M867.173 9.54393 L874.626 9.54393 L874.626 72.576 L867.173 72.576 L867.173 9.54393 Z" fill="#000000" fill-rule="nonzero" fill-opacity="1" /><path clip-path="url(#clip140)" d="M920.078 49.3643 Q920.078 41.2625 916.715 36.8065 Q913.394 32.3505 907.358 32.3505 Q901.362 32.3505 898 36.8065 Q894.678 41.2625 894.678 49.3643 Q894.678 57.4256 898 61.8816 Q901.362 66.3376 907.358 66.3376 Q913.394 66.3376 916.715 61.8816 Q920.078 57.4256 920.078 49.3643 M927.531 66.9452 Q927.531 78.5308 922.387 84.1616 Q917.242 89.8329 906.629 89.8329 Q902.699 89.8329 899.215 89.2252 Q895.732 88.6581 892.45 87.4428 L892.45 80.1917 Q895.732 81.9741 898.932 82.8248 Q902.132 83.6755 905.454 83.6755 Q912.786 83.6755 916.432 79.8271 Q920.078 76.0193 920.078 68.282 L920.078 64.5957 Q917.769 68.6061 914.163 70.5911 Q910.558 72.576 905.535 72.576 Q897.19 72.576 892.086 66.2161 Q886.982 59.8562 886.982 49.3643 Q886.982 38.832 892.086 32.472 Q897.19 26.1121 905.535 26.1121 Q910.558 26.1121 914.163 28.0971 Q917.769 30.082 920.078 34.0924 L920.078 27.2059 L927.531 27.2059 L927.531 66.9452 Z" fill="#000000" fill-rule="nonzero" fill-opacity="1" /><path clip-path="url(#clip140)" d="M960.465 32.4315 Q954.47 32.4315 950.986 37.1306 Q947.502 41.7891 947.502 49.9314 Q947.502 58.0738 950.945 62.7728 Q954.429 67.4314 960.465 67.4314 Q966.42 67.4314 969.904 62.7323 Q973.387 58.0333 973.387 49.9314 Q973.387 41.8701 969.904 37.1711 Q966.42 32.4315 960.465 32.4315 M960.465 26.1121 Q970.187 26.1121 975.737 32.4315 Q981.287 38.7509 981.287 49.9314 Q981.287 61.0714 975.737 67.4314 Q970.187 73.7508 960.465 73.7508 Q950.702 73.7508 945.153 67.4314 Q939.643 61.0714 939.643 49.9314 Q939.643 38.7509 945.153 32.4315 Q950.702 26.1121 960.465 26.1121 Z" fill="#000000" fill-rule="nonzero" fill-opacity="1" /><path clip-path="url(#clip140)" d="M1019.93 34.1734 Q1018.68 33.4443 1017.18 33.1202 Q1015.72 32.7556 1013.94 32.7556 Q1007.62 32.7556 1004.21 36.8875 Q1000.85 40.9789 1000.85 48.6757 L1000.85 72.576 L993.358 72.576 L993.358 27.2059 L1000.85 27.2059 L1000.85 34.2544 Q1003.2 30.1225 1006.97 28.1376 Q1010.74 26.1121 1016.12 26.1121 Q1016.89 26.1121 1017.83 26.2337 Q1018.76 26.3147 1019.89 26.5172 L1019.93 34.1734 Z" fill="#000000" fill-rule="nonzero" fill-opacity="1" /><path clip-path="url(#clip140)" d="M1027.75 27.2059 L1035.2 27.2059 L1035.2 72.576 L1027.75 72.576 L1027.75 27.2059 M1027.75 9.54393 L1035.2 9.54393 L1035.2 18.9825 L1027.75 18.9825 L1027.75 9.54393 Z" fill="#000000" fill-rule="nonzero" fill-opacity="1" /><path clip-path="url(#clip140)" d="M1058.17 14.324 L1058.17 27.2059 L1073.53 27.2059 L1073.53 32.9987 L1058.17 32.9987 L1058.17 57.6282 Q1058.17 63.1779 1059.67 64.7578 Q1061.21 66.3376 1065.87 66.3376 L1073.53 66.3376 L1073.53 72.576 L1065.87 72.576 Q1057.24 72.576 1053.96 69.3758 Q1050.68 66.1351 1050.68 57.6282 L1050.68 32.9987 L1045.21 32.9987 L1045.21 27.2059 L1050.68 27.2059 L1050.68 14.324 L1058.17 14.324 Z" fill="#000000" fill-rule="nonzero" fill-opacity="1" /><path clip-path="url(#clip140)" d="M1121.04 45.1919 L1121.04 72.576 L1113.59 72.576 L1113.59 45.4349 Q1113.59 38.994 1111.08 35.7938 Q1108.57 32.5936 1103.54 32.5936 Q1097.51 32.5936 1094.02 36.4419 Q1090.54 40.2903 1090.54 46.9338 L1090.54 72.576 L1083.05 72.576 L1083.05 9.54393 L1090.54 9.54393 L1090.54 34.2544 Q1093.21 30.163 1096.82 28.1376 Q1100.46 26.1121 1105.2 26.1121 Q1113.02 26.1121 1117.03 30.9732 Q1121.04 35.7938 1121.04 45.1919 Z" fill="#000000" fill-rule="nonzero" fill-opacity="1" /><path clip-path="url(#clip140)" d="M1171.23 35.9153 Q1174.03 30.8922 1177.92 28.5022 Q1181.81 26.1121 1187.07 26.1121 Q1194.16 26.1121 1198.01 31.0947 Q1201.86 36.0368 1201.86 45.1919 L1201.86 72.576 L1194.36 72.576 L1194.36 45.4349 Q1194.36 38.913 1192.06 35.7533 Q1189.75 32.5936 1185.01 32.5936 Q1179.21 32.5936 1175.85 36.4419 Q1172.49 40.2903 1172.49 46.9338 L1172.49 72.576 L1165 72.576 L1165 45.4349 Q1165 38.8725 1162.69 35.7533 Q1160.38 32.5936 1155.56 32.5936 Q1149.84 32.5936 1146.48 36.4824 Q1143.12 40.3308 1143.12 46.9338 L1143.12 72.576 L1135.63 72.576 L1135.63 27.2059 L1143.12 27.2059 L1143.12 34.2544 Q1145.67 30.082 1149.24 28.0971 Q1152.8 26.1121 1157.7 26.1121 Q1162.65 26.1121 1166.09 28.6237 Q1169.57 31.1352 1171.23 35.9153 Z" fill="#000000" fill-rule="nonzero" fill-opacity="1" /><path clip-path="url(#clip140)" d="M1288.71 16.7545 L1288.71 25.383 Q1284.58 21.5346 1279.88 19.6307 Q1275.22 17.7268 1269.95 17.7268 Q1259.58 17.7268 1254.07 24.0867 Q1248.57 30.4061 1248.57 42.3968 Q1248.57 54.3469 1254.07 60.7069 Q1259.58 67.0263 1269.95 67.0263 Q1275.22 67.0263 1279.88 65.1223 Q1284.58 63.2184 1288.71 59.3701 L1288.71 67.9175 Q1284.42 70.8341 1279.6 72.2924 Q1274.82 73.7508 1269.47 73.7508 Q1255.74 73.7508 1247.84 65.3654 Q1239.94 56.9395 1239.94 42.3968 Q1239.94 27.8135 1247.84 19.4281 Q1255.74 11.0023 1269.47 11.0023 Q1274.9 11.0023 1279.68 12.4606 Q1284.5 13.8784 1288.71 16.7545 Z" fill="#000000" fill-rule="nonzero" fill-opacity="1" /><path clip-path="url(#clip140)" d="M1318.61 32.4315 Q1312.61 32.4315 1309.13 37.1306 Q1305.64 41.7891 1305.64 49.9314 Q1305.64 58.0738 1309.09 62.7728 Q1312.57 67.4314 1318.61 67.4314 Q1324.56 67.4314 1328.04 62.7323 Q1331.53 58.0333 1331.53 49.9314 Q1331.53 41.8701 1328.04 37.1711 Q1324.56 32.4315 1318.61 32.4315 M1318.61 26.1121 Q1328.33 26.1121 1333.88 32.4315 Q1339.43 38.7509 1339.43 49.9314 Q1339.43 61.0714 1333.88 67.4314 Q1328.33 73.7508 1318.61 73.7508 Q1308.84 73.7508 1303.29 67.4314 Q1297.78 61.0714 1297.78 49.9314 Q1297.78 38.7509 1303.29 32.4315 Q1308.84 26.1121 1318.61 26.1121 Z" fill="#000000" fill-rule="nonzero" fill-opacity="1" /><path clip-path="url(#clip140)" d="M1387.11 35.9153 Q1389.9 30.8922 1393.79 28.5022 Q1397.68 26.1121 1402.95 26.1121 Q1410.03 26.1121 1413.88 31.0947 Q1417.73 36.0368 1417.73 45.1919 L1417.73 72.576 L1410.24 72.576 L1410.24 45.4349 Q1410.24 38.913 1407.93 35.7533 Q1405.62 32.5936 1400.88 32.5936 Q1395.09 32.5936 1391.72 36.4419 Q1388.36 40.2903 1388.36 46.9338 L1388.36 72.576 L1380.87 72.576 L1380.87 45.4349 Q1380.87 38.8725 1378.56 35.7533 Q1376.25 32.5936 1371.43 32.5936 Q1365.72 32.5936 1362.36 36.4824 Q1358.99 40.3308 1358.99 46.9338 L1358.99 72.576 L1351.5 72.576 L1351.5 27.2059 L1358.99 27.2059 L1358.99 34.2544 Q1361.55 30.082 1365.11 28.0971 Q1368.67 26.1121 1373.58 26.1121 Q1378.52 26.1121 1381.96 28.6237 Q1385.45 31.1352 1387.11 35.9153 Z" fill="#000000" fill-rule="nonzero" fill-opacity="1" /><path clip-path="url(#clip140)" d="M1439.81 65.7705 L1439.81 89.8329 L1432.31 89.8329 L1432.31 27.2059 L1439.81 27.2059 L1439.81 34.0924 Q1442.16 30.0415 1445.72 28.0971 Q1449.33 26.1121 1454.31 26.1121 Q1462.57 26.1121 1467.72 32.6746 Q1472.9 39.2371 1472.9 49.9314 Q1472.9 60.6258 1467.72 67.1883 Q1462.57 73.7508 1454.31 73.7508 Q1449.33 73.7508 1445.72 71.8063 Q1442.16 69.8214 1439.81 65.7705 M1465.17 49.9314 Q1465.17 41.7081 1461.76 37.0496 Q1458.4 32.3505 1452.49 32.3505 Q1446.57 32.3505 1443.17 37.0496 Q1439.81 41.7081 1439.81 49.9314 Q1439.81 58.1548 1443.17 62.8538 Q1446.57 67.5124 1452.49 67.5124 Q1458.4 67.5124 1461.76 62.8538 Q1465.17 58.1548 1465.17 49.9314 Z" fill="#000000" fill-rule="nonzero" fill-opacity="1" /><path clip-path="url(#clip140)" d="M1505.88 49.7694 Q1496.85 49.7694 1493.36 51.8354 Q1489.88 53.9013 1489.88 58.8839 Q1489.88 62.8538 1492.47 65.2034 Q1495.1 67.5124 1499.6 67.5124 Q1505.8 67.5124 1509.52 63.1374 Q1513.29 58.7219 1513.29 51.4303 L1513.29 49.7694 L1505.88 49.7694 M1520.75 46.6907 L1520.75 72.576 L1513.29 72.576 L1513.29 65.6895 Q1510.74 69.8214 1506.93 71.8063 Q1503.12 73.7508 1497.61 73.7508 Q1490.65 73.7508 1486.52 69.8619 Q1482.42 65.9325 1482.42 59.3701 Q1482.42 51.7138 1487.53 47.825 Q1492.67 43.9361 1502.84 43.9361 L1513.29 43.9361 L1513.29 43.2069 Q1513.29 38.0623 1509.89 35.2672 Q1506.53 32.4315 1500.41 32.4315 Q1496.52 32.4315 1492.83 33.3632 Q1489.15 34.295 1485.75 36.1584 L1485.75 29.2718 Q1489.84 27.692 1493.69 26.9223 Q1497.53 26.1121 1501.18 26.1121 Q1511.02 26.1121 1515.88 31.2163 Q1520.75 36.3204 1520.75 46.6907 Z" fill="#000000" fill-rule="nonzero" fill-opacity="1" /><path clip-path="url(#clip140)" d="M1562.39 34.1734 Q1561.13 33.4443 1559.63 33.1202 Q1558.18 32.7556 1556.39 32.7556 Q1550.07 32.7556 1546.67 36.8875 Q1543.31 40.9789 1543.31 48.6757 L1543.31 72.576 L1535.81 72.576 L1535.81 27.2059 L1543.31 27.2059 L1543.31 34.2544 Q1545.66 30.1225 1549.43 28.1376 Q1553.19 26.1121 1558.58 26.1121 Q1559.35 26.1121 1560.28 26.2337 Q1561.21 26.3147 1562.35 26.5172 L1562.39 34.1734 Z" fill="#000000" fill-rule="nonzero" fill-opacity="1" /><path clip-path="url(#clip140)" d="M1570.21 27.2059 L1577.66 27.2059 L1577.66 72.576 L1570.21 72.576 L1570.21 27.2059 M1570.21 9.54393 L1577.66 9.54393 L1577.66 18.9825 L1570.21 18.9825 L1570.21 9.54393 Z" fill="#000000" fill-rule="nonzero" fill-opacity="1" /><path clip-path="url(#clip140)" d="M1622.18 28.5427 L1622.18 35.5912 Q1619.02 33.9709 1615.62 33.1607 Q1612.22 32.3505 1608.57 32.3505 Q1603.02 32.3505 1600.22 34.0519 Q1597.47 35.7533 1597.47 39.156 Q1597.47 41.7486 1599.45 43.2475 Q1601.44 44.7058 1607.43 46.0426 L1609.99 46.6097 Q1617.93 48.3111 1621.25 51.4303 Q1624.61 54.509 1624.61 60.0587 Q1624.61 66.3781 1619.59 70.0644 Q1614.61 73.7508 1605.86 73.7508 Q1602.21 73.7508 1598.24 73.0216 Q1594.31 72.3329 1589.94 70.9151 L1589.94 63.2184 Q1594.07 65.3654 1598.08 66.4591 Q1602.09 67.5124 1606.02 67.5124 Q1611.28 67.5124 1614.12 65.73 Q1616.95 63.9071 1616.95 60.6258 Q1616.95 57.5877 1614.89 55.9673 Q1612.86 54.3469 1605.94 52.8481 L1603.34 52.2405 Q1596.42 50.7821 1593.34 47.7845 Q1590.26 44.7463 1590.26 39.4801 Q1590.26 33.0797 1594.8 29.5959 Q1599.33 26.1121 1607.68 26.1121 Q1611.81 26.1121 1615.46 26.7198 Q1619.1 27.3274 1622.18 28.5427 Z" fill="#000000" fill-rule="nonzero" fill-opacity="1" /><path clip-path="url(#clip140)" d="M1654.06 32.4315 Q1648.07 32.4315 1644.58 37.1306 Q1641.1 41.7891 1641.1 49.9314 Q1641.1 58.0738 1644.54 62.7728 Q1648.03 67.4314 1654.06 67.4314 Q1660.02 67.4314 1663.5 62.7323 Q1666.98 58.0333 1666.98 49.9314 Q1666.98 41.8701 1663.5 37.1711 Q1660.02 32.4315 1654.06 32.4315 M1654.06 26.1121 Q1663.78 26.1121 1669.33 32.4315 Q1674.88 38.7509 1674.88 49.9314 Q1674.88 61.0714 1669.33 67.4314 Q1663.78 73.7508 1654.06 73.7508 Q1644.3 73.7508 1638.75 67.4314 Q1633.24 61.0714 1633.24 49.9314 Q1633.24 38.7509 1638.75 32.4315 Q1644.3 26.1121 1654.06 26.1121 Z" fill="#000000" fill-rule="nonzero" fill-opacity="1" /><path clip-path="url(#clip140)" d="M1724.95 45.1919 L1724.95 72.576 L1717.5 72.576 L1717.5 45.4349 Q1717.5 38.994 1714.99 35.7938 Q1712.47 32.5936 1707.45 32.5936 Q1701.42 32.5936 1697.93 36.4419 Q1694.45 40.2903 1694.45 46.9338 L1694.45 72.576 L1686.95 72.576 L1686.95 27.2059 L1694.45 27.2059 L1694.45 34.2544 Q1697.12 30.163 1700.73 28.1376 Q1704.37 26.1121 1709.11 26.1121 Q1716.93 26.1121 1720.94 30.9732 Q1724.95 35.7938 1724.95 45.1919 Z" fill="#000000" fill-rule="nonzero" fill-opacity="1" /><polyline clip-path="url(#clip142)" style="stroke:#009af9; stroke-linecap:round; stroke-linejoin:round; stroke-width:8; stroke-opacity:1; fill:none" points="237.067,1377.36 257.608,1378.41 278.149,1378.5 298.689,1379.38 319.23,1381.43 339.771,1378.65 360.311,1372.21 380.852,1371.41 401.393,1374.33 421.933,1374.76 442.474,1374.8 463.015,1370.48 483.555,1363.91 504.096,1359.14 524.637,1343.26 545.177,1340.33 565.718,1335.6 586.259,1331.43 606.799,1331.31 627.34,1321.72 647.881,1315.11 668.421,1314.79 688.962,1307.02 709.503,1302.73 730.043,1296.23 750.584,1291.79 771.125,1293.84 791.665,1278.94 812.206,1279.81 832.747,1262.55 853.287,1249.05 873.828,1218.16 894.369,1231.34 914.909,1226.66 935.45,1207.12 955.991,1212.79 976.531,1217.32 997.072,1216.54 1017.61,1198.87 1038.15,1176.83 1058.69,1176.71 1079.23,1146.73 1099.78,1131.26 1120.32,1122.3 1140.86,1129.35 1161.4,1097.18 1181.94,1059.61 1202.48,1032.49 1223.02,993.565 1243.56,980.105 1264.1,971.6 1284.64,970.42 1305.18,947.641 1325.72,941.894 1346.26,916.821 1366.8,888.669 1387.34,872.285 1407.89,862.442 1428.43,847.784 1448.97,833.74 1469.51,808.04 1490.05,783.562 1510.59,781.912 1531.13,758.283 1551.67,733.391 1572.21,727.048 1592.75,737.887 1613.29,751.088 1633.83,754.261 1654.37,759.371 1674.91,740.803 1695.45,731.676 1716,690.747 1736.54,651.952 1757.08,648.946 1777.62,632.4 1798.16,589.926 1818.7,566.231 1839.24,596.642 1859.78,575.237 1880.32,545.932 1900.86,518.602 1921.4,519.721 1941.94,522.214 1962.48,497.449 1983.02,461.388 2003.56,425.998 2024.11,390.65 2044.65,339.346 2065.19,324.837 2085.73,300.881 2106.27,297.825 2126.81,295.232 2147.35,282.994 2167.89,240.514 2188.43,263.064 2208.97,259.28 2229.51,247.484 2250.05,228.602 2270.59,192.989 2291.13,160.256 "/>
<polyline clip-path="url(#clip142)" style="stroke:#e26f46; stroke-linecap:round; stroke-linejoin:round; stroke-width:8; stroke-opacity:1; fill:none" points="237.067,1377.36 257.608,1377.1 278.149,1374.6 298.689,1373.06 319.23,1382.01 339.771,1386.4 360.311,1380.33 380.852,1375.47 401.393,1373.28 421.933,1370.73 442.474,1372.23 463.015,1373.27 483.555,1372.85 504.096,1365 524.637,1364.25 545.177,1365.54 565.718,1364.11 586.259,1364.44 606.799,1367.66 627.34,1362.04 647.881,1352.03 668.421,1351.39 688.962,1349.47 709.503,1342.97 730.043,1336.3 750.584,1332.27 771.125,1323.38 791.665,1325.37 812.206,1323.94 832.747,1319.37 853.287,1312.33 873.828,1305.21 894.369,1300.33 914.909,1299.67 935.45,1294.63 955.991,1288.6 976.531,1286.53 997.072,1282.69 1017.61,1280.18 1038.15,1285.69 1058.69,1282.42 1079.23,1278.19 1099.78,1270.32 1120.32,1267.75 1140.86,1263.92 1161.4,1259.7 1181.94,1255.36 1202.48,1250.17 1223.02,1248.85 1243.56,1245.54 1264.1,1244.59 1284.64,1241.2 1305.18,1241.33 1325.72,1235.4 1346.26,1235.75 1366.8,1232.86 1387.34,1231.1 1407.89,1225.41 1428.43,1223.52 1448.97,1220.56 1469.51,1224.08 1490.05,1217.27 1510.59,1211.12 1531.13,1204.39 1551.67,1198.08 1572.21,1193.94 1592.75,1189.17 1613.29,1185.55 1633.83,1180.53 1654.37,1168.48 1674.91,1166.68 1695.45,1161.82 1716,1153.56 1736.54,1155.12 1757.08,1150.37 1777.62,1146.76 1798.16,1147.82 1818.7,1140.04 1839.24,1132.01 1859.78,1125.28 1880.32,1123.11 1900.86,1122.17 1921.4,1120.71 1941.94,1124.25 1962.48,1116.61 1983.02,1109.56 2003.56,1106.1 2024.11,1104.5 2044.65,1104.6 2065.19,1101.87 2085.73,1107.58 2106.27,1100.82 2126.81,1095.39 2147.35,1095.1 2167.89,1096.72 2188.43,1095.16 2208.97,1090.05 2229.51,1091.18 2250.05,1084.4 2270.59,1085.34 2291.13,1078.58 "/>
<polyline clip-path="url(#clip142)" style="stroke:#3da44d; stroke-linecap:round; stroke-linejoin:round; stroke-width:8; stroke-opacity:1; fill:none" points="237.067,1377.36 257.608,1378.04 278.149,1378.08 298.689,1377.83 319.23,1373.3 339.771,1370.13 360.311,1367.75 380.852,1365.05 401.393,1361.75 421.933,1361.69 442.474,1357.01 463.015,1353.74 483.555,1347.64 504.096,1348.47 524.637,1342.16 545.177,1342.74 565.718,1344.84 586.259,1340.7 606.799,1336.86 627.34,1337.46 647.881,1334.18 668.421,1330 688.962,1328.47 709.503,1326.09 730.043,1328.19 750.584,1320.11 771.125,1318.79 791.665,1316.95 812.206,1319.9 832.747,1316.11 853.287,1309.59 873.828,1303.99 894.369,1301.91 914.909,1299.12 935.45,1299.84 955.991,1292.99 976.531,1287.07 997.072,1284.34 1017.61,1281.24 1038.15,1283.7 1058.69,1282.1 1079.23,1280.52 1099.78,1277.12 1120.32,1278.52 1140.86,1272.42 1161.4,1266.77 1181.94,1264.05 1202.48,1262.58 1223.02,1262.38 1243.56,1259.13 1264.1,1252.01 1284.64,1250.94 1305.18,1250.71 1325.72,1246.48 1346.26,1241.03 1366.8,1238.98 1387.34,1235.85 1407.89,1239.87 1428.43,1238.48 1448.97,1237.03 1469.51,1231.14 1490.05,1228.86 1510.59,1226.9 1531.13,1230.73 1551.67,1227.75 1572.21,1222.97 1592.75,1219.01 1613.29,1216.76 1633.83,1211.33 1654.37,1203.75 1674.91,1197.09 1695.45,1193.01 1716,1192.15 1736.54,1185.81 1757.08,1188.53 1777.62,1185.61 1798.16,1185.79 1818.7,1179.51 1839.24,1177.52 1859.78,1172.76 1880.32,1165.52 1900.86,1162.21 1921.4,1153.37 1941.94,1147.2 1962.48,1146.44 1983.02,1144.78 2003.56,1141.47 2024.11,1136.21 2044.65,1133.96 2065.19,1127.47 2085.73,1122.44 2106.27,1111.61 2126.81,1111.76 2147.35,1110.11 2167.89,1103.71 2188.43,1092.88 2208.97,1089.1 2229.51,1085.04 2250.05,1080.06 2270.59,1077.53 2291.13,1076.9 "/>
<path clip-path="url(#clip140)" d="M1746.8 1379.86 L2280.18 1379.86 L2280.18 1172.5 L1746.8 1172.5  Z" fill="#ffffff" fill-rule="evenodd" fill-opacity="1"/>
<polyline clip-path="url(#clip140)" style="stroke:#000000; stroke-linecap:round; stroke-linejoin:round; stroke-width:4; stroke-opacity:1; fill:none" points="1746.8,1379.86 2280.18,1379.86 2280.18,1172.5 1746.8,1172.5 1746.8,1379.86 "/>
<polyline clip-path="url(#clip140)" style="stroke:#009af9; stroke-linecap:round; stroke-linejoin:round; stroke-width:8; stroke-opacity:1; fill:none" points="1770.99,1224.34 1916.15,1224.34 "/>
<path clip-path="url(#clip140)" d="M1945.02 1210.9 L1945.02 1237.77 L1950.66 1237.77 Q1957.82 1237.77 1961.13 1234.53 Q1964.46 1231.29 1964.46 1224.3 Q1964.46 1217.36 1961.13 1214.14 Q1957.82 1210.9 1950.66 1210.9 L1945.02 1210.9 M1940.34 1207.06 L1949.95 1207.06 Q1959.99 1207.06 1964.69 1211.25 Q1969.39 1215.41 1969.39 1224.3 Q1969.39 1233.24 1964.67 1237.43 Q1959.95 1241.62 1949.95 1241.62 L1940.34 1241.62 L1940.34 1207.06 Z" fill="#000000" fill-rule="nonzero" fill-opacity="1" /><path clip-path="url(#clip140)" d="M1976.66 1215.69 L1980.92 1215.69 L1980.92 1241.62 L1976.66 1241.62 L1976.66 1215.69 M1976.66 1205.6 L1980.92 1205.6 L1980.92 1210.99 L1976.66 1210.99 L1976.66 1205.6 Z" fill="#000000" fill-rule="nonzero" fill-opacity="1" /><path clip-path="url(#clip140)" d="M2004.85 1219.67 Q2004.14 1219.26 2003.28 1219.07 Q2002.45 1218.86 2001.43 1218.86 Q1997.82 1218.86 1995.87 1221.22 Q1993.95 1223.56 1993.95 1227.96 L1993.95 1241.62 L1989.67 1241.62 L1989.67 1215.69 L1993.95 1215.69 L1993.95 1219.72 Q1995.29 1217.36 1997.45 1216.22 Q1999.6 1215.07 2002.68 1215.07 Q2003.12 1215.07 2003.65 1215.13 Q2004.18 1215.18 2004.83 1215.3 L2004.85 1219.67 Z" fill="#000000" fill-rule="nonzero" fill-opacity="1" /><path clip-path="url(#clip140)" d="M2030.46 1227.59 L2030.46 1229.67 L2010.87 1229.67 Q2011.15 1234.07 2013.51 1236.38 Q2015.9 1238.68 2020.13 1238.68 Q2022.59 1238.68 2024.88 1238.07 Q2027.19 1237.47 2029.46 1236.27 L2029.46 1240.3 Q2027.17 1241.27 2024.76 1241.78 Q2022.35 1242.29 2019.88 1242.29 Q2013.67 1242.29 2010.04 1238.68 Q2006.43 1235.07 2006.43 1228.91 Q2006.43 1222.54 2009.85 1218.82 Q2013.3 1215.07 2019.14 1215.07 Q2024.37 1215.07 2027.4 1218.45 Q2030.46 1221.8 2030.46 1227.59 M2026.2 1226.34 Q2026.15 1222.84 2024.23 1220.76 Q2022.33 1218.68 2019.18 1218.68 Q2015.62 1218.68 2013.46 1220.69 Q2011.34 1222.7 2011.01 1226.36 L2026.2 1226.34 Z" fill="#000000" fill-rule="nonzero" fill-opacity="1" /><path clip-path="url(#clip140)" d="M2056.1 1216.69 L2056.1 1220.67 Q2054.3 1219.67 2052.47 1219.19 Q2050.66 1218.68 2048.81 1218.68 Q2044.67 1218.68 2042.38 1221.32 Q2040.08 1223.93 2040.08 1228.68 Q2040.08 1233.42 2042.38 1236.06 Q2044.67 1238.68 2048.81 1238.68 Q2050.66 1238.68 2052.47 1238.19 Q2054.3 1237.68 2056.1 1236.69 L2056.1 1240.62 Q2054.32 1241.45 2052.4 1241.87 Q2050.5 1242.29 2048.35 1242.29 Q2042.49 1242.29 2039.04 1238.61 Q2035.59 1234.93 2035.59 1228.68 Q2035.59 1222.33 2039.07 1218.7 Q2042.56 1215.07 2048.63 1215.07 Q2050.59 1215.07 2052.47 1215.48 Q2054.34 1215.88 2056.1 1216.69 Z" fill="#000000" fill-rule="nonzero" fill-opacity="1" /><path clip-path="url(#clip140)" d="M2067.72 1208.33 L2067.72 1215.69 L2076.5 1215.69 L2076.5 1219 L2067.72 1219 L2067.72 1233.07 Q2067.72 1236.25 2068.58 1237.15 Q2069.46 1238.05 2072.12 1238.05 L2076.5 1238.05 L2076.5 1241.62 L2072.12 1241.62 Q2067.19 1241.62 2065.32 1239.79 Q2063.44 1237.94 2063.44 1233.07 L2063.44 1219 L2060.32 1219 L2060.32 1215.69 L2063.44 1215.69 L2063.44 1208.33 L2067.72 1208.33 Z" fill="#000000" fill-rule="nonzero" fill-opacity="1" /><path clip-path="url(#clip140)" d="M2082.28 1207.06 L2089.25 1207.06 L2098.07 1230.57 L2106.94 1207.06 L2113.9 1207.06 L2113.9 1241.62 L2109.34 1241.62 L2109.34 1211.27 L2100.43 1234.97 L2095.73 1234.97 L2086.82 1211.27 L2086.82 1241.62 L2082.28 1241.62 L2082.28 1207.06 Z" fill="#000000" fill-rule="nonzero" fill-opacity="1" /><path clip-path="url(#clip140)" d="M2149.07 1209.72 L2149.07 1214.65 Q2146.7 1212.45 2144.02 1211.36 Q2141.36 1210.27 2138.35 1210.27 Q2132.42 1210.27 2129.27 1213.91 Q2126.13 1217.52 2126.13 1224.37 Q2126.13 1231.2 2129.27 1234.83 Q2132.42 1238.44 2138.35 1238.44 Q2141.36 1238.44 2144.02 1237.36 Q2146.7 1236.27 2149.07 1234.07 L2149.07 1238.95 Q2146.61 1240.62 2143.86 1241.45 Q2141.13 1242.29 2138.07 1242.29 Q2130.22 1242.29 2125.71 1237.5 Q2121.2 1232.68 2121.2 1224.37 Q2121.2 1216.04 2125.71 1211.25 Q2130.22 1206.43 2138.07 1206.43 Q2141.17 1206.43 2143.9 1207.26 Q2146.66 1208.07 2149.07 1209.72 Z" fill="#000000" fill-rule="nonzero" fill-opacity="1" /><path clip-path="url(#clip140)" d="M2153.95 1226.73 L2166.43 1226.73 L2166.43 1230.53 L2153.95 1230.53 L2153.95 1226.73 Z" fill="#000000" fill-rule="nonzero" fill-opacity="1" /><path clip-path="url(#clip140)" d="M2174.62 1237.68 L2182.26 1237.68 L2182.26 1211.32 L2173.95 1212.98 L2173.95 1208.72 L2182.21 1207.06 L2186.89 1207.06 L2186.89 1237.68 L2194.53 1237.68 L2194.53 1241.62 L2174.62 1241.62 L2174.62 1237.68 Z" fill="#000000" fill-rule="nonzero" fill-opacity="1" /><path clip-path="url(#clip140)" d="M2208 1237.68 L2224.32 1237.68 L2224.32 1241.62 L2202.38 1241.62 L2202.38 1237.68 Q2205.04 1234.93 2209.62 1230.3 Q2214.23 1225.64 2215.41 1224.3 Q2217.65 1221.78 2218.53 1220.04 Q2219.44 1218.28 2219.44 1216.59 Q2219.44 1213.84 2217.49 1212.1 Q2215.57 1210.37 2212.47 1210.37 Q2210.27 1210.37 2207.82 1211.13 Q2205.38 1211.89 2202.61 1213.45 L2202.61 1208.72 Q2205.43 1207.59 2207.88 1207.01 Q2210.34 1206.43 2212.38 1206.43 Q2217.75 1206.43 2220.94 1209.12 Q2224.13 1211.8 2224.13 1216.29 Q2224.13 1218.42 2223.32 1220.34 Q2222.54 1222.24 2220.43 1224.83 Q2219.85 1225.51 2216.75 1228.72 Q2213.65 1231.92 2208 1237.68 Z" fill="#000000" fill-rule="nonzero" fill-opacity="1" /><path clip-path="url(#clip140)" d="M2244.13 1225.2 Q2240.8 1225.2 2238.88 1226.99 Q2236.98 1228.77 2236.98 1231.89 Q2236.98 1235.02 2238.88 1236.8 Q2240.8 1238.58 2244.13 1238.58 Q2247.47 1238.58 2249.39 1236.8 Q2251.31 1235 2251.31 1231.89 Q2251.31 1228.77 2249.39 1226.99 Q2247.49 1225.2 2244.13 1225.2 M2239.46 1223.21 Q2236.45 1222.47 2234.76 1220.41 Q2233.09 1218.35 2233.09 1215.39 Q2233.09 1211.25 2236.03 1208.84 Q2239 1206.43 2244.13 1206.43 Q2249.3 1206.43 2252.24 1208.84 Q2255.18 1211.25 2255.18 1215.39 Q2255.18 1218.35 2253.49 1220.41 Q2251.82 1222.47 2248.83 1223.21 Q2252.21 1224 2254.09 1226.29 Q2255.99 1228.58 2255.99 1231.89 Q2255.99 1236.92 2252.91 1239.6 Q2249.85 1242.29 2244.13 1242.29 Q2238.42 1242.29 2235.34 1239.6 Q2232.28 1236.92 2232.28 1231.89 Q2232.28 1228.58 2234.18 1226.29 Q2236.08 1224 2239.46 1223.21 M2237.75 1215.83 Q2237.75 1218.51 2239.41 1220.02 Q2241.1 1221.52 2244.13 1221.52 Q2247.14 1221.52 2248.83 1220.02 Q2250.55 1218.51 2250.55 1215.83 Q2250.55 1213.14 2248.83 1211.64 Q2247.14 1210.13 2244.13 1210.13 Q2241.1 1210.13 2239.41 1211.64 Q2237.75 1213.14 2237.75 1215.83 Z" fill="#000000" fill-rule="nonzero" fill-opacity="1" /><polyline clip-path="url(#clip140)" style="stroke:#e26f46; stroke-linecap:round; stroke-linejoin:round; stroke-width:8; stroke-opacity:1; fill:none" points="1770.99,1276.18 1916.15,1276.18 "/>
<path clip-path="url(#clip140)" d="M1945.02 1262.74 L1945.02 1275.72 L1950.9 1275.72 Q1954.16 1275.72 1955.94 1274.04 Q1957.72 1272.35 1957.72 1269.22 Q1957.72 1266.12 1955.94 1264.43 Q1954.16 1262.74 1950.9 1262.74 L1945.02 1262.74 M1940.34 1258.9 L1950.9 1258.9 Q1956.71 1258.9 1959.67 1261.54 Q1962.65 1264.15 1962.65 1269.22 Q1962.65 1274.34 1959.67 1276.95 Q1956.71 1279.57 1950.9 1279.57 L1945.02 1279.57 L1945.02 1293.46 L1940.34 1293.46 L1940.34 1258.9 Z" fill="#000000" fill-rule="nonzero" fill-opacity="1" /><path clip-path="url(#clip140)" d="M1968.93 1258.9 L1990.78 1258.9 L1990.78 1262.83 L1973.6 1262.83 L1973.6 1273.06 L1990.06 1273.06 L1990.06 1277 L1973.6 1277 L1973.6 1289.52 L1991.2 1289.52 L1991.2 1293.46 L1968.93 1293.46 L1968.93 1258.9 Z" fill="#000000" fill-rule="nonzero" fill-opacity="1" /><path clip-path="url(#clip140)" d="M2015.27 1277.25 Q2016.77 1277.76 2018.19 1279.43 Q2019.62 1281.1 2021.06 1284.01 L2025.8 1293.46 L2020.78 1293.46 L2016.36 1284.59 Q2014.65 1281.12 2013.02 1279.98 Q2011.43 1278.85 2008.65 1278.85 L2003.56 1278.85 L2003.56 1293.46 L1998.88 1293.46 L1998.88 1258.9 L2009.44 1258.9 Q2015.36 1258.9 2018.28 1261.37 Q2021.2 1263.85 2021.2 1268.85 Q2021.2 1272.11 2019.67 1274.27 Q2018.16 1276.42 2015.27 1277.25 M2003.56 1262.74 L2003.56 1275.01 L2009.44 1275.01 Q2012.82 1275.01 2014.53 1273.46 Q2016.27 1271.88 2016.27 1268.85 Q2016.27 1265.82 2014.53 1264.29 Q2012.82 1262.74 2009.44 1262.74 L2003.56 1262.74 Z" fill="#000000" fill-rule="nonzero" fill-opacity="1" /><path clip-path="url(#clip140)" d="M2031.82 1258.9 L2038.79 1258.9 L2047.61 1282.41 L2056.47 1258.9 L2063.44 1258.9 L2063.44 1293.46 L2058.88 1293.46 L2058.88 1263.11 L2049.97 1286.81 L2045.27 1286.81 L2036.36 1263.11 L2036.36 1293.46 L2031.82 1293.46 L2031.82 1258.9 Z" fill="#000000" fill-rule="nonzero" fill-opacity="1" /><polyline clip-path="url(#clip140)" style="stroke:#3da44d; stroke-linecap:round; stroke-linejoin:round; stroke-width:8; stroke-opacity:1; fill:none" points="1770.99,1328.02 1916.15,1328.02 "/>
<path clip-path="url(#clip140)" d="M1962.59 1311.87 L1962.59 1316.43 Q1959.92 1315.16 1957.56 1314.53 Q1955.2 1313.91 1953 1313.91 Q1949.18 1313.91 1947.1 1315.39 Q1945.04 1316.87 1945.04 1319.6 Q1945.04 1321.89 1946.4 1323.07 Q1947.79 1324.23 1951.64 1324.95 L1954.46 1325.53 Q1959.69 1326.52 1962.17 1329.05 Q1964.67 1331.55 1964.67 1335.76 Q1964.67 1340.78 1961.29 1343.37 Q1957.93 1345.97 1951.43 1345.97 Q1948.97 1345.97 1946.2 1345.41 Q1943.44 1344.86 1940.48 1343.77 L1940.48 1338.95 Q1943.33 1340.55 1946.06 1341.36 Q1948.79 1342.17 1951.43 1342.17 Q1955.43 1342.17 1957.61 1340.6 Q1959.78 1339.02 1959.78 1336.11 Q1959.78 1333.56 1958.21 1332.13 Q1956.66 1330.69 1953.09 1329.97 L1950.25 1329.42 Q1945.02 1328.38 1942.68 1326.15 Q1940.34 1323.93 1940.34 1319.97 Q1940.34 1315.39 1943.56 1312.75 Q1946.8 1310.11 1952.47 1310.11 Q1954.9 1310.11 1957.42 1310.55 Q1959.95 1310.99 1962.59 1311.87 Z" fill="#000000" fill-rule="nonzero" fill-opacity="1" /><path clip-path="url(#clip140)" d="M1971.96 1310.74 L1978.93 1310.74 L1987.75 1334.25 L1996.61 1310.74 L2003.58 1310.74 L2003.58 1345.3 L1999.02 1345.3 L1999.02 1314.95 L1990.11 1338.65 L1985.41 1338.65 L1976.5 1314.95 L1976.5 1345.3 L1971.96 1345.3 L1971.96 1310.74 Z" fill="#000000" fill-rule="nonzero" fill-opacity="1" /><path clip-path="url(#clip140)" d="M2038.74 1313.4 L2038.74 1318.33 Q2036.38 1316.13 2033.7 1315.04 Q2031.03 1313.95 2028.02 1313.95 Q2022.1 1313.95 2018.95 1317.59 Q2015.8 1321.2 2015.8 1328.05 Q2015.8 1334.88 2018.95 1338.51 Q2022.1 1342.12 2028.02 1342.12 Q2031.03 1342.12 2033.7 1341.04 Q2036.38 1339.95 2038.74 1337.75 L2038.74 1342.63 Q2036.29 1344.3 2033.53 1345.13 Q2030.8 1345.97 2027.75 1345.97 Q2019.9 1345.97 2015.39 1341.18 Q2010.87 1336.36 2010.87 1328.05 Q2010.87 1319.72 2015.39 1314.93 Q2019.9 1310.11 2027.75 1310.11 Q2030.85 1310.11 2033.58 1310.94 Q2036.33 1311.75 2038.74 1313.4 Z" fill="#000000" fill-rule="nonzero" fill-opacity="1" /><path clip-path="url(#clip140)" d="M2043.63 1330.41 L2056.1 1330.41 L2056.1 1334.21 L2043.63 1334.21 L2043.63 1330.41 Z" fill="#000000" fill-rule="nonzero" fill-opacity="1" /><path clip-path="url(#clip140)" d="M2064.3 1341.36 L2071.94 1341.36 L2071.94 1315 L2063.63 1316.66 L2063.63 1312.4 L2071.89 1310.74 L2076.57 1310.74 L2076.57 1341.36 L2084.21 1341.36 L2084.21 1345.3 L2064.3 1345.3 L2064.3 1341.36 Z" fill="#000000" fill-rule="nonzero" fill-opacity="1" /><path clip-path="url(#clip140)" d="M2097.68 1341.36 L2114 1341.36 L2114 1345.3 L2092.05 1345.3 L2092.05 1341.36 Q2094.71 1338.61 2099.3 1333.98 Q2103.9 1329.32 2105.08 1327.98 Q2107.33 1325.46 2108.21 1323.72 Q2109.11 1321.96 2109.11 1320.27 Q2109.11 1317.52 2107.17 1315.78 Q2105.25 1314.05 2102.14 1314.05 Q2099.95 1314.05 2097.49 1314.81 Q2095.06 1315.57 2092.28 1317.13 L2092.28 1312.4 Q2095.11 1311.27 2097.56 1310.69 Q2100.02 1310.11 2102.05 1310.11 Q2107.42 1310.11 2110.62 1312.8 Q2113.81 1315.48 2113.81 1319.97 Q2113.81 1322.1 2113 1324.02 Q2112.21 1325.92 2110.11 1328.51 Q2109.53 1329.19 2106.43 1332.4 Q2103.33 1335.6 2097.68 1341.36 Z" fill="#000000" fill-rule="nonzero" fill-opacity="1" /><path clip-path="url(#clip140)" d="M2133.81 1328.88 Q2130.48 1328.88 2128.56 1330.67 Q2126.66 1332.45 2126.66 1335.57 Q2126.66 1338.7 2128.56 1340.48 Q2130.48 1342.26 2133.81 1342.26 Q2137.14 1342.26 2139.07 1340.48 Q2140.99 1338.68 2140.99 1335.57 Q2140.99 1332.45 2139.07 1330.67 Q2137.17 1328.88 2133.81 1328.88 M2129.14 1326.89 Q2126.13 1326.15 2124.44 1324.09 Q2122.77 1322.03 2122.77 1319.07 Q2122.77 1314.93 2125.71 1312.52 Q2128.67 1310.11 2133.81 1310.11 Q2138.97 1310.11 2141.91 1312.52 Q2144.85 1314.93 2144.85 1319.07 Q2144.85 1322.03 2143.16 1324.09 Q2141.5 1326.15 2138.51 1326.89 Q2141.89 1327.68 2143.76 1329.97 Q2145.66 1332.26 2145.66 1335.57 Q2145.66 1340.6 2142.58 1343.28 Q2139.53 1345.97 2133.81 1345.97 Q2128.09 1345.97 2125.02 1343.28 Q2121.96 1340.6 2121.96 1335.57 Q2121.96 1332.26 2123.86 1329.97 Q2125.76 1327.68 2129.14 1326.89 M2127.42 1319.51 Q2127.42 1322.19 2129.09 1323.7 Q2130.78 1325.2 2133.81 1325.2 Q2136.82 1325.2 2138.51 1323.7 Q2140.22 1322.19 2140.22 1319.51 Q2140.22 1316.82 2138.51 1315.32 Q2136.82 1313.81 2133.81 1313.81 Q2130.78 1313.81 2129.09 1315.32 Q2127.42 1316.82 2127.42 1319.51 Z" fill="#000000" fill-rule="nonzero" fill-opacity="1" /></svg>
