<?xml version="1.0" encoding="utf-8"?>
<svg xmlns="http://www.w3.org/2000/svg" xmlns:xlink="http://www.w3.org/1999/xlink" width="600" height="400" viewBox="0 0 2400 1600">
<defs>
  <clipPath id="clip020">
    <rect x="0" y="0" width="2400" height="1600"/>
  </clipPath>
</defs>
<path clip-path="url(#clip020)" d="M0 1600 L2400 1600 L2400 0 L0 0  Z" fill="#ffffff" fill-rule="evenodd" fill-opacity="1"/>
<defs>
  <clipPath id="clip021">
    <rect x="217" y="738" width="2137" height="661"/>
  </clipPath>
</defs>
<path clip-path="url(#clip020)" d="M247.459 1423.18 L2352.76 1423.18 L2352.76 123.472 L247.459 123.472  Z" fill="#ffffff" fill-rule="evenodd" fill-opacity="1"/>
<defs>
  <clipPath id="clip022">
    <rect x="247" y="123" width="2106" height="1301"/>
  </clipPath>
</defs>
<polyline clip-path="url(#clip022)" style="stroke:#000000; stroke-linecap:round; stroke-linejoin:round; stroke-width:2; stroke-opacity:0.1; fill:none" points="307.043,1423.18 307.043,123.472 "/>
<polyline clip-path="url(#clip022)" style="stroke:#000000; stroke-linecap:round; stroke-linejoin:round; stroke-width:2; stroke-opacity:0.1; fill:none" points="803.575,1423.18 803.575,123.472 "/>
<polyline clip-path="url(#clip022)" style="stroke:#000000; stroke-linecap:round; stroke-linejoin:round; stroke-width:2; stroke-opacity:0.1; fill:none" points="1300.11,1423.18 1300.11,123.472 "/>
<polyline clip-path="url(#clip022)" style="stroke:#000000; stroke-linecap:round; stroke-linejoin:round; stroke-width:2; stroke-opacity:0.1; fill:none" points="1796.64,1423.18 1796.64,123.472 "/>
<polyline clip-path="url(#clip022)" style="stroke:#000000; stroke-linecap:round; stroke-linejoin:round; stroke-width:2; stroke-opacity:0.1; fill:none" points="2293.17,1423.18 2293.17,123.472 "/>
<polyline clip-path="url(#clip022)" style="stroke:#000000; stroke-linecap:round; stroke-linejoin:round; stroke-width:2; stroke-opacity:0.1; fill:none" points="247.459,1386.4 2352.76,1386.4 "/>
<polyline clip-path="url(#clip022)" style="stroke:#000000; stroke-linecap:round; stroke-linejoin:round; stroke-width:2; stroke-opacity:0.1; fill:none" points="247.459,1118.72 2352.76,1118.72 "/>
<polyline clip-path="url(#clip022)" style="stroke:#000000; stroke-linecap:round; stroke-linejoin:round; stroke-width:2; stroke-opacity:0.1; fill:none" points="247.459,851.053 2352.76,851.053 "/>
<polyline clip-path="url(#clip022)" style="stroke:#000000; stroke-linecap:round; stroke-linejoin:round; stroke-width:2; stroke-opacity:0.1; fill:none" points="247.459,583.382 2352.76,583.382 "/>
<polyline clip-path="url(#clip022)" style="stroke:#000000; stroke-linecap:round; stroke-linejoin:round; stroke-width:2; stroke-opacity:0.1; fill:none" points="247.459,315.711 2352.76,315.711 "/>
<polyline clip-path="url(#clip020)" style="stroke:#000000; stroke-linecap:round; stroke-linejoin:round; stroke-width:4; stroke-opacity:1; fill:none" points="247.459,1423.18 2352.76,1423.18 "/>
<polyline clip-path="url(#clip020)" style="stroke:#000000; stroke-linecap:round; stroke-linejoin:round; stroke-width:4; stroke-opacity:1; fill:none" points="307.043,1423.18 307.043,1404.28 "/>
<polyline clip-path="url(#clip020)" style="stroke:#000000; stroke-linecap:round; stroke-linejoin:round; stroke-width:4; stroke-opacity:1; fill:none" points="803.575,1423.18 803.575,1404.28 "/>
<polyline clip-path="url(#clip020)" style="stroke:#000000; stroke-linecap:round; stroke-linejoin:round; stroke-width:4; stroke-opacity:1; fill:none" points="1300.11,1423.18 1300.11,1404.28 "/>
<polyline clip-path="url(#clip020)" style="stroke:#000000; stroke-linecap:round; stroke-linejoin:round; stroke-width:4; stroke-opacity:1; fill:none" points="1796.64,1423.18 1796.64,1404.28 "/>
<polyline clip-path="url(#clip020)" style="stroke:#000000; stroke-linecap:round; stroke-linejoin:round; stroke-width:4; stroke-opacity:1; fill:none" points="2293.17,1423.18 2293.17,1404.28 "/>
<path clip-path="url(#clip020)" d="M284.427 1454.1 Q280.816 1454.1 278.987 1457.66 Q277.182 1461.2 277.182 1468.33 Q277.182 1475.44 278.987 1479.01 Q280.816 1482.55 284.427 1482.55 Q288.061 1482.55 289.867 1479.01 Q291.695 1475.44 291.695 1468.33 Q291.695 1461.2 289.867 1457.66 Q288.061 1454.1 284.427 1454.1 M284.427 1450.39 Q290.237 1450.39 293.293 1455 Q296.371 1459.58 296.371 1468.33 Q296.371 1477.06 293.293 1481.67 Q290.237 1486.25 284.427 1486.25 Q278.617 1486.25 275.538 1481.67 Q272.483 1477.06 272.483 1468.33 Q272.483 1459.58 275.538 1455 Q278.617 1450.39 284.427 1450.39 Z" fill="#000000" fill-rule="nonzero" fill-opacity="1" /><path clip-path="url(#clip020)" d="M304.589 1479.7 L309.473 1479.7 L309.473 1485.58 L304.589 1485.58 L304.589 1479.7 Z" fill="#000000" fill-rule="nonzero" fill-opacity="1" /><path clip-path="url(#clip020)" d="M329.658 1454.1 Q326.047 1454.1 324.218 1457.66 Q322.413 1461.2 322.413 1468.33 Q322.413 1475.44 324.218 1479.01 Q326.047 1482.55 329.658 1482.55 Q333.292 1482.55 335.098 1479.01 Q336.927 1475.44 336.927 1468.33 Q336.927 1461.2 335.098 1457.66 Q333.292 1454.1 329.658 1454.1 M329.658 1450.39 Q335.468 1450.39 338.524 1455 Q341.603 1459.58 341.603 1468.33 Q341.603 1477.06 338.524 1481.67 Q335.468 1486.25 329.658 1486.25 Q323.848 1486.25 320.769 1481.67 Q317.714 1477.06 317.714 1468.33 Q317.714 1459.58 320.769 1455 Q323.848 1450.39 329.658 1450.39 Z" fill="#000000" fill-rule="nonzero" fill-opacity="1" /><path clip-path="url(#clip020)" d="M775.311 1481.64 L791.631 1481.64 L791.631 1485.58 L769.686 1485.58 L769.686 1481.64 Q772.348 1478.89 776.932 1474.26 Q781.538 1469.61 782.719 1468.27 Q784.964 1465.74 785.844 1464.01 Q786.746 1462.25 786.746 1460.56 Q786.746 1457.8 784.802 1456.07 Q782.881 1454.33 779.779 1454.33 Q777.58 1454.33 775.126 1455.09 Q772.695 1455.86 769.918 1457.41 L769.918 1452.69 Q772.742 1451.55 775.195 1450.97 Q777.649 1450.39 779.686 1450.39 Q785.057 1450.39 788.251 1453.08 Q791.445 1455.77 791.445 1460.26 Q791.445 1462.39 790.635 1464.31 Q789.848 1466.2 787.742 1468.8 Q787.163 1469.47 784.061 1472.69 Q780.959 1475.88 775.311 1481.64 Z" fill="#000000" fill-rule="nonzero" fill-opacity="1" /><path clip-path="url(#clip020)" d="M801.445 1479.7 L806.33 1479.7 L806.33 1485.58 L801.445 1485.58 L801.445 1479.7 Z" fill="#000000" fill-rule="nonzero" fill-opacity="1" /><path clip-path="url(#clip020)" d="M816.561 1451.02 L834.917 1451.02 L834.917 1454.96 L820.843 1454.96 L820.843 1463.43 Q821.862 1463.08 822.88 1462.92 Q823.899 1462.73 824.917 1462.73 Q830.704 1462.73 834.084 1465.9 Q837.464 1469.08 837.464 1474.49 Q837.464 1480.07 833.991 1483.17 Q830.519 1486.25 824.2 1486.25 Q822.024 1486.25 819.755 1485.88 Q817.51 1485.51 815.103 1484.77 L815.103 1480.07 Q817.186 1481.2 819.408 1481.76 Q821.63 1482.32 824.107 1482.32 Q828.112 1482.32 830.45 1480.21 Q832.788 1478.1 832.788 1474.49 Q832.788 1470.88 830.45 1468.77 Q828.112 1466.67 824.107 1466.67 Q822.232 1466.67 820.357 1467.08 Q818.505 1467.5 816.561 1468.38 L816.561 1451.02 Z" fill="#000000" fill-rule="nonzero" fill-opacity="1" /><path clip-path="url(#clip020)" d="M1267.27 1451.02 L1285.63 1451.02 L1285.63 1454.96 L1271.55 1454.96 L1271.55 1463.43 Q1272.57 1463.08 1273.59 1462.92 Q1274.61 1462.73 1275.63 1462.73 Q1281.42 1462.73 1284.79 1465.9 Q1288.17 1469.08 1288.17 1474.49 Q1288.17 1480.07 1284.7 1483.17 Q1281.23 1486.25 1274.91 1486.25 Q1272.73 1486.25 1270.47 1485.88 Q1268.22 1485.51 1265.81 1484.77 L1265.81 1480.07 Q1267.9 1481.2 1270.12 1481.76 Q1272.34 1482.32 1274.82 1482.32 Q1278.82 1482.32 1281.16 1480.21 Q1283.5 1478.1 1283.5 1474.49 Q1283.5 1470.88 1281.16 1468.77 Q1278.82 1466.67 1274.82 1466.67 Q1272.94 1466.67 1271.07 1467.08 Q1269.22 1467.5 1267.27 1468.38 L1267.27 1451.02 Z" fill="#000000" fill-rule="nonzero" fill-opacity="1" /><path clip-path="url(#clip020)" d="M1297.39 1479.7 L1302.27 1479.7 L1302.27 1485.58 L1297.39 1485.58 L1297.39 1479.7 Z" fill="#000000" fill-rule="nonzero" fill-opacity="1" /><path clip-path="url(#clip020)" d="M1322.46 1454.1 Q1318.85 1454.1 1317.02 1457.66 Q1315.21 1461.2 1315.21 1468.33 Q1315.21 1475.44 1317.02 1479.01 Q1318.85 1482.55 1322.46 1482.55 Q1326.09 1482.55 1327.9 1479.01 Q1329.73 1475.44 1329.73 1468.33 Q1329.73 1461.2 1327.9 1457.66 Q1326.09 1454.1 1322.46 1454.1 M1322.46 1450.39 Q1328.27 1450.39 1331.32 1455 Q1334.4 1459.58 1334.4 1468.33 Q1334.4 1477.06 1331.32 1481.67 Q1328.27 1486.25 1322.46 1486.25 Q1316.65 1486.25 1313.57 1481.67 Q1310.51 1477.06 1310.51 1468.33 Q1310.51 1459.58 1313.57 1455 Q1316.65 1450.39 1322.46 1450.39 Z" fill="#000000" fill-rule="nonzero" fill-opacity="1" /><path clip-path="url(#clip020)" d="M1762.96 1451.02 L1785.18 1451.02 L1785.18 1453.01 L1772.64 1485.58 L1767.75 1485.58 L1779.56 1454.96 L1762.96 1454.96 L1762.96 1451.02 Z" fill="#000000" fill-rule="nonzero" fill-opacity="1" /><path clip-path="url(#clip020)" d="M1794.3 1479.7 L1799.19 1479.7 L1799.19 1485.58 L1794.3 1485.58 L1794.3 1479.7 Z" fill="#000000" fill-rule="nonzero" fill-opacity="1" /><path clip-path="url(#clip020)" d="M1809.42 1451.02 L1827.77 1451.02 L1827.77 1454.96 L1813.7 1454.96 L1813.7 1463.43 Q1814.72 1463.08 1815.74 1462.92 Q1816.76 1462.73 1817.77 1462.73 Q1823.56 1462.73 1826.94 1465.9 Q1830.32 1469.08 1830.32 1474.49 Q1830.32 1480.07 1826.85 1483.17 Q1823.38 1486.25 1817.06 1486.25 Q1814.88 1486.25 1812.61 1485.88 Q1810.37 1485.51 1807.96 1484.77 L1807.96 1480.07 Q1810.04 1481.2 1812.26 1481.76 Q1814.49 1482.32 1816.96 1482.32 Q1820.97 1482.32 1823.31 1480.21 Q1825.64 1478.1 1825.64 1474.49 Q1825.64 1470.88 1823.31 1468.77 Q1820.97 1466.67 1816.96 1466.67 Q1815.09 1466.67 1813.21 1467.08 Q1811.36 1467.5 1809.42 1468.38 L1809.42 1451.02 Z" fill="#000000" fill-rule="nonzero" fill-opacity="1" /><path clip-path="url(#clip020)" d="M2245.24 1481.64 L2252.88 1481.64 L2252.88 1455.28 L2244.57 1456.95 L2244.57 1452.69 L2252.84 1451.02 L2257.51 1451.02 L2257.51 1481.64 L2265.15 1481.64 L2265.15 1485.58 L2245.24 1485.58 L2245.24 1481.64 Z" fill="#000000" fill-rule="nonzero" fill-opacity="1" /><path clip-path="url(#clip020)" d="M2284.6 1454.1 Q2280.98 1454.1 2279.16 1457.66 Q2277.35 1461.2 2277.35 1468.33 Q2277.35 1475.44 2279.16 1479.01 Q2280.98 1482.55 2284.6 1482.55 Q2288.23 1482.55 2290.04 1479.01 Q2291.86 1475.44 2291.86 1468.33 Q2291.86 1461.2 2290.04 1457.66 Q2288.23 1454.1 2284.6 1454.1 M2284.6 1450.39 Q2290.41 1450.39 2293.46 1455 Q2296.54 1459.58 2296.54 1468.33 Q2296.54 1477.06 2293.46 1481.67 Q2290.41 1486.25 2284.6 1486.25 Q2278.79 1486.25 2275.71 1481.67 Q2272.65 1477.06 2272.65 1468.33 Q2272.65 1459.58 2275.71 1455 Q2278.79 1450.39 2284.6 1450.39 Z" fill="#000000" fill-rule="nonzero" fill-opacity="1" /><path clip-path="url(#clip020)" d="M2304.76 1479.7 L2309.64 1479.7 L2309.64 1485.58 L2304.76 1485.58 L2304.76 1479.7 Z" fill="#000000" fill-rule="nonzero" fill-opacity="1" /><path clip-path="url(#clip020)" d="M2329.83 1454.1 Q2326.22 1454.1 2324.39 1457.66 Q2322.58 1461.2 2322.58 1468.33 Q2322.58 1475.44 2324.39 1479.01 Q2326.22 1482.55 2329.83 1482.55 Q2333.46 1482.55 2335.27 1479.01 Q2337.1 1475.44 2337.1 1468.33 Q2337.1 1461.2 2335.27 1457.66 Q2333.46 1454.1 2329.83 1454.1 M2329.83 1450.39 Q2335.64 1450.39 2338.69 1455 Q2341.77 1459.58 2341.77 1468.33 Q2341.77 1477.06 2338.69 1481.67 Q2335.64 1486.25 2329.83 1486.25 Q2324.02 1486.25 2320.94 1481.67 Q2317.88 1477.06 2317.88 1468.33 Q2317.88 1459.58 2320.94 1455 Q2324.02 1450.39 2329.83 1450.39 Z" fill="#000000" fill-rule="nonzero" fill-opacity="1" /><path clip-path="url(#clip020)" d="M790.055 1520.52 L830.255 1520.52 L830.255 1525.93 L813.385 1525.93 L813.385 1568.04 L806.924 1568.04 L806.924 1525.93 L790.055 1525.93 L790.055 1520.52 Z" fill="#000000" fill-rule="nonzero" fill-opacity="1" /><path clip-path="url(#clip020)" d="M847.283 1537.87 Q846.296 1537.3 845.118 1537.04 Q843.973 1536.76 842.572 1536.76 Q837.607 1536.76 834.933 1540 Q832.292 1543.22 832.292 1549.27 L832.292 1568.04 L826.403 1568.04 L826.403 1532.4 L832.292 1532.4 L832.292 1537.93 Q834.138 1534.69 837.098 1533.13 Q840.058 1531.54 844.291 1531.54 Q844.896 1531.54 845.628 1531.63 Q846.36 1531.7 847.251 1531.85 L847.283 1537.87 Z" fill="#000000" fill-rule="nonzero" fill-opacity="1" /><path clip-path="url(#clip020)" d="M869.626 1550.12 Q862.529 1550.12 859.791 1551.75 Q857.054 1553.37 857.054 1557.29 Q857.054 1560.4 859.091 1562.25 Q861.16 1564.07 864.693 1564.07 Q869.563 1564.07 872.491 1560.63 Q875.451 1557.16 875.451 1551.43 L875.451 1550.12 L869.626 1550.12 M881.307 1547.71 L881.307 1568.04 L875.451 1568.04 L875.451 1562.63 Q873.446 1565.88 870.454 1567.44 Q867.462 1568.97 863.133 1568.97 Q857.659 1568.97 854.412 1565.91 Q851.198 1562.82 851.198 1557.67 Q851.198 1551.65 855.208 1548.6 Q859.25 1545.54 867.239 1545.54 L875.451 1545.54 L875.451 1544.97 Q875.451 1540.93 872.777 1538.73 Q870.136 1536.5 865.33 1536.5 Q862.274 1536.5 859.378 1537.23 Q856.481 1537.97 853.808 1539.43 L853.808 1534.02 Q857.022 1532.78 860.046 1532.17 Q863.07 1531.54 865.934 1531.54 Q873.669 1531.54 877.488 1535.55 Q881.307 1539.56 881.307 1547.71 Z" fill="#000000" fill-rule="nonzero" fill-opacity="1" /><path clip-path="url(#clip020)" d="M893.37 1532.4 L899.227 1532.4 L899.227 1568.68 Q899.227 1575.49 896.617 1578.55 Q894.039 1581.6 888.278 1581.6 L886.05 1581.6 L886.05 1576.64 L887.61 1576.64 Q890.952 1576.64 892.161 1575.08 Q893.37 1573.55 893.37 1568.68 L893.37 1532.4 M893.37 1518.52 L899.227 1518.52 L899.227 1525.93 L893.37 1525.93 L893.37 1518.52 Z" fill="#000000" fill-rule="nonzero" fill-opacity="1" /><path clip-path="url(#clip020)" d="M941.973 1548.76 L941.973 1551.62 L915.046 1551.62 Q915.428 1557.67 918.674 1560.85 Q921.953 1564 927.777 1564 Q931.151 1564 934.302 1563.17 Q937.485 1562.35 940.604 1560.69 L940.604 1566.23 Q937.453 1567.57 934.143 1568.27 Q930.833 1568.97 927.427 1568.97 Q918.897 1568.97 913.9 1564 Q908.935 1559.04 908.935 1550.57 Q908.935 1541.82 913.645 1536.69 Q918.388 1531.54 926.409 1531.54 Q933.602 1531.54 937.771 1536.18 Q941.973 1540.8 941.973 1548.76 M936.116 1547.04 Q936.053 1542.23 933.411 1539.37 Q930.801 1536.5 926.472 1536.5 Q921.571 1536.5 918.611 1539.27 Q915.682 1542.04 915.237 1547.07 L936.116 1547.04 Z" fill="#000000" fill-rule="nonzero" fill-opacity="1" /><path clip-path="url(#clip020)" d="M977.239 1533.76 L977.239 1539.24 Q974.756 1537.87 972.242 1537.2 Q969.759 1536.5 967.213 1536.5 Q961.515 1536.5 958.364 1540.13 Q955.213 1543.73 955.213 1550.25 Q955.213 1556.78 958.364 1560.4 Q961.515 1564 967.213 1564 Q969.759 1564 972.242 1563.33 Q974.756 1562.63 977.239 1561.26 L977.239 1566.68 Q974.788 1567.82 972.146 1568.39 Q969.536 1568.97 966.576 1568.97 Q958.523 1568.97 953.781 1563.91 Q949.039 1558.85 949.039 1550.25 Q949.039 1541.53 953.813 1536.53 Q958.619 1531.54 966.958 1531.54 Q969.663 1531.54 972.242 1532.11 Q974.82 1532.65 977.239 1533.76 Z" fill="#000000" fill-rule="nonzero" fill-opacity="1" /><path clip-path="url(#clip020)" d="M993.217 1522.27 L993.217 1532.4 L1005.28 1532.4 L1005.28 1536.95 L993.217 1536.95 L993.217 1556.3 Q993.217 1560.66 994.394 1561.9 Q995.604 1563.14 999.264 1563.14 L1005.28 1563.14 L1005.28 1568.04 L999.264 1568.04 Q992.485 1568.04 989.906 1565.53 Q987.328 1562.98 987.328 1556.3 L987.328 1536.95 L983.031 1536.95 L983.031 1532.4 L987.328 1532.4 L987.328 1522.27 L993.217 1522.27 Z" fill="#000000" fill-rule="nonzero" fill-opacity="1" /><path clip-path="url(#clip020)" d="M1026.8 1536.5 Q1022.09 1536.5 1019.35 1540.19 Q1016.61 1543.85 1016.61 1550.25 Q1016.61 1556.65 1019.32 1560.34 Q1022.05 1564 1026.8 1564 Q1031.47 1564 1034.21 1560.31 Q1036.95 1556.62 1036.95 1550.25 Q1036.95 1543.92 1034.21 1540.23 Q1031.47 1536.5 1026.8 1536.5 M1026.8 1531.54 Q1034.43 1531.54 1038.8 1536.5 Q1043.16 1541.47 1043.16 1550.25 Q1043.16 1559 1038.8 1564 Q1034.43 1568.97 1026.8 1568.97 Q1019.13 1568.97 1014.76 1564 Q1010.44 1559 1010.44 1550.25 Q1010.44 1541.47 1014.76 1536.5 Q1019.13 1531.54 1026.8 1531.54 Z" fill="#000000" fill-rule="nonzero" fill-opacity="1" /><path clip-path="url(#clip020)" d="M1073.52 1537.87 Q1072.53 1537.3 1071.36 1537.04 Q1070.21 1536.76 1068.81 1536.76 Q1063.84 1536.76 1061.17 1540 Q1058.53 1543.22 1058.53 1549.27 L1058.53 1568.04 L1052.64 1568.04 L1052.64 1532.4 L1058.53 1532.4 L1058.53 1537.93 Q1060.37 1534.69 1063.33 1533.13 Q1066.29 1531.54 1070.53 1531.54 Q1071.13 1531.54 1071.86 1531.63 Q1072.6 1531.7 1073.49 1531.85 L1073.52 1537.87 Z" fill="#000000" fill-rule="nonzero" fill-opacity="1" /><path clip-path="url(#clip020)" d="M1094.49 1571.35 Q1092.01 1577.72 1089.66 1579.66 Q1087.3 1581.6 1083.35 1581.6 L1078.68 1581.6 L1078.68 1576.7 L1082.11 1576.7 Q1084.53 1576.7 1085.87 1575.56 Q1087.21 1574.41 1088.83 1570.14 L1089.88 1567.47 L1075.46 1532.4 L1081.67 1532.4 L1092.81 1560.28 L1103.95 1532.4 L1110.15 1532.4 L1094.49 1571.35 Z" fill="#000000" fill-rule="nonzero" fill-opacity="1" /><path clip-path="url(#clip020)" d="M1145.64 1525.81 L1145.64 1562.76 L1153.41 1562.76 Q1163.24 1562.76 1167.8 1558.3 Q1172.38 1553.85 1172.38 1544.24 Q1172.38 1534.69 1167.8 1530.26 Q1163.24 1525.81 1153.41 1525.81 L1145.64 1525.81 M1139.21 1520.52 L1152.42 1520.52 Q1166.24 1520.52 1172.7 1526.28 Q1179.16 1532.01 1179.16 1544.24 Q1179.16 1556.52 1172.67 1562.28 Q1166.17 1568.04 1152.42 1568.04 L1139.21 1568.04 L1139.21 1520.52 Z" fill="#000000" fill-rule="nonzero" fill-opacity="1" /><path clip-path="url(#clip020)" d="M1188.55 1553.98 L1188.55 1532.4 L1194.4 1532.4 L1194.4 1553.75 Q1194.4 1558.81 1196.38 1561.36 Q1198.35 1563.87 1202.3 1563.87 Q1207.04 1563.87 1209.78 1560.85 Q1212.55 1557.83 1212.55 1552.61 L1212.55 1532.4 L1218.4 1532.4 L1218.4 1568.04 L1212.55 1568.04 L1212.55 1562.57 Q1210.41 1565.82 1207.58 1567.41 Q1204.78 1568.97 1201.06 1568.97 Q1194.91 1568.97 1191.73 1565.15 Q1188.55 1561.33 1188.55 1553.98 M1203.28 1531.54 L1203.28 1531.54 Z" fill="#000000" fill-rule="nonzero" fill-opacity="1" /><path clip-path="url(#clip020)" d="M1251.12 1537.87 Q1250.14 1537.3 1248.96 1537.04 Q1247.81 1536.76 1246.41 1536.76 Q1241.45 1536.76 1238.77 1540 Q1236.13 1543.22 1236.13 1549.27 L1236.13 1568.04 L1230.24 1568.04 L1230.24 1532.4 L1236.13 1532.4 L1236.13 1537.93 Q1237.98 1534.69 1240.94 1533.13 Q1243.9 1531.54 1248.13 1531.54 Q1248.74 1531.54 1249.47 1531.63 Q1250.2 1531.7 1251.09 1531.85 L1251.12 1537.87 Z" fill="#000000" fill-rule="nonzero" fill-opacity="1" /><path clip-path="url(#clip020)" d="M1273.47 1550.12 Q1266.37 1550.12 1263.63 1551.75 Q1260.89 1553.37 1260.89 1557.29 Q1260.89 1560.4 1262.93 1562.25 Q1265 1564.07 1268.53 1564.07 Q1273.4 1564.07 1276.33 1560.63 Q1279.29 1557.16 1279.29 1551.43 L1279.29 1550.12 L1273.47 1550.12 M1285.15 1547.71 L1285.15 1568.04 L1279.29 1568.04 L1279.29 1562.63 Q1277.29 1565.88 1274.29 1567.44 Q1271.3 1568.97 1266.97 1568.97 Q1261.5 1568.97 1258.25 1565.91 Q1255.04 1562.82 1255.04 1557.67 Q1255.04 1551.65 1259.05 1548.6 Q1263.09 1545.54 1271.08 1545.54 L1279.29 1545.54 L1279.29 1544.97 Q1279.29 1540.93 1276.62 1538.73 Q1273.98 1536.5 1269.17 1536.5 Q1266.11 1536.5 1263.22 1537.23 Q1260.32 1537.97 1257.65 1539.43 L1257.65 1534.02 Q1260.86 1532.78 1263.89 1532.17 Q1266.91 1531.54 1269.77 1531.54 Q1277.51 1531.54 1281.33 1535.55 Q1285.15 1539.56 1285.15 1547.71 Z" fill="#000000" fill-rule="nonzero" fill-opacity="1" /><path clip-path="url(#clip020)" d="M1303 1522.27 L1303 1532.4 L1315.07 1532.4 L1315.07 1536.95 L1303 1536.95 L1303 1556.3 Q1303 1560.66 1304.18 1561.9 Q1305.39 1563.14 1309.05 1563.14 L1315.07 1563.14 L1315.07 1568.04 L1309.05 1568.04 Q1302.27 1568.04 1299.69 1565.53 Q1297.12 1562.98 1297.12 1556.3 L1297.12 1536.95 L1292.82 1536.95 L1292.82 1532.4 L1297.12 1532.4 L1297.12 1522.27 L1303 1522.27 Z" fill="#000000" fill-rule="nonzero" fill-opacity="1" /><path clip-path="url(#clip020)" d="M1322.77 1532.4 L1328.63 1532.4 L1328.63 1568.04 L1322.77 1568.04 L1322.77 1532.4 M1322.77 1518.52 L1328.63 1518.52 L1328.63 1525.93 L1322.77 1525.93 L1322.77 1518.52 Z" fill="#000000" fill-rule="nonzero" fill-opacity="1" /><path clip-path="url(#clip020)" d="M1354.69 1536.5 Q1349.98 1536.5 1347.25 1540.19 Q1344.51 1543.85 1344.51 1550.25 Q1344.51 1556.65 1347.21 1560.34 Q1349.95 1564 1354.69 1564 Q1359.37 1564 1362.11 1560.31 Q1364.85 1556.62 1364.85 1550.25 Q1364.85 1543.92 1362.11 1540.23 Q1359.37 1536.5 1354.69 1536.5 M1354.69 1531.54 Q1362.33 1531.54 1366.69 1536.5 Q1371.05 1541.47 1371.05 1550.25 Q1371.05 1559 1366.69 1564 Q1362.33 1568.97 1354.69 1568.97 Q1347.02 1568.97 1342.66 1564 Q1338.33 1559 1338.33 1550.25 Q1338.33 1541.47 1342.66 1536.5 Q1347.02 1531.54 1354.69 1531.54 Z" fill="#000000" fill-rule="nonzero" fill-opacity="1" /><path clip-path="url(#clip020)" d="M1410.39 1546.53 L1410.39 1568.04 L1404.54 1568.04 L1404.54 1546.72 Q1404.54 1541.66 1402.56 1539.14 Q1400.59 1536.63 1396.64 1536.63 Q1391.9 1536.63 1389.16 1539.65 Q1386.43 1542.68 1386.43 1547.9 L1386.43 1568.04 L1380.54 1568.04 L1380.54 1532.4 L1386.43 1532.4 L1386.43 1537.93 Q1388.53 1534.72 1391.36 1533.13 Q1394.22 1531.54 1397.95 1531.54 Q1404.09 1531.54 1407.24 1535.36 Q1410.39 1539.14 1410.39 1546.53 Z" fill="#000000" fill-rule="nonzero" fill-opacity="1" /><path clip-path="url(#clip020)" d="M1456.86 1518.58 Q1452.6 1525.9 1450.53 1533.06 Q1448.46 1540.23 1448.46 1547.58 Q1448.46 1554.93 1450.53 1562.16 Q1452.63 1569.35 1456.86 1576.64 L1451.77 1576.64 Q1447 1569.16 1444.61 1561.93 Q1442.25 1554.71 1442.25 1547.58 Q1442.25 1540.48 1444.61 1533.29 Q1446.96 1526.09 1451.77 1518.58 L1456.86 1518.58 Z" fill="#000000" fill-rule="nonzero" fill-opacity="1" /><path clip-path="url(#clip020)" d="M1474.02 1522.27 L1474.02 1532.4 L1486.08 1532.4 L1486.08 1536.95 L1474.02 1536.95 L1474.02 1556.3 Q1474.02 1560.66 1475.2 1561.9 Q1476.41 1563.14 1480.07 1563.14 L1486.08 1563.14 L1486.08 1568.04 L1480.07 1568.04 Q1473.29 1568.04 1470.71 1565.53 Q1468.13 1562.98 1468.13 1556.3 L1468.13 1536.95 L1463.83 1536.95 L1463.83 1532.4 L1468.13 1532.4 L1468.13 1522.27 L1474.02 1522.27 Z" fill="#000000" fill-rule="nonzero" fill-opacity="1" /><path clip-path="url(#clip020)" d="M1493.78 1532.4 L1499.64 1532.4 L1499.64 1568.04 L1493.78 1568.04 L1493.78 1532.4 M1493.78 1518.52 L1499.64 1518.52 L1499.64 1525.93 L1493.78 1525.93 L1493.78 1518.52 Z" fill="#000000" fill-rule="nonzero" fill-opacity="1" /><path clip-path="url(#clip020)" d="M1539.65 1539.24 Q1541.85 1535.29 1544.9 1533.41 Q1547.96 1531.54 1552.09 1531.54 Q1557.66 1531.54 1560.69 1535.45 Q1563.71 1539.33 1563.71 1546.53 L1563.71 1568.04 L1557.82 1568.04 L1557.82 1546.72 Q1557.82 1541.59 1556.01 1539.11 Q1554.19 1536.63 1550.47 1536.63 Q1545.92 1536.63 1543.28 1539.65 Q1540.64 1542.68 1540.64 1547.9 L1540.64 1568.04 L1534.75 1568.04 L1534.75 1546.72 Q1534.75 1541.56 1532.93 1539.11 Q1531.12 1536.63 1527.33 1536.63 Q1522.84 1536.63 1520.2 1539.68 Q1517.56 1542.71 1517.56 1547.9 L1517.56 1568.04 L1511.67 1568.04 L1511.67 1532.4 L1517.56 1532.4 L1517.56 1537.93 Q1519.57 1534.66 1522.37 1533.1 Q1525.17 1531.54 1529.02 1531.54 Q1532.9 1531.54 1535.61 1533.51 Q1538.34 1535.48 1539.65 1539.24 Z" fill="#000000" fill-rule="nonzero" fill-opacity="1" /><path clip-path="url(#clip020)" d="M1605.88 1548.76 L1605.88 1551.62 L1578.96 1551.62 Q1579.34 1557.67 1582.59 1560.85 Q1585.86 1564 1591.69 1564 Q1595.06 1564 1598.21 1563.17 Q1601.4 1562.35 1604.52 1560.69 L1604.52 1566.23 Q1601.36 1567.57 1598.05 1568.27 Q1594.74 1568.97 1591.34 1568.97 Q1582.81 1568.97 1577.81 1564 Q1572.85 1559.04 1572.85 1550.57 Q1572.85 1541.82 1577.56 1536.69 Q1582.3 1531.54 1590.32 1531.54 Q1597.51 1531.54 1601.68 1536.18 Q1605.88 1540.8 1605.88 1548.76 M1600.03 1547.04 Q1599.96 1542.23 1597.32 1539.37 Q1594.71 1536.5 1590.38 1536.5 Q1585.48 1536.5 1582.52 1539.27 Q1579.59 1542.04 1579.15 1547.07 L1600.03 1547.04 Z" fill="#000000" fill-rule="nonzero" fill-opacity="1" /><path clip-path="url(#clip020)" d="M1635.61 1553.98 L1635.61 1532.4 L1641.47 1532.4 L1641.47 1553.75 Q1641.47 1558.81 1643.44 1561.36 Q1645.42 1563.87 1649.36 1563.87 Q1654.1 1563.87 1656.84 1560.85 Q1659.61 1557.83 1659.61 1552.61 L1659.61 1532.4 L1665.47 1532.4 L1665.47 1568.04 L1659.61 1568.04 L1659.61 1562.57 Q1657.48 1565.82 1654.65 1567.41 Q1651.84 1568.97 1648.12 1568.97 Q1641.98 1568.97 1638.79 1565.15 Q1635.61 1561.33 1635.61 1553.98 M1650.35 1531.54 L1650.35 1531.54 Z" fill="#000000" fill-rule="nonzero" fill-opacity="1" /><path clip-path="url(#clip020)" d="M1707.16 1546.53 L1707.16 1568.04 L1701.31 1568.04 L1701.31 1546.72 Q1701.31 1541.66 1699.33 1539.14 Q1697.36 1536.63 1693.41 1536.63 Q1688.67 1536.63 1685.93 1539.65 Q1683.2 1542.68 1683.2 1547.9 L1683.2 1568.04 L1677.31 1568.04 L1677.31 1532.4 L1683.2 1532.4 L1683.2 1537.93 Q1685.3 1534.72 1688.13 1533.13 Q1690.99 1531.54 1694.72 1531.54 Q1700.86 1531.54 1704.01 1535.36 Q1707.16 1539.14 1707.16 1546.53 Z" fill="#000000" fill-rule="nonzero" fill-opacity="1" /><path clip-path="url(#clip020)" d="M1718.84 1532.4 L1724.7 1532.4 L1724.7 1568.04 L1718.84 1568.04 L1718.84 1532.4 M1718.84 1518.52 L1724.7 1518.52 L1724.7 1525.93 L1718.84 1525.93 L1718.84 1518.52 Z" fill="#000000" fill-rule="nonzero" fill-opacity="1" /><path clip-path="url(#clip020)" d="M1742.75 1522.27 L1742.75 1532.4 L1754.81 1532.4 L1754.81 1536.95 L1742.75 1536.95 L1742.75 1556.3 Q1742.75 1560.66 1743.92 1561.9 Q1745.13 1563.14 1748.79 1563.14 L1754.81 1563.14 L1754.81 1568.04 L1748.79 1568.04 Q1742.01 1568.04 1739.44 1565.53 Q1736.86 1562.98 1736.86 1556.3 L1736.86 1536.95 L1732.56 1536.95 L1732.56 1532.4 L1736.86 1532.4 L1736.86 1522.27 L1742.75 1522.27 Z" fill="#000000" fill-rule="nonzero" fill-opacity="1" /><path clip-path="url(#clip020)" d="M1785.24 1533.45 L1785.24 1538.98 Q1782.76 1537.71 1780.08 1537.07 Q1777.41 1536.44 1774.54 1536.44 Q1770.18 1536.44 1767.99 1537.77 Q1765.82 1539.11 1765.82 1541.79 Q1765.82 1543.82 1767.38 1545 Q1768.94 1546.15 1773.65 1547.2 L1775.66 1547.64 Q1781.9 1548.98 1784.51 1551.43 Q1787.15 1553.85 1787.15 1558.21 Q1787.15 1563.17 1783.2 1566.07 Q1779.29 1568.97 1772.41 1568.97 Q1769.55 1568.97 1766.43 1568.39 Q1763.34 1567.85 1759.9 1566.74 L1759.9 1560.69 Q1763.15 1562.38 1766.3 1563.24 Q1769.45 1564.07 1772.54 1564.07 Q1776.68 1564.07 1778.9 1562.66 Q1781.13 1561.23 1781.13 1558.65 Q1781.13 1556.27 1779.51 1554.99 Q1777.92 1553.72 1772.47 1552.54 L1770.44 1552.07 Q1764.99 1550.92 1762.58 1548.56 Q1760.16 1546.18 1760.16 1542.04 Q1760.16 1537.01 1763.72 1534.27 Q1767.29 1531.54 1773.84 1531.54 Q1777.09 1531.54 1779.95 1532.01 Q1782.82 1532.49 1785.24 1533.45 Z" fill="#000000" fill-rule="nonzero" fill-opacity="1" /><path clip-path="url(#clip020)" d="M1795.55 1518.58 L1800.64 1518.58 Q1805.42 1526.09 1807.77 1533.29 Q1810.16 1540.48 1810.16 1547.58 Q1810.16 1554.71 1807.77 1561.93 Q1805.42 1569.16 1800.64 1576.64 L1795.55 1576.64 Q1799.78 1569.35 1801.85 1562.16 Q1803.95 1554.93 1803.95 1547.58 Q1803.95 1540.23 1801.85 1533.06 Q1799.78 1525.9 1795.55 1518.58 Z" fill="#000000" fill-rule="nonzero" fill-opacity="1" /><polyline clip-path="url(#clip020)" style="stroke:#000000; stroke-linecap:round; stroke-linejoin:round; stroke-width:4; stroke-opacity:1; fill:none" points="247.459,1423.18 247.459,123.472 "/>
<polyline clip-path="url(#clip020)" style="stroke:#000000; stroke-linecap:round; stroke-linejoin:round; stroke-width:4; stroke-opacity:1; fill:none" points="247.459,1386.4 266.356,1386.4 "/>
<polyline clip-path="url(#clip020)" style="stroke:#000000; stroke-linecap:round; stroke-linejoin:round; stroke-width:4; stroke-opacity:1; fill:none" points="247.459,1118.72 266.356,1118.72 "/>
<polyline clip-path="url(#clip020)" style="stroke:#000000; stroke-linecap:round; stroke-linejoin:round; stroke-width:4; stroke-opacity:1; fill:none" points="247.459,851.053 266.356,851.053 "/>
<polyline clip-path="url(#clip020)" style="stroke:#000000; stroke-linecap:round; stroke-linejoin:round; stroke-width:4; stroke-opacity:1; fill:none" points="247.459,583.382 266.356,583.382 "/>
<polyline clip-path="url(#clip020)" style="stroke:#000000; stroke-linecap:round; stroke-linejoin:round; stroke-width:4; stroke-opacity:1; fill:none" points="247.459,315.711 266.356,315.711 "/>
<path clip-path="url(#clip020)" d="M154.283 1372.19 Q150.672 1372.19 148.843 1375.76 Q147.038 1379.3 147.038 1386.43 Q147.038 1393.54 148.843 1397.1 Q150.672 1400.64 154.283 1400.64 Q157.917 1400.64 159.723 1397.1 Q161.552 1393.54 161.552 1386.43 Q161.552 1379.3 159.723 1375.76 Q157.917 1372.19 154.283 1372.19 M154.283 1368.49 Q160.093 1368.49 163.149 1373.1 Q166.227 1377.68 166.227 1386.43 Q166.227 1395.16 163.149 1399.76 Q160.093 1404.35 154.283 1404.35 Q148.473 1404.35 145.394 1399.76 Q142.339 1395.16 142.339 1386.43 Q142.339 1377.68 145.394 1373.1 Q148.473 1368.49 154.283 1368.49 Z" fill="#000000" fill-rule="nonzero" fill-opacity="1" /><path clip-path="url(#clip020)" d="M174.445 1397.8 L179.329 1397.8 L179.329 1403.68 L174.445 1403.68 L174.445 1397.8 Z" fill="#000000" fill-rule="nonzero" fill-opacity="1" /><path clip-path="url(#clip020)" d="M199.514 1372.19 Q195.903 1372.19 194.075 1375.76 Q192.269 1379.3 192.269 1386.43 Q192.269 1393.54 194.075 1397.1 Q195.903 1400.64 199.514 1400.64 Q203.149 1400.64 204.954 1397.1 Q206.783 1393.54 206.783 1386.43 Q206.783 1379.3 204.954 1375.76 Q203.149 1372.19 199.514 1372.19 M199.514 1368.49 Q205.324 1368.49 208.38 1373.1 Q211.459 1377.68 211.459 1386.43 Q211.459 1395.16 208.38 1399.76 Q205.324 1404.35 199.514 1404.35 Q193.704 1404.35 190.625 1399.76 Q187.57 1395.16 187.57 1386.43 Q187.57 1377.68 190.625 1373.1 Q193.704 1368.49 199.514 1368.49 Z" fill="#000000" fill-rule="nonzero" fill-opacity="1" /><path clip-path="url(#clip020)" d="M149.306 1132.07 L165.626 1132.07 L165.626 1136 L143.681 1136 L143.681 1132.07 Q146.343 1129.31 150.927 1124.69 Q155.533 1120.03 156.714 1118.69 Q158.959 1116.17 159.839 1114.43 Q160.741 1112.67 160.741 1110.98 Q160.741 1108.23 158.797 1106.49 Q156.876 1104.75 153.774 1104.75 Q151.575 1104.75 149.121 1105.52 Q146.691 1106.28 143.913 1107.83 L143.913 1103.11 Q146.737 1101.98 149.191 1101.4 Q151.644 1100.82 153.681 1100.82 Q159.052 1100.82 162.246 1103.5 Q165.44 1106.19 165.44 1110.68 Q165.44 1112.81 164.63 1114.73 Q163.843 1116.63 161.737 1119.22 Q161.158 1119.89 158.056 1123.11 Q154.954 1126.31 149.306 1132.07 Z" fill="#000000" fill-rule="nonzero" fill-opacity="1" /><path clip-path="url(#clip020)" d="M175.44 1130.12 L180.325 1130.12 L180.325 1136 L175.44 1136 L175.44 1130.12 Z" fill="#000000" fill-rule="nonzero" fill-opacity="1" /><path clip-path="url(#clip020)" d="M190.556 1101.44 L208.912 1101.44 L208.912 1105.38 L194.838 1105.38 L194.838 1113.85 Q195.857 1113.5 196.875 1113.34 Q197.894 1113.16 198.912 1113.16 Q204.699 1113.16 208.079 1116.33 Q211.459 1119.5 211.459 1124.92 Q211.459 1130.5 207.987 1133.6 Q204.514 1136.68 198.195 1136.68 Q196.019 1136.68 193.75 1136.31 Q191.505 1135.93 189.098 1135.19 L189.098 1130.5 Q191.181 1131.63 193.403 1132.18 Q195.625 1132.74 198.102 1132.74 Q202.107 1132.74 204.445 1130.63 Q206.783 1128.53 206.783 1124.92 Q206.783 1121.31 204.445 1119.2 Q202.107 1117.09 198.102 1117.09 Q196.227 1117.09 194.352 1117.51 Q192.5 1117.93 190.556 1118.81 L190.556 1101.44 Z" fill="#000000" fill-rule="nonzero" fill-opacity="1" /><path clip-path="url(#clip020)" d="M144.329 833.773 L162.686 833.773 L162.686 837.708 L148.612 837.708 L148.612 846.18 Q149.63 845.833 150.649 845.671 Q151.667 845.486 152.686 845.486 Q158.473 845.486 161.852 848.657 Q165.232 851.829 165.232 857.245 Q165.232 862.824 161.76 865.926 Q158.288 869.004 151.968 869.004 Q149.792 869.004 147.524 868.634 Q145.279 868.264 142.871 867.523 L142.871 862.824 Q144.954 863.958 147.177 864.514 Q149.399 865.069 151.876 865.069 Q155.88 865.069 158.218 862.963 Q160.556 860.856 160.556 857.245 Q160.556 853.634 158.218 851.528 Q155.88 849.421 151.876 849.421 Q150.001 849.421 148.126 849.838 Q146.274 850.255 144.329 851.134 L144.329 833.773 Z" fill="#000000" fill-rule="nonzero" fill-opacity="1" /><path clip-path="url(#clip020)" d="M174.445 862.454 L179.329 862.454 L179.329 868.333 L174.445 868.333 L174.445 862.454 Z" fill="#000000" fill-rule="nonzero" fill-opacity="1" /><path clip-path="url(#clip020)" d="M199.514 836.852 Q195.903 836.852 194.075 840.417 Q192.269 843.958 192.269 851.088 Q192.269 858.194 194.075 861.759 Q195.903 865.301 199.514 865.301 Q203.149 865.301 204.954 861.759 Q206.783 858.194 206.783 851.088 Q206.783 843.958 204.954 840.417 Q203.149 836.852 199.514 836.852 M199.514 833.148 Q205.324 833.148 208.38 837.755 Q211.459 842.338 211.459 851.088 Q211.459 859.815 208.38 864.421 Q205.324 869.004 199.514 869.004 Q193.704 869.004 190.625 864.421 Q187.57 859.815 187.57 851.088 Q187.57 842.338 190.625 837.755 Q193.704 833.148 199.514 833.148 Z" fill="#000000" fill-rule="nonzero" fill-opacity="1" /><path clip-path="url(#clip020)" d="M144.098 566.102 L166.32 566.102 L166.32 568.093 L153.774 600.662 L148.89 600.662 L160.695 570.037 L144.098 570.037 L144.098 566.102 Z" fill="#000000" fill-rule="nonzero" fill-opacity="1" /><path clip-path="url(#clip020)" d="M175.44 594.782 L180.325 594.782 L180.325 600.662 L175.44 600.662 L175.44 594.782 Z" fill="#000000" fill-rule="nonzero" fill-opacity="1" /><path clip-path="url(#clip020)" d="M190.556 566.102 L208.912 566.102 L208.912 570.037 L194.838 570.037 L194.838 578.509 Q195.857 578.162 196.875 578 Q197.894 577.815 198.912 577.815 Q204.699 577.815 208.079 580.986 Q211.459 584.157 211.459 589.574 Q211.459 595.153 207.987 598.254 Q204.514 601.333 198.195 601.333 Q196.019 601.333 193.75 600.963 Q191.505 600.592 189.098 599.852 L189.098 595.153 Q191.181 596.287 193.403 596.842 Q195.625 597.398 198.102 597.398 Q202.107 597.398 204.445 595.292 Q206.783 593.185 206.783 589.574 Q206.783 585.963 204.445 583.856 Q202.107 581.75 198.102 581.75 Q196.227 581.75 194.352 582.167 Q192.5 582.583 190.556 583.463 L190.556 566.102 Z" fill="#000000" fill-rule="nonzero" fill-opacity="1" /><path clip-path="url(#clip020)" d="M114.931 329.055 L122.57 329.055 L122.57 302.69 L114.26 304.356 L114.26 300.097 L122.524 298.431 L127.2 298.431 L127.2 329.055 L134.839 329.055 L134.839 332.991 L114.931 332.991 L114.931 329.055 Z" fill="#000000" fill-rule="nonzero" fill-opacity="1" /><path clip-path="url(#clip020)" d="M154.283 301.509 Q150.672 301.509 148.843 305.074 Q147.038 308.616 147.038 315.745 Q147.038 322.852 148.843 326.417 Q150.672 329.958 154.283 329.958 Q157.917 329.958 159.723 326.417 Q161.552 322.852 161.552 315.745 Q161.552 308.616 159.723 305.074 Q157.917 301.509 154.283 301.509 M154.283 297.806 Q160.093 297.806 163.149 302.412 Q166.227 306.995 166.227 315.745 Q166.227 324.472 163.149 329.079 Q160.093 333.662 154.283 333.662 Q148.473 333.662 145.394 329.079 Q142.339 324.472 142.339 315.745 Q142.339 306.995 145.394 302.412 Q148.473 297.806 154.283 297.806 Z" fill="#000000" fill-rule="nonzero" fill-opacity="1" /><path clip-path="url(#clip020)" d="M174.445 327.111 L179.329 327.111 L179.329 332.991 L174.445 332.991 L174.445 327.111 Z" fill="#000000" fill-rule="nonzero" fill-opacity="1" /><path clip-path="url(#clip020)" d="M199.514 301.509 Q195.903 301.509 194.075 305.074 Q192.269 308.616 192.269 315.745 Q192.269 322.852 194.075 326.417 Q195.903 329.958 199.514 329.958 Q203.149 329.958 204.954 326.417 Q206.783 322.852 206.783 315.745 Q206.783 308.616 204.954 305.074 Q203.149 301.509 199.514 301.509 M199.514 297.806 Q205.324 297.806 208.38 302.412 Q211.459 306.995 211.459 315.745 Q211.459 324.472 208.38 329.079 Q205.324 333.662 199.514 333.662 Q193.704 333.662 190.625 329.079 Q187.57 324.472 187.57 315.745 Q187.57 306.995 190.625 302.412 Q193.704 297.806 199.514 297.806 Z" fill="#000000" fill-rule="nonzero" fill-opacity="1" /><path clip-path="url(#clip020)" d="M16.4842 1183.77 L16.4842 1174.19 L48.8219 1162.06 L16.4842 1149.87 L16.4842 1140.29 L64.0042 1140.29 L64.0042 1146.56 L22.277 1146.56 L54.8694 1158.82 L54.8694 1165.28 L22.277 1177.53 L64.0042 1177.53 L64.0042 1183.77 L16.4842 1183.77 Z" fill="#000000" fill-rule="nonzero" fill-opacity="1" /><path clip-path="url(#clip020)" d="M49.9359 1128.39 L28.3562 1128.39 L28.3562 1122.53 L49.7131 1122.53 Q54.7739 1122.53 57.3202 1120.56 Q59.8346 1118.59 59.8346 1114.64 Q59.8346 1109.9 56.8109 1107.16 Q53.7872 1104.39 48.5673 1104.39 L28.3562 1104.39 L28.3562 1098.53 L64.0042 1098.53 L64.0042 1104.39 L58.5296 1104.39 Q61.7762 1106.52 63.3676 1109.36 Q64.9272 1112.16 64.9272 1115.88 Q64.9272 1122.02 61.1078 1125.21 Q57.2883 1128.39 49.9359 1128.39 M27.4968 1113.65 L27.4968 1113.65 Z" fill="#000000" fill-rule="nonzero" fill-opacity="1" /><path clip-path="url(#clip020)" d="M18.2347 1080.68 L28.3562 1080.68 L28.3562 1068.62 L32.9077 1068.62 L32.9077 1080.68 L52.2594 1080.68 Q56.6199 1080.68 57.8613 1079.5 Q59.1026 1078.29 59.1026 1074.63 L59.1026 1068.62 L64.0042 1068.62 L64.0042 1074.63 Q64.0042 1081.41 61.4897 1083.99 Q58.9434 1086.57 52.2594 1086.57 L32.9077 1086.57 L32.9077 1090.86 L28.3562 1090.86 L28.3562 1086.57 L18.2347 1086.57 L18.2347 1080.68 Z" fill="#000000" fill-rule="nonzero" fill-opacity="1" /><path clip-path="url(#clip020)" d="M49.9359 1061.52 L28.3562 1061.52 L28.3562 1055.66 L49.7131 1055.66 Q54.7739 1055.66 57.3202 1053.69 Q59.8346 1051.71 59.8346 1047.77 Q59.8346 1043.03 56.8109 1040.29 Q53.7872 1037.52 48.5673 1037.52 L28.3562 1037.52 L28.3562 1031.66 L64.0042 1031.66 L64.0042 1037.52 L58.5296 1037.52 Q61.7762 1039.65 63.3676 1042.48 Q64.9272 1045.28 64.9272 1049.01 Q64.9272 1055.15 61.1078 1058.33 Q57.2883 1061.52 49.9359 1061.52 M27.4968 1046.78 L27.4968 1046.78 Z" fill="#000000" fill-rule="nonzero" fill-opacity="1" /><path clip-path="url(#clip020)" d="M46.0847 1003.4 Q46.0847 1010.5 47.7079 1013.23 Q49.3312 1015.97 53.2461 1015.97 Q56.3653 1015.97 58.2114 1013.93 Q60.0256 1011.86 60.0256 1008.33 Q60.0256 1003.46 56.5881 1000.53 Q53.1188 997.574 47.3897 997.574 L46.0847 997.574 L46.0847 1003.4 M43.6657 991.717 L64.0042 991.717 L64.0042 997.574 L58.5933 997.574 Q61.8398 999.579 63.3994 1002.57 Q64.9272 1005.56 64.9272 1009.89 Q64.9272 1015.37 61.8716 1018.61 Q58.7843 1021.83 53.6281 1021.83 Q47.6125 1021.83 44.5569 1017.82 Q41.5014 1013.77 41.5014 1005.79 L41.5014 997.574 L40.9285 997.574 Q36.8862 997.574 34.6901 1000.25 Q32.4621 1002.89 32.4621 1007.7 Q32.4621 1010.75 33.1941 1013.65 Q33.9262 1016.54 35.3903 1019.22 L29.9795 1019.22 Q28.7381 1016 28.1334 1012.98 Q27.4968 1009.96 27.4968 1007.09 Q27.4968 999.356 31.5072 995.537 Q35.5176 991.717 43.6657 991.717 Z" fill="#000000" fill-rule="nonzero" fill-opacity="1" /><path clip-path="url(#clip020)" d="M14.479 979.654 L14.479 973.798 L64.0042 973.798 L64.0042 979.654 L14.479 979.654 Z" fill="#000000" fill-rule="nonzero" fill-opacity="1" /><path clip-path="url(#clip020)" d="M16.4842 940.569 L16.4842 934.14 L64.0042 934.14 L64.0042 940.569 L16.4842 940.569 Z" fill="#000000" fill-rule="nonzero" fill-opacity="1" /><path clip-path="url(#clip020)" d="M42.4881 891.967 L64.0042 891.967 L64.0042 897.823 L42.679 897.823 Q37.6183 897.823 35.1038 899.797 Q32.5894 901.77 32.5894 905.717 Q32.5894 910.459 35.6131 913.196 Q38.6368 915.934 43.8567 915.934 L64.0042 915.934 L64.0042 921.822 L28.3562 921.822 L28.3562 915.934 L33.8944 915.934 Q30.6797 913.833 29.0883 911 Q27.4968 908.136 27.4968 904.412 Q27.4968 898.269 31.3163 895.118 Q35.1038 891.967 42.4881 891.967 Z" fill="#000000" fill-rule="nonzero" fill-opacity="1" /><path clip-path="url(#clip020)" d="M14.479 862.239 L19.3487 862.239 L19.3487 867.841 Q19.3487 870.992 20.6219 872.233 Q21.895 873.443 25.2052 873.443 L28.3562 873.443 L28.3562 863.799 L32.9077 863.799 L32.9077 873.443 L64.0042 873.443 L64.0042 879.331 L32.9077 879.331 L32.9077 884.933 L28.3562 884.933 L28.3562 879.331 L25.8736 879.331 Q19.9216 879.331 17.2162 876.562 Q14.479 873.793 14.479 867.777 L14.479 862.239 Z" fill="#000000" fill-rule="nonzero" fill-opacity="1" /><path clip-path="url(#clip020)" d="M32.4621 843.524 Q32.4621 848.234 36.1542 850.972 Q39.8145 853.709 46.212 853.709 Q52.6095 853.709 56.3017 851.004 Q59.9619 848.266 59.9619 843.524 Q59.9619 838.845 56.2698 836.108 Q52.5777 833.371 46.212 833.371 Q39.8781 833.371 36.186 836.108 Q32.4621 838.845 32.4621 843.524 M27.4968 843.524 Q27.4968 835.885 32.4621 831.524 Q37.4273 827.164 46.212 827.164 Q54.9649 827.164 59.9619 831.524 Q64.9272 835.885 64.9272 843.524 Q64.9272 851.194 59.9619 855.555 Q54.9649 859.884 46.212 859.884 Q37.4273 859.884 32.4621 855.555 Q27.4968 851.194 27.4968 843.524 Z" fill="#000000" fill-rule="nonzero" fill-opacity="1" /><path clip-path="url(#clip020)" d="M33.8307 796.8 Q33.2578 797.786 33.0032 798.964 Q32.7167 800.11 32.7167 801.51 Q32.7167 806.475 35.9632 809.149 Q39.1779 811.791 45.2253 811.791 L64.0042 811.791 L64.0042 817.679 L28.3562 817.679 L28.3562 811.791 L33.8944 811.791 Q30.6479 809.945 29.0883 806.985 Q27.4968 804.025 27.4968 799.791 Q27.4968 799.187 27.5923 798.455 Q27.656 797.723 27.8151 796.831 L33.8307 796.8 Z" fill="#000000" fill-rule="nonzero" fill-opacity="1" /><path clip-path="url(#clip020)" d="M35.1993 764.048 Q31.2526 761.852 29.3747 758.796 Q27.4968 755.741 27.4968 751.603 Q27.4968 746.033 31.4117 743.009 Q35.2948 739.986 42.4881 739.986 L64.0042 739.986 L64.0042 745.874 L42.679 745.874 Q37.5546 745.874 35.072 747.688 Q32.5894 749.502 32.5894 753.226 Q32.5894 757.778 35.6131 760.42 Q38.6368 763.061 43.8567 763.061 L64.0042 763.061 L64.0042 768.95 L42.679 768.95 Q37.5228 768.95 35.072 770.764 Q32.5894 772.578 32.5894 776.366 Q32.5894 780.853 35.6449 783.495 Q38.6686 786.137 43.8567 786.137 L64.0042 786.137 L64.0042 792.025 L28.3562 792.025 L28.3562 786.137 L33.8944 786.137 Q30.616 784.132 29.0564 781.331 Q27.4968 778.53 27.4968 774.679 Q27.4968 770.796 29.4702 768.09 Q31.4436 765.353 35.1993 764.048 Z" fill="#000000" fill-rule="nonzero" fill-opacity="1" /><path clip-path="url(#clip020)" d="M46.0847 712.104 Q46.0847 719.202 47.7079 721.939 Q49.3312 724.676 53.2461 724.676 Q56.3653 724.676 58.2114 722.639 Q60.0256 720.57 60.0256 717.037 Q60.0256 712.167 56.5881 709.239 Q53.1188 706.279 47.3897 706.279 L46.0847 706.279 L46.0847 712.104 M43.6657 700.423 L64.0042 700.423 L64.0042 706.279 L58.5933 706.279 Q61.8398 708.284 63.3994 711.276 Q64.9272 714.268 64.9272 718.597 Q64.9272 724.071 61.8716 727.318 Q58.7843 730.533 53.6281 730.533 Q47.6125 730.533 44.5569 726.522 Q41.5014 722.48 41.5014 714.491 L41.5014 706.279 L40.9285 706.279 Q36.8862 706.279 34.6901 708.953 Q32.4621 711.595 32.4621 716.401 Q32.4621 719.456 33.1941 722.353 Q33.9262 725.249 35.3903 727.923 L29.9795 727.923 Q28.7381 724.708 28.1334 721.684 Q27.4968 718.66 27.4968 715.796 Q27.4968 708.062 31.5072 704.242 Q35.5176 700.423 43.6657 700.423 Z" fill="#000000" fill-rule="nonzero" fill-opacity="1" /><path clip-path="url(#clip020)" d="M18.2347 682.567 L28.3562 682.567 L28.3562 670.504 L32.9077 670.504 L32.9077 682.567 L52.2594 682.567 Q56.6199 682.567 57.8613 681.389 Q59.1026 680.18 59.1026 676.52 L59.1026 670.504 L64.0042 670.504 L64.0042 676.52 Q64.0042 683.299 61.4897 685.877 Q58.9434 688.455 52.2594 688.455 L32.9077 688.455 L32.9077 692.752 L28.3562 692.752 L28.3562 688.455 L18.2347 688.455 L18.2347 682.567 Z" fill="#000000" fill-rule="nonzero" fill-opacity="1" /><path clip-path="url(#clip020)" d="M28.3562 662.801 L28.3562 656.945 L64.0042 656.945 L64.0042 662.801 L28.3562 662.801 M14.479 662.801 L14.479 656.945 L21.895 656.945 L21.895 662.801 L14.479 662.801 Z" fill="#000000" fill-rule="nonzero" fill-opacity="1" /><path clip-path="url(#clip020)" d="M32.4621 630.877 Q32.4621 635.588 36.1542 638.325 Q39.8145 641.063 46.212 641.063 Q52.6095 641.063 56.3017 638.357 Q59.9619 635.62 59.9619 630.877 Q59.9619 626.199 56.2698 623.461 Q52.5777 620.724 46.212 620.724 Q39.8781 620.724 36.186 623.461 Q32.4621 626.199 32.4621 630.877 M27.4968 630.877 Q27.4968 623.239 32.4621 618.878 Q37.4273 614.518 46.212 614.518 Q54.9649 614.518 59.9619 618.878 Q64.9272 623.239 64.9272 630.877 Q64.9272 638.548 59.9619 642.909 Q54.9649 647.237 46.212 647.237 Q37.4273 647.237 32.4621 642.909 Q27.4968 638.548 27.4968 630.877 Z" fill="#000000" fill-rule="nonzero" fill-opacity="1" /><path clip-path="url(#clip020)" d="M42.4881 575.177 L64.0042 575.177 L64.0042 581.034 L42.679 581.034 Q37.6183 581.034 35.1038 583.007 Q32.5894 584.981 32.5894 588.927 Q32.5894 593.67 35.6131 596.407 Q38.6368 599.144 43.8567 599.144 L64.0042 599.144 L64.0042 605.033 L28.3562 605.033 L28.3562 599.144 L33.8944 599.144 Q30.6797 597.044 29.0883 594.211 Q27.4968 591.346 27.4968 587.622 Q27.4968 581.48 31.3163 578.328 Q35.1038 575.177 42.4881 575.177 Z" fill="#000000" fill-rule="nonzero" fill-opacity="1" /><path clip-path="url(#clip020)" d="M14.5426 528.708 Q21.8632 532.973 29.0246 535.042 Q36.186 537.111 43.5384 537.111 Q50.8908 537.111 58.1159 535.042 Q65.3091 532.941 72.5979 528.708 L72.5979 533.8 Q65.1182 538.575 57.8931 540.962 Q50.668 543.317 43.5384 543.317 Q36.4406 543.317 29.2474 540.962 Q22.0542 538.606 14.5426 533.8 L14.5426 528.708 Z" fill="#000000" fill-rule="nonzero" fill-opacity="1" /><path clip-path="url(#clip020)" d="M42.4881 487.713 L64.0042 487.713 L64.0042 493.569 L42.679 493.569 Q37.6183 493.569 35.1038 495.542 Q32.5894 497.516 32.5894 501.463 Q32.5894 506.205 35.6131 508.942 Q38.6368 511.68 43.8567 511.68 L64.0042 511.68 L64.0042 517.568 L28.3562 517.568 L28.3562 511.68 L33.8944 511.68 Q30.6797 509.579 29.0883 506.746 Q27.4968 503.882 27.4968 500.158 Q27.4968 494.015 31.3163 490.864 Q35.1038 487.713 42.4881 487.713 Z" fill="#000000" fill-rule="nonzero" fill-opacity="1" /><path clip-path="url(#clip020)" d="M46.0847 459.831 Q46.0847 466.929 47.7079 469.666 Q49.3312 472.403 53.2461 472.403 Q56.3653 472.403 58.2114 470.366 Q60.0256 468.297 60.0256 464.764 Q60.0256 459.895 56.5881 456.966 Q53.1188 454.006 47.3897 454.006 L46.0847 454.006 L46.0847 459.831 M43.6657 448.15 L64.0042 448.15 L64.0042 454.006 L58.5933 454.006 Q61.8398 456.011 63.3994 459.003 Q64.9272 461.995 64.9272 466.324 Q64.9272 471.798 61.8716 475.045 Q58.7843 478.26 53.6281 478.26 Q47.6125 478.26 44.5569 474.249 Q41.5014 470.207 41.5014 462.218 L41.5014 454.006 L40.9285 454.006 Q36.8862 454.006 34.6901 456.68 Q32.4621 459.322 32.4621 464.128 Q32.4621 467.183 33.1941 470.08 Q33.9262 472.976 35.3903 475.65 L29.9795 475.65 Q28.7381 472.435 28.1334 469.411 Q27.4968 466.388 27.4968 463.523 Q27.4968 455.789 31.5072 451.969 Q35.5176 448.15 43.6657 448.15 Z" fill="#000000" fill-rule="nonzero" fill-opacity="1" /><path clip-path="url(#clip020)" d="M18.2347 430.294 L28.3562 430.294 L28.3562 418.231 L32.9077 418.231 L32.9077 430.294 L52.2594 430.294 Q56.6199 430.294 57.8613 429.116 Q59.1026 427.907 59.1026 424.247 L59.1026 418.231 L64.0042 418.231 L64.0042 424.247 Q64.0042 431.026 61.4897 433.604 Q58.9434 436.182 52.2594 436.182 L32.9077 436.182 L32.9077 440.479 L28.3562 440.479 L28.3562 436.182 L18.2347 436.182 L18.2347 430.294 Z" fill="#000000" fill-rule="nonzero" fill-opacity="1" /><path clip-path="url(#clip020)" d="M29.4065 387.803 L34.9447 387.803 Q33.6716 390.286 33.035 392.959 Q32.3984 395.633 32.3984 398.497 Q32.3984 402.858 33.7352 405.054 Q35.072 407.218 37.7456 407.218 Q39.7826 407.218 40.9603 405.659 Q42.1061 404.099 43.1565 399.388 L43.6021 397.383 Q44.9389 391.145 47.3897 388.535 Q49.8086 385.893 54.1691 385.893 Q59.1344 385.893 62.0308 389.84 Q64.9272 393.755 64.9272 400.63 Q64.9272 403.494 64.3543 406.614 Q63.8132 409.701 62.6992 413.138 L56.6518 413.138 Q58.3387 409.892 59.198 406.741 Q60.0256 403.59 60.0256 400.502 Q60.0256 396.365 58.6251 394.137 Q57.1929 391.909 54.6147 391.909 Q52.2276 391.909 50.9545 393.532 Q49.6813 395.123 48.5037 400.566 L48.0262 402.603 Q46.8804 408.046 44.5251 410.465 Q42.138 412.884 38.0002 412.884 Q32.9713 412.884 30.2341 409.319 Q27.4968 405.754 27.4968 399.197 Q27.4968 395.951 27.9743 393.086 Q28.4517 390.222 29.4065 387.803 Z" fill="#000000" fill-rule="nonzero" fill-opacity="1" /><path clip-path="url(#clip020)" d="M14.5426 377.49 L14.5426 372.398 Q22.0542 367.624 29.2474 365.268 Q36.4406 362.881 43.5384 362.881 Q50.668 362.881 57.8931 365.268 Q65.1182 367.624 72.5979 372.398 L72.5979 377.49 Q65.3091 373.257 58.1159 371.188 Q50.8908 369.088 43.5384 369.088 Q36.186 369.088 29.0246 371.188 Q21.8632 373.257 14.5426 377.49 Z" fill="#000000" fill-rule="nonzero" fill-opacity="1" /><path clip-path="url(#clip020)" d="M384.724 12.096 L392.907 12.096 L392.907 72.576 L384.724 72.576 L384.724 12.096 Z" fill="#000000" fill-rule="nonzero" fill-opacity="1" /><path clip-path="url(#clip020)" d="M446.582 45.1919 L446.582 72.576 L439.128 72.576 L439.128 45.4349 Q439.128 38.994 436.617 35.7938 Q434.105 32.5936 429.082 32.5936 Q423.046 32.5936 419.562 36.4419 Q416.078 40.2903 416.078 46.9338 L416.078 72.576 L408.584 72.576 L408.584 27.2059 L416.078 27.2059 L416.078 34.2544 Q418.752 30.163 422.357 28.1376 Q426.003 26.1121 430.743 26.1121 Q438.561 26.1121 442.571 30.9732 Q446.582 35.7938 446.582 45.1919 Z" fill="#000000" fill-rule="nonzero" fill-opacity="1" /><path clip-path="url(#clip020)" d="M484.417 9.54393 L484.417 15.7418 L477.288 15.7418 Q473.277 15.7418 471.697 17.3622 Q470.158 18.9825 470.158 23.1955 L470.158 27.2059 L482.432 27.2059 L482.432 32.9987 L470.158 32.9987 L470.158 72.576 L462.664 72.576 L462.664 32.9987 L455.534 32.9987 L455.534 27.2059 L462.664 27.2059 L462.664 24.0462 Q462.664 16.471 466.188 13.0277 Q469.712 9.54393 477.369 9.54393 L484.417 9.54393 Z" fill="#000000" fill-rule="nonzero" fill-opacity="1" /><path clip-path="url(#clip020)" d="M508.237 32.4315 Q502.241 32.4315 498.757 37.1306 Q495.274 41.7891 495.274 49.9314 Q495.274 58.0738 498.717 62.7728 Q502.201 67.4314 508.237 67.4314 Q514.191 67.4314 517.675 62.7323 Q521.159 58.0333 521.159 49.9314 Q521.159 41.8701 517.675 37.1711 Q514.191 32.4315 508.237 32.4315 M508.237 26.1121 Q517.959 26.1121 523.508 32.4315 Q529.058 38.7509 529.058 49.9314 Q529.058 61.0714 523.508 67.4314 Q517.959 73.7508 508.237 73.7508 Q498.474 73.7508 492.924 67.4314 Q487.415 61.0714 487.415 49.9314 Q487.415 38.7509 492.924 32.4315 Q498.474 26.1121 508.237 26.1121 Z" fill="#000000" fill-rule="nonzero" fill-opacity="1" /><path clip-path="url(#clip020)" d="M567.704 34.1734 Q566.448 33.4443 564.949 33.1202 Q563.491 32.7556 561.708 32.7556 Q555.389 32.7556 551.986 36.8875 Q548.624 40.9789 548.624 48.6757 L548.624 72.576 L541.13 72.576 L541.13 27.2059 L548.624 27.2059 L548.624 34.2544 Q550.974 30.1225 554.741 28.1376 Q558.508 26.1121 563.896 26.1121 Q564.666 26.1121 565.597 26.2337 Q566.529 26.3147 567.663 26.5172 L567.704 34.1734 Z" fill="#000000" fill-rule="nonzero" fill-opacity="1" /><path clip-path="url(#clip020)" d="M609.388 35.9153 Q612.183 30.8922 616.072 28.5022 Q619.96 26.1121 625.227 26.1121 Q632.316 26.1121 636.164 31.0947 Q640.012 36.0368 640.012 45.1919 L640.012 72.576 L632.518 72.576 L632.518 45.4349 Q632.518 38.913 630.209 35.7533 Q627.9 32.5936 623.161 32.5936 Q617.368 32.5936 614.006 36.4419 Q610.643 40.2903 610.643 46.9338 L610.643 72.576 L603.149 72.576 L603.149 45.4349 Q603.149 38.8725 600.84 35.7533 Q598.531 32.5936 593.711 32.5936 Q587.999 32.5936 584.637 36.4824 Q581.274 40.3308 581.274 46.9338 L581.274 72.576 L573.78 72.576 L573.78 27.2059 L581.274 27.2059 L581.274 34.2544 Q583.826 30.082 587.391 28.0971 Q590.956 26.1121 595.858 26.1121 Q600.8 26.1121 604.243 28.6237 Q607.727 31.1352 609.388 35.9153 Z" fill="#000000" fill-rule="nonzero" fill-opacity="1" /><path clip-path="url(#clip020)" d="M675.498 49.7694 Q666.465 49.7694 662.981 51.8354 Q659.497 53.9013 659.497 58.8839 Q659.497 62.8538 662.09 65.2034 Q664.723 67.5124 669.219 67.5124 Q675.417 67.5124 679.144 63.1374 Q682.912 58.7219 682.912 51.4303 L682.912 49.7694 L675.498 49.7694 M690.365 46.6907 L690.365 72.576 L682.912 72.576 L682.912 65.6895 Q680.359 69.8214 676.552 71.8063 Q672.744 73.7508 667.235 73.7508 Q660.267 73.7508 656.135 69.8619 Q652.044 65.9325 652.044 59.3701 Q652.044 51.7138 657.148 47.825 Q662.292 43.9361 672.46 43.9361 L682.912 43.9361 L682.912 43.2069 Q682.912 38.0623 679.509 35.2672 Q676.147 32.4315 670.03 32.4315 Q666.141 32.4315 662.454 33.3632 Q658.768 34.295 655.365 36.1584 L655.365 29.2718 Q659.457 27.692 663.305 26.9223 Q667.154 26.1121 670.799 26.1121 Q680.643 26.1121 685.504 31.2163 Q690.365 36.3204 690.365 46.6907 Z" fill="#000000" fill-rule="nonzero" fill-opacity="1" /><path clip-path="url(#clip020)" d="M713.091 14.324 L713.091 27.2059 L728.444 27.2059 L728.444 32.9987 L713.091 32.9987 L713.091 57.6282 Q713.091 63.1779 714.59 64.7578 Q716.129 66.3376 720.787 66.3376 L728.444 66.3376 L728.444 72.576 L720.787 72.576 Q712.159 72.576 708.878 69.3758 Q705.597 66.1351 705.597 57.6282 L705.597 32.9987 L700.128 32.9987 L700.128 27.2059 L705.597 27.2059 L705.597 14.324 L713.091 14.324 Z" fill="#000000" fill-rule="nonzero" fill-opacity="1" /><path clip-path="url(#clip020)" d="M738.247 27.2059 L745.701 27.2059 L745.701 72.576 L738.247 72.576 L738.247 27.2059 M738.247 9.54393 L745.701 9.54393 L745.701 18.9825 L738.247 18.9825 L738.247 9.54393 Z" fill="#000000" fill-rule="nonzero" fill-opacity="1" /><path clip-path="url(#clip020)" d="M778.877 32.4315 Q772.882 32.4315 769.398 37.1306 Q765.915 41.7891 765.915 49.9314 Q765.915 58.0738 769.358 62.7728 Q772.842 67.4314 778.877 67.4314 Q784.832 67.4314 788.316 62.7323 Q791.8 58.0333 791.8 49.9314 Q791.8 41.8701 788.316 37.1711 Q784.832 32.4315 778.877 32.4315 M778.877 26.1121 Q788.6 26.1121 794.149 32.4315 Q799.699 38.7509 799.699 49.9314 Q799.699 61.0714 794.149 67.4314 Q788.6 73.7508 778.877 73.7508 Q769.115 73.7508 763.565 67.4314 Q758.056 61.0714 758.056 49.9314 Q758.056 38.7509 763.565 32.4315 Q769.115 26.1121 778.877 26.1121 Z" fill="#000000" fill-rule="nonzero" fill-opacity="1" /><path clip-path="url(#clip020)" d="M849.768 45.1919 L849.768 72.576 L842.315 72.576 L842.315 45.4349 Q842.315 38.994 839.803 35.7938 Q837.292 32.5936 832.268 32.5936 Q826.233 32.5936 822.749 36.4419 Q819.265 40.2903 819.265 46.9338 L819.265 72.576 L811.771 72.576 L811.771 27.2059 L819.265 27.2059 L819.265 34.2544 Q821.939 30.163 825.544 28.1376 Q829.19 26.1121 833.929 26.1121 Q841.747 26.1121 845.758 30.9732 Q849.768 35.7938 849.768 45.1919 Z" fill="#000000" fill-rule="nonzero" fill-opacity="1" /><path clip-path="url(#clip020)" d="M891.331 12.096 L926.087 12.096 L926.087 18.9825 L899.513 18.9825 L899.513 36.8065 L923.495 36.8065 L923.495 43.6931 L899.513 43.6931 L899.513 72.576 L891.331 72.576 L891.331 12.096 Z" fill="#000000" fill-rule="nonzero" fill-opacity="1" /><path clip-path="url(#clip020)" d="M938.726 9.54393 L946.18 9.54393 L946.18 72.576 L938.726 72.576 L938.726 9.54393 Z" fill="#000000" fill-rule="nonzero" fill-opacity="1" /><path clip-path="url(#clip020)" d="M979.357 32.4315 Q973.361 32.4315 969.878 37.1306 Q966.394 41.7891 966.394 49.9314 Q966.394 58.0738 969.837 62.7728 Q973.321 67.4314 979.357 67.4314 Q985.312 67.4314 988.795 62.7323 Q992.279 58.0333 992.279 49.9314 Q992.279 41.8701 988.795 37.1711 Q985.312 32.4315 979.357 32.4315 M979.357 26.1121 Q989.079 26.1121 994.629 32.4315 Q1000.18 38.7509 1000.18 49.9314 Q1000.18 61.0714 994.629 67.4314 Q989.079 73.7508 979.357 73.7508 Q969.594 73.7508 964.044 67.4314 Q958.535 61.0714 958.535 49.9314 Q958.535 38.7509 964.044 32.4315 Q969.594 26.1121 979.357 26.1121 Z" fill="#000000" fill-rule="nonzero" fill-opacity="1" /><path clip-path="url(#clip020)" d="M1008.2 27.2059 L1015.65 27.2059 L1024.97 62.6108 L1034.25 27.2059 L1043.04 27.2059 L1052.35 62.6108 L1061.63 27.2059 L1069.08 27.2059 L1057.22 72.576 L1048.42 72.576 L1038.66 35.3887 L1028.86 72.576 L1020.07 72.576 L1008.2 27.2059 Z" fill="#000000" fill-rule="nonzero" fill-opacity="1" /><path clip-path="url(#clip020)" d="M1077.75 62.2867 L1086.3 62.2867 L1086.3 72.576 L1077.75 72.576 L1077.75 62.2867 M1077.75 29.6769 L1086.3 29.6769 L1086.3 39.9662 L1077.75 39.9662 L1077.75 29.6769 Z" fill="#000000" fill-rule="nonzero" fill-opacity="1" /><path clip-path="url(#clip020)" d="M1138.68 18.8205 L1138.68 65.8515 L1148.56 65.8515 Q1161.08 65.8515 1166.87 60.1802 Q1172.71 54.509 1172.71 42.2752 Q1172.71 30.1225 1166.87 24.4918 Q1161.08 18.8205 1148.56 18.8205 L1138.68 18.8205 M1130.5 12.096 L1147.31 12.096 Q1164.89 12.096 1173.11 19.4281 Q1181.33 26.7198 1181.33 42.2752 Q1181.33 57.9117 1173.07 65.2439 Q1164.81 72.576 1147.31 72.576 L1130.5 72.576 L1130.5 12.096 Z" fill="#000000" fill-rule="nonzero" fill-opacity="1" /><path clip-path="url(#clip020)" d="M1194.05 27.2059 L1201.51 27.2059 L1201.51 72.576 L1194.05 72.576 L1194.05 27.2059 M1194.05 9.54393 L1201.51 9.54393 L1201.51 18.9825 L1194.05 18.9825 L1194.05 9.54393 Z" fill="#000000" fill-rule="nonzero" fill-opacity="1" /><path clip-path="url(#clip020)" d="M1246.03 28.5427 L1246.03 35.5912 Q1242.87 33.9709 1239.47 33.1607 Q1236.06 32.3505 1232.42 32.3505 Q1226.87 32.3505 1224.07 34.0519 Q1221.32 35.7533 1221.32 39.156 Q1221.32 41.7486 1223.3 43.2475 Q1225.29 44.7058 1231.28 46.0426 L1233.83 46.6097 Q1241.77 48.3111 1245.1 51.4303 Q1248.46 54.509 1248.46 60.0587 Q1248.46 66.3781 1243.44 70.0644 Q1238.45 73.7508 1229.7 73.7508 Q1226.06 73.7508 1222.09 73.0216 Q1218.16 72.3329 1213.78 70.9151 L1213.78 63.2184 Q1217.91 65.3654 1221.92 66.4591 Q1225.94 67.5124 1229.86 67.5124 Q1235.13 67.5124 1237.97 65.73 Q1240.8 63.9071 1240.8 60.6258 Q1240.8 57.5877 1238.74 55.9673 Q1236.71 54.3469 1229.78 52.8481 L1227.19 52.2405 Q1220.26 50.7821 1217.19 47.7845 Q1214.11 44.7463 1214.11 39.4801 Q1214.11 33.0797 1218.64 29.5959 Q1223.18 26.1121 1231.53 26.1121 Q1235.66 26.1121 1239.3 26.7198 Q1242.95 27.3274 1246.03 28.5427 Z" fill="#000000" fill-rule="nonzero" fill-opacity="1" /><path clip-path="url(#clip020)" d="M1292.98 28.9478 L1292.98 35.9153 Q1289.82 34.1734 1286.62 33.3227 Q1283.46 32.4315 1280.22 32.4315 Q1272.97 32.4315 1268.96 37.0496 Q1264.95 41.6271 1264.95 49.9314 Q1264.95 58.2358 1268.96 62.8538 Q1272.97 67.4314 1280.22 67.4314 Q1283.46 67.4314 1286.62 66.5807 Q1289.82 65.6895 1292.98 63.9476 L1292.98 70.8341 Q1289.86 72.2924 1286.5 73.0216 Q1283.17 73.7508 1279.41 73.7508 Q1269.16 73.7508 1263.12 67.3098 Q1257.09 60.8689 1257.09 49.9314 Q1257.09 38.832 1263.16 32.472 Q1269.28 26.1121 1279.89 26.1121 Q1283.34 26.1121 1286.62 26.8413 Q1289.9 27.5299 1292.98 28.9478 Z" fill="#000000" fill-rule="nonzero" fill-opacity="1" /><path clip-path="url(#clip020)" d="M1332.23 34.1734 Q1330.98 33.4443 1329.48 33.1202 Q1328.02 32.7556 1326.24 32.7556 Q1319.92 32.7556 1316.51 36.8875 Q1313.15 40.9789 1313.15 48.6757 L1313.15 72.576 L1305.66 72.576 L1305.66 27.2059 L1313.15 27.2059 L1313.15 34.2544 Q1315.5 30.1225 1319.27 28.1376 Q1323.04 26.1121 1328.42 26.1121 Q1329.19 26.1121 1330.12 26.2337 Q1331.06 26.3147 1332.19 26.5172 L1332.23 34.1734 Z" fill="#000000" fill-rule="nonzero" fill-opacity="1" /><path clip-path="url(#clip020)" d="M1377.03 48.0275 L1377.03 51.6733 L1342.76 51.6733 Q1343.25 59.3701 1347.38 63.421 Q1351.55 67.4314 1358.97 67.4314 Q1363.26 67.4314 1367.27 66.3781 Q1371.32 65.3249 1375.29 63.2184 L1375.29 70.267 Q1371.28 71.9684 1367.07 72.8596 Q1362.86 73.7508 1358.52 73.7508 Q1347.66 73.7508 1341.31 67.4314 Q1334.99 61.1119 1334.99 50.3365 Q1334.99 39.1965 1340.98 32.6746 Q1347.02 26.1121 1357.23 26.1121 Q1366.38 26.1121 1371.69 32.0264 Q1377.03 37.9003 1377.03 48.0275 M1369.58 45.84 Q1369.5 39.7232 1366.14 36.0774 Q1362.82 32.4315 1357.31 32.4315 Q1351.07 32.4315 1347.3 35.9558 Q1343.57 39.4801 1343.01 45.8805 L1369.58 45.84 Z" fill="#000000" fill-rule="nonzero" fill-opacity="1" /><path clip-path="url(#clip020)" d="M1396.64 14.324 L1396.64 27.2059 L1411.99 27.2059 L1411.99 32.9987 L1396.64 32.9987 L1396.64 57.6282 Q1396.64 63.1779 1398.14 64.7578 Q1399.68 66.3376 1404.34 66.3376 L1411.99 66.3376 L1411.99 72.576 L1404.34 72.576 Q1395.71 72.576 1392.43 69.3758 Q1389.15 66.1351 1389.15 57.6282 L1389.15 32.9987 L1383.68 32.9987 L1383.68 27.2059 L1389.15 27.2059 L1389.15 14.324 L1396.64 14.324 Z" fill="#000000" fill-rule="nonzero" fill-opacity="1" /><path clip-path="url(#clip020)" d="M1460.6 48.0275 L1460.6 51.6733 L1426.33 51.6733 Q1426.82 59.3701 1430.95 63.421 Q1435.12 67.4314 1442.54 67.4314 Q1446.83 67.4314 1450.84 66.3781 Q1454.89 65.3249 1458.86 63.2184 L1458.86 70.267 Q1454.85 71.9684 1450.64 72.8596 Q1446.43 73.7508 1442.09 73.7508 Q1431.24 73.7508 1424.88 67.4314 Q1418.56 61.1119 1418.56 50.3365 Q1418.56 39.1965 1424.55 32.6746 Q1430.59 26.1121 1440.8 26.1121 Q1449.95 26.1121 1455.26 32.0264 Q1460.6 37.9003 1460.6 48.0275 M1453.15 45.84 Q1453.07 39.7232 1449.71 36.0774 Q1446.39 32.4315 1440.88 32.4315 Q1434.64 32.4315 1430.87 35.9558 Q1427.14 39.4801 1426.58 45.8805 L1453.15 45.84 Z" fill="#000000" fill-rule="nonzero" fill-opacity="1" /><path clip-path="url(#clip020)" d="M1535.79 14.0809 L1535.79 22.0612 Q1531.13 19.8332 1527 18.7395 Q1522.87 17.6457 1519.02 17.6457 Q1512.33 17.6457 1508.69 20.2383 Q1505.08 22.8309 1505.08 27.611 Q1505.08 31.6214 1507.47 33.6873 Q1509.9 35.7128 1516.63 36.9686 L1521.57 37.9813 Q1530.73 39.7232 1535.06 44.1387 Q1539.43 48.5136 1539.43 55.8863 Q1539.43 64.6767 1533.52 69.2137 Q1527.65 73.7508 1516.26 73.7508 Q1511.97 73.7508 1507.11 72.7785 Q1502.29 71.8063 1497.1 69.9024 L1497.1 61.4765 Q1502.09 64.2716 1506.87 65.6895 Q1511.65 67.1073 1516.26 67.1073 Q1523.27 67.1073 1527.08 64.3527 Q1530.89 61.598 1530.89 56.4939 Q1530.89 52.0379 1528.13 49.5264 Q1525.42 47.0148 1519.18 45.759 L1514.2 44.7868 Q1505.04 42.9639 1500.95 39.075 Q1496.86 35.1862 1496.86 28.2591 Q1496.86 20.2383 1502.49 15.6203 Q1508.16 11.0023 1518.09 11.0023 Q1522.34 11.0023 1526.76 11.7719 Q1531.17 12.5416 1535.79 14.0809 Z" fill="#000000" fill-rule="nonzero" fill-opacity="1" /><path clip-path="url(#clip020)" d="M1635.89 44.7463 L1635.89 48.3921 L1619.97 64.3122 L1615.11 59.4511 L1624.54 50.0125 L1575.16 50.0125 L1575.16 43.1259 L1624.54 43.1259 L1615.11 33.6873 L1619.97 28.8262 L1635.89 44.7463 Z" fill="#000000" fill-rule="nonzero" fill-opacity="1" /><path clip-path="url(#clip020)" d="M1719.74 16.7545 L1719.74 25.383 Q1715.61 21.5346 1710.91 19.6307 Q1706.25 17.7268 1700.98 17.7268 Q1690.61 17.7268 1685.11 24.0867 Q1679.6 30.4061 1679.6 42.3968 Q1679.6 54.3469 1685.11 60.7069 Q1690.61 67.0263 1700.98 67.0263 Q1706.25 67.0263 1710.91 65.1223 Q1715.61 63.2184 1719.74 59.3701 L1719.74 67.9175 Q1715.45 70.8341 1710.63 72.2924 Q1705.85 73.7508 1700.5 73.7508 Q1686.77 73.7508 1678.87 65.3654 Q1670.97 56.9395 1670.97 42.3968 Q1670.97 27.8135 1678.87 19.4281 Q1686.77 11.0023 1700.5 11.0023 Q1705.93 11.0023 1710.71 12.4606 Q1715.53 13.8784 1719.74 16.7545 Z" fill="#000000" fill-rule="nonzero" fill-opacity="1" /><path clip-path="url(#clip020)" d="M1749.64 32.4315 Q1743.64 32.4315 1740.16 37.1306 Q1736.67 41.7891 1736.67 49.9314 Q1736.67 58.0738 1740.12 62.7728 Q1743.6 67.4314 1749.64 67.4314 Q1755.59 67.4314 1759.07 62.7323 Q1762.56 58.0333 1762.56 49.9314 Q1762.56 41.8701 1759.07 37.1711 Q1755.59 32.4315 1749.64 32.4315 M1749.64 26.1121 Q1759.36 26.1121 1764.91 32.4315 Q1770.46 38.7509 1770.46 49.9314 Q1770.46 61.0714 1764.91 67.4314 Q1759.36 73.7508 1749.64 73.7508 Q1739.87 73.7508 1734.32 67.4314 Q1728.81 61.0714 1728.81 49.9314 Q1728.81 38.7509 1734.32 32.4315 Q1739.87 26.1121 1749.64 26.1121 Z" fill="#000000" fill-rule="nonzero" fill-opacity="1" /><path clip-path="url(#clip020)" d="M1820.53 45.1919 L1820.53 72.576 L1813.07 72.576 L1813.07 45.4349 Q1813.07 38.994 1810.56 35.7938 Q1808.05 32.5936 1803.03 32.5936 Q1796.99 32.5936 1793.51 36.4419 Q1790.02 40.2903 1790.02 46.9338 L1790.02 72.576 L1782.53 72.576 L1782.53 27.2059 L1790.02 27.2059 L1790.02 34.2544 Q1792.7 30.163 1796.3 28.1376 Q1799.95 26.1121 1804.69 26.1121 Q1812.51 26.1121 1816.52 30.9732 Q1820.53 35.7938 1820.53 45.1919 Z" fill="#000000" fill-rule="nonzero" fill-opacity="1" /><path clip-path="url(#clip020)" d="M1842.77 14.324 L1842.77 27.2059 L1858.12 27.2059 L1858.12 32.9987 L1842.77 32.9987 L1842.77 57.6282 Q1842.77 63.1779 1844.27 64.7578 Q1845.8 66.3376 1850.46 66.3376 L1858.12 66.3376 L1858.12 72.576 L1850.46 72.576 Q1841.83 72.576 1838.55 69.3758 Q1835.27 66.1351 1835.27 57.6282 L1835.27 32.9987 L1829.8 32.9987 L1829.8 27.2059 L1835.27 27.2059 L1835.27 14.324 L1842.77 14.324 Z" fill="#000000" fill-rule="nonzero" fill-opacity="1" /><path clip-path="url(#clip020)" d="M1867.92 27.2059 L1875.38 27.2059 L1875.38 72.576 L1867.92 72.576 L1867.92 27.2059 M1867.92 9.54393 L1875.38 9.54393 L1875.38 18.9825 L1867.92 18.9825 L1867.92 9.54393 Z" fill="#000000" fill-rule="nonzero" fill-opacity="1" /><path clip-path="url(#clip020)" d="M1928.69 45.1919 L1928.69 72.576 L1921.23 72.576 L1921.23 45.4349 Q1921.23 38.994 1918.72 35.7938 Q1916.21 32.5936 1911.19 32.5936 Q1905.15 32.5936 1901.67 36.4419 Q1898.18 40.2903 1898.18 46.9338 L1898.18 72.576 L1890.69 72.576 L1890.69 27.2059 L1898.18 27.2059 L1898.18 34.2544 Q1900.86 30.163 1904.46 28.1376 Q1908.11 26.1121 1912.85 26.1121 Q1920.67 26.1121 1924.68 30.9732 Q1928.69 35.7938 1928.69 45.1919 Z" fill="#000000" fill-rule="nonzero" fill-opacity="1" /><path clip-path="url(#clip020)" d="M1942.78 54.671 L1942.78 27.2059 L1950.24 27.2059 L1950.24 54.3874 Q1950.24 60.8284 1952.75 64.0691 Q1955.26 67.2693 1960.28 67.2693 Q1966.32 67.2693 1969.8 63.421 Q1973.33 59.5726 1973.33 52.9291 L1973.33 27.2059 L1980.78 27.2059 L1980.78 72.576 L1973.33 72.576 L1973.33 65.6084 Q1970.61 69.7404 1967.01 71.7658 Q1963.44 73.7508 1958.7 73.7508 Q1950.89 73.7508 1946.83 68.8897 Q1942.78 64.0286 1942.78 54.671 M1961.54 26.1121 L1961.54 26.1121 Z" fill="#000000" fill-rule="nonzero" fill-opacity="1" /><path clip-path="url(#clip020)" d="M2013.71 32.4315 Q2007.72 32.4315 2004.24 37.1306 Q2000.75 41.7891 2000.75 49.9314 Q2000.75 58.0738 2004.19 62.7728 Q2007.68 67.4314 2013.71 67.4314 Q2019.67 67.4314 2023.15 62.7323 Q2026.64 58.0333 2026.64 49.9314 Q2026.64 41.8701 2023.15 37.1711 Q2019.67 32.4315 2013.71 32.4315 M2013.71 26.1121 Q2023.44 26.1121 2028.99 32.4315 Q2034.54 38.7509 2034.54 49.9314 Q2034.54 61.0714 2028.99 67.4314 Q2023.44 73.7508 2013.71 73.7508 Q2003.95 73.7508 1998.4 67.4314 Q1992.89 61.0714 1992.89 49.9314 Q1992.89 38.7509 1998.4 32.4315 Q2003.95 26.1121 2013.71 26.1121 Z" fill="#000000" fill-rule="nonzero" fill-opacity="1" /><path clip-path="url(#clip020)" d="M2046.12 54.671 L2046.12 27.2059 L2053.58 27.2059 L2053.58 54.3874 Q2053.58 60.8284 2056.09 64.0691 Q2058.6 67.2693 2063.62 67.2693 Q2069.66 67.2693 2073.14 63.421 Q2076.67 59.5726 2076.67 52.9291 L2076.67 27.2059 L2084.12 27.2059 L2084.12 72.576 L2076.67 72.576 L2076.67 65.6084 Q2073.95 69.7404 2070.35 71.7658 Q2066.78 73.7508 2062.04 73.7508 Q2054.22 73.7508 2050.17 68.8897 Q2046.12 64.0286 2046.12 54.671 M2064.88 26.1121 L2064.88 26.1121 Z" fill="#000000" fill-rule="nonzero" fill-opacity="1" /><path clip-path="url(#clip020)" d="M2128.4 28.5427 L2128.4 35.5912 Q2125.24 33.9709 2121.83 33.1607 Q2118.43 32.3505 2114.78 32.3505 Q2109.23 32.3505 2106.44 34.0519 Q2103.69 35.7533 2103.69 39.156 Q2103.69 41.7486 2105.67 43.2475 Q2107.66 44.7058 2113.65 46.0426 L2116.2 46.6097 Q2124.14 48.3111 2127.46 51.4303 Q2130.83 54.509 2130.83 60.0587 Q2130.83 66.3781 2125.8 70.0644 Q2120.82 73.7508 2112.07 73.7508 Q2108.42 73.7508 2104.45 73.0216 Q2100.53 72.3329 2096.15 70.9151 L2096.15 63.2184 Q2100.28 65.3654 2104.29 66.4591 Q2108.3 67.5124 2112.23 67.5124 Q2117.5 67.5124 2120.33 65.73 Q2123.17 63.9071 2123.17 60.6258 Q2123.17 57.5877 2121.1 55.9673 Q2119.08 54.3469 2112.15 52.8481 L2109.56 52.2405 Q2102.63 50.7821 2099.55 47.7845 Q2096.47 44.7463 2096.47 39.4801 Q2096.47 33.0797 2101.01 29.5959 Q2105.55 26.1121 2113.89 26.1121 Q2118.03 26.1121 2121.67 26.7198 Q2125.32 27.3274 2128.4 28.5427 Z" fill="#000000" fill-rule="nonzero" fill-opacity="1" /><path clip-path="url(#clip020)" d="M2166.47 12.096 L2175.26 12.096 L2190.29 34.5785 L2205.4 12.096 L2214.19 12.096 L2194.75 41.141 L2215.49 72.576 L2206.7 72.576 L2189.69 46.8528 L2172.55 72.576 L2163.72 72.576 L2185.31 40.2903 L2166.47 12.096 Z" fill="#000000" fill-rule="nonzero" fill-opacity="1" /><path clip-path="url(#clip022)" d="M307.043 1386.4 L311.015 1386.4 L314.987 1386.32 L318.959 1386.19 L322.932 1385.78 L326.904 1384.84 L330.876 1383.58 L334.848 1382.71 L338.821 1381.82 L342.793 1380.42 L346.765 1379.44 L350.737 1377.98 L354.71 1376.63 L358.682 1374.79 L362.654 1372.14 L366.626 1369.55 L370.599 1368.05 L374.571 1365.55 L378.543 1362.92 L382.516 1360.43 L386.488 1357.95 L390.46 1354.95 L394.432 1352.85 L398.405 1350.46 L402.377 1349.25 L406.349 1346.8 L410.321 1343.5 L414.294 1341.33 L418.266 1339.97 L422.238 1338.19 L426.21 1335.05 L430.183 1332.78 L434.155 1330.93 L438.127 1329.54 L442.099 1326.74 L446.072 1324.04 L450.044 1321.54 L454.016 1318.45 L457.988 1315.24 L461.961 1313.26 L465.933 1311.2 L469.905 1308.51 L473.877 1305.96 L477.85 1304.01 L481.822 1300.44 L485.794 1298.05 L489.767 1294.95 L493.739 1292.82 L497.711 1290.63 L501.683 1288.33 L505.656 1286.23 L509.628 1284.39 L513.6 1282.05 L517.572 1280.3 L521.545 1277.85 L525.517 1275.39 L529.489 1272.44 L533.461 1270.69 L537.434 1267.98 L541.406 1266.27 L545.378 1263.81 L549.35 1260.95 L553.323 1258.18 L557.295 1255.56 L561.267 1253.27 L565.239 1249.8 L569.212 1247.55 L573.184 1245.86 L577.156 1243.7 L581.128 1240.58 L585.101 1239.53 L589.073 1236.78 L593.045 1233.7 L597.017 1231.02 L600.99 1228.3 L604.962 1225.94 L608.934 1223 L612.907 1221.03 L616.879 1219.29 L620.851 1217.8 L624.823 1215.69 L628.796 1212.3 L632.768 1210.55 L636.74 1207.68 L640.712 1204.89 L644.685 1202.73 L648.657 1200 L652.629 1197.05 L656.601 1193.51 L660.574 1190.24 L664.546 1186.91 L668.518 1184.42 L672.49 1181.37 L676.463 1177.67 L680.435 1174.39 L684.407 1171.57 L688.379 1169.04 L692.352 1165.83 L696.324 1163.23 L700.296 1161.13 L704.268 1158.2 L708.241 1156.11 L712.213 1154.18 L716.185 1152.23 L720.158 1150.1 L724.13 1148.08 L728.102 1145.48 L732.074 1142.54 L736.047 1140.5 L740.019 1138.21 L743.991 1136.16 L747.963 1133.74 L751.936 1131.07 L755.908 1128.82 L759.88 1126.39 L763.852 1124.22 L767.825 1121.78 L771.797 1119.04 L775.769 1117.19 L779.741 1115.47 L783.714 1110.81 L787.686 1108.18 L791.658 1105.47 L795.63 1103.61 L799.603 1101.36 L803.575 1098.71 L807.547 1096.63 L811.519 1095.61 L815.492 1093.44 L819.464 1091.39 L823.436 1088.28 L827.409 1085.9 L831.381 1082.88 L835.353 1079.76 L839.325 1075.93 L843.298 1073.52 L847.27 1071.26 L851.242 1069.01 L855.214 1067.41 L859.187 1065.47 L863.159 1062.54 L867.131 1060.38 L871.103 1057.95 L875.076 1054.5 L879.048 1051.7 L883.02 1049.86 L886.992 1047.42 L890.965 1044.08 L894.937 1041.73 L898.909 1038.99 L902.881 1036.26 L906.854 1033.59 L910.826 1030.56 L914.798 1028.92 L918.77 1027.1 L922.743 1025.08 L926.715 1022.63 L930.687 1020.38 L934.659 1017.85 L938.632 1015.96 L942.604 1013.78 L946.576 1011.92 L950.549 1009.16 L954.521 1007.95 L958.493 1005 L962.465 1003.87 L966.438 1001.69 L970.41 998.807 L974.382 996.427 L978.354 993.726 L982.327 991.974 L986.299 989.677 L990.271 987.042 L994.243 983.142 L998.216 979.945 L1002.19 977.27 L1006.16 975.187 L1010.13 973.457 L1014.1 970.734 L1018.08 967.499 L1022.05 965.263 L1026.02 963.016 L1029.99 960.683 L1033.97 957.706 L1037.94 954.586 L1041.91 952.204 L1045.88 949.38 L1049.86 946.575 L1053.83 944.371 L1057.8 942.759 L1061.77 940.194 L1065.74 937.909 L1069.72 934.961 L1073.69 932.671 L1077.66 929.756 L1081.63 926.926 L1085.61 923.5 L1089.58 921.293 L1093.55 918.524 L1097.52 915.805 L1101.49 912.986 L1105.47 910.325 L1109.44 908 L1113.41 905.807 L1117.38 903.574 L1121.36 902.1 L1125.33 899.378 L1129.3 897.244 L1133.27 896.073 L1137.24 893.622 L1141.22 890.98 L1145.19 888.95 L1149.16 886.285 L1153.13 883.982 L1157.11 881.194 L1161.08 877.597 L1165.05 875.442 L1169.02 872.69 L1173 870.07 L1176.97 867.669 L1180.94 864.515 L1184.91 863.228 L1188.88 860.109 L1192.86 857.739 L1196.83 854.496 L1200.8 853.047 L1204.77 850.1 L1208.75 847.325 L1212.72 844.834 L1216.69 842.181 L1220.66 840.462 L1224.63 837.957 L1228.61 834.607 L1232.58 831.234 L1236.55 828.619 L1240.52 825.34 L1244.5 821.778 L1248.47 819.849 L1252.44 816.858 L1256.41 813.467 L1260.38 811.078 L1264.36 808.323 L1268.33 805.826 L1272.3 804.164 L1276.27 802.482 L1280.25 800.417 L1284.22 797.64 L1288.19 794.675 L1292.16 792.653 L1296.14 789.443 L1300.11 786.5 L1304.08 784.92 L1308.05 781.708 L1312.02 778.803 L1316 775.603 L1319.97 773.761 L1323.94 771.402 L1327.91 768.087 L1331.89 765.597 L1335.86 763.438 L1339.83 760.997 L1343.8 758.564 L1347.77 755.894 L1351.75 753.9 L1355.72 750.383 L1359.69 747.183 L1363.66 745.791 L1367.64 744.288 L1371.61 741.99 L1375.58 739.633 L1379.55 737.225 L1383.52 735.431 L1387.5 733.474 L1391.47 731.29 L1395.44 728.582 L1399.41 726.023 L1403.39 723.444 L1407.36 721.415 L1411.33 719.493 L1415.3 717.031 L1419.28 714.984 L1423.25 713.059 L1427.22 710.568 L1431.19 708.437 L1435.16 706.459 L1439.14 704.576 L1443.11 701.291 L1447.08 698.794 L1451.05 696.19 L1455.03 694.758 L1459 691.031 L1462.97 688.211 L1466.94 685.3 L1470.91 682.901 L1474.89 679.361 L1478.86 675.526 L1482.83 673.056 L1486.8 671.451 L1490.78 669.158 L1494.75 667.802 L1498.72 664.536 L1502.69 661.526 L1506.66 660.531 L1510.64 657.046 L1514.61 654.27 L1518.58 652.443 L1522.55 650.067 L1526.53 646.513 L1530.5 643.527 L1534.47 641.329 L1538.44 639.093 L1542.42 636.945 L1546.39 633.916 L1550.36 632.323 L1554.33 630.601 L1558.3 628.46 L1562.28 625.196 L1566.25 623.393 L1570.22 621.303 L1574.19 618.765 L1578.17 616.697 L1582.14 614.1 L1586.11 612.598 L1590.08 609.498 L1594.05 608.698 L1598.03 607.369 L1602 604.992 L1605.97 601.567 L1609.94 599.689 L1613.92 598.659 L1617.89 596.08 L1621.86 594.442 L1625.83 592.392 L1629.8 589.856 L1633.78 586.821 L1637.75 583.481 L1641.72 579.873 L1645.69 576.904 L1649.67 572.951 L1653.64 570.958 L1657.61 568.201 L1661.58 565.537 L1665.56 562.721 L1669.53 561.051 L1673.5 559.448 L1677.47 556.241 L1681.44 553.609 L1685.42 550.866 L1689.39 549.436 L1693.36 546.804 L1697.33 544.039 L1701.31 541.752 L1705.28 538.422 L1709.25 536.423 L1713.22 533.761 L1717.19 531.1 L1721.17 529.126 L1725.14 526.622 L1729.11 524.948 L1733.08 522.264 L1737.06 519.044 L1741.03 515.893 L1745 514.097 L1748.97 511.314 L1752.94 509.827 L1756.92 506.762 L1760.89 503.528 L1764.86 500.325 L1768.83 497.802 L1772.81 494.928 L1776.78 493.874 L1780.75 491.592 L1784.72 489.602 L1788.7 488.004 L1792.67 486.278 L1796.64 483.351 L1800.61 481.226 L1804.58 478.911 L1808.56 477.268 L1812.53 474.017 L1816.5 471.74 L1820.47 468.075 L1824.45 466.384 L1828.42 463.867 L1832.39 462.353 L1836.36 459.78 L1840.33 457.753 L1844.31 455.241 L1848.28 452.689 L1852.25 451.09 L1856.22 448.616 L1860.2 447.556 L1864.17 443.816 L1868.14 440.742 L1872.11 438.135 L1876.08 436.223 L1880.06 433.373 L1884.03 430.585 L1888 428.998 L1891.97 426.227 L1895.95 423.636 L1899.92 421.244 L1903.89 419.243 L1907.86 417.69 L1911.84 416.506 L1915.81 414.58 L1919.78 413.012 L1923.75 410.975 L1927.72 407.762 L1931.7 404.552 L1935.67 402.273 L1939.64 399.37 L1943.61 397.26 L1947.59 394.495 L1951.56 391.973 L1955.53 388.915 L1959.5 386.662 L1963.47 382.926 L1967.45 379.87 L1971.42 377.573 L1975.39 375.731 L1979.36 374.342 L1983.34 372.26 L1987.31 369.505 L1991.28 367.366 L1995.25 365.443 L1999.22 362.468 L2003.2 359.604 L2007.17 356.947 L2011.14 354.599 L2015.11 353.069 L2019.09 351.149 L2023.06 348.107 L2027.03 346.544 L2031 344.734 L2034.98 342.281 L2038.95 339.296 L2042.92 336.459 L2046.89 333.003 L2050.86 330.206 L2054.84 328.048 L2058.81 323.957 L2062.78 322.66 L2066.75 320.512 L2070.73 317.288 L2074.7 315.132 L2078.67 312.33 L2082.64 310.08 L2086.61 308.786 L2090.59 306.107 L2094.56 304.654 L2098.53 301.872 L2102.5 298.645 L2106.48 296.633 L2110.45 293.029 L2114.42 290.03 L2118.39 287.118 L2122.36 285.859 L2126.34 283.358 L2130.31 280.355 L2134.28 278.161 L2138.25 276.076 L2142.23 272.75 L2146.2 270.165 L2150.17 268.428 L2154.14 265.331 L2158.12 263.184 L2162.09 261.218 L2166.06 258.5 L2170.03 256.756 L2174 254.954 L2177.98 252.232 L2181.95 249.951 L2185.92 246.397 L2189.89 242.762 L2193.87 240.282 L2197.84 238.148 L2201.81 236.088 L2205.78 233.134 L2209.75 231.206 L2213.73 229.843 L2217.7 227.956 L2221.67 225.694 L2225.64 223.43 L2229.62 220.602 L2233.59 218.428 L2237.56 217.064 L2241.53 215.43 L2245.5 212.689 L2249.48 209.473 L2253.45 206.659 L2257.42 204.578 L2261.39 201.827 L2265.37 200.424 L2269.34 197.735 L2273.31 194.996 L2277.28 194.146 L2281.26 192.191 L2285.23 190.151 L2289.2 187.712 L2293.17 185.848 L2293.17 160.256 L2289.2 162.195 L2285.23 164.729 L2281.26 166.798 L2277.28 168.826 L2273.31 169.786 L2269.34 172.579 L2265.37 175.289 L2261.39 176.675 L2257.42 179.472 L2253.45 181.608 L2249.48 184.471 L2245.5 187.723 L2241.53 190.45 L2237.56 192.122 L2233.59 193.546 L2229.62 195.771 L2225.64 198.733 L2221.67 201.049 L2217.7 203.408 L2213.73 205.252 L2209.75 206.634 L2205.78 208.62 L2201.81 211.545 L2197.84 213.622 L2193.87 215.733 L2189.89 218.178 L2185.92 221.825 L2181.95 225.382 L2177.98 227.625 L2174 230.348 L2170.03 232.169 L2166.06 233.929 L2162.09 236.617 L2158.12 238.65 L2154.14 240.838 L2150.17 243.967 L2146.2 245.773 L2142.23 248.372 L2138.25 251.719 L2134.28 253.811 L2130.31 256.048 L2126.34 259.103 L2122.36 261.624 L2118.39 262.895 L2114.42 265.87 L2110.45 268.882 L2106.48 272.451 L2102.5 274.476 L2098.53 277.729 L2094.56 280.513 L2090.59 281.978 L2086.61 284.696 L2082.64 285.976 L2078.67 288.172 L2074.7 291.015 L2070.73 293.177 L2066.75 296.431 L2062.78 298.661 L2058.81 299.974 L2054.84 304.1 L2050.86 306.338 L2046.89 309.191 L2042.92 312.68 L2038.95 315.597 L2034.98 318.554 L2031 321.019 L2027.03 322.962 L2023.06 324.595 L2019.09 327.565 L2015.11 329.45 L2011.14 330.987 L2007.17 333.348 L2003.2 336.052 L1999.22 338.92 L1995.25 341.928 L1991.28 343.867 L1987.31 346.034 L1983.34 348.851 L1979.36 350.979 L1975.39 352.389 L1971.42 354.247 L1967.45 356.537 L1963.47 359.599 L1959.5 363.403 L1955.53 365.655 L1951.56 368.647 L1947.59 371.222 L1943.61 374.063 L1939.64 376.186 L1935.67 379.14 L1931.7 381.444 L1927.72 384.695 L1923.75 387.923 L1919.78 390.007 L1915.81 391.547 L1911.84 393.476 L1907.86 394.669 L1903.89 396.222 L1899.92 398.235 L1895.95 400.707 L1891.97 403.343 L1888 406.171 L1884.03 407.766 L1880.06 410.529 L1876.08 413.443 L1872.11 415.442 L1868.14 418.1 L1864.17 421.168 L1860.2 424.975 L1856.22 426.026 L1852.25 428.474 L1848.28 430.175 L1844.31 432.701 L1840.33 435.212 L1836.36 437.343 L1832.39 439.955 L1828.42 441.505 L1824.45 444.099 L1820.47 445.824 L1816.5 449.533 L1812.53 451.814 L1808.56 455.06 L1804.58 456.654 L1800.61 458.946 L1796.64 461.021 L1792.67 464.026 L1788.7 465.702 L1784.72 467.236 L1780.75 469.284 L1776.78 471.602 L1772.81 472.626 L1768.83 475.508 L1764.86 478.089 L1760.89 481.305 L1756.92 484.611 L1752.94 487.743 L1748.97 489.311 L1745 492.089 L1741.03 493.875 L1737.06 497.046 L1733.08 500.357 L1729.11 503.064 L1725.14 504.812 L1721.17 507.278 L1717.19 509.327 L1713.22 512.025 L1709.25 514.698 L1705.28 516.741 L1701.31 520.121 L1697.33 522.437 L1693.36 525.217 L1689.39 527.858 L1685.42 529.339 L1681.44 532.127 L1677.47 534.77 L1673.5 538.031 L1669.53 539.711 L1665.56 541.419 L1661.58 544.203 L1657.61 546.947 L1653.64 549.696 L1649.67 551.709 L1645.69 555.712 L1641.72 558.736 L1637.75 562.391 L1633.78 565.769 L1629.8 568.86 L1625.83 571.403 L1621.86 573.534 L1617.89 575.173 L1613.92 577.755 L1609.94 578.81 L1605.97 580.755 L1602 584.197 L1598.03 586.621 L1594.05 588.008 L1590.08 588.9 L1586.11 592.005 L1582.14 593.528 L1578.17 596.173 L1574.19 598.304 L1570.22 600.898 L1566.25 603.044 L1562.28 604.846 L1558.3 608.1 L1554.33 610.256 L1550.36 612.047 L1546.39 613.674 L1542.42 616.717 L1538.44 618.946 L1534.47 621.22 L1530.5 623.504 L1526.53 626.474 L1522.55 630.094 L1518.58 632.432 L1514.61 634.274 L1510.64 637.076 L1506.66 640.572 L1502.69 641.632 L1498.72 644.676 L1494.75 647.947 L1490.78 649.379 L1486.8 651.642 L1482.83 653.335 L1478.86 655.868 L1474.89 659.727 L1470.91 663.312 L1466.94 665.741 L1462.97 668.648 L1459 671.506 L1455.03 675.27 L1451.05 676.783 L1447.08 679.406 L1443.11 681.96 L1439.14 685.276 L1435.16 687.117 L1431.19 689.12 L1427.22 691.279 L1423.25 693.872 L1419.28 695.778 L1415.3 697.847 L1411.33 700.366 L1407.36 702.331 L1403.39 704.374 L1399.41 706.993 L1395.44 709.596 L1391.47 712.333 L1387.5 714.546 L1383.52 716.543 L1379.55 718.323 L1375.58 720.769 L1371.61 723.127 L1367.64 725.421 L1363.66 727.056 L1359.69 728.467 L1355.72 731.716 L1351.75 735.252 L1347.77 737.216 L1343.8 739.875 L1339.83 742.396 L1335.86 744.847 L1331.89 747.079 L1327.91 749.56 L1323.94 752.952 L1319.97 755.35 L1316 757.237 L1312.02 760.499 L1308.05 763.378 L1304.08 766.653 L1300.11 768.295 L1296.14 771.295 L1292.16 774.531 L1288.19 776.564 L1284.22 779.516 L1280.25 782.334 L1276.27 784.426 L1272.3 786.119 L1268.33 787.777 L1264.36 790.303 L1260.38 793.071 L1256.41 795.451 L1252.44 798.916 L1248.47 801.93 L1244.5 803.884 L1240.52 807.485 L1236.55 810.81 L1232.58 813.418 L1228.61 816.876 L1224.63 820.345 L1220.66 822.897 L1216.69 824.693 L1212.72 827.415 L1208.75 829.976 L1204.77 832.764 L1200.8 835.651 L1196.83 837.136 L1192.86 840.47 L1188.88 842.912 L1184.91 846.096 L1180.94 847.396 L1176.97 850.607 L1173 853.124 L1169.02 855.737 L1165.05 858.548 L1161.08 860.789 L1157.11 864.404 L1153.13 867.215 L1149.16 869.608 L1145.19 872.294 L1141.22 874.327 L1137.24 876.954 L1133.27 879.518 L1129.3 880.775 L1125.33 882.95 L1121.36 885.702 L1117.38 887.263 L1113.41 889.549 L1109.44 891.832 L1105.47 894.167 L1101.49 896.821 L1097.52 899.638 L1093.55 902.437 L1089.58 905.214 L1085.61 907.547 L1081.63 911.033 L1077.66 913.952 L1073.69 916.886 L1069.72 919.198 L1065.74 922.203 L1061.77 924.57 L1057.8 927.189 L1053.83 928.8 L1049.86 931.004 L1045.88 933.823 L1041.91 936.713 L1037.94 939.18 L1033.97 942.271 L1029.99 945.279 L1026.02 947.653 L1022.05 949.949 L1018.08 952.209 L1014.1 955.48 L1010.13 958.172 L1006.16 959.984 L1002.19 962.067 L998.216 964.844 L994.243 968.12 L990.271 971.984 L986.299 974.666 L982.327 977.008 L978.354 978.87 L974.382 981.68 L970.41 984.198 L966.438 987.155 L962.465 989.336 L958.493 990.52 L954.521 993.532 L950.549 994.778 L946.576 997.504 L942.604 999.388 L938.632 1001.66 L934.659 1003.55 L930.687 1006.18 L926.715 1008.51 L922.743 1010.97 L918.77 1012.99 L914.798 1014.86 L910.826 1016.51 L906.854 1019.61 L902.881 1022.37 L898.909 1025.14 L894.937 1027.93 L890.965 1030.33 L886.992 1033.65 L883.02 1036.04 L879.048 1037.88 L875.076 1040.82 L871.103 1044.28 L867.131 1046.77 L863.159 1048.93 L859.187 1051.92 L855.214 1053.87 L851.242 1055.51 L847.27 1057.83 L843.298 1060.14 L839.325 1062.63 L835.353 1066.47 L831.381 1069.62 L827.409 1072.64 L823.436 1075.06 L819.464 1078.29 L815.492 1080.4 L811.519 1082.57 L807.547 1083.69 L803.575 1085.9 L799.603 1088.6 L795.63 1090.87 L791.658 1092.73 L787.686 1095.44 L783.714 1098.09 L779.741 1102.82 L775.769 1104.55 L771.797 1106.41 L767.825 1109.21 L763.852 1111.7 L759.88 1113.86 L755.908 1116.32 L751.936 1118.66 L747.963 1121.3 L743.991 1123.82 L740.019 1125.89 L736.047 1128.25 L732.074 1130.36 L728.102 1133.34 L724.13 1136.05 L720.158 1138.14 L716.185 1140.3 L712.213 1142.37 L708.241 1144.39 L704.268 1146.58 L700.296 1149.61 L696.324 1151.78 L692.352 1154.47 L688.379 1157.72 L684.407 1160.34 L680.435 1163.22 L676.463 1166.54 L672.49 1170.21 L668.518 1173.36 L664.546 1175.9 L660.574 1179.31 L656.601 1182.68 L652.629 1186.22 L648.657 1189.18 L644.685 1191.95 L640.712 1194.19 L636.74 1197 L632.768 1199.96 L628.796 1201.85 L624.823 1205.26 L620.851 1207.44 L616.879 1209.01 L612.907 1210.76 L608.934 1212.85 L604.962 1215.88 L600.99 1218.25 L597.017 1220.97 L593.045 1223.69 L589.073 1226.85 L585.101 1229.7 L581.128 1230.86 L577.156 1234.05 L573.184 1236.33 L569.212 1238.07 L565.239 1240.44 L561.267 1243.97 L557.295 1246.28 L553.323 1249 L549.35 1251.91 L545.378 1254.84 L541.406 1257.37 L537.434 1259.19 L533.461 1262.03 L529.489 1263.93 L525.517 1267 L521.545 1269.49 L517.572 1272.01 L513.6 1273.99 L509.628 1276.43 L505.656 1278.37 L501.683 1280.57 L497.711 1282.9 L493.739 1285.21 L489.767 1287.42 L485.794 1290.65 L481.822 1293.06 L477.85 1296.73 L473.877 1298.77 L469.905 1301.4 L465.933 1304.14 L461.961 1306.18 L457.988 1308.24 L454.016 1311.59 L450.044 1314.71 L446.072 1317.26 L442.099 1320.13 L438.127 1323.04 L434.155 1324.59 L430.183 1326.57 L426.21 1328.99 L422.238 1332.17 L418.266 1334.06 L414.294 1335.6 L410.321 1337.94 L406.349 1341.43 L402.377 1343.95 L398.405 1345.34 L394.432 1347.92 L390.46 1350.19 L386.488 1353.31 L382.516 1355.95 L378.543 1358.68 L374.571 1361.6 L370.599 1364.33 L366.626 1366.02 L362.654 1368.79 L358.682 1371.66 L354.71 1373.71 L350.737 1375.35 L346.765 1377.07 L342.793 1378.24 L338.821 1379.86 L334.848 1380.97 L330.876 1382.11 L326.904 1383.64 L322.932 1384.84 L318.959 1385.55 L314.987 1385.96 L311.015 1386.4 L307.043 1386.4  Z" fill="#009af9" fill-rule="evenodd" fill-opacity="0.5"/>
<polyline clip-path="url(#clip022)" style="stroke:#009af9; stroke-linecap:round; stroke-linejoin:round; stroke-width:8; stroke-opacity:1; fill:none" points="307.043,1386.4 311.015,1386.4 314.987,1386.14 318.959,1385.87 322.932,1385.31 326.904,1384.24 330.876,1382.85 334.848,1381.84 338.821,1380.84 342.793,1379.33 346.765,1378.25 350.737,1376.66 354.71,1375.17 358.682,1373.23 362.654,1370.46 366.626,1367.78 370.599,1366.19 374.571,1363.58 378.543,1360.8 382.516,1358.19 386.488,1355.63 390.46,1352.57 394.432,1350.39 398.405,1347.9 402.377,1346.6 406.349,1344.11 410.321,1340.72 414.294,1338.47 418.266,1337.01 422.238,1335.18 426.21,1332.02 430.183,1329.68 434.155,1327.76 438.127,1326.29 442.099,1323.44 446.072,1320.65 450.044,1318.13 454.016,1315.02 457.988,1311.74 461.961,1309.72 465.933,1307.67 469.905,1304.95 473.877,1302.37 477.85,1300.37 481.822,1296.75 485.794,1294.35 489.767,1291.18 493.739,1289.01 497.711,1286.77 501.683,1284.45 505.656,1282.3 509.628,1280.41 513.6,1278.02 517.572,1276.16 521.545,1273.67 525.517,1271.2 529.489,1268.19 533.461,1266.36 537.434,1263.59 541.406,1261.82 545.378,1259.33 549.35,1256.43 553.323,1253.59 557.295,1250.92 561.267,1248.62 565.239,1245.12 569.212,1242.81 573.184,1241.1 577.156,1238.88 581.128,1235.72 585.101,1234.61 589.073,1231.82 593.045,1228.7 597.017,1226 600.99,1223.28 604.962,1220.91 608.934,1217.93 612.907,1215.9 616.879,1214.15 620.851,1212.62 624.823,1210.48 628.796,1207.08 632.768,1205.25 636.74,1202.34 640.712,1199.54 644.685,1197.34 648.657,1194.59 652.629,1191.63 656.601,1188.1 660.574,1184.78 664.546,1181.41 668.518,1178.89 672.49,1175.79 676.463,1172.1 680.435,1168.81 684.407,1165.96 688.379,1163.38 692.352,1160.15 696.324,1157.51 700.296,1155.37 704.268,1152.39 708.241,1150.25 712.213,1148.27 716.185,1146.27 720.158,1144.12 724.13,1142.07 728.102,1139.41 732.074,1136.45 736.047,1134.37 740.019,1132.05 743.991,1129.99 747.963,1127.52 751.936,1124.87 755.908,1122.57 759.88,1120.12 763.852,1117.96 767.825,1115.5 771.797,1112.72 775.769,1110.87 779.741,1109.15 783.714,1104.45 787.686,1101.81 791.658,1099.1 795.63,1097.24 799.603,1094.98 803.575,1092.3 807.547,1090.16 811.519,1089.09 815.492,1086.92 819.464,1084.84 823.436,1081.67 827.409,1079.27 831.381,1076.25 835.353,1073.11 839.325,1069.28 843.298,1066.83 847.27,1064.55 851.242,1062.26 855.214,1060.64 859.187,1058.69 863.159,1055.73 867.131,1053.57 871.103,1051.11 875.076,1047.66 879.048,1044.79 883.02,1042.95 886.992,1040.53 890.965,1037.21 894.937,1034.83 898.909,1032.07 902.881,1029.31 906.854,1026.6 910.826,1023.53 914.798,1021.89 918.77,1020.05 922.743,1018.03 926.715,1015.57 930.687,1013.28 934.659,1010.7 938.632,1008.81 942.604,1006.58 946.576,1004.71 950.549,1001.97 954.521,1000.74 958.493,997.762 962.465,996.602 966.438,994.422 970.41,991.502 974.382,989.054 978.354,986.298 982.327,984.491 986.299,982.171 990.271,979.513 994.243,975.631 998.216,972.395 1002.19,969.668 1006.16,967.585 1010.13,965.815 1014.1,963.107 1018.08,959.854 1022.05,957.606 1026.02,955.334 1029.99,952.981 1033.97,949.989 1037.94,946.883 1041.91,944.459 1045.88,941.601 1049.86,938.79 1053.83,936.585 1057.8,934.974 1061.77,932.382 1065.74,930.056 1069.72,927.08 1073.69,924.778 1077.66,921.854 1081.63,918.98 1085.61,915.524 1089.58,913.253 1093.55,910.481 1097.52,907.721 1101.49,904.904 1105.47,902.246 1109.44,899.916 1113.41,897.678 1117.38,895.419 1121.36,893.901 1125.33,891.164 1129.3,889.009 1133.27,887.796 1137.24,885.288 1141.22,882.653 1145.19,880.622 1149.16,877.947 1153.13,875.598 1157.11,872.799 1161.08,869.193 1165.05,866.995 1169.02,864.214 1173,861.597 1176.97,859.138 1180.94,855.955 1184.91,854.662 1188.88,851.51 1192.86,849.105 1196.83,845.816 1200.8,844.349 1204.77,841.432 1208.75,838.651 1212.72,836.124 1216.69,833.437 1220.66,831.68 1224.63,829.151 1228.61,825.742 1232.58,822.326 1236.55,819.714 1240.52,816.412 1244.5,812.831 1248.47,810.889 1252.44,807.887 1256.41,804.459 1260.38,802.074 1264.36,799.313 1268.33,796.801 1272.3,795.141 1276.27,793.454 1280.25,791.376 1284.22,788.578 1288.19,785.62 1292.16,783.592 1296.14,780.369 1300.11,777.397 1304.08,775.786 1308.05,772.543 1312.02,769.651 1316,766.42 1319.97,764.556 1323.94,762.177 1327.91,758.823 1331.89,756.338 1335.86,754.143 1339.83,751.696 1343.8,749.22 1347.77,746.555 1351.75,744.576 1355.72,741.049 1359.69,737.825 1363.66,736.424 1367.64,734.855 1371.61,732.558 1375.58,730.201 1379.55,727.774 1383.52,725.987 1387.5,724.01 1391.47,721.811 1395.44,719.089 1399.41,716.508 1403.39,713.909 1407.36,711.873 1411.33,709.93 1415.3,707.439 1419.28,705.381 1423.25,703.465 1427.22,700.924 1431.19,698.778 1435.16,696.788 1439.14,694.926 1443.11,691.625 1447.08,689.1 1451.05,686.486 1455.03,685.014 1459,681.269 1462.97,678.429 1466.94,675.521 1470.91,673.106 1474.89,669.544 1478.86,665.697 1482.83,663.195 1486.8,661.547 1490.78,659.269 1494.75,657.874 1498.72,654.606 1502.69,651.579 1506.66,650.551 1510.64,647.061 1514.61,644.272 1518.58,642.438 1522.55,640.08 1526.53,636.493 1530.5,633.515 1534.47,631.274 1538.44,629.019 1542.42,626.831 1546.39,623.795 1550.36,622.185 1554.33,620.428 1558.3,618.28 1562.28,615.021 1566.25,613.219 1570.22,611.101 1574.19,608.535 1578.17,606.435 1582.14,603.814 1586.11,602.302 1590.08,599.199 1594.05,598.353 1598.03,596.995 1602,594.595 1605.97,591.161 1609.94,589.249 1613.92,588.207 1617.89,585.627 1621.86,583.988 1625.83,581.898 1629.8,579.358 1633.78,576.295 1637.75,572.936 1641.72,569.305 1645.69,566.308 1649.67,562.33 1653.64,560.327 1657.61,557.574 1661.58,554.87 1665.56,552.07 1669.53,550.381 1673.5,548.739 1677.47,545.505 1681.44,542.868 1685.42,540.102 1689.39,538.647 1693.36,536.01 1697.33,533.238 1701.31,530.937 1705.28,527.581 1709.25,525.56 1713.22,522.893 1717.19,520.213 1721.17,518.202 1725.14,515.717 1729.11,514.006 1733.08,511.31 1737.06,508.045 1741.03,504.884 1745,503.093 1748.97,500.312 1752.94,498.785 1756.92,495.687 1760.89,492.417 1764.86,489.207 1768.83,486.655 1772.81,483.777 1776.78,482.738 1780.75,480.438 1784.72,478.419 1788.7,476.853 1792.67,475.152 1796.64,472.186 1800.61,470.086 1804.58,467.782 1808.56,466.164 1812.53,462.916 1816.5,460.637 1820.47,456.949 1824.45,455.242 1828.42,452.686 1832.39,451.154 1836.36,448.561 1840.33,446.483 1844.31,443.971 1848.28,441.432 1852.25,439.782 1856.22,437.321 1860.2,436.266 1864.17,432.492 1868.14,429.421 1872.11,426.789 1876.08,424.833 1880.06,421.951 1884.03,419.175 1888,417.585 1891.97,414.785 1895.95,412.171 1899.92,409.74 1903.89,407.733 1907.86,406.179 1911.84,404.991 1915.81,403.064 1919.78,401.509 1923.75,399.449 1927.72,396.228 1931.7,392.998 1935.67,390.707 1939.64,387.778 1943.61,385.662 1947.59,382.859 1951.56,380.31 1955.53,377.285 1959.5,375.032 1963.47,371.263 1967.45,368.203 1971.42,365.91 1975.39,364.06 1979.36,362.661 1983.34,360.556 1987.31,357.769 1991.28,355.616 1995.25,353.686 1999.22,350.694 2003.2,347.828 2007.17,345.148 2011.14,342.793 2015.11,341.259 2019.09,339.357 2023.06,336.351 2027.03,334.753 2031,332.877 2034.98,330.417 2038.95,327.447 2042.92,324.57 2046.89,321.097 2050.86,318.272 2054.84,316.074 2058.81,311.965 2062.78,310.66 2066.75,308.471 2070.73,305.232 2074.7,303.074 2078.67,300.251 2082.64,298.028 2086.61,296.741 2090.59,294.042 2094.56,292.583 2098.53,289.801 2102.5,286.561 2106.48,284.542 2110.45,280.956 2114.42,277.95 2118.39,275.006 2122.36,273.742 2126.34,271.23 2130.31,268.201 2134.28,265.986 2138.25,263.898 2142.23,260.561 2146.2,257.969 2150.17,256.197 2154.14,253.085 2158.12,250.917 2162.09,248.918 2166.06,246.215 2170.03,244.462 2174,242.651 2177.98,239.929 2181.95,237.667 2185.92,234.111 2189.89,230.47 2193.87,228.008 2197.84,225.885 2201.81,223.816 2205.78,220.877 2209.75,218.92 2213.73,217.548 2217.7,215.682 2221.67,213.372 2225.64,211.082 2229.62,208.186 2233.59,205.987 2237.56,204.593 2241.53,202.94 2245.5,200.206 2249.48,196.972 2253.45,194.134 2257.42,192.025 2261.39,189.251 2265.37,187.856 2269.34,185.157 2273.31,182.391 2277.28,181.486 2281.26,179.494 2285.23,177.44 2289.2,174.954 2293.17,173.052 "/>
</svg>
