<?xml version="1.0" encoding="utf-8"?>
<svg xmlns="http://www.w3.org/2000/svg" xmlns:xlink="http://www.w3.org/1999/xlink" width="600" height="400" viewBox="0 0 2400 1600">
<defs>
  <clipPath id="clip050">
    <rect x="0" y="0" width="2400" height="1600"/>
  </clipPath>
</defs>
<path clip-path="url(#clip050)" d="M0 1600 L2400 1600 L2400 0 L0 0  Z" fill="#ffffff" fill-rule="evenodd" fill-opacity="1"/>
<defs>
  <clipPath id="clip051">
    <rect x="247" y="123" width="2106" height="1301"/>
  </clipPath>
</defs>
<path clip-path="url(#clip050)" d="M202.227 1423.18 L2352.76 1423.18 L2352.76 123.472 L202.227 123.472  Z" fill="#ffffff" fill-rule="evenodd" fill-opacity="1"/>
<defs>
  <clipPath id="clip052">
    <rect x="202" y="123" width="2152" height="1301"/>
  </clipPath>
</defs>
<polyline clip-path="url(#clip052)" style="stroke:#000000; stroke-linecap:round; stroke-linejoin:round; stroke-width:2; stroke-opacity:0.1; fill:none" points="263.091,1423.18 263.091,123.472 "/>
<polyline clip-path="url(#clip052)" style="stroke:#000000; stroke-linecap:round; stroke-linejoin:round; stroke-width:2; stroke-opacity:0.1; fill:none" points="770.292,1423.18 770.292,123.472 "/>
<polyline clip-path="url(#clip052)" style="stroke:#000000; stroke-linecap:round; stroke-linejoin:round; stroke-width:2; stroke-opacity:0.1; fill:none" points="1277.49,1423.18 1277.49,123.472 "/>
<polyline clip-path="url(#clip052)" style="stroke:#000000; stroke-linecap:round; stroke-linejoin:round; stroke-width:2; stroke-opacity:0.1; fill:none" points="1784.69,1423.18 1784.69,123.472 "/>
<polyline clip-path="url(#clip052)" style="stroke:#000000; stroke-linecap:round; stroke-linejoin:round; stroke-width:2; stroke-opacity:0.1; fill:none" points="2291.89,1423.18 2291.89,123.472 "/>
<polyline clip-path="url(#clip052)" style="stroke:#000000; stroke-linecap:round; stroke-linejoin:round; stroke-width:2; stroke-opacity:0.1; fill:none" points="202.227,1386.4 2352.76,1386.4 "/>
<polyline clip-path="url(#clip052)" style="stroke:#000000; stroke-linecap:round; stroke-linejoin:round; stroke-width:2; stroke-opacity:0.1; fill:none" points="202.227,1050.21 2352.76,1050.21 "/>
<polyline clip-path="url(#clip052)" style="stroke:#000000; stroke-linecap:round; stroke-linejoin:round; stroke-width:2; stroke-opacity:0.1; fill:none" points="202.227,714.015 2352.76,714.015 "/>
<polyline clip-path="url(#clip052)" style="stroke:#000000; stroke-linecap:round; stroke-linejoin:round; stroke-width:2; stroke-opacity:0.1; fill:none" points="202.227,377.824 2352.76,377.824 "/>
<polyline clip-path="url(#clip050)" style="stroke:#000000; stroke-linecap:round; stroke-linejoin:round; stroke-width:4; stroke-opacity:1; fill:none" points="202.227,1423.18 2352.76,1423.18 "/>
<polyline clip-path="url(#clip050)" style="stroke:#000000; stroke-linecap:round; stroke-linejoin:round; stroke-width:4; stroke-opacity:1; fill:none" points="263.091,1423.18 263.091,1404.28 "/>
<polyline clip-path="url(#clip050)" style="stroke:#000000; stroke-linecap:round; stroke-linejoin:round; stroke-width:4; stroke-opacity:1; fill:none" points="770.292,1423.18 770.292,1404.28 "/>
<polyline clip-path="url(#clip050)" style="stroke:#000000; stroke-linecap:round; stroke-linejoin:round; stroke-width:4; stroke-opacity:1; fill:none" points="1277.49,1423.18 1277.49,1404.28 "/>
<polyline clip-path="url(#clip050)" style="stroke:#000000; stroke-linecap:round; stroke-linejoin:round; stroke-width:4; stroke-opacity:1; fill:none" points="1784.69,1423.18 1784.69,1404.28 "/>
<polyline clip-path="url(#clip050)" style="stroke:#000000; stroke-linecap:round; stroke-linejoin:round; stroke-width:4; stroke-opacity:1; fill:none" points="2291.89,1423.18 2291.89,1404.28 "/>
<path clip-path="url(#clip050)" d="M240.476 1454.1 Q236.865 1454.1 235.036 1457.66 Q233.231 1461.2 233.231 1468.33 Q233.231 1475.44 235.036 1479.01 Q236.865 1482.55 240.476 1482.55 Q244.11 1482.55 245.916 1479.01 Q247.744 1475.44 247.744 1468.33 Q247.744 1461.2 245.916 1457.66 Q244.11 1454.1 240.476 1454.1 M240.476 1450.39 Q246.286 1450.39 249.342 1455 Q252.42 1459.58 252.42 1468.33 Q252.42 1477.06 249.342 1481.67 Q246.286 1486.25 240.476 1486.25 Q234.666 1486.25 231.587 1481.67 Q228.531 1477.06 228.531 1468.33 Q228.531 1459.58 231.587 1455 Q234.666 1450.39 240.476 1450.39 Z" fill="#000000" fill-rule="nonzero" fill-opacity="1" /><path clip-path="url(#clip050)" d="M260.638 1479.7 L265.522 1479.7 L265.522 1485.58 L260.638 1485.58 L260.638 1479.7 Z" fill="#000000" fill-rule="nonzero" fill-opacity="1" /><path clip-path="url(#clip050)" d="M285.707 1454.1 Q282.096 1454.1 280.267 1457.66 Q278.462 1461.2 278.462 1468.33 Q278.462 1475.44 280.267 1479.01 Q282.096 1482.55 285.707 1482.55 Q289.341 1482.55 291.147 1479.01 Q292.976 1475.44 292.976 1468.33 Q292.976 1461.2 291.147 1457.66 Q289.341 1454.1 285.707 1454.1 M285.707 1450.39 Q291.517 1450.39 294.573 1455 Q297.651 1459.58 297.651 1468.33 Q297.651 1477.06 294.573 1481.67 Q291.517 1486.25 285.707 1486.25 Q279.897 1486.25 276.818 1481.67 Q273.763 1477.06 273.763 1468.33 Q273.763 1459.58 276.818 1455 Q279.897 1450.39 285.707 1450.39 Z" fill="#000000" fill-rule="nonzero" fill-opacity="1" /><path clip-path="url(#clip050)" d="M742.028 1481.64 L758.347 1481.64 L758.347 1485.58 L736.403 1485.58 L736.403 1481.64 Q739.065 1478.89 743.648 1474.26 Q748.255 1469.61 749.435 1468.27 Q751.681 1465.74 752.56 1464.01 Q753.463 1462.25 753.463 1460.56 Q753.463 1457.8 751.519 1456.07 Q749.597 1454.33 746.495 1454.33 Q744.296 1454.33 741.843 1455.09 Q739.412 1455.86 736.634 1457.41 L736.634 1452.69 Q739.458 1451.55 741.912 1450.97 Q744.366 1450.39 746.403 1450.39 Q751.773 1450.39 754.968 1453.08 Q758.162 1455.77 758.162 1460.26 Q758.162 1462.39 757.352 1464.31 Q756.565 1466.2 754.458 1468.8 Q753.88 1469.47 750.778 1472.69 Q747.676 1475.88 742.028 1481.64 Z" fill="#000000" fill-rule="nonzero" fill-opacity="1" /><path clip-path="url(#clip050)" d="M768.162 1479.7 L773.046 1479.7 L773.046 1485.58 L768.162 1485.58 L768.162 1479.7 Z" fill="#000000" fill-rule="nonzero" fill-opacity="1" /><path clip-path="url(#clip050)" d="M783.278 1451.02 L801.634 1451.02 L801.634 1454.96 L787.56 1454.96 L787.56 1463.43 Q788.579 1463.08 789.597 1462.92 Q790.616 1462.73 791.634 1462.73 Q797.421 1462.73 800.801 1465.9 Q804.18 1469.08 804.18 1474.49 Q804.18 1480.07 800.708 1483.17 Q797.236 1486.25 790.916 1486.25 Q788.741 1486.25 786.472 1485.88 Q784.227 1485.51 781.819 1484.77 L781.819 1480.07 Q783.903 1481.2 786.125 1481.76 Q788.347 1482.32 790.824 1482.32 Q794.828 1482.32 797.166 1480.21 Q799.504 1478.1 799.504 1474.49 Q799.504 1470.88 797.166 1468.77 Q794.828 1466.67 790.824 1466.67 Q788.949 1466.67 787.074 1467.08 Q785.222 1467.5 783.278 1468.38 L783.278 1451.02 Z" fill="#000000" fill-rule="nonzero" fill-opacity="1" /><path clip-path="url(#clip050)" d="M1244.66 1451.02 L1263.01 1451.02 L1263.01 1454.96 L1248.94 1454.96 L1248.94 1463.43 Q1249.96 1463.08 1250.98 1462.92 Q1251.99 1462.73 1253.01 1462.73 Q1258.8 1462.73 1262.18 1465.9 Q1265.56 1469.08 1265.56 1474.49 Q1265.56 1480.07 1262.09 1483.17 Q1258.61 1486.25 1252.3 1486.25 Q1250.12 1486.25 1247.85 1485.88 Q1245.61 1485.51 1243.2 1484.77 L1243.2 1480.07 Q1245.28 1481.2 1247.5 1481.76 Q1249.73 1482.32 1252.2 1482.32 Q1256.21 1482.32 1258.55 1480.21 Q1260.88 1478.1 1260.88 1474.49 Q1260.88 1470.88 1258.55 1468.77 Q1256.21 1466.67 1252.2 1466.67 Q1250.33 1466.67 1248.45 1467.08 Q1246.6 1467.5 1244.66 1468.38 L1244.66 1451.02 Z" fill="#000000" fill-rule="nonzero" fill-opacity="1" /><path clip-path="url(#clip050)" d="M1274.77 1479.7 L1279.66 1479.7 L1279.66 1485.58 L1274.77 1485.58 L1274.77 1479.7 Z" fill="#000000" fill-rule="nonzero" fill-opacity="1" /><path clip-path="url(#clip050)" d="M1299.84 1454.1 Q1296.23 1454.1 1294.4 1457.66 Q1292.6 1461.2 1292.6 1468.33 Q1292.6 1475.44 1294.4 1479.01 Q1296.23 1482.55 1299.84 1482.55 Q1303.48 1482.55 1305.28 1479.01 Q1307.11 1475.44 1307.11 1468.33 Q1307.11 1461.2 1305.28 1457.66 Q1303.48 1454.1 1299.84 1454.1 M1299.84 1450.39 Q1305.65 1450.39 1308.71 1455 Q1311.79 1459.58 1311.79 1468.33 Q1311.79 1477.06 1308.71 1481.67 Q1305.65 1486.25 1299.84 1486.25 Q1294.03 1486.25 1290.95 1481.67 Q1287.9 1477.06 1287.9 1468.33 Q1287.9 1459.58 1290.95 1455 Q1294.03 1450.39 1299.84 1450.39 Z" fill="#000000" fill-rule="nonzero" fill-opacity="1" /><path clip-path="url(#clip050)" d="M1751.01 1451.02 L1773.23 1451.02 L1773.23 1453.01 L1760.69 1485.58 L1755.8 1485.58 L1767.61 1454.96 L1751.01 1454.96 L1751.01 1451.02 Z" fill="#000000" fill-rule="nonzero" fill-opacity="1" /><path clip-path="url(#clip050)" d="M1782.35 1479.7 L1787.24 1479.7 L1787.24 1485.58 L1782.35 1485.58 L1782.35 1479.7 Z" fill="#000000" fill-rule="nonzero" fill-opacity="1" /><path clip-path="url(#clip050)" d="M1797.47 1451.02 L1815.83 1451.02 L1815.83 1454.96 L1801.75 1454.96 L1801.75 1463.43 Q1802.77 1463.08 1803.79 1462.92 Q1804.81 1462.73 1805.83 1462.73 Q1811.61 1462.73 1814.99 1465.9 Q1818.37 1469.08 1818.37 1474.49 Q1818.37 1480.07 1814.9 1483.17 Q1811.43 1486.25 1805.11 1486.25 Q1802.93 1486.25 1800.66 1485.88 Q1798.42 1485.51 1796.01 1484.77 L1796.01 1480.07 Q1798.09 1481.2 1800.32 1481.76 Q1802.54 1482.32 1805.02 1482.32 Q1809.02 1482.32 1811.36 1480.21 Q1813.7 1478.1 1813.7 1474.49 Q1813.7 1470.88 1811.36 1468.77 Q1809.02 1466.67 1805.02 1466.67 Q1803.14 1466.67 1801.27 1467.08 Q1799.41 1467.5 1797.47 1468.38 L1797.47 1451.02 Z" fill="#000000" fill-rule="nonzero" fill-opacity="1" /><path clip-path="url(#clip050)" d="M2243.96 1481.64 L2251.6 1481.64 L2251.6 1455.28 L2243.29 1456.95 L2243.29 1452.69 L2251.56 1451.02 L2256.23 1451.02 L2256.23 1481.64 L2263.87 1481.64 L2263.87 1485.58 L2243.96 1485.58 L2243.96 1481.64 Z" fill="#000000" fill-rule="nonzero" fill-opacity="1" /><path clip-path="url(#clip050)" d="M2283.32 1454.1 Q2279.7 1454.1 2277.88 1457.66 Q2276.07 1461.2 2276.07 1468.33 Q2276.07 1475.44 2277.88 1479.01 Q2279.7 1482.55 2283.32 1482.55 Q2286.95 1482.55 2288.76 1479.01 Q2290.58 1475.44 2290.58 1468.33 Q2290.58 1461.2 2288.76 1457.66 Q2286.95 1454.1 2283.32 1454.1 M2283.32 1450.39 Q2289.13 1450.39 2292.18 1455 Q2295.26 1459.58 2295.26 1468.33 Q2295.26 1477.06 2292.18 1481.67 Q2289.13 1486.25 2283.32 1486.25 Q2277.51 1486.25 2274.43 1481.67 Q2271.37 1477.06 2271.37 1468.33 Q2271.37 1459.58 2274.43 1455 Q2277.51 1450.39 2283.32 1450.39 Z" fill="#000000" fill-rule="nonzero" fill-opacity="1" /><path clip-path="url(#clip050)" d="M2303.48 1479.7 L2308.36 1479.7 L2308.36 1485.58 L2303.48 1485.58 L2303.48 1479.7 Z" fill="#000000" fill-rule="nonzero" fill-opacity="1" /><path clip-path="url(#clip050)" d="M2328.55 1454.1 Q2324.94 1454.1 2323.11 1457.66 Q2321.3 1461.2 2321.3 1468.33 Q2321.3 1475.44 2323.11 1479.01 Q2324.94 1482.55 2328.55 1482.55 Q2332.18 1482.55 2333.99 1479.01 Q2335.82 1475.44 2335.82 1468.33 Q2335.82 1461.2 2333.99 1457.66 Q2332.18 1454.1 2328.55 1454.1 M2328.55 1450.39 Q2334.36 1450.39 2337.41 1455 Q2340.49 1459.58 2340.49 1468.33 Q2340.49 1477.06 2337.41 1481.67 Q2334.36 1486.25 2328.55 1486.25 Q2322.74 1486.25 2319.66 1481.67 Q2316.6 1477.06 2316.6 1468.33 Q2316.6 1459.58 2319.66 1455 Q2322.74 1450.39 2328.55 1450.39 Z" fill="#000000" fill-rule="nonzero" fill-opacity="1" /><path clip-path="url(#clip050)" d="M767.439 1520.52 L807.639 1520.52 L807.639 1525.93 L790.77 1525.93 L790.77 1568.04 L784.309 1568.04 L784.309 1525.93 L767.439 1525.93 L767.439 1520.52 Z" fill="#000000" fill-rule="nonzero" fill-opacity="1" /><path clip-path="url(#clip050)" d="M824.667 1537.87 Q823.68 1537.3 822.503 1537.04 Q821.357 1536.76 819.957 1536.76 Q814.991 1536.76 812.318 1540 Q809.676 1543.22 809.676 1549.27 L809.676 1568.04 L803.788 1568.04 L803.788 1532.4 L809.676 1532.4 L809.676 1537.93 Q811.522 1534.69 814.482 1533.13 Q817.442 1531.54 821.675 1531.54 Q822.28 1531.54 823.012 1531.63 Q823.744 1531.7 824.635 1531.85 L824.667 1537.87 Z" fill="#000000" fill-rule="nonzero" fill-opacity="1" /><path clip-path="url(#clip050)" d="M847.011 1550.12 Q839.913 1550.12 837.176 1551.75 Q834.439 1553.37 834.439 1557.29 Q834.439 1560.4 836.476 1562.25 Q838.544 1564.07 842.077 1564.07 Q846.947 1564.07 849.875 1560.63 Q852.835 1557.16 852.835 1551.43 L852.835 1550.12 L847.011 1550.12 M858.692 1547.71 L858.692 1568.04 L852.835 1568.04 L852.835 1562.63 Q850.83 1565.88 847.838 1567.44 Q844.846 1568.97 840.518 1568.97 Q835.043 1568.97 831.797 1565.91 Q828.582 1562.82 828.582 1557.67 Q828.582 1551.65 832.592 1548.6 Q836.635 1545.54 844.624 1545.54 L852.835 1545.54 L852.835 1544.97 Q852.835 1540.93 850.162 1538.73 Q847.52 1536.5 842.714 1536.5 Q839.658 1536.5 836.762 1537.23 Q833.866 1537.97 831.192 1539.43 L831.192 1534.02 Q834.407 1532.78 837.43 1532.17 Q840.454 1531.54 843.319 1531.54 Q851.053 1531.54 854.872 1535.55 Q858.692 1539.56 858.692 1547.71 Z" fill="#000000" fill-rule="nonzero" fill-opacity="1" /><path clip-path="url(#clip050)" d="M870.755 1532.4 L876.611 1532.4 L876.611 1568.68 Q876.611 1575.49 874.001 1578.55 Q871.423 1581.6 865.662 1581.6 L863.434 1581.6 L863.434 1576.64 L864.994 1576.64 Q868.336 1576.64 869.545 1575.08 Q870.755 1573.55 870.755 1568.68 L870.755 1532.4 M870.755 1518.52 L876.611 1518.52 L876.611 1525.93 L870.755 1525.93 L870.755 1518.52 Z" fill="#000000" fill-rule="nonzero" fill-opacity="1" /><path clip-path="url(#clip050)" d="M919.357 1548.76 L919.357 1551.62 L892.43 1551.62 Q892.812 1557.67 896.059 1560.85 Q899.337 1564 905.162 1564 Q908.535 1564 911.686 1563.17 Q914.869 1562.35 917.988 1560.69 L917.988 1566.23 Q914.837 1567.57 911.527 1568.27 Q908.217 1568.97 904.811 1568.97 Q896.281 1568.97 891.284 1564 Q886.319 1559.04 886.319 1550.57 Q886.319 1541.82 891.03 1536.69 Q895.772 1531.54 903.793 1531.54 Q910.986 1531.54 915.156 1536.18 Q919.357 1540.8 919.357 1548.76 M913.501 1547.04 Q913.437 1542.23 910.795 1539.37 Q908.185 1536.5 903.857 1536.5 Q898.955 1536.5 895.995 1539.27 Q893.067 1542.04 892.621 1547.07 L913.501 1547.04 Z" fill="#000000" fill-rule="nonzero" fill-opacity="1" /><path clip-path="url(#clip050)" d="M954.623 1533.76 L954.623 1539.24 Q952.14 1537.87 949.626 1537.2 Q947.143 1536.5 944.597 1536.5 Q938.9 1536.5 935.749 1540.13 Q932.598 1543.73 932.598 1550.25 Q932.598 1556.78 935.749 1560.4 Q938.9 1564 944.597 1564 Q947.143 1564 949.626 1563.33 Q952.14 1562.63 954.623 1561.26 L954.623 1566.68 Q952.172 1567.82 949.53 1568.39 Q946.921 1568.97 943.96 1568.97 Q935.908 1568.97 931.165 1563.91 Q926.423 1558.85 926.423 1550.25 Q926.423 1541.53 931.197 1536.53 Q936.003 1531.54 944.342 1531.54 Q947.048 1531.54 949.626 1532.11 Q952.204 1532.65 954.623 1533.76 Z" fill="#000000" fill-rule="nonzero" fill-opacity="1" /><path clip-path="url(#clip050)" d="M970.601 1522.27 L970.601 1532.4 L982.664 1532.4 L982.664 1536.95 L970.601 1536.95 L970.601 1556.3 Q970.601 1560.66 971.779 1561.9 Q972.988 1563.14 976.648 1563.14 L982.664 1563.14 L982.664 1568.04 L976.648 1568.04 Q969.869 1568.04 967.291 1565.53 Q964.713 1562.98 964.713 1556.3 L964.713 1536.95 L960.416 1536.95 L960.416 1532.4 L964.713 1532.4 L964.713 1522.27 L970.601 1522.27 Z" fill="#000000" fill-rule="nonzero" fill-opacity="1" /><path clip-path="url(#clip050)" d="M1004.18 1536.5 Q999.469 1536.5 996.732 1540.19 Q993.995 1543.85 993.995 1550.25 Q993.995 1556.65 996.7 1560.34 Q999.438 1564 1004.18 1564 Q1008.86 1564 1011.6 1560.31 Q1014.33 1556.62 1014.33 1550.25 Q1014.33 1543.92 1011.6 1540.23 Q1008.86 1536.5 1004.18 1536.5 M1004.18 1531.54 Q1011.82 1531.54 1016.18 1536.5 Q1020.54 1541.47 1020.54 1550.25 Q1020.54 1559 1016.18 1564 Q1011.82 1568.97 1004.18 1568.97 Q996.509 1568.97 992.149 1564 Q987.82 1559 987.82 1550.25 Q987.82 1541.47 992.149 1536.5 Q996.509 1531.54 1004.18 1531.54 Z" fill="#000000" fill-rule="nonzero" fill-opacity="1" /><path clip-path="url(#clip050)" d="M1050.9 1537.87 Q1049.92 1537.3 1048.74 1537.04 Q1047.59 1536.76 1046.19 1536.76 Q1041.23 1536.76 1038.55 1540 Q1035.91 1543.22 1035.91 1549.27 L1035.91 1568.04 L1030.02 1568.04 L1030.02 1532.4 L1035.91 1532.4 L1035.91 1537.93 Q1037.76 1534.69 1040.72 1533.13 Q1043.68 1531.54 1047.91 1531.54 Q1048.52 1531.54 1049.25 1531.63 Q1049.98 1531.7 1050.87 1531.85 L1050.9 1537.87 Z" fill="#000000" fill-rule="nonzero" fill-opacity="1" /><path clip-path="url(#clip050)" d="M1071.88 1571.35 Q1069.4 1577.72 1067.04 1579.66 Q1064.69 1581.6 1060.74 1581.6 L1056.06 1581.6 L1056.06 1576.7 L1059.5 1576.7 Q1061.92 1576.7 1063.25 1575.56 Q1064.59 1574.41 1066.21 1570.14 L1067.26 1567.47 L1052.85 1532.4 L1059.05 1532.4 L1070.19 1560.28 L1081.33 1532.4 L1087.54 1532.4 L1071.88 1571.35 Z" fill="#000000" fill-rule="nonzero" fill-opacity="1" /><path clip-path="url(#clip050)" d="M1123.03 1525.81 L1123.03 1562.76 L1130.79 1562.76 Q1140.63 1562.76 1145.18 1558.3 Q1149.76 1553.85 1149.76 1544.24 Q1149.76 1534.69 1145.18 1530.26 Q1140.63 1525.81 1130.79 1525.81 L1123.03 1525.81 M1116.6 1520.52 L1129.81 1520.52 Q1143.62 1520.52 1150.08 1526.28 Q1156.54 1532.01 1156.54 1544.24 Q1156.54 1556.52 1150.05 1562.28 Q1143.56 1568.04 1129.81 1568.04 L1116.6 1568.04 L1116.6 1520.52 Z" fill="#000000" fill-rule="nonzero" fill-opacity="1" /><path clip-path="url(#clip050)" d="M1165.93 1553.98 L1165.93 1532.4 L1171.79 1532.4 L1171.79 1553.75 Q1171.79 1558.81 1173.76 1561.36 Q1175.74 1563.87 1179.68 1563.87 Q1184.43 1563.87 1187.16 1560.85 Q1189.93 1557.83 1189.93 1552.61 L1189.93 1532.4 L1195.79 1532.4 L1195.79 1568.04 L1189.93 1568.04 L1189.93 1562.57 Q1187.8 1565.82 1184.97 1567.41 Q1182.17 1568.97 1178.44 1568.97 Q1172.3 1568.97 1169.12 1565.15 Q1165.93 1561.33 1165.93 1553.98 M1180.67 1531.54 L1180.67 1531.54 Z" fill="#000000" fill-rule="nonzero" fill-opacity="1" /><path clip-path="url(#clip050)" d="M1228.51 1537.87 Q1227.52 1537.3 1226.34 1537.04 Q1225.2 1536.76 1223.8 1536.76 Q1218.83 1536.76 1216.16 1540 Q1213.52 1543.22 1213.52 1549.27 L1213.52 1568.04 L1207.63 1568.04 L1207.63 1532.4 L1213.52 1532.4 L1213.52 1537.93 Q1215.36 1534.69 1218.32 1533.13 Q1221.28 1531.54 1225.52 1531.54 Q1226.12 1531.54 1226.85 1531.63 Q1227.58 1531.7 1228.48 1531.85 L1228.51 1537.87 Z" fill="#000000" fill-rule="nonzero" fill-opacity="1" /><path clip-path="url(#clip050)" d="M1250.85 1550.12 Q1243.75 1550.12 1241.02 1551.75 Q1238.28 1553.37 1238.28 1557.29 Q1238.28 1560.4 1240.32 1562.25 Q1242.38 1564.07 1245.92 1564.07 Q1250.79 1564.07 1253.72 1560.63 Q1256.68 1557.16 1256.68 1551.43 L1256.68 1550.12 L1250.85 1550.12 M1262.53 1547.71 L1262.53 1568.04 L1256.68 1568.04 L1256.68 1562.63 Q1254.67 1565.88 1251.68 1567.44 Q1248.69 1568.97 1244.36 1568.97 Q1238.88 1568.97 1235.64 1565.91 Q1232.42 1562.82 1232.42 1557.67 Q1232.42 1551.65 1236.43 1548.6 Q1240.48 1545.54 1248.46 1545.54 L1256.68 1545.54 L1256.68 1544.97 Q1256.68 1540.93 1254 1538.73 Q1251.36 1536.5 1246.55 1536.5 Q1243.5 1536.5 1240.6 1537.23 Q1237.71 1537.97 1235.03 1539.43 L1235.03 1534.02 Q1238.25 1532.78 1241.27 1532.17 Q1244.29 1531.54 1247.16 1531.54 Q1254.89 1531.54 1258.71 1535.55 Q1262.53 1539.56 1262.53 1547.71 Z" fill="#000000" fill-rule="nonzero" fill-opacity="1" /><path clip-path="url(#clip050)" d="M1280.39 1522.27 L1280.39 1532.4 L1292.45 1532.4 L1292.45 1536.95 L1280.39 1536.95 L1280.39 1556.3 Q1280.39 1560.66 1281.57 1561.9 Q1282.78 1563.14 1286.44 1563.14 L1292.45 1563.14 L1292.45 1568.04 L1286.44 1568.04 Q1279.66 1568.04 1277.08 1565.53 Q1274.5 1562.98 1274.5 1556.3 L1274.5 1536.95 L1270.2 1536.95 L1270.2 1532.4 L1274.5 1532.4 L1274.5 1522.27 L1280.39 1522.27 Z" fill="#000000" fill-rule="nonzero" fill-opacity="1" /><path clip-path="url(#clip050)" d="M1300.15 1532.4 L1306.01 1532.4 L1306.01 1568.04 L1300.15 1568.04 L1300.15 1532.4 M1300.15 1518.52 L1306.01 1518.52 L1306.01 1525.93 L1300.15 1525.93 L1300.15 1518.52 Z" fill="#000000" fill-rule="nonzero" fill-opacity="1" /><path clip-path="url(#clip050)" d="M1332.08 1536.5 Q1327.37 1536.5 1324.63 1540.19 Q1321.89 1543.85 1321.89 1550.25 Q1321.89 1556.65 1324.6 1560.34 Q1327.34 1564 1332.08 1564 Q1336.76 1564 1339.49 1560.31 Q1342.23 1556.62 1342.23 1550.25 Q1342.23 1543.92 1339.49 1540.23 Q1336.76 1536.5 1332.08 1536.5 M1332.08 1531.54 Q1339.72 1531.54 1344.08 1536.5 Q1348.44 1541.47 1348.44 1550.25 Q1348.44 1559 1344.08 1564 Q1339.72 1568.97 1332.08 1568.97 Q1324.41 1568.97 1320.05 1564 Q1315.72 1559 1315.72 1550.25 Q1315.72 1541.47 1320.05 1536.5 Q1324.41 1531.54 1332.08 1531.54 Z" fill="#000000" fill-rule="nonzero" fill-opacity="1" /><path clip-path="url(#clip050)" d="M1387.78 1546.53 L1387.78 1568.04 L1381.92 1568.04 L1381.92 1546.72 Q1381.92 1541.66 1379.95 1539.14 Q1377.97 1536.63 1374.03 1536.63 Q1369.29 1536.63 1366.55 1539.65 Q1363.81 1542.68 1363.81 1547.9 L1363.81 1568.04 L1357.92 1568.04 L1357.92 1532.4 L1363.81 1532.4 L1363.81 1537.93 Q1365.91 1534.72 1368.74 1533.13 Q1371.61 1531.54 1375.33 1531.54 Q1381.48 1531.54 1384.63 1535.36 Q1387.78 1539.14 1387.78 1546.53 Z" fill="#000000" fill-rule="nonzero" fill-opacity="1" /><path clip-path="url(#clip050)" d="M1434.25 1518.58 Q1429.98 1525.9 1427.91 1533.06 Q1425.84 1540.23 1425.84 1547.58 Q1425.84 1554.93 1427.91 1562.16 Q1430.01 1569.35 1434.25 1576.64 L1429.15 1576.64 Q1424.38 1569.16 1421.99 1561.93 Q1419.64 1554.71 1419.64 1547.58 Q1419.64 1540.48 1421.99 1533.29 Q1424.35 1526.09 1429.15 1518.58 L1434.25 1518.58 Z" fill="#000000" fill-rule="nonzero" fill-opacity="1" /><path clip-path="url(#clip050)" d="M1451.4 1522.27 L1451.4 1532.4 L1463.47 1532.4 L1463.47 1536.95 L1451.4 1536.95 L1451.4 1556.3 Q1451.4 1560.66 1452.58 1561.9 Q1453.79 1563.14 1457.45 1563.14 L1463.47 1563.14 L1463.47 1568.04 L1457.45 1568.04 Q1450.67 1568.04 1448.09 1565.53 Q1445.51 1562.98 1445.51 1556.3 L1445.51 1536.95 L1441.22 1536.95 L1441.22 1532.4 L1445.51 1532.4 L1445.51 1522.27 L1451.4 1522.27 Z" fill="#000000" fill-rule="nonzero" fill-opacity="1" /><path clip-path="url(#clip050)" d="M1471.17 1532.4 L1477.02 1532.4 L1477.02 1568.04 L1471.17 1568.04 L1471.17 1532.4 M1471.17 1518.52 L1477.02 1518.52 L1477.02 1525.93 L1471.17 1525.93 L1471.17 1518.52 Z" fill="#000000" fill-rule="nonzero" fill-opacity="1" /><path clip-path="url(#clip050)" d="M1517.03 1539.24 Q1519.23 1535.29 1522.28 1533.41 Q1525.34 1531.54 1529.48 1531.54 Q1535.05 1531.54 1538.07 1535.45 Q1541.1 1539.33 1541.1 1546.53 L1541.1 1568.04 L1535.21 1568.04 L1535.21 1546.72 Q1535.21 1541.59 1533.39 1539.11 Q1531.58 1536.63 1527.85 1536.63 Q1523.3 1536.63 1520.66 1539.65 Q1518.02 1542.68 1518.02 1547.9 L1518.02 1568.04 L1512.13 1568.04 L1512.13 1546.72 Q1512.13 1541.56 1510.32 1539.11 Q1508.5 1536.63 1504.72 1536.63 Q1500.23 1536.63 1497.59 1539.68 Q1494.94 1542.71 1494.94 1547.9 L1494.94 1568.04 L1489.06 1568.04 L1489.06 1532.4 L1494.94 1532.4 L1494.94 1537.93 Q1496.95 1534.66 1499.75 1533.1 Q1502.55 1531.54 1506.4 1531.54 Q1510.29 1531.54 1512.99 1533.51 Q1515.73 1535.48 1517.03 1539.24 Z" fill="#000000" fill-rule="nonzero" fill-opacity="1" /><path clip-path="url(#clip050)" d="M1583.27 1548.76 L1583.27 1551.62 L1556.34 1551.62 Q1556.72 1557.67 1559.97 1560.85 Q1563.25 1564 1569.07 1564 Q1572.45 1564 1575.6 1563.17 Q1578.78 1562.35 1581.9 1560.69 L1581.9 1566.23 Q1578.75 1567.57 1575.44 1568.27 Q1572.13 1568.97 1568.72 1568.97 Q1560.19 1568.97 1555.2 1564 Q1550.23 1559.04 1550.23 1550.57 Q1550.23 1541.82 1554.94 1536.69 Q1559.68 1531.54 1567.7 1531.54 Q1574.9 1531.54 1579.07 1536.18 Q1583.27 1540.8 1583.27 1548.76 M1577.41 1547.04 Q1577.35 1542.23 1574.71 1539.37 Q1572.1 1536.5 1567.77 1536.5 Q1562.87 1536.5 1559.91 1539.27 Q1556.98 1542.04 1556.53 1547.07 L1577.41 1547.04 Z" fill="#000000" fill-rule="nonzero" fill-opacity="1" /><path clip-path="url(#clip050)" d="M1613 1553.98 L1613 1532.4 L1618.85 1532.4 L1618.85 1553.75 Q1618.85 1558.81 1620.83 1561.36 Q1622.8 1563.87 1626.75 1563.87 Q1631.49 1563.87 1634.23 1560.85 Q1636.99 1557.83 1636.99 1552.61 L1636.99 1532.4 L1642.85 1532.4 L1642.85 1568.04 L1636.99 1568.04 L1636.99 1562.57 Q1634.86 1565.82 1632.03 1567.41 Q1629.23 1568.97 1625.5 1568.97 Q1619.36 1568.97 1616.18 1565.15 Q1613 1561.33 1613 1553.98 M1627.73 1531.54 L1627.73 1531.54 Z" fill="#000000" fill-rule="nonzero" fill-opacity="1" /><path clip-path="url(#clip050)" d="M1684.55 1546.53 L1684.55 1568.04 L1678.69 1568.04 L1678.69 1546.72 Q1678.69 1541.66 1676.72 1539.14 Q1674.74 1536.63 1670.8 1536.63 Q1666.05 1536.63 1663.32 1539.65 Q1660.58 1542.68 1660.58 1547.9 L1660.58 1568.04 L1654.69 1568.04 L1654.69 1532.4 L1660.58 1532.4 L1660.58 1537.93 Q1662.68 1534.72 1665.51 1533.13 Q1668.38 1531.54 1672.1 1531.54 Q1678.24 1531.54 1681.4 1535.36 Q1684.55 1539.14 1684.55 1546.53 Z" fill="#000000" fill-rule="nonzero" fill-opacity="1" /><path clip-path="url(#clip050)" d="M1696.23 1532.4 L1702.08 1532.4 L1702.08 1568.04 L1696.23 1568.04 L1696.23 1532.4 M1696.23 1518.52 L1702.08 1518.52 L1702.08 1525.93 L1696.23 1525.93 L1696.23 1518.52 Z" fill="#000000" fill-rule="nonzero" fill-opacity="1" /><path clip-path="url(#clip050)" d="M1720.13 1522.27 L1720.13 1532.4 L1732.19 1532.4 L1732.19 1536.95 L1720.13 1536.95 L1720.13 1556.3 Q1720.13 1560.66 1721.31 1561.9 Q1722.52 1563.14 1726.18 1563.14 L1732.19 1563.14 L1732.19 1568.04 L1726.18 1568.04 Q1719.4 1568.04 1716.82 1565.53 Q1714.24 1562.98 1714.24 1556.3 L1714.24 1536.95 L1709.95 1536.95 L1709.95 1532.4 L1714.24 1532.4 L1714.24 1522.27 L1720.13 1522.27 Z" fill="#000000" fill-rule="nonzero" fill-opacity="1" /><path clip-path="url(#clip050)" d="M1762.62 1533.45 L1762.62 1538.98 Q1760.14 1537.71 1757.47 1537.07 Q1754.79 1536.44 1751.93 1536.44 Q1747.57 1536.44 1745.37 1537.77 Q1743.21 1539.11 1743.21 1541.79 Q1743.21 1543.82 1744.77 1545 Q1746.33 1546.15 1751.04 1547.2 L1753.04 1547.64 Q1759.28 1548.98 1761.89 1551.43 Q1764.53 1553.85 1764.53 1558.21 Q1764.53 1563.17 1760.59 1566.07 Q1756.67 1568.97 1749.8 1568.97 Q1746.93 1568.97 1743.81 1568.39 Q1740.72 1567.85 1737.29 1566.74 L1737.29 1560.69 Q1740.53 1562.38 1743.68 1563.24 Q1746.84 1564.07 1749.92 1564.07 Q1754.06 1564.07 1756.29 1562.66 Q1758.52 1561.23 1758.52 1558.65 Q1758.52 1556.27 1756.89 1554.99 Q1755.3 1553.72 1749.86 1552.54 L1747.82 1552.07 Q1742.38 1550.92 1739.96 1548.56 Q1737.54 1546.18 1737.54 1542.04 Q1737.54 1537.01 1741.11 1534.27 Q1744.67 1531.54 1751.23 1531.54 Q1754.47 1531.54 1757.34 1532.01 Q1760.2 1532.49 1762.62 1533.45 Z" fill="#000000" fill-rule="nonzero" fill-opacity="1" /><path clip-path="url(#clip050)" d="M1772.93 1518.58 L1778.03 1518.58 Q1782.8 1526.09 1785.16 1533.29 Q1787.54 1540.48 1787.54 1547.58 Q1787.54 1554.71 1785.16 1561.93 Q1782.8 1569.16 1778.03 1576.64 L1772.93 1576.64 Q1777.17 1569.35 1779.24 1562.16 Q1781.34 1554.93 1781.34 1547.58 Q1781.34 1540.23 1779.24 1533.06 Q1777.17 1525.9 1772.93 1518.58 Z" fill="#000000" fill-rule="nonzero" fill-opacity="1" /><polyline clip-path="url(#clip050)" style="stroke:#000000; stroke-linecap:round; stroke-linejoin:round; stroke-width:4; stroke-opacity:1; fill:none" points="202.227,1423.18 202.227,123.472 "/>
<polyline clip-path="url(#clip050)" style="stroke:#000000; stroke-linecap:round; stroke-linejoin:round; stroke-width:4; stroke-opacity:1; fill:none" points="202.227,1386.4 221.125,1386.4 "/>
<polyline clip-path="url(#clip050)" style="stroke:#000000; stroke-linecap:round; stroke-linejoin:round; stroke-width:4; stroke-opacity:1; fill:none" points="202.227,1050.21 221.125,1050.21 "/>
<polyline clip-path="url(#clip050)" style="stroke:#000000; stroke-linecap:round; stroke-linejoin:round; stroke-width:4; stroke-opacity:1; fill:none" points="202.227,714.015 221.125,714.015 "/>
<polyline clip-path="url(#clip050)" style="stroke:#000000; stroke-linecap:round; stroke-linejoin:round; stroke-width:4; stroke-opacity:1; fill:none" points="202.227,377.824 221.125,377.824 "/>
<path clip-path="url(#clip050)" d="M154.283 1372.19 Q150.672 1372.19 148.843 1375.76 Q147.038 1379.3 147.038 1386.43 Q147.038 1393.54 148.843 1397.1 Q150.672 1400.64 154.283 1400.64 Q157.917 1400.64 159.723 1397.1 Q161.552 1393.54 161.552 1386.43 Q161.552 1379.3 159.723 1375.76 Q157.917 1372.19 154.283 1372.19 M154.283 1368.49 Q160.093 1368.49 163.149 1373.1 Q166.227 1377.68 166.227 1386.43 Q166.227 1395.16 163.149 1399.76 Q160.093 1404.35 154.283 1404.35 Q148.473 1404.35 145.394 1399.76 Q142.339 1395.16 142.339 1386.43 Q142.339 1377.68 145.394 1373.1 Q148.473 1368.49 154.283 1368.49 Z" fill="#000000" fill-rule="nonzero" fill-opacity="1" /><path clip-path="url(#clip050)" d="M145.325 1032.93 L163.681 1032.93 L163.681 1036.86 L149.607 1036.86 L149.607 1045.33 Q150.626 1044.99 151.644 1044.82 Q152.663 1044.64 153.681 1044.64 Q159.468 1044.64 162.848 1047.81 Q166.227 1050.98 166.227 1056.4 Q166.227 1061.98 162.755 1065.08 Q159.283 1068.16 152.964 1068.16 Q150.788 1068.16 148.519 1067.79 Q146.274 1067.42 143.866 1066.68 L143.866 1061.98 Q145.95 1063.11 148.172 1063.67 Q150.394 1064.22 152.871 1064.22 Q156.876 1064.22 159.214 1062.11 Q161.552 1060.01 161.552 1056.4 Q161.552 1052.79 159.214 1050.68 Q156.876 1048.57 152.871 1048.57 Q150.996 1048.57 149.121 1048.99 Q147.269 1049.41 145.325 1050.29 L145.325 1032.93 Z" fill="#000000" fill-rule="nonzero" fill-opacity="1" /><path clip-path="url(#clip050)" d="M114.931 727.36 L122.57 727.36 L122.57 700.994 L114.26 702.661 L114.26 698.401 L122.524 696.735 L127.2 696.735 L127.2 727.36 L134.839 727.36 L134.839 731.295 L114.931 731.295 L114.931 727.36 Z" fill="#000000" fill-rule="nonzero" fill-opacity="1" /><path clip-path="url(#clip050)" d="M154.283 699.813 Q150.672 699.813 148.843 703.378 Q147.038 706.92 147.038 714.049 Q147.038 721.156 148.843 724.721 Q150.672 728.262 154.283 728.262 Q157.917 728.262 159.723 724.721 Q161.552 721.156 161.552 714.049 Q161.552 706.92 159.723 703.378 Q157.917 699.813 154.283 699.813 M154.283 696.11 Q160.093 696.11 163.149 700.716 Q166.227 705.3 166.227 714.049 Q166.227 722.776 163.149 727.383 Q160.093 731.966 154.283 731.966 Q148.473 731.966 145.394 727.383 Q142.339 722.776 142.339 714.049 Q142.339 705.3 145.394 700.716 Q148.473 696.11 154.283 696.11 Z" fill="#000000" fill-rule="nonzero" fill-opacity="1" /><path clip-path="url(#clip050)" d="M115.927 391.169 L123.566 391.169 L123.566 364.804 L115.256 366.47 L115.256 362.211 L123.519 360.544 L128.195 360.544 L128.195 391.169 L135.834 391.169 L135.834 395.104 L115.927 395.104 L115.927 391.169 Z" fill="#000000" fill-rule="nonzero" fill-opacity="1" /><path clip-path="url(#clip050)" d="M145.325 360.544 L163.681 360.544 L163.681 364.479 L149.607 364.479 L149.607 372.952 Q150.626 372.604 151.644 372.442 Q152.663 372.257 153.681 372.257 Q159.468 372.257 162.848 375.428 Q166.227 378.6 166.227 384.016 Q166.227 389.595 162.755 392.697 Q159.283 395.776 152.964 395.776 Q150.788 395.776 148.519 395.405 Q146.274 395.035 143.866 394.294 L143.866 389.595 Q145.95 390.729 148.172 391.285 Q150.394 391.84 152.871 391.84 Q156.876 391.84 159.214 389.734 Q161.552 387.627 161.552 384.016 Q161.552 380.405 159.214 378.299 Q156.876 376.192 152.871 376.192 Q150.996 376.192 149.121 376.609 Q147.269 377.026 145.325 377.905 L145.325 360.544 Z" fill="#000000" fill-rule="nonzero" fill-opacity="1" /><path clip-path="url(#clip050)" d="M16.4842 1183.77 L16.4842 1174.19 L48.8219 1162.06 L16.4842 1149.87 L16.4842 1140.29 L64.0042 1140.29 L64.0042 1146.56 L22.277 1146.56 L54.8694 1158.82 L54.8694 1165.28 L22.277 1177.53 L64.0042 1177.53 L64.0042 1183.77 L16.4842 1183.77 Z" fill="#000000" fill-rule="nonzero" fill-opacity="1" /><path clip-path="url(#clip050)" d="M49.9359 1128.39 L28.3562 1128.39 L28.3562 1122.53 L49.7131 1122.53 Q54.7739 1122.53 57.3202 1120.56 Q59.8346 1118.59 59.8346 1114.64 Q59.8346 1109.9 56.8109 1107.16 Q53.7872 1104.39 48.5673 1104.39 L28.3562 1104.39 L28.3562 1098.53 L64.0042 1098.53 L64.0042 1104.39 L58.5296 1104.39 Q61.7762 1106.52 63.3676 1109.36 Q64.9272 1112.16 64.9272 1115.88 Q64.9272 1122.02 61.1078 1125.21 Q57.2883 1128.39 49.9359 1128.39 M27.4968 1113.65 L27.4968 1113.65 Z" fill="#000000" fill-rule="nonzero" fill-opacity="1" /><path clip-path="url(#clip050)" d="M18.2347 1080.68 L28.3562 1080.68 L28.3562 1068.62 L32.9077 1068.62 L32.9077 1080.68 L52.2594 1080.68 Q56.6199 1080.68 57.8613 1079.5 Q59.1026 1078.29 59.1026 1074.63 L59.1026 1068.62 L64.0042 1068.62 L64.0042 1074.63 Q64.0042 1081.41 61.4897 1083.99 Q58.9434 1086.57 52.2594 1086.57 L32.9077 1086.57 L32.9077 1090.86 L28.3562 1090.86 L28.3562 1086.57 L18.2347 1086.57 L18.2347 1080.68 Z" fill="#000000" fill-rule="nonzero" fill-opacity="1" /><path clip-path="url(#clip050)" d="M49.9359 1061.52 L28.3562 1061.52 L28.3562 1055.66 L49.7131 1055.66 Q54.7739 1055.66 57.3202 1053.69 Q59.8346 1051.71 59.8346 1047.77 Q59.8346 1043.03 56.8109 1040.29 Q53.7872 1037.52 48.5673 1037.52 L28.3562 1037.52 L28.3562 1031.66 L64.0042 1031.66 L64.0042 1037.52 L58.5296 1037.52 Q61.7762 1039.65 63.3676 1042.48 Q64.9272 1045.28 64.9272 1049.01 Q64.9272 1055.15 61.1078 1058.33 Q57.2883 1061.52 49.9359 1061.52 M27.4968 1046.78 L27.4968 1046.78 Z" fill="#000000" fill-rule="nonzero" fill-opacity="1" /><path clip-path="url(#clip050)" d="M46.0847 1003.4 Q46.0847 1010.5 47.7079 1013.23 Q49.3312 1015.97 53.2461 1015.97 Q56.3653 1015.97 58.2114 1013.93 Q60.0256 1011.86 60.0256 1008.33 Q60.0256 1003.46 56.5881 1000.53 Q53.1188 997.574 47.3897 997.574 L46.0847 997.574 L46.0847 1003.4 M43.6657 991.717 L64.0042 991.717 L64.0042 997.574 L58.5933 997.574 Q61.8398 999.579 63.3994 1002.57 Q64.9272 1005.56 64.9272 1009.89 Q64.9272 1015.37 61.8716 1018.61 Q58.7843 1021.83 53.6281 1021.83 Q47.6125 1021.83 44.5569 1017.82 Q41.5014 1013.77 41.5014 1005.79 L41.5014 997.574 L40.9285 997.574 Q36.8862 997.574 34.6901 1000.25 Q32.4621 1002.89 32.4621 1007.7 Q32.4621 1010.75 33.1941 1013.65 Q33.9262 1016.54 35.3903 1019.22 L29.9795 1019.22 Q28.7381 1016 28.1334 1012.98 Q27.4968 1009.96 27.4968 1007.09 Q27.4968 999.356 31.5072 995.537 Q35.5176 991.717 43.6657 991.717 Z" fill="#000000" fill-rule="nonzero" fill-opacity="1" /><path clip-path="url(#clip050)" d="M14.479 979.654 L14.479 973.798 L64.0042 973.798 L64.0042 979.654 L14.479 979.654 Z" fill="#000000" fill-rule="nonzero" fill-opacity="1" /><path clip-path="url(#clip050)" d="M16.4842 940.569 L16.4842 934.14 L64.0042 934.14 L64.0042 940.569 L16.4842 940.569 Z" fill="#000000" fill-rule="nonzero" fill-opacity="1" /><path clip-path="url(#clip050)" d="M42.4881 891.967 L64.0042 891.967 L64.0042 897.823 L42.679 897.823 Q37.6183 897.823 35.1038 899.797 Q32.5894 901.77 32.5894 905.717 Q32.5894 910.459 35.6131 913.196 Q38.6368 915.934 43.8567 915.934 L64.0042 915.934 L64.0042 921.822 L28.3562 921.822 L28.3562 915.934 L33.8944 915.934 Q30.6797 913.833 29.0883 911 Q27.4968 908.136 27.4968 904.412 Q27.4968 898.269 31.3163 895.118 Q35.1038 891.967 42.4881 891.967 Z" fill="#000000" fill-rule="nonzero" fill-opacity="1" /><path clip-path="url(#clip050)" d="M14.479 862.239 L19.3487 862.239 L19.3487 867.841 Q19.3487 870.992 20.6219 872.233 Q21.895 873.443 25.2052 873.443 L28.3562 873.443 L28.3562 863.799 L32.9077 863.799 L32.9077 873.443 L64.0042 873.443 L64.0042 879.331 L32.9077 879.331 L32.9077 884.933 L28.3562 884.933 L28.3562 879.331 L25.8736 879.331 Q19.9216 879.331 17.2162 876.562 Q14.479 873.793 14.479 867.777 L14.479 862.239 Z" fill="#000000" fill-rule="nonzero" fill-opacity="1" /><path clip-path="url(#clip050)" d="M32.4621 843.524 Q32.4621 848.234 36.1542 850.972 Q39.8145 853.709 46.212 853.709 Q52.6095 853.709 56.3017 851.004 Q59.9619 848.266 59.9619 843.524 Q59.9619 838.845 56.2698 836.108 Q52.5777 833.371 46.212 833.371 Q39.8781 833.371 36.186 836.108 Q32.4621 838.845 32.4621 843.524 M27.4968 843.524 Q27.4968 835.885 32.4621 831.524 Q37.4273 827.164 46.212 827.164 Q54.9649 827.164 59.9619 831.524 Q64.9272 835.885 64.9272 843.524 Q64.9272 851.194 59.9619 855.555 Q54.9649 859.884 46.212 859.884 Q37.4273 859.884 32.4621 855.555 Q27.4968 851.194 27.4968 843.524 Z" fill="#000000" fill-rule="nonzero" fill-opacity="1" /><path clip-path="url(#clip050)" d="M33.8307 796.8 Q33.2578 797.786 33.0032 798.964 Q32.7167 800.11 32.7167 801.51 Q32.7167 806.475 35.9632 809.149 Q39.1779 811.791 45.2253 811.791 L64.0042 811.791 L64.0042 817.679 L28.3562 817.679 L28.3562 811.791 L33.8944 811.791 Q30.6479 809.945 29.0883 806.985 Q27.4968 804.025 27.4968 799.791 Q27.4968 799.187 27.5923 798.455 Q27.656 797.723 27.8151 796.831 L33.8307 796.8 Z" fill="#000000" fill-rule="nonzero" fill-opacity="1" /><path clip-path="url(#clip050)" d="M35.1993 764.048 Q31.2526 761.852 29.3747 758.796 Q27.4968 755.741 27.4968 751.603 Q27.4968 746.033 31.4117 743.009 Q35.2948 739.986 42.4881 739.986 L64.0042 739.986 L64.0042 745.874 L42.679 745.874 Q37.5546 745.874 35.072 747.688 Q32.5894 749.502 32.5894 753.226 Q32.5894 757.778 35.6131 760.42 Q38.6368 763.061 43.8567 763.061 L64.0042 763.061 L64.0042 768.95 L42.679 768.95 Q37.5228 768.95 35.072 770.764 Q32.5894 772.578 32.5894 776.366 Q32.5894 780.853 35.6449 783.495 Q38.6686 786.137 43.8567 786.137 L64.0042 786.137 L64.0042 792.025 L28.3562 792.025 L28.3562 786.137 L33.8944 786.137 Q30.616 784.132 29.0564 781.331 Q27.4968 778.53 27.4968 774.679 Q27.4968 770.796 29.4702 768.09 Q31.4436 765.353 35.1993 764.048 Z" fill="#000000" fill-rule="nonzero" fill-opacity="1" /><path clip-path="url(#clip050)" d="M46.0847 712.104 Q46.0847 719.202 47.7079 721.939 Q49.3312 724.676 53.2461 724.676 Q56.3653 724.676 58.2114 722.639 Q60.0256 720.57 60.0256 717.037 Q60.0256 712.167 56.5881 709.239 Q53.1188 706.279 47.3897 706.279 L46.0847 706.279 L46.0847 712.104 M43.6657 700.423 L64.0042 700.423 L64.0042 706.279 L58.5933 706.279 Q61.8398 708.284 63.3994 711.276 Q64.9272 714.268 64.9272 718.597 Q64.9272 724.071 61.8716 727.318 Q58.7843 730.533 53.6281 730.533 Q47.6125 730.533 44.5569 726.522 Q41.5014 722.48 41.5014 714.491 L41.5014 706.279 L40.9285 706.279 Q36.8862 706.279 34.6901 708.953 Q32.4621 711.595 32.4621 716.401 Q32.4621 719.456 33.1941 722.353 Q33.9262 725.249 35.3903 727.923 L29.9795 727.923 Q28.7381 724.708 28.1334 721.684 Q27.4968 718.66 27.4968 715.796 Q27.4968 708.062 31.5072 704.242 Q35.5176 700.423 43.6657 700.423 Z" fill="#000000" fill-rule="nonzero" fill-opacity="1" /><path clip-path="url(#clip050)" d="M18.2347 682.567 L28.3562 682.567 L28.3562 670.504 L32.9077 670.504 L32.9077 682.567 L52.2594 682.567 Q56.6199 682.567 57.8613 681.389 Q59.1026 680.18 59.1026 676.52 L59.1026 670.504 L64.0042 670.504 L64.0042 676.52 Q64.0042 683.299 61.4897 685.877 Q58.9434 688.455 52.2594 688.455 L32.9077 688.455 L32.9077 692.752 L28.3562 692.752 L28.3562 688.455 L18.2347 688.455 L18.2347 682.567 Z" fill="#000000" fill-rule="nonzero" fill-opacity="1" /><path clip-path="url(#clip050)" d="M28.3562 662.801 L28.3562 656.945 L64.0042 656.945 L64.0042 662.801 L28.3562 662.801 M14.479 662.801 L14.479 656.945 L21.895 656.945 L21.895 662.801 L14.479 662.801 Z" fill="#000000" fill-rule="nonzero" fill-opacity="1" /><path clip-path="url(#clip050)" d="M32.4621 630.877 Q32.4621 635.588 36.1542 638.325 Q39.8145 641.063 46.212 641.063 Q52.6095 641.063 56.3017 638.357 Q59.9619 635.62 59.9619 630.877 Q59.9619 626.199 56.2698 623.461 Q52.5777 620.724 46.212 620.724 Q39.8781 620.724 36.186 623.461 Q32.4621 626.199 32.4621 630.877 M27.4968 630.877 Q27.4968 623.239 32.4621 618.878 Q37.4273 614.518 46.212 614.518 Q54.9649 614.518 59.9619 618.878 Q64.9272 623.239 64.9272 630.877 Q64.9272 638.548 59.9619 642.909 Q54.9649 647.237 46.212 647.237 Q37.4273 647.237 32.4621 642.909 Q27.4968 638.548 27.4968 630.877 Z" fill="#000000" fill-rule="nonzero" fill-opacity="1" /><path clip-path="url(#clip050)" d="M42.4881 575.177 L64.0042 575.177 L64.0042 581.034 L42.679 581.034 Q37.6183 581.034 35.1038 583.007 Q32.5894 584.981 32.5894 588.927 Q32.5894 593.67 35.6131 596.407 Q38.6368 599.144 43.8567 599.144 L64.0042 599.144 L64.0042 605.033 L28.3562 605.033 L28.3562 599.144 L33.8944 599.144 Q30.6797 597.044 29.0883 594.211 Q27.4968 591.346 27.4968 587.622 Q27.4968 581.48 31.3163 578.328 Q35.1038 575.177 42.4881 575.177 Z" fill="#000000" fill-rule="nonzero" fill-opacity="1" /><path clip-path="url(#clip050)" d="M14.5426 528.708 Q21.8632 532.973 29.0246 535.042 Q36.186 537.111 43.5384 537.111 Q50.8908 537.111 58.1159 535.042 Q65.3091 532.941 72.5979 528.708 L72.5979 533.8 Q65.1182 538.575 57.8931 540.962 Q50.668 543.317 43.5384 543.317 Q36.4406 543.317 29.2474 540.962 Q22.0542 538.606 14.5426 533.8 L14.5426 528.708 Z" fill="#000000" fill-rule="nonzero" fill-opacity="1" /><path clip-path="url(#clip050)" d="M42.4881 487.713 L64.0042 487.713 L64.0042 493.569 L42.679 493.569 Q37.6183 493.569 35.1038 495.542 Q32.5894 497.516 32.5894 501.463 Q32.5894 506.205 35.6131 508.942 Q38.6368 511.68 43.8567 511.68 L64.0042 511.68 L64.0042 517.568 L28.3562 517.568 L28.3562 511.68 L33.8944 511.68 Q30.6797 509.579 29.0883 506.746 Q27.4968 503.882 27.4968 500.158 Q27.4968 494.015 31.3163 490.864 Q35.1038 487.713 42.4881 487.713 Z" fill="#000000" fill-rule="nonzero" fill-opacity="1" /><path clip-path="url(#clip050)" d="M46.0847 459.831 Q46.0847 466.929 47.7079 469.666 Q49.3312 472.403 53.2461 472.403 Q56.3653 472.403 58.2114 470.366 Q60.0256 468.297 60.0256 464.764 Q60.0256 459.895 56.5881 456.966 Q53.1188 454.006 47.3897 454.006 L46.0847 454.006 L46.0847 459.831 M43.6657 448.15 L64.0042 448.15 L64.0042 454.006 L58.5933 454.006 Q61.8398 456.011 63.3994 459.003 Q64.9272 461.995 64.9272 466.324 Q64.9272 471.798 61.8716 475.045 Q58.7843 478.26 53.6281 478.26 Q47.6125 478.26 44.5569 474.249 Q41.5014 470.207 41.5014 462.218 L41.5014 454.006 L40.9285 454.006 Q36.8862 454.006 34.6901 456.68 Q32.4621 459.322 32.4621 464.128 Q32.4621 467.183 33.1941 470.08 Q33.9262 472.976 35.3903 475.65 L29.9795 475.65 Q28.7381 472.435 28.1334 469.411 Q27.4968 466.388 27.4968 463.523 Q27.4968 455.789 31.5072 451.969 Q35.5176 448.15 43.6657 448.15 Z" fill="#000000" fill-rule="nonzero" fill-opacity="1" /><path clip-path="url(#clip050)" d="M18.2347 430.294 L28.3562 430.294 L28.3562 418.231 L32.9077 418.231 L32.9077 430.294 L52.2594 430.294 Q56.6199 430.294 57.8613 429.116 Q59.1026 427.907 59.1026 424.247 L59.1026 418.231 L64.0042 418.231 L64.0042 424.247 Q64.0042 431.026 61.4897 433.604 Q58.9434 436.182 52.2594 436.182 L32.9077 436.182 L32.9077 440.479 L28.3562 440.479 L28.3562 436.182 L18.2347 436.182 L18.2347 430.294 Z" fill="#000000" fill-rule="nonzero" fill-opacity="1" /><path clip-path="url(#clip050)" d="M29.4065 387.803 L34.9447 387.803 Q33.6716 390.286 33.035 392.959 Q32.3984 395.633 32.3984 398.497 Q32.3984 402.858 33.7352 405.054 Q35.072 407.218 37.7456 407.218 Q39.7826 407.218 40.9603 405.659 Q42.1061 404.099 43.1565 399.388 L43.6021 397.383 Q44.9389 391.145 47.3897 388.535 Q49.8086 385.893 54.1691 385.893 Q59.1344 385.893 62.0308 389.84 Q64.9272 393.755 64.9272 400.63 Q64.9272 403.494 64.3543 406.614 Q63.8132 409.701 62.6992 413.138 L56.6518 413.138 Q58.3387 409.892 59.198 406.741 Q60.0256 403.59 60.0256 400.502 Q60.0256 396.365 58.6251 394.137 Q57.1929 391.909 54.6147 391.909 Q52.2276 391.909 50.9545 393.532 Q49.6813 395.123 48.5037 400.566 L48.0262 402.603 Q46.8804 408.046 44.5251 410.465 Q42.138 412.884 38.0002 412.884 Q32.9713 412.884 30.2341 409.319 Q27.4968 405.754 27.4968 399.197 Q27.4968 395.951 27.9743 393.086 Q28.4517 390.222 29.4065 387.803 Z" fill="#000000" fill-rule="nonzero" fill-opacity="1" /><path clip-path="url(#clip050)" d="M14.5426 377.49 L14.5426 372.398 Q22.0542 367.624 29.2474 365.268 Q36.4406 362.881 43.5384 362.881 Q50.668 362.881 57.8931 365.268 Q65.1182 367.624 72.5979 372.398 L72.5979 377.49 Q65.3091 373.257 58.1159 371.188 Q50.8908 369.088 43.5384 369.088 Q36.186 369.088 29.0246 371.188 Q21.8632 373.257 14.5426 377.49 Z" fill="#000000" fill-rule="nonzero" fill-opacity="1" /><path clip-path="url(#clip050)" d="M700.076 12.096 L708.259 12.096 L708.259 36.8875 L737.992 36.8875 L737.992 12.096 L746.175 12.096 L746.175 72.576 L737.992 72.576 L737.992 43.7741 L708.259 43.7741 L708.259 72.576 L700.076 72.576 L700.076 12.096 Z" fill="#000000" fill-rule="nonzero" fill-opacity="1" /><path clip-path="url(#clip050)" d="M781.013 76.7889 Q777.853 84.8907 774.855 87.3618 Q771.858 89.8329 766.835 89.8329 L760.88 89.8329 L760.88 83.5945 L765.255 83.5945 Q768.334 83.5945 770.035 82.1361 Q771.736 80.6778 773.802 75.2496 L775.139 71.8468 L756.788 27.2059 L764.688 27.2059 L778.866 62.6918 L793.044 27.2059 L800.943 27.2059 L781.013 76.7889 Z" fill="#000000" fill-rule="nonzero" fill-opacity="1" /><path clip-path="url(#clip050)" d="M843.802 49.9314 Q843.802 41.7081 840.399 37.0496 Q837.037 32.3505 831.123 32.3505 Q825.208 32.3505 821.805 37.0496 Q818.443 41.7081 818.443 49.9314 Q818.443 58.1548 821.805 62.8538 Q825.208 67.5124 831.123 67.5124 Q837.037 67.5124 840.399 62.8538 Q843.802 58.1548 843.802 49.9314 M818.443 34.0924 Q820.793 30.0415 824.358 28.0971 Q827.963 26.1121 832.945 26.1121 Q841.209 26.1121 846.354 32.6746 Q851.539 39.2371 851.539 49.9314 Q851.539 60.6258 846.354 67.1883 Q841.209 73.7508 832.945 73.7508 Q827.963 73.7508 824.358 71.8063 Q820.793 69.8214 818.443 65.7705 L818.443 72.576 L810.949 72.576 L810.949 9.54393 L818.443 9.54393 L818.443 34.0924 Z" fill="#000000" fill-rule="nonzero" fill-opacity="1" /><path clip-path="url(#clip050)" d="M890.185 34.1734 Q888.929 33.4443 887.43 33.1202 Q885.972 32.7556 884.189 32.7556 Q877.87 32.7556 874.467 36.8875 Q871.105 40.9789 871.105 48.6757 L871.105 72.576 L863.611 72.576 L863.611 27.2059 L871.105 27.2059 L871.105 34.2544 Q873.455 30.1225 877.222 28.1376 Q880.989 26.1121 886.377 26.1121 Q887.147 26.1121 888.078 26.2337 Q889.01 26.3147 890.144 26.5172 L890.185 34.1734 Z" fill="#000000" fill-rule="nonzero" fill-opacity="1" /><path clip-path="url(#clip050)" d="M898.003 27.2059 L905.457 27.2059 L905.457 72.576 L898.003 72.576 L898.003 27.2059 M898.003 9.54393 L905.457 9.54393 L905.457 18.9825 L898.003 18.9825 L898.003 9.54393 Z" fill="#000000" fill-rule="nonzero" fill-opacity="1" /><path clip-path="url(#clip050)" d="M950.908 34.0924 L950.908 9.54393 L958.361 9.54393 L958.361 72.576 L950.908 72.576 L950.908 65.7705 Q948.558 69.8214 944.953 71.8063 Q941.388 73.7508 936.365 73.7508 Q928.142 73.7508 922.957 67.1883 Q917.812 60.6258 917.812 49.9314 Q917.812 39.2371 922.957 32.6746 Q928.142 26.1121 936.365 26.1121 Q941.388 26.1121 944.953 28.0971 Q948.558 30.0415 950.908 34.0924 M925.509 49.9314 Q925.509 58.1548 928.871 62.8538 Q932.274 67.5124 938.188 67.5124 Q944.102 67.5124 947.505 62.8538 Q950.908 58.1548 950.908 49.9314 Q950.908 41.7081 947.505 37.0496 Q944.102 32.3505 938.188 32.3505 Q932.274 32.3505 928.871 37.0496 Q925.509 41.7081 925.509 49.9314 Z" fill="#000000" fill-rule="nonzero" fill-opacity="1" /><path clip-path="url(#clip050)" d="M994.739 27.2059 L1002.64 27.2059 L1016.82 65.2844 L1030.99 27.2059 L1038.89 27.2059 L1021.88 72.576 L1011.75 72.576 L994.739 27.2059 Z" fill="#000000" fill-rule="nonzero" fill-opacity="1" /><path clip-path="url(#clip050)" d="M1078.11 28.5427 L1078.11 35.5912 Q1074.95 33.9709 1071.54 33.1607 Q1068.14 32.3505 1064.5 32.3505 Q1058.95 32.3505 1056.15 34.0519 Q1053.4 35.7533 1053.4 39.156 Q1053.4 41.7486 1055.38 43.2475 Q1057.37 44.7058 1063.36 46.0426 L1065.91 46.6097 Q1073.85 48.3111 1077.17 51.4303 Q1080.54 54.509 1080.54 60.0587 Q1080.54 66.3781 1075.51 70.0644 Q1070.53 73.7508 1061.78 73.7508 Q1058.14 73.7508 1054.17 73.0216 Q1050.24 72.3329 1045.86 70.9151 L1045.86 63.2184 Q1049.99 65.3654 1054 66.4591 Q1058.01 67.5124 1061.94 67.5124 Q1067.21 67.5124 1070.04 65.73 Q1072.88 63.9071 1072.88 60.6258 Q1072.88 57.5877 1070.81 55.9673 Q1068.79 54.3469 1061.86 52.8481 L1059.27 52.2405 Q1052.34 50.7821 1049.26 47.7845 Q1046.19 44.7463 1046.19 39.4801 Q1046.19 33.0797 1050.72 29.5959 Q1055.26 26.1121 1063.6 26.1121 Q1067.74 26.1121 1071.38 26.7198 Q1075.03 27.3274 1078.11 28.5427 Z" fill="#000000" fill-rule="nonzero" fill-opacity="1" /><path clip-path="url(#clip050)" d="M1093.46 62.2867 L1102.01 62.2867 L1102.01 72.576 L1093.46 72.576 L1093.46 62.2867 Z" fill="#000000" fill-rule="nonzero" fill-opacity="1" /><path clip-path="url(#clip050)" d="M1153.66 18.8205 L1153.66 65.8515 L1163.54 65.8515 Q1176.06 65.8515 1181.85 60.1802 Q1187.68 54.509 1187.68 42.2752 Q1187.68 30.1225 1181.85 24.4918 Q1176.06 18.8205 1163.54 18.8205 L1153.66 18.8205 M1145.47 12.096 L1162.28 12.096 Q1179.86 12.096 1188.09 19.4281 Q1196.31 26.7198 1196.31 42.2752 Q1196.31 57.9117 1188.05 65.2439 Q1179.78 72.576 1162.28 72.576 L1145.47 72.576 L1145.47 12.096 Z" fill="#000000" fill-rule="nonzero" fill-opacity="1" /><path clip-path="url(#clip050)" d="M1209.03 27.2059 L1216.49 27.2059 L1216.49 72.576 L1209.03 72.576 L1209.03 27.2059 M1209.03 9.54393 L1216.49 9.54393 L1216.49 18.9825 L1209.03 18.9825 L1209.03 9.54393 Z" fill="#000000" fill-rule="nonzero" fill-opacity="1" /><path clip-path="url(#clip050)" d="M1261 28.5427 L1261 35.5912 Q1257.84 33.9709 1254.44 33.1607 Q1251.04 32.3505 1247.39 32.3505 Q1241.84 32.3505 1239.05 34.0519 Q1236.29 35.7533 1236.29 39.156 Q1236.29 41.7486 1238.28 43.2475 Q1240.26 44.7058 1246.26 46.0426 L1248.81 46.6097 Q1256.75 48.3111 1260.07 51.4303 Q1263.44 54.509 1263.44 60.0587 Q1263.44 66.3781 1258.41 70.0644 Q1253.43 73.7508 1244.68 73.7508 Q1241.03 73.7508 1237.06 73.0216 Q1233.13 72.3329 1228.76 70.9151 L1228.76 63.2184 Q1232.89 65.3654 1236.9 66.4591 Q1240.91 67.5124 1244.84 67.5124 Q1250.11 67.5124 1252.94 65.73 Q1255.78 63.9071 1255.78 60.6258 Q1255.78 57.5877 1253.71 55.9673 Q1251.69 54.3469 1244.76 52.8481 L1242.17 52.2405 Q1235.24 50.7821 1232.16 47.7845 Q1229.08 44.7463 1229.08 39.4801 Q1229.08 33.0797 1233.62 29.5959 Q1238.16 26.1121 1246.5 26.1121 Q1250.63 26.1121 1254.28 26.7198 Q1257.93 27.3274 1261 28.5427 Z" fill="#000000" fill-rule="nonzero" fill-opacity="1" /><path clip-path="url(#clip050)" d="M1307.95 28.9478 L1307.95 35.9153 Q1304.79 34.1734 1301.59 33.3227 Q1298.43 32.4315 1295.19 32.4315 Q1287.94 32.4315 1283.93 37.0496 Q1279.92 41.6271 1279.92 49.9314 Q1279.92 58.2358 1283.93 62.8538 Q1287.94 67.4314 1295.19 67.4314 Q1298.43 67.4314 1301.59 66.5807 Q1304.79 65.6895 1307.95 63.9476 L1307.95 70.8341 Q1304.84 72.2924 1301.47 73.0216 Q1298.15 73.7508 1294.38 73.7508 Q1284.14 73.7508 1278.1 67.3098 Q1272.06 60.8689 1272.06 49.9314 Q1272.06 38.832 1278.14 32.472 Q1284.26 26.1121 1294.87 26.1121 Q1298.31 26.1121 1301.59 26.8413 Q1304.88 27.5299 1307.95 28.9478 Z" fill="#000000" fill-rule="nonzero" fill-opacity="1" /><path clip-path="url(#clip050)" d="M1347.21 34.1734 Q1345.95 33.4443 1344.45 33.1202 Q1342.99 32.7556 1341.21 32.7556 Q1334.89 32.7556 1331.49 36.8875 Q1328.13 40.9789 1328.13 48.6757 L1328.13 72.576 L1320.63 72.576 L1320.63 27.2059 L1328.13 27.2059 L1328.13 34.2544 Q1330.48 30.1225 1334.24 28.1376 Q1338.01 26.1121 1343.4 26.1121 Q1344.17 26.1121 1345.1 26.2337 Q1346.03 26.3147 1347.17 26.5172 L1347.21 34.1734 Z" fill="#000000" fill-rule="nonzero" fill-opacity="1" /><path clip-path="url(#clip050)" d="M1392.01 48.0275 L1392.01 51.6733 L1357.74 51.6733 Q1358.23 59.3701 1362.36 63.421 Q1366.53 67.4314 1373.94 67.4314 Q1378.24 67.4314 1382.25 66.3781 Q1386.3 65.3249 1390.27 63.2184 L1390.27 70.267 Q1386.26 71.9684 1382.05 72.8596 Q1377.83 73.7508 1373.5 73.7508 Q1362.64 73.7508 1356.28 67.4314 Q1349.96 61.1119 1349.96 50.3365 Q1349.96 39.1965 1355.96 32.6746 Q1361.99 26.1121 1372.2 26.1121 Q1381.36 26.1121 1386.66 32.0264 Q1392.01 37.9003 1392.01 48.0275 M1384.56 45.84 Q1384.48 39.7232 1381.11 36.0774 Q1377.79 32.4315 1372.28 32.4315 Q1366.04 32.4315 1362.28 35.9558 Q1358.55 39.4801 1357.98 45.8805 L1384.56 45.84 Z" fill="#000000" fill-rule="nonzero" fill-opacity="1" /><path clip-path="url(#clip050)" d="M1411.62 14.324 L1411.62 27.2059 L1426.97 27.2059 L1426.97 32.9987 L1411.62 32.9987 L1411.62 57.6282 Q1411.62 63.1779 1413.12 64.7578 Q1414.66 66.3376 1419.31 66.3376 L1426.97 66.3376 L1426.97 72.576 L1419.31 72.576 Q1410.69 72.576 1407.4 69.3758 Q1404.12 66.1351 1404.12 57.6282 L1404.12 32.9987 L1398.65 32.9987 L1398.65 27.2059 L1404.12 27.2059 L1404.12 14.324 L1411.62 14.324 Z" fill="#000000" fill-rule="nonzero" fill-opacity="1" /><path clip-path="url(#clip050)" d="M1475.58 48.0275 L1475.58 51.6733 L1441.31 51.6733 Q1441.8 59.3701 1445.93 63.421 Q1450.1 67.4314 1457.51 67.4314 Q1461.81 67.4314 1465.82 66.3781 Q1469.87 65.3249 1473.84 63.2184 L1473.84 70.267 Q1469.83 71.9684 1465.62 72.8596 Q1461.4 73.7508 1457.07 73.7508 Q1446.21 73.7508 1439.85 67.4314 Q1433.53 61.1119 1433.53 50.3365 Q1433.53 39.1965 1439.53 32.6746 Q1445.56 26.1121 1455.77 26.1121 Q1464.93 26.1121 1470.23 32.0264 Q1475.58 37.9003 1475.58 48.0275 M1468.13 45.84 Q1468.05 39.7232 1464.68 36.0774 Q1461.36 32.4315 1455.85 32.4315 Q1449.61 32.4315 1445.85 35.9558 Q1442.12 39.4801 1441.55 45.8805 L1468.13 45.84 Z" fill="#000000" fill-rule="nonzero" fill-opacity="1" /><path clip-path="url(#clip050)" d="M1550.77 14.0809 L1550.77 22.0612 Q1546.11 19.8332 1541.98 18.7395 Q1537.84 17.6457 1533.99 17.6457 Q1527.31 17.6457 1523.67 20.2383 Q1520.06 22.8309 1520.06 27.611 Q1520.06 31.6214 1522.45 33.6873 Q1524.88 35.7128 1531.6 36.9686 L1536.55 37.9813 Q1545.7 39.7232 1550.04 44.1387 Q1554.41 48.5136 1554.41 55.8863 Q1554.41 64.6767 1548.5 69.2137 Q1542.62 73.7508 1531.24 73.7508 Q1526.95 73.7508 1522.09 72.7785 Q1517.26 71.8063 1512.08 69.9024 L1512.08 61.4765 Q1517.06 64.2716 1521.84 65.6895 Q1526.62 67.1073 1531.24 67.1073 Q1538.25 67.1073 1542.06 64.3527 Q1545.86 61.598 1545.86 56.4939 Q1545.86 52.0379 1543.11 49.5264 Q1540.4 47.0148 1534.16 45.759 L1529.17 44.7868 Q1520.02 42.9639 1515.93 39.075 Q1511.84 35.1862 1511.84 28.2591 Q1511.84 20.2383 1517.47 15.6203 Q1523.14 11.0023 1533.06 11.0023 Q1537.32 11.0023 1541.73 11.7719 Q1546.15 12.5416 1550.77 14.0809 Z" fill="#000000" fill-rule="nonzero" fill-opacity="1" /><path clip-path="url(#clip050)" d="M1585.72 76.7889 Q1582.57 84.8907 1579.57 87.3618 Q1576.57 89.8329 1571.55 89.8329 L1565.59 89.8329 L1565.59 83.5945 L1569.97 83.5945 Q1573.05 83.5945 1574.75 82.1361 Q1576.45 80.6778 1578.51 75.2496 L1579.85 71.8468 L1561.5 27.2059 L1569.4 27.2059 L1583.58 62.6918 L1597.76 27.2059 L1605.66 27.2059 L1585.72 76.7889 Z" fill="#000000" fill-rule="nonzero" fill-opacity="1" /><path clip-path="url(#clip050)" d="M1644.87 28.5427 L1644.87 35.5912 Q1641.71 33.9709 1638.31 33.1607 Q1634.9 32.3505 1631.26 32.3505 Q1625.71 32.3505 1622.91 34.0519 Q1620.16 35.7533 1620.16 39.156 Q1620.16 41.7486 1622.14 43.2475 Q1624.13 44.7058 1630.12 46.0426 L1632.67 46.6097 Q1640.61 48.3111 1643.94 51.4303 Q1647.3 54.509 1647.3 60.0587 Q1647.3 66.3781 1642.28 70.0644 Q1637.29 73.7508 1628.54 73.7508 Q1624.9 73.7508 1620.93 73.0216 Q1617 72.3329 1612.62 70.9151 L1612.62 63.2184 Q1616.75 65.3654 1620.77 66.4591 Q1624.78 67.5124 1628.71 67.5124 Q1633.97 67.5124 1636.81 65.73 Q1639.64 63.9071 1639.64 60.6258 Q1639.64 57.5877 1637.58 55.9673 Q1635.55 54.3469 1628.62 52.8481 L1626.03 52.2405 Q1619.1 50.7821 1616.03 47.7845 Q1612.95 44.7463 1612.95 39.4801 Q1612.95 33.0797 1617.48 29.5959 Q1622.02 26.1121 1630.37 26.1121 Q1634.5 26.1121 1638.14 26.7198 Q1641.79 27.3274 1644.87 28.5427 Z" fill="#000000" fill-rule="nonzero" fill-opacity="1" /><path clip-path="url(#clip050)" d="M1666.54 14.324 L1666.54 27.2059 L1681.89 27.2059 L1681.89 32.9987 L1666.54 32.9987 L1666.54 57.6282 Q1666.54 63.1779 1668.04 64.7578 Q1669.58 66.3376 1674.24 66.3376 L1681.89 66.3376 L1681.89 72.576 L1674.24 72.576 Q1665.61 72.576 1662.33 69.3758 Q1659.05 66.1351 1659.05 57.6282 L1659.05 32.9987 L1653.58 32.9987 L1653.58 27.2059 L1659.05 27.2059 L1659.05 14.324 L1666.54 14.324 Z" fill="#000000" fill-rule="nonzero" fill-opacity="1" /><path clip-path="url(#clip050)" d="M1730.5 48.0275 L1730.5 51.6733 L1696.23 51.6733 Q1696.72 59.3701 1700.85 63.421 Q1705.02 67.4314 1712.44 67.4314 Q1716.73 67.4314 1720.74 66.3781 Q1724.79 65.3249 1728.76 63.2184 L1728.76 70.267 Q1724.75 71.9684 1720.54 72.8596 Q1716.33 73.7508 1711.99 73.7508 Q1701.14 73.7508 1694.78 67.4314 Q1688.46 61.1119 1688.46 50.3365 Q1688.46 39.1965 1694.45 32.6746 Q1700.49 26.1121 1710.7 26.1121 Q1719.85 26.1121 1725.16 32.0264 Q1730.5 37.9003 1730.5 48.0275 M1723.05 45.84 Q1722.97 39.7232 1719.61 36.0774 Q1716.29 32.4315 1710.78 32.4315 Q1704.54 32.4315 1700.77 35.9558 Q1697.04 39.4801 1696.48 45.8805 L1723.05 45.84 Z" fill="#000000" fill-rule="nonzero" fill-opacity="1" /><path clip-path="url(#clip050)" d="M1778.06 35.9153 Q1780.86 30.8922 1784.75 28.5022 Q1788.63 26.1121 1793.9 26.1121 Q1800.99 26.1121 1804.84 31.0947 Q1808.69 36.0368 1808.69 45.1919 L1808.69 72.576 L1801.19 72.576 L1801.19 45.4349 Q1801.19 38.913 1798.88 35.7533 Q1796.57 32.5936 1791.83 32.5936 Q1786.04 32.5936 1782.68 36.4419 Q1779.32 40.2903 1779.32 46.9338 L1779.32 72.576 L1771.82 72.576 L1771.82 45.4349 Q1771.82 38.8725 1769.51 35.7533 Q1767.21 32.5936 1762.38 32.5936 Q1756.67 32.5936 1753.31 36.4824 Q1749.95 40.3308 1749.95 46.9338 L1749.95 72.576 L1742.45 72.576 L1742.45 27.2059 L1749.95 27.2059 L1749.95 34.2544 Q1752.5 30.082 1756.07 28.0971 Q1759.63 26.1121 1764.53 26.1121 Q1769.47 26.1121 1772.92 28.6237 Q1776.4 31.1352 1778.06 35.9153 Z" fill="#000000" fill-rule="nonzero" fill-opacity="1" /><path clip-path="url(#clip050)" d="M1852.48 28.5427 L1852.48 35.5912 Q1849.32 33.9709 1845.91 33.1607 Q1842.51 32.3505 1838.87 32.3505 Q1833.32 32.3505 1830.52 34.0519 Q1827.77 35.7533 1827.77 39.156 Q1827.77 41.7486 1829.75 43.2475 Q1831.74 44.7058 1837.73 46.0426 L1840.28 46.6097 Q1848.22 48.3111 1851.55 51.4303 Q1854.91 54.509 1854.91 60.0587 Q1854.91 66.3781 1849.88 70.0644 Q1844.9 73.7508 1836.15 73.7508 Q1832.51 73.7508 1828.54 73.0216 Q1824.61 72.3329 1820.23 70.9151 L1820.23 63.2184 Q1824.36 65.3654 1828.37 66.4591 Q1832.38 67.5124 1836.31 67.5124 Q1841.58 67.5124 1844.42 65.73 Q1847.25 63.9071 1847.25 60.6258 Q1847.25 57.5877 1845.19 55.9673 Q1843.16 54.3469 1836.23 52.8481 L1833.64 52.2405 Q1826.71 50.7821 1823.63 47.7845 Q1820.56 44.7463 1820.56 39.4801 Q1820.56 33.0797 1825.09 29.5959 Q1829.63 26.1121 1837.97 26.1121 Q1842.11 26.1121 1845.75 26.7198 Q1849.4 27.3274 1852.48 28.5427 Z" fill="#000000" fill-rule="nonzero" fill-opacity="1" /><polyline clip-path="url(#clip052)" style="stroke:#009af9; stroke-linecap:round; stroke-linejoin:round; stroke-width:8; stroke-opacity:1; fill:none" points="263.091,1386.4 267.149,1386.4 271.207,1386.23 275.264,1386.07 279.322,1385.72 283.379,1385.04 287.437,1384.17 291.495,1383.54 295.552,1382.91 299.61,1381.96 303.667,1381.28 307.725,1380.28 311.783,1379.35 315.84,1378.12 319.898,1376.39 323.955,1374.71 328.013,1373.7 332.071,1372.06 336.128,1370.32 340.186,1368.68 344.244,1367.07 348.301,1365.15 352.359,1363.78 356.416,1362.22 360.474,1361.4 364.532,1359.84 368.589,1357.71 372.647,1356.3 376.704,1355.38 380.762,1354.23 384.82,1352.25 388.877,1350.78 392.935,1349.57 396.992,1348.65 401.05,1346.86 405.108,1345.11 409.165,1343.52 413.223,1341.57 417.28,1339.51 421.338,1338.25 425.396,1336.96 429.453,1335.25 433.511,1333.63 437.568,1332.37 441.626,1330.1 445.684,1328.59 449.741,1326.6 453.799,1325.24 457.856,1323.83 461.914,1322.38 465.972,1321.02 470.029,1319.84 474.087,1318.34 478.144,1317.17 482.202,1315.6 486.26,1314.05 490.317,1312.16 494.375,1311.02 498.432,1309.27 502.49,1308.17 506.548,1306.6 510.605,1304.78 514.663,1303 518.72,1301.32 522.778,1299.87 526.836,1297.68 530.893,1296.22 534.951,1295.15 539.008,1293.75 543.066,1291.77 547.124,1291.08 551.181,1289.32 555.239,1287.36 559.296,1285.67 563.354,1283.96 567.412,1282.47 571.469,1280.6 575.527,1279.32 579.584,1278.23 583.642,1277.27 587.7,1275.92 591.757,1273.78 595.815,1272.64 599.872,1270.81 603.93,1269.05 607.988,1267.67 612.045,1265.95 616.103,1264.09 620.16,1261.87 624.218,1259.78 628.276,1257.66 632.333,1256.08 636.391,1254.14 640.448,1251.82 644.506,1249.75 648.564,1247.96 652.621,1246.34 656.679,1244.32 660.736,1242.66 664.794,1241.31 668.852,1239.44 672.909,1238.1 676.967,1236.86 681.024,1235.6 685.082,1234.25 689.14,1232.96 693.197,1231.29 697.255,1229.43 701.312,1228.13 705.37,1226.67 709.428,1225.38 713.485,1223.83 717.543,1222.16 721.6,1220.72 725.658,1219.18 729.716,1217.82 733.773,1216.27 737.831,1214.53 741.888,1213.37 745.946,1212.29 750.004,1209.34 754.061,1207.68 758.119,1205.98 762.176,1204.81 766.234,1203.39 770.292,1201.71 774.349,1200.36 778.407,1199.69 782.464,1198.33 786.522,1197.02 790.58,1195.03 794.637,1193.52 798.695,1191.63 802.752,1189.66 806.81,1187.25 810.868,1185.71 814.925,1184.28 818.983,1182.84 823.04,1181.82 827.098,1180.6 831.156,1178.74 835.213,1177.39 839.271,1175.84 843.328,1173.67 847.386,1171.87 851.444,1170.71 855.501,1169.2 859.559,1167.11 863.616,1165.61 867.674,1163.88 871.732,1162.15 875.789,1160.45 879.847,1158.52 883.904,1157.49 887.962,1156.33 892.02,1155.06 896.077,1153.52 900.135,1152.08 904.192,1150.46 908.25,1149.27 912.308,1147.88 916.365,1146.7 920.423,1144.98 924.48,1144.21 928.538,1142.34 932.596,1141.61 936.653,1140.24 940.711,1138.41 944.768,1136.87 948.826,1135.14 952.884,1134 956.941,1132.55 960.999,1130.88 965.056,1128.44 969.114,1126.41 973.172,1124.69 977.229,1123.39 981.287,1122.27 985.344,1120.57 989.402,1118.53 993.46,1117.12 997.517,1115.69 1001.57,1114.22 1005.63,1112.34 1009.69,1110.39 1013.75,1108.86 1017.81,1107.07 1021.86,1105.3 1025.92,1103.92 1029.98,1102.91 1034.04,1101.28 1038.09,1099.82 1042.15,1097.95 1046.21,1096.5 1050.27,1094.67 1054.32,1092.86 1058.38,1090.69 1062.44,1089.27 1066.5,1087.53 1070.55,1085.79 1074.61,1084.02 1078.67,1082.35 1082.73,1080.89 1086.78,1079.49 1090.84,1078.07 1094.9,1077.11 1098.96,1075.39 1103.01,1074.04 1107.07,1073.28 1111.13,1071.7 1115.19,1070.05 1119.25,1068.77 1123.3,1067.09 1127.36,1065.62 1131.42,1063.86 1135.48,1061.6 1139.53,1060.22 1143.59,1058.47 1147.65,1056.83 1151.71,1055.28 1155.76,1053.28 1159.82,1052.47 1163.88,1050.49 1167.94,1048.98 1171.99,1046.92 1176.05,1046 1180.11,1044.16 1184.17,1042.42 1188.22,1040.83 1192.28,1039.14 1196.34,1038.04 1200.4,1036.45 1204.45,1034.31 1208.51,1032.17 1212.57,1030.52 1216.63,1028.45 1220.69,1026.2 1224.74,1024.98 1228.8,1023.1 1232.86,1020.94 1236.92,1019.45 1240.97,1017.71 1245.03,1016.14 1249.09,1015.09 1253.15,1014.03 1257.2,1012.73 1261.26,1010.97 1265.32,1009.11 1269.38,1007.84 1273.43,1005.82 1277.49,1003.95 1281.55,1002.94 1285.61,1000.9 1289.66,999.085 1293.72,997.056 1297.78,995.885 1301.84,994.392 1305.89,992.286 1309.95,990.725 1314.01,989.346 1318.07,987.81 1322.13,986.255 1326.18,984.581 1330.24,983.338 1334.3,981.124 1338.36,979.099 1342.41,978.219 1346.47,977.234 1350.53,975.792 1354.59,974.311 1358.64,972.787 1362.7,971.665 1366.76,970.423 1370.82,969.042 1374.87,967.333 1378.93,965.712 1382.99,964.08 1387.05,962.801 1391.1,961.581 1395.16,960.017 1399.22,958.724 1403.28,957.521 1407.33,955.925 1411.39,954.578 1415.45,953.328 1419.51,952.159 1423.57,950.086 1427.62,948.5 1431.68,946.859 1435.74,945.934 1439.8,943.582 1443.85,941.799 1447.91,939.972 1451.97,938.456 1456.03,936.219 1460.08,933.803 1464.14,932.232 1468.2,931.197 1472.26,929.766 1476.31,928.891 1480.37,926.838 1484.43,924.937 1488.49,924.292 1492.54,922.1 1496.6,920.348 1500.66,919.196 1504.72,917.716 1508.77,915.464 1512.83,913.593 1516.89,912.186 1520.95,910.77 1525.01,909.396 1529.06,907.489 1533.12,906.478 1537.18,905.375 1541.24,904.026 1545.29,901.979 1549.35,900.847 1553.41,899.517 1557.47,897.906 1561.52,896.587 1565.58,894.941 1569.64,893.992 1573.7,892.043 1577.75,891.512 1581.81,890.659 1585.87,889.151 1589.93,886.995 1593.98,885.795 1598.04,885.14 1602.1,883.52 1606.16,882.49 1610.21,881.178 1614.27,879.583 1618.33,877.659 1622.39,875.55 1626.45,873.27 1630.5,871.388 1634.56,868.889 1638.62,867.632 1642.68,865.903 1646.73,864.205 1650.79,862.446 1654.85,861.386 1658.91,860.355 1662.96,858.324 1667.02,856.668 1671.08,854.931 1675.14,854.017 1679.19,852.361 1683.25,850.62 1687.31,849.175 1691.37,847.068 1695.42,845.798 1699.48,844.124 1703.54,842.441 1707.6,841.177 1711.65,839.617 1715.71,838.542 1719.77,836.85 1723.83,834.799 1727.89,832.814 1731.94,831.689 1736,829.943 1740.06,828.984 1744.12,827.038 1748.17,824.985 1752.23,822.969 1756.29,821.366 1760.35,819.559 1764.4,818.907 1768.46,817.462 1772.52,816.194 1776.58,815.211 1780.63,814.143 1784.69,812.28 1788.75,810.961 1792.81,809.514 1796.86,808.498 1800.92,806.458 1804.98,805.027 1809.04,802.711 1813.09,801.639 1817.15,800.034 1821.21,799.072 1825.27,797.444 1829.33,796.138 1833.38,794.561 1837.44,792.967 1841.5,791.93 1845.56,790.385 1849.61,789.722 1853.67,787.353 1857.73,785.424 1861.79,783.771 1865.84,782.543 1869.9,780.733 1873.96,778.99 1878.02,777.991 1882.07,776.233 1886.13,774.591 1890.19,773.064 1894.25,771.804 1898.3,770.828 1902.36,770.082 1906.42,768.872 1910.48,767.896 1914.54,766.602 1918.59,764.579 1922.65,762.55 1926.71,761.112 1930.77,759.272 1934.82,757.943 1938.88,756.183 1942.94,754.583 1947,752.683 1951.05,751.268 1955.11,748.901 1959.17,746.98 1963.23,745.539 1967.28,744.377 1971.34,743.499 1975.4,742.177 1979.46,740.427 1983.51,739.075 1987.57,737.863 1991.63,735.984 1995.69,734.184 1999.74,732.501 2003.8,731.022 2007.86,730.059 2011.92,728.864 2015.98,726.977 2020.03,725.973 2024.09,724.795 2028.15,723.251 2032.21,721.385 2036.26,719.578 2040.32,717.397 2044.38,715.623 2048.44,714.243 2052.49,711.663 2056.55,710.843 2060.61,709.469 2064.67,707.435 2068.72,706.079 2072.78,704.306 2076.84,702.91 2080.9,702.102 2084.95,700.407 2089.01,699.491 2093.07,697.744 2097.13,695.709 2101.18,694.441 2105.24,692.189 2109.3,690.301 2113.36,688.453 2117.42,687.659 2121.47,686.081 2125.53,684.179 2129.59,682.788 2133.65,681.477 2137.7,679.381 2141.76,677.753 2145.82,676.641 2149.88,674.686 2153.93,673.325 2157.99,672.069 2162.05,670.372 2166.11,669.272 2170.16,668.134 2174.22,666.424 2178.28,665.004 2182.34,662.771 2186.39,660.484 2190.45,658.938 2194.51,657.605 2198.57,656.306 2202.62,654.46 2206.68,653.231 2210.74,652.369 2214.8,651.198 2218.86,649.747 2222.91,648.309 2226.97,646.491 2231.03,645.109 2235.09,644.234 2239.14,643.196 2243.2,641.479 2247.26,639.448 2251.32,637.665 2255.37,636.341 2259.43,634.599 2263.49,633.723 2267.55,632.028 2271.6,630.291 2275.66,629.723 2279.72,628.472 2283.78,627.182 2287.83,625.621 2291.89,624.427 "/>
<polyline clip-path="url(#clip052)" style="stroke:#e26f46; stroke-linecap:round; stroke-linejoin:round; stroke-width:8; stroke-opacity:1; fill:none" points="263.091,1386.4 267.149,1386.26 271.207,1385.89 275.264,1384.84 279.322,1383.64 283.379,1382.83 287.437,1381.81 291.495,1380.9 295.552,1379.78 299.61,1377.62 303.667,1375.52 307.725,1373.43 311.783,1371.81 315.84,1369.75 319.898,1368.36 323.955,1366.01 328.013,1364.37 332.071,1360.46 336.128,1357.94 340.186,1354.58 344.244,1353.5 348.301,1352.69 352.359,1349.22 356.416,1346.16 360.474,1343.64 364.532,1341.32 368.589,1338.81 372.647,1335.62 376.704,1332.68 380.762,1329.66 384.82,1327.55 388.877,1325.5 392.935,1323.42 396.992,1321.43 401.05,1319.87 405.108,1318.05 409.165,1316.8 413.223,1314.39 417.28,1311.63 421.338,1309.12 425.396,1306.57 429.453,1303.9 433.511,1300.6 437.568,1298.02 441.626,1296 445.684,1293.79 449.741,1290.59 453.799,1288.9 457.856,1287.34 461.914,1285.53 465.972,1283.09 470.029,1280.37 474.087,1277.62 478.144,1275.45 482.202,1273.16 486.26,1270.85 490.317,1268.41 494.375,1265.35 498.432,1262.72 502.49,1259.2 506.548,1256.46 510.605,1253.65 514.663,1249.92 518.72,1247.63 522.778,1244.89 526.836,1242.48 530.893,1238.88 534.951,1236.65 539.008,1234.99 543.066,1232.78 547.124,1230.6 551.181,1228.93 555.239,1226.6 559.296,1224.46 563.354,1222.59 567.412,1219.11 571.469,1217.14 575.527,1214.82 579.584,1212.05 583.642,1209.6 587.7,1208.46 591.757,1205.32 595.815,1202.89 599.872,1199.29 603.93,1196.24 607.988,1193.44 612.045,1190.55 616.103,1187.55 620.16,1186.15 624.218,1183.78 628.276,1181.83 632.333,1180.11 636.391,1176.76 640.448,1173.89 644.506,1170.79 648.564,1168.59 652.621,1166.01 656.679,1164.27 660.736,1161.87 664.794,1159.53 668.852,1156.87 672.909,1152.56 676.967,1150.71 681.024,1147.9 685.082,1145.14 689.14,1142.98 693.197,1140.2 697.255,1137.92 701.312,1135.22 705.37,1132.59 709.428,1130 713.485,1127 717.543,1123.94 721.6,1120.88 725.658,1117.72 729.716,1115.2 733.773,1113.15 737.831,1110.9 741.888,1107.9 745.946,1104.97 750.004,1101.91 754.061,1098.99 758.119,1096.22 762.176,1093.64 766.234,1091.05 770.292,1088.59 774.349,1084.98 778.407,1082.6 782.464,1080.32 786.522,1077.64 790.58,1075.46 794.637,1073.39 798.695,1070.72 802.752,1068.54 806.81,1066.46 810.868,1063.92 814.925,1061.05 818.983,1057.3 823.04,1054.07 827.098,1052.36 831.156,1049.58 835.213,1046.46 839.271,1043.85 843.328,1041.92 847.386,1039.32 851.444,1037.34 855.501,1035.88 859.559,1034.55 863.616,1031.57 867.674,1028.45 871.732,1025.52 875.789,1022.7 879.847,1020.88 883.904,1019.58 887.962,1016.64 892.02,1014.74 896.077,1011.5 900.135,1009.26 904.192,1007.11 908.25,1005.07 912.308,1002.14 916.365,1000.52 920.423,997.998 924.48,994.68 928.538,992.547 932.596,990.05 936.653,987.137 940.711,983.905 944.768,980.993 948.826,979.204 952.884,976.147 956.941,973.536 960.999,971.801 965.056,969.416 969.114,967.425 973.172,965.287 977.229,961.675 981.287,959.997 985.344,958.546 989.402,956.327 993.46,953.93 997.517,951.35 1001.57,948.437 1005.63,946.266 1009.69,944.418 1013.75,942.147 1017.81,939.078 1021.86,936.493 1025.92,933.644 1029.98,929.998 1034.04,928.016 1038.09,926.883 1042.15,924.891 1046.21,923.93 1050.27,921.028 1054.32,918.335 1058.38,916.135 1062.44,913.81 1066.5,910.925 1070.55,907.834 1074.61,905.684 1078.67,903.477 1082.73,899.973 1086.78,897.601 1090.84,895.689 1094.9,893.522 1098.96,891.024 1103.01,889.238 1107.07,887.19 1111.13,885.873 1115.19,883.277 1119.25,882.228 1123.3,879.264 1127.36,876.803 1131.42,874.907 1135.48,872.6 1139.53,869.676 1143.59,866.478 1147.65,863.711 1151.71,860.9 1155.76,858.806 1159.82,856.88 1163.88,853.601 1167.94,851.124 1171.99,848.118 1176.05,845.445 1180.11,843.034 1184.17,840.442 1188.22,838.292 1192.28,835.847 1196.34,833.611 1200.4,830.681 1204.45,828.144 1208.51,825.231 1212.57,824.047 1216.63,822.108 1220.69,819.178 1224.74,816.259 1228.8,813.721 1232.86,811.925 1236.92,809.262 1240.97,807.047 1245.03,804.245 1249.09,801.932 1253.15,799.136 1257.2,795.416 1261.26,792.778 1265.32,790.702 1269.38,788.265 1273.43,786.081 1277.49,783.522 1281.55,781.553 1285.61,778.844 1289.66,776.224 1293.72,774.185 1297.78,771.156 1301.84,768.662 1305.89,766.422 1309.95,764.237 1314.01,761.451 1318.07,758.656 1322.13,756.401 1326.18,754.4 1330.24,751.727 1334.3,749.633 1338.36,746.896 1342.41,744.327 1346.47,741.309 1350.53,738.904 1354.59,736.527 1358.64,735.649 1362.7,733.38 1366.76,731.469 1370.82,727.644 1374.87,724.103 1378.93,721.585 1382.99,718.058 1387.05,715.571 1391.1,713.162 1395.16,710.081 1399.22,707.514 1403.28,705.466 1407.33,702.929 1411.39,699.849 1415.45,696.925 1419.51,695.134 1423.57,691.929 1427.62,689.165 1431.68,686.612 1435.74,684.557 1439.8,681.964 1443.85,679.277 1447.91,676.063 1451.97,674.422 1456.03,672.039 1460.08,669.585 1464.14,667.94 1468.2,665.549 1472.26,663.02 1476.31,660.414 1480.37,658.64 1484.43,656.484 1488.49,654.798 1492.54,650.879 1496.6,648.48 1500.66,645.344 1504.72,644.156 1508.77,641.702 1512.83,639.066 1516.89,637.238 1520.95,634.478 1525.01,631.01 1529.06,627.945 1533.12,625.804 1537.18,622.673 1541.24,621.111 1545.29,619.725 1549.35,617.072 1553.41,615.114 1557.47,611.615 1561.52,609.2 1565.58,605.946 1569.64,602.628 1573.7,600.209 1577.75,597.921 1581.81,596.294 1585.87,592.927 1589.93,591.611 1593.98,589.897 1598.04,586.698 1602.1,584.228 1606.16,582.651 1610.21,580.689 1614.27,579.708 1618.33,576.39 1622.39,573.939 1626.45,571.403 1630.5,568.974 1634.56,566.551 1638.62,564.986 1642.68,562.503 1646.73,559.047 1650.79,556.415 1654.85,554.01 1658.91,552.513 1662.96,549.949 1667.02,547.643 1671.08,545.093 1675.14,542.021 1679.19,539.263 1683.25,536.706 1687.31,534.428 1691.37,531.336 1695.42,529.303 1699.48,526.482 1703.54,524.281 1707.6,521.222 1711.65,518.528 1715.71,515.734 1719.77,513.058 1723.83,510.851 1727.89,508.289 1731.94,505.283 1736,502.544 1740.06,500.509 1744.12,497.862 1748.17,495.884 1752.23,493.209 1756.29,489.732 1760.35,487.42 1764.4,484.802 1768.46,482.797 1772.52,480.692 1776.58,478.664 1780.63,476.858 1784.69,473.59 1788.75,470.078 1792.81,467.037 1796.86,464.568 1800.92,462.455 1804.98,459.488 1809.04,458.02 1813.09,455.046 1817.15,452.316 1821.21,449.977 1825.27,447.454 1829.33,444.395 1833.38,442.04 1837.44,440.232 1841.5,437.156 1845.56,435.426 1849.61,433.043 1853.67,430.974 1857.73,429.592 1861.79,426.569 1865.84,423.661 1869.9,421.712 1873.96,418.717 1878.02,416.451 1882.07,414.004 1886.13,411.315 1890.19,408.385 1894.25,405.784 1898.3,403.089 1902.36,400.477 1906.42,397.469 1910.48,394.601 1914.54,391.929 1918.59,388.651 1922.65,386.231 1926.71,383.602 1930.77,381.013 1934.82,378.828 1938.88,375.7 1942.94,373.796 1947,371.832 1951.05,370.536 1955.11,367.775 1959.17,365.387 1963.23,362.705 1967.28,359.609 1971.34,357.447 1975.4,355.713 1979.46,353.131 1983.51,349.961 1987.57,348.107 1991.63,345.525 1995.69,342.915 1999.74,339.791 2003.8,338.258 2007.86,336.035 2011.92,333.156 2015.98,330.21 2020.03,327.704 2024.09,325.427 2028.15,322.677 2032.21,320.037 2036.26,318.61 2040.32,316.232 2044.38,313.543 2048.44,309.991 2052.49,306.896 2056.55,304.184 2060.61,301.217 2064.67,299.139 2068.72,295.236 2072.78,292.834 2076.84,290.309 2080.9,289.123 2084.95,286.449 2089.01,284.9 2093.07,282.798 2097.13,280.304 2101.18,278.009 2105.24,274.968 2109.3,272.768 2113.36,270.128 2117.42,266.542 2121.47,263.571 2125.53,261.256 2129.59,258.346 2133.65,255.799 2137.7,253.452 2141.76,250.177 2145.82,247.985 2149.88,245.538 2153.93,243.086 2157.99,239.757 2162.05,238.456 2166.11,237.176 2170.16,234.43 2174.22,232.204 2178.28,229.313 2182.34,226.814 2186.39,224.811 2190.45,222.352 2194.51,220.449 2198.57,217.586 2202.62,215.739 2206.68,212.461 2210.74,210.341 2214.8,207.689 2218.86,205.891 2222.91,204.403 2226.97,202.439 2231.03,200.038 2235.09,196.902 2239.14,193.529 2243.2,191.23 2247.26,189.531 2251.32,186.96 2255.37,184.213 2259.43,181.776 2263.49,178.318 2267.55,175.555 2271.6,172.502 2275.66,169.502 2279.72,167.633 2283.78,165.027 2287.83,162.984 2291.89,160.256 "/>
<path clip-path="url(#clip050)" d="M273.912 322.316 L997.11 322.316 L997.11 166.796 L273.912 166.796  Z" fill="#ffffff" fill-rule="evenodd" fill-opacity="1"/>
<polyline clip-path="url(#clip050)" style="stroke:#000000; stroke-linecap:round; stroke-linejoin:round; stroke-width:4; stroke-opacity:1; fill:none" points="273.912,322.316 997.11,322.316 997.11,166.796 273.912,166.796 273.912,322.316 "/>
<polyline clip-path="url(#clip050)" style="stroke:#009af9; stroke-linecap:round; stroke-linejoin:round; stroke-width:8; stroke-opacity:1; fill:none" points="297.807,218.636 441.175,218.636 "/>
<path clip-path="url(#clip050)" d="M465.07 201.356 L469.746 201.356 L469.746 215.522 L486.736 215.522 L486.736 201.356 L491.412 201.356 L491.412 235.916 L486.736 235.916 L486.736 219.457 L469.746 219.457 L469.746 235.916 L465.07 235.916 L465.07 201.356 Z" fill="#000000" fill-rule="nonzero" fill-opacity="1" /><path clip-path="url(#clip050)" d="M511.32 238.323 Q509.514 242.953 507.801 244.365 Q506.088 245.777 503.218 245.777 L499.815 245.777 L499.815 242.212 L502.315 242.212 Q504.074 242.212 505.046 241.379 Q506.019 240.545 507.199 237.443 L507.963 235.499 L497.477 209.99 L501.991 209.99 L510.093 230.268 L518.195 209.99 L522.708 209.99 L511.32 238.323 Z" fill="#000000" fill-rule="nonzero" fill-opacity="1" /><path clip-path="url(#clip050)" d="M547.199 222.976 Q547.199 218.277 545.255 215.615 Q543.333 212.93 539.954 212.93 Q536.574 212.93 534.63 215.615 Q532.708 218.277 532.708 222.976 Q532.708 227.675 534.63 230.36 Q536.574 233.022 539.954 233.022 Q543.333 233.022 545.255 230.36 Q547.199 227.675 547.199 222.976 M532.708 213.925 Q534.051 211.61 536.088 210.499 Q538.148 209.365 540.995 209.365 Q545.718 209.365 548.657 213.115 Q551.62 216.865 551.62 222.976 Q551.62 229.087 548.657 232.837 Q545.718 236.587 540.995 236.587 Q538.148 236.587 536.088 235.476 Q534.051 234.342 532.708 232.027 L532.708 235.916 L528.426 235.916 L528.426 199.897 L532.708 199.897 L532.708 213.925 Z" fill="#000000" fill-rule="nonzero" fill-opacity="1" /><path clip-path="url(#clip050)" d="M573.704 213.971 Q572.986 213.555 572.129 213.37 Q571.296 213.161 570.278 213.161 Q566.667 213.161 564.722 215.522 Q562.801 217.86 562.801 222.258 L562.801 235.916 L558.518 235.916 L558.518 209.99 L562.801 209.99 L562.801 214.018 Q564.143 211.657 566.296 210.522 Q568.449 209.365 571.528 209.365 Q571.967 209.365 572.5 209.434 Q573.032 209.481 573.68 209.596 L573.704 213.971 Z" fill="#000000" fill-rule="nonzero" fill-opacity="1" /><path clip-path="url(#clip050)" d="M578.171 209.99 L582.43 209.99 L582.43 235.916 L578.171 235.916 L578.171 209.99 M578.171 199.897 L582.43 199.897 L582.43 205.291 L578.171 205.291 L578.171 199.897 Z" fill="#000000" fill-rule="nonzero" fill-opacity="1" /><path clip-path="url(#clip050)" d="M608.402 213.925 L608.402 199.897 L612.662 199.897 L612.662 235.916 L608.402 235.916 L608.402 232.027 Q607.06 234.342 605 235.476 Q602.963 236.587 600.092 236.587 Q595.393 236.587 592.43 232.837 Q589.49 229.087 589.49 222.976 Q589.49 216.865 592.43 213.115 Q595.393 209.365 600.092 209.365 Q602.963 209.365 605 210.499 Q607.06 211.61 608.402 213.925 M593.889 222.976 Q593.889 227.675 595.81 230.36 Q597.754 233.022 601.134 233.022 Q604.514 233.022 606.458 230.36 Q608.402 227.675 608.402 222.976 Q608.402 218.277 606.458 215.615 Q604.514 212.93 601.134 212.93 Q597.754 212.93 595.81 215.615 Q593.889 218.277 593.889 222.976 Z" fill="#000000" fill-rule="nonzero" fill-opacity="1" /><path clip-path="url(#clip050)" d="M646.736 199.944 Q643.634 205.268 642.129 210.476 Q640.624 215.684 640.624 221.032 Q640.624 226.379 642.129 231.633 Q643.657 236.865 646.736 242.166 L643.032 242.166 Q639.56 236.726 637.824 231.471 Q636.111 226.217 636.111 221.032 Q636.111 215.87 637.824 210.638 Q639.536 205.407 643.032 199.944 L646.736 199.944 Z" fill="#000000" fill-rule="nonzero" fill-opacity="1" /><path clip-path="url(#clip050)" d="M673.657 210.985 L673.657 214.967 Q671.851 213.971 670.022 213.485 Q668.217 212.976 666.365 212.976 Q662.222 212.976 659.93 215.615 Q657.638 218.231 657.638 222.976 Q657.638 227.721 659.93 230.36 Q662.222 232.976 666.365 232.976 Q668.217 232.976 670.022 232.49 Q671.851 231.981 673.657 230.985 L673.657 234.92 Q671.874 235.754 669.953 236.17 Q668.055 236.587 665.902 236.587 Q660.046 236.587 656.597 232.906 Q653.148 229.226 653.148 222.976 Q653.148 216.633 656.62 212.999 Q660.115 209.365 666.18 209.365 Q668.147 209.365 670.022 209.782 Q671.897 210.175 673.657 210.985 Z" fill="#000000" fill-rule="nonzero" fill-opacity="1" /><path clip-path="url(#clip050)" d="M691.11 212.976 Q687.684 212.976 685.694 215.661 Q683.703 218.323 683.703 222.976 Q683.703 227.629 685.671 230.314 Q687.661 232.976 691.11 232.976 Q694.513 232.976 696.504 230.291 Q698.495 227.606 698.495 222.976 Q698.495 218.37 696.504 215.684 Q694.513 212.976 691.11 212.976 M691.11 209.365 Q696.666 209.365 699.837 212.976 Q703.008 216.587 703.008 222.976 Q703.008 229.342 699.837 232.976 Q696.666 236.587 691.11 236.587 Q685.532 236.587 682.36 232.976 Q679.212 229.342 679.212 222.976 Q679.212 216.587 682.36 212.976 Q685.532 209.365 691.11 209.365 Z" fill="#000000" fill-rule="nonzero" fill-opacity="1" /><path clip-path="url(#clip050)" d="M731.619 220.268 L731.619 235.916 L727.36 235.916 L727.36 220.407 Q727.36 216.726 725.925 214.897 Q724.49 213.069 721.619 213.069 Q718.17 213.069 716.18 215.268 Q714.189 217.467 714.189 221.263 L714.189 235.916 L709.906 235.916 L709.906 209.99 L714.189 209.99 L714.189 214.018 Q715.717 211.68 717.777 210.522 Q719.86 209.365 722.568 209.365 Q727.036 209.365 729.328 212.143 Q731.619 214.897 731.619 220.268 Z" fill="#000000" fill-rule="nonzero" fill-opacity="1" /><path clip-path="url(#clip050)" d="M744.328 202.629 L744.328 209.99 L753.101 209.99 L753.101 213.3 L744.328 213.3 L744.328 227.374 Q744.328 230.545 745.184 231.448 Q746.064 232.351 748.726 232.351 L753.101 232.351 L753.101 235.916 L748.726 235.916 Q743.795 235.916 741.92 234.087 Q740.045 232.235 740.045 227.374 L740.045 213.3 L736.92 213.3 L736.92 209.99 L740.045 209.99 L740.045 202.629 L744.328 202.629 Z" fill="#000000" fill-rule="nonzero" fill-opacity="1" /><path clip-path="url(#clip050)" d="M758.703 209.99 L762.962 209.99 L762.962 235.916 L758.703 235.916 L758.703 209.99 M758.703 199.897 L762.962 199.897 L762.962 205.291 L758.703 205.291 L758.703 199.897 Z" fill="#000000" fill-rule="nonzero" fill-opacity="1" /><path clip-path="url(#clip050)" d="M793.425 220.268 L793.425 235.916 L789.165 235.916 L789.165 220.407 Q789.165 216.726 787.73 214.897 Q786.295 213.069 783.425 213.069 Q779.976 213.069 777.985 215.268 Q775.994 217.467 775.994 221.263 L775.994 235.916 L771.712 235.916 L771.712 209.99 L775.994 209.99 L775.994 214.018 Q777.522 211.68 779.582 210.522 Q781.665 209.365 784.374 209.365 Q788.841 209.365 791.133 212.143 Q793.425 214.897 793.425 220.268 Z" fill="#000000" fill-rule="nonzero" fill-opacity="1" /><path clip-path="url(#clip050)" d="M801.48 225.684 L801.48 209.99 L805.739 209.99 L805.739 225.522 Q805.739 229.203 807.174 231.055 Q808.61 232.883 811.48 232.883 Q814.929 232.883 816.92 230.684 Q818.934 228.485 818.934 224.689 L818.934 209.99 L823.193 209.99 L823.193 235.916 L818.934 235.916 L818.934 231.934 Q817.383 234.295 815.323 235.453 Q813.286 236.587 810.577 236.587 Q806.11 236.587 803.795 233.809 Q801.48 231.031 801.48 225.684 M812.198 209.365 L812.198 209.365 Z" fill="#000000" fill-rule="nonzero" fill-opacity="1" /><path clip-path="url(#clip050)" d="M842.012 212.976 Q838.586 212.976 836.596 215.661 Q834.605 218.323 834.605 222.976 Q834.605 227.629 836.572 230.314 Q838.563 232.976 842.012 232.976 Q845.415 232.976 847.406 230.291 Q849.396 227.606 849.396 222.976 Q849.396 218.37 847.406 215.684 Q845.415 212.976 842.012 212.976 M842.012 209.365 Q847.568 209.365 850.739 212.976 Q853.91 216.587 853.91 222.976 Q853.91 229.342 850.739 232.976 Q847.568 236.587 842.012 236.587 Q836.434 236.587 833.262 232.976 Q830.114 229.342 830.114 222.976 Q830.114 216.587 833.262 212.976 Q836.434 209.365 842.012 209.365 Z" fill="#000000" fill-rule="nonzero" fill-opacity="1" /><path clip-path="url(#clip050)" d="M860.531 225.684 L860.531 209.99 L864.79 209.99 L864.79 225.522 Q864.79 229.203 866.225 231.055 Q867.66 232.883 870.531 232.883 Q873.98 232.883 875.97 230.684 Q877.984 228.485 877.984 224.689 L877.984 209.99 L882.244 209.99 L882.244 235.916 L877.984 235.916 L877.984 231.934 Q876.433 234.295 874.373 235.453 Q872.336 236.587 869.628 236.587 Q865.16 236.587 862.845 233.809 Q860.531 231.031 860.531 225.684 M871.248 209.365 L871.248 209.365 Z" fill="#000000" fill-rule="nonzero" fill-opacity="1" /><path clip-path="url(#clip050)" d="M907.544 210.754 L907.544 214.782 Q905.739 213.856 903.794 213.393 Q901.85 212.93 899.767 212.93 Q896.595 212.93 894.998 213.902 Q893.424 214.874 893.424 216.819 Q893.424 218.3 894.558 219.157 Q895.693 219.99 899.118 220.754 L900.577 221.078 Q905.114 222.05 907.012 223.832 Q908.933 225.592 908.933 228.763 Q908.933 232.374 906.063 234.481 Q903.216 236.587 898.216 236.587 Q896.132 236.587 893.864 236.17 Q891.618 235.777 889.118 234.967 L889.118 230.569 Q891.48 231.795 893.771 232.42 Q896.063 233.022 898.308 233.022 Q901.317 233.022 902.938 232.004 Q904.558 230.962 904.558 229.087 Q904.558 227.351 903.378 226.425 Q902.22 225.499 898.262 224.643 L896.78 224.295 Q892.822 223.462 891.063 221.749 Q889.304 220.013 889.304 217.004 Q889.304 213.346 891.896 211.356 Q894.489 209.365 899.257 209.365 Q901.618 209.365 903.702 209.712 Q905.785 210.059 907.544 210.754 Z" fill="#000000" fill-rule="nonzero" fill-opacity="1" /><path clip-path="url(#clip050)" d="M929.303 201.356 L934.327 201.356 L942.914 214.203 L951.549 201.356 L956.572 201.356 L945.461 217.953 L957.313 235.916 L952.289 235.916 L942.567 221.217 L932.776 235.916 L927.729 235.916 L940.067 217.467 L929.303 201.356 Z" fill="#000000" fill-rule="nonzero" fill-opacity="1" /><path clip-path="url(#clip050)" d="M962.59 199.944 L966.294 199.944 Q969.766 205.407 971.479 210.638 Q973.215 215.87 973.215 221.032 Q973.215 226.217 971.479 231.471 Q969.766 236.726 966.294 242.166 L962.59 242.166 Q965.669 236.865 967.174 231.633 Q968.701 226.379 968.701 221.032 Q968.701 215.684 967.174 210.476 Q965.669 205.268 962.59 199.944 Z" fill="#000000" fill-rule="nonzero" fill-opacity="1" /><polyline clip-path="url(#clip050)" style="stroke:#e26f46; stroke-linecap:round; stroke-linejoin:round; stroke-width:8; stroke-opacity:1; fill:none" points="297.807,270.476 441.175,270.476 "/>
<path clip-path="url(#clip050)" d="M469.746 257.038 L469.746 283.913 L475.394 283.913 Q482.547 283.913 485.857 280.672 Q489.19 277.432 489.19 270.441 Q489.19 263.497 485.857 260.279 Q482.547 257.038 475.394 257.038 L469.746 257.038 M465.07 253.196 L474.676 253.196 Q484.723 253.196 489.422 257.386 Q494.121 261.552 494.121 270.441 Q494.121 279.376 489.398 283.566 Q484.676 287.756 474.676 287.756 L465.07 287.756 L465.07 253.196 Z" fill="#000000" fill-rule="nonzero" fill-opacity="1" /><path clip-path="url(#clip050)" d="M501.389 261.83 L505.648 261.83 L505.648 287.756 L501.389 287.756 L501.389 261.83 M501.389 251.737 L505.648 251.737 L505.648 257.131 L501.389 257.131 L501.389 251.737 Z" fill="#000000" fill-rule="nonzero" fill-opacity="1" /><path clip-path="url(#clip050)" d="M531.088 262.594 L531.088 266.622 Q529.282 265.696 527.338 265.233 Q525.394 264.77 523.31 264.77 Q520.139 264.77 518.542 265.742 Q516.968 266.714 516.968 268.659 Q516.968 270.14 518.102 270.997 Q519.236 271.83 522.662 272.594 L524.12 272.918 Q528.657 273.89 530.556 275.672 Q532.477 277.432 532.477 280.603 Q532.477 284.214 529.607 286.321 Q526.759 288.427 521.759 288.427 Q519.676 288.427 517.408 288.01 Q515.162 287.617 512.662 286.807 L512.662 282.409 Q515.023 283.635 517.315 284.26 Q519.607 284.862 521.852 284.862 Q524.861 284.862 526.482 283.844 Q528.102 282.802 528.102 280.927 Q528.102 279.191 526.921 278.265 Q525.764 277.339 521.806 276.483 L520.324 276.135 Q516.366 275.302 514.607 273.589 Q512.847 271.853 512.847 268.844 Q512.847 265.186 515.44 263.196 Q518.033 261.205 522.801 261.205 Q525.162 261.205 527.245 261.552 Q529.329 261.899 531.088 262.594 Z" fill="#000000" fill-rule="nonzero" fill-opacity="1" /><path clip-path="url(#clip050)" d="M557.917 262.825 L557.917 266.807 Q556.111 265.811 554.282 265.325 Q552.477 264.816 550.625 264.816 Q546.481 264.816 544.19 267.455 Q541.898 270.071 541.898 274.816 Q541.898 279.561 544.19 282.2 Q546.481 284.816 550.625 284.816 Q552.477 284.816 554.282 284.33 Q556.111 283.821 557.917 282.825 L557.917 286.76 Q556.134 287.594 554.213 288.01 Q552.315 288.427 550.162 288.427 Q544.306 288.427 540.856 284.746 Q537.407 281.066 537.407 274.816 Q537.407 268.473 540.88 264.839 Q544.375 261.205 550.44 261.205 Q552.407 261.205 554.282 261.622 Q556.157 262.015 557.917 262.825 Z" fill="#000000" fill-rule="nonzero" fill-opacity="1" /><path clip-path="url(#clip050)" d="M580.347 265.811 Q579.629 265.395 578.773 265.21 Q577.94 265.001 576.921 265.001 Q573.31 265.001 571.366 267.362 Q569.444 269.7 569.444 274.098 L569.444 287.756 L565.162 287.756 L565.162 261.83 L569.444 261.83 L569.444 265.858 Q570.787 263.497 572.94 262.362 Q575.092 261.205 578.171 261.205 Q578.611 261.205 579.143 261.274 Q579.676 261.321 580.324 261.436 L580.347 265.811 Z" fill="#000000" fill-rule="nonzero" fill-opacity="1" /><path clip-path="url(#clip050)" d="M605.949 273.728 L605.949 275.811 L586.365 275.811 Q586.643 280.209 589.004 282.524 Q591.389 284.816 595.625 284.816 Q598.078 284.816 600.37 284.214 Q602.685 283.612 604.953 282.409 L604.953 286.436 Q602.662 287.408 600.254 287.918 Q597.847 288.427 595.37 288.427 Q589.166 288.427 585.532 284.816 Q581.921 281.205 581.921 275.047 Q581.921 268.682 585.347 264.955 Q588.796 261.205 594.629 261.205 Q599.861 261.205 602.893 264.585 Q605.949 267.941 605.949 273.728 M601.689 272.478 Q601.643 268.983 599.722 266.899 Q597.824 264.816 594.676 264.816 Q591.111 264.816 588.958 266.83 Q586.828 268.844 586.504 272.501 L601.689 272.478 Z" fill="#000000" fill-rule="nonzero" fill-opacity="1" /><path clip-path="url(#clip050)" d="M617.152 254.469 L617.152 261.83 L625.925 261.83 L625.925 265.14 L617.152 265.14 L617.152 279.214 Q617.152 282.385 618.009 283.288 Q618.888 284.191 621.55 284.191 L625.925 284.191 L625.925 287.756 L621.55 287.756 Q616.62 287.756 614.745 285.927 Q612.87 284.075 612.87 279.214 L612.87 265.14 L609.745 265.14 L609.745 261.83 L612.87 261.83 L612.87 254.469 L617.152 254.469 Z" fill="#000000" fill-rule="nonzero" fill-opacity="1" /><path clip-path="url(#clip050)" d="M653.703 273.728 L653.703 275.811 L634.12 275.811 Q634.398 280.209 636.759 282.524 Q639.143 284.816 643.379 284.816 Q645.833 284.816 648.124 284.214 Q650.439 283.612 652.708 282.409 L652.708 286.436 Q650.416 287.408 648.009 287.918 Q645.601 288.427 643.124 288.427 Q636.921 288.427 633.287 284.816 Q629.675 281.205 629.675 275.047 Q629.675 268.682 633.101 264.955 Q636.55 261.205 642.384 261.205 Q647.615 261.205 650.648 264.585 Q653.703 267.941 653.703 273.728 M649.444 272.478 Q649.398 268.983 647.476 266.899 Q645.578 264.816 642.43 264.816 Q638.865 264.816 636.712 266.83 Q634.583 268.844 634.259 272.501 L649.444 272.478 Z" fill="#000000" fill-rule="nonzero" fill-opacity="1" /><path clip-path="url(#clip050)" d="M685.995 251.784 Q682.893 257.108 681.388 262.316 Q679.883 267.524 679.883 272.872 Q679.883 278.219 681.388 283.473 Q682.916 288.705 685.995 294.006 L682.291 294.006 Q678.819 288.566 677.083 283.311 Q675.37 278.057 675.37 272.872 Q675.37 267.71 677.083 262.478 Q678.796 257.247 682.291 251.784 L685.995 251.784 Z" fill="#000000" fill-rule="nonzero" fill-opacity="1" /><path clip-path="url(#clip050)" d="M711.319 265.765 L711.319 251.737 L715.578 251.737 L715.578 287.756 L711.319 287.756 L711.319 283.867 Q709.976 286.182 707.916 287.316 Q705.879 288.427 703.008 288.427 Q698.309 288.427 695.346 284.677 Q692.407 280.927 692.407 274.816 Q692.407 268.705 695.346 264.955 Q698.309 261.205 703.008 261.205 Q705.879 261.205 707.916 262.339 Q709.976 263.45 711.319 265.765 M696.805 274.816 Q696.805 279.515 698.726 282.2 Q700.67 284.862 704.05 284.862 Q707.43 284.862 709.374 282.2 Q711.319 279.515 711.319 274.816 Q711.319 270.117 709.374 267.455 Q707.43 264.77 704.05 264.77 Q700.67 264.77 698.726 267.455 Q696.805 270.117 696.805 274.816 Z" fill="#000000" fill-rule="nonzero" fill-opacity="1" /><path clip-path="url(#clip050)" d="M724.351 261.83 L728.61 261.83 L728.61 287.756 L724.351 287.756 L724.351 261.83 M724.351 251.737 L728.61 251.737 L728.61 257.131 L724.351 257.131 L724.351 251.737 Z" fill="#000000" fill-rule="nonzero" fill-opacity="1" /><path clip-path="url(#clip050)" d="M754.05 262.594 L754.05 266.622 Q752.244 265.696 750.3 265.233 Q748.355 264.77 746.272 264.77 Q743.101 264.77 741.504 265.742 Q739.929 266.714 739.929 268.659 Q739.929 270.14 741.064 270.997 Q742.198 271.83 745.624 272.594 L747.082 272.918 Q751.619 273.89 753.517 275.672 Q755.439 277.432 755.439 280.603 Q755.439 284.214 752.568 286.321 Q749.721 288.427 744.721 288.427 Q742.638 288.427 740.369 288.01 Q738.124 287.617 735.624 286.807 L735.624 282.409 Q737.985 283.635 740.277 284.26 Q742.568 284.862 744.814 284.862 Q747.823 284.862 749.443 283.844 Q751.064 282.802 751.064 280.927 Q751.064 279.191 749.883 278.265 Q748.726 277.339 744.767 276.483 L743.286 276.135 Q739.328 275.302 737.568 273.589 Q735.809 271.853 735.809 268.844 Q735.809 265.186 738.402 263.196 Q740.994 261.205 745.763 261.205 Q748.124 261.205 750.207 261.552 Q752.291 261.899 754.05 262.594 Z" fill="#000000" fill-rule="nonzero" fill-opacity="1" /><path clip-path="url(#clip050)" d="M780.878 262.825 L780.878 266.807 Q779.073 265.811 777.244 265.325 Q775.439 264.816 773.587 264.816 Q769.443 264.816 767.152 267.455 Q764.86 270.071 764.86 274.816 Q764.86 279.561 767.152 282.2 Q769.443 284.816 773.587 284.816 Q775.439 284.816 777.244 284.33 Q779.073 283.821 780.878 282.825 L780.878 286.76 Q779.096 287.594 777.175 288.01 Q775.277 288.427 773.124 288.427 Q767.267 288.427 763.818 284.746 Q760.369 281.066 760.369 274.816 Q760.369 268.473 763.841 264.839 Q767.337 261.205 773.402 261.205 Q775.369 261.205 777.244 261.622 Q779.119 262.015 780.878 262.825 Z" fill="#000000" fill-rule="nonzero" fill-opacity="1" /><path clip-path="url(#clip050)" d="M803.309 265.811 Q802.591 265.395 801.735 265.21 Q800.901 265.001 799.883 265.001 Q796.272 265.001 794.327 267.362 Q792.406 269.7 792.406 274.098 L792.406 287.756 L788.124 287.756 L788.124 261.83 L792.406 261.83 L792.406 265.858 Q793.749 263.497 795.901 262.362 Q798.054 261.205 801.133 261.205 Q801.573 261.205 802.105 261.274 Q802.637 261.321 803.286 261.436 L803.309 265.811 Z" fill="#000000" fill-rule="nonzero" fill-opacity="1" /><path clip-path="url(#clip050)" d="M828.91 273.728 L828.91 275.811 L809.327 275.811 Q809.605 280.209 811.966 282.524 Q814.35 284.816 818.586 284.816 Q821.04 284.816 823.332 284.214 Q825.647 283.612 827.915 282.409 L827.915 286.436 Q825.623 287.408 823.216 287.918 Q820.809 288.427 818.332 288.427 Q812.128 288.427 808.494 284.816 Q804.883 281.205 804.883 275.047 Q804.883 268.682 808.309 264.955 Q811.758 261.205 817.591 261.205 Q822.823 261.205 825.855 264.585 Q828.91 267.941 828.91 273.728 M824.651 272.478 Q824.605 268.983 822.684 266.899 Q820.786 264.816 817.637 264.816 Q814.073 264.816 811.92 266.83 Q809.79 268.844 809.466 272.501 L824.651 272.478 Z" fill="#000000" fill-rule="nonzero" fill-opacity="1" /><path clip-path="url(#clip050)" d="M840.114 254.469 L840.114 261.83 L848.887 261.83 L848.887 265.14 L840.114 265.14 L840.114 279.214 Q840.114 282.385 840.971 283.288 Q841.85 284.191 844.512 284.191 L848.887 284.191 L848.887 287.756 L844.512 287.756 Q839.582 287.756 837.707 285.927 Q835.832 284.075 835.832 279.214 L835.832 265.14 L832.707 265.14 L832.707 261.83 L835.832 261.83 L835.832 254.469 L840.114 254.469 Z" fill="#000000" fill-rule="nonzero" fill-opacity="1" /><path clip-path="url(#clip050)" d="M876.665 273.728 L876.665 275.811 L857.082 275.811 Q857.359 280.209 859.72 282.524 Q862.105 284.816 866.341 284.816 Q868.795 284.816 871.086 284.214 Q873.401 283.612 875.669 282.409 L875.669 286.436 Q873.378 287.408 870.97 287.918 Q868.563 288.427 866.086 288.427 Q859.883 288.427 856.248 284.816 Q852.637 281.205 852.637 275.047 Q852.637 268.682 856.063 264.955 Q859.512 261.205 865.345 261.205 Q870.577 261.205 873.609 264.585 Q876.665 267.941 876.665 273.728 M872.406 272.478 Q872.359 268.983 870.438 266.899 Q868.54 264.816 865.392 264.816 Q861.827 264.816 859.674 266.83 Q857.545 268.844 857.221 272.501 L872.406 272.478 Z" fill="#000000" fill-rule="nonzero" fill-opacity="1" /><path clip-path="url(#clip050)" d="M897.243 253.196 L902.267 253.196 L910.854 266.043 L919.489 253.196 L924.512 253.196 L913.401 269.793 L925.253 287.756 L920.229 287.756 L910.507 273.057 L900.716 287.756 L895.669 287.756 L908.007 269.307 L897.243 253.196 Z" fill="#000000" fill-rule="nonzero" fill-opacity="1" /><path clip-path="url(#clip050)" d="M930.53 251.784 L934.234 251.784 Q937.706 257.247 939.419 262.478 Q941.155 267.71 941.155 272.872 Q941.155 278.057 939.419 283.311 Q937.706 288.566 934.234 294.006 L930.53 294.006 Q933.609 288.705 935.114 283.473 Q936.641 278.219 936.641 272.872 Q936.641 267.524 935.114 262.316 Q933.609 257.108 930.53 251.784 Z" fill="#000000" fill-rule="nonzero" fill-opacity="1" /></svg>
