<?xml version="1.0" encoding="utf-8"?>
<svg xmlns="http://www.w3.org/2000/svg" xmlns:xlink="http://www.w3.org/1999/xlink" width="600" height="400" viewBox="0 0 2400 1600">
<defs>
  <clipPath id="clip810">
    <rect x="0" y="0" width="2400" height="1600"/>
  </clipPath>
</defs>
<path clip-path="url(#clip810)" d="M0 1600 L2400 1600 L2400 0 L0 0  Z" fill="#ffffff" fill-rule="evenodd" fill-opacity="1"/>
<defs>
  <clipPath id="clip811">
    <rect x="480" y="0" width="1681" height="1600"/>
  </clipPath>
</defs>
<path clip-path="url(#clip810)" d="M140.858 1486.45 L2352.76 1486.45 L2352.76 47.2441 L140.858 47.2441  Z" fill="#ffffff" fill-rule="evenodd" fill-opacity="1"/>
<defs>
  <clipPath id="clip812">
    <rect x="140" y="47" width="2213" height="1440"/>
  </clipPath>
</defs>
<polyline clip-path="url(#clip812)" style="stroke:#000000; stroke-linecap:round; stroke-linejoin:round; stroke-width:2; stroke-opacity:0.1; fill:none" points="203.458,1486.45 203.458,47.2441 "/>
<polyline clip-path="url(#clip812)" style="stroke:#000000; stroke-linecap:round; stroke-linejoin:round; stroke-width:2; stroke-opacity:0.1; fill:none" points="725.133,1486.45 725.133,47.2441 "/>
<polyline clip-path="url(#clip812)" style="stroke:#000000; stroke-linecap:round; stroke-linejoin:round; stroke-width:2; stroke-opacity:0.1; fill:none" points="1246.81,1486.45 1246.81,47.2441 "/>
<polyline clip-path="url(#clip812)" style="stroke:#000000; stroke-linecap:round; stroke-linejoin:round; stroke-width:2; stroke-opacity:0.1; fill:none" points="1768.48,1486.45 1768.48,47.2441 "/>
<polyline clip-path="url(#clip812)" style="stroke:#000000; stroke-linecap:round; stroke-linejoin:round; stroke-width:2; stroke-opacity:0.1; fill:none" points="2290.16,1486.45 2290.16,47.2441 "/>
<polyline clip-path="url(#clip812)" style="stroke:#000000; stroke-linecap:round; stroke-linejoin:round; stroke-width:2; stroke-opacity:0.1; fill:none" points="140.858,1282.79 2352.76,1282.79 "/>
<polyline clip-path="url(#clip812)" style="stroke:#000000; stroke-linecap:round; stroke-linejoin:round; stroke-width:2; stroke-opacity:0.1; fill:none" points="140.858,1011.24 2352.76,1011.24 "/>
<polyline clip-path="url(#clip812)" style="stroke:#000000; stroke-linecap:round; stroke-linejoin:round; stroke-width:2; stroke-opacity:0.1; fill:none" points="140.858,739.691 2352.76,739.691 "/>
<polyline clip-path="url(#clip812)" style="stroke:#000000; stroke-linecap:round; stroke-linejoin:round; stroke-width:2; stroke-opacity:0.1; fill:none" points="140.858,468.143 2352.76,468.143 "/>
<polyline clip-path="url(#clip812)" style="stroke:#000000; stroke-linecap:round; stroke-linejoin:round; stroke-width:2; stroke-opacity:0.1; fill:none" points="140.858,196.595 2352.76,196.595 "/>
<polyline clip-path="url(#clip810)" style="stroke:#000000; stroke-linecap:round; stroke-linejoin:round; stroke-width:4; stroke-opacity:1; fill:none" points="140.858,1486.45 2352.76,1486.45 "/>
<polyline clip-path="url(#clip810)" style="stroke:#000000; stroke-linecap:round; stroke-linejoin:round; stroke-width:4; stroke-opacity:1; fill:none" points="203.458,1486.45 203.458,1467.55 "/>
<polyline clip-path="url(#clip810)" style="stroke:#000000; stroke-linecap:round; stroke-linejoin:round; stroke-width:4; stroke-opacity:1; fill:none" points="725.133,1486.45 725.133,1467.55 "/>
<polyline clip-path="url(#clip810)" style="stroke:#000000; stroke-linecap:round; stroke-linejoin:round; stroke-width:4; stroke-opacity:1; fill:none" points="1246.81,1486.45 1246.81,1467.55 "/>
<polyline clip-path="url(#clip810)" style="stroke:#000000; stroke-linecap:round; stroke-linejoin:round; stroke-width:4; stroke-opacity:1; fill:none" points="1768.48,1486.45 1768.48,1467.55 "/>
<polyline clip-path="url(#clip810)" style="stroke:#000000; stroke-linecap:round; stroke-linejoin:round; stroke-width:4; stroke-opacity:1; fill:none" points="2290.16,1486.45 2290.16,1467.55 "/>
<path clip-path="url(#clip810)" d="M180.843 1517.37 Q177.232 1517.37 175.403 1520.93 Q173.598 1524.47 173.598 1531.6 Q173.598 1538.71 175.403 1542.27 Q177.232 1545.82 180.843 1545.82 Q184.477 1545.82 186.283 1542.27 Q188.111 1538.71 188.111 1531.6 Q188.111 1524.47 186.283 1520.93 Q184.477 1517.37 180.843 1517.37 M180.843 1513.66 Q186.653 1513.66 189.709 1518.27 Q192.787 1522.85 192.787 1531.6 Q192.787 1540.33 189.709 1544.94 Q186.653 1549.52 180.843 1549.52 Q175.033 1549.52 171.954 1544.94 Q168.898 1540.33 168.898 1531.6 Q168.898 1522.85 171.954 1518.27 Q175.033 1513.66 180.843 1513.66 Z" fill="#000000" fill-rule="nonzero" fill-opacity="1" /><path clip-path="url(#clip810)" d="M201.005 1542.97 L205.889 1542.97 L205.889 1548.85 L201.005 1548.85 L201.005 1542.97 Z" fill="#000000" fill-rule="nonzero" fill-opacity="1" /><path clip-path="url(#clip810)" d="M226.074 1517.37 Q222.463 1517.37 220.634 1520.93 Q218.829 1524.47 218.829 1531.6 Q218.829 1538.71 220.634 1542.27 Q222.463 1545.82 226.074 1545.82 Q229.708 1545.82 231.514 1542.27 Q233.343 1538.71 233.343 1531.6 Q233.343 1524.47 231.514 1520.93 Q229.708 1517.37 226.074 1517.37 M226.074 1513.66 Q231.884 1513.66 234.94 1518.27 Q238.018 1522.85 238.018 1531.6 Q238.018 1540.33 234.94 1544.94 Q231.884 1549.52 226.074 1549.52 Q220.264 1549.52 217.185 1544.94 Q214.13 1540.33 214.13 1531.6 Q214.13 1522.85 217.185 1518.27 Q220.264 1513.66 226.074 1513.66 Z" fill="#000000" fill-rule="nonzero" fill-opacity="1" /><path clip-path="url(#clip810)" d="M703.015 1517.37 Q699.404 1517.37 697.575 1520.93 Q695.769 1524.47 695.769 1531.6 Q695.769 1538.71 697.575 1542.27 Q699.404 1545.82 703.015 1545.82 Q706.649 1545.82 708.454 1542.27 Q710.283 1538.71 710.283 1531.6 Q710.283 1524.47 708.454 1520.93 Q706.649 1517.37 703.015 1517.37 M703.015 1513.66 Q708.825 1513.66 711.88 1518.27 Q714.959 1522.85 714.959 1531.6 Q714.959 1540.33 711.88 1544.94 Q708.825 1549.52 703.015 1549.52 Q697.205 1549.52 694.126 1544.94 Q691.07 1540.33 691.07 1531.6 Q691.07 1522.85 694.126 1518.27 Q697.205 1513.66 703.015 1513.66 Z" fill="#000000" fill-rule="nonzero" fill-opacity="1" /><path clip-path="url(#clip810)" d="M723.177 1542.97 L728.061 1542.97 L728.061 1548.85 L723.177 1548.85 L723.177 1542.97 Z" fill="#000000" fill-rule="nonzero" fill-opacity="1" /><path clip-path="url(#clip810)" d="M738.292 1514.29 L756.649 1514.29 L756.649 1518.22 L742.575 1518.22 L742.575 1526.7 Q743.593 1526.35 744.612 1526.19 Q745.63 1526 746.649 1526 Q752.436 1526 755.815 1529.17 Q759.195 1532.34 759.195 1537.76 Q759.195 1543.34 755.723 1546.44 Q752.251 1549.52 745.931 1549.52 Q743.755 1549.52 741.487 1549.15 Q739.241 1548.78 736.834 1548.04 L736.834 1543.34 Q738.917 1544.47 741.139 1545.03 Q743.362 1545.58 745.839 1545.58 Q749.843 1545.58 752.181 1543.48 Q754.519 1541.37 754.519 1537.76 Q754.519 1534.15 752.181 1532.04 Q749.843 1529.94 745.839 1529.94 Q743.964 1529.94 742.089 1530.35 Q740.237 1530.77 738.292 1531.65 L738.292 1514.29 Z" fill="#000000" fill-rule="nonzero" fill-opacity="1" /><path clip-path="url(#clip810)" d="M1213.96 1544.91 L1221.6 1544.91 L1221.6 1518.55 L1213.29 1520.21 L1213.29 1515.95 L1221.55 1514.29 L1226.23 1514.29 L1226.23 1544.91 L1233.87 1544.91 L1233.87 1548.85 L1213.96 1548.85 L1213.96 1544.91 Z" fill="#000000" fill-rule="nonzero" fill-opacity="1" /><path clip-path="url(#clip810)" d="M1243.31 1542.97 L1248.2 1542.97 L1248.2 1548.85 L1243.31 1548.85 L1243.31 1542.97 Z" fill="#000000" fill-rule="nonzero" fill-opacity="1" /><path clip-path="url(#clip810)" d="M1268.38 1517.37 Q1264.77 1517.37 1262.94 1520.93 Q1261.14 1524.47 1261.14 1531.6 Q1261.14 1538.71 1262.94 1542.27 Q1264.77 1545.82 1268.38 1545.82 Q1272.01 1545.82 1273.82 1542.27 Q1275.65 1538.71 1275.65 1531.6 Q1275.65 1524.47 1273.82 1520.93 Q1272.01 1517.37 1268.38 1517.37 M1268.38 1513.66 Q1274.19 1513.66 1277.25 1518.27 Q1280.33 1522.85 1280.33 1531.6 Q1280.33 1540.33 1277.25 1544.94 Q1274.19 1549.52 1268.38 1549.52 Q1262.57 1549.52 1259.49 1544.94 Q1256.44 1540.33 1256.44 1531.6 Q1256.44 1522.85 1259.49 1518.27 Q1262.57 1513.66 1268.38 1513.66 Z" fill="#000000" fill-rule="nonzero" fill-opacity="1" /><path clip-path="url(#clip810)" d="M1736.13 1544.91 L1743.77 1544.91 L1743.77 1518.55 L1735.46 1520.21 L1735.46 1515.95 L1743.72 1514.29 L1748.4 1514.29 L1748.4 1544.91 L1756.04 1544.91 L1756.04 1548.85 L1736.13 1548.85 L1736.13 1544.91 Z" fill="#000000" fill-rule="nonzero" fill-opacity="1" /><path clip-path="url(#clip810)" d="M1765.48 1542.97 L1770.37 1542.97 L1770.37 1548.85 L1765.48 1548.85 L1765.48 1542.97 Z" fill="#000000" fill-rule="nonzero" fill-opacity="1" /><path clip-path="url(#clip810)" d="M1780.6 1514.29 L1798.96 1514.29 L1798.96 1518.22 L1784.88 1518.22 L1784.88 1526.7 Q1785.9 1526.35 1786.92 1526.19 Q1787.94 1526 1788.96 1526 Q1794.74 1526 1798.12 1529.17 Q1801.5 1532.34 1801.5 1537.76 Q1801.5 1543.34 1798.03 1546.44 Q1794.56 1549.52 1788.24 1549.52 Q1786.06 1549.52 1783.79 1549.15 Q1781.55 1548.78 1779.14 1548.04 L1779.14 1543.34 Q1781.22 1544.47 1783.45 1545.03 Q1785.67 1545.58 1788.15 1545.58 Q1792.15 1545.58 1794.49 1543.48 Q1796.83 1541.37 1796.83 1537.76 Q1796.83 1534.15 1794.49 1532.04 Q1792.15 1529.94 1788.15 1529.94 Q1786.27 1529.94 1784.4 1530.35 Q1782.54 1530.77 1780.6 1531.65 L1780.6 1514.29 Z" fill="#000000" fill-rule="nonzero" fill-opacity="1" /><path clip-path="url(#clip810)" d="M2261.39 1544.91 L2277.71 1544.91 L2277.71 1548.85 L2255.77 1548.85 L2255.77 1544.91 Q2258.43 1542.16 2263.01 1537.53 Q2267.62 1532.88 2268.8 1531.53 Q2271.05 1529.01 2271.93 1527.27 Q2272.83 1525.51 2272.83 1523.82 Q2272.83 1521.07 2270.88 1519.33 Q2268.96 1517.6 2265.86 1517.6 Q2263.66 1517.6 2261.21 1518.36 Q2258.78 1519.13 2256 1520.68 L2256 1515.95 Q2258.82 1514.82 2261.28 1514.24 Q2263.73 1513.66 2265.77 1513.66 Q2271.14 1513.66 2274.33 1516.35 Q2277.53 1519.03 2277.53 1523.52 Q2277.53 1525.65 2276.72 1527.57 Q2275.93 1529.47 2273.82 1532.07 Q2273.25 1532.74 2270.14 1535.95 Q2267.04 1539.15 2261.39 1544.91 Z" fill="#000000" fill-rule="nonzero" fill-opacity="1" /><path clip-path="url(#clip810)" d="M2287.53 1542.97 L2292.41 1542.97 L2292.41 1548.85 L2287.53 1548.85 L2287.53 1542.97 Z" fill="#000000" fill-rule="nonzero" fill-opacity="1" /><path clip-path="url(#clip810)" d="M2312.6 1517.37 Q2308.99 1517.37 2307.16 1520.93 Q2305.35 1524.47 2305.35 1531.6 Q2305.35 1538.71 2307.16 1542.27 Q2308.99 1545.82 2312.6 1545.82 Q2316.23 1545.82 2318.04 1542.27 Q2319.87 1538.71 2319.87 1531.6 Q2319.87 1524.47 2318.04 1520.93 Q2316.23 1517.37 2312.6 1517.37 M2312.6 1513.66 Q2318.41 1513.66 2321.46 1518.27 Q2324.54 1522.85 2324.54 1531.6 Q2324.54 1540.33 2321.46 1544.94 Q2318.41 1549.52 2312.6 1549.52 Q2306.79 1549.52 2303.71 1544.94 Q2300.65 1540.33 2300.65 1531.6 Q2300.65 1522.85 2303.71 1518.27 Q2306.79 1513.66 2312.6 1513.66 Z" fill="#000000" fill-rule="nonzero" fill-opacity="1" /><polyline clip-path="url(#clip810)" style="stroke:#000000; stroke-linecap:round; stroke-linejoin:round; stroke-width:4; stroke-opacity:1; fill:none" points="140.858,1486.45 140.858,47.2441 "/>
<polyline clip-path="url(#clip810)" style="stroke:#000000; stroke-linecap:round; stroke-linejoin:round; stroke-width:4; stroke-opacity:1; fill:none" points="140.858,1282.79 159.755,1282.79 "/>
<polyline clip-path="url(#clip810)" style="stroke:#000000; stroke-linecap:round; stroke-linejoin:round; stroke-width:4; stroke-opacity:1; fill:none" points="140.858,1011.24 159.755,1011.24 "/>
<polyline clip-path="url(#clip810)" style="stroke:#000000; stroke-linecap:round; stroke-linejoin:round; stroke-width:4; stroke-opacity:1; fill:none" points="140.858,739.691 159.755,739.691 "/>
<polyline clip-path="url(#clip810)" style="stroke:#000000; stroke-linecap:round; stroke-linejoin:round; stroke-width:4; stroke-opacity:1; fill:none" points="140.858,468.143 159.755,468.143 "/>
<polyline clip-path="url(#clip810)" style="stroke:#000000; stroke-linecap:round; stroke-linejoin:round; stroke-width:4; stroke-opacity:1; fill:none" points="140.858,196.595 159.755,196.595 "/>
<path clip-path="url(#clip810)" d="M66.5939 1269.58 L54.7884 1288.03 L66.5939 1288.03 L66.5939 1269.58 M65.367 1265.51 L71.2466 1265.51 L71.2466 1288.03 L76.1772 1288.03 L76.1772 1291.92 L71.2466 1291.92 L71.2466 1300.07 L66.5939 1300.07 L66.5939 1291.92 L50.9921 1291.92 L50.9921 1287.4 L65.367 1265.51 Z" fill="#000000" fill-rule="nonzero" fill-opacity="1" /><path clip-path="url(#clip810)" d="M83.9549 1265.51 L102.311 1265.51 L102.311 1269.44 L88.2373 1269.44 L88.2373 1277.91 Q89.2558 1277.57 90.2743 1277.41 Q91.2928 1277.22 92.3113 1277.22 Q98.0984 1277.22 101.478 1280.39 Q104.858 1283.56 104.858 1288.98 Q104.858 1294.56 101.385 1297.66 Q97.9132 1300.74 91.5938 1300.74 Q89.4178 1300.74 87.1493 1300.37 Q84.904 1300 82.4966 1299.26 L82.4966 1294.56 Q84.5799 1295.69 86.8021 1296.25 Q89.0243 1296.8 91.5012 1296.8 Q95.5058 1296.8 97.8437 1294.7 Q100.182 1292.59 100.182 1288.98 Q100.182 1285.37 97.8437 1283.26 Q95.5058 1281.16 91.5012 1281.16 Q89.6262 1281.16 87.7512 1281.57 Q85.8993 1281.99 83.9549 1282.87 L83.9549 1265.51 Z" fill="#000000" fill-rule="nonzero" fill-opacity="1" /><path clip-path="url(#clip810)" d="M52.7977 993.959 L71.1541 993.959 L71.1541 997.894 L57.0801 997.894 L57.0801 1006.37 Q58.0986 1006.02 59.1171 1005.86 Q60.1356 1005.67 61.1541 1005.67 Q66.9411 1005.67 70.3207 1008.84 Q73.7003 1012.01 73.7003 1017.43 Q73.7003 1023.01 70.2281 1026.11 Q66.7559 1029.19 60.4365 1029.19 Q58.2606 1029.19 55.9921 1028.82 Q53.7467 1028.45 51.3393 1027.71 L51.3393 1023.01 Q53.4227 1024.14 55.6449 1024.7 Q57.8671 1025.26 60.3439 1025.26 Q64.3485 1025.26 66.6865 1023.15 Q69.0244 1021.04 69.0244 1017.43 Q69.0244 1013.82 66.6865 1011.71 Q64.3485 1009.61 60.3439 1009.61 Q58.4689 1009.61 56.5939 1010.02 Q54.7421 1010.44 52.7977 1011.32 L52.7977 993.959 Z" fill="#000000" fill-rule="nonzero" fill-opacity="1" /><path clip-path="url(#clip810)" d="M92.9132 997.038 Q89.3021 997.038 87.4734 1000.6 Q85.6679 1004.14 85.6679 1011.27 Q85.6679 1018.38 87.4734 1021.95 Q89.3021 1025.49 92.9132 1025.49 Q96.5474 1025.49 98.353 1021.95 Q100.182 1018.38 100.182 1011.27 Q100.182 1004.14 98.353 1000.6 Q96.5474 997.038 92.9132 997.038 M92.9132 993.334 Q98.7234 993.334 101.779 997.941 Q104.858 1002.52 104.858 1011.27 Q104.858 1020 101.779 1024.61 Q98.7234 1029.19 92.9132 1029.19 Q87.103 1029.19 84.0244 1024.61 Q80.9688 1020 80.9688 1011.27 Q80.9688 1002.52 84.0244 997.941 Q87.103 993.334 92.9132 993.334 Z" fill="#000000" fill-rule="nonzero" fill-opacity="1" /><path clip-path="url(#clip810)" d="M53.793 722.411 L72.1494 722.411 L72.1494 726.346 L58.0754 726.346 L58.0754 734.819 Q59.0939 734.471 60.1124 734.309 Q61.131 734.124 62.1495 734.124 Q67.9365 734.124 71.3161 737.295 Q74.6957 740.467 74.6957 745.883 Q74.6957 751.462 71.2235 754.564 Q67.7513 757.642 61.4319 757.642 Q59.256 757.642 56.9875 757.272 Q54.7421 756.902 52.3347 756.161 L52.3347 751.462 Q54.418 752.596 56.6402 753.152 Q58.8625 753.707 61.3393 753.707 Q65.3439 753.707 67.6819 751.601 Q70.0198 749.494 70.0198 745.883 Q70.0198 742.272 67.6819 740.166 Q65.3439 738.059 61.3393 738.059 Q59.4643 738.059 57.5893 738.476 Q55.7375 738.893 53.793 739.772 L53.793 722.411 Z" fill="#000000" fill-rule="nonzero" fill-opacity="1" /><path clip-path="url(#clip810)" d="M83.9549 722.411 L102.311 722.411 L102.311 726.346 L88.2373 726.346 L88.2373 734.819 Q89.2558 734.471 90.2743 734.309 Q91.2928 734.124 92.3113 734.124 Q98.0984 734.124 101.478 737.295 Q104.858 740.467 104.858 745.883 Q104.858 751.462 101.385 754.564 Q97.9132 757.642 91.5938 757.642 Q89.4178 757.642 87.1493 757.272 Q84.904 756.902 82.4966 756.161 L82.4966 751.462 Q84.5799 752.596 86.8021 753.152 Q89.0243 753.707 91.5012 753.707 Q95.5058 753.707 97.8437 751.601 Q100.182 749.494 100.182 745.883 Q100.182 742.272 97.8437 740.166 Q95.5058 738.059 91.5012 738.059 Q89.6262 738.059 87.7512 738.476 Q85.8993 738.893 83.9549 739.772 L83.9549 722.411 Z" fill="#000000" fill-rule="nonzero" fill-opacity="1" /><path clip-path="url(#clip810)" d="M63.33 466.28 Q60.1819 466.28 58.33 468.433 Q56.5014 470.585 56.5014 474.335 Q56.5014 478.062 58.33 480.238 Q60.1819 482.391 63.33 482.391 Q66.4782 482.391 68.3068 480.238 Q70.1587 478.062 70.1587 474.335 Q70.1587 470.585 68.3068 468.433 Q66.4782 466.28 63.33 466.28 M72.6124 451.627 L72.6124 455.886 Q70.8531 455.053 69.0476 454.613 Q67.2652 454.173 65.5059 454.173 Q60.8763 454.173 58.4226 457.298 Q55.9921 460.423 55.6449 466.743 Q57.0106 464.729 59.0708 463.664 Q61.131 462.576 63.6078 462.576 Q68.8161 462.576 71.8253 465.747 Q74.8577 468.896 74.8577 474.335 Q74.8577 479.659 71.7096 482.877 Q68.5615 486.095 63.33 486.095 Q57.3347 486.095 54.1634 481.511 Q50.9921 476.905 50.9921 468.178 Q50.9921 459.984 54.881 455.123 Q58.7699 450.238 65.3208 450.238 Q67.08 450.238 68.8624 450.586 Q70.6679 450.933 72.6124 451.627 Z" fill="#000000" fill-rule="nonzero" fill-opacity="1" /><path clip-path="url(#clip810)" d="M92.9132 453.942 Q89.3021 453.942 87.4734 457.507 Q85.6679 461.048 85.6679 468.178 Q85.6679 475.284 87.4734 478.849 Q89.3021 482.391 92.9132 482.391 Q96.5474 482.391 98.353 478.849 Q100.182 475.284 100.182 468.178 Q100.182 461.048 98.353 457.507 Q96.5474 453.942 92.9132 453.942 M92.9132 450.238 Q98.7234 450.238 101.779 454.845 Q104.858 459.428 104.858 468.178 Q104.858 476.905 101.779 481.511 Q98.7234 486.095 92.9132 486.095 Q87.103 486.095 84.0244 481.511 Q80.9688 476.905 80.9688 468.178 Q80.9688 459.428 84.0244 454.845 Q87.103 450.238 92.9132 450.238 Z" fill="#000000" fill-rule="nonzero" fill-opacity="1" /><path clip-path="url(#clip810)" d="M64.3254 194.732 Q61.1773 194.732 59.3254 196.885 Q57.4967 199.038 57.4967 202.788 Q57.4967 206.514 59.3254 208.69 Q61.1773 210.843 64.3254 210.843 Q67.4735 210.843 69.3022 208.69 Q71.1541 206.514 71.1541 202.788 Q71.1541 199.038 69.3022 196.885 Q67.4735 194.732 64.3254 194.732 M73.6077 180.079 L73.6077 184.339 Q71.8485 183.505 70.0429 183.065 Q68.2606 182.626 66.5013 182.626 Q61.8717 182.626 59.418 185.751 Q56.9875 188.876 56.6402 195.195 Q58.006 193.181 60.0662 192.116 Q62.1263 191.028 64.6032 191.028 Q69.8115 191.028 72.8207 194.2 Q75.8531 197.348 75.8531 202.788 Q75.8531 208.112 72.705 211.329 Q69.5568 214.547 64.3254 214.547 Q58.33 214.547 55.1588 209.963 Q51.9875 205.357 51.9875 196.63 Q51.9875 188.436 55.8764 183.575 Q59.7652 178.69 66.3161 178.69 Q68.0754 178.69 69.8578 179.038 Q71.6633 179.385 73.6077 180.079 Z" fill="#000000" fill-rule="nonzero" fill-opacity="1" /><path clip-path="url(#clip810)" d="M83.9549 179.315 L102.311 179.315 L102.311 183.251 L88.2373 183.251 L88.2373 191.723 Q89.2558 191.376 90.2743 191.214 Q91.2928 191.028 92.3113 191.028 Q98.0984 191.028 101.478 194.2 Q104.858 197.371 104.858 202.788 Q104.858 208.366 101.385 211.468 Q97.9132 214.547 91.5938 214.547 Q89.4178 214.547 87.1493 214.176 Q84.904 213.806 82.4966 213.065 L82.4966 208.366 Q84.5799 209.5 86.8021 210.056 Q89.0243 210.612 91.5012 210.612 Q95.5058 210.612 97.8437 208.505 Q100.182 206.399 100.182 202.788 Q100.182 199.176 97.8437 197.07 Q95.5058 194.963 91.5012 194.963 Q89.6262 194.963 87.7512 195.38 Q85.8993 195.797 83.9549 196.676 L83.9549 179.315 Z" fill="#000000" fill-rule="nonzero" fill-opacity="1" /><polyline clip-path="url(#clip812)" style="stroke:#009af9; stroke-linecap:round; stroke-linejoin:round; stroke-width:4; stroke-opacity:1; fill:none" points="203.458,1011.24 224.325,1011.24 245.192,956.93 266.059,1011.24 286.926,1174.17 307.793,1174.17 328.66,1065.55 349.527,1228.48 370.394,1174.17 391.261,1174.17 412.128,1065.55 432.995,1065.55 453.862,1065.55 474.729,902.62 495.596,902.62 516.463,794.001 537.33,739.691 558.197,739.691 579.064,631.072 599.931,631.072 620.798,631.072 641.665,685.382 662.532,631.072 683.399,631.072 704.266,739.691 725.133,794.001 746,794.001 766.867,902.62 787.734,956.93 808.6,902.62 829.467,1065.55 850.334,956.93 871.201,848.31 892.068,902.62 912.935,902.62 933.802,848.31 954.669,1011.24 975.536,956.93 996.403,902.62 1017.27,848.31 1038.14,794.001 1059,739.691 1079.87,848.31 1100.74,685.382 1121.6,685.382 1142.47,739.691 1163.34,739.691 1184.21,631.072 1205.07,685.382 1225.94,794.001 1246.81,902.62 1267.67,902.62 1288.54,794.001 1309.41,848.31 1330.27,794.001 1351.14,902.62 1372.01,848.31 1392.88,739.691 1413.74,739.691 1434.61,739.691 1455.48,794.001 1476.34,848.31 1497.21,794.001 1518.08,848.31 1538.94,848.31 1559.81,902.62 1580.68,956.93 1601.55,956.93 1622.41,902.62 1643.28,848.31 1664.15,848.31 1685.01,902.62 1705.88,956.93 1726.75,956.93 1747.61,1065.55 1768.48,1065.55 1789.35,1065.55 1810.21,1174.17 1831.08,1174.17 1851.95,1228.48 1872.82,1337.1 1893.68,1228.48 1914.55,1282.79 1935.42,1119.86 1956.28,1065.55 1977.15,1119.86 1998.02,1119.86 2018.88,1119.86 2039.75,1174.17 2060.62,1119.86 2081.49,1011.24 2102.35,1119.86 2123.22,1228.48 2144.09,1228.48 2164.95,1174.17 2185.82,1228.48 2206.69,1337.1 2227.55,1337.1 2248.42,1337.1 2269.29,1337.1 2290.16,1391.41 "/>
<polyline clip-path="url(#clip812)" style="stroke:#e26f46; stroke-linecap:round; stroke-linejoin:round; stroke-width:4; stroke-opacity:1; fill:none" points="203.458,1011.24 224.325,1065.55 245.192,1174.17 266.059,1282.79 286.926,1011.24 307.793,1282.79 328.66,1337.1 349.527,1391.41 370.394,1228.48 391.261,1282.79 412.128,1282.79 432.995,1119.86 453.862,1119.86 474.729,739.691 495.596,576.762 516.463,305.215 537.33,468.143 558.197,250.905 579.064,305.215 599.931,196.595 620.798,413.834 641.665,631.072 662.532,522.453 683.399,413.834 704.266,413.834 725.133,631.072 746,685.382 766.867,685.382 787.734,1011.24 808.6,1119.86 829.467,1228.48 850.334,1337.1 871.201,1228.48 892.068,848.31 912.935,468.143 933.802,468.143 954.669,413.834 975.536,631.072 996.403,685.382 1017.27,468.143 1038.14,685.382 1059,305.215 1079.87,956.93 1100.74,902.62 1121.6,794.001 1142.47,468.143 1163.34,631.072 1184.21,413.834 1205.07,87.9763 1225.94,250.905 1246.81,631.072 1267.67,522.453 1288.54,250.905 1309.41,250.905 1330.27,359.524 1351.14,685.382 1372.01,631.072 1392.88,196.595 1413.74,142.286 1434.61,196.595 1455.48,739.691 1476.34,902.62 1497.21,902.62 1518.08,631.072 1538.94,739.691 1559.81,848.31 1580.68,902.62 1601.55,1011.24 1622.41,1174.17 1643.28,848.31 1664.15,956.93 1685.01,1011.24 1705.88,1174.17 1726.75,739.691 1747.61,794.001 1768.48,956.93 1789.35,1282.79 1810.21,1228.48 1831.08,1228.48 1851.95,1445.72 1872.82,1445.72 1893.68,1282.79 1914.55,1391.41 1935.42,1228.48 1956.28,1282.79 1977.15,1011.24 1998.02,1065.55 2018.88,1065.55 2039.75,1011.24 2060.62,902.62 2081.49,685.382 2102.35,631.072 2123.22,522.453 2144.09,631.072 2164.95,848.31 2185.82,1011.24 2206.69,1119.86 2227.55,794.001 2248.42,1011.24 2269.29,1391.41 2290.16,1282.79 "/>
<path clip-path="url(#clip810)" d="M2028.25 250.738 L2279.03 250.738 L2279.03 95.2176 L2028.25 95.2176  Z" fill="#ffffff" fill-rule="evenodd" fill-opacity="1"/>
<polyline clip-path="url(#clip810)" style="stroke:#000000; stroke-linecap:round; stroke-linejoin:round; stroke-width:4; stroke-opacity:1; fill:none" points="2028.25,250.738 2279.03,250.738 2279.03,95.2176 2028.25,95.2176 2028.25,250.738 "/>
<polyline clip-path="url(#clip810)" style="stroke:#009af9; stroke-linecap:round; stroke-linejoin:round; stroke-width:4; stroke-opacity:1; fill:none" points="2052.83,147.058 2200.29,147.058 "/>
<path clip-path="url(#clip810)" d="M2247.11 130.912 L2247.11 135.472 Q2244.45 134.199 2242.09 133.574 Q2239.73 132.949 2237.53 132.949 Q2233.71 132.949 2231.63 134.43 Q2229.57 135.912 2229.57 138.643 Q2229.57 140.935 2230.93 142.115 Q2232.32 143.273 2236.16 143.99 L2238.99 144.569 Q2244.22 145.565 2246.69 148.088 Q2249.19 150.588 2249.19 154.801 Q2249.19 159.824 2245.82 162.416 Q2242.46 165.009 2235.95 165.009 Q2233.5 165.009 2230.72 164.453 Q2227.97 163.898 2225.01 162.81 L2225.01 157.995 Q2227.85 159.592 2230.58 160.402 Q2233.32 161.213 2235.95 161.213 Q2239.96 161.213 2242.13 159.639 Q2244.31 158.064 2244.31 155.148 Q2244.31 152.602 2242.74 151.166 Q2241.19 149.731 2237.62 149.014 L2234.77 148.458 Q2229.54 147.416 2227.2 145.194 Q2224.87 142.972 2224.87 139.014 Q2224.87 134.43 2228.08 131.791 Q2231.32 129.153 2237 129.153 Q2239.43 129.153 2241.95 129.592 Q2244.47 130.032 2247.11 130.912 Z" fill="#000000" fill-rule="nonzero" fill-opacity="1" /><polyline clip-path="url(#clip810)" style="stroke:#e26f46; stroke-linecap:round; stroke-linejoin:round; stroke-width:4; stroke-opacity:1; fill:none" points="2052.83,198.898 2200.29,198.898 "/>
<path clip-path="url(#clip810)" d="M2226.44 181.618 L2231.46 181.618 L2240.05 194.465 L2248.69 181.618 L2253.71 181.618 L2242.6 198.215 L2254.45 216.178 L2249.43 216.178 L2239.7 201.479 L2229.91 216.178 L2224.87 216.178 L2237.2 197.729 L2226.44 181.618 Z" fill="#000000" fill-rule="nonzero" fill-opacity="1" /></svg>
