<?xml version="1.0" encoding="utf-8"?>
<svg xmlns="http://www.w3.org/2000/svg" xmlns:xlink="http://www.w3.org/1999/xlink" width="600" height="400" viewBox="0 0 2400 1600">
<defs>
  <clipPath id="clip840">
    <rect x="0" y="0" width="2400" height="1600"/>
  </clipPath>
</defs>
<path clip-path="url(#clip840)" d="M0 1600 L2400 1600 L2400 0 L0 0  Z" fill="#ffffff" fill-rule="evenodd" fill-opacity="1"/>
<defs>
  <clipPath id="clip841">
    <rect x="140" y="47" width="2213" height="1440"/>
  </clipPath>
</defs>
<path clip-path="url(#clip840)" d="M187.084 686.448 L2352.76 686.448 L2352.76 47.2441 L187.084 47.2441  Z" fill="#ffffff" fill-rule="evenodd" fill-opacity="1"/>
<defs>
  <clipPath id="clip842">
    <rect x="187" y="47" width="2167" height="640"/>
  </clipPath>
</defs>
<polyline clip-path="url(#clip842)" style="stroke:#000000; stroke-linecap:round; stroke-linejoin:round; stroke-width:2; stroke-opacity:0.1; fill:none" points="248.377,686.448 248.377,47.2441 "/>
<polyline clip-path="url(#clip842)" style="stroke:#000000; stroke-linecap:round; stroke-linejoin:round; stroke-width:2; stroke-opacity:0.1; fill:none" points="759.148,686.448 759.148,47.2441 "/>
<polyline clip-path="url(#clip842)" style="stroke:#000000; stroke-linecap:round; stroke-linejoin:round; stroke-width:2; stroke-opacity:0.1; fill:none" points="1269.92,686.448 1269.92,47.2441 "/>
<polyline clip-path="url(#clip842)" style="stroke:#000000; stroke-linecap:round; stroke-linejoin:round; stroke-width:2; stroke-opacity:0.1; fill:none" points="1780.69,686.448 1780.69,47.2441 "/>
<polyline clip-path="url(#clip842)" style="stroke:#000000; stroke-linecap:round; stroke-linejoin:round; stroke-width:2; stroke-opacity:0.1; fill:none" points="2291.46,686.448 2291.46,47.2441 "/>
<polyline clip-path="url(#clip842)" style="stroke:#000000; stroke-linecap:round; stroke-linejoin:round; stroke-width:2; stroke-opacity:0.1; fill:none" points="187.084,582.211 2352.76,582.211 "/>
<polyline clip-path="url(#clip842)" style="stroke:#000000; stroke-linecap:round; stroke-linejoin:round; stroke-width:2; stroke-opacity:0.1; fill:none" points="187.084,474.529 2352.76,474.529 "/>
<polyline clip-path="url(#clip842)" style="stroke:#000000; stroke-linecap:round; stroke-linejoin:round; stroke-width:2; stroke-opacity:0.1; fill:none" points="187.084,366.846 2352.76,366.846 "/>
<polyline clip-path="url(#clip842)" style="stroke:#000000; stroke-linecap:round; stroke-linejoin:round; stroke-width:2; stroke-opacity:0.1; fill:none" points="187.084,259.163 2352.76,259.163 "/>
<polyline clip-path="url(#clip842)" style="stroke:#000000; stroke-linecap:round; stroke-linejoin:round; stroke-width:2; stroke-opacity:0.1; fill:none" points="187.084,151.481 2352.76,151.481 "/>
<polyline clip-path="url(#clip840)" style="stroke:#000000; stroke-linecap:round; stroke-linejoin:round; stroke-width:4; stroke-opacity:1; fill:none" points="187.084,686.448 2352.76,686.448 "/>
<polyline clip-path="url(#clip840)" style="stroke:#000000; stroke-linecap:round; stroke-linejoin:round; stroke-width:4; stroke-opacity:1; fill:none" points="248.377,686.448 248.377,667.55 "/>
<polyline clip-path="url(#clip840)" style="stroke:#000000; stroke-linecap:round; stroke-linejoin:round; stroke-width:4; stroke-opacity:1; fill:none" points="759.148,686.448 759.148,667.55 "/>
<polyline clip-path="url(#clip840)" style="stroke:#000000; stroke-linecap:round; stroke-linejoin:round; stroke-width:4; stroke-opacity:1; fill:none" points="1269.92,686.448 1269.92,667.55 "/>
<polyline clip-path="url(#clip840)" style="stroke:#000000; stroke-linecap:round; stroke-linejoin:round; stroke-width:4; stroke-opacity:1; fill:none" points="1780.69,686.448 1780.69,667.55 "/>
<polyline clip-path="url(#clip840)" style="stroke:#000000; stroke-linecap:round; stroke-linejoin:round; stroke-width:4; stroke-opacity:1; fill:none" points="2291.46,686.448 2291.46,667.55 "/>
<path clip-path="url(#clip840)" d="M225.761 717.367 Q222.15 717.367 220.321 720.931 Q218.516 724.473 218.516 731.603 Q218.516 738.709 220.321 742.274 Q222.15 745.815 225.761 745.815 Q229.395 745.815 231.201 742.274 Q233.03 738.709 233.03 731.603 Q233.03 724.473 231.201 720.931 Q229.395 717.367 225.761 717.367 M225.761 713.663 Q231.571 713.663 234.627 718.269 Q237.706 722.853 237.706 731.603 Q237.706 740.329 234.627 744.936 Q231.571 749.519 225.761 749.519 Q219.951 749.519 216.872 744.936 Q213.817 740.329 213.817 731.603 Q213.817 722.853 216.872 718.269 Q219.951 713.663 225.761 713.663 Z" fill="#000000" fill-rule="nonzero" fill-opacity="1" /><path clip-path="url(#clip840)" d="M245.923 742.968 L250.807 742.968 L250.807 748.848 L245.923 748.848 L245.923 742.968 Z" fill="#000000" fill-rule="nonzero" fill-opacity="1" /><path clip-path="url(#clip840)" d="M270.992 717.367 Q267.381 717.367 265.553 720.931 Q263.747 724.473 263.747 731.603 Q263.747 738.709 265.553 742.274 Q267.381 745.815 270.992 745.815 Q274.627 745.815 276.432 742.274 Q278.261 738.709 278.261 731.603 Q278.261 724.473 276.432 720.931 Q274.627 717.367 270.992 717.367 M270.992 713.663 Q276.803 713.663 279.858 718.269 Q282.937 722.853 282.937 731.603 Q282.937 740.329 279.858 744.936 Q276.803 749.519 270.992 749.519 Q265.182 749.519 262.104 744.936 Q259.048 740.329 259.048 731.603 Q259.048 722.853 262.104 718.269 Q265.182 713.663 270.992 713.663 Z" fill="#000000" fill-rule="nonzero" fill-opacity="1" /><path clip-path="url(#clip840)" d="M737.03 717.367 Q733.419 717.367 731.591 720.931 Q729.785 724.473 729.785 731.603 Q729.785 738.709 731.591 742.274 Q733.419 745.815 737.03 745.815 Q740.665 745.815 742.47 742.274 Q744.299 738.709 744.299 731.603 Q744.299 724.473 742.47 720.931 Q740.665 717.367 737.03 717.367 M737.03 713.663 Q742.841 713.663 745.896 718.269 Q748.975 722.853 748.975 731.603 Q748.975 740.329 745.896 744.936 Q742.841 749.519 737.03 749.519 Q731.22 749.519 728.142 744.936 Q725.086 740.329 725.086 731.603 Q725.086 722.853 728.142 718.269 Q731.22 713.663 737.03 713.663 Z" fill="#000000" fill-rule="nonzero" fill-opacity="1" /><path clip-path="url(#clip840)" d="M757.192 742.968 L762.077 742.968 L762.077 748.848 L757.192 748.848 L757.192 742.968 Z" fill="#000000" fill-rule="nonzero" fill-opacity="1" /><path clip-path="url(#clip840)" d="M772.308 714.288 L790.664 714.288 L790.664 718.223 L776.59 718.223 L776.59 726.695 Q777.609 726.348 778.627 726.186 Q779.646 726.001 780.664 726.001 Q786.452 726.001 789.831 729.172 Q793.211 732.343 793.211 737.76 Q793.211 743.339 789.739 746.44 Q786.266 749.519 779.947 749.519 Q777.771 749.519 775.502 749.149 Q773.257 748.778 770.85 748.038 L770.85 743.339 Q772.933 744.473 775.155 745.028 Q777.377 745.584 779.854 745.584 Q783.859 745.584 786.197 743.478 Q788.535 741.371 788.535 737.76 Q788.535 734.149 786.197 732.042 Q783.859 729.936 779.854 729.936 Q777.979 729.936 776.104 730.353 Q774.252 730.769 772.308 731.649 L772.308 714.288 Z" fill="#000000" fill-rule="nonzero" fill-opacity="1" /><path clip-path="url(#clip840)" d="M1237.07 744.913 L1244.71 744.913 L1244.71 718.547 L1236.4 720.214 L1236.4 715.955 L1244.67 714.288 L1249.34 714.288 L1249.34 744.913 L1256.98 744.913 L1256.98 748.848 L1237.07 748.848 L1237.07 744.913 Z" fill="#000000" fill-rule="nonzero" fill-opacity="1" /><path clip-path="url(#clip840)" d="M1266.42 742.968 L1271.31 742.968 L1271.31 748.848 L1266.42 748.848 L1266.42 742.968 Z" fill="#000000" fill-rule="nonzero" fill-opacity="1" /><path clip-path="url(#clip840)" d="M1291.49 717.367 Q1287.88 717.367 1286.05 720.931 Q1284.25 724.473 1284.25 731.603 Q1284.25 738.709 1286.05 742.274 Q1287.88 745.815 1291.49 745.815 Q1295.13 745.815 1296.93 742.274 Q1298.76 738.709 1298.76 731.603 Q1298.76 724.473 1296.93 720.931 Q1295.13 717.367 1291.49 717.367 M1291.49 713.663 Q1297.3 713.663 1300.36 718.269 Q1303.44 722.853 1303.44 731.603 Q1303.44 740.329 1300.36 744.936 Q1297.3 749.519 1291.49 749.519 Q1285.68 749.519 1282.61 744.936 Q1279.55 740.329 1279.55 731.603 Q1279.55 722.853 1282.61 718.269 Q1285.68 713.663 1291.49 713.663 Z" fill="#000000" fill-rule="nonzero" fill-opacity="1" /><path clip-path="url(#clip840)" d="M1748.34 744.913 L1755.98 744.913 L1755.98 718.547 L1747.67 720.214 L1747.67 715.955 L1755.93 714.288 L1760.61 714.288 L1760.61 744.913 L1768.25 744.913 L1768.25 748.848 L1748.34 748.848 L1748.34 744.913 Z" fill="#000000" fill-rule="nonzero" fill-opacity="1" /><path clip-path="url(#clip840)" d="M1777.69 742.968 L1782.58 742.968 L1782.58 748.848 L1777.69 748.848 L1777.69 742.968 Z" fill="#000000" fill-rule="nonzero" fill-opacity="1" /><path clip-path="url(#clip840)" d="M1792.81 714.288 L1811.17 714.288 L1811.17 718.223 L1797.09 718.223 L1797.09 726.695 Q1798.11 726.348 1799.13 726.186 Q1800.15 726.001 1801.17 726.001 Q1806.95 726.001 1810.33 729.172 Q1813.71 732.343 1813.71 737.76 Q1813.71 743.339 1810.24 746.44 Q1806.77 749.519 1800.45 749.519 Q1798.27 749.519 1796 749.149 Q1793.76 748.778 1791.35 748.038 L1791.35 743.339 Q1793.43 744.473 1795.66 745.028 Q1797.88 745.584 1800.36 745.584 Q1804.36 745.584 1806.7 743.478 Q1809.04 741.371 1809.04 737.76 Q1809.04 734.149 1806.7 732.042 Q1804.36 729.936 1800.36 729.936 Q1798.48 729.936 1796.61 730.353 Q1794.75 730.769 1792.81 731.649 L1792.81 714.288 Z" fill="#000000" fill-rule="nonzero" fill-opacity="1" /><path clip-path="url(#clip840)" d="M2262.7 744.913 L2279.02 744.913 L2279.02 748.848 L2257.08 748.848 L2257.08 744.913 Q2259.74 742.158 2264.32 737.528 Q2268.93 732.876 2270.11 731.533 Q2272.35 729.01 2273.23 727.274 Q2274.14 725.515 2274.14 723.825 Q2274.14 721.07 2272.19 719.334 Q2270.27 717.598 2267.17 717.598 Q2264.97 717.598 2262.52 718.362 Q2260.09 719.126 2257.31 720.677 L2257.31 715.955 Q2260.13 714.82 2262.59 714.242 Q2265.04 713.663 2267.08 713.663 Q2272.45 713.663 2275.64 716.348 Q2278.84 719.033 2278.84 723.524 Q2278.84 725.654 2278.03 727.575 Q2277.24 729.473 2275.13 732.066 Q2274.55 732.737 2271.45 735.954 Q2268.35 739.149 2262.7 744.913 Z" fill="#000000" fill-rule="nonzero" fill-opacity="1" /><path clip-path="url(#clip840)" d="M2288.84 742.968 L2293.72 742.968 L2293.72 748.848 L2288.84 748.848 L2288.84 742.968 Z" fill="#000000" fill-rule="nonzero" fill-opacity="1" /><path clip-path="url(#clip840)" d="M2313.91 717.367 Q2310.29 717.367 2308.47 720.931 Q2306.66 724.473 2306.66 731.603 Q2306.66 738.709 2308.47 742.274 Q2310.29 745.815 2313.91 745.815 Q2317.54 745.815 2319.35 742.274 Q2321.17 738.709 2321.17 731.603 Q2321.17 724.473 2319.35 720.931 Q2317.54 717.367 2313.91 717.367 M2313.91 713.663 Q2319.72 713.663 2322.77 718.269 Q2325.85 722.853 2325.85 731.603 Q2325.85 740.329 2322.77 744.936 Q2319.72 749.519 2313.91 749.519 Q2308.1 749.519 2305.02 744.936 Q2301.96 740.329 2301.96 731.603 Q2301.96 722.853 2305.02 718.269 Q2308.1 713.663 2313.91 713.663 Z" fill="#000000" fill-rule="nonzero" fill-opacity="1" /><polyline clip-path="url(#clip840)" style="stroke:#000000; stroke-linecap:round; stroke-linejoin:round; stroke-width:4; stroke-opacity:1; fill:none" points="187.084,686.448 187.084,47.2441 "/>
<polyline clip-path="url(#clip840)" style="stroke:#000000; stroke-linecap:round; stroke-linejoin:round; stroke-width:4; stroke-opacity:1; fill:none" points="187.084,582.211 205.982,582.211 "/>
<polyline clip-path="url(#clip840)" style="stroke:#000000; stroke-linecap:round; stroke-linejoin:round; stroke-width:4; stroke-opacity:1; fill:none" points="187.084,474.529 205.982,474.529 "/>
<polyline clip-path="url(#clip840)" style="stroke:#000000; stroke-linecap:round; stroke-linejoin:round; stroke-width:4; stroke-opacity:1; fill:none" points="187.084,366.846 205.982,366.846 "/>
<polyline clip-path="url(#clip840)" style="stroke:#000000; stroke-linecap:round; stroke-linejoin:round; stroke-width:4; stroke-opacity:1; fill:none" points="187.084,259.163 205.982,259.163 "/>
<polyline clip-path="url(#clip840)" style="stroke:#000000; stroke-linecap:round; stroke-linejoin:round; stroke-width:4; stroke-opacity:1; fill:none" points="187.084,151.481 205.982,151.481 "/>
<path clip-path="url(#clip840)" d="M66.5939 569.005 L54.7884 587.454 L66.5939 587.454 L66.5939 569.005 M65.367 564.931 L71.2466 564.931 L71.2466 587.454 L76.1772 587.454 L76.1772 591.343 L71.2466 591.343 L71.2466 599.491 L66.5939 599.491 L66.5939 591.343 L50.9921 591.343 L50.9921 586.829 L65.367 564.931 Z" fill="#000000" fill-rule="nonzero" fill-opacity="1" /><path clip-path="url(#clip840)" d="M83.9549 564.931 L102.311 564.931 L102.311 568.866 L88.2373 568.866 L88.2373 577.338 Q89.2558 576.991 90.2743 576.829 Q91.2928 576.644 92.3113 576.644 Q98.0984 576.644 101.478 579.815 Q104.858 582.987 104.858 588.403 Q104.858 593.982 101.385 597.084 Q97.9132 600.162 91.5938 600.162 Q89.4178 600.162 87.1493 599.792 Q84.904 599.422 82.4966 598.681 L82.4966 593.982 Q84.5799 595.116 86.8021 595.672 Q89.0243 596.227 91.5012 596.227 Q95.5058 596.227 97.8437 594.121 Q100.182 592.014 100.182 588.403 Q100.182 584.792 97.8437 582.686 Q95.5058 580.579 91.5012 580.579 Q89.6262 580.579 87.7512 580.996 Q85.8993 581.413 83.9549 582.292 L83.9549 564.931 Z" fill="#000000" fill-rule="nonzero" fill-opacity="1" /><path clip-path="url(#clip840)" d="M114.07 593.612 L118.955 593.612 L118.955 599.491 L114.07 599.491 L114.07 593.612 Z" fill="#000000" fill-rule="nonzero" fill-opacity="1" /><path clip-path="url(#clip840)" d="M139.14 568.01 Q135.529 568.01 133.7 571.575 Q131.894 575.116 131.894 582.246 Q131.894 589.352 133.7 592.917 Q135.529 596.459 139.14 596.459 Q142.774 596.459 144.58 592.917 Q146.408 589.352 146.408 582.246 Q146.408 575.116 144.58 571.575 Q142.774 568.01 139.14 568.01 M139.14 564.306 Q144.95 564.306 148.005 568.913 Q151.084 573.496 151.084 582.246 Q151.084 590.973 148.005 595.579 Q144.95 600.162 139.14 600.162 Q133.33 600.162 130.251 595.579 Q127.195 590.973 127.195 582.246 Q127.195 573.496 130.251 568.913 Q133.33 564.306 139.14 564.306 Z" fill="#000000" fill-rule="nonzero" fill-opacity="1" /><path clip-path="url(#clip840)" d="M67.5893 461.323 L55.7838 479.772 L67.5893 479.772 L67.5893 461.323 M66.3624 457.249 L72.242 457.249 L72.242 479.772 L77.1725 479.772 L77.1725 483.66 L72.242 483.66 L72.242 491.809 L67.5893 491.809 L67.5893 483.66 L51.9875 483.66 L51.9875 479.147 L66.3624 457.249 Z" fill="#000000" fill-rule="nonzero" fill-opacity="1" /><path clip-path="url(#clip840)" d="M83.7234 457.249 L105.946 457.249 L105.946 459.239 L93.3993 491.809 L88.5151 491.809 L100.321 461.184 L83.7234 461.184 L83.7234 457.249 Z" fill="#000000" fill-rule="nonzero" fill-opacity="1" /><path clip-path="url(#clip840)" d="M115.066 485.929 L119.95 485.929 L119.95 491.809 L115.066 491.809 L115.066 485.929 Z" fill="#000000" fill-rule="nonzero" fill-opacity="1" /><path clip-path="url(#clip840)" d="M130.182 457.249 L148.538 457.249 L148.538 461.184 L134.464 461.184 L134.464 469.656 Q135.482 469.309 136.501 469.147 Q137.519 468.961 138.538 468.961 Q144.325 468.961 147.705 472.133 Q151.084 475.304 151.084 480.721 Q151.084 486.299 147.612 489.401 Q144.14 492.48 137.82 492.48 Q135.644 492.48 133.376 492.109 Q131.131 491.739 128.723 490.998 L128.723 486.299 Q130.807 487.434 133.029 487.989 Q135.251 488.545 137.728 488.545 Q141.732 488.545 144.07 486.438 Q146.408 484.332 146.408 480.721 Q146.408 477.11 144.07 475.003 Q141.732 472.897 137.728 472.897 Q135.853 472.897 133.978 473.313 Q132.126 473.73 130.182 474.61 L130.182 457.249 Z" fill="#000000" fill-rule="nonzero" fill-opacity="1" /><path clip-path="url(#clip840)" d="M53.793 349.566 L72.1494 349.566 L72.1494 353.501 L58.0754 353.501 L58.0754 361.973 Q59.0939 361.626 60.1124 361.464 Q61.131 361.279 62.1495 361.279 Q67.9365 361.279 71.3161 364.45 Q74.6957 367.621 74.6957 373.038 Q74.6957 378.617 71.2235 381.719 Q67.7513 384.797 61.4319 384.797 Q59.256 384.797 56.9875 384.427 Q54.7421 384.057 52.3347 383.316 L52.3347 378.617 Q54.418 379.751 56.6402 380.307 Q58.8625 380.862 61.3393 380.862 Q65.3439 380.862 67.6819 378.756 Q70.0198 376.649 70.0198 373.038 Q70.0198 369.427 67.6819 367.321 Q65.3439 365.214 61.3393 365.214 Q59.4643 365.214 57.5893 365.631 Q55.7375 366.047 53.793 366.927 L53.793 349.566 Z" fill="#000000" fill-rule="nonzero" fill-opacity="1" /><path clip-path="url(#clip840)" d="M93.9086 352.645 Q90.2975 352.645 88.4688 356.209 Q86.6632 359.751 86.6632 366.881 Q86.6632 373.987 88.4688 377.552 Q90.2975 381.094 93.9086 381.094 Q97.5428 381.094 99.3483 377.552 Q101.177 373.987 101.177 366.881 Q101.177 359.751 99.3483 356.209 Q97.5428 352.645 93.9086 352.645 M93.9086 348.941 Q99.7187 348.941 102.774 353.547 Q105.853 358.131 105.853 366.881 Q105.853 375.608 102.774 380.214 Q99.7187 384.797 93.9086 384.797 Q88.0984 384.797 85.0197 380.214 Q81.9642 375.608 81.9642 366.881 Q81.9642 358.131 85.0197 353.547 Q88.0984 348.941 93.9086 348.941 Z" fill="#000000" fill-rule="nonzero" fill-opacity="1" /><path clip-path="url(#clip840)" d="M114.07 378.246 L118.955 378.246 L118.955 384.126 L114.07 384.126 L114.07 378.246 Z" fill="#000000" fill-rule="nonzero" fill-opacity="1" /><path clip-path="url(#clip840)" d="M139.14 352.645 Q135.529 352.645 133.7 356.209 Q131.894 359.751 131.894 366.881 Q131.894 373.987 133.7 377.552 Q135.529 381.094 139.14 381.094 Q142.774 381.094 144.58 377.552 Q146.408 373.987 146.408 366.881 Q146.408 359.751 144.58 356.209 Q142.774 352.645 139.14 352.645 M139.14 348.941 Q144.95 348.941 148.005 353.547 Q151.084 358.131 151.084 366.881 Q151.084 375.608 148.005 380.214 Q144.95 384.797 139.14 384.797 Q133.33 384.797 130.251 380.214 Q127.195 375.608 127.195 366.881 Q127.195 358.131 130.251 353.547 Q133.33 348.941 139.14 348.941 Z" fill="#000000" fill-rule="nonzero" fill-opacity="1" /><path clip-path="url(#clip840)" d="M54.7884 241.883 L73.1448 241.883 L73.1448 245.819 L59.0708 245.819 L59.0708 254.291 Q60.0893 253.944 61.1078 253.781 Q62.1263 253.596 63.1448 253.596 Q68.9318 253.596 72.3115 256.768 Q75.6911 259.939 75.6911 265.356 Q75.6911 270.934 72.2189 274.036 Q68.7467 277.115 62.4272 277.115 Q60.2513 277.115 57.9828 276.744 Q55.7375 276.374 53.3301 275.633 L53.3301 270.934 Q55.4134 272.068 57.6356 272.624 Q59.8578 273.18 62.3347 273.18 Q66.3393 273.18 68.6772 271.073 Q71.0152 268.967 71.0152 265.356 Q71.0152 261.744 68.6772 259.638 Q66.3393 257.531 62.3347 257.531 Q60.4597 257.531 58.5847 257.948 Q56.7328 258.365 54.7884 259.244 L54.7884 241.883 Z" fill="#000000" fill-rule="nonzero" fill-opacity="1" /><path clip-path="url(#clip840)" d="M88.9317 272.508 L105.251 272.508 L105.251 276.443 L83.3068 276.443 L83.3068 272.508 Q85.9688 269.754 90.5521 265.124 Q95.1586 260.471 96.3391 259.129 Q98.5845 256.606 99.4641 254.869 Q100.367 253.11 100.367 251.42 Q100.367 248.666 98.4224 246.93 Q96.5011 245.194 93.3993 245.194 Q91.2002 245.194 88.7466 245.957 Q86.316 246.721 83.5382 248.272 L83.5382 243.55 Q86.3623 242.416 88.816 241.837 Q91.2697 241.258 93.3067 241.258 Q98.6771 241.258 101.871 243.944 Q105.066 246.629 105.066 251.119 Q105.066 253.249 104.256 255.17 Q103.469 257.069 101.362 259.661 Q100.784 260.332 97.6817 263.55 Q94.5799 266.744 88.9317 272.508 Z" fill="#000000" fill-rule="nonzero" fill-opacity="1" /><path clip-path="url(#clip840)" d="M115.066 270.564 L119.95 270.564 L119.95 276.443 L115.066 276.443 L115.066 270.564 Z" fill="#000000" fill-rule="nonzero" fill-opacity="1" /><path clip-path="url(#clip840)" d="M130.182 241.883 L148.538 241.883 L148.538 245.819 L134.464 245.819 L134.464 254.291 Q135.482 253.944 136.501 253.781 Q137.519 253.596 138.538 253.596 Q144.325 253.596 147.705 256.768 Q151.084 259.939 151.084 265.356 Q151.084 270.934 147.612 274.036 Q144.14 277.115 137.82 277.115 Q135.644 277.115 133.376 276.744 Q131.131 276.374 128.723 275.633 L128.723 270.934 Q130.807 272.068 133.029 272.624 Q135.251 273.18 137.728 273.18 Q141.732 273.18 144.07 271.073 Q146.408 268.967 146.408 265.356 Q146.408 261.744 144.07 259.638 Q141.732 257.531 137.728 257.531 Q135.853 257.531 133.978 257.948 Q132.126 258.365 130.182 259.244 L130.182 241.883 Z" fill="#000000" fill-rule="nonzero" fill-opacity="1" /><path clip-path="url(#clip840)" d="M53.793 134.201 L72.1494 134.201 L72.1494 138.136 L58.0754 138.136 L58.0754 146.608 Q59.0939 146.261 60.1124 146.099 Q61.131 145.914 62.1495 145.914 Q67.9365 145.914 71.3161 149.085 Q74.6957 152.256 74.6957 157.673 Q74.6957 163.252 71.2235 166.353 Q67.7513 169.432 61.4319 169.432 Q59.256 169.432 56.9875 169.062 Q54.7421 168.691 52.3347 167.951 L52.3347 163.252 Q54.418 164.386 56.6402 164.941 Q58.8625 165.497 61.3393 165.497 Q65.3439 165.497 67.6819 163.39 Q70.0198 161.284 70.0198 157.673 Q70.0198 154.062 67.6819 151.955 Q65.3439 149.849 61.3393 149.849 Q59.4643 149.849 57.5893 150.266 Q55.7375 150.682 53.793 151.562 L53.793 134.201 Z" fill="#000000" fill-rule="nonzero" fill-opacity="1" /><path clip-path="url(#clip840)" d="M83.9549 134.201 L102.311 134.201 L102.311 138.136 L88.2373 138.136 L88.2373 146.608 Q89.2558 146.261 90.2743 146.099 Q91.2928 145.914 92.3113 145.914 Q98.0984 145.914 101.478 149.085 Q104.858 152.256 104.858 157.673 Q104.858 163.252 101.385 166.353 Q97.9132 169.432 91.5938 169.432 Q89.4178 169.432 87.1493 169.062 Q84.904 168.691 82.4966 167.951 L82.4966 163.252 Q84.5799 164.386 86.8021 164.941 Q89.0243 165.497 91.5012 165.497 Q95.5058 165.497 97.8437 163.39 Q100.182 161.284 100.182 157.673 Q100.182 154.062 97.8437 151.955 Q95.5058 149.849 91.5012 149.849 Q89.6262 149.849 87.7512 150.266 Q85.8993 150.682 83.9549 151.562 L83.9549 134.201 Z" fill="#000000" fill-rule="nonzero" fill-opacity="1" /><path clip-path="url(#clip840)" d="M114.07 162.881 L118.955 162.881 L118.955 168.761 L114.07 168.761 L114.07 162.881 Z" fill="#000000" fill-rule="nonzero" fill-opacity="1" /><path clip-path="url(#clip840)" d="M139.14 137.28 Q135.529 137.28 133.7 140.844 Q131.894 144.386 131.894 151.516 Q131.894 158.622 133.7 162.187 Q135.529 165.728 139.14 165.728 Q142.774 165.728 144.58 162.187 Q146.408 158.622 146.408 151.516 Q146.408 144.386 144.58 140.844 Q142.774 137.28 139.14 137.28 M139.14 133.576 Q144.95 133.576 148.005 138.182 Q151.084 142.766 151.084 151.516 Q151.084 160.242 148.005 164.849 Q144.95 169.432 139.14 169.432 Q133.33 169.432 130.251 164.849 Q127.195 160.242 127.195 151.516 Q127.195 142.766 130.251 138.182 Q133.33 133.576 139.14 133.576 Z" fill="#000000" fill-rule="nonzero" fill-opacity="1" /><polyline clip-path="url(#clip842)" style="stroke:#009af9; stroke-linecap:round; stroke-linejoin:round; stroke-width:4; stroke-opacity:1; fill:none" points="248.377,366.846 268.808,366.846 289.239,323.773 309.669,366.846 330.1,496.065 350.531,496.065 370.962,409.919 391.393,539.138 411.824,496.065 432.255,496.065 452.685,409.919 473.116,409.919 493.547,409.919 513.978,280.7 534.409,280.7 554.84,194.554 575.271,151.481 595.701,151.481 616.132,65.3348 636.563,65.3348 656.994,65.3348 677.425,108.408 697.856,65.3348 718.287,65.3348 738.718,151.481 759.148,194.554 779.579,194.554 800.01,280.7 820.441,323.773 840.872,280.7 861.303,409.919 881.734,323.773 902.164,237.627 922.595,280.7 943.026,280.7 963.457,237.627 983.888,366.846 1004.32,323.773 1024.75,280.7 1045.18,237.627 1065.61,194.554 1086.04,151.481 1106.47,237.627 1126.9,108.408 1147.33,108.408 1167.77,151.481 1188.2,151.481 1208.63,65.3348 1229.06,108.408 1249.49,194.554 1269.92,280.7 1290.35,280.7 1310.78,194.554 1331.21,237.627 1351.64,194.554 1372.07,280.7 1392.51,237.627 1412.94,151.481 1433.37,151.481 1453.8,151.481 1474.23,194.554 1494.66,237.627 1515.09,194.554 1535.52,237.627 1555.95,237.627 1576.38,280.7 1596.81,323.773 1617.24,323.773 1637.68,280.7 1658.11,237.627 1678.54,237.627 1698.97,280.7 1719.4,323.773 1739.83,323.773 1760.26,409.919 1780.69,409.919 1801.12,409.919 1821.55,496.065 1841.98,496.065 1862.42,539.138 1882.85,625.284 1903.28,539.138 1923.71,582.211 1944.14,452.992 1964.57,409.919 1985,452.992 2005.43,452.992 2025.86,452.992 2046.29,496.065 2066.72,452.992 2087.15,366.846 2107.59,452.992 2128.02,539.138 2148.45,539.138 2168.88,496.065 2189.31,539.138 2209.74,625.284 2230.17,625.284 2250.6,625.284 2271.03,625.284 2291.46,668.357 "/>
<path clip-path="url(#clip840)" d="M1947.66 172.231 L2280.57 172.231 L2280.57 68.5509 L1947.66 68.5509  Z" fill="#ffffff" fill-rule="evenodd" fill-opacity="1"/>
<polyline clip-path="url(#clip840)" style="stroke:#000000; stroke-linecap:round; stroke-linejoin:round; stroke-width:4; stroke-opacity:1; fill:none" points="1947.66,172.231 2280.57,172.231 2280.57,68.5509 1947.66,68.5509 1947.66,172.231 "/>
<polyline clip-path="url(#clip840)" style="stroke:#009af9; stroke-linecap:round; stroke-linejoin:round; stroke-width:4; stroke-opacity:1; fill:none" points="1971.72,120.391 2116.1,120.391 "/>
<path clip-path="url(#clip840)" d="M2140.16 111.745 L2144.42 111.745 L2144.42 137.671 L2140.16 137.671 L2140.16 111.745 M2140.16 101.653 L2144.42 101.653 L2144.42 107.046 L2140.16 107.046 L2140.16 101.653 Z" fill="#000000" fill-rule="nonzero" fill-opacity="1" /><path clip-path="url(#clip840)" d="M2174.88 122.023 L2174.88 137.671 L2170.62 137.671 L2170.62 122.162 Q2170.62 118.481 2169.19 116.652 Q2167.75 114.824 2164.88 114.824 Q2161.43 114.824 2159.44 117.023 Q2157.45 119.222 2157.45 123.018 L2157.45 137.671 L2153.17 137.671 L2153.17 111.745 L2157.45 111.745 L2157.45 115.773 Q2158.98 113.435 2161.04 112.278 Q2163.12 111.12 2165.83 111.12 Q2170.3 111.12 2172.59 113.898 Q2174.88 116.652 2174.88 122.023 Z" fill="#000000" fill-rule="nonzero" fill-opacity="1" /><path clip-path="url(#clip840)" d="M2187.5 133.782 L2187.5 147.532 L2183.22 147.532 L2183.22 111.745 L2187.5 111.745 L2187.5 115.68 Q2188.84 113.365 2190.88 112.254 Q2192.94 111.12 2195.79 111.12 Q2200.51 111.12 2203.45 114.87 Q2206.41 118.62 2206.41 124.731 Q2206.41 130.842 2203.45 134.592 Q2200.51 138.342 2195.79 138.342 Q2192.94 138.342 2190.88 137.231 Q2188.84 136.097 2187.5 133.782 M2201.99 124.731 Q2201.99 120.032 2200.05 117.37 Q2198.12 114.685 2194.74 114.685 Q2191.37 114.685 2189.42 117.37 Q2187.5 120.032 2187.5 124.731 Q2187.5 129.43 2189.42 132.115 Q2191.37 134.777 2194.74 134.777 Q2198.12 134.777 2200.05 132.115 Q2201.99 129.43 2201.99 124.731 Z" fill="#000000" fill-rule="nonzero" fill-opacity="1" /><path clip-path="url(#clip840)" d="M2213.03 127.439 L2213.03 111.745 L2217.29 111.745 L2217.29 127.277 Q2217.29 130.958 2218.73 132.81 Q2220.16 134.638 2223.03 134.638 Q2226.48 134.638 2228.47 132.439 Q2230.49 130.24 2230.49 126.444 L2230.49 111.745 L2234.74 111.745 L2234.74 137.671 L2230.49 137.671 L2230.49 133.689 Q2228.93 136.051 2226.87 137.208 Q2224.84 138.342 2222.13 138.342 Q2217.66 138.342 2215.35 135.564 Q2213.03 132.787 2213.03 127.439 M2223.75 111.12 L2223.75 111.12 Z" fill="#000000" fill-rule="nonzero" fill-opacity="1" /><path clip-path="url(#clip840)" d="M2247.73 104.384 L2247.73 111.745 L2256.5 111.745 L2256.5 115.055 L2247.73 115.055 L2247.73 129.129 Q2247.73 132.301 2248.59 133.203 Q2249.47 134.106 2252.13 134.106 L2256.5 134.106 L2256.5 137.671 L2252.13 137.671 Q2247.2 137.671 2245.32 135.842 Q2243.45 133.99 2243.45 129.129 L2243.45 115.055 L2240.32 115.055 L2240.32 111.745 L2243.45 111.745 L2243.45 104.384 L2247.73 104.384 Z" fill="#000000" fill-rule="nonzero" fill-opacity="1" /><path clip-path="url(#clip840)" d="M187.084 1486.45 L2352.76 1486.45 L2352.76 847.244 L187.084 847.244  Z" fill="#ffffff" fill-rule="evenodd" fill-opacity="1"/>
<defs>
  <clipPath id="clip843">
    <rect x="187" y="847" width="2167" height="640"/>
  </clipPath>
</defs>
<polyline clip-path="url(#clip843)" style="stroke:#000000; stroke-linecap:round; stroke-linejoin:round; stroke-width:2; stroke-opacity:0.1; fill:none" points="248.377,1486.45 248.377,847.244 "/>
<polyline clip-path="url(#clip843)" style="stroke:#000000; stroke-linecap:round; stroke-linejoin:round; stroke-width:2; stroke-opacity:0.1; fill:none" points="759.148,1486.45 759.148,847.244 "/>
<polyline clip-path="url(#clip843)" style="stroke:#000000; stroke-linecap:round; stroke-linejoin:round; stroke-width:2; stroke-opacity:0.1; fill:none" points="1269.92,1486.45 1269.92,847.244 "/>
<polyline clip-path="url(#clip843)" style="stroke:#000000; stroke-linecap:round; stroke-linejoin:round; stroke-width:2; stroke-opacity:0.1; fill:none" points="1780.69,1486.45 1780.69,847.244 "/>
<polyline clip-path="url(#clip843)" style="stroke:#000000; stroke-linecap:round; stroke-linejoin:round; stroke-width:2; stroke-opacity:0.1; fill:none" points="2291.46,1486.45 2291.46,847.244 "/>
<polyline clip-path="url(#clip843)" style="stroke:#000000; stroke-linecap:round; stroke-linejoin:round; stroke-width:2; stroke-opacity:0.1; fill:none" points="187.084,1395.99 2352.76,1395.99 "/>
<polyline clip-path="url(#clip843)" style="stroke:#000000; stroke-linecap:round; stroke-linejoin:round; stroke-width:2; stroke-opacity:0.1; fill:none" points="187.084,1275.39 2352.76,1275.39 "/>
<polyline clip-path="url(#clip843)" style="stroke:#000000; stroke-linecap:round; stroke-linejoin:round; stroke-width:2; stroke-opacity:0.1; fill:none" points="187.084,1154.79 2352.76,1154.79 "/>
<polyline clip-path="url(#clip843)" style="stroke:#000000; stroke-linecap:round; stroke-linejoin:round; stroke-width:2; stroke-opacity:0.1; fill:none" points="187.084,1034.18 2352.76,1034.18 "/>
<polyline clip-path="url(#clip843)" style="stroke:#000000; stroke-linecap:round; stroke-linejoin:round; stroke-width:2; stroke-opacity:0.1; fill:none" points="187.084,913.577 2352.76,913.577 "/>
<polyline clip-path="url(#clip840)" style="stroke:#000000; stroke-linecap:round; stroke-linejoin:round; stroke-width:4; stroke-opacity:1; fill:none" points="187.084,1486.45 2352.76,1486.45 "/>
<polyline clip-path="url(#clip840)" style="stroke:#000000; stroke-linecap:round; stroke-linejoin:round; stroke-width:4; stroke-opacity:1; fill:none" points="248.377,1486.45 248.377,1467.55 "/>
<polyline clip-path="url(#clip840)" style="stroke:#000000; stroke-linecap:round; stroke-linejoin:round; stroke-width:4; stroke-opacity:1; fill:none" points="759.148,1486.45 759.148,1467.55 "/>
<polyline clip-path="url(#clip840)" style="stroke:#000000; stroke-linecap:round; stroke-linejoin:round; stroke-width:4; stroke-opacity:1; fill:none" points="1269.92,1486.45 1269.92,1467.55 "/>
<polyline clip-path="url(#clip840)" style="stroke:#000000; stroke-linecap:round; stroke-linejoin:round; stroke-width:4; stroke-opacity:1; fill:none" points="1780.69,1486.45 1780.69,1467.55 "/>
<polyline clip-path="url(#clip840)" style="stroke:#000000; stroke-linecap:round; stroke-linejoin:round; stroke-width:4; stroke-opacity:1; fill:none" points="2291.46,1486.45 2291.46,1467.55 "/>
<path clip-path="url(#clip840)" d="M225.761 1517.37 Q222.15 1517.37 220.321 1520.93 Q218.516 1524.47 218.516 1531.6 Q218.516 1538.71 220.321 1542.27 Q222.15 1545.82 225.761 1545.82 Q229.395 1545.82 231.201 1542.27 Q233.03 1538.71 233.03 1531.6 Q233.03 1524.47 231.201 1520.93 Q229.395 1517.37 225.761 1517.37 M225.761 1513.66 Q231.571 1513.66 234.627 1518.27 Q237.706 1522.85 237.706 1531.6 Q237.706 1540.33 234.627 1544.94 Q231.571 1549.52 225.761 1549.52 Q219.951 1549.52 216.872 1544.94 Q213.817 1540.33 213.817 1531.6 Q213.817 1522.85 216.872 1518.27 Q219.951 1513.66 225.761 1513.66 Z" fill="#000000" fill-rule="nonzero" fill-opacity="1" /><path clip-path="url(#clip840)" d="M245.923 1542.97 L250.807 1542.97 L250.807 1548.85 L245.923 1548.85 L245.923 1542.97 Z" fill="#000000" fill-rule="nonzero" fill-opacity="1" /><path clip-path="url(#clip840)" d="M270.992 1517.37 Q267.381 1517.37 265.553 1520.93 Q263.747 1524.47 263.747 1531.6 Q263.747 1538.71 265.553 1542.27 Q267.381 1545.82 270.992 1545.82 Q274.627 1545.82 276.432 1542.27 Q278.261 1538.71 278.261 1531.6 Q278.261 1524.47 276.432 1520.93 Q274.627 1517.37 270.992 1517.37 M270.992 1513.66 Q276.803 1513.66 279.858 1518.27 Q282.937 1522.85 282.937 1531.6 Q282.937 1540.33 279.858 1544.94 Q276.803 1549.52 270.992 1549.52 Q265.182 1549.52 262.104 1544.94 Q259.048 1540.33 259.048 1531.6 Q259.048 1522.85 262.104 1518.27 Q265.182 1513.66 270.992 1513.66 Z" fill="#000000" fill-rule="nonzero" fill-opacity="1" /><path clip-path="url(#clip840)" d="M737.03 1517.37 Q733.419 1517.37 731.591 1520.93 Q729.785 1524.47 729.785 1531.6 Q729.785 1538.71 731.591 1542.27 Q733.419 1545.82 737.03 1545.82 Q740.665 1545.82 742.47 1542.27 Q744.299 1538.71 744.299 1531.6 Q744.299 1524.47 742.47 1520.93 Q740.665 1517.37 737.03 1517.37 M737.03 1513.66 Q742.841 1513.66 745.896 1518.27 Q748.975 1522.85 748.975 1531.6 Q748.975 1540.33 745.896 1544.94 Q742.841 1549.52 737.03 1549.52 Q731.22 1549.52 728.142 1544.94 Q725.086 1540.33 725.086 1531.6 Q725.086 1522.85 728.142 1518.27 Q731.22 1513.66 737.03 1513.66 Z" fill="#000000" fill-rule="nonzero" fill-opacity="1" /><path clip-path="url(#clip840)" d="M757.192 1542.97 L762.077 1542.97 L762.077 1548.85 L757.192 1548.85 L757.192 1542.97 Z" fill="#000000" fill-rule="nonzero" fill-opacity="1" /><path clip-path="url(#clip840)" d="M772.308 1514.29 L790.664 1514.29 L790.664 1518.22 L776.59 1518.22 L776.59 1526.7 Q777.609 1526.35 778.627 1526.19 Q779.646 1526 780.664 1526 Q786.452 1526 789.831 1529.17 Q793.211 1532.34 793.211 1537.76 Q793.211 1543.34 789.739 1546.44 Q786.266 1549.52 779.947 1549.52 Q777.771 1549.52 775.502 1549.15 Q773.257 1548.78 770.85 1548.04 L770.85 1543.34 Q772.933 1544.47 775.155 1545.03 Q777.377 1545.58 779.854 1545.58 Q783.859 1545.58 786.197 1543.48 Q788.535 1541.37 788.535 1537.76 Q788.535 1534.15 786.197 1532.04 Q783.859 1529.94 779.854 1529.94 Q777.979 1529.94 776.104 1530.35 Q774.252 1530.77 772.308 1531.65 L772.308 1514.29 Z" fill="#000000" fill-rule="nonzero" fill-opacity="1" /><path clip-path="url(#clip840)" d="M1237.07 1544.91 L1244.71 1544.91 L1244.71 1518.55 L1236.4 1520.21 L1236.4 1515.95 L1244.67 1514.29 L1249.34 1514.29 L1249.34 1544.91 L1256.98 1544.91 L1256.98 1548.85 L1237.07 1548.85 L1237.07 1544.91 Z" fill="#000000" fill-rule="nonzero" fill-opacity="1" /><path clip-path="url(#clip840)" d="M1266.42 1542.97 L1271.31 1542.97 L1271.31 1548.85 L1266.42 1548.85 L1266.42 1542.97 Z" fill="#000000" fill-rule="nonzero" fill-opacity="1" /><path clip-path="url(#clip840)" d="M1291.49 1517.37 Q1287.88 1517.37 1286.05 1520.93 Q1284.25 1524.47 1284.25 1531.6 Q1284.25 1538.71 1286.05 1542.27 Q1287.88 1545.82 1291.49 1545.82 Q1295.13 1545.82 1296.93 1542.27 Q1298.76 1538.71 1298.76 1531.6 Q1298.76 1524.47 1296.93 1520.93 Q1295.13 1517.37 1291.49 1517.37 M1291.49 1513.66 Q1297.3 1513.66 1300.36 1518.27 Q1303.44 1522.85 1303.44 1531.6 Q1303.44 1540.33 1300.36 1544.94 Q1297.3 1549.52 1291.49 1549.52 Q1285.68 1549.52 1282.61 1544.94 Q1279.55 1540.33 1279.55 1531.6 Q1279.55 1522.85 1282.61 1518.27 Q1285.68 1513.66 1291.49 1513.66 Z" fill="#000000" fill-rule="nonzero" fill-opacity="1" /><path clip-path="url(#clip840)" d="M1748.34 1544.91 L1755.98 1544.91 L1755.98 1518.55 L1747.67 1520.21 L1747.67 1515.95 L1755.93 1514.29 L1760.61 1514.29 L1760.61 1544.91 L1768.25 1544.91 L1768.25 1548.85 L1748.34 1548.85 L1748.34 1544.91 Z" fill="#000000" fill-rule="nonzero" fill-opacity="1" /><path clip-path="url(#clip840)" d="M1777.69 1542.97 L1782.58 1542.97 L1782.58 1548.85 L1777.69 1548.85 L1777.69 1542.97 Z" fill="#000000" fill-rule="nonzero" fill-opacity="1" /><path clip-path="url(#clip840)" d="M1792.81 1514.29 L1811.17 1514.29 L1811.17 1518.22 L1797.09 1518.22 L1797.09 1526.7 Q1798.11 1526.35 1799.13 1526.19 Q1800.15 1526 1801.17 1526 Q1806.95 1526 1810.33 1529.17 Q1813.71 1532.34 1813.71 1537.76 Q1813.71 1543.34 1810.24 1546.44 Q1806.77 1549.52 1800.45 1549.52 Q1798.27 1549.52 1796 1549.15 Q1793.76 1548.78 1791.35 1548.04 L1791.35 1543.34 Q1793.43 1544.47 1795.66 1545.03 Q1797.88 1545.58 1800.36 1545.58 Q1804.36 1545.58 1806.7 1543.48 Q1809.04 1541.37 1809.04 1537.76 Q1809.04 1534.15 1806.7 1532.04 Q1804.36 1529.94 1800.36 1529.94 Q1798.48 1529.94 1796.61 1530.35 Q1794.75 1530.77 1792.81 1531.65 L1792.81 1514.29 Z" fill="#000000" fill-rule="nonzero" fill-opacity="1" /><path clip-path="url(#clip840)" d="M2262.7 1544.91 L2279.02 1544.91 L2279.02 1548.85 L2257.08 1548.85 L2257.08 1544.91 Q2259.74 1542.16 2264.32 1537.53 Q2268.93 1532.88 2270.11 1531.53 Q2272.35 1529.01 2273.23 1527.27 Q2274.14 1525.51 2274.14 1523.82 Q2274.14 1521.07 2272.19 1519.33 Q2270.27 1517.6 2267.17 1517.6 Q2264.97 1517.6 2262.52 1518.36 Q2260.09 1519.13 2257.31 1520.68 L2257.31 1515.95 Q2260.13 1514.82 2262.59 1514.24 Q2265.04 1513.66 2267.08 1513.66 Q2272.45 1513.66 2275.64 1516.35 Q2278.84 1519.03 2278.84 1523.52 Q2278.84 1525.65 2278.03 1527.57 Q2277.24 1529.47 2275.13 1532.07 Q2274.55 1532.74 2271.45 1535.95 Q2268.35 1539.15 2262.7 1544.91 Z" fill="#000000" fill-rule="nonzero" fill-opacity="1" /><path clip-path="url(#clip840)" d="M2288.84 1542.97 L2293.72 1542.97 L2293.72 1548.85 L2288.84 1548.85 L2288.84 1542.97 Z" fill="#000000" fill-rule="nonzero" fill-opacity="1" /><path clip-path="url(#clip840)" d="M2313.91 1517.37 Q2310.29 1517.37 2308.47 1520.93 Q2306.66 1524.47 2306.66 1531.6 Q2306.66 1538.71 2308.47 1542.27 Q2310.29 1545.82 2313.91 1545.82 Q2317.54 1545.82 2319.35 1542.27 Q2321.17 1538.71 2321.17 1531.6 Q2321.17 1524.47 2319.35 1520.93 Q2317.54 1517.37 2313.91 1517.37 M2313.91 1513.66 Q2319.72 1513.66 2322.77 1518.27 Q2325.85 1522.85 2325.85 1531.6 Q2325.85 1540.33 2322.77 1544.94 Q2319.72 1549.52 2313.91 1549.52 Q2308.1 1549.52 2305.02 1544.94 Q2301.96 1540.33 2301.96 1531.6 Q2301.96 1522.85 2305.02 1518.27 Q2308.1 1513.66 2313.91 1513.66 Z" fill="#000000" fill-rule="nonzero" fill-opacity="1" /><polyline clip-path="url(#clip840)" style="stroke:#000000; stroke-linecap:round; stroke-linejoin:round; stroke-width:4; stroke-opacity:1; fill:none" points="187.084,1486.45 187.084,847.244 "/>
<polyline clip-path="url(#clip840)" style="stroke:#000000; stroke-linecap:round; stroke-linejoin:round; stroke-width:4; stroke-opacity:1; fill:none" points="187.084,1395.99 205.982,1395.99 "/>
<polyline clip-path="url(#clip840)" style="stroke:#000000; stroke-linecap:round; stroke-linejoin:round; stroke-width:4; stroke-opacity:1; fill:none" points="187.084,1275.39 205.982,1275.39 "/>
<polyline clip-path="url(#clip840)" style="stroke:#000000; stroke-linecap:round; stroke-linejoin:round; stroke-width:4; stroke-opacity:1; fill:none" points="187.084,1154.79 205.982,1154.79 "/>
<polyline clip-path="url(#clip840)" style="stroke:#000000; stroke-linecap:round; stroke-linejoin:round; stroke-width:4; stroke-opacity:1; fill:none" points="187.084,1034.18 205.982,1034.18 "/>
<polyline clip-path="url(#clip840)" style="stroke:#000000; stroke-linecap:round; stroke-linejoin:round; stroke-width:4; stroke-opacity:1; fill:none" points="187.084,913.577 205.982,913.577 "/>
<path clip-path="url(#clip840)" d="M112.82 1382.79 L101.015 1401.24 L112.82 1401.24 L112.82 1382.79 M111.594 1378.71 L117.473 1378.71 L117.473 1401.24 L122.404 1401.24 L122.404 1405.13 L117.473 1405.13 L117.473 1413.27 L112.82 1413.27 L112.82 1405.13 L97.2187 1405.13 L97.2187 1400.61 L111.594 1378.71 Z" fill="#000000" fill-rule="nonzero" fill-opacity="1" /><path clip-path="url(#clip840)" d="M130.182 1378.71 L148.538 1378.71 L148.538 1382.65 L134.464 1382.65 L134.464 1391.12 Q135.482 1390.77 136.501 1390.61 Q137.519 1390.43 138.538 1390.43 Q144.325 1390.43 147.705 1393.6 Q151.084 1396.77 151.084 1402.19 Q151.084 1407.77 147.612 1410.87 Q144.14 1413.95 137.82 1413.95 Q135.644 1413.95 133.376 1413.58 Q131.131 1413.21 128.723 1412.46 L128.723 1407.77 Q130.807 1408.9 133.029 1409.46 Q135.251 1410.01 137.728 1410.01 Q141.732 1410.01 144.07 1407.9 Q146.408 1405.8 146.408 1402.19 Q146.408 1398.58 144.07 1396.47 Q141.732 1394.36 137.728 1394.36 Q135.853 1394.36 133.978 1394.78 Q132.126 1395.2 130.182 1396.08 L130.182 1378.71 Z" fill="#000000" fill-rule="nonzero" fill-opacity="1" /><path clip-path="url(#clip840)" d="M99.0243 1258.11 L117.381 1258.11 L117.381 1262.05 L103.307 1262.05 L103.307 1270.52 Q104.325 1270.17 105.344 1270.01 Q106.362 1269.82 107.381 1269.82 Q113.168 1269.82 116.547 1272.99 Q119.927 1276.17 119.927 1281.58 Q119.927 1287.16 116.455 1290.26 Q112.983 1293.34 106.663 1293.34 Q104.487 1293.34 102.219 1292.97 Q99.9733 1292.6 97.566 1291.86 L97.566 1287.16 Q99.6493 1288.3 101.871 1288.85 Q104.094 1289.41 106.571 1289.41 Q110.575 1289.41 112.913 1287.3 Q115.251 1285.19 115.251 1281.58 Q115.251 1277.97 112.913 1275.86 Q110.575 1273.76 106.571 1273.76 Q104.696 1273.76 102.821 1274.17 Q100.969 1274.59 99.0243 1275.47 L99.0243 1258.11 Z" fill="#000000" fill-rule="nonzero" fill-opacity="1" /><path clip-path="url(#clip840)" d="M139.14 1261.19 Q135.529 1261.19 133.7 1264.75 Q131.894 1268.3 131.894 1275.42 Q131.894 1282.53 133.7 1286.1 Q135.529 1289.64 139.14 1289.64 Q142.774 1289.64 144.58 1286.1 Q146.408 1282.53 146.408 1275.42 Q146.408 1268.3 144.58 1264.75 Q142.774 1261.19 139.14 1261.19 M139.14 1257.49 Q144.95 1257.49 148.005 1262.09 Q151.084 1266.67 151.084 1275.42 Q151.084 1284.15 148.005 1288.76 Q144.95 1293.34 139.14 1293.34 Q133.33 1293.34 130.251 1288.76 Q127.195 1284.15 127.195 1275.42 Q127.195 1266.67 130.251 1262.09 Q133.33 1257.49 139.14 1257.49 Z" fill="#000000" fill-rule="nonzero" fill-opacity="1" /><path clip-path="url(#clip840)" d="M100.02 1137.51 L118.376 1137.51 L118.376 1141.44 L104.302 1141.44 L104.302 1149.91 Q105.321 1149.57 106.339 1149.4 Q107.358 1149.22 108.376 1149.22 Q114.163 1149.22 117.543 1152.39 Q120.922 1155.56 120.922 1160.98 Q120.922 1166.56 117.45 1169.66 Q113.978 1172.74 107.658 1172.74 Q105.483 1172.74 103.214 1172.37 Q100.969 1172 98.5613 1171.26 L98.5613 1166.56 Q100.645 1167.69 102.867 1168.25 Q105.089 1168.8 107.566 1168.8 Q111.571 1168.8 113.908 1166.7 Q116.246 1164.59 116.246 1160.98 Q116.246 1157.37 113.908 1155.26 Q111.571 1153.15 107.566 1153.15 Q105.691 1153.15 103.816 1153.57 Q101.964 1153.99 100.02 1154.87 L100.02 1137.51 Z" fill="#000000" fill-rule="nonzero" fill-opacity="1" /><path clip-path="url(#clip840)" d="M130.182 1137.51 L148.538 1137.51 L148.538 1141.44 L134.464 1141.44 L134.464 1149.91 Q135.482 1149.57 136.501 1149.4 Q137.519 1149.22 138.538 1149.22 Q144.325 1149.22 147.705 1152.39 Q151.084 1155.56 151.084 1160.98 Q151.084 1166.56 147.612 1169.66 Q144.14 1172.74 137.82 1172.74 Q135.644 1172.74 133.376 1172.37 Q131.131 1172 128.723 1171.26 L128.723 1166.56 Q130.807 1167.69 133.029 1168.25 Q135.251 1168.8 137.728 1168.8 Q141.732 1168.8 144.07 1166.7 Q146.408 1164.59 146.408 1160.98 Q146.408 1157.37 144.07 1155.26 Q141.732 1153.15 137.728 1153.15 Q135.853 1153.15 133.978 1153.57 Q132.126 1153.99 130.182 1154.87 L130.182 1137.51 Z" fill="#000000" fill-rule="nonzero" fill-opacity="1" /><path clip-path="url(#clip840)" d="M109.557 1032.32 Q106.408 1032.32 104.557 1034.47 Q102.728 1036.62 102.728 1040.37 Q102.728 1044.1 104.557 1046.28 Q106.408 1048.43 109.557 1048.43 Q112.705 1048.43 114.533 1046.28 Q116.385 1044.1 116.385 1040.37 Q116.385 1036.62 114.533 1034.47 Q112.705 1032.32 109.557 1032.32 M118.839 1017.66 L118.839 1021.92 Q117.08 1021.09 115.274 1020.65 Q113.492 1020.21 111.733 1020.21 Q107.103 1020.21 104.649 1023.34 Q102.219 1026.46 101.871 1032.78 Q103.237 1030.77 105.297 1029.7 Q107.358 1028.61 109.834 1028.61 Q115.043 1028.61 118.052 1031.79 Q121.084 1034.93 121.084 1040.37 Q121.084 1045.7 117.936 1048.91 Q114.788 1052.13 109.557 1052.13 Q103.561 1052.13 100.39 1047.55 Q97.2187 1042.94 97.2187 1034.22 Q97.2187 1026.02 101.108 1021.16 Q104.996 1016.28 111.547 1016.28 Q113.307 1016.28 115.089 1016.62 Q116.895 1016.97 118.839 1017.66 Z" fill="#000000" fill-rule="nonzero" fill-opacity="1" /><path clip-path="url(#clip840)" d="M139.14 1019.98 Q135.529 1019.98 133.7 1023.54 Q131.894 1027.09 131.894 1034.22 Q131.894 1041.32 133.7 1044.89 Q135.529 1048.43 139.14 1048.43 Q142.774 1048.43 144.58 1044.89 Q146.408 1041.32 146.408 1034.22 Q146.408 1027.09 144.58 1023.54 Q142.774 1019.98 139.14 1019.98 M139.14 1016.28 Q144.95 1016.28 148.005 1020.88 Q151.084 1025.47 151.084 1034.22 Q151.084 1042.94 148.005 1047.55 Q144.95 1052.13 139.14 1052.13 Q133.33 1052.13 130.251 1047.55 Q127.195 1042.94 127.195 1034.22 Q127.195 1025.47 130.251 1020.88 Q133.33 1016.28 139.14 1016.28 Z" fill="#000000" fill-rule="nonzero" fill-opacity="1" /><path clip-path="url(#clip840)" d="M110.552 911.713 Q107.404 911.713 105.552 913.866 Q103.723 916.019 103.723 919.769 Q103.723 923.495 105.552 925.671 Q107.404 927.824 110.552 927.824 Q113.7 927.824 115.529 925.671 Q117.381 923.495 117.381 919.769 Q117.381 916.019 115.529 913.866 Q113.7 911.713 110.552 911.713 M119.834 897.06 L119.834 901.32 Q118.075 900.486 116.27 900.047 Q114.487 899.607 112.728 899.607 Q108.098 899.607 105.645 902.732 Q103.214 905.857 102.867 912.176 Q104.233 910.162 106.293 909.097 Q108.353 908.009 110.83 908.009 Q116.038 908.009 119.047 911.181 Q122.08 914.329 122.08 919.769 Q122.08 925.093 118.932 928.31 Q115.783 931.528 110.552 931.528 Q104.557 931.528 101.385 926.945 Q98.2141 922.338 98.2141 913.611 Q98.2141 905.417 102.103 900.556 Q105.992 895.672 112.543 895.672 Q114.302 895.672 116.084 896.019 Q117.89 896.366 119.834 897.06 Z" fill="#000000" fill-rule="nonzero" fill-opacity="1" /><path clip-path="url(#clip840)" d="M130.182 896.297 L148.538 896.297 L148.538 900.232 L134.464 900.232 L134.464 908.704 Q135.482 908.357 136.501 908.195 Q137.519 908.009 138.538 908.009 Q144.325 908.009 147.705 911.181 Q151.084 914.352 151.084 919.769 Q151.084 925.347 147.612 928.449 Q144.14 931.528 137.82 931.528 Q135.644 931.528 133.376 931.157 Q131.131 930.787 128.723 930.046 L128.723 925.347 Q130.807 926.482 133.029 927.037 Q135.251 927.593 137.728 927.593 Q141.732 927.593 144.07 925.486 Q146.408 923.38 146.408 919.769 Q146.408 916.158 144.07 914.051 Q141.732 911.945 137.728 911.945 Q135.853 911.945 133.978 912.361 Q132.126 912.778 130.182 913.658 L130.182 896.297 Z" fill="#000000" fill-rule="nonzero" fill-opacity="1" /><polyline clip-path="url(#clip843)" style="stroke:#009af9; stroke-linecap:round; stroke-linejoin:round; stroke-width:4; stroke-opacity:1; fill:none" points="248.377,1275.39 268.808,1299.51 289.239,1347.75 309.669,1395.99 330.1,1275.39 350.531,1395.99 370.962,1420.12 391.393,1444.24 411.824,1371.87 432.255,1395.99 452.685,1395.99 473.116,1323.63 493.547,1323.63 513.978,1154.79 534.409,1082.42 554.84,961.818 575.271,1034.18 595.701,937.697 616.132,961.818 636.563,913.577 656.994,1010.06 677.425,1106.54 697.856,1058.3 718.287,1010.06 738.718,1010.06 759.148,1106.54 779.579,1130.66 800.01,1130.66 820.441,1275.39 840.872,1323.63 861.303,1371.87 881.734,1420.12 902.164,1371.87 922.595,1203.03 943.026,1034.18 963.457,1034.18 983.888,1010.06 1004.32,1106.54 1024.75,1130.66 1045.18,1034.18 1065.61,1130.66 1086.04,961.818 1106.47,1251.27 1126.9,1227.15 1147.33,1178.91 1167.77,1034.18 1188.2,1106.54 1208.63,1010.06 1229.06,865.335 1249.49,937.697 1269.92,1106.54 1290.35,1058.3 1310.78,937.697 1331.21,937.697 1351.64,985.939 1372.07,1130.66 1392.51,1106.54 1412.94,913.577 1433.37,889.456 1453.8,913.577 1474.23,1154.79 1494.66,1227.15 1515.09,1227.15 1535.52,1106.54 1555.95,1154.79 1576.38,1203.03 1596.81,1227.15 1617.24,1275.39 1637.68,1347.75 1658.11,1203.03 1678.54,1251.27 1698.97,1275.39 1719.4,1347.75 1739.83,1154.79 1760.26,1178.91 1780.69,1251.27 1801.12,1395.99 1821.55,1371.87 1841.98,1371.87 1862.42,1468.36 1882.85,1468.36 1903.28,1395.99 1923.71,1444.24 1944.14,1371.87 1964.57,1395.99 1985,1275.39 2005.43,1299.51 2025.86,1299.51 2046.29,1275.39 2066.72,1227.15 2087.15,1130.66 2107.59,1106.54 2128.02,1058.3 2148.45,1106.54 2168.88,1203.03 2189.31,1275.39 2209.74,1323.63 2230.17,1178.91 2250.6,1275.39 2271.03,1444.24 2291.46,1395.99 "/>
<path clip-path="url(#clip840)" d="M1911.38 972.231 L2280.57 972.231 L2280.57 868.551 L1911.38 868.551  Z" fill="#ffffff" fill-rule="evenodd" fill-opacity="1"/>
<polyline clip-path="url(#clip840)" style="stroke:#000000; stroke-linecap:round; stroke-linejoin:round; stroke-width:4; stroke-opacity:1; fill:none" points="1911.38,972.231 2280.57,972.231 2280.57,868.551 1911.38,868.551 1911.38,972.231 "/>
<polyline clip-path="url(#clip840)" style="stroke:#009af9; stroke-linecap:round; stroke-linejoin:round; stroke-width:4; stroke-opacity:1; fill:none" points="1935.45,920.391 2079.83,920.391 "/>
<path clip-path="url(#clip840)" d="M2115.79 914.731 Q2112.36 914.731 2110.37 917.416 Q2108.38 920.078 2108.38 924.731 Q2108.38 929.384 2110.35 932.069 Q2112.34 934.731 2115.79 934.731 Q2119.19 934.731 2121.18 932.046 Q2123.17 929.361 2123.17 924.731 Q2123.17 920.125 2121.18 917.44 Q2119.19 914.731 2115.79 914.731 M2115.79 911.12 Q2121.34 911.12 2124.51 914.731 Q2127.69 918.342 2127.69 924.731 Q2127.69 931.097 2124.51 934.731 Q2121.34 938.342 2115.79 938.342 Q2110.21 938.342 2107.04 934.731 Q2103.89 931.097 2103.89 924.731 Q2103.89 918.342 2107.04 914.731 Q2110.21 911.12 2115.79 911.12 Z" fill="#000000" fill-rule="nonzero" fill-opacity="1" /><path clip-path="url(#clip840)" d="M2134.31 927.439 L2134.31 911.745 L2138.56 911.745 L2138.56 927.277 Q2138.56 930.958 2140 932.81 Q2141.44 934.638 2144.31 934.638 Q2147.75 934.638 2149.75 932.439 Q2151.76 930.24 2151.76 926.444 L2151.76 911.745 L2156.02 911.745 L2156.02 937.671 L2151.76 937.671 L2151.76 933.689 Q2150.21 936.051 2148.15 937.208 Q2146.11 938.342 2143.4 938.342 Q2138.94 938.342 2136.62 935.564 Q2134.31 932.787 2134.31 927.439 M2145.02 911.12 L2145.02 911.12 Z" fill="#000000" fill-rule="nonzero" fill-opacity="1" /><path clip-path="url(#clip840)" d="M2169 904.384 L2169 911.745 L2177.78 911.745 L2177.78 915.055 L2169 915.055 L2169 929.129 Q2169 932.301 2169.86 933.203 Q2170.74 934.106 2173.4 934.106 L2177.78 934.106 L2177.78 937.671 L2173.4 937.671 Q2168.47 937.671 2166.6 935.842 Q2164.72 933.99 2164.72 929.129 L2164.72 915.055 L2161.6 915.055 L2161.6 911.745 L2164.72 911.745 L2164.72 904.384 L2169 904.384 Z" fill="#000000" fill-rule="nonzero" fill-opacity="1" /><path clip-path="url(#clip840)" d="M2187.5 933.782 L2187.5 947.532 L2183.22 947.532 L2183.22 911.745 L2187.5 911.745 L2187.5 915.68 Q2188.84 913.365 2190.88 912.254 Q2192.94 911.12 2195.79 911.12 Q2200.51 911.12 2203.45 914.87 Q2206.41 918.62 2206.41 924.731 Q2206.41 930.842 2203.45 934.592 Q2200.51 938.342 2195.79 938.342 Q2192.94 938.342 2190.88 937.231 Q2188.84 936.097 2187.5 933.782 M2201.99 924.731 Q2201.99 920.032 2200.05 917.37 Q2198.12 914.685 2194.74 914.685 Q2191.37 914.685 2189.42 917.37 Q2187.5 920.032 2187.5 924.731 Q2187.5 929.43 2189.42 932.115 Q2191.37 934.777 2194.74 934.777 Q2198.12 934.777 2200.05 932.115 Q2201.99 929.43 2201.99 924.731 Z" fill="#000000" fill-rule="nonzero" fill-opacity="1" /><path clip-path="url(#clip840)" d="M2213.03 927.439 L2213.03 911.745 L2217.29 911.745 L2217.29 927.277 Q2217.29 930.958 2218.73 932.81 Q2220.16 934.638 2223.03 934.638 Q2226.48 934.638 2228.47 932.439 Q2230.49 930.24 2230.49 926.444 L2230.49 911.745 L2234.74 911.745 L2234.74 937.671 L2230.49 937.671 L2230.49 933.689 Q2228.93 936.051 2226.87 937.208 Q2224.84 938.342 2222.13 938.342 Q2217.66 938.342 2215.35 935.564 Q2213.03 932.787 2213.03 927.439 M2223.75 911.12 L2223.75 911.12 Z" fill="#000000" fill-rule="nonzero" fill-opacity="1" /><path clip-path="url(#clip840)" d="M2247.73 904.384 L2247.73 911.745 L2256.5 911.745 L2256.5 915.055 L2247.73 915.055 L2247.73 929.129 Q2247.73 932.301 2248.59 933.203 Q2249.47 934.106 2252.13 934.106 L2256.5 934.106 L2256.5 937.671 L2252.13 937.671 Q2247.2 937.671 2245.32 935.842 Q2243.45 933.99 2243.45 929.129 L2243.45 915.055 L2240.32 915.055 L2240.32 911.745 L2243.45 911.745 L2243.45 904.384 L2247.73 904.384 Z" fill="#000000" fill-rule="nonzero" fill-opacity="1" /></svg>
