<?xml version="1.0" encoding="utf-8"?>
<svg xmlns="http://www.w3.org/2000/svg" xmlns:xlink="http://www.w3.org/1999/xlink" width="600" height="400" viewBox="0 0 2400 1600">
<defs>
  <clipPath id="clip960">
    <rect x="0" y="0" width="2400" height="1600"/>
  </clipPath>
</defs>
<path clip-path="url(#clip960)" d="M0 1600 L2400 1600 L2400 0 L0 0  Z" fill="#ffffff" fill-rule="evenodd" fill-opacity="1"/>
<defs>
  <clipPath id="clip961">
    <rect x="174" y="47" width="2180" height="1377"/>
  </clipPath>
</defs>
<path clip-path="url(#clip960)" d="M242.135 1423.18 L2352.76 1423.18 L2352.76 47.2441 L242.135 47.2441  Z" fill="#ffffff" fill-rule="evenodd" fill-opacity="1"/>
<defs>
  <clipPath id="clip962">
    <rect x="242" y="47" width="2112" height="1377"/>
  </clipPath>
</defs>
<polyline clip-path="url(#clip962)" style="stroke:#000000; stroke-linecap:round; stroke-linejoin:round; stroke-width:2; stroke-opacity:0.1; fill:none" points="301.869,1423.18 301.869,47.2441 "/>
<polyline clip-path="url(#clip962)" style="stroke:#000000; stroke-linecap:round; stroke-linejoin:round; stroke-width:2; stroke-opacity:0.1; fill:none" points="799.657,1423.18 799.657,47.2441 "/>
<polyline clip-path="url(#clip962)" style="stroke:#000000; stroke-linecap:round; stroke-linejoin:round; stroke-width:2; stroke-opacity:0.1; fill:none" points="1297.45,1423.18 1297.45,47.2441 "/>
<polyline clip-path="url(#clip962)" style="stroke:#000000; stroke-linecap:round; stroke-linejoin:round; stroke-width:2; stroke-opacity:0.1; fill:none" points="1795.23,1423.18 1795.23,47.2441 "/>
<polyline clip-path="url(#clip962)" style="stroke:#000000; stroke-linecap:round; stroke-linejoin:round; stroke-width:2; stroke-opacity:0.1; fill:none" points="2293.02,1423.18 2293.02,47.2441 "/>
<polyline clip-path="url(#clip962)" style="stroke:#000000; stroke-linecap:round; stroke-linejoin:round; stroke-width:2; stroke-opacity:0.1; fill:none" points="242.135,1335.15 2352.76,1335.15 "/>
<polyline clip-path="url(#clip962)" style="stroke:#000000; stroke-linecap:round; stroke-linejoin:round; stroke-width:2; stroke-opacity:0.1; fill:none" points="242.135,1119.95 2352.76,1119.95 "/>
<polyline clip-path="url(#clip962)" style="stroke:#000000; stroke-linecap:round; stroke-linejoin:round; stroke-width:2; stroke-opacity:0.1; fill:none" points="242.135,904.751 2352.76,904.751 "/>
<polyline clip-path="url(#clip962)" style="stroke:#000000; stroke-linecap:round; stroke-linejoin:round; stroke-width:2; stroke-opacity:0.1; fill:none" points="242.135,689.552 2352.76,689.552 "/>
<polyline clip-path="url(#clip962)" style="stroke:#000000; stroke-linecap:round; stroke-linejoin:round; stroke-width:2; stroke-opacity:0.1; fill:none" points="242.135,474.353 2352.76,474.353 "/>
<polyline clip-path="url(#clip962)" style="stroke:#000000; stroke-linecap:round; stroke-linejoin:round; stroke-width:2; stroke-opacity:0.1; fill:none" points="242.135,259.153 2352.76,259.153 "/>
<polyline clip-path="url(#clip960)" style="stroke:#000000; stroke-linecap:round; stroke-linejoin:round; stroke-width:4; stroke-opacity:1; fill:none" points="242.135,1423.18 2352.76,1423.18 "/>
<polyline clip-path="url(#clip960)" style="stroke:#000000; stroke-linecap:round; stroke-linejoin:round; stroke-width:4; stroke-opacity:1; fill:none" points="301.869,1423.18 301.869,1404.28 "/>
<polyline clip-path="url(#clip960)" style="stroke:#000000; stroke-linecap:round; stroke-linejoin:round; stroke-width:4; stroke-opacity:1; fill:none" points="799.657,1423.18 799.657,1404.28 "/>
<polyline clip-path="url(#clip960)" style="stroke:#000000; stroke-linecap:round; stroke-linejoin:round; stroke-width:4; stroke-opacity:1; fill:none" points="1297.45,1423.18 1297.45,1404.28 "/>
<polyline clip-path="url(#clip960)" style="stroke:#000000; stroke-linecap:round; stroke-linejoin:round; stroke-width:4; stroke-opacity:1; fill:none" points="1795.23,1423.18 1795.23,1404.28 "/>
<polyline clip-path="url(#clip960)" style="stroke:#000000; stroke-linecap:round; stroke-linejoin:round; stroke-width:4; stroke-opacity:1; fill:none" points="2293.02,1423.18 2293.02,1404.28 "/>
<path clip-path="url(#clip960)" d="M279.254 1454.1 Q275.643 1454.1 273.814 1457.66 Q272.008 1461.2 272.008 1468.33 Q272.008 1475.44 273.814 1479.01 Q275.643 1482.55 279.254 1482.55 Q282.888 1482.55 284.693 1479.01 Q286.522 1475.44 286.522 1468.33 Q286.522 1461.2 284.693 1457.66 Q282.888 1454.1 279.254 1454.1 M279.254 1450.39 Q285.064 1450.39 288.119 1455 Q291.198 1459.58 291.198 1468.33 Q291.198 1477.06 288.119 1481.67 Q285.064 1486.25 279.254 1486.25 Q273.443 1486.25 270.365 1481.67 Q267.309 1477.06 267.309 1468.33 Q267.309 1459.58 270.365 1455 Q273.443 1450.39 279.254 1450.39 Z" fill="#000000" fill-rule="nonzero" fill-opacity="1" /><path clip-path="url(#clip960)" d="M299.416 1479.7 L304.3 1479.7 L304.3 1485.58 L299.416 1485.58 L299.416 1479.7 Z" fill="#000000" fill-rule="nonzero" fill-opacity="1" /><path clip-path="url(#clip960)" d="M324.485 1454.1 Q320.874 1454.1 319.045 1457.66 Q317.24 1461.2 317.24 1468.33 Q317.24 1475.44 319.045 1479.01 Q320.874 1482.55 324.485 1482.55 Q328.119 1482.55 329.925 1479.01 Q331.753 1475.44 331.753 1468.33 Q331.753 1461.2 329.925 1457.66 Q328.119 1454.1 324.485 1454.1 M324.485 1450.39 Q330.295 1450.39 333.351 1455 Q336.429 1459.58 336.429 1468.33 Q336.429 1477.06 333.351 1481.67 Q330.295 1486.25 324.485 1486.25 Q318.675 1486.25 315.596 1481.67 Q312.54 1477.06 312.54 1468.33 Q312.54 1459.58 315.596 1455 Q318.675 1450.39 324.485 1450.39 Z" fill="#000000" fill-rule="nonzero" fill-opacity="1" /><path clip-path="url(#clip960)" d="M777.539 1454.1 Q773.928 1454.1 772.1 1457.66 Q770.294 1461.2 770.294 1468.33 Q770.294 1475.44 772.1 1479.01 Q773.928 1482.55 777.539 1482.55 Q781.174 1482.55 782.979 1479.01 Q784.808 1475.44 784.808 1468.33 Q784.808 1461.2 782.979 1457.66 Q781.174 1454.1 777.539 1454.1 M777.539 1450.39 Q783.349 1450.39 786.405 1455 Q789.484 1459.58 789.484 1468.33 Q789.484 1477.06 786.405 1481.67 Q783.349 1486.25 777.539 1486.25 Q771.729 1486.25 768.65 1481.67 Q765.595 1477.06 765.595 1468.33 Q765.595 1459.58 768.65 1455 Q771.729 1450.39 777.539 1450.39 Z" fill="#000000" fill-rule="nonzero" fill-opacity="1" /><path clip-path="url(#clip960)" d="M797.701 1479.7 L802.585 1479.7 L802.585 1485.58 L797.701 1485.58 L797.701 1479.7 Z" fill="#000000" fill-rule="nonzero" fill-opacity="1" /><path clip-path="url(#clip960)" d="M812.817 1451.02 L831.173 1451.02 L831.173 1454.96 L817.099 1454.96 L817.099 1463.43 Q818.118 1463.08 819.136 1462.92 Q820.155 1462.73 821.173 1462.73 Q826.96 1462.73 830.34 1465.9 Q833.72 1469.08 833.72 1474.49 Q833.72 1480.07 830.247 1483.17 Q826.775 1486.25 820.456 1486.25 Q818.28 1486.25 816.011 1485.88 Q813.766 1485.51 811.359 1484.77 L811.359 1480.07 Q813.442 1481.2 815.664 1481.76 Q817.886 1482.32 820.363 1482.32 Q824.368 1482.32 826.706 1480.21 Q829.044 1478.1 829.044 1474.49 Q829.044 1470.88 826.706 1468.77 Q824.368 1466.67 820.363 1466.67 Q818.488 1466.67 816.613 1467.08 Q814.761 1467.5 812.817 1468.38 L812.817 1451.02 Z" fill="#000000" fill-rule="nonzero" fill-opacity="1" /><path clip-path="url(#clip960)" d="M1264.6 1481.64 L1272.24 1481.64 L1272.24 1455.28 L1263.93 1456.95 L1263.93 1452.69 L1272.19 1451.02 L1276.87 1451.02 L1276.87 1481.64 L1284.51 1481.64 L1284.51 1485.58 L1264.6 1485.58 L1264.6 1481.64 Z" fill="#000000" fill-rule="nonzero" fill-opacity="1" /><path clip-path="url(#clip960)" d="M1293.95 1479.7 L1298.83 1479.7 L1298.83 1485.58 L1293.95 1485.58 L1293.95 1479.7 Z" fill="#000000" fill-rule="nonzero" fill-opacity="1" /><path clip-path="url(#clip960)" d="M1319.02 1454.1 Q1315.41 1454.1 1313.58 1457.66 Q1311.77 1461.2 1311.77 1468.33 Q1311.77 1475.44 1313.58 1479.01 Q1315.41 1482.55 1319.02 1482.55 Q1322.65 1482.55 1324.46 1479.01 Q1326.29 1475.44 1326.29 1468.33 Q1326.29 1461.2 1324.46 1457.66 Q1322.65 1454.1 1319.02 1454.1 M1319.02 1450.39 Q1324.83 1450.39 1327.88 1455 Q1330.96 1459.58 1330.96 1468.33 Q1330.96 1477.06 1327.88 1481.67 Q1324.83 1486.25 1319.02 1486.25 Q1313.21 1486.25 1310.13 1481.67 Q1307.07 1477.06 1307.07 1468.33 Q1307.07 1459.58 1310.13 1455 Q1313.21 1450.39 1319.02 1450.39 Z" fill="#000000" fill-rule="nonzero" fill-opacity="1" /><path clip-path="url(#clip960)" d="M1762.88 1481.64 L1770.52 1481.64 L1770.52 1455.28 L1762.21 1456.95 L1762.21 1452.69 L1770.48 1451.02 L1775.15 1451.02 L1775.15 1481.64 L1782.79 1481.64 L1782.79 1485.58 L1762.88 1485.58 L1762.88 1481.64 Z" fill="#000000" fill-rule="nonzero" fill-opacity="1" /><path clip-path="url(#clip960)" d="M1792.24 1479.7 L1797.12 1479.7 L1797.12 1485.58 L1792.24 1485.58 L1792.24 1479.7 Z" fill="#000000" fill-rule="nonzero" fill-opacity="1" /><path clip-path="url(#clip960)" d="M1807.35 1451.02 L1825.71 1451.02 L1825.71 1454.96 L1811.63 1454.96 L1811.63 1463.43 Q1812.65 1463.08 1813.67 1462.92 Q1814.69 1462.73 1815.71 1462.73 Q1821.49 1462.73 1824.87 1465.9 Q1828.25 1469.08 1828.25 1474.49 Q1828.25 1480.07 1824.78 1483.17 Q1821.31 1486.25 1814.99 1486.25 Q1812.81 1486.25 1810.55 1485.88 Q1808.3 1485.51 1805.89 1484.77 L1805.89 1480.07 Q1807.98 1481.2 1810.2 1481.76 Q1812.42 1482.32 1814.9 1482.32 Q1818.9 1482.32 1821.24 1480.21 Q1823.58 1478.1 1823.58 1474.49 Q1823.58 1470.88 1821.24 1468.77 Q1818.9 1466.67 1814.9 1466.67 Q1813.02 1466.67 1811.15 1467.08 Q1809.3 1467.5 1807.35 1468.38 L1807.35 1451.02 Z" fill="#000000" fill-rule="nonzero" fill-opacity="1" /><path clip-path="url(#clip960)" d="M2264.26 1481.64 L2280.58 1481.64 L2280.58 1485.58 L2258.63 1485.58 L2258.63 1481.64 Q2261.3 1478.89 2265.88 1474.26 Q2270.49 1469.61 2271.67 1468.27 Q2273.91 1465.74 2274.79 1464.01 Q2275.7 1462.25 2275.7 1460.56 Q2275.7 1457.8 2273.75 1456.07 Q2271.83 1454.33 2268.73 1454.33 Q2266.53 1454.33 2264.07 1455.09 Q2261.64 1455.86 2258.87 1457.41 L2258.87 1452.69 Q2261.69 1451.55 2264.14 1450.97 Q2266.6 1450.39 2268.63 1450.39 Q2274.01 1450.39 2277.2 1453.08 Q2280.39 1455.77 2280.39 1460.26 Q2280.39 1462.39 2279.58 1464.31 Q2278.8 1466.2 2276.69 1468.8 Q2276.11 1469.47 2273.01 1472.69 Q2269.91 1475.88 2264.26 1481.64 Z" fill="#000000" fill-rule="nonzero" fill-opacity="1" /><path clip-path="url(#clip960)" d="M2290.39 1479.7 L2295.28 1479.7 L2295.28 1485.58 L2290.39 1485.58 L2290.39 1479.7 Z" fill="#000000" fill-rule="nonzero" fill-opacity="1" /><path clip-path="url(#clip960)" d="M2315.46 1454.1 Q2311.85 1454.1 2310.02 1457.66 Q2308.22 1461.2 2308.22 1468.33 Q2308.22 1475.44 2310.02 1479.01 Q2311.85 1482.55 2315.46 1482.55 Q2319.1 1482.55 2320.9 1479.01 Q2322.73 1475.44 2322.73 1468.33 Q2322.73 1461.2 2320.9 1457.66 Q2319.1 1454.1 2315.46 1454.1 M2315.46 1450.39 Q2321.27 1450.39 2324.33 1455 Q2327.41 1459.58 2327.41 1468.33 Q2327.41 1477.06 2324.33 1481.67 Q2321.27 1486.25 2315.46 1486.25 Q2309.65 1486.25 2306.57 1481.67 Q2303.52 1477.06 2303.52 1468.33 Q2303.52 1459.58 2306.57 1455 Q2309.65 1450.39 2315.46 1450.39 Z" fill="#000000" fill-rule="nonzero" fill-opacity="1" /><path clip-path="url(#clip960)" d="M1005.18 1522.27 L1005.18 1532.4 L1017.24 1532.4 L1017.24 1536.95 L1005.18 1536.95 L1005.18 1556.3 Q1005.18 1560.66 1006.36 1561.9 Q1007.57 1563.14 1011.23 1563.14 L1017.24 1563.14 L1017.24 1568.04 L1011.23 1568.04 Q1004.45 1568.04 1001.87 1565.53 Q999.292 1562.98 999.292 1556.3 L999.292 1536.95 L994.995 1536.95 L994.995 1532.4 L999.292 1532.4 L999.292 1522.27 L1005.18 1522.27 Z" fill="#000000" fill-rule="nonzero" fill-opacity="1" /><path clip-path="url(#clip960)" d="M1045.6 1537.87 Q1044.62 1537.3 1043.44 1537.04 Q1042.29 1536.76 1040.89 1536.76 Q1035.93 1536.76 1033.25 1540 Q1030.61 1543.22 1030.61 1549.27 L1030.61 1568.04 L1024.72 1568.04 L1024.72 1532.4 L1030.61 1532.4 L1030.61 1537.93 Q1032.46 1534.69 1035.42 1533.13 Q1038.38 1531.54 1042.61 1531.54 Q1043.21 1531.54 1043.95 1531.63 Q1044.68 1531.7 1045.57 1531.85 L1045.6 1537.87 Z" fill="#000000" fill-rule="nonzero" fill-opacity="1" /><path clip-path="url(#clip960)" d="M1067.95 1550.12 Q1060.85 1550.12 1058.11 1551.75 Q1055.37 1553.37 1055.37 1557.29 Q1055.37 1560.4 1057.41 1562.25 Q1059.48 1564.07 1063.01 1564.07 Q1067.88 1564.07 1070.81 1560.63 Q1073.77 1557.16 1073.77 1551.43 L1073.77 1550.12 L1067.95 1550.12 M1079.63 1547.71 L1079.63 1568.04 L1073.77 1568.04 L1073.77 1562.63 Q1071.77 1565.88 1068.77 1567.44 Q1065.78 1568.97 1061.45 1568.97 Q1055.98 1568.97 1052.73 1565.91 Q1049.52 1562.82 1049.52 1557.67 Q1049.52 1551.65 1053.53 1548.6 Q1057.57 1545.54 1065.56 1545.54 L1073.77 1545.54 L1073.77 1544.97 Q1073.77 1540.93 1071.1 1538.73 Q1068.45 1536.5 1063.65 1536.5 Q1060.59 1536.5 1057.7 1537.23 Q1054.8 1537.97 1052.13 1539.43 L1052.13 1534.02 Q1055.34 1532.78 1058.37 1532.17 Q1061.39 1531.54 1064.25 1531.54 Q1071.99 1531.54 1075.81 1535.55 Q1079.63 1539.56 1079.63 1547.71 Z" fill="#000000" fill-rule="nonzero" fill-opacity="1" /><path clip-path="url(#clip960)" d="M1091.69 1532.4 L1097.55 1532.4 L1097.55 1568.68 Q1097.55 1575.49 1094.94 1578.55 Q1092.36 1581.6 1086.6 1581.6 L1084.37 1581.6 L1084.37 1576.64 L1085.93 1576.64 Q1089.27 1576.64 1090.48 1575.08 Q1091.69 1573.55 1091.69 1568.68 L1091.69 1532.4 M1091.69 1518.52 L1097.55 1518.52 L1097.55 1525.93 L1091.69 1525.93 L1091.69 1518.52 Z" fill="#000000" fill-rule="nonzero" fill-opacity="1" /><path clip-path="url(#clip960)" d="M1140.29 1548.76 L1140.29 1551.62 L1113.36 1551.62 Q1113.75 1557.67 1116.99 1560.85 Q1120.27 1564 1126.1 1564 Q1129.47 1564 1132.62 1563.17 Q1135.8 1562.35 1138.92 1560.69 L1138.92 1566.23 Q1135.77 1567.57 1132.46 1568.27 Q1129.15 1568.97 1125.75 1568.97 Q1117.22 1568.97 1112.22 1564 Q1107.25 1559.04 1107.25 1550.57 Q1107.25 1541.82 1111.96 1536.69 Q1116.71 1531.54 1124.73 1531.54 Q1131.92 1531.54 1136.09 1536.18 Q1140.29 1540.8 1140.29 1548.76 M1134.44 1547.04 Q1134.37 1542.23 1131.73 1539.37 Q1129.12 1536.5 1124.79 1536.5 Q1119.89 1536.5 1116.93 1539.27 Q1114 1542.04 1113.56 1547.07 L1134.44 1547.04 Z" fill="#000000" fill-rule="nonzero" fill-opacity="1" /><path clip-path="url(#clip960)" d="M1175.56 1533.76 L1175.56 1539.24 Q1173.08 1537.87 1170.56 1537.2 Q1168.08 1536.5 1165.53 1536.5 Q1159.83 1536.5 1156.68 1540.13 Q1153.53 1543.73 1153.53 1550.25 Q1153.53 1556.78 1156.68 1560.4 Q1159.83 1564 1165.53 1564 Q1168.08 1564 1170.56 1563.33 Q1173.08 1562.63 1175.56 1561.26 L1175.56 1566.68 Q1173.11 1567.82 1170.47 1568.39 Q1167.86 1568.97 1164.9 1568.97 Q1156.84 1568.97 1152.1 1563.91 Q1147.36 1558.85 1147.36 1550.25 Q1147.36 1541.53 1152.13 1536.53 Q1156.94 1531.54 1165.28 1531.54 Q1167.98 1531.54 1170.56 1532.11 Q1173.14 1532.65 1175.56 1533.76 Z" fill="#000000" fill-rule="nonzero" fill-opacity="1" /><path clip-path="url(#clip960)" d="M1191.54 1522.27 L1191.54 1532.4 L1203.6 1532.4 L1203.6 1536.95 L1191.54 1536.95 L1191.54 1556.3 Q1191.54 1560.66 1192.71 1561.9 Q1193.92 1563.14 1197.58 1563.14 L1203.6 1563.14 L1203.6 1568.04 L1197.58 1568.04 Q1190.8 1568.04 1188.23 1565.53 Q1185.65 1562.98 1185.65 1556.3 L1185.65 1536.95 L1181.35 1536.95 L1181.35 1532.4 L1185.65 1532.4 L1185.65 1522.27 L1191.54 1522.27 Z" fill="#000000" fill-rule="nonzero" fill-opacity="1" /><path clip-path="url(#clip960)" d="M1225.11 1536.5 Q1220.4 1536.5 1217.67 1540.19 Q1214.93 1543.85 1214.93 1550.25 Q1214.93 1556.65 1217.64 1560.34 Q1220.37 1564 1225.11 1564 Q1229.79 1564 1232.53 1560.31 Q1235.27 1556.62 1235.27 1550.25 Q1235.27 1543.92 1232.53 1540.23 Q1229.79 1536.5 1225.11 1536.5 M1225.11 1531.54 Q1232.75 1531.54 1237.11 1536.5 Q1241.47 1541.47 1241.47 1550.25 Q1241.47 1559 1237.11 1564 Q1232.75 1568.97 1225.11 1568.97 Q1217.44 1568.97 1213.08 1564 Q1208.76 1559 1208.76 1550.25 Q1208.76 1541.47 1213.08 1536.5 Q1217.44 1531.54 1225.11 1531.54 Z" fill="#000000" fill-rule="nonzero" fill-opacity="1" /><path clip-path="url(#clip960)" d="M1271.84 1537.87 Q1270.85 1537.3 1269.67 1537.04 Q1268.53 1536.76 1267.13 1536.76 Q1262.16 1536.76 1259.49 1540 Q1256.85 1543.22 1256.85 1549.27 L1256.85 1568.04 L1250.96 1568.04 L1250.96 1532.4 L1256.85 1532.4 L1256.85 1537.93 Q1258.69 1534.69 1261.65 1533.13 Q1264.61 1531.54 1268.85 1531.54 Q1269.45 1531.54 1270.18 1531.63 Q1270.92 1531.7 1271.81 1531.85 L1271.84 1537.87 Z" fill="#000000" fill-rule="nonzero" fill-opacity="1" /><path clip-path="url(#clip960)" d="M1292.81 1571.35 Q1290.33 1577.72 1287.98 1579.66 Q1285.62 1581.6 1281.67 1581.6 L1277 1581.6 L1277 1576.7 L1280.43 1576.7 Q1282.85 1576.7 1284.19 1575.56 Q1285.53 1574.41 1287.15 1570.14 L1288.2 1567.47 L1273.78 1532.4 L1279.99 1532.4 L1291.13 1560.28 L1302.27 1532.4 L1308.47 1532.4 L1292.81 1571.35 Z" fill="#000000" fill-rule="nonzero" fill-opacity="1" /><path clip-path="url(#clip960)" d="M1360.74 1537.81 L1360.74 1518.52 L1366.59 1518.52 L1366.59 1568.04 L1360.74 1568.04 L1360.74 1562.7 Q1358.89 1565.88 1356.06 1567.44 Q1353.26 1568.97 1349.31 1568.97 Q1342.85 1568.97 1338.77 1563.81 Q1334.73 1558.65 1334.73 1550.25 Q1334.73 1541.85 1338.77 1536.69 Q1342.85 1531.54 1349.31 1531.54 Q1353.26 1531.54 1356.06 1533.1 Q1358.89 1534.62 1360.74 1537.81 M1340.78 1550.25 Q1340.78 1556.71 1343.42 1560.4 Q1346.1 1564.07 1350.74 1564.07 Q1355.39 1564.07 1358.06 1560.4 Q1360.74 1556.71 1360.74 1550.25 Q1360.74 1543.79 1358.06 1540.13 Q1355.39 1536.44 1350.74 1536.44 Q1346.1 1536.44 1343.42 1540.13 Q1340.78 1543.79 1340.78 1550.25 Z" fill="#000000" fill-rule="nonzero" fill-opacity="1" /><path clip-path="url(#clip960)" d="M1378.05 1553.98 L1378.05 1532.4 L1383.91 1532.4 L1383.91 1553.75 Q1383.91 1558.81 1385.88 1561.36 Q1387.85 1563.87 1391.8 1563.87 Q1396.54 1563.87 1399.28 1560.85 Q1402.05 1557.83 1402.05 1552.61 L1402.05 1532.4 L1407.91 1532.4 L1407.91 1568.04 L1402.05 1568.04 L1402.05 1562.57 Q1399.92 1565.82 1397.08 1567.41 Q1394.28 1568.97 1390.56 1568.97 Q1384.42 1568.97 1381.23 1565.15 Q1378.05 1561.33 1378.05 1553.98 M1392.79 1531.54 L1392.79 1531.54 Z" fill="#000000" fill-rule="nonzero" fill-opacity="1" /><path clip-path="url(#clip960)" d="M1440.63 1537.87 Q1439.64 1537.3 1438.46 1537.04 Q1437.32 1536.76 1435.92 1536.76 Q1430.95 1536.76 1428.28 1540 Q1425.63 1543.22 1425.63 1549.27 L1425.63 1568.04 L1419.75 1568.04 L1419.75 1532.4 L1425.63 1532.4 L1425.63 1537.93 Q1427.48 1534.69 1430.44 1533.13 Q1433.4 1531.54 1437.63 1531.54 Q1438.24 1531.54 1438.97 1531.63 Q1439.7 1531.7 1440.59 1531.85 L1440.63 1537.87 Z" fill="#000000" fill-rule="nonzero" fill-opacity="1" /><path clip-path="url(#clip960)" d="M1462.97 1550.12 Q1455.87 1550.12 1453.13 1551.75 Q1450.4 1553.37 1450.4 1557.29 Q1450.4 1560.4 1452.43 1562.25 Q1454.5 1564.07 1458.04 1564.07 Q1462.91 1564.07 1465.83 1560.63 Q1468.79 1557.16 1468.79 1551.43 L1468.79 1550.12 L1462.97 1550.12 M1474.65 1547.71 L1474.65 1568.04 L1468.79 1568.04 L1468.79 1562.63 Q1466.79 1565.88 1463.8 1567.44 Q1460.81 1568.97 1456.48 1568.97 Q1451 1568.97 1447.76 1565.91 Q1444.54 1562.82 1444.54 1557.67 Q1444.54 1551.65 1448.55 1548.6 Q1452.59 1545.54 1460.58 1545.54 L1468.79 1545.54 L1468.79 1544.97 Q1468.79 1540.93 1466.12 1538.73 Q1463.48 1536.5 1458.67 1536.5 Q1455.62 1536.5 1452.72 1537.23 Q1449.82 1537.97 1447.15 1539.43 L1447.15 1534.02 Q1450.37 1532.78 1453.39 1532.17 Q1456.41 1531.54 1459.28 1531.54 Q1467.01 1531.54 1470.83 1535.55 Q1474.65 1539.56 1474.65 1547.71 Z" fill="#000000" fill-rule="nonzero" fill-opacity="1" /><path clip-path="url(#clip960)" d="M1492.51 1522.27 L1492.51 1532.4 L1504.57 1532.4 L1504.57 1536.95 L1492.51 1536.95 L1492.51 1556.3 Q1492.51 1560.66 1493.68 1561.9 Q1494.89 1563.14 1498.55 1563.14 L1504.57 1563.14 L1504.57 1568.04 L1498.55 1568.04 Q1491.77 1568.04 1489.2 1565.53 Q1486.62 1562.98 1486.62 1556.3 L1486.62 1536.95 L1482.32 1536.95 L1482.32 1532.4 L1486.62 1532.4 L1486.62 1522.27 L1492.51 1522.27 Z" fill="#000000" fill-rule="nonzero" fill-opacity="1" /><path clip-path="url(#clip960)" d="M1512.27 1532.4 L1518.13 1532.4 L1518.13 1568.04 L1512.27 1568.04 L1512.27 1532.4 M1512.27 1518.52 L1518.13 1518.52 L1518.13 1525.93 L1512.27 1525.93 L1512.27 1518.52 Z" fill="#000000" fill-rule="nonzero" fill-opacity="1" /><path clip-path="url(#clip960)" d="M1544.2 1536.5 Q1539.49 1536.5 1536.75 1540.19 Q1534.01 1543.85 1534.01 1550.25 Q1534.01 1556.65 1536.72 1560.34 Q1539.45 1564 1544.2 1564 Q1548.87 1564 1551.61 1560.31 Q1554.35 1556.62 1554.35 1550.25 Q1554.35 1543.92 1551.61 1540.23 Q1548.87 1536.5 1544.2 1536.5 M1544.2 1531.54 Q1551.83 1531.54 1556.2 1536.5 Q1560.56 1541.47 1560.56 1550.25 Q1560.56 1559 1556.2 1564 Q1551.83 1568.97 1544.2 1568.97 Q1536.53 1568.97 1532.16 1564 Q1527.84 1559 1527.84 1550.25 Q1527.84 1541.47 1532.16 1536.5 Q1536.53 1531.54 1544.2 1531.54 Z" fill="#000000" fill-rule="nonzero" fill-opacity="1" /><path clip-path="url(#clip960)" d="M1599.9 1546.53 L1599.9 1568.04 L1594.04 1568.04 L1594.04 1546.72 Q1594.04 1541.66 1592.07 1539.14 Q1590.09 1536.63 1586.15 1536.63 Q1581.4 1536.63 1578.67 1539.65 Q1575.93 1542.68 1575.93 1547.9 L1575.93 1568.04 L1570.04 1568.04 L1570.04 1532.4 L1575.93 1532.4 L1575.93 1537.93 Q1578.03 1534.72 1580.86 1533.13 Q1583.73 1531.54 1587.45 1531.54 Q1593.59 1531.54 1596.74 1535.36 Q1599.9 1539.14 1599.9 1546.53 Z" fill="#000000" fill-rule="nonzero" fill-opacity="1" /><polyline clip-path="url(#clip960)" style="stroke:#000000; stroke-linecap:round; stroke-linejoin:round; stroke-width:4; stroke-opacity:1; fill:none" points="242.135,1423.18 242.135,47.2441 "/>
<polyline clip-path="url(#clip960)" style="stroke:#000000; stroke-linecap:round; stroke-linejoin:round; stroke-width:4; stroke-opacity:1; fill:none" points="242.135,1335.15 261.032,1335.15 "/>
<polyline clip-path="url(#clip960)" style="stroke:#000000; stroke-linecap:round; stroke-linejoin:round; stroke-width:4; stroke-opacity:1; fill:none" points="242.135,1119.95 261.032,1119.95 "/>
<polyline clip-path="url(#clip960)" style="stroke:#000000; stroke-linecap:round; stroke-linejoin:round; stroke-width:4; stroke-opacity:1; fill:none" points="242.135,904.751 261.032,904.751 "/>
<polyline clip-path="url(#clip960)" style="stroke:#000000; stroke-linecap:round; stroke-linejoin:round; stroke-width:4; stroke-opacity:1; fill:none" points="242.135,689.552 261.032,689.552 "/>
<polyline clip-path="url(#clip960)" style="stroke:#000000; stroke-linecap:round; stroke-linejoin:round; stroke-width:4; stroke-opacity:1; fill:none" points="242.135,474.353 261.032,474.353 "/>
<polyline clip-path="url(#clip960)" style="stroke:#000000; stroke-linecap:round; stroke-linejoin:round; stroke-width:4; stroke-opacity:1; fill:none" points="242.135,259.153 261.032,259.153 "/>
<path clip-path="url(#clip960)" d="M115.256 1335.6 L144.931 1335.6 L144.931 1339.54 L115.256 1339.54 L115.256 1335.6 Z" fill="#000000" fill-rule="nonzero" fill-opacity="1" /><path clip-path="url(#clip960)" d="M159.052 1348.49 L175.371 1348.49 L175.371 1352.43 L153.427 1352.43 L153.427 1348.49 Q156.089 1345.74 160.672 1341.11 Q165.278 1336.46 166.459 1335.12 Q168.704 1332.59 169.584 1330.86 Q170.487 1329.1 170.487 1327.41 Q170.487 1324.65 168.542 1322.92 Q166.621 1321.18 163.519 1321.18 Q161.32 1321.18 158.866 1321.94 Q156.436 1322.71 153.658 1324.26 L153.658 1319.54 Q156.482 1318.4 158.936 1317.82 Q161.39 1317.24 163.427 1317.24 Q168.797 1317.24 171.991 1319.93 Q175.186 1322.62 175.186 1327.11 Q175.186 1329.24 174.376 1331.16 Q173.589 1333.06 171.482 1335.65 Q170.903 1336.32 167.802 1339.54 Q164.7 1342.73 159.052 1348.49 Z" fill="#000000" fill-rule="nonzero" fill-opacity="1" /><path clip-path="url(#clip960)" d="M185.232 1317.87 L203.588 1317.87 L203.588 1321.81 L189.514 1321.81 L189.514 1330.28 Q190.533 1329.93 191.551 1329.77 Q192.57 1329.58 193.588 1329.58 Q199.375 1329.58 202.755 1332.75 Q206.135 1335.93 206.135 1341.34 Q206.135 1346.92 202.662 1350.02 Q199.19 1353.1 192.871 1353.1 Q190.695 1353.1 188.426 1352.73 Q186.181 1352.36 183.774 1351.62 L183.774 1346.92 Q185.857 1348.06 188.079 1348.61 Q190.301 1349.17 192.778 1349.17 Q196.783 1349.17 199.121 1347.06 Q201.459 1344.95 201.459 1341.34 Q201.459 1337.73 199.121 1335.62 Q196.783 1333.52 192.778 1333.52 Q190.903 1333.52 189.028 1333.93 Q187.176 1334.35 185.232 1335.23 L185.232 1317.87 Z" fill="#000000" fill-rule="nonzero" fill-opacity="1" /><path clip-path="url(#clip960)" d="M114.26 1120.4 L143.936 1120.4 L143.936 1124.34 L114.26 1124.34 L114.26 1120.4 Z" fill="#000000" fill-rule="nonzero" fill-opacity="1" /><path clip-path="url(#clip960)" d="M158.056 1133.3 L174.376 1133.3 L174.376 1137.23 L152.431 1137.23 L152.431 1133.3 Q155.093 1130.54 159.677 1125.91 Q164.283 1121.26 165.464 1119.92 Q167.709 1117.39 168.589 1115.66 Q169.491 1113.9 169.491 1112.21 Q169.491 1109.45 167.547 1107.72 Q165.626 1105.98 162.524 1105.98 Q160.325 1105.98 157.871 1106.74 Q155.44 1107.51 152.663 1109.06 L152.663 1104.34 Q155.487 1103.2 157.94 1102.62 Q160.394 1102.05 162.431 1102.05 Q167.802 1102.05 170.996 1104.73 Q174.19 1107.42 174.19 1111.91 Q174.19 1114.04 173.38 1115.96 Q172.593 1117.86 170.487 1120.45 Q169.908 1121.12 166.806 1124.34 Q163.704 1127.53 158.056 1133.3 Z" fill="#000000" fill-rule="nonzero" fill-opacity="1" /><path clip-path="url(#clip960)" d="M194.19 1105.75 Q190.579 1105.75 188.75 1109.31 Q186.945 1112.86 186.945 1119.99 Q186.945 1127.09 188.75 1130.66 Q190.579 1134.2 194.19 1134.2 Q197.825 1134.2 199.63 1130.66 Q201.459 1127.09 201.459 1119.99 Q201.459 1112.86 199.63 1109.31 Q197.825 1105.75 194.19 1105.75 M194.19 1102.05 Q200 1102.05 203.056 1106.65 Q206.135 1111.24 206.135 1119.99 Q206.135 1128.71 203.056 1133.32 Q200 1137.9 194.19 1137.9 Q188.38 1137.9 185.301 1133.32 Q182.246 1128.71 182.246 1119.99 Q182.246 1111.24 185.301 1106.65 Q188.38 1102.05 194.19 1102.05 Z" fill="#000000" fill-rule="nonzero" fill-opacity="1" /><path clip-path="url(#clip960)" d="M115.256 905.203 L144.931 905.203 L144.931 909.138 L115.256 909.138 L115.256 905.203 Z" fill="#000000" fill-rule="nonzero" fill-opacity="1" /><path clip-path="url(#clip960)" d="M155.834 918.096 L163.473 918.096 L163.473 891.731 L155.163 893.397 L155.163 889.138 L163.427 887.471 L168.102 887.471 L168.102 918.096 L175.741 918.096 L175.741 922.031 L155.834 922.031 L155.834 918.096 Z" fill="#000000" fill-rule="nonzero" fill-opacity="1" /><path clip-path="url(#clip960)" d="M185.232 887.471 L203.588 887.471 L203.588 891.407 L189.514 891.407 L189.514 899.879 Q190.533 899.531 191.551 899.369 Q192.57 899.184 193.588 899.184 Q199.375 899.184 202.755 902.356 Q206.135 905.527 206.135 910.943 Q206.135 916.522 202.662 919.624 Q199.19 922.703 192.871 922.703 Q190.695 922.703 188.426 922.332 Q186.181 921.962 183.774 921.221 L183.774 916.522 Q185.857 917.656 188.079 918.212 Q190.301 918.767 192.778 918.767 Q196.783 918.767 199.121 916.661 Q201.459 914.555 201.459 910.943 Q201.459 907.332 199.121 905.226 Q196.783 903.119 192.778 903.119 Q190.903 903.119 189.028 903.536 Q187.176 903.953 185.232 904.832 L185.232 887.471 Z" fill="#000000" fill-rule="nonzero" fill-opacity="1" /><path clip-path="url(#clip960)" d="M114.26 690.003 L143.936 690.003 L143.936 693.939 L114.26 693.939 L114.26 690.003 Z" fill="#000000" fill-rule="nonzero" fill-opacity="1" /><path clip-path="url(#clip960)" d="M154.839 702.897 L162.477 702.897 L162.477 676.531 L154.167 678.198 L154.167 673.939 L162.431 672.272 L167.107 672.272 L167.107 702.897 L174.746 702.897 L174.746 706.832 L154.839 706.832 L154.839 702.897 Z" fill="#000000" fill-rule="nonzero" fill-opacity="1" /><path clip-path="url(#clip960)" d="M194.19 675.351 Q190.579 675.351 188.75 678.915 Q186.945 682.457 186.945 689.587 Q186.945 696.693 188.75 700.258 Q190.579 703.8 194.19 703.8 Q197.825 703.8 199.63 700.258 Q201.459 696.693 201.459 689.587 Q201.459 682.457 199.63 678.915 Q197.825 675.351 194.19 675.351 M194.19 671.647 Q200 671.647 203.056 676.253 Q206.135 680.837 206.135 689.587 Q206.135 698.314 203.056 702.92 Q200 707.503 194.19 707.503 Q188.38 707.503 185.301 702.92 Q182.246 698.314 182.246 689.587 Q182.246 680.837 185.301 676.253 Q188.38 671.647 194.19 671.647 Z" fill="#000000" fill-rule="nonzero" fill-opacity="1" /><path clip-path="url(#clip960)" d="M145.417 474.804 L175.093 474.804 L175.093 478.739 L145.417 478.739 L145.417 474.804 Z" fill="#000000" fill-rule="nonzero" fill-opacity="1" /><path clip-path="url(#clip960)" d="M185.232 457.073 L203.588 457.073 L203.588 461.008 L189.514 461.008 L189.514 469.48 Q190.533 469.133 191.551 468.971 Q192.57 468.786 193.588 468.786 Q199.375 468.786 202.755 471.957 Q206.135 475.128 206.135 480.545 Q206.135 486.123 202.662 489.225 Q199.19 492.304 192.871 492.304 Q190.695 492.304 188.426 491.934 Q186.181 491.563 183.774 490.823 L183.774 486.123 Q185.857 487.258 188.079 487.813 Q190.301 488.369 192.778 488.369 Q196.783 488.369 199.121 486.262 Q201.459 484.156 201.459 480.545 Q201.459 476.934 199.121 474.827 Q196.783 472.721 192.778 472.721 Q190.903 472.721 189.028 473.137 Q187.176 473.554 185.232 474.434 L185.232 457.073 Z" fill="#000000" fill-rule="nonzero" fill-opacity="1" /><path clip-path="url(#clip960)" d="M194.19 244.952 Q190.579 244.952 188.75 248.517 Q186.945 252.059 186.945 259.188 Q186.945 266.295 188.75 269.859 Q190.579 273.401 194.19 273.401 Q197.825 273.401 199.63 269.859 Q201.459 266.295 201.459 259.188 Q201.459 252.059 199.63 248.517 Q197.825 244.952 194.19 244.952 M194.19 241.248 Q200 241.248 203.056 245.855 Q206.135 250.438 206.135 259.188 Q206.135 267.915 203.056 272.521 Q200 277.105 194.19 277.105 Q188.38 277.105 185.301 272.521 Q182.246 267.915 182.246 259.188 Q182.246 250.438 185.301 245.855 Q188.38 241.248 194.19 241.248 Z" fill="#000000" fill-rule="nonzero" fill-opacity="1" /><path clip-path="url(#clip960)" d="M35.1993 1120.99 Q31.2526 1118.79 29.3747 1115.74 Q27.4968 1112.68 27.4968 1108.54 Q27.4968 1102.97 31.4117 1099.95 Q35.2948 1096.93 42.4881 1096.93 L64.0042 1096.93 L64.0042 1102.82 L42.679 1102.82 Q37.5546 1102.82 35.072 1104.63 Q32.5894 1106.44 32.5894 1110.17 Q32.5894 1114.72 35.6131 1117.36 Q38.6368 1120 43.8567 1120 L64.0042 1120 L64.0042 1125.89 L42.679 1125.89 Q37.5228 1125.89 35.072 1127.71 Q32.5894 1129.52 32.5894 1133.31 Q32.5894 1137.8 35.6449 1140.44 Q38.6686 1143.08 43.8567 1143.08 L64.0042 1143.08 L64.0042 1148.97 L28.3562 1148.97 L28.3562 1143.08 L33.8944 1143.08 Q30.616 1141.07 29.0564 1138.27 Q27.4968 1135.47 27.4968 1131.62 Q27.4968 1127.74 29.4702 1125.03 Q31.4436 1122.29 35.1993 1120.99 Z" fill="#000000" fill-rule="nonzero" fill-opacity="1" /><path clip-path="url(#clip960)" d="M49.9359 1085.85 L28.3562 1085.85 L28.3562 1079.99 L49.7131 1079.99 Q54.7739 1079.99 57.3202 1078.02 Q59.8346 1076.05 59.8346 1072.1 Q59.8346 1067.36 56.8109 1064.62 Q53.7872 1061.85 48.5673 1061.85 L28.3562 1061.85 L28.3562 1056 L64.0042 1056 L64.0042 1061.85 L58.5296 1061.85 Q61.7762 1063.98 63.3676 1066.82 Q64.9272 1069.62 64.9272 1073.34 Q64.9272 1079.49 61.1078 1082.67 Q57.2883 1085.85 49.9359 1085.85 M27.4968 1071.11 L27.4968 1071.11 Z" fill="#000000" fill-rule="nonzero" fill-opacity="1" /><path clip-path="url(#clip960)" d="M18.2347 1038.14 L28.3562 1038.14 L28.3562 1026.08 L32.9077 1026.08 L32.9077 1038.14 L52.2594 1038.14 Q56.6199 1038.14 57.8613 1036.96 Q59.1026 1035.75 59.1026 1032.09 L59.1026 1026.08 L64.0042 1026.08 L64.0042 1032.09 Q64.0042 1038.87 61.4897 1041.45 Q58.9434 1044.03 52.2594 1044.03 L32.9077 1044.03 L32.9077 1048.33 L28.3562 1048.33 L28.3562 1044.03 L18.2347 1044.03 L18.2347 1038.14 Z" fill="#000000" fill-rule="nonzero" fill-opacity="1" /><path clip-path="url(#clip960)" d="M49.9359 1018.98 L28.3562 1018.98 L28.3562 1013.12 L49.7131 1013.12 Q54.7739 1013.12 57.3202 1011.15 Q59.8346 1009.18 59.8346 1005.23 Q59.8346 1000.49 56.8109 997.75 Q53.7872 994.981 48.5673 994.981 L28.3562 994.981 L28.3562 989.124 L64.0042 989.124 L64.0042 994.981 L58.5296 994.981 Q61.7762 997.113 63.3676 999.946 Q64.9272 1002.75 64.9272 1006.47 Q64.9272 1012.61 61.1078 1015.8 Q57.2883 1018.98 49.9359 1018.98 M27.4968 1004.24 L27.4968 1004.24 Z" fill="#000000" fill-rule="nonzero" fill-opacity="1" /><path clip-path="url(#clip960)" d="M46.0847 960.86 Q46.0847 967.958 47.7079 970.695 Q49.3312 973.433 53.2461 973.433 Q56.3653 973.433 58.2114 971.396 Q60.0256 969.327 60.0256 965.794 Q60.0256 960.924 56.5881 957.996 Q53.1188 955.036 47.3897 955.036 L46.0847 955.036 L46.0847 960.86 M43.6657 949.179 L64.0042 949.179 L64.0042 955.036 L58.5933 955.036 Q61.8398 957.041 63.3994 960.033 Q64.9272 963.025 64.9272 967.353 Q64.9272 972.828 61.8716 976.074 Q58.7843 979.289 53.6281 979.289 Q47.6125 979.289 44.5569 975.279 Q41.5014 971.236 41.5014 963.247 L41.5014 955.036 L40.9285 955.036 Q36.8862 955.036 34.6901 957.709 Q32.4621 960.351 32.4621 965.157 Q32.4621 968.213 33.1941 971.109 Q33.9262 974.006 35.3903 976.679 L29.9795 976.679 Q28.7381 973.464 28.1334 970.441 Q27.4968 967.417 27.4968 964.552 Q27.4968 956.818 31.5072 952.999 Q35.5176 949.179 43.6657 949.179 Z" fill="#000000" fill-rule="nonzero" fill-opacity="1" /><path clip-path="url(#clip960)" d="M14.479 937.116 L14.479 931.26 L64.0042 931.26 L64.0042 937.116 L14.479 937.116 Z" fill="#000000" fill-rule="nonzero" fill-opacity="1" /><path clip-path="url(#clip960)" d="M28.3562 898.285 L28.3562 892.429 L64.0042 892.429 L64.0042 898.285 L28.3562 898.285 M14.479 898.285 L14.479 892.429 L21.895 892.429 L21.895 898.285 L14.479 898.285 Z" fill="#000000" fill-rule="nonzero" fill-opacity="1" /><path clip-path="url(#clip960)" d="M42.4881 850.543 L64.0042 850.543 L64.0042 856.399 L42.679 856.399 Q37.6183 856.399 35.1038 858.372 Q32.5894 860.346 32.5894 864.293 Q32.5894 869.035 35.6131 871.772 Q38.6368 874.51 43.8567 874.51 L64.0042 874.51 L64.0042 880.398 L28.3562 880.398 L28.3562 874.51 L33.8944 874.51 Q30.6797 872.409 29.0883 869.576 Q27.4968 866.712 27.4968 862.988 Q27.4968 856.845 31.3163 853.694 Q35.1038 850.543 42.4881 850.543 Z" fill="#000000" fill-rule="nonzero" fill-opacity="1" /><path clip-path="url(#clip960)" d="M14.479 820.815 L19.3487 820.815 L19.3487 826.417 Q19.3487 829.568 20.6219 830.809 Q21.895 832.018 25.2052 832.018 L28.3562 832.018 L28.3562 822.374 L32.9077 822.374 L32.9077 832.018 L64.0042 832.018 L64.0042 837.907 L32.9077 837.907 L32.9077 843.509 L28.3562 843.509 L28.3562 837.907 L25.8736 837.907 Q19.9216 837.907 17.2162 835.138 Q14.479 832.369 14.479 826.353 L14.479 820.815 Z" fill="#000000" fill-rule="nonzero" fill-opacity="1" /><path clip-path="url(#clip960)" d="M32.4621 802.1 Q32.4621 806.81 36.1542 809.548 Q39.8145 812.285 46.212 812.285 Q52.6095 812.285 56.3017 809.579 Q59.9619 806.842 59.9619 802.1 Q59.9619 797.421 56.2698 794.684 Q52.5777 791.946 46.212 791.946 Q39.8781 791.946 36.186 794.684 Q32.4621 797.421 32.4621 802.1 M27.4968 802.1 Q27.4968 794.461 32.4621 790.1 Q37.4273 785.74 46.212 785.74 Q54.9649 785.74 59.9619 790.1 Q64.9272 794.461 64.9272 802.1 Q64.9272 809.77 59.9619 814.131 Q54.9649 818.459 46.212 818.459 Q37.4273 818.459 32.4621 814.131 Q27.4968 809.77 27.4968 802.1 Z" fill="#000000" fill-rule="nonzero" fill-opacity="1" /><path clip-path="url(#clip960)" d="M33.8307 755.375 Q33.2578 756.362 33.0032 757.54 Q32.7167 758.686 32.7167 760.086 Q32.7167 765.051 35.9632 767.725 Q39.1779 770.367 45.2253 770.367 L64.0042 770.367 L64.0042 776.255 L28.3562 776.255 L28.3562 770.367 L33.8944 770.367 Q30.6479 768.521 29.0883 765.56 Q27.4968 762.6 27.4968 758.367 Q27.4968 757.762 27.5923 757.03 Q27.656 756.298 27.8151 755.407 L33.8307 755.375 Z" fill="#000000" fill-rule="nonzero" fill-opacity="1" /><path clip-path="url(#clip960)" d="M35.1993 722.624 Q31.2526 720.428 29.3747 717.372 Q27.4968 714.317 27.4968 710.179 Q27.4968 704.609 31.4117 701.585 Q35.2948 698.561 42.4881 698.561 L64.0042 698.561 L64.0042 704.45 L42.679 704.45 Q37.5546 704.45 35.072 706.264 Q32.5894 708.078 32.5894 711.802 Q32.5894 716.354 35.6131 718.995 Q38.6368 721.637 43.8567 721.637 L64.0042 721.637 L64.0042 727.525 L42.679 727.525 Q37.5228 727.525 35.072 729.34 Q32.5894 731.154 32.5894 734.941 Q32.5894 739.429 35.6449 742.071 Q38.6686 744.713 43.8567 744.713 L64.0042 744.713 L64.0042 750.601 L28.3562 750.601 L28.3562 744.713 L33.8944 744.713 Q30.616 742.708 29.0564 739.907 Q27.4968 737.106 27.4968 733.255 Q27.4968 729.371 29.4702 726.666 Q31.4436 723.929 35.1993 722.624 Z" fill="#000000" fill-rule="nonzero" fill-opacity="1" /><path clip-path="url(#clip960)" d="M46.0847 670.68 Q46.0847 677.777 47.7079 680.515 Q49.3312 683.252 53.2461 683.252 Q56.3653 683.252 58.2114 681.215 Q60.0256 679.146 60.0256 675.613 Q60.0256 670.743 56.5881 667.815 Q53.1188 664.855 47.3897 664.855 L46.0847 664.855 L46.0847 670.68 M43.6657 658.999 L64.0042 658.999 L64.0042 664.855 L58.5933 664.855 Q61.8398 666.86 63.3994 669.852 Q64.9272 672.844 64.9272 677.173 Q64.9272 682.647 61.8716 685.894 Q58.7843 689.108 53.6281 689.108 Q47.6125 689.108 44.5569 685.098 Q41.5014 681.056 41.5014 673.067 L41.5014 664.855 L40.9285 664.855 Q36.8862 664.855 34.6901 667.529 Q32.4621 670.17 32.4621 674.976 Q32.4621 678.032 33.1941 680.928 Q33.9262 683.825 35.3903 686.498 L29.9795 686.498 Q28.7381 683.284 28.1334 680.26 Q27.4968 677.236 27.4968 674.372 Q27.4968 666.637 31.5072 662.818 Q35.5176 658.999 43.6657 658.999 Z" fill="#000000" fill-rule="nonzero" fill-opacity="1" /><path clip-path="url(#clip960)" d="M18.2347 641.143 L28.3562 641.143 L28.3562 629.08 L32.9077 629.08 L32.9077 641.143 L52.2594 641.143 Q56.6199 641.143 57.8613 639.965 Q59.1026 638.756 59.1026 635.095 L59.1026 629.08 L64.0042 629.08 L64.0042 635.095 Q64.0042 641.875 61.4897 644.453 Q58.9434 647.031 52.2594 647.031 L32.9077 647.031 L32.9077 651.328 L28.3562 651.328 L28.3562 647.031 L18.2347 647.031 L18.2347 641.143 Z" fill="#000000" fill-rule="nonzero" fill-opacity="1" /><path clip-path="url(#clip960)" d="M28.3562 621.377 L28.3562 615.521 L64.0042 615.521 L64.0042 621.377 L28.3562 621.377 M14.479 621.377 L14.479 615.521 L21.895 615.521 L21.895 621.377 L14.479 621.377 Z" fill="#000000" fill-rule="nonzero" fill-opacity="1" /><path clip-path="url(#clip960)" d="M32.4621 589.453 Q32.4621 594.164 36.1542 596.901 Q39.8145 599.638 46.212 599.638 Q52.6095 599.638 56.3017 596.933 Q59.9619 594.196 59.9619 589.453 Q59.9619 584.774 56.2698 582.037 Q52.5777 579.3 46.212 579.3 Q39.8781 579.3 36.186 582.037 Q32.4621 584.774 32.4621 589.453 M27.4968 589.453 Q27.4968 581.814 32.4621 577.454 Q37.4273 573.093 46.212 573.093 Q54.9649 573.093 59.9619 577.454 Q64.9272 581.814 64.9272 589.453 Q64.9272 597.124 59.9619 601.484 Q54.9649 605.813 46.212 605.813 Q37.4273 605.813 32.4621 601.484 Q27.4968 597.124 27.4968 589.453 Z" fill="#000000" fill-rule="nonzero" fill-opacity="1" /><path clip-path="url(#clip960)" d="M42.4881 533.753 L64.0042 533.753 L64.0042 539.61 L42.679 539.61 Q37.6183 539.61 35.1038 541.583 Q32.5894 543.556 32.5894 547.503 Q32.5894 552.246 35.6131 554.983 Q38.6368 557.72 43.8567 557.72 L64.0042 557.72 L64.0042 563.608 L28.3562 563.608 L28.3562 557.72 L33.8944 557.72 Q30.6797 555.619 29.0883 552.787 Q27.4968 549.922 27.4968 546.198 Q27.4968 540.055 31.3163 536.904 Q35.1038 533.753 42.4881 533.753 Z" fill="#000000" fill-rule="nonzero" fill-opacity="1" /><path clip-path="url(#clip960)" d="M14.5426 487.284 Q21.8632 491.549 29.0246 493.617 Q36.186 495.686 43.5384 495.686 Q50.8908 495.686 58.1159 493.617 Q65.3091 491.517 72.5979 487.284 L72.5979 492.376 Q65.1182 497.15 57.8931 499.538 Q50.668 501.893 43.5384 501.893 Q36.4406 501.893 29.2474 499.538 Q22.0542 497.182 14.5426 492.376 L14.5426 487.284 Z" fill="#000000" fill-rule="nonzero" fill-opacity="1" /><path clip-path="url(#clip960)" d="M42.4881 446.288 L64.0042 446.288 L64.0042 452.145 L42.679 452.145 Q37.6183 452.145 35.1038 454.118 Q32.5894 456.092 32.5894 460.038 Q32.5894 464.781 35.6131 467.518 Q38.6368 470.255 43.8567 470.255 L64.0042 470.255 L64.0042 476.144 L28.3562 476.144 L28.3562 470.255 L33.8944 470.255 Q30.6797 468.155 29.0883 465.322 Q27.4968 462.457 27.4968 458.733 Q27.4968 452.591 31.3163 449.439 Q35.1038 446.288 42.4881 446.288 Z" fill="#000000" fill-rule="nonzero" fill-opacity="1" /><path clip-path="url(#clip960)" d="M46.0847 418.407 Q46.0847 425.504 47.7079 428.242 Q49.3312 430.979 53.2461 430.979 Q56.3653 430.979 58.2114 428.942 Q60.0256 426.873 60.0256 423.34 Q60.0256 418.47 56.5881 415.542 Q53.1188 412.582 47.3897 412.582 L46.0847 412.582 L46.0847 418.407 M43.6657 406.726 L64.0042 406.726 L64.0042 412.582 L58.5933 412.582 Q61.8398 414.587 63.3994 417.579 Q64.9272 420.571 64.9272 424.9 Q64.9272 430.374 61.8716 433.621 Q58.7843 436.835 53.6281 436.835 Q47.6125 436.835 44.5569 432.825 Q41.5014 428.783 41.5014 420.794 L41.5014 412.582 L40.9285 412.582 Q36.8862 412.582 34.6901 415.256 Q32.4621 417.897 32.4621 422.704 Q32.4621 425.759 33.1941 428.655 Q33.9262 431.552 35.3903 434.225 L29.9795 434.225 Q28.7381 431.011 28.1334 427.987 Q27.4968 424.963 27.4968 422.099 Q27.4968 414.364 31.5072 410.545 Q35.5176 406.726 43.6657 406.726 Z" fill="#000000" fill-rule="nonzero" fill-opacity="1" /><path clip-path="url(#clip960)" d="M18.2347 388.87 L28.3562 388.87 L28.3562 376.807 L32.9077 376.807 L32.9077 388.87 L52.2594 388.87 Q56.6199 388.87 57.8613 387.692 Q59.1026 386.483 59.1026 382.822 L59.1026 376.807 L64.0042 376.807 L64.0042 382.822 Q64.0042 389.602 61.4897 392.18 Q58.9434 394.758 52.2594 394.758 L32.9077 394.758 L32.9077 399.055 L28.3562 399.055 L28.3562 394.758 L18.2347 394.758 L18.2347 388.87 Z" fill="#000000" fill-rule="nonzero" fill-opacity="1" /><path clip-path="url(#clip960)" d="M29.4065 346.379 L34.9447 346.379 Q33.6716 348.861 33.035 351.535 Q32.3984 354.209 32.3984 357.073 Q32.3984 361.434 33.7352 363.63 Q35.072 365.794 37.7456 365.794 Q39.7826 365.794 40.9603 364.235 Q42.1061 362.675 43.1565 357.964 L43.6021 355.959 Q44.9389 349.721 47.3897 347.111 Q49.8086 344.469 54.1691 344.469 Q59.1344 344.469 62.0308 348.416 Q64.9272 352.331 64.9272 359.206 Q64.9272 362.07 64.3543 365.189 Q63.8132 368.277 62.6992 371.714 L56.6518 371.714 Q58.3387 368.468 59.198 365.317 Q60.0256 362.166 60.0256 359.078 Q60.0256 354.941 58.6251 352.713 Q57.1929 350.485 54.6147 350.485 Q52.2276 350.485 50.9545 352.108 Q49.6813 353.699 48.5037 359.142 L48.0262 361.179 Q46.8804 366.622 44.5251 369.041 Q42.138 371.46 38.0002 371.46 Q32.9713 371.46 30.2341 367.895 Q27.4968 364.33 27.4968 357.773 Q27.4968 354.527 27.9743 351.662 Q28.4517 348.798 29.4065 346.379 Z" fill="#000000" fill-rule="nonzero" fill-opacity="1" /><path clip-path="url(#clip960)" d="M14.5426 336.066 L14.5426 330.974 Q22.0542 326.199 29.2474 323.844 Q36.4406 321.457 43.5384 321.457 Q50.668 321.457 57.8931 323.844 Q65.1182 326.199 72.5979 330.974 L72.5979 336.066 Q65.3091 331.833 58.1159 329.764 Q50.8908 327.664 43.5384 327.664 Q36.186 327.664 29.0246 329.764 Q21.8632 331.833 14.5426 336.066 Z" fill="#000000" fill-rule="nonzero" fill-opacity="1" /><polyline clip-path="url(#clip962)" style="stroke:#009af9; stroke-linecap:round; stroke-linejoin:round; stroke-width:4; stroke-opacity:1; fill:none" points="301.869,259.153 321.781,259.162 341.692,258.834 361.604,258.3 381.515,257.557 401.427,256.725 421.338,255.653 441.25,254.797 461.161,253.851 481.073,254.428 500.984,253.88 520.896,251.57 540.807,250.904 560.719,250.15 580.631,247.77 600.542,245.907 620.454,243.61 640.365,243.49 660.277,243.882 680.188,242.739 700.1,238.9 720.011,236.77 739.923,234.668 759.834,232.158 779.746,229.932 799.657,228.743 819.569,228.518 839.48,226.21 859.392,222.491 879.303,218.722 899.215,217.871 919.126,214.93 939.038,213.797 958.949,211.04 978.861,209.257 998.772,206.313 1018.68,204.392 1038.6,203.745 1058.51,202.919 1078.42,198.664 1098.33,196.494 1118.24,194.255 1138.15,192.549 1158.06,189.939 1177.98,189.601 1197.89,187.637 1217.8,183.898 1237.71,180.34 1257.62,177.873 1277.53,177.507 1297.45,174.414 1317.36,171.548 1337.27,171.139 1357.18,170.32 1377.09,170.713 1397,168.172 1416.91,166.455 1436.83,165.368 1456.74,163.715 1476.65,161.668 1496.56,158.905 1516.47,157.055 1536.38,152.721 1556.3,150.335 1576.21,148.611 1596.12,147.023 1616.03,145.688 1635.94,142.151 1655.85,139.27 1675.76,138.046 1695.68,137.964 1715.59,139.118 1735.5,137.489 1755.41,133.749 1775.32,132.968 1795.23,130.927 1815.14,128.492 1835.06,125.806 1854.97,124.312 1874.88,124.754 1894.79,122.884 1914.7,120.184 1934.61,116.835 1954.53,114.112 1974.44,111.039 1994.35,108.647 2014.26,106.926 2034.17,105.917 2054.08,103.247 2073.99,99.2841 2093.91,98.0666 2113.82,98.5966 2133.73,98.7909 2153.64,97.2333 2173.55,95.9305 2193.46,92.863 2213.38,91.0543 2233.29,90.3737 2253.2,88.7354 2273.11,87.8959 2293.02,86.1857 "/>
<polyline clip-path="url(#clip962)" style="stroke:#e26f46; stroke-linecap:round; stroke-linejoin:round; stroke-width:4; stroke-opacity:1; fill:none" points="301.869,259.153 321.781,259.252 341.692,259.104 361.604,258.319 381.515,257.906 401.427,257.178 421.338,256.68 441.25,256.385 461.161,256.162 481.073,254.839 500.984,255.39 520.896,255.021 540.807,254.091 560.719,250.582 580.631,250.124 600.542,248.184 620.454,247.37 640.365,245.141 660.277,244.773 680.188,243.901 700.1,241.696 720.011,238.817 739.923,236.761 759.834,235.455 779.746,234.082 799.657,233.709 819.569,232.445 839.48,229.159 859.392,228.938 879.303,226.274 899.215,224.187 919.126,221.227 939.038,219.327 958.949,218.144 978.861,218.538 998.772,216.863 1018.68,215.936 1038.6,215.329 1058.51,213.618 1078.42,211.284 1098.33,210.177 1118.24,208.076 1138.15,206.918 1158.06,205.541 1177.98,201.737 1197.89,200.813 1217.8,197.583 1237.71,196.244 1257.62,194.003 1277.53,193.809 1297.45,190.892 1317.36,190.697 1337.27,188.64 1357.18,186.476 1377.09,186.135 1397,186.338 1416.91,184.27 1436.83,182.6 1456.74,182.008 1476.65,178.84 1496.56,177.954 1516.47,176.144 1536.38,173.592 1556.3,171.32 1576.21,168.43 1596.12,165.846 1616.03,163.813 1635.94,161.003 1655.85,157.755 1675.76,155.437 1695.68,153.887 1715.59,152.5 1735.5,151.167 1755.41,150.917 1775.32,149.533 1795.23,149.164 1815.14,148.305 1835.06,145.906 1854.97,144.691 1874.88,140.742 1894.79,139.997 1914.7,138.023 1934.61,135.214 1954.53,133.697 1974.44,133.692 1994.35,133.587 2014.26,132.077 2034.17,131.768 2054.08,129.434 2073.99,128.01 2093.91,126.264 2113.82,125.017 2133.73,125.692 2153.64,122.406 2173.55,121.989 2193.46,120.883 2213.38,118.9 2233.29,117.311 2253.2,115.468 2273.11,113.9 2293.02,111.068 "/>
<polyline clip-path="url(#clip962)" style="stroke:#3da44d; stroke-linecap:round; stroke-linejoin:round; stroke-width:4; stroke-opacity:1; fill:none" points="301.869,259.153 321.781,258.965 341.692,258.659 361.604,264.522 381.515,272.934 401.427,276.936 421.338,279.56 441.25,285.02 461.161,294.129 481.073,300.609 500.984,308.723 520.896,317.879 540.807,330.09 560.719,341.133 580.631,350.983 600.542,359.288 620.454,370.245 640.365,377.352 660.277,386.232 680.188,397.365 700.1,404.824 720.011,413.875 739.923,424.463 759.834,434.679 779.746,445.587 799.657,456.783 819.569,468.605 839.48,480.043 859.392,492.26 879.303,502.805 899.215,514.668 919.126,526.803 939.038,537.312 958.949,548.236 978.861,561.725 998.772,574.744 1018.68,587.257 1038.6,597.953 1058.51,607.94 1078.42,620.644 1098.33,633.706 1118.24,643.705 1138.15,653.997 1158.06,665.787 1177.98,679.862 1197.89,693.799 1217.8,707.293 1237.71,721.459 1257.62,733.141 1277.53,744.704 1297.45,757.085 1317.36,770.474 1337.27,782.896 1357.18,794.041 1377.09,805.117 1397,815.424 1416.91,826.133 1436.83,837.508 1456.74,851.31 1476.65,862.539 1496.56,872.647 1516.47,885.708 1536.38,899.701 1556.3,912.242 1576.21,925.919 1596.12,941.625 1616.03,953.777 1635.94,967.628 1655.85,980.499 1675.76,993.938 1695.68,1004.83 1715.59,1017.35 1735.5,1029.96 1755.41,1043.06 1775.32,1058 1795.23,1068.97 1815.14,1081.63 1835.06,1092.47 1854.97,1103.28 1874.88,1117.34 1894.79,1129.41 1914.7,1140.12 1934.61,1152.24 1954.53,1163 1974.44,1174.9 1994.35,1188.34 2014.26,1201.07 2034.17,1214.17 2054.08,1228.17 2073.99,1241.43 2093.91,1256.59 2113.82,1269.24 2133.73,1279.85 2153.64,1293.7 2173.55,1307.36 2193.46,1320.91 2213.38,1334.49 2233.29,1346.5 2253.2,1358.9 2273.11,1372.39 2293.02,1384.24 "/>
<path clip-path="url(#clip960)" d="M312.489 1377.32 L839.197 1377.32 L839.197 1169.96 L312.489 1169.96  Z" fill="#ffffff" fill-rule="evenodd" fill-opacity="1"/>
<polyline clip-path="url(#clip960)" style="stroke:#000000; stroke-linecap:round; stroke-linejoin:round; stroke-width:4; stroke-opacity:1; fill:none" points="312.489,1377.32 839.197,1377.32 839.197,1169.96 312.489,1169.96 312.489,1377.32 "/>
<polyline clip-path="url(#clip960)" style="stroke:#009af9; stroke-linecap:round; stroke-linejoin:round; stroke-width:4; stroke-opacity:1; fill:none" points="335.94,1221.8 476.648,1221.8 "/>
<path clip-path="url(#clip960)" d="M504.775 1208.36 L504.775 1235.23 L510.424 1235.23 Q517.576 1235.23 520.886 1231.99 Q524.22 1228.75 524.22 1221.76 Q524.22 1214.82 520.886 1211.6 Q517.576 1208.36 510.424 1208.36 L504.775 1208.36 M500.099 1204.52 L509.706 1204.52 Q519.752 1204.52 524.451 1208.71 Q529.15 1212.87 529.15 1221.76 Q529.15 1230.7 524.428 1234.89 Q519.706 1239.08 509.706 1239.08 L500.099 1239.08 L500.099 1204.52 Z" fill="#000000" fill-rule="nonzero" fill-opacity="1" /><path clip-path="url(#clip960)" d="M536.419 1213.15 L540.678 1213.15 L540.678 1239.08 L536.419 1239.08 L536.419 1213.15 M536.419 1203.06 L540.678 1203.06 L540.678 1208.45 L536.419 1208.45 L536.419 1203.06 Z" fill="#000000" fill-rule="nonzero" fill-opacity="1" /><path clip-path="url(#clip960)" d="M564.613 1217.13 Q563.895 1216.71 563.039 1216.53 Q562.206 1216.32 561.187 1216.32 Q557.576 1216.32 555.632 1218.68 Q553.71 1221.02 553.71 1225.42 L553.71 1239.08 L549.428 1239.08 L549.428 1213.15 L553.71 1213.15 L553.71 1217.18 Q555.053 1214.82 557.206 1213.68 Q559.358 1212.52 562.437 1212.52 Q562.877 1212.52 563.409 1212.59 Q563.942 1212.64 564.59 1212.76 L564.613 1217.13 Z" fill="#000000" fill-rule="nonzero" fill-opacity="1" /><path clip-path="url(#clip960)" d="M590.215 1225.05 L590.215 1227.13 L570.632 1227.13 Q570.909 1231.53 573.27 1233.84 Q575.655 1236.14 579.891 1236.14 Q582.344 1236.14 584.636 1235.53 Q586.951 1234.93 589.219 1233.73 L589.219 1237.76 Q586.928 1238.73 584.52 1239.24 Q582.113 1239.75 579.636 1239.75 Q573.432 1239.75 569.798 1236.14 Q566.187 1232.52 566.187 1226.37 Q566.187 1220 569.613 1216.27 Q573.062 1212.52 578.895 1212.52 Q584.127 1212.52 587.159 1215.9 Q590.215 1219.26 590.215 1225.05 M585.956 1223.8 Q585.909 1220.3 583.988 1218.22 Q582.09 1216.14 578.942 1216.14 Q575.377 1216.14 573.224 1218.15 Q571.094 1220.16 570.77 1223.82 L585.956 1223.8 Z" fill="#000000" fill-rule="nonzero" fill-opacity="1" /><path clip-path="url(#clip960)" d="M615.863 1214.14 L615.863 1218.13 Q614.057 1217.13 612.229 1216.64 Q610.423 1216.14 608.571 1216.14 Q604.428 1216.14 602.136 1218.77 Q599.844 1221.39 599.844 1226.14 Q599.844 1230.88 602.136 1233.52 Q604.428 1236.14 608.571 1236.14 Q610.423 1236.14 612.229 1235.65 Q614.057 1235.14 615.863 1234.14 L615.863 1238.08 Q614.08 1238.91 612.159 1239.33 Q610.261 1239.75 608.108 1239.75 Q602.252 1239.75 598.803 1236.07 Q595.354 1232.39 595.354 1226.14 Q595.354 1219.79 598.826 1216.16 Q602.321 1212.52 608.386 1212.52 Q610.354 1212.52 612.229 1212.94 Q614.104 1213.33 615.863 1214.14 Z" fill="#000000" fill-rule="nonzero" fill-opacity="1" /><path clip-path="url(#clip960)" d="M627.483 1205.79 L627.483 1213.15 L636.256 1213.15 L636.256 1216.46 L627.483 1216.46 L627.483 1230.53 Q627.483 1233.7 628.34 1234.61 Q629.219 1235.51 631.881 1235.51 L636.256 1235.51 L636.256 1239.08 L631.881 1239.08 Q626.951 1239.08 625.076 1237.25 Q623.201 1235.39 623.201 1230.53 L623.201 1216.46 L620.076 1216.46 L620.076 1213.15 L623.201 1213.15 L623.201 1205.79 L627.483 1205.79 Z" fill="#000000" fill-rule="nonzero" fill-opacity="1" /><path clip-path="url(#clip960)" d="M642.043 1204.52 L649.011 1204.52 L657.83 1228.03 L666.696 1204.52 L673.663 1204.52 L673.663 1239.08 L669.103 1239.08 L669.103 1208.73 L660.191 1232.43 L655.492 1232.43 L646.58 1208.73 L646.58 1239.08 L642.043 1239.08 L642.043 1204.52 Z" fill="#000000" fill-rule="nonzero" fill-opacity="1" /><path clip-path="url(#clip960)" d="M708.825 1207.18 L708.825 1212.11 Q706.464 1209.91 703.779 1208.82 Q701.117 1207.73 698.108 1207.73 Q692.182 1207.73 689.034 1211.37 Q685.886 1214.98 685.886 1221.83 Q685.886 1228.66 689.034 1232.29 Q692.182 1235.9 698.108 1235.9 Q701.117 1235.9 703.779 1234.82 Q706.464 1233.73 708.825 1231.53 L708.825 1236.41 Q706.372 1238.08 703.617 1238.91 Q700.885 1239.75 697.83 1239.75 Q689.983 1239.75 685.469 1234.95 Q680.955 1230.14 680.955 1221.83 Q680.955 1213.5 685.469 1208.71 Q689.983 1203.89 697.83 1203.89 Q700.932 1203.89 703.663 1204.72 Q706.418 1205.53 708.825 1207.18 Z" fill="#000000" fill-rule="nonzero" fill-opacity="1" /><path clip-path="url(#clip960)" d="M713.709 1224.19 L726.186 1224.19 L726.186 1227.99 L713.709 1227.99 L713.709 1224.19 Z" fill="#000000" fill-rule="nonzero" fill-opacity="1" /><path clip-path="url(#clip960)" d="M734.381 1235.14 L742.019 1235.14 L742.019 1208.77 L733.709 1210.44 L733.709 1206.18 L741.973 1204.52 L746.649 1204.52 L746.649 1235.14 L754.288 1235.14 L754.288 1239.08 L734.381 1239.08 L734.381 1235.14 Z" fill="#000000" fill-rule="nonzero" fill-opacity="1" /><path clip-path="url(#clip960)" d="M767.76 1235.14 L784.079 1235.14 L784.079 1239.08 L762.135 1239.08 L762.135 1235.14 Q764.797 1232.39 769.38 1227.76 Q773.987 1223.1 775.167 1221.76 Q777.413 1219.24 778.292 1217.5 Q779.195 1215.74 779.195 1214.05 Q779.195 1211.3 777.251 1209.56 Q775.329 1207.83 772.228 1207.83 Q770.029 1207.83 767.575 1208.59 Q765.144 1209.35 762.367 1210.9 L762.367 1206.18 Q765.191 1205.05 767.644 1204.47 Q770.098 1203.89 772.135 1203.89 Q777.505 1203.89 780.7 1206.58 Q783.894 1209.26 783.894 1213.75 Q783.894 1215.88 783.084 1217.8 Q782.297 1219.7 780.191 1222.29 Q779.612 1222.96 776.51 1226.18 Q773.408 1229.38 767.76 1235.14 Z" fill="#000000" fill-rule="nonzero" fill-opacity="1" /><path clip-path="url(#clip960)" d="M803.894 1222.66 Q800.561 1222.66 798.64 1224.45 Q796.741 1226.23 796.741 1229.35 Q796.741 1232.48 798.64 1234.26 Q800.561 1236.04 803.894 1236.04 Q807.227 1236.04 809.149 1234.26 Q811.07 1232.45 811.07 1229.35 Q811.07 1226.23 809.149 1224.45 Q807.251 1222.66 803.894 1222.66 M799.218 1220.67 Q796.209 1219.93 794.519 1217.87 Q792.853 1215.81 792.853 1212.85 Q792.853 1208.71 795.792 1206.3 Q798.755 1203.89 803.894 1203.89 Q809.056 1203.89 811.996 1206.3 Q814.936 1208.71 814.936 1212.85 Q814.936 1215.81 813.246 1217.87 Q811.579 1219.93 808.593 1220.67 Q811.973 1221.46 813.848 1223.75 Q815.746 1226.04 815.746 1229.35 Q815.746 1234.38 812.667 1237.06 Q809.612 1239.75 803.894 1239.75 Q798.177 1239.75 795.098 1237.06 Q792.042 1234.38 792.042 1229.35 Q792.042 1226.04 793.941 1223.75 Q795.839 1221.46 799.218 1220.67 M797.505 1213.29 Q797.505 1215.97 799.172 1217.48 Q800.862 1218.98 803.894 1218.98 Q806.903 1218.98 808.593 1217.48 Q810.306 1215.97 810.306 1213.29 Q810.306 1210.6 808.593 1209.1 Q806.903 1207.59 803.894 1207.59 Q800.862 1207.59 799.172 1209.1 Q797.505 1210.6 797.505 1213.29 Z" fill="#000000" fill-rule="nonzero" fill-opacity="1" /><polyline clip-path="url(#clip960)" style="stroke:#e26f46; stroke-linecap:round; stroke-linejoin:round; stroke-width:4; stroke-opacity:1; fill:none" points="335.94,1273.64 476.648,1273.64 "/>
<path clip-path="url(#clip960)" d="M522.345 1257.49 L522.345 1262.05 Q519.683 1260.78 517.322 1260.15 Q514.961 1259.53 512.761 1259.53 Q508.942 1259.53 506.859 1261.01 Q504.799 1262.49 504.799 1265.22 Q504.799 1267.51 506.164 1268.69 Q507.553 1269.85 511.396 1270.57 L514.22 1271.15 Q519.451 1272.14 521.928 1274.67 Q524.428 1277.17 524.428 1281.38 Q524.428 1286.4 521.048 1288.99 Q517.692 1291.59 511.187 1291.59 Q508.734 1291.59 505.956 1291.03 Q503.201 1290.48 500.238 1289.39 L500.238 1284.57 Q503.086 1286.17 505.817 1286.98 Q508.549 1287.79 511.187 1287.79 Q515.192 1287.79 517.368 1286.22 Q519.544 1284.64 519.544 1281.73 Q519.544 1279.18 517.97 1277.74 Q516.419 1276.31 512.854 1275.59 L510.007 1275.04 Q504.775 1273.99 502.437 1271.77 Q500.099 1269.55 500.099 1265.59 Q500.099 1261.01 503.317 1258.37 Q506.558 1255.73 512.229 1255.73 Q514.66 1255.73 517.183 1256.17 Q519.706 1256.61 522.345 1257.49 Z" fill="#000000" fill-rule="nonzero" fill-opacity="1" /><path clip-path="url(#clip960)" d="M531.72 1256.36 L538.687 1256.36 L547.507 1279.87 L556.372 1256.36 L563.34 1256.36 L563.34 1290.92 L558.78 1290.92 L558.78 1260.57 L549.868 1284.27 L545.169 1284.27 L536.257 1260.57 L536.257 1290.92 L531.72 1290.92 L531.72 1256.36 Z" fill="#000000" fill-rule="nonzero" fill-opacity="1" /><path clip-path="url(#clip960)" d="M598.502 1259.02 L598.502 1263.95 Q596.141 1261.75 593.455 1260.66 Q590.793 1259.57 587.784 1259.57 Q581.858 1259.57 578.71 1263.21 Q575.562 1266.82 575.562 1273.67 Q575.562 1280.5 578.71 1284.13 Q581.858 1287.74 587.784 1287.74 Q590.793 1287.74 593.455 1286.66 Q596.141 1285.57 598.502 1283.37 L598.502 1288.25 Q596.048 1289.92 593.293 1290.75 Q590.562 1291.59 587.506 1291.59 Q579.659 1291.59 575.145 1286.79 Q570.632 1281.98 570.632 1273.67 Q570.632 1265.34 575.145 1260.55 Q579.659 1255.73 587.506 1255.73 Q590.608 1255.73 593.34 1256.56 Q596.094 1257.37 598.502 1259.02 Z" fill="#000000" fill-rule="nonzero" fill-opacity="1" /><path clip-path="url(#clip960)" d="M603.386 1276.03 L615.863 1276.03 L615.863 1279.83 L603.386 1279.83 L603.386 1276.03 Z" fill="#000000" fill-rule="nonzero" fill-opacity="1" /><path clip-path="url(#clip960)" d="M624.057 1286.98 L631.696 1286.98 L631.696 1260.61 L623.386 1262.28 L623.386 1258.02 L631.65 1256.36 L636.326 1256.36 L636.326 1286.98 L643.964 1286.98 L643.964 1290.92 L624.057 1290.92 L624.057 1286.98 Z" fill="#000000" fill-rule="nonzero" fill-opacity="1" /><path clip-path="url(#clip960)" d="M657.437 1286.98 L673.756 1286.98 L673.756 1290.92 L651.812 1290.92 L651.812 1286.98 Q654.474 1284.23 659.057 1279.6 Q663.663 1274.94 664.844 1273.6 Q667.089 1271.08 667.969 1269.34 Q668.872 1267.58 668.872 1265.89 Q668.872 1263.14 666.927 1261.4 Q665.006 1259.67 661.904 1259.67 Q659.705 1259.67 657.251 1260.43 Q654.821 1261.19 652.043 1262.74 L652.043 1258.02 Q654.867 1256.89 657.321 1256.31 Q659.775 1255.73 661.812 1255.73 Q667.182 1255.73 670.376 1258.42 Q673.571 1261.1 673.571 1265.59 Q673.571 1267.72 672.761 1269.64 Q671.974 1271.54 669.867 1274.13 Q669.288 1274.8 666.187 1278.02 Q663.085 1281.22 657.437 1286.98 Z" fill="#000000" fill-rule="nonzero" fill-opacity="1" /><path clip-path="url(#clip960)" d="M693.571 1274.5 Q690.237 1274.5 688.316 1276.29 Q686.418 1278.07 686.418 1281.19 Q686.418 1284.32 688.316 1286.1 Q690.237 1287.88 693.571 1287.88 Q696.904 1287.88 698.825 1286.1 Q700.747 1284.29 700.747 1281.19 Q700.747 1278.07 698.825 1276.29 Q696.927 1274.5 693.571 1274.5 M688.895 1272.51 Q685.886 1271.77 684.196 1269.71 Q682.529 1267.65 682.529 1264.69 Q682.529 1260.55 685.469 1258.14 Q688.432 1255.73 693.571 1255.73 Q698.733 1255.73 701.672 1258.14 Q704.612 1260.55 704.612 1264.69 Q704.612 1267.65 702.922 1269.71 Q701.256 1271.77 698.27 1272.51 Q701.649 1273.3 703.524 1275.59 Q705.422 1277.88 705.422 1281.19 Q705.422 1286.22 702.344 1288.9 Q699.288 1291.59 693.571 1291.59 Q687.853 1291.59 684.774 1288.9 Q681.719 1286.22 681.719 1281.19 Q681.719 1277.88 683.617 1275.59 Q685.515 1273.3 688.895 1272.51 M687.182 1265.13 Q687.182 1267.81 688.848 1269.32 Q690.538 1270.82 693.571 1270.82 Q696.58 1270.82 698.27 1269.32 Q699.983 1267.81 699.983 1265.13 Q699.983 1262.44 698.27 1260.94 Q696.58 1259.43 693.571 1259.43 Q690.538 1259.43 688.848 1260.94 Q687.182 1262.44 687.182 1265.13 Z" fill="#000000" fill-rule="nonzero" fill-opacity="1" /><polyline clip-path="url(#clip960)" style="stroke:#3da44d; stroke-linecap:round; stroke-linejoin:round; stroke-width:4; stroke-opacity:1; fill:none" points="335.94,1325.48 476.648,1325.48 "/>
<path clip-path="url(#clip960)" d="M504.775 1312.04 L504.775 1325.02 L510.655 1325.02 Q513.919 1325.02 515.701 1323.33 Q517.484 1321.64 517.484 1318.52 Q517.484 1315.42 515.701 1313.73 Q513.919 1312.04 510.655 1312.04 L504.775 1312.04 M500.099 1308.2 L510.655 1308.2 Q516.465 1308.2 519.428 1310.83 Q522.414 1313.45 522.414 1318.52 Q522.414 1323.64 519.428 1326.25 Q516.465 1328.87 510.655 1328.87 L504.775 1328.87 L504.775 1342.76 L500.099 1342.76 L500.099 1308.2 Z" fill="#000000" fill-rule="nonzero" fill-opacity="1" /><path clip-path="url(#clip960)" d="M528.687 1308.2 L550.539 1308.2 L550.539 1312.13 L533.363 1312.13 L533.363 1322.36 L549.821 1322.36 L549.821 1326.3 L533.363 1326.3 L533.363 1338.82 L550.956 1338.82 L550.956 1342.76 L528.687 1342.76 L528.687 1308.2 Z" fill="#000000" fill-rule="nonzero" fill-opacity="1" /><path clip-path="url(#clip960)" d="M575.03 1326.55 Q576.534 1327.06 577.946 1328.73 Q579.381 1330.39 580.817 1333.31 L585.562 1342.76 L580.539 1342.76 L576.118 1333.89 Q574.405 1330.42 572.784 1329.28 Q571.187 1328.15 568.409 1328.15 L563.317 1328.15 L563.317 1342.76 L558.641 1342.76 L558.641 1308.2 L569.196 1308.2 Q575.122 1308.2 578.039 1310.67 Q580.956 1313.15 580.956 1318.15 Q580.956 1321.41 579.428 1323.57 Q577.923 1325.72 575.03 1326.55 M563.317 1312.04 L563.317 1324.31 L569.196 1324.31 Q572.576 1324.31 574.289 1322.76 Q576.025 1321.18 576.025 1318.15 Q576.025 1315.12 574.289 1313.59 Q572.576 1312.04 569.196 1312.04 L563.317 1312.04 Z" fill="#000000" fill-rule="nonzero" fill-opacity="1" /><path clip-path="url(#clip960)" d="M591.58 1308.2 L598.548 1308.2 L607.367 1331.71 L616.233 1308.2 L623.201 1308.2 L623.201 1342.76 L618.641 1342.76 L618.641 1312.41 L609.729 1336.11 L605.029 1336.11 L596.117 1312.41 L596.117 1342.76 L591.58 1342.76 L591.58 1308.2 Z" fill="#000000" fill-rule="nonzero" fill-opacity="1" /></svg>
