<?xml version="1.0" encoding="utf-8"?>
<svg xmlns="http://www.w3.org/2000/svg" xmlns:xlink="http://www.w3.org/1999/xlink" width="600" height="400" viewBox="0 0 2400 1600">
<defs>
  <clipPath id="clip980">
    <rect x="0" y="0" width="2400" height="1600"/>
  </clipPath>
</defs>
<path clip-path="url(#clip980)" d="
M0 1600 L2400 1600 L2400 0 L0 0  Z
  " fill="#ffffff" fill-rule="evenodd" fill-opacity="1"/>
<defs>
  <clipPath id="clip981">
    <rect x="480" y="0" width="1681" height="1600"/>
  </clipPath>
</defs>
<path clip-path="url(#clip980)" d="
M174.149 1423.18 L2352.76 1423.18 L2352.76 47.2441 L174.149 47.2441  Z
  " fill="#ffffff" fill-rule="evenodd" fill-opacity="1"/>
<defs>
  <clipPath id="clip982">
    <rect x="174" y="47" width="2180" height="1377"/>
  </clipPath>
</defs>
<polyline clip-path="url(#clip982)" style="stroke:#000000; stroke-linecap:butt; stroke-linejoin:round; stroke-width:2; stroke-opacity:0.1; fill:none" points="
  235.808,1423.18 235.808,47.2441 
  "/>
<polyline clip-path="url(#clip982)" style="stroke:#000000; stroke-linecap:butt; stroke-linejoin:round; stroke-width:2; stroke-opacity:0.1; fill:none" points="
  749.63,1423.18 749.63,47.2441 
  "/>
<polyline clip-path="url(#clip982)" style="stroke:#000000; stroke-linecap:butt; stroke-linejoin:round; stroke-width:2; stroke-opacity:0.1; fill:none" points="
  1263.45,1423.18 1263.45,47.2441 
  "/>
<polyline clip-path="url(#clip982)" style="stroke:#000000; stroke-linecap:butt; stroke-linejoin:round; stroke-width:2; stroke-opacity:0.1; fill:none" points="
  1777.27,1423.18 1777.27,47.2441 
  "/>
<polyline clip-path="url(#clip982)" style="stroke:#000000; stroke-linecap:butt; stroke-linejoin:round; stroke-width:2; stroke-opacity:0.1; fill:none" points="
  2291.1,1423.18 2291.1,47.2441 
  "/>
<polyline clip-path="url(#clip980)" style="stroke:#000000; stroke-linecap:butt; stroke-linejoin:round; stroke-width:4; stroke-opacity:1; fill:none" points="
  174.149,1423.18 2352.76,1423.18 
  "/>
<polyline clip-path="url(#clip980)" style="stroke:#000000; stroke-linecap:butt; stroke-linejoin:round; stroke-width:4; stroke-opacity:1; fill:none" points="
  235.808,1423.18 235.808,1406.67 
  "/>
<polyline clip-path="url(#clip980)" style="stroke:#000000; stroke-linecap:butt; stroke-linejoin:round; stroke-width:4; stroke-opacity:1; fill:none" points="
  749.63,1423.18 749.63,1406.67 
  "/>
<polyline clip-path="url(#clip980)" style="stroke:#000000; stroke-linecap:butt; stroke-linejoin:round; stroke-width:4; stroke-opacity:1; fill:none" points="
  1263.45,1423.18 1263.45,1406.67 
  "/>
<polyline clip-path="url(#clip980)" style="stroke:#000000; stroke-linecap:butt; stroke-linejoin:round; stroke-width:4; stroke-opacity:1; fill:none" points="
  1777.27,1423.18 1777.27,1406.67 
  "/>
<polyline clip-path="url(#clip980)" style="stroke:#000000; stroke-linecap:butt; stroke-linejoin:round; stroke-width:4; stroke-opacity:1; fill:none" points="
  2291.1,1423.18 2291.1,1406.67 
  "/>
<path clip-path="url(#clip980)" d="M213.192 1452.37 Q209.581 1452.37 207.752 1455.94 Q205.947 1459.48 205.947 1466.61 Q205.947 1473.71 207.752 1477.28 Q209.581 1480.82 213.192 1480.82 Q216.826 1480.82 218.632 1477.28 Q220.46 1473.71 220.46 1466.61 Q220.46 1459.48 218.632 1455.94 Q216.826 1452.37 213.192 1452.37 M213.192 1448.67 Q219.002 1448.67 222.058 1453.27 Q225.136 1457.86 225.136 1466.61 Q225.136 1475.33 222.058 1479.94 Q219.002 1484.52 213.192 1484.52 Q207.382 1484.52 204.303 1479.94 Q201.248 1475.33 201.248 1466.61 Q201.248 1457.86 204.303 1453.27 Q207.382 1448.67 213.192 1448.67 Z" fill="#000000" fill-rule="evenodd" fill-opacity="1" /><path clip-path="url(#clip980)" d="M233.354 1477.97 L238.238 1477.97 L238.238 1483.85 L233.354 1483.85 L233.354 1477.97 Z" fill="#000000" fill-rule="evenodd" fill-opacity="1" /><path clip-path="url(#clip980)" d="M258.423 1452.37 Q254.812 1452.37 252.983 1455.94 Q251.178 1459.48 251.178 1466.61 Q251.178 1473.71 252.983 1477.28 Q254.812 1480.82 258.423 1480.82 Q262.057 1480.82 263.863 1477.28 Q265.692 1473.71 265.692 1466.61 Q265.692 1459.48 263.863 1455.94 Q262.057 1452.37 258.423 1452.37 M258.423 1448.67 Q264.233 1448.67 267.289 1453.27 Q270.368 1457.86 270.368 1466.61 Q270.368 1475.33 267.289 1479.94 Q264.233 1484.52 258.423 1484.52 Q252.613 1484.52 249.534 1479.94 Q246.479 1475.33 246.479 1466.61 Q246.479 1457.86 249.534 1453.27 Q252.613 1448.67 258.423 1448.67 Z" fill="#000000" fill-rule="evenodd" fill-opacity="1" /><path clip-path="url(#clip980)" d="M727.512 1452.37 Q723.901 1452.37 722.072 1455.94 Q720.267 1459.48 720.267 1466.61 Q720.267 1473.71 722.072 1477.28 Q723.901 1480.82 727.512 1480.82 Q731.146 1480.82 732.952 1477.28 Q734.781 1473.71 734.781 1466.61 Q734.781 1459.48 732.952 1455.94 Q731.146 1452.37 727.512 1452.37 M727.512 1448.67 Q733.322 1448.67 736.378 1453.27 Q739.456 1457.86 739.456 1466.61 Q739.456 1475.33 736.378 1479.94 Q733.322 1484.52 727.512 1484.52 Q721.702 1484.52 718.623 1479.94 Q715.568 1475.33 715.568 1466.61 Q715.568 1457.86 718.623 1453.27 Q721.702 1448.67 727.512 1448.67 Z" fill="#000000" fill-rule="evenodd" fill-opacity="1" /><path clip-path="url(#clip980)" d="M747.674 1477.97 L752.558 1477.97 L752.558 1483.85 L747.674 1483.85 L747.674 1477.97 Z" fill="#000000" fill-rule="evenodd" fill-opacity="1" /><path clip-path="url(#clip980)" d="M762.79 1449.29 L781.146 1449.29 L781.146 1453.23 L767.072 1453.23 L767.072 1461.7 Q768.091 1461.35 769.109 1461.19 Q770.128 1461 771.146 1461 Q776.933 1461 780.313 1464.18 Q783.692 1467.35 783.692 1472.76 Q783.692 1478.34 780.22 1481.44 Q776.748 1484.52 770.429 1484.52 Q768.253 1484.52 765.984 1484.15 Q763.739 1483.78 761.331 1483.04 L761.331 1478.34 Q763.415 1479.48 765.637 1480.03 Q767.859 1480.59 770.336 1480.59 Q774.341 1480.59 776.678 1478.48 Q779.016 1476.38 779.016 1472.76 Q779.016 1469.15 776.678 1467.05 Q774.341 1464.94 770.336 1464.94 Q768.461 1464.94 766.586 1465.36 Q764.734 1465.77 762.79 1466.65 L762.79 1449.29 Z" fill="#000000" fill-rule="evenodd" fill-opacity="1" /><path clip-path="url(#clip980)" d="M1230.61 1479.92 L1238.24 1479.92 L1238.24 1453.55 L1229.93 1455.22 L1229.93 1450.96 L1238.2 1449.29 L1242.87 1449.29 L1242.87 1479.92 L1250.51 1479.92 L1250.51 1483.85 L1230.61 1483.85 L1230.61 1479.92 Z" fill="#000000" fill-rule="evenodd" fill-opacity="1" /><path clip-path="url(#clip980)" d="M1259.96 1477.97 L1264.84 1477.97 L1264.84 1483.85 L1259.96 1483.85 L1259.96 1477.97 Z" fill="#000000" fill-rule="evenodd" fill-opacity="1" /><path clip-path="url(#clip980)" d="M1285.03 1452.37 Q1281.42 1452.37 1279.59 1455.94 Q1277.78 1459.48 1277.78 1466.61 Q1277.78 1473.71 1279.59 1477.28 Q1281.42 1480.82 1285.03 1480.82 Q1288.66 1480.82 1290.47 1477.28 Q1292.29 1473.71 1292.29 1466.61 Q1292.29 1459.48 1290.47 1455.94 Q1288.66 1452.37 1285.03 1452.37 M1285.03 1448.67 Q1290.84 1448.67 1293.89 1453.27 Q1296.97 1457.86 1296.97 1466.61 Q1296.97 1475.33 1293.89 1479.94 Q1290.84 1484.52 1285.03 1484.52 Q1279.22 1484.52 1276.14 1479.94 Q1273.08 1475.33 1273.08 1466.61 Q1273.08 1457.86 1276.14 1453.27 Q1279.22 1448.67 1285.03 1448.67 Z" fill="#000000" fill-rule="evenodd" fill-opacity="1" /><path clip-path="url(#clip980)" d="M1744.93 1479.92 L1752.56 1479.92 L1752.56 1453.55 L1744.25 1455.22 L1744.25 1450.96 L1752.52 1449.29 L1757.19 1449.29 L1757.19 1479.92 L1764.83 1479.92 L1764.83 1483.85 L1744.93 1483.85 L1744.93 1479.92 Z" fill="#000000" fill-rule="evenodd" fill-opacity="1" /><path clip-path="url(#clip980)" d="M1774.28 1477.97 L1779.16 1477.97 L1779.16 1483.85 L1774.28 1483.85 L1774.28 1477.97 Z" fill="#000000" fill-rule="evenodd" fill-opacity="1" /><path clip-path="url(#clip980)" d="M1789.39 1449.29 L1807.75 1449.29 L1807.75 1453.23 L1793.68 1453.23 L1793.68 1461.7 Q1794.69 1461.35 1795.71 1461.19 Q1796.73 1461 1797.75 1461 Q1803.54 1461 1806.92 1464.18 Q1810.3 1467.35 1810.3 1472.76 Q1810.3 1478.34 1806.82 1481.44 Q1803.35 1484.52 1797.03 1484.52 Q1794.86 1484.52 1792.59 1484.15 Q1790.34 1483.78 1787.93 1483.04 L1787.93 1478.34 Q1790.02 1479.48 1792.24 1480.03 Q1794.46 1480.59 1796.94 1480.59 Q1800.94 1480.59 1803.28 1478.48 Q1805.62 1476.38 1805.62 1472.76 Q1805.62 1469.15 1803.28 1467.05 Q1800.94 1464.94 1796.94 1464.94 Q1795.06 1464.94 1793.19 1465.36 Q1791.34 1465.77 1789.39 1466.65 L1789.39 1449.29 Z" fill="#000000" fill-rule="evenodd" fill-opacity="1" /><path clip-path="url(#clip980)" d="M2262.34 1479.92 L2278.66 1479.92 L2278.66 1483.85 L2256.71 1483.85 L2256.71 1479.92 Q2259.37 1477.16 2263.96 1472.53 Q2268.56 1467.88 2269.74 1466.54 Q2271.99 1464.01 2272.87 1462.28 Q2273.77 1460.52 2273.77 1458.83 Q2273.77 1456.07 2271.83 1454.34 Q2269.91 1452.6 2266.8 1452.6 Q2264.6 1452.6 2262.15 1453.37 Q2259.72 1454.13 2256.94 1455.68 L2256.94 1450.96 Q2259.77 1449.82 2262.22 1449.25 Q2264.67 1448.67 2266.71 1448.67 Q2272.08 1448.67 2275.28 1451.35 Q2278.47 1454.04 2278.47 1458.53 Q2278.47 1460.66 2277.66 1462.58 Q2276.87 1464.48 2274.77 1467.07 Q2274.19 1467.74 2271.09 1470.96 Q2267.98 1474.15 2262.34 1479.92 Z" fill="#000000" fill-rule="evenodd" fill-opacity="1" /><path clip-path="url(#clip980)" d="M2288.47 1477.97 L2293.35 1477.97 L2293.35 1483.85 L2288.47 1483.85 L2288.47 1477.97 Z" fill="#000000" fill-rule="evenodd" fill-opacity="1" /><path clip-path="url(#clip980)" d="M2313.54 1452.37 Q2309.93 1452.37 2308.1 1455.94 Q2306.29 1459.48 2306.29 1466.61 Q2306.29 1473.71 2308.1 1477.28 Q2309.93 1480.82 2313.54 1480.82 Q2317.17 1480.82 2318.98 1477.28 Q2320.81 1473.71 2320.81 1466.61 Q2320.81 1459.48 2318.98 1455.94 Q2317.17 1452.37 2313.54 1452.37 M2313.54 1448.67 Q2319.35 1448.67 2322.4 1453.27 Q2325.48 1457.86 2325.48 1466.61 Q2325.48 1475.33 2322.4 1479.94 Q2319.35 1484.52 2313.54 1484.52 Q2307.73 1484.52 2304.65 1479.94 Q2301.59 1475.33 2301.59 1466.61 Q2301.59 1457.86 2304.65 1453.27 Q2307.73 1448.67 2313.54 1448.67 Z" fill="#000000" fill-rule="evenodd" fill-opacity="1" /><path clip-path="url(#clip980)" d="M971.187 1522.27 L971.187 1532.4 L983.25 1532.4 L983.25 1536.95 L971.187 1536.95 L971.187 1556.3 Q971.187 1560.66 972.365 1561.9 Q973.574 1563.14 977.234 1563.14 L983.25 1563.14 L983.25 1568.04 L977.234 1568.04 Q970.455 1568.04 967.877 1565.53 Q965.299 1562.98 965.299 1556.3 L965.299 1536.95 L961.002 1536.95 L961.002 1532.4 L965.299 1532.4 L965.299 1522.27 L971.187 1522.27 Z" fill="#000000" fill-rule="evenodd" fill-opacity="1" /><path clip-path="url(#clip980)" d="M1011.61 1537.87 Q1010.62 1537.3 1009.44 1537.04 Q1008.3 1536.76 1006.9 1536.76 Q1001.93 1536.76 999.26 1540 Q996.618 1543.22 996.618 1549.27 L996.618 1568.04 L990.73 1568.04 L990.73 1532.4 L996.618 1532.4 L996.618 1537.93 Q998.464 1534.69 1001.42 1533.13 Q1004.38 1531.54 1008.62 1531.54 Q1009.22 1531.54 1009.95 1531.63 Q1010.69 1531.7 1011.58 1531.85 L1011.61 1537.87 Z" fill="#000000" fill-rule="evenodd" fill-opacity="1" /><path clip-path="url(#clip980)" d="M1033.95 1550.12 Q1026.86 1550.12 1024.12 1551.75 Q1021.38 1553.37 1021.38 1557.29 Q1021.38 1560.4 1023.42 1562.25 Q1025.49 1564.07 1029.02 1564.07 Q1033.89 1564.07 1036.82 1560.63 Q1039.78 1557.16 1039.78 1551.43 L1039.78 1550.12 L1033.95 1550.12 M1045.63 1547.71 L1045.63 1568.04 L1039.78 1568.04 L1039.78 1562.63 Q1037.77 1565.88 1034.78 1567.44 Q1031.79 1568.97 1027.46 1568.97 Q1021.99 1568.97 1018.74 1565.91 Q1015.52 1562.82 1015.52 1557.67 Q1015.52 1551.65 1019.53 1548.6 Q1023.58 1545.54 1031.57 1545.54 L1039.78 1545.54 L1039.78 1544.97 Q1039.78 1540.93 1037.1 1538.73 Q1034.46 1536.5 1029.66 1536.5 Q1026.6 1536.5 1023.7 1537.23 Q1020.81 1537.97 1018.13 1539.43 L1018.13 1534.02 Q1021.35 1532.78 1024.37 1532.17 Q1027.4 1531.54 1030.26 1531.54 Q1037.99 1531.54 1041.81 1535.55 Q1045.63 1539.56 1045.63 1547.71 Z" fill="#000000" fill-rule="evenodd" fill-opacity="1" /><path clip-path="url(#clip980)" d="M1057.7 1532.4 L1063.55 1532.4 L1063.55 1568.68 Q1063.55 1575.49 1060.94 1578.55 Q1058.37 1581.6 1052.6 1581.6 L1050.38 1581.6 L1050.38 1576.64 L1051.94 1576.64 Q1055.28 1576.64 1056.49 1575.08 Q1057.7 1573.55 1057.7 1568.68 L1057.7 1532.4 M1057.7 1518.52 L1063.55 1518.52 L1063.55 1525.93 L1057.7 1525.93 L1057.7 1518.52 Z" fill="#000000" fill-rule="evenodd" fill-opacity="1" /><path clip-path="url(#clip980)" d="M1106.3 1548.76 L1106.3 1551.62 L1079.37 1551.62 Q1079.75 1557.67 1083 1560.85 Q1086.28 1564 1092.1 1564 Q1095.48 1564 1098.63 1563.17 Q1101.81 1562.35 1104.93 1560.69 L1104.93 1566.23 Q1101.78 1567.57 1098.47 1568.27 Q1095.16 1568.97 1091.75 1568.97 Q1083.22 1568.97 1078.23 1564 Q1073.26 1559.04 1073.26 1550.57 Q1073.26 1541.82 1077.97 1536.69 Q1082.71 1531.54 1090.73 1531.54 Q1097.93 1531.54 1102.1 1536.18 Q1106.3 1540.8 1106.3 1548.76 M1100.44 1547.04 Q1100.38 1542.23 1097.74 1539.37 Q1095.13 1536.5 1090.8 1536.5 Q1085.9 1536.5 1082.94 1539.27 Q1080.01 1542.04 1079.56 1547.07 L1100.44 1547.04 Z" fill="#000000" fill-rule="evenodd" fill-opacity="1" /><path clip-path="url(#clip980)" d="M1141.57 1533.76 L1141.57 1539.24 Q1139.08 1537.87 1136.57 1537.2 Q1134.09 1536.5 1131.54 1536.5 Q1125.84 1536.5 1122.69 1540.13 Q1119.54 1543.73 1119.54 1550.25 Q1119.54 1556.78 1122.69 1560.4 Q1125.84 1564 1131.54 1564 Q1134.09 1564 1136.57 1563.33 Q1139.08 1562.63 1141.57 1561.26 L1141.57 1566.68 Q1139.11 1567.82 1136.47 1568.39 Q1133.86 1568.97 1130.9 1568.97 Q1122.85 1568.97 1118.11 1563.91 Q1113.36 1558.85 1113.36 1550.25 Q1113.36 1541.53 1118.14 1536.53 Q1122.95 1531.54 1131.28 1531.54 Q1133.99 1531.54 1136.57 1532.11 Q1139.15 1532.65 1141.57 1533.76 Z" fill="#000000" fill-rule="evenodd" fill-opacity="1" /><path clip-path="url(#clip980)" d="M1157.54 1522.27 L1157.54 1532.4 L1169.61 1532.4 L1169.61 1536.95 L1157.54 1536.95 L1157.54 1556.3 Q1157.54 1560.66 1158.72 1561.9 Q1159.93 1563.14 1163.59 1563.14 L1169.61 1563.14 L1169.61 1568.04 L1163.59 1568.04 Q1156.81 1568.04 1154.23 1565.53 Q1151.65 1562.98 1151.65 1556.3 L1151.65 1536.95 L1147.36 1536.95 L1147.36 1532.4 L1151.65 1532.4 L1151.65 1522.27 L1157.54 1522.27 Z" fill="#000000" fill-rule="evenodd" fill-opacity="1" /><path clip-path="url(#clip980)" d="M1191.12 1536.5 Q1186.41 1536.5 1183.67 1540.19 Q1180.94 1543.85 1180.94 1550.25 Q1180.94 1556.65 1183.64 1560.34 Q1186.38 1564 1191.12 1564 Q1195.8 1564 1198.54 1560.31 Q1201.28 1556.62 1201.28 1550.25 Q1201.28 1543.92 1198.54 1540.23 Q1195.8 1536.5 1191.12 1536.5 M1191.12 1531.54 Q1198.76 1531.54 1203.12 1536.5 Q1207.48 1541.47 1207.48 1550.25 Q1207.48 1559 1203.12 1564 Q1198.76 1568.97 1191.12 1568.97 Q1183.45 1568.97 1179.09 1564 Q1174.76 1559 1174.76 1550.25 Q1174.76 1541.47 1179.09 1536.5 Q1183.45 1531.54 1191.12 1531.54 Z" fill="#000000" fill-rule="evenodd" fill-opacity="1" /><path clip-path="url(#clip980)" d="M1237.85 1537.87 Q1236.86 1537.3 1235.68 1537.04 Q1234.54 1536.76 1233.14 1536.76 Q1228.17 1536.76 1225.5 1540 Q1222.86 1543.22 1222.86 1549.27 L1222.86 1568.04 L1216.97 1568.04 L1216.97 1532.4 L1222.86 1532.4 L1222.86 1537.93 Q1224.7 1534.69 1227.66 1533.13 Q1230.62 1531.54 1234.85 1531.54 Q1235.46 1531.54 1236.19 1531.63 Q1236.92 1531.7 1237.81 1531.85 L1237.85 1537.87 Z" fill="#000000" fill-rule="evenodd" fill-opacity="1" /><path clip-path="url(#clip980)" d="M1258.82 1571.35 Q1256.34 1577.72 1253.98 1579.66 Q1251.63 1581.6 1247.68 1581.6 L1243 1581.6 L1243 1576.7 L1246.44 1576.7 Q1248.86 1576.7 1250.2 1575.56 Q1251.53 1574.41 1253.16 1570.14 L1254.21 1567.47 L1239.79 1532.4 L1245.99 1532.4 L1257.13 1560.28 L1268.27 1532.4 L1274.48 1532.4 L1258.82 1571.35 Z" fill="#000000" fill-rule="evenodd" fill-opacity="1" /><path clip-path="url(#clip980)" d="M1326.74 1537.81 L1326.74 1518.52 L1332.6 1518.52 L1332.6 1568.04 L1326.74 1568.04 L1326.74 1562.7 Q1324.9 1565.88 1322.06 1567.44 Q1319.26 1568.97 1315.32 1568.97 Q1308.86 1568.97 1304.78 1563.81 Q1300.74 1558.65 1300.74 1550.25 Q1300.74 1541.85 1304.78 1536.69 Q1308.86 1531.54 1315.32 1531.54 Q1319.26 1531.54 1322.06 1533.1 Q1324.9 1534.62 1326.74 1537.81 M1306.79 1550.25 Q1306.79 1556.71 1309.43 1560.4 Q1312.1 1564.07 1316.75 1564.07 Q1321.4 1564.07 1324.07 1560.4 Q1326.74 1556.71 1326.74 1550.25 Q1326.74 1543.79 1324.07 1540.13 Q1321.4 1536.44 1316.75 1536.44 Q1312.1 1536.44 1309.43 1540.13 Q1306.79 1543.79 1306.79 1550.25 Z" fill="#000000" fill-rule="evenodd" fill-opacity="1" /><path clip-path="url(#clip980)" d="M1344.06 1553.98 L1344.06 1532.4 L1349.91 1532.4 L1349.91 1553.75 Q1349.91 1558.81 1351.89 1561.36 Q1353.86 1563.87 1357.81 1563.87 Q1362.55 1563.87 1365.29 1560.85 Q1368.06 1557.83 1368.06 1552.61 L1368.06 1532.4 L1373.91 1532.4 L1373.91 1568.04 L1368.06 1568.04 L1368.06 1562.57 Q1365.92 1565.82 1363.09 1567.41 Q1360.29 1568.97 1356.57 1568.97 Q1350.42 1568.97 1347.24 1565.15 Q1344.06 1561.33 1344.06 1553.98 M1358.79 1531.54 L1358.79 1531.54 Z" fill="#000000" fill-rule="evenodd" fill-opacity="1" /><path clip-path="url(#clip980)" d="M1406.63 1537.87 Q1405.65 1537.3 1404.47 1537.04 Q1403.32 1536.76 1401.92 1536.76 Q1396.96 1536.76 1394.28 1540 Q1391.64 1543.22 1391.64 1549.27 L1391.64 1568.04 L1385.75 1568.04 L1385.75 1532.4 L1391.64 1532.4 L1391.64 1537.93 Q1393.49 1534.69 1396.45 1533.13 Q1399.41 1531.54 1403.64 1531.54 Q1404.25 1531.54 1404.98 1531.63 Q1405.71 1531.7 1406.6 1531.85 L1406.63 1537.87 Z" fill="#000000" fill-rule="evenodd" fill-opacity="1" /><path clip-path="url(#clip980)" d="M1428.98 1550.12 Q1421.88 1550.12 1419.14 1551.75 Q1416.4 1553.37 1416.4 1557.29 Q1416.4 1560.4 1418.44 1562.25 Q1420.51 1564.07 1424.04 1564.07 Q1428.91 1564.07 1431.84 1560.63 Q1434.8 1557.16 1434.8 1551.43 L1434.8 1550.12 L1428.98 1550.12 M1440.66 1547.71 L1440.66 1568.04 L1434.8 1568.04 L1434.8 1562.63 Q1432.8 1565.88 1429.8 1567.44 Q1426.81 1568.97 1422.48 1568.97 Q1417.01 1568.97 1413.76 1565.91 Q1410.55 1562.82 1410.55 1557.67 Q1410.55 1551.65 1414.56 1548.6 Q1418.6 1545.54 1426.59 1545.54 L1434.8 1545.54 L1434.8 1544.97 Q1434.8 1540.93 1432.13 1538.73 Q1429.49 1536.5 1424.68 1536.5 Q1421.62 1536.5 1418.73 1537.23 Q1415.83 1537.97 1413.16 1539.43 L1413.16 1534.02 Q1416.37 1532.78 1419.4 1532.17 Q1422.42 1531.54 1425.28 1531.54 Q1433.02 1531.54 1436.84 1535.55 Q1440.66 1539.56 1440.66 1547.71 Z" fill="#000000" fill-rule="evenodd" fill-opacity="1" /><path clip-path="url(#clip980)" d="M1458.51 1522.27 L1458.51 1532.4 L1470.58 1532.4 L1470.58 1536.95 L1458.51 1536.95 L1458.51 1556.3 Q1458.51 1560.66 1459.69 1561.9 Q1460.9 1563.14 1464.56 1563.14 L1470.58 1563.14 L1470.58 1568.04 L1464.56 1568.04 Q1457.78 1568.04 1455.2 1565.53 Q1452.63 1562.98 1452.63 1556.3 L1452.63 1536.95 L1448.33 1536.95 L1448.33 1532.4 L1452.63 1532.4 L1452.63 1522.27 L1458.51 1522.27 Z" fill="#000000" fill-rule="evenodd" fill-opacity="1" /><path clip-path="url(#clip980)" d="M1478.28 1532.4 L1484.14 1532.4 L1484.14 1568.04 L1478.28 1568.04 L1478.28 1532.4 M1478.28 1518.52 L1484.14 1518.52 L1484.14 1525.93 L1478.28 1525.93 L1478.28 1518.52 Z" fill="#000000" fill-rule="evenodd" fill-opacity="1" /><path clip-path="url(#clip980)" d="M1510.2 1536.5 Q1505.49 1536.5 1502.76 1540.19 Q1500.02 1543.85 1500.02 1550.25 Q1500.02 1556.65 1502.72 1560.34 Q1505.46 1564 1510.2 1564 Q1514.88 1564 1517.62 1560.31 Q1520.36 1556.62 1520.36 1550.25 Q1520.36 1543.92 1517.62 1540.23 Q1514.88 1536.5 1510.2 1536.5 M1510.2 1531.54 Q1517.84 1531.54 1522.2 1536.5 Q1526.56 1541.47 1526.56 1550.25 Q1526.56 1559 1522.2 1564 Q1517.84 1568.97 1510.2 1568.97 Q1502.53 1568.97 1498.17 1564 Q1493.84 1559 1493.84 1550.25 Q1493.84 1541.47 1498.17 1536.5 Q1502.53 1531.54 1510.2 1531.54 Z" fill="#000000" fill-rule="evenodd" fill-opacity="1" /><path clip-path="url(#clip980)" d="M1565.9 1546.53 L1565.9 1568.04 L1560.05 1568.04 L1560.05 1546.72 Q1560.05 1541.66 1558.07 1539.14 Q1556.1 1536.63 1552.15 1536.63 Q1547.41 1536.63 1544.67 1539.65 Q1541.94 1542.68 1541.94 1547.9 L1541.94 1568.04 L1536.05 1568.04 L1536.05 1532.4 L1541.94 1532.4 L1541.94 1537.93 Q1544.04 1534.72 1546.87 1533.13 Q1549.73 1531.54 1553.46 1531.54 Q1559.6 1531.54 1562.75 1535.36 Q1565.9 1539.14 1565.9 1546.53 Z" fill="#000000" fill-rule="evenodd" fill-opacity="1" /><polyline clip-path="url(#clip982)" style="stroke:#000000; stroke-linecap:butt; stroke-linejoin:round; stroke-width:2; stroke-opacity:0.1; fill:none" points="
  174.149,1384.24 2352.76,1384.24 
  "/>
<polyline clip-path="url(#clip982)" style="stroke:#000000; stroke-linecap:butt; stroke-linejoin:round; stroke-width:2; stroke-opacity:0.1; fill:none" points="
  174.149,1032.01 2352.76,1032.01 
  "/>
<polyline clip-path="url(#clip982)" style="stroke:#000000; stroke-linecap:butt; stroke-linejoin:round; stroke-width:2; stroke-opacity:0.1; fill:none" points="
  174.149,679.791 2352.76,679.791 
  "/>
<polyline clip-path="url(#clip982)" style="stroke:#000000; stroke-linecap:butt; stroke-linejoin:round; stroke-width:2; stroke-opacity:0.1; fill:none" points="
  174.149,327.567 2352.76,327.567 
  "/>
<polyline clip-path="url(#clip980)" style="stroke:#000000; stroke-linecap:butt; stroke-linejoin:round; stroke-width:4; stroke-opacity:1; fill:none" points="
  174.149,1423.18 174.149,47.2441 
  "/>
<polyline clip-path="url(#clip980)" style="stroke:#000000; stroke-linecap:butt; stroke-linejoin:round; stroke-width:4; stroke-opacity:1; fill:none" points="
  174.149,1384.24 200.292,1384.24 
  "/>
<polyline clip-path="url(#clip980)" style="stroke:#000000; stroke-linecap:butt; stroke-linejoin:round; stroke-width:4; stroke-opacity:1; fill:none" points="
  174.149,1032.01 200.292,1032.01 
  "/>
<polyline clip-path="url(#clip980)" style="stroke:#000000; stroke-linecap:butt; stroke-linejoin:round; stroke-width:4; stroke-opacity:1; fill:none" points="
  174.149,679.791 200.292,679.791 
  "/>
<polyline clip-path="url(#clip980)" style="stroke:#000000; stroke-linecap:butt; stroke-linejoin:round; stroke-width:4; stroke-opacity:1; fill:none" points="
  174.149,327.567 200.292,327.567 
  "/>
<path clip-path="url(#clip980)" d="M126.205 1370.04 Q122.593 1370.04 120.765 1373.6 Q118.959 1377.14 118.959 1384.27 Q118.959 1391.38 120.765 1394.94 Q122.593 1398.49 126.205 1398.49 Q129.839 1398.49 131.644 1394.94 Q133.473 1391.38 133.473 1384.27 Q133.473 1377.14 131.644 1373.6 Q129.839 1370.04 126.205 1370.04 M126.205 1366.33 Q132.015 1366.33 135.07 1370.94 Q138.149 1375.52 138.149 1384.27 Q138.149 1393 135.07 1397.61 Q132.015 1402.19 126.205 1402.19 Q120.394 1402.19 117.316 1397.61 Q114.26 1393 114.26 1384.27 Q114.26 1375.52 117.316 1370.94 Q120.394 1366.33 126.205 1366.33 Z" fill="#000000" fill-rule="evenodd" fill-opacity="1" /><path clip-path="url(#clip980)" d="M118.242 1045.36 L125.88 1045.36 L125.88 1018.99 L117.57 1020.66 L117.57 1016.4 L125.834 1014.73 L130.51 1014.73 L130.51 1045.36 L138.149 1045.36 L138.149 1049.29 L118.242 1049.29 L118.242 1045.36 Z" fill="#000000" fill-rule="evenodd" fill-opacity="1" /><path clip-path="url(#clip980)" d="M121.83 693.136 L138.149 693.136 L138.149 697.071 L116.205 697.071 L116.205 693.136 Q118.867 690.381 123.45 685.751 Q128.056 681.099 129.237 679.756 Q131.482 677.233 132.362 675.497 Q133.265 673.737 133.265 672.048 Q133.265 669.293 131.32 667.557 Q129.399 665.821 126.297 665.821 Q124.098 665.821 121.644 666.585 Q119.214 667.349 116.436 668.9 L116.436 664.177 Q119.26 663.043 121.714 662.464 Q124.168 661.886 126.205 661.886 Q131.575 661.886 134.769 664.571 Q137.964 667.256 137.964 671.747 Q137.964 673.876 137.154 675.798 Q136.367 677.696 134.26 680.288 Q133.681 680.96 130.58 684.177 Q127.478 687.372 121.83 693.136 Z" fill="#000000" fill-rule="evenodd" fill-opacity="1" /><path clip-path="url(#clip980)" d="M131.019 326.213 Q134.376 326.93 136.251 329.199 Q138.149 331.467 138.149 334.801 Q138.149 339.916 134.63 342.717 Q131.112 345.518 124.63 345.518 Q122.455 345.518 120.14 345.078 Q117.848 344.662 115.394 343.805 L115.394 339.291 Q117.339 340.426 119.654 341.004 Q121.968 341.583 124.492 341.583 Q128.89 341.583 131.181 339.847 Q133.496 338.111 133.496 334.801 Q133.496 331.745 131.343 330.032 Q129.214 328.296 125.394 328.296 L121.367 328.296 L121.367 324.453 L125.58 324.453 Q129.029 324.453 130.857 323.088 Q132.686 321.699 132.686 319.106 Q132.686 316.444 130.788 315.032 Q128.913 313.597 125.394 313.597 Q123.473 313.597 121.274 314.014 Q119.075 314.43 116.436 315.31 L116.436 311.143 Q119.098 310.403 121.413 310.032 Q123.751 309.662 125.811 309.662 Q131.135 309.662 134.237 312.092 Q137.339 314.5 137.339 318.62 Q137.339 321.491 135.695 323.481 Q134.052 325.449 131.019 326.213 Z" fill="#000000" fill-rule="evenodd" fill-opacity="1" /><path clip-path="url(#clip980)" d="M35.1993 1120.99 Q31.2526 1118.79 29.3747 1115.74 Q27.4968 1112.68 27.4968 1108.54 Q27.4968 1102.97 31.4117 1099.95 Q35.2948 1096.93 42.4881 1096.93 L64.0042 1096.93 L64.0042 1102.82 L42.679 1102.82 Q37.5546 1102.82 35.072 1104.63 Q32.5894 1106.44 32.5894 1110.17 Q32.5894 1114.72 35.6131 1117.36 Q38.6368 1120 43.8567 1120 L64.0042 1120 L64.0042 1125.89 L42.679 1125.89 Q37.5228 1125.89 35.072 1127.71 Q32.5894 1129.52 32.5894 1133.31 Q32.5894 1137.8 35.6449 1140.44 Q38.6686 1143.08 43.8567 1143.08 L64.0042 1143.08 L64.0042 1148.97 L28.3562 1148.97 L28.3562 1143.08 L33.8944 1143.08 Q30.616 1141.07 29.0564 1138.27 Q27.4968 1135.47 27.4968 1131.62 Q27.4968 1127.74 29.4702 1125.03 Q31.4436 1122.29 35.1993 1120.99 Z" fill="#000000" fill-rule="evenodd" fill-opacity="1" /><path clip-path="url(#clip980)" d="M49.9359 1085.85 L28.3562 1085.85 L28.3562 1079.99 L49.7131 1079.99 Q54.7739 1079.99 57.3202 1078.02 Q59.8346 1076.05 59.8346 1072.1 Q59.8346 1067.36 56.8109 1064.62 Q53.7872 1061.85 48.5673 1061.85 L28.3562 1061.85 L28.3562 1056 L64.0042 1056 L64.0042 1061.85 L58.5296 1061.85 Q61.7762 1063.98 63.3676 1066.82 Q64.9272 1069.62 64.9272 1073.34 Q64.9272 1079.49 61.1078 1082.67 Q57.2883 1085.85 49.9359 1085.85 M27.4968 1071.11 L27.4968 1071.11 Z" fill="#000000" fill-rule="evenodd" fill-opacity="1" /><path clip-path="url(#clip980)" d="M18.2347 1038.14 L28.3562 1038.14 L28.3562 1026.08 L32.9077 1026.08 L32.9077 1038.14 L52.2594 1038.14 Q56.6199 1038.14 57.8613 1036.96 Q59.1026 1035.75 59.1026 1032.09 L59.1026 1026.08 L64.0042 1026.08 L64.0042 1032.09 Q64.0042 1038.87 61.4897 1041.45 Q58.9434 1044.03 52.2594 1044.03 L32.9077 1044.03 L32.9077 1048.33 L28.3562 1048.33 L28.3562 1044.03 L18.2347 1044.03 L18.2347 1038.14 Z" fill="#000000" fill-rule="evenodd" fill-opacity="1" /><path clip-path="url(#clip980)" d="M49.9359 1018.98 L28.3562 1018.98 L28.3562 1013.12 L49.7131 1013.12 Q54.7739 1013.12 57.3202 1011.15 Q59.8346 1009.18 59.8346 1005.23 Q59.8346 1000.49 56.8109 997.75 Q53.7872 994.981 48.5673 994.981 L28.3562 994.981 L28.3562 989.124 L64.0042 989.124 L64.0042 994.981 L58.5296 994.981 Q61.7762 997.113 63.3676 999.946 Q64.9272 1002.75 64.9272 1006.47 Q64.9272 1012.61 61.1078 1015.8 Q57.2883 1018.98 49.9359 1018.98 M27.4968 1004.24 L27.4968 1004.24 Z" fill="#000000" fill-rule="evenodd" fill-opacity="1" /><path clip-path="url(#clip980)" d="M46.0847 960.86 Q46.0847 967.958 47.7079 970.695 Q49.3312 973.433 53.2461 973.433 Q56.3653 973.433 58.2114 971.396 Q60.0256 969.327 60.0256 965.794 Q60.0256 960.924 56.5881 957.996 Q53.1188 955.036 47.3897 955.036 L46.0847 955.036 L46.0847 960.86 M43.6657 949.179 L64.0042 949.179 L64.0042 955.036 L58.5933 955.036 Q61.8398 957.041 63.3994 960.033 Q64.9272 963.025 64.9272 967.353 Q64.9272 972.828 61.8716 976.074 Q58.7843 979.289 53.6281 979.289 Q47.6125 979.289 44.5569 975.279 Q41.5014 971.236 41.5014 963.247 L41.5014 955.036 L40.9285 955.036 Q36.8862 955.036 34.6901 957.709 Q32.4621 960.351 32.4621 965.157 Q32.4621 968.213 33.1941 971.109 Q33.9262 974.006 35.3903 976.679 L29.9795 976.679 Q28.7381 973.464 28.1334 970.441 Q27.4968 967.417 27.4968 964.552 Q27.4968 956.818 31.5072 952.999 Q35.5176 949.179 43.6657 949.179 Z" fill="#000000" fill-rule="evenodd" fill-opacity="1" /><path clip-path="url(#clip980)" d="M14.479 937.116 L14.479 931.26 L64.0042 931.26 L64.0042 937.116 L14.479 937.116 Z" fill="#000000" fill-rule="evenodd" fill-opacity="1" /><path clip-path="url(#clip980)" d="M28.3562 898.285 L28.3562 892.429 L64.0042 892.429 L64.0042 898.285 L28.3562 898.285 M14.479 898.285 L14.479 892.429 L21.895 892.429 L21.895 898.285 L14.479 898.285 Z" fill="#000000" fill-rule="evenodd" fill-opacity="1" /><path clip-path="url(#clip980)" d="M42.4881 850.543 L64.0042 850.543 L64.0042 856.399 L42.679 856.399 Q37.6183 856.399 35.1038 858.372 Q32.5894 860.346 32.5894 864.293 Q32.5894 869.035 35.6131 871.772 Q38.6368 874.51 43.8567 874.51 L64.0042 874.51 L64.0042 880.398 L28.3562 880.398 L28.3562 874.51 L33.8944 874.51 Q30.6797 872.409 29.0883 869.576 Q27.4968 866.712 27.4968 862.988 Q27.4968 856.845 31.3163 853.694 Q35.1038 850.543 42.4881 850.543 Z" fill="#000000" fill-rule="evenodd" fill-opacity="1" /><path clip-path="url(#clip980)" d="M14.479 820.815 L19.3487 820.815 L19.3487 826.417 Q19.3487 829.568 20.6219 830.809 Q21.895 832.018 25.2052 832.018 L28.3562 832.018 L28.3562 822.374 L32.9077 822.374 L32.9077 832.018 L64.0042 832.018 L64.0042 837.907 L32.9077 837.907 L32.9077 843.509 L28.3562 843.509 L28.3562 837.907 L25.8736 837.907 Q19.9216 837.907 17.2162 835.138 Q14.479 832.369 14.479 826.353 L14.479 820.815 Z" fill="#000000" fill-rule="evenodd" fill-opacity="1" /><path clip-path="url(#clip980)" d="M32.4621 802.1 Q32.4621 806.81 36.1542 809.548 Q39.8145 812.285 46.212 812.285 Q52.6095 812.285 56.3017 809.579 Q59.9619 806.842 59.9619 802.1 Q59.9619 797.421 56.2698 794.684 Q52.5777 791.946 46.212 791.946 Q39.8781 791.946 36.186 794.684 Q32.4621 797.421 32.4621 802.1 M27.4968 802.1 Q27.4968 794.461 32.4621 790.1 Q37.4273 785.74 46.212 785.74 Q54.9649 785.74 59.9619 790.1 Q64.9272 794.461 64.9272 802.1 Q64.9272 809.77 59.9619 814.131 Q54.9649 818.459 46.212 818.459 Q37.4273 818.459 32.4621 814.131 Q27.4968 809.77 27.4968 802.1 Z" fill="#000000" fill-rule="evenodd" fill-opacity="1" /><path clip-path="url(#clip980)" d="M33.8307 755.375 Q33.2578 756.362 33.0032 757.54 Q32.7167 758.686 32.7167 760.086 Q32.7167 765.051 35.9632 767.725 Q39.1779 770.367 45.2253 770.367 L64.0042 770.367 L64.0042 776.255 L28.3562 776.255 L28.3562 770.367 L33.8944 770.367 Q30.6479 768.521 29.0883 765.56 Q27.4968 762.6 27.4968 758.367 Q27.4968 757.762 27.5923 757.03 Q27.656 756.298 27.8151 755.407 L33.8307 755.375 Z" fill="#000000" fill-rule="evenodd" fill-opacity="1" /><path clip-path="url(#clip980)" d="M35.1993 722.624 Q31.2526 720.428 29.3747 717.372 Q27.4968 714.317 27.4968 710.179 Q27.4968 704.609 31.4117 701.585 Q35.2948 698.561 42.4881 698.561 L64.0042 698.561 L64.0042 704.45 L42.679 704.45 Q37.5546 704.45 35.072 706.264 Q32.5894 708.078 32.5894 711.802 Q32.5894 716.354 35.6131 718.995 Q38.6368 721.637 43.8567 721.637 L64.0042 721.637 L64.0042 727.525 L42.679 727.525 Q37.5228 727.525 35.072 729.34 Q32.5894 731.154 32.5894 734.941 Q32.5894 739.429 35.6449 742.071 Q38.6686 744.713 43.8567 744.713 L64.0042 744.713 L64.0042 750.601 L28.3562 750.601 L28.3562 744.713 L33.8944 744.713 Q30.616 742.708 29.0564 739.907 Q27.4968 737.106 27.4968 733.255 Q27.4968 729.371 29.4702 726.666 Q31.4436 723.929 35.1993 722.624 Z" fill="#000000" fill-rule="evenodd" fill-opacity="1" /><path clip-path="url(#clip980)" d="M46.0847 670.68 Q46.0847 677.777 47.7079 680.515 Q49.3312 683.252 53.2461 683.252 Q56.3653 683.252 58.2114 681.215 Q60.0256 679.146 60.0256 675.613 Q60.0256 670.743 56.5881 667.815 Q53.1188 664.855 47.3897 664.855 L46.0847 664.855 L46.0847 670.68 M43.6657 658.999 L64.0042 658.999 L64.0042 664.855 L58.5933 664.855 Q61.8398 666.86 63.3994 669.852 Q64.9272 672.844 64.9272 677.173 Q64.9272 682.647 61.8716 685.894 Q58.7843 689.108 53.6281 689.108 Q47.6125 689.108 44.5569 685.098 Q41.5014 681.056 41.5014 673.067 L41.5014 664.855 L40.9285 664.855 Q36.8862 664.855 34.6901 667.529 Q32.4621 670.17 32.4621 674.976 Q32.4621 678.032 33.1941 680.928 Q33.9262 683.825 35.3903 686.498 L29.9795 686.498 Q28.7381 683.284 28.1334 680.26 Q27.4968 677.236 27.4968 674.372 Q27.4968 666.637 31.5072 662.818 Q35.5176 658.999 43.6657 658.999 Z" fill="#000000" fill-rule="evenodd" fill-opacity="1" /><path clip-path="url(#clip980)" d="M18.2347 641.143 L28.3562 641.143 L28.3562 629.08 L32.9077 629.08 L32.9077 641.143 L52.2594 641.143 Q56.6199 641.143 57.8613 639.965 Q59.1026 638.756 59.1026 635.095 L59.1026 629.08 L64.0042 629.08 L64.0042 635.095 Q64.0042 641.875 61.4897 644.453 Q58.9434 647.031 52.2594 647.031 L32.9077 647.031 L32.9077 651.328 L28.3562 651.328 L28.3562 647.031 L18.2347 647.031 L18.2347 641.143 Z" fill="#000000" fill-rule="evenodd" fill-opacity="1" /><path clip-path="url(#clip980)" d="M28.3562 621.377 L28.3562 615.521 L64.0042 615.521 L64.0042 621.377 L28.3562 621.377 M14.479 621.377 L14.479 615.521 L21.895 615.521 L21.895 621.377 L14.479 621.377 Z" fill="#000000" fill-rule="evenodd" fill-opacity="1" /><path clip-path="url(#clip980)" d="M32.4621 589.453 Q32.4621 594.164 36.1542 596.901 Q39.8145 599.638 46.212 599.638 Q52.6095 599.638 56.3017 596.933 Q59.9619 594.196 59.9619 589.453 Q59.9619 584.774 56.2698 582.037 Q52.5777 579.3 46.212 579.3 Q39.8781 579.3 36.186 582.037 Q32.4621 584.774 32.4621 589.453 M27.4968 589.453 Q27.4968 581.814 32.4621 577.454 Q37.4273 573.093 46.212 573.093 Q54.9649 573.093 59.9619 577.454 Q64.9272 581.814 64.9272 589.453 Q64.9272 597.124 59.9619 601.484 Q54.9649 605.813 46.212 605.813 Q37.4273 605.813 32.4621 601.484 Q27.4968 597.124 27.4968 589.453 Z" fill="#000000" fill-rule="evenodd" fill-opacity="1" /><path clip-path="url(#clip980)" d="M42.4881 533.753 L64.0042 533.753 L64.0042 539.61 L42.679 539.61 Q37.6183 539.61 35.1038 541.583 Q32.5894 543.556 32.5894 547.503 Q32.5894 552.246 35.6131 554.983 Q38.6368 557.72 43.8567 557.72 L64.0042 557.72 L64.0042 563.608 L28.3562 563.608 L28.3562 557.72 L33.8944 557.72 Q30.6797 555.619 29.0883 552.787 Q27.4968 549.922 27.4968 546.198 Q27.4968 540.055 31.3163 536.904 Q35.1038 533.753 42.4881 533.753 Z" fill="#000000" fill-rule="evenodd" fill-opacity="1" /><path clip-path="url(#clip980)" d="M14.5426 487.284 Q21.8632 491.549 29.0246 493.617 Q36.186 495.686 43.5384 495.686 Q50.8908 495.686 58.1159 493.617 Q65.3091 491.517 72.5979 487.284 L72.5979 492.376 Q65.1182 497.15 57.8931 499.538 Q50.668 501.893 43.5384 501.893 Q36.4406 501.893 29.2474 499.538 Q22.0542 497.182 14.5426 492.376 L14.5426 487.284 Z" fill="#000000" fill-rule="evenodd" fill-opacity="1" /><path clip-path="url(#clip980)" d="M42.4881 446.288 L64.0042 446.288 L64.0042 452.145 L42.679 452.145 Q37.6183 452.145 35.1038 454.118 Q32.5894 456.092 32.5894 460.038 Q32.5894 464.781 35.6131 467.518 Q38.6368 470.255 43.8567 470.255 L64.0042 470.255 L64.0042 476.144 L28.3562 476.144 L28.3562 470.255 L33.8944 470.255 Q30.6797 468.155 29.0883 465.322 Q27.4968 462.457 27.4968 458.733 Q27.4968 452.591 31.3163 449.439 Q35.1038 446.288 42.4881 446.288 Z" fill="#000000" fill-rule="evenodd" fill-opacity="1" /><path clip-path="url(#clip980)" d="M46.0847 418.407 Q46.0847 425.504 47.7079 428.242 Q49.3312 430.979 53.2461 430.979 Q56.3653 430.979 58.2114 428.942 Q60.0256 426.873 60.0256 423.34 Q60.0256 418.47 56.5881 415.542 Q53.1188 412.582 47.3897 412.582 L46.0847 412.582 L46.0847 418.407 M43.6657 406.726 L64.0042 406.726 L64.0042 412.582 L58.5933 412.582 Q61.8398 414.587 63.3994 417.579 Q64.9272 420.571 64.9272 424.9 Q64.9272 430.374 61.8716 433.621 Q58.7843 436.835 53.6281 436.835 Q47.6125 436.835 44.5569 432.825 Q41.5014 428.783 41.5014 420.794 L41.5014 412.582 L40.9285 412.582 Q36.8862 412.582 34.6901 415.256 Q32.4621 417.897 32.4621 422.704 Q32.4621 425.759 33.1941 428.655 Q33.9262 431.552 35.3903 434.225 L29.9795 434.225 Q28.7381 431.011 28.1334 427.987 Q27.4968 424.963 27.4968 422.099 Q27.4968 414.364 31.5072 410.545 Q35.5176 406.726 43.6657 406.726 Z" fill="#000000" fill-rule="evenodd" fill-opacity="1" /><path clip-path="url(#clip980)" d="M18.2347 388.87 L28.3562 388.87 L28.3562 376.807 L32.9077 376.807 L32.9077 388.87 L52.2594 388.87 Q56.6199 388.87 57.8613 387.692 Q59.1026 386.483 59.1026 382.822 L59.1026 376.807 L64.0042 376.807 L64.0042 382.822 Q64.0042 389.602 61.4897 392.18 Q58.9434 394.758 52.2594 394.758 L32.9077 394.758 L32.9077 399.055 L28.3562 399.055 L28.3562 394.758 L18.2347 394.758 L18.2347 388.87 Z" fill="#000000" fill-rule="evenodd" fill-opacity="1" /><path clip-path="url(#clip980)" d="M29.4065 346.379 L34.9447 346.379 Q33.6716 348.861 33.035 351.535 Q32.3984 354.209 32.3984 357.073 Q32.3984 361.434 33.7352 363.63 Q35.072 365.794 37.7456 365.794 Q39.7826 365.794 40.9603 364.235 Q42.1061 362.675 43.1565 357.964 L43.6021 355.959 Q44.9389 349.721 47.3897 347.111 Q49.8086 344.469 54.1691 344.469 Q59.1344 344.469 62.0308 348.416 Q64.9272 352.331 64.9272 359.206 Q64.9272 362.07 64.3543 365.189 Q63.8132 368.277 62.6992 371.714 L56.6518 371.714 Q58.3387 368.468 59.198 365.317 Q60.0256 362.166 60.0256 359.078 Q60.0256 354.941 58.6251 352.713 Q57.1929 350.485 54.6147 350.485 Q52.2276 350.485 50.9545 352.108 Q49.6813 353.699 48.5037 359.142 L48.0262 361.179 Q46.8804 366.622 44.5251 369.041 Q42.138 371.46 38.0002 371.46 Q32.9713 371.46 30.2341 367.895 Q27.4968 364.33 27.4968 357.773 Q27.4968 354.527 27.9743 351.662 Q28.4517 348.798 29.4065 346.379 Z" fill="#000000" fill-rule="evenodd" fill-opacity="1" /><path clip-path="url(#clip980)" d="M14.5426 336.066 L14.5426 330.974 Q22.0542 326.199 29.2474 323.844 Q36.4406 321.457 43.5384 321.457 Q50.668 321.457 57.8931 323.844 Q65.1182 326.199 72.5979 330.974 L72.5979 336.066 Q65.3091 331.833 58.1159 329.764 Q50.8908 327.664 43.5384 327.664 Q36.186 327.664 29.0246 329.764 Q21.8632 331.833 14.5426 336.066 Z" fill="#000000" fill-rule="evenodd" fill-opacity="1" /><polyline clip-path="url(#clip982)" style="stroke:#009af9; stroke-linecap:butt; stroke-linejoin:round; stroke-width:4; stroke-opacity:1; fill:none" points="
  235.808,1384.24 338.572,1366.12 441.337,1324.49 544.101,1260.71 646.866,1199.13 749.63,1124.95 852.394,1063.61 955.159,1005.84 1057.92,948.325 1160.69,877.663 
  1263.45,807.124 1366.22,739.293 1468.98,658.937 1571.75,588.526 1674.51,524.123 1777.27,462.005 1880.04,379.835 1982.8,306.256 2085.57,235.547 2188.33,157.231 
  2291.1,86.1857 
  "/>
</svg>
