<?xml version="1.0" encoding="UTF-8" standalone="no"?>
<!DOCTYPE svg PUBLIC "-//W3C//DTD SVG 1.1//EN" "http://www.w3.org/Graphics/SVG/1.1/DTD/svg11.dtd">
<svg width="100%" height="100%" viewBox="0 0 592 959" version="1.1" xmlns="http://www.w3.org/2000/svg" xmlns:xlink="http://www.w3.org/1999/xlink" xml:space="preserve" xmlns:serif="http://www.serif.com/" style="fill-rule:evenodd;clip-rule:evenodd;stroke-linejoin:round;stroke-miterlimit:2;">
    <g transform="matrix(4.16667,0,0,4.16667,0,0)">
        <path d="M19.954,230L37.859,230L19.954,205.77L19.954,230ZM65.88,230L81.863,230L73.83,205.792L65.88,230ZM104.065,0.395C119.313,7.495 131.791,19.286 139.809,34.406C140.491,35.692 141.126,36.996 141.732,38.307L141.732,0.395L104.065,0.395ZM107.544,139.587C69.658,159.689 22.488,145.209 2.394,107.312C1.528,105.681 0.741,104.023 0,102.352L0,230L10.979,230L10.979,188.91L18.275,188.91L35.892,212.695L35.892,188.91L44.811,188.91L44.811,230L57.428,230L47.156,188.91L57.302,188.91L62.776,212.993L70.18,188.792L77.707,188.792L85.112,213.218L90.642,188.91L100.643,188.91L90.37,230L113.109,230C104.695,226.86 99.278,218.87 99.278,209.505L99.278,209.384C99.278,197.291 108.408,187.442 121.279,187.442C131.03,187.442 138.62,193.029 141.732,200.994L141.732,103.414C134.657,118.854 122.798,131.494 107.544,139.587ZM39.569,73.722C44.987,83.934 54.058,91.426 65.109,94.817C76.159,98.208 87.872,97.093 98.087,91.675C108.3,86.257 115.792,77.189 119.183,66.136C122.255,56.122 121.617,45.57 117.442,36.079C118.395,41.199 118.11,46.508 116.538,51.63C113.975,59.989 108.309,66.847 100.586,70.943C95.796,73.483 90.568,74.773 85.293,74.773C82.068,74.773 78.823,74.292 75.653,73.318C67.298,70.752 60.438,65.089 56.34,57.368C47.887,41.426 53.977,21.578 69.917,13.123C72.458,11.774 75.1,10.799 77.778,10.172C70.929,10.166 63.986,11.777 57.526,15.204C36.442,26.387 28.386,52.639 39.569,73.722ZM74.441,55.968C70.954,55.968 67.732,54.865 65.081,53.001C68.417,58.837 73.758,63.123 80.217,65.106C86.944,67.17 94.073,66.489 100.29,63.193C106.509,59.895 111.071,54.373 113.134,47.643C115.201,40.916 114.52,33.786 111.222,27.566C104.414,14.731 88.432,9.829 75.597,16.636C71.347,18.89 67.975,22.152 65.602,25.971C68.15,24.321 71.179,23.353 74.441,23.353C83.445,23.353 90.747,30.655 90.747,39.662C90.747,48.666 83.445,55.968 74.441,55.968ZM6.059,54.417C0.805,71.535 2.531,89.679 10.924,105.501C19.317,121.321 33.367,132.927 50.487,138.18C67.608,143.432 85.751,141.704 101.572,133.314C117.392,124.921 128.998,110.871 134.251,93.751C136.243,87.254 137.232,80.607 137.232,73.999C137.232,65.21 135.485,56.484 132.031,48.252C133.635,56.499 133.202,65.065 130.667,73.327C126.598,86.582 117.607,97.461 105.353,103.959C97.749,107.992 89.453,110.036 81.084,110.036C75.964,110.036 70.819,109.27 65.785,107.728C52.527,103.66 41.643,94.672 35.143,82.423C21.728,57.136 31.391,25.648 56.686,12.235C61.413,9.73 66.409,7.999 71.524,7.042C60.227,6.794 48.993,9.415 38.737,14.853C22.918,23.247 11.312,37.296 6.059,54.417ZM133.963,209.505L133.963,209.384C133.963,202.091 128.548,196.411 121.16,196.411C113.771,196.411 108.646,201.97 108.646,209.262L108.646,209.384C108.646,216.676 113.89,222.526 121.279,222.526C128.668,222.526 133.963,216.798 133.963,209.505ZM129.198,230L141.732,230L141.732,217.637C139.525,223.312 135.059,227.821 129.198,230ZM0,39.363L0,0.395L38.134,0.395C36.965,0.943 35.806,1.522 34.658,2.131C19.059,10.408 7.009,23.443 0,39.363Z" style="fill:url(#_Linear1);"/>
    </g>
    <defs>
        <linearGradient id="_Linear1" x1="0" y1="0" x2="1" y2="0" gradientUnits="userSpaceOnUse" gradientTransform="matrix(134.855,-233.576,233.576,134.855,3.43834,231.985)"><stop offset="0" style="stop-color:rgb(22,105,126);stop-opacity:1"/><stop offset="1" style="stop-color:rgb(63,171,187);stop-opacity:1"/></linearGradient>
    </defs>
</svg>
